<svg xmlns="http://www.w3.org/2000/svg" viewBox="0 0 1251.68 136.55"><defs><style>.cls-1{fill:#fff;}.cls-2{fill:#0e0e0e;}.cls-3{fill:none;stroke:#000;stroke-miterlimit:10;}</style></defs><g id="图层_2" data-name="图层 2"><g id="图层_1-2" data-name="图层 1"><rect class="cls-1" width="1251.68" height="136.55"/><path class="cls-2" d="M166.93,33.14a7.61,7.61,0,0,1-2.75-3.36,12.69,12.69,0,0,1-1-5.15v0a12.65,12.65,0,0,1,1-5.15,7.52,7.52,0,0,1,2.75-3.35,8.07,8.07,0,0,1,8.42,0,7.54,7.54,0,0,1,2.75,3.34,12.66,12.66,0,0,1,1,5.15v0a12.69,12.69,0,0,1-1,5.15,7.68,7.68,0,0,1-2.74,3.35,7.41,7.41,0,0,1-4.21,1.19A7.5,7.5,0,0,1,166.93,33.14Zm7-2.28a5.5,5.5,0,0,0,1.8-2.48,10.15,10.15,0,0,0,.63-3.75v0a10.27,10.27,0,0,0-.63-3.77,5.51,5.51,0,0,0-1.82-2.45,4.55,4.55,0,0,0-2.77-.87,4.64,4.64,0,0,0-2.79.86,5.51,5.51,0,0,0-1.82,2.45,10,10,0,0,0-.64,3.78v0a10.09,10.09,0,0,0,.64,3.77,5.55,5.55,0,0,0,1.82,2.46,4.91,4.91,0,0,0,5.58,0Z"/><path class="cls-2" d="M181.36,15.23h2.55V34h-2.55Z"/><path class="cls-2" d="M188.38,33.41a5.64,5.64,0,0,1-1.79-2.47,10.25,10.25,0,0,1-.63-3.78h0a10,10,0,0,1,.64-3.77,5.55,5.55,0,0,1,1.79-2.46,4.42,4.42,0,0,1,2.7-.86,4,4,0,0,1,2.32.69,4.54,4.54,0,0,1,1.57,1.9H195V15.23h2.55V34H195V31.69H195a4.53,4.53,0,0,1-1.55,1.89,3.88,3.88,0,0,1-2.32.7A4.45,4.45,0,0,1,188.38,33.41Zm5.1-2.14a3.8,3.8,0,0,0,1.14-1.64,6.62,6.62,0,0,0,.42-2.47h0a6.62,6.62,0,0,0-.42-2.47,3.9,3.9,0,0,0-1.15-1.62,2.61,2.61,0,0,0-1.69-.58,2.7,2.7,0,0,0-1.72.57,3.53,3.53,0,0,0-1.12,1.61,7.15,7.15,0,0,0-.39,2.49h0a7.31,7.31,0,0,0,.39,2.51,3.62,3.62,0,0,0,1.12,1.62,2.74,2.74,0,0,0,1.72.55A2.7,2.7,0,0,0,193.48,31.27Z"/><path class="cls-2" d="M204.06,15.23h2.84l4.6,15.52h.06l4.61-15.52H219L213,34h-2.9Z"/><path class="cls-2" d="M221.08,33.41a5.47,5.47,0,0,1-2-2.46,9.36,9.36,0,0,1-.7-3.75h0a9.24,9.24,0,0,1,.71-3.74,5.79,5.79,0,0,1,2-2.5,5.57,5.57,0,0,1,6,0A5.56,5.56,0,0,1,229,23.32a9,9,0,0,1,.68,3.61v.95h-10v-2h8.79l-1.26,1.86v-1.1a6.41,6.41,0,0,0-.39-2.4,3,3,0,0,0-1.09-1.42,2.93,2.93,0,0,0-3.23,0,3.27,3.27,0,0,0-1.12,1.45,5.8,5.8,0,0,0-.41,2.34v1.1a5.76,5.76,0,0,0,.4,2.27,3.17,3.17,0,0,0,1.16,1.44,3.06,3.06,0,0,0,1.76.5,3.25,3.25,0,0,0,1.33-.25,2.78,2.78,0,0,0,.95-.68,2.29,2.29,0,0,0,.54-.94l0-.11h2.42l0,.15a5,5,0,0,1-.57,1.55,5.14,5.14,0,0,1-2.68,2.26,6,6,0,0,1-2,.34A5.52,5.52,0,0,1,221.08,33.41Z"/><path class="cls-2" d="M231.59,20.32h2.56v2.34h0a3.71,3.71,0,0,1,1.05-1.9,2.53,2.53,0,0,1,1.8-.7,3.89,3.89,0,0,1,.51,0l.37.07v2.62a1.62,1.62,0,0,0-.46-.11,4.61,4.61,0,0,0-.68-.05,2.47,2.47,0,0,0-1.4.39,2.39,2.39,0,0,0-.92,1.1,4.33,4.33,0,0,0-.31,1.74V34h-2.56Z"/><path class="cls-2" d="M241.46,33.75a4.32,4.32,0,0,1-1.74-1.47,4.81,4.81,0,0,1-.76-2.19V30h2.51l0,.13a2.48,2.48,0,0,0,.83,1.47,2.79,2.79,0,0,0,1.81.52,3.63,3.63,0,0,0,1.31-.21,1.84,1.84,0,0,0,.83-.62,1.57,1.57,0,0,0,.3-1v0a1.46,1.46,0,0,0-.39-1.06,3,3,0,0,0-1.38-.68l-2-.51a5.12,5.12,0,0,1-2.63-1.4,3.46,3.46,0,0,1-.87-2.43v0a4,4,0,0,1,.59-2.16,4,4,0,0,1,1.68-1.45,5.78,5.78,0,0,1,2.5-.51,5.3,5.3,0,0,1,2.5.55,4,4,0,0,1,1.65,1.49,4.29,4.29,0,0,1,.65,2.1v.15h-2.38v-.09a2.21,2.21,0,0,0-.73-1.46,2.37,2.37,0,0,0-1.68-.57,3.08,3.08,0,0,0-1.19.22,1.79,1.79,0,0,0-.77.63,1.74,1.74,0,0,0-.27,1h0a1.5,1.5,0,0,0,.42,1.07,3,3,0,0,0,1.41.69l2,.52a5.29,5.29,0,0,1,2.68,1.36,3.37,3.37,0,0,1,.79,2.36h0a3.8,3.8,0,0,1-.64,2.2,4.27,4.27,0,0,1-1.78,1.48,5.89,5.89,0,0,1-2.58.54A6.19,6.19,0,0,1,241.46,33.75Z"/><path class="cls-2" d="M251.42,17.74a1.75,1.75,0,0,1,0-2.3,1.39,1.39,0,0,1,1-.47,1.36,1.36,0,0,1,1,.47,1.75,1.75,0,0,1,0,2.3,1.36,1.36,0,0,1-1,.47A1.39,1.39,0,0,1,251.42,17.74Zm-.24,2.58h2.56V34h-2.56Z"/><path class="cls-2" d="M258.56,33.41a5.54,5.54,0,0,1-2-2.46,9,9,0,0,1-.73-3.79v0a9,9,0,0,1,.73-3.78,5.68,5.68,0,0,1,2.05-2.44,5.57,5.57,0,0,1,8.19,2.43,9,9,0,0,1,.74,3.79v0a9,9,0,0,1-.74,3.8,5.64,5.64,0,0,1-2,2.45,5.89,5.89,0,0,1-6.16,0Zm4.81-2.06a3.53,3.53,0,0,0,1.13-1.62,7.46,7.46,0,0,0,.4-2.57v0a7.44,7.44,0,0,0-.4-2.56A3.51,3.51,0,0,0,263.36,23a2.79,2.79,0,0,0-1.72-.56,2.76,2.76,0,0,0-1.71.56,3.6,3.6,0,0,0-1.14,1.62,7.1,7.1,0,0,0-.41,2.55v0a7.23,7.23,0,0,0,.4,2.57,3.49,3.49,0,0,0,1.15,1.62,2.8,2.8,0,0,0,1.73.56A2.72,2.72,0,0,0,263.37,31.35Z"/><path class="cls-2" d="M269.44,20.32H272v2.07h0a4.1,4.1,0,0,1,1.45-1.69,4.05,4.05,0,0,1,2.34-.64A3.82,3.82,0,0,1,279,21.42a5.74,5.74,0,0,1,1.11,3.73V34h-2.54V25.69a3.83,3.83,0,0,0-.65-2.38,2.35,2.35,0,0,0-2-.83,2.8,2.8,0,0,0-1.56.44,2.91,2.91,0,0,0-1,1.24A4.66,4.66,0,0,0,272,26v8h-2.56Z"/><path class="cls-2" d="M286.33,20.32H289l3.1,10.93h.06l3.08-10.93h2.66L293.5,34h-2.73Z"/><path class="cls-2" d="M301.32,33.75a4.19,4.19,0,0,1-1.74-1.47,4.81,4.81,0,0,1-.76-2.19V30h2.51l0,.13a2.48,2.48,0,0,0,.83,1.47,2.79,2.79,0,0,0,1.81.52,3.63,3.63,0,0,0,1.31-.21,1.84,1.84,0,0,0,.83-.62,1.57,1.57,0,0,0,.3-1v0a1.46,1.46,0,0,0-.39-1.06,3,3,0,0,0-1.38-.68l-2-.51a5.12,5.12,0,0,1-2.63-1.4,3.46,3.46,0,0,1-.87-2.43v0a4,4,0,0,1,.59-2.16,4,4,0,0,1,1.68-1.45,5.78,5.78,0,0,1,2.5-.51,5.3,5.3,0,0,1,2.5.55,4,4,0,0,1,1.65,1.49,4.29,4.29,0,0,1,.65,2.1v.15h-2.38v-.09a2.21,2.21,0,0,0-.73-1.46,2.37,2.37,0,0,0-1.68-.57,3.08,3.08,0,0,0-1.19.22,1.79,1.79,0,0,0-.77.63,1.74,1.74,0,0,0-.27,1h0a1.5,1.5,0,0,0,.42,1.07,3,3,0,0,0,1.41.69l2,.52a5.29,5.29,0,0,1,2.68,1.36,3.37,3.37,0,0,1,.79,2.36h0a3.8,3.8,0,0,1-.64,2.2,4.27,4.27,0,0,1-1.78,1.48,5.89,5.89,0,0,1-2.58.54A6.19,6.19,0,0,1,301.32,33.75Z"/><path class="cls-2" d="M316.11,15.23h2.42l10.41,16.59-2.78-2.73h1.14V15.23h2.61V34h-2.42L317.08,17.39l2.78,2.72h-1.14V34h-2.61Z"/><path class="cls-2" d="M334.86,33.41a5.4,5.4,0,0,1-2-2.46,9.19,9.19,0,0,1-.7-3.75h0a9.42,9.42,0,0,1,.7-3.74,5.79,5.79,0,0,1,2-2.5,5.59,5.59,0,0,1,6,0,5.47,5.47,0,0,1,1.92,2.41,8.81,8.81,0,0,1,.68,3.61v.95h-10v-2h8.78L341,27.75v-1.1a6.41,6.41,0,0,0-.39-2.4,3.08,3.08,0,0,0-1.09-1.42,2.85,2.85,0,0,0-1.61-.47,2.78,2.78,0,0,0-1.62.5,3.29,3.29,0,0,0-1.13,1.45,6,6,0,0,0-.41,2.34v1.1a5.75,5.75,0,0,0,.41,2.27,3.15,3.15,0,0,0,1.15,1.44A3.07,3.07,0,0,0,338,32a3.29,3.29,0,0,0,1.33-.25,2.78,2.78,0,0,0,.95-.68,2.27,2.27,0,0,0,.53-.94l0-.11h2.41l0,.15a5,5,0,0,1-.57,1.55A5.31,5.31,0,0,1,341.6,33a5.21,5.21,0,0,1-1.59.93,6,6,0,0,1-2,.34A5.48,5.48,0,0,1,334.86,33.41Z"/><path class="cls-2" d="M344.4,20.32h2.54l2.24,10.77h.06l2.55-10.77h2.45l2.58,10.77h.06l2.23-10.77h2.52L358.26,34h-2.65L353,23.75H353L350.41,34h-2.64Z"/><path class="cls-2" d="M367.08,15.23h2.84l4.6,15.52h.06l4.61-15.52H382L376,34h-2.9Z"/><path class="cls-2" d="M384.1,33.41a5.47,5.47,0,0,1-2-2.46,9.36,9.36,0,0,1-.7-3.75h0a9.24,9.24,0,0,1,.71-3.74,5.79,5.79,0,0,1,2-2.5,5.57,5.57,0,0,1,6,0A5.56,5.56,0,0,1,392,23.32a9,9,0,0,1,.68,3.61v.95h-10v-2h8.79l-1.26,1.86v-1.1a6.41,6.41,0,0,0-.39-2.4,3.08,3.08,0,0,0-1.09-1.42,2.93,2.93,0,0,0-3.23,0,3.21,3.21,0,0,0-1.12,1.45,5.8,5.8,0,0,0-.41,2.34v1.1a5.76,5.76,0,0,0,.4,2.27,3.15,3.15,0,0,0,1.15,1.44,3.07,3.07,0,0,0,1.77.5,3.25,3.25,0,0,0,1.33-.25,2.78,2.78,0,0,0,.95-.68,2.29,2.29,0,0,0,.54-.94l0-.11h2.42l0,.15a5,5,0,0,1-.57,1.55,5.31,5.31,0,0,1-1.1,1.33,5.21,5.21,0,0,1-1.59.93,5.88,5.88,0,0,1-2,.34A5.52,5.52,0,0,1,384.1,33.41Z"/><path class="cls-2" d="M394.61,20.32h2.56v2.34h0a3.7,3.7,0,0,1,1-1.9,2.55,2.55,0,0,1,1.81-.7,3.89,3.89,0,0,1,.51,0l.37.07v2.62a1.72,1.72,0,0,0-.46-.11,4.61,4.61,0,0,0-.68-.05,2.47,2.47,0,0,0-1.4.39,2.39,2.39,0,0,0-.92,1.1,4.33,4.33,0,0,0-.31,1.74V34h-2.56Z"/><path class="cls-2" d="M404.48,33.75a4.32,4.32,0,0,1-1.74-1.47,4.81,4.81,0,0,1-.76-2.19V30h2.51l0,.13a2.48,2.48,0,0,0,.83,1.47,2.79,2.79,0,0,0,1.81.52,3.63,3.63,0,0,0,1.31-.21,1.84,1.84,0,0,0,.83-.62,1.57,1.57,0,0,0,.3-1v0a1.46,1.46,0,0,0-.39-1.06,3,3,0,0,0-1.38-.68l-2-.51a5.12,5.12,0,0,1-2.63-1.4,3.46,3.46,0,0,1-.87-2.43v0a4,4,0,0,1,.59-2.16,4,4,0,0,1,1.68-1.45,5.78,5.78,0,0,1,2.5-.51,5.3,5.3,0,0,1,2.5.55,4,4,0,0,1,1.65,1.49,4.29,4.29,0,0,1,.65,2.1v.15h-2.38v-.09a2.21,2.21,0,0,0-.73-1.46,2.37,2.37,0,0,0-1.68-.57,3.08,3.08,0,0,0-1.19.22,1.79,1.79,0,0,0-.77.63,1.74,1.74,0,0,0-.27,1h0a1.5,1.5,0,0,0,.42,1.07,3,3,0,0,0,1.41.69l2,.52a5.29,5.29,0,0,1,2.68,1.36,3.37,3.37,0,0,1,.79,2.36h0a3.8,3.8,0,0,1-.64,2.2,4.27,4.27,0,0,1-1.78,1.48,5.89,5.89,0,0,1-2.58.54A6.19,6.19,0,0,1,404.48,33.75Z"/><path class="cls-2" d="M414.44,17.74a1.72,1.72,0,0,1,0-2.3,1.39,1.39,0,0,1,1-.47,1.36,1.36,0,0,1,1,.47,1.75,1.75,0,0,1,0,2.3,1.36,1.36,0,0,1-1,.47A1.39,1.39,0,0,1,414.44,17.74Zm-.24,2.58h2.56V34H414.2Z"/><path class="cls-2" d="M421.58,33.41a5.54,5.54,0,0,1-2-2.46,9,9,0,0,1-.73-3.79v0a9,9,0,0,1,.73-3.78,5.68,5.68,0,0,1,2-2.44,5.57,5.57,0,0,1,8.19,2.43,9,9,0,0,1,.74,3.79v0a9,9,0,0,1-.74,3.8,5.64,5.64,0,0,1-2,2.45,5.89,5.89,0,0,1-6.16,0Zm4.81-2.06a3.53,3.53,0,0,0,1.13-1.62,7.46,7.46,0,0,0,.4-2.57v0a7.44,7.44,0,0,0-.4-2.56A3.51,3.51,0,0,0,426.38,23a2.79,2.79,0,0,0-1.72-.56A2.76,2.76,0,0,0,423,23a3.6,3.6,0,0,0-1.14,1.62,7.1,7.1,0,0,0-.41,2.55v0a7.23,7.23,0,0,0,.4,2.57A3.49,3.49,0,0,0,423,31.35a2.8,2.8,0,0,0,1.73.56A2.72,2.72,0,0,0,426.39,31.35Z"/><path class="cls-2" d="M432.46,20.32H435v2.07h0a3.94,3.94,0,0,1,3.79-2.33A3.82,3.82,0,0,1,442,21.42a5.74,5.74,0,0,1,1.11,3.73V34h-2.54V25.69a3.83,3.83,0,0,0-.65-2.38,2.35,2.35,0,0,0-2-.83,2.77,2.77,0,0,0-1.56.44,2.91,2.91,0,0,0-1,1.24A4.66,4.66,0,0,0,435,26v8h-2.56Z"/><line class="cls-3" x1="164.69" y1="75.88" x2="205.01" y2="75.88"/><path class="cls-2" d="M163.14,49.87h1.75V62.38h-1.75Z"/><path class="cls-2" d="M166.76,53.26h1.7v1.38h0a2.75,2.75,0,0,1,1-1.12,2.68,2.68,0,0,1,1.56-.43,2.57,2.57,0,0,1,2.1.9,3.87,3.87,0,0,1,.74,2.49v5.9h-1.7V56.84a2.53,2.53,0,0,0-.43-1.59,1.55,1.55,0,0,0-1.31-.55,1.86,1.86,0,0,0-1,.29,1.92,1.92,0,0,0-.68.83,3,3,0,0,0-.24,1.25v5.31h-1.7Z"/><path class="cls-2" d="M176.56,62a2.73,2.73,0,0,1-.6-2V54.75h-1.18V53.26H176V50.88h1.73v2.38h1.54v1.49h-1.54v5.12a1.25,1.25,0,0,0,.28,1,1.14,1.14,0,0,0,.81.25H179l.2,0v1.45l-.37,0a3.68,3.68,0,0,1-.49,0A2.42,2.42,0,0,1,176.56,62Z"/><path class="cls-2" d="M181.87,62a3.71,3.71,0,0,1-1.34-1.64,6.2,6.2,0,0,1-.46-2.5h0a6.18,6.18,0,0,1,.47-2.49,3.83,3.83,0,0,1,1.32-1.67,3.37,3.37,0,0,1,2-.59,3.52,3.52,0,0,1,2,.56,3.7,3.7,0,0,1,1.28,1.61,6,6,0,0,1,.45,2.41v.63H180.9V57h5.86l-.83,1.24v-.73a4.36,4.36,0,0,0-.26-1.6,2.11,2.11,0,0,0-.73-1,1.94,1.94,0,0,0-1.07-.31,1.82,1.82,0,0,0-1.08.33,2.13,2.13,0,0,0-.75,1,3.79,3.79,0,0,0-.28,1.56v.73a3.86,3.86,0,0,0,.27,1.52,2.24,2.24,0,0,0,.77,1A2.12,2.12,0,0,0,184,61a2.24,2.24,0,0,0,.89-.17,1.81,1.81,0,0,0,.63-.45,1.66,1.66,0,0,0,.36-.63l0-.07h1.61v.1a3.31,3.31,0,0,1-.39,1,3.44,3.44,0,0,1-.73.89,3.37,3.37,0,0,1-1.06.62,3.88,3.88,0,0,1-1.36.23A3.7,3.7,0,0,1,181.87,62Z"/><path class="cls-2" d="M188.87,53.26h1.71v1.56h0a2.49,2.49,0,0,1,.69-1.27,1.73,1.73,0,0,1,1.21-.46,1.88,1.88,0,0,1,.34,0,1.11,1.11,0,0,1,.24,0V54.9a1.33,1.33,0,0,0-.3-.07,3.23,3.23,0,0,0-.46,0,1.68,1.68,0,0,0-.93.25,1.6,1.6,0,0,0-.61.74,2.86,2.86,0,0,0-.21,1.16v5.43h-1.71Z"/><path class="cls-2" d="M194.65,54.75h-1.14V53.26h1.14v-1a2.85,2.85,0,0,1,.58-2,2.41,2.41,0,0,1,1.84-.63,4.61,4.61,0,0,1,.52,0,2.11,2.11,0,0,1,.42.06v1.38l-.27,0h-.31a1.08,1.08,0,0,0-.84.3,1.31,1.31,0,0,0-.27.9v.94H198v1.49h-1.63v7.63h-1.7Z"/><path class="cls-2" d="M199.84,62.2a2.42,2.42,0,0,1-1-1,3,3,0,0,1-.34-1.44v0a2.34,2.34,0,0,1,.8-1.89,3.7,3.7,0,0,1,2.25-.8l3.11-.2v1.31l-2.88.2a1.94,1.94,0,0,0-1.17.41,1.16,1.16,0,0,0-.41.93v0a1.17,1.17,0,0,0,.41.94,1.64,1.64,0,0,0,1.09.35,2.13,2.13,0,0,0,1.07-.27,2.06,2.06,0,0,0,1-1.8V56.25a1.57,1.57,0,0,0-.43-1.18,1.6,1.6,0,0,0-1.21-.43A1.76,1.76,0,0,0,201,55a1.41,1.41,0,0,0-.55.89l0,.08h-1.59v-.1a3,3,0,0,1,.48-1.42,2.86,2.86,0,0,1,1.15-1,3.92,3.92,0,0,1,1.74-.36,3.78,3.78,0,0,1,1.74.37,2.76,2.76,0,0,1,1.14,1,3,3,0,0,1,.41,1.59v6.28h-1.7V60.94h0a3,3,0,0,1-.63.86,2.69,2.69,0,0,1-.86.55,2.74,2.74,0,0,1-1,.2A2.9,2.9,0,0,1,199.84,62.2Z"/><path class="cls-2" d="M208.62,62a3.61,3.61,0,0,1-1.35-1.64,6.14,6.14,0,0,1-.47-2.53h0a6,6,0,0,1,.48-2.5,3.79,3.79,0,0,1,1.35-1.64,3.67,3.67,0,0,1,2.05-.57,3.63,3.63,0,0,1,1.82.44,3.29,3.29,0,0,1,1.21,1.19,3.72,3.72,0,0,1,.51,1.59v.07h-1.62l0-.08a2.29,2.29,0,0,0-.6-1.15,1.72,1.72,0,0,0-1.3-.49,1.74,1.74,0,0,0-1.14.38,2.49,2.49,0,0,0-.76,1.1,4.7,4.7,0,0,0-.27,1.68h0a4.52,4.52,0,0,0,.28,1.7,2.27,2.27,0,0,0,.76,1.08,1.8,1.8,0,0,0,1.14.38,1.73,1.73,0,0,0,1.26-.46,2.2,2.2,0,0,0,.64-1.19v-.07h1.62v.06a3.64,3.64,0,0,1-.56,1.64,3.42,3.42,0,0,1-1.22,1.17,3.61,3.61,0,0,1-1.76.43A3.67,3.67,0,0,1,208.62,62Z"/><path class="cls-2" d="M216.87,62a3.71,3.71,0,0,1-1.34-1.64,6.2,6.2,0,0,1-.46-2.5h0a6.18,6.18,0,0,1,.47-2.49,3.83,3.83,0,0,1,1.32-1.67,3.37,3.37,0,0,1,2-.59,3.52,3.52,0,0,1,2,.56,3.7,3.7,0,0,1,1.28,1.61,6,6,0,0,1,.45,2.41v.63H215.9V57h5.86l-.83,1.24v-.73a4.36,4.36,0,0,0-.26-1.6,2.11,2.11,0,0,0-.73-1,1.94,1.94,0,0,0-1.07-.31,1.82,1.82,0,0,0-1.08.33,2.13,2.13,0,0,0-.75,1,3.79,3.79,0,0,0-.28,1.56v.73a3.86,3.86,0,0,0,.27,1.52,2.24,2.24,0,0,0,.77,1A2.12,2.12,0,0,0,219,61a2.24,2.24,0,0,0,.89-.17,1.81,1.81,0,0,0,.63-.45,1.66,1.66,0,0,0,.36-.63l0-.07h1.61v.1a3.31,3.31,0,0,1-.39,1,3.44,3.44,0,0,1-.73.89,3.37,3.37,0,0,1-1.06.62,3.88,3.88,0,0,1-1.36.23A3.7,3.7,0,0,1,216.87,62Z"/><path class="cls-2" d="M228.37,62a3.61,3.61,0,0,1-1.2-1.64,6.86,6.86,0,0,1-.42-2.52h0a6.76,6.76,0,0,1,.42-2.51,3.82,3.82,0,0,1,1.2-1.64,2.93,2.93,0,0,1,1.8-.57,2.64,2.64,0,0,1,1.54.46,3,3,0,0,1,1,1.26h0V49.87h1.7V62.38h-1.7V60.84h0a3,3,0,0,1-1,1.26,2.62,2.62,0,0,1-1.54.47A2.92,2.92,0,0,1,228.37,62Zm3.39-1.42a2.56,2.56,0,0,0,.77-1.09,4.6,4.6,0,0,0,.27-1.65h0a4.3,4.3,0,0,0-.28-1.64,2.53,2.53,0,0,0-.76-1.08,1.76,1.76,0,0,0-1.13-.39,1.85,1.85,0,0,0-1.15.38,2.36,2.36,0,0,0-.74,1.07,4.63,4.63,0,0,0-.26,1.66h0a4.69,4.69,0,0,0,.26,1.67,2.34,2.34,0,0,0,.74,1.08,1.84,1.84,0,0,0,1.15.37A1.81,1.81,0,0,0,231.76,60.56Z"/><path class="cls-2" d="M237.65,62a3.71,3.71,0,0,1-1.34-1.64,6.2,6.2,0,0,1-.46-2.5h0a6.18,6.18,0,0,1,.47-2.49,3.83,3.83,0,0,1,1.32-1.67,3.37,3.37,0,0,1,2-.59,3.52,3.52,0,0,1,2,.56,3.7,3.7,0,0,1,1.28,1.61,6,6,0,0,1,.46,2.41v.63h-6.68V57h5.86l-.84,1.24v-.73a4.36,4.36,0,0,0-.26-1.6,2.11,2.11,0,0,0-.73-1,1.94,1.94,0,0,0-1.07-.31,1.86,1.86,0,0,0-1.08.33,2.13,2.13,0,0,0-.75,1,4,4,0,0,0-.27,1.56v.73a4.06,4.06,0,0,0,.26,1.52,2.24,2.24,0,0,0,.77,1,2.12,2.12,0,0,0,1.18.33,2.24,2.24,0,0,0,.89-.17,1.81,1.81,0,0,0,.63-.45,1.66,1.66,0,0,0,.36-.63l0-.07h1.61v.1a3.31,3.31,0,0,1-.39,1,3.24,3.24,0,0,1-.73.89,3.37,3.37,0,0,1-1.06.62,3.82,3.82,0,0,1-1.35.23A3.71,3.71,0,0,1,237.65,62Z"/><path class="cls-2" d="M246,62.21a2.79,2.79,0,0,1-1.16-1,3.19,3.19,0,0,1-.51-1.46v-.08H246v.09a1.61,1.61,0,0,0,.56,1,1.85,1.85,0,0,0,1.2.35,2.26,2.26,0,0,0,.87-.15,1.19,1.19,0,0,0,.56-.41,1.05,1.05,0,0,0,.19-.64h0a1,1,0,0,0-.25-.71,2.06,2.06,0,0,0-.93-.45l-1.34-.34a3.32,3.32,0,0,1-1.75-.93,2.31,2.31,0,0,1-.59-1.63h0A2.55,2.55,0,0,1,246,53.43a3.79,3.79,0,0,1,1.66-.34,3.65,3.65,0,0,1,1.68.36,2.75,2.75,0,0,1,1.09,1,2.85,2.85,0,0,1,.44,1.4V56h-1.59v-.06a1.51,1.51,0,0,0-.48-1,1.62,1.62,0,0,0-1.13-.38,2,2,0,0,0-.79.15,1.18,1.18,0,0,0-.51.42,1.14,1.14,0,0,0-.18.64h0a1,1,0,0,0,.28.71,1.92,1.92,0,0,0,.94.46l1.34.35a3.52,3.52,0,0,1,1.79.9,2.28,2.28,0,0,1,.52,1.58h0a2.51,2.51,0,0,1-.43,1.46,2.88,2.88,0,0,1-1.18,1,4,4,0,0,1-1.72.36A4,4,0,0,1,246,62.21Z"/><path class="cls-2" d="M252.62,51.54a1.15,1.15,0,0,1,0-1.53A.93.93,0,0,1,254,50a1.15,1.15,0,0,1,0,1.53.91.91,0,0,1-1.39,0Zm-.16,1.72h1.7v9.12h-1.7Z"/><path class="cls-2" d="M257.67,65.27a3.33,3.33,0,0,1-1.27-.89,2.83,2.83,0,0,1-.6-1.26V63h1.69l0,.07a1.35,1.35,0,0,0,.69.71,2.83,2.83,0,0,0,1.31.27A1.9,1.9,0,0,0,261.58,62V60.77h0a2.83,2.83,0,0,1-.62.86,2.65,2.65,0,0,1-.87.56,2.83,2.83,0,0,1-1.1.2,2.93,2.93,0,0,1-1.8-.57,3.57,3.57,0,0,1-1.2-1.61,6.53,6.53,0,0,1-.42-2.46h0a6.38,6.38,0,0,1,.43-2.47,3.69,3.69,0,0,1,1.21-1.62,3,3,0,0,1,1.81-.56,2.74,2.74,0,0,1,1.08.21,2.87,2.87,0,0,1,.86.61,3.2,3.2,0,0,1,.62.9h0V53.26h1.69v8.87a3.47,3.47,0,0,1-.46,1.82,3.07,3.07,0,0,1-1.3,1.22,4.34,4.34,0,0,1-2,.43A4.69,4.69,0,0,1,257.67,65.27Zm2.89-4.79a2.46,2.46,0,0,0,.75-1.07,4.49,4.49,0,0,0,.27-1.63h0a4.49,4.49,0,0,0-.27-1.63,2.36,2.36,0,0,0-.76-1.06,1.78,1.78,0,0,0-1.12-.38,1.82,1.82,0,0,0-1.15.37,2.42,2.42,0,0,0-.76,1.06,4.5,4.5,0,0,0-.26,1.63h0a4.54,4.54,0,0,0,.26,1.65,2.39,2.39,0,0,0,.76,1.07,1.83,1.83,0,0,0,1.15.38A1.74,1.74,0,0,0,260.56,60.48Z"/><path class="cls-2" d="M264.93,53.26h1.7v1.38h0a2.65,2.65,0,0,1,2.53-1.55,2.56,2.56,0,0,1,2.09.9,3.87,3.87,0,0,1,.74,2.49v5.9h-1.69V56.84a2.53,2.53,0,0,0-.44-1.59,1.55,1.55,0,0,0-1.31-.55,1.86,1.86,0,0,0-1,.29,1.92,1.92,0,0,0-.68.83,3,3,0,0,0-.24,1.25v5.31h-1.7Z"/><path class="cls-2" d="M278,62a2.73,2.73,0,0,1-.59-2V54.75h-1.18V53.26h1.18V50.88h1.73v2.38h1.54v1.49H279.1v5.12a1.3,1.3,0,0,0,.27,1,1.18,1.18,0,0,0,.82.25h.24l.21,0v1.45l-.38,0a3.64,3.64,0,0,1-.48,0A2.44,2.44,0,0,1,278,62Z"/><path class="cls-2" d="M283.32,62A3.81,3.81,0,0,1,282,60.35a6.11,6.11,0,0,1-.48-2.53v0a6,6,0,0,1,.48-2.51,3.75,3.75,0,0,1,1.37-1.63,3.68,3.68,0,0,1,2-.57,3.57,3.57,0,0,1,3.42,2.19,5.93,5.93,0,0,1,.49,2.52v0a5.92,5.92,0,0,1-.49,2.53A3.81,3.81,0,0,1,287.43,62a3.93,3.93,0,0,1-4.11,0Zm3.21-1.38a2.33,2.33,0,0,0,.75-1.08,4.79,4.79,0,0,0,.27-1.71v0a4.77,4.77,0,0,0-.27-1.7,2.29,2.29,0,0,0-.76-1.07,1.84,1.84,0,0,0-1.15-.37,1.78,1.78,0,0,0-1.13.37,2.39,2.39,0,0,0-.76,1.07,4.55,4.55,0,0,0-.28,1.7v0a4.79,4.79,0,0,0,.27,1.71,2.27,2.27,0,0,0,.76,1.08,1.88,1.88,0,0,0,1.16.38A1.8,1.8,0,0,0,286.53,60.61Z"/><path class="cls-2" d="M293.81,53.26h1.7v1.41h0a2.36,2.36,0,0,1,.86-1.15,2.33,2.33,0,0,1,1.41-.43,2.45,2.45,0,0,1,1,.21,2.08,2.08,0,0,1,.78.61,2.61,2.61,0,0,1,.49,1h0a2.77,2.77,0,0,1,.59-1,2.6,2.6,0,0,1,.88-.62,2.82,2.82,0,0,1,1.09-.21,2.48,2.48,0,0,1,2.35,1.43,3.57,3.57,0,0,1,.34,1.58v6.28h-1.71V56.56a2.09,2.09,0,0,0-.4-1.37,1.42,1.42,0,0,0-1.17-.49,1.56,1.56,0,0,0-.88.25,1.69,1.69,0,0,0-.59.7,2.43,2.43,0,0,0-.21,1v5.7h-1.67v-6a1.82,1.82,0,0,0-.42-1.27,1.42,1.42,0,0,0-1.13-.46,1.57,1.57,0,0,0-.88.26,1.83,1.83,0,0,0-.61.73,2.51,2.51,0,0,0-.22,1.06v5.63h-1.7Z"/><path class="cls-2" d="M308,62.2a2.42,2.42,0,0,1-1-1,3,3,0,0,1-.35-1.44v0a2.38,2.38,0,0,1,.8-1.89,3.75,3.75,0,0,1,2.26-.8l3.11-.2v1.31l-2.88.2a1.94,1.94,0,0,0-1.17.41,1.13,1.13,0,0,0-.41.93v0a1.14,1.14,0,0,0,.41.94,1.62,1.62,0,0,0,1.09.35,2.09,2.09,0,0,0,1.06-.27,2,2,0,0,0,.75-.74A2.12,2.12,0,0,0,312,59V56.25a1.48,1.48,0,0,0-1.63-1.61,1.81,1.81,0,0,0-1.17.35,1.45,1.45,0,0,0-.55.89V56H307v-.1a2.94,2.94,0,0,1,.48-1.42,2.83,2.83,0,0,1,1.14-1,4,4,0,0,1,1.75-.36,3.78,3.78,0,0,1,1.74.37,2.76,2.76,0,0,1,1.14,1,3,3,0,0,1,.41,1.59v6.28H312V60.94h0a3,3,0,0,1-.62.86,2.85,2.85,0,0,1-.87.55,2.69,2.69,0,0,1-1,.2A2.9,2.9,0,0,1,308,62.2Z"/><path class="cls-2" d="M315.41,49.87h1.7V62.38h-1.7Zm1.4,7.28h.34l3.29-3.89h2l-3.85,4.49h-.26l-1.51,1.68Zm.88,1,1.1-1.34,3.76,5.57h-2Z"/><path class="cls-2" d="M324.43,62a3.69,3.69,0,0,1-1.33-1.64,6.19,6.19,0,0,1-.47-2.5h0a6.18,6.18,0,0,1,.47-2.49,3.83,3.83,0,0,1,1.32-1.67,3.37,3.37,0,0,1,2-.59,3.52,3.52,0,0,1,2,.56,3.7,3.7,0,0,1,1.28,1.61,5.82,5.82,0,0,1,.46,2.41v.63h-6.68V57h5.86l-.84,1.24v-.73a4.36,4.36,0,0,0-.26-1.6,2.11,2.11,0,0,0-.73-1,1.94,1.94,0,0,0-1.07-.31,1.86,1.86,0,0,0-1.08.33,2.13,2.13,0,0,0-.75,1,4,4,0,0,0-.27,1.56v.73a3.86,3.86,0,0,0,.27,1.52,2.17,2.17,0,0,0,.77,1,2.07,2.07,0,0,0,1.18.33,2.23,2.23,0,0,0,.88-.17,1.72,1.72,0,0,0,.63-.45,1.66,1.66,0,0,0,.36-.63l0-.07h1.61v.1a3.31,3.31,0,0,1-.39,1,3.24,3.24,0,0,1-.73.89,3.43,3.43,0,0,1-1.05.62,3.92,3.92,0,0,1-1.36.23A3.71,3.71,0,0,1,324.43,62Z"/><path class="cls-2" d="M335.75,62a2.73,2.73,0,0,1-.6-2V54.75H334V53.26h1.17V50.88h1.74v2.38h1.54v1.49h-1.54v5.12a1.3,1.3,0,0,0,.27,1,1.17,1.17,0,0,0,.82.25h.24l.21,0v1.45l-.38,0a3.64,3.64,0,0,1-.48,0A2.44,2.44,0,0,1,335.75,62Z"/><path class="cls-2" d="M339.88,49.87h1.7v4.89h0a2.62,2.62,0,0,1,1-1.24,2.76,2.76,0,0,1,1.57-.43,2.66,2.66,0,0,1,1.54.45,3,3,0,0,1,1,1.28,4.62,4.62,0,0,1,.37,1.93v5.63h-1.7V57.1a2.82,2.82,0,0,0-.49-1.77,1.66,1.66,0,0,0-1.38-.63,1.75,1.75,0,0,0-1,.3,2.16,2.16,0,0,0-.67.84,3.08,3.08,0,0,0-.24,1.26v5.28h-1.7Z"/><path class="cls-2" d="M350.14,62a3.69,3.69,0,0,1-1.33-1.64,6.19,6.19,0,0,1-.47-2.5h0a6.18,6.18,0,0,1,.47-2.49,3.83,3.83,0,0,1,1.32-1.67,3.39,3.39,0,0,1,2-.59,3.52,3.52,0,0,1,2,.56,3.7,3.7,0,0,1,1.28,1.61,5.82,5.82,0,0,1,.46,2.41v.63h-6.68V57H355l-.84,1.24v-.73a4.36,4.36,0,0,0-.26-1.6,2,2,0,0,0-.73-1,1.92,1.92,0,0,0-1.07-.31,1.86,1.86,0,0,0-1.08.33,2.13,2.13,0,0,0-.75,1,4,4,0,0,0-.27,1.56v.73a3.86,3.86,0,0,0,.27,1.52,2.17,2.17,0,0,0,.77,1,2.07,2.07,0,0,0,1.18.33,2.23,2.23,0,0,0,.88-.17,1.85,1.85,0,0,0,.64-.45,1.78,1.78,0,0,0,.35-.63l0-.07h1.61v.1a3.56,3.56,0,0,1-.38,1,3.65,3.65,0,0,1-.73.89,3.48,3.48,0,0,1-1.06.62,3.92,3.92,0,0,1-1.36.23A3.73,3.73,0,0,1,350.14,62Z"/><path class="cls-2" d="M361.85,62a3.69,3.69,0,0,1-1.36-1.64,6.31,6.31,0,0,1-.47-2.53h0a6,6,0,0,1,.48-2.5,3.75,3.75,0,0,1,1.36-1.64,4,4,0,0,1,3.87-.13,3.45,3.45,0,0,1,1.21,1.19,3.58,3.58,0,0,1,.5,1.59v.07h-1.62V56.3a2.23,2.23,0,0,0-.61-1.15,1.7,1.7,0,0,0-1.3-.49,1.74,1.74,0,0,0-1.13.38,2.49,2.49,0,0,0-.76,1.1,4.7,4.7,0,0,0-.27,1.68h0a4.74,4.74,0,0,0,.27,1.7,2.34,2.34,0,0,0,.76,1.08,1.85,1.85,0,0,0,1.15.38,1.73,1.73,0,0,0,1.26-.46,2.26,2.26,0,0,0,.64-1.19v-.07h1.63v.06A3.64,3.64,0,0,1,366.9,61a3.45,3.45,0,0,1-1.23,1.17,3.54,3.54,0,0,1-1.75.43A3.62,3.62,0,0,1,361.85,62Z"/><path class="cls-2" d="M370.14,62a3.81,3.81,0,0,1-1.36-1.64,6.11,6.11,0,0,1-.48-2.53v0a6,6,0,0,1,.48-2.51,3.75,3.75,0,0,1,1.37-1.63,3.68,3.68,0,0,1,2-.57,3.57,3.57,0,0,1,3.42,2.19,5.93,5.93,0,0,1,.49,2.52v0a5.92,5.92,0,0,1-.49,2.53A3.81,3.81,0,0,1,374.25,62a3.68,3.68,0,0,1-2.05.58A3.73,3.73,0,0,1,370.14,62Zm3.21-1.38a2.33,2.33,0,0,0,.75-1.08,4.79,4.79,0,0,0,.27-1.71v0a4.77,4.77,0,0,0-.27-1.7,2.29,2.29,0,0,0-.76-1.07,1.84,1.84,0,0,0-1.15-.37,1.78,1.78,0,0,0-1.13.37,2.39,2.39,0,0,0-.76,1.07,4.55,4.55,0,0,0-.28,1.7v0a4.79,4.79,0,0,0,.27,1.71,2.34,2.34,0,0,0,.76,1.08,1.88,1.88,0,0,0,1.16.38A1.8,1.8,0,0,0,373.35,60.61Z"/><path class="cls-2" d="M377.4,53.26h1.7v1.38h0a2.75,2.75,0,0,1,1-1.12,2.68,2.68,0,0,1,1.56-.43,2.57,2.57,0,0,1,2.1.9,3.87,3.87,0,0,1,.74,2.49v5.9H382.8V56.84a2.53,2.53,0,0,0-.44-1.59,1.55,1.55,0,0,0-1.31-.55,1.86,1.86,0,0,0-1,.29,1.92,1.92,0,0,0-.68.83,3,3,0,0,0-.24,1.25v5.31h-1.7Z"/><path class="cls-2" d="M387.2,62a2.73,2.73,0,0,1-.6-2V54.75h-1.18V53.26h1.18V50.88h1.73v2.38h1.54v1.49h-1.54v5.12a1.3,1.3,0,0,0,.28,1,1.14,1.14,0,0,0,.81.25h.25l.2,0v1.45l-.37,0a3.68,3.68,0,0,1-.49,0A2.42,2.42,0,0,1,387.2,62Z"/><path class="cls-2" d="M392.51,62a3.71,3.71,0,0,1-1.34-1.64,6.2,6.2,0,0,1-.46-2.5h0a6.18,6.18,0,0,1,.47-2.49,3.83,3.83,0,0,1,1.32-1.67,3.37,3.37,0,0,1,2-.59,3.52,3.52,0,0,1,2,.56,3.7,3.7,0,0,1,1.28,1.61,6,6,0,0,1,.46,2.41v.63h-6.68V57h5.85l-.83,1.24v-.73a4.36,4.36,0,0,0-.26-1.6,2.11,2.11,0,0,0-.73-1,1.94,1.94,0,0,0-1.07-.31,1.84,1.84,0,0,0-1.08.33,2.13,2.13,0,0,0-.75,1,4,4,0,0,0-.28,1.56v.73a3.86,3.86,0,0,0,.27,1.52,2.24,2.24,0,0,0,.77,1,2.12,2.12,0,0,0,1.18.33,2.24,2.24,0,0,0,.89-.17,1.81,1.81,0,0,0,.63-.45,1.66,1.66,0,0,0,.36-.63l0-.07h1.61v.1a3.31,3.31,0,0,1-.39,1,3.24,3.24,0,0,1-.73.89,3.37,3.37,0,0,1-1.06.62,3.88,3.88,0,0,1-1.36.23A3.7,3.7,0,0,1,392.51,62Z"/><path class="cls-2" d="M399.51,53.26h1.71v1.38h0a2.75,2.75,0,0,1,1-1.12,2.68,2.68,0,0,1,1.56-.43,2.58,2.58,0,0,1,2.1.9,3.87,3.87,0,0,1,.74,2.49v5.9h-1.7V56.84a2.53,2.53,0,0,0-.43-1.59,1.56,1.56,0,0,0-1.31-.55,1.83,1.83,0,0,0-1,.29,1.86,1.86,0,0,0-.68.83,3,3,0,0,0-.24,1.25v5.31h-1.71Z"/><path class="cls-2" d="M409.31,62a2.77,2.77,0,0,1-.59-2V54.75h-1.18V53.26h1.18V50.88h1.73v2.38H412v1.49h-1.54v5.12a1.25,1.25,0,0,0,.28,1,1.14,1.14,0,0,0,.81.25h.24l.21,0v1.45l-.37,0a3.91,3.91,0,0,1-.49,0A2.44,2.44,0,0,1,409.31,62Z"/><path class="cls-2" d="M418.05,62a3.71,3.71,0,0,1-1.34-1.64,6.2,6.2,0,0,1-.46-2.5h0a6,6,0,0,1,.47-2.49A3.83,3.83,0,0,1,418,53.68a3.35,3.35,0,0,1,2-.59,3.52,3.52,0,0,1,2,.56,3.7,3.7,0,0,1,1.28,1.61,6,6,0,0,1,.45,2.41v.63h-6.68V57h5.86l-.83,1.24v-.73a4.36,4.36,0,0,0-.26-1.6,2.11,2.11,0,0,0-.73-1,1.94,1.94,0,0,0-1.07-.31A1.82,1.82,0,0,0,419,55a2.13,2.13,0,0,0-.75,1,3.79,3.79,0,0,0-.28,1.56v.73a3.86,3.86,0,0,0,.27,1.52,2.24,2.24,0,0,0,.77,1,2.12,2.12,0,0,0,1.18.33,2.24,2.24,0,0,0,.89-.17,1.81,1.81,0,0,0,.63-.45,1.66,1.66,0,0,0,.36-.63l0-.07h1.61l0,.1a3.06,3.06,0,0,1-.38,1,3.44,3.44,0,0,1-.73.89,3.37,3.37,0,0,1-1.06.62,3.88,3.88,0,0,1-1.36.23A3.7,3.7,0,0,1,418.05,62Z"/><path class="cls-2" d="M426,62.2a2.42,2.42,0,0,1-1-1,3,3,0,0,1-.35-1.44v0a2.38,2.38,0,0,1,.8-1.89,3.75,3.75,0,0,1,2.26-.8l3.11-.2v1.31l-2.89.2a1.94,1.94,0,0,0-1.16.41,1.13,1.13,0,0,0-.41.93v0a1.14,1.14,0,0,0,.41.94,1.62,1.62,0,0,0,1.09.35,2.09,2.09,0,0,0,1.06-.27,2,2,0,0,0,.75-.74A2.12,2.12,0,0,0,430,59V56.25a1.48,1.48,0,0,0-1.63-1.61,1.79,1.79,0,0,0-1.17.35,1.45,1.45,0,0,0-.55.89l0,.08h-1.59v-.1a2.94,2.94,0,0,1,.48-1.42,2.76,2.76,0,0,1,1.14-1,3.93,3.93,0,0,1,1.75-.36,3.78,3.78,0,0,1,1.74.37,2.76,2.76,0,0,1,1.14,1,3,3,0,0,1,.41,1.59v6.28H430V60.94h0a3,3,0,0,1-.62.86,2.85,2.85,0,0,1-.87.55,2.69,2.69,0,0,1-1,.2A2.9,2.9,0,0,1,426,62.2Z"/><path class="cls-2" d="M434.67,62.21a2.85,2.85,0,0,1-1.16-1,3.07,3.07,0,0,1-.5-1.46v-.08h1.67l0,.09a1.6,1.6,0,0,0,.55,1,1.88,1.88,0,0,0,1.2.35,2.28,2.28,0,0,0,.88-.15,1.16,1.16,0,0,0,.55-.41,1.06,1.06,0,0,0,.2-.64h0a1,1,0,0,0-.26-.71,2,2,0,0,0-.92-.45l-1.34-.34a3.36,3.36,0,0,1-1.76-.93,2.31,2.31,0,0,1-.58-1.63h0a2.61,2.61,0,0,1,.4-1.45,2.64,2.64,0,0,1,1.12-1,3.76,3.76,0,0,1,1.66-.34,3.64,3.64,0,0,1,1.67.36,2.71,2.71,0,0,1,1.1,1,2.84,2.84,0,0,1,.43,1.4V56H438v-.06a1.52,1.52,0,0,0-.49-1,1.6,1.6,0,0,0-1.12-.38,1.92,1.92,0,0,0-.79.15,1.21,1.21,0,0,0-.52.42,1.14,1.14,0,0,0-.18.64h0a1,1,0,0,0,.29.71,1.88,1.88,0,0,0,.93.46l1.35.35a3.49,3.49,0,0,1,1.78.9,2.29,2.29,0,0,1,.53,1.58h0a2.51,2.51,0,0,1-.43,1.46,3,3,0,0,1-1.18,1,4,4,0,0,1-1.73.36A4.05,4.05,0,0,1,434.67,62.21Z"/><path class="cls-2" d="M441.56,65.4l-.4-.06V63.87l.24,0a1.58,1.58,0,0,0,.32,0,1.73,1.73,0,0,0,.95-.23,1.51,1.51,0,0,0,.56-.88l.14-.44-3-9.13h1.84l2.18,7.83-.3-.41h.41l-.29.41,2.18-7.83h1.79l-3.06,9.54a5.76,5.76,0,0,1-.71,1.53,2.63,2.63,0,0,1-1,.84,3.36,3.36,0,0,1-1.38.26A3.91,3.91,0,0,1,441.56,65.4Z"/><path class="cls-2" d="M453.47,62a2.73,2.73,0,0,1-.6-2V54.75h-1.18V53.26h1.18V50.88h1.74v2.38h1.54v1.49h-1.54v5.12a1.3,1.3,0,0,0,.27,1,1.14,1.14,0,0,0,.81.25h.25l.21,0v1.45l-.38,0a3.64,3.64,0,0,1-.48,0A2.44,2.44,0,0,1,453.47,62Z"/><path class="cls-2" d="M458.83,62a3.75,3.75,0,0,1-1.36-1.64,6,6,0,0,1-.49-2.53v0a6,6,0,0,1,.49-2.51,3.75,3.75,0,0,1,1.37-1.63,3.64,3.64,0,0,1,2-.57,3.75,3.75,0,0,1,2.05.56,3.81,3.81,0,0,1,1.37,1.63,6.09,6.09,0,0,1,.49,2.52v0a6.07,6.07,0,0,1-.49,2.53A3.89,3.89,0,0,1,462.94,62a3.93,3.93,0,0,1-4.11,0ZM462,60.61a2.33,2.33,0,0,0,.75-1.08,5,5,0,0,0,.26-1.71v0a5,5,0,0,0-.26-1.7A2.29,2.29,0,0,0,462,55a2,2,0,0,0-2.29,0A2.56,2.56,0,0,0,459,56.1a4.77,4.77,0,0,0-.27,1.7v0a4.79,4.79,0,0,0,.27,1.71,2.27,2.27,0,0,0,.76,1.08,1.93,1.93,0,0,0,2.3,0Z"/><path class="cls-2" d="M469.32,53.26H471v1.56h0a2.5,2.5,0,0,1,.7-1.27,1.68,1.68,0,0,1,1.2-.46,1.78,1.78,0,0,1,.34,0l.25,0V54.9a1.31,1.31,0,0,0-.31-.07,3,3,0,0,0-.45,0,1.72,1.72,0,0,0-.94.25,1.66,1.66,0,0,0-.61.74A2.86,2.86,0,0,0,471,57v5.43h-1.7Z"/><path class="cls-2" d="M475.67,62a3.69,3.69,0,0,1-1.33-1.64,6.19,6.19,0,0,1-.47-2.5h0a6.18,6.18,0,0,1,.47-2.49,3.83,3.83,0,0,1,1.32-1.67,3.39,3.39,0,0,1,2-.59,3.5,3.5,0,0,1,2,.56,3.72,3.72,0,0,1,1.29,1.61,6,6,0,0,1,.45,2.41v.63h-6.68V57h5.86l-.84,1.24v-.73a4.16,4.16,0,0,0-.26-1.6,2,2,0,0,0-.73-1,1.92,1.92,0,0,0-1.07-.31,1.86,1.86,0,0,0-1.08.33,2.13,2.13,0,0,0-.75,1,4,4,0,0,0-.27,1.56v.73a3.86,3.86,0,0,0,.27,1.52,2.17,2.17,0,0,0,.77,1,2.07,2.07,0,0,0,1.18.33,2.19,2.19,0,0,0,.88-.17,1.76,1.76,0,0,0,.64-.45,1.64,1.64,0,0,0,.35-.63l0-.07h1.61l0,.1a3.56,3.56,0,0,1-.38,1,3.44,3.44,0,0,1-.73.89,3.48,3.48,0,0,1-1.06.62,3.92,3.92,0,0,1-1.36.23A3.73,3.73,0,0,1,475.67,62Z"/><path class="cls-2" d="M483.66,62.2a2.42,2.42,0,0,1-1-1,3,3,0,0,1-.34-1.44v0a2.34,2.34,0,0,1,.8-1.89,3.7,3.7,0,0,1,2.25-.8l3.11-.2v1.31l-2.88.2a1.94,1.94,0,0,0-1.17.41,1.16,1.16,0,0,0-.41.93v0a1.17,1.17,0,0,0,.41.94,1.64,1.64,0,0,0,1.09.35,2.13,2.13,0,0,0,1.07-.27,2.06,2.06,0,0,0,1-1.8V56.25a1.61,1.61,0,0,0-.42-1.18,1.64,1.64,0,0,0-1.22-.43,1.76,1.76,0,0,0-1.16.35,1.41,1.41,0,0,0-.55.89l0,.08h-1.59v-.1a3,3,0,0,1,.48-1.42,2.86,2.86,0,0,1,1.15-1,3.92,3.92,0,0,1,1.74-.36,3.78,3.78,0,0,1,1.74.37,2.76,2.76,0,0,1,1.14,1,3,3,0,0,1,.41,1.59v6.28h-1.7V60.94h0a3,3,0,0,1-.63.86,2.69,2.69,0,0,1-.86.55,2.74,2.74,0,0,1-1,.2A2.9,2.9,0,0,1,483.66,62.2Z"/><path class="cls-2" d="M492.23,62A3.66,3.66,0,0,1,491,60.34a6.86,6.86,0,0,1-.42-2.52h0A6.76,6.76,0,0,1,491,55.3a3.74,3.74,0,0,1,1.2-1.64,2.93,2.93,0,0,1,1.8-.57,2.64,2.64,0,0,1,1.54.46,3,3,0,0,1,1.05,1.26h0V49.87h1.71V62.38h-1.71V60.84h0a3.06,3.06,0,0,1-1,1.26,2.63,2.63,0,0,1-1.55.47A2.94,2.94,0,0,1,492.23,62Zm3.4-1.42a2.54,2.54,0,0,0,.76-1.09,4.39,4.39,0,0,0,.28-1.65h0a4.3,4.3,0,0,0-.28-1.64,2.46,2.46,0,0,0-.77-1.08,1.72,1.72,0,0,0-1.12-.39,1.83,1.83,0,0,0-1.15.38,2.46,2.46,0,0,0-.75,1.07,4.86,4.86,0,0,0-.26,1.66h0a4.92,4.92,0,0,0,.26,1.67,2.43,2.43,0,0,0,.75,1.08,1.92,1.92,0,0,0,2.28,0Z"/></g></g></svg>