<svg xmlns="http://www.w3.org/2000/svg" viewBox="0 0 630.4 178.17"><defs><style>.cls-1{fill:#fbfbf8;}.cls-2{fill:#faf9f6;}.cls-3{fill:#fbf6ea;}.cls-4{fill:#f7faf9;}.cls-5{fill:#1d7fbd;}.cls-6{fill:#f6faf9;}.cls-7{fill:#faf8f4;}.cls-8{fill:#2180c1;}.cls-9{fill:#edf5f6;}.cls-10{fill:#1e81c7;}.cls-11{fill:#1e80c1;}.cls-12{fill:#fbf9f2;}.cls-13{fill:#f1f8f5;}.cls-14{fill:#faf9f5;}.cls-15{fill:#f06510;}.cls-16{fill:#2986c2;}.cls-17{fill:#f9f4ee;}.cls-18{fill:#f25d03;}.cls-19{fill:#067dbc;}.cls-20{fill:#317db4;}.cls-21{fill:#1d80c5;}.cls-22{fill:#087bba;}.cls-23{fill:#2080c1;}.cls-24{fill:#2081c3;}.cls-25{fill:#fbfaf3;}.cls-26{fill:#faf9ef;}.cls-27{fill:#fbf8ef;}.cls-28{fill:#fbf8ed;}.cls-29{fill:#f3681e;}.cls-30{fill:#f36a2f;}.cls-31{fill:#ef4800;}.cls-32{fill:#f36204;}.cls-33{fill:#ffbddb;}.cls-34{fill:#8abaff;}.cls-35{font-size:21.21px;font-family:SFProDisplay-Regular, SF Pro Display;}.cls-36{letter-spacing:-0.05em;}.cls-37{letter-spacing:-0.01em;}.cls-38{letter-spacing:0em;}.cls-39{letter-spacing:-0.03em;}.cls-40{letter-spacing:-0.01em;}.cls-41{letter-spacing:0.02em;}.cls-42{letter-spacing:-0.05em;}.cls-43{letter-spacing:-0.01em;}.cls-44{letter-spacing:-0.04em;}.cls-45{letter-spacing:-0.02em;}.cls-46{letter-spacing:-0.05em;}</style></defs><g id="图层_2" data-name="图层 2"><g id="图层_1-2" data-name="图层 1"><path class="cls-1" d="M137.74,81.21l-.07,5.48a7.68,7.68,0,0,1,0,4.25L137.6,92c1,1.11.56,2.42.56,3.67-.44,1,0,2.18-.51,3.18l-1.12-1.47-1.47,3.21c-.77-1.27-.79-2.64.13-3.34,2.28-1.74,1.64-4.09,1.84-6.33C137.33,87.71,136.16,84.35,137.74,81.21Z"/><path class="cls-2" d="M171.1,23.14c-1.22,2.13-3.46,3-5.31,4.34-.48-3,.32-4.09,3-4.05A15.61,15.61,0,0,0,171.1,23.14Z"/><path class="cls-3" d="M350.45,127.72c3.89,3.4,7.45,7.14,11,10.89A44,44,0,0,1,350.45,127.72Z"/><path class="cls-4" d="M215.29,155.16a28.24,28.24,0,0,1-8.66-1.26c2.08-.39,4.31.16,6.18-1.66.8-.77,1.79.65,2.71,1.31-1.2.69-2.5-1.22-3.42.5C213,155,214.59,153.82,215.29,155.16Z"/><path class="cls-1" d="M135.79,84.84a16.78,16.78,0,0,1,.37,4.25c0,1.5-.43,2.38-2.2,2.4.84-2.13-.28-4.78,1.83-6.65Z"/><path class="cls-5" d="M159,144.7c1.64-1.54,1.79.63,2.37,1.15s.49,1.64.7,2.51a.46.46,0,0,1,.19.43c0,.17-.06.25-.1.25a.59.59,0,0,1-.72,0,1.61,1.61,0,0,0-1.22-1.24,3.12,3.12,0,0,1-.52-.57C159.44,146.37,158.62,145.7,159,144.7Z"/><path class="cls-4" d="M225.66,155.47l-10.33.14a3.73,3.73,0,0,1-.09-.46C218.72,155,222.21,154.75,225.66,155.47Z"/><path class="cls-6" d="M266.3,136.23l-3.19,3.2C263.05,137.24,263.52,135.59,266.3,136.23Z"/><path class="cls-1" d="M135.79,84.84c-.69-1-1.35-2-.9-3.25.05-.16.55-.32.77-.24,1,.33.59,1.05.42,1.72a17.64,17.64,0,0,0-.29,1.77Z"/><path class="cls-7" d="M188.53,13.44a5.29,5.29,0,0,1-2.6,1.12c0-.47-1.27-.56-.43-1.29.39-.33.65-1,1.43-.47A6.86,6.86,0,0,0,188.53,13.44Z"/><path class="cls-2" d="M181.87,16.54c-.62.48-1.17,1.09-2.07,1-1.35-.85-.23-1.19.32-1.75C181.37,14.55,181.23,16.45,181.87,16.54Z"/><path class="cls-8" d="M165.75,153.1c.13-.61-.18-1.78,1-1.34s1.21,1.32.19,2.13Z"/><path class="cls-9" d="M231.34,154.52l-5.06,1C227.58,153.39,229.65,154.85,231.34,154.52Z"/><path class="cls-1" d="M135.74,92.15a2.28,2.28,0,0,1,.35,2.7C135,94.15,135,93.4,135.74,92.15Z"/><path class="cls-10" d="M162.59,150.22c-.19-.34-.38-.68-.58-1l.09-.84c1.25.37,2.9.55,1.28,2.43Z"/><path class="cls-11" d="M140,110.11l.2-2.15c1.4,2,1.4,2-.08,2.54A.29.29,0,0,1,140,110.11Z"/><path class="cls-12" d="M503.11,107.57a5.46,5.46,0,0,0,.48-.27c.13,1.8.2,3.59-1.36,4.92a3.69,3.69,0,0,1,.46-3C502.84,108.67,502.53,108,503.11,107.57Z"/><path class="cls-13" d="M311.35,89.11l1.34,1.33-1.29,1.22C310.78,90.82,311.28,90,311.35,89.11Z"/><path class="cls-14" d="M158.06,33.35c-.06-1.1.29-2,.88-1.92,1.13.11.31.78.05,1.18C158.84,32.84,158.55,33,158.06,33.35Z"/><path class="cls-15" d="M140.65,67.73c1.26,1.11.42,1.78-.52,2.43A4,4,0,0,1,140.65,67.73Z"/><path class="cls-16" d="M137.65,98.89l0-3c.52-.11.82,0,.57.59,0,1.11-.07,2.21-.11,3.31C138,99.46,137.81,99.17,137.65,98.89Z"/><path class="cls-14" d="M163.94,27.65a4.53,4.53,0,0,1-.94.3c-.3,0-.68-.2-.39-.54a1.86,1.86,0,0,1,1-.5C163.92,26.86,164.24,27,163.94,27.65Z"/><path class="cls-2" d="M170.19,22.64c-.84-1.1-1-1.6-.84-2.18,0,0,.43,0,.44.05C169.91,21,170,21.4,170.19,22.64Z"/><path class="cls-17" d="M208.11,8l-.29.46c-.3.48-.67.41-1.06.12l-1.85,0C205.84,7.49,207,8,208.11,8Z"/><path class="cls-18" d="M139.52,72c.84.67.44,1.53.19,2.42l-.32-1.35C139.43,72.75,139.48,72.39,139.52,72Z"/><path class="cls-2" d="M173.79,21.36c-.52.57-1,1.24-1.91,1.12C172.32,21.77,172.47,20.57,173.79,21.36Z"/><path class="cls-19" d="M304.49,98.83c.68.39.3.77,0,1.11s-.72.72-1.12,0Z"/><path class="cls-20" d="M138.25,96.43l-.57-.59c0-1.27-.05-2.53-.08-3.8.77-.12,1.49-.11,1.94.68C138.13,93.62,139.52,95.49,138.25,96.43Z"/><path class="cls-21" d="M175,137.37l1.72,1.68c-1.44,1.45-1.85-.32-2.41-.92S174.55,137.45,175,137.37Z"/><path class="cls-22" d="M160.2,147.33a4.4,4.4,0,0,1-1.81-2l.64-.67C159.42,145.57,160.43,146.18,160.2,147.33Z"/><path class="cls-23" d="M179.24,162.36c.07-.62.25-1.18,1-1,.19,0,.51.42.47.54-.25.72-.92.48-1.46.52Z"/><path class="cls-16" d="M139.28,101.24A2.39,2.39,0,0,1,139,99C140,99.64,139.1,100.49,139.28,101.24Z"/><path class="cls-24" d="M316.2,87.91h1.87a2.35,2.35,0,0,1-1.9,1Z"/><path class="cls-25" d="M455.09,150.82a9.15,9.15,0,0,1,5.59-2.43C458.91,149.41,457.46,151.18,455.09,150.82Z"/><path class="cls-26" d="M445.3,153.87a5.64,5.64,0,0,1,4.44-1.17C448.73,154.84,446.91,154,445.3,153.87Z"/><path class="cls-27" d="M477.07,136.67c0-2,1.38-2.27,2.91-2.38C479.24,135.37,478.65,136.61,477.07,136.67Z"/><path class="cls-28" d="M473.43,140.33a5.38,5.38,0,0,1,3.59-3.62C475.83,137.92,474.63,139.12,473.43,140.33Z"/><path class="cls-27" d="M480.77,133A2.84,2.84,0,0,1,482.7,130C482.27,131.14,482.17,132.48,480.77,133Z"/><path class="cls-29" d="M217.14,9.72l-.61-.61a16.41,16.41,0,0,1,6.73,0c.41.21.42.41,0,.62A13.18,13.18,0,0,1,217.14,9.72Z"/><path class="cls-30" d="M223.26,9.1h-6.73A8,8,0,0,1,223.26,9.1Z"/><path class="cls-31" d="M137.65,90.94l0-4.25A3.68,3.68,0,0,1,137.65,90.94Z"/><path class="cls-32" d="M206.76,8.53l1.06-.12,1.85.35C208.33,9.18,207.5,9.37,206.76,8.53Z"/></g><g id="图层_2-2" data-name="图层 2"><path class="cls-33" d="M381.1,15a75.78,75.78,0,0,1,32.75-10.8c.4.19-.51.55-.51.11s.55-.63,1-.69A84.69,84.69,0,0,1,474.39,19c16.28,11.88,33.05,34.11,33.32,55,.05,3.41-.57,7.2-3.23,9.33-3.71,3-8.56,1-11.58-2.63s-4.06-8.51-5.5-13c-6.16-19.34-22.83-35-41.54-42.42-21-8.35-43.09-2.88-60.93,10.51C375.16,43.06,367.7,52.38,359,60.84s-17.71,17-26.53,25.46c-2.16,2.08-4.24,4.24-6.39,6.33-.85.82-1.65,1.79-3,1.66a1.21,1.21,0,0,1-.94-.78,8.19,8.19,0,0,0-.23-3.23,4.7,4.7,0,0,1-.21-.82c-.65-1.87,1.14-4.72-2.23-5.49-2.86-.69-5.82.14-8.67-.53-1.09-.44-1-1.26-.33-1.84,3.23-2.67,5.67-6.21,9.28-8.44,4.79-4.12,9-8.79,13.45-13.27,6.55-6.61,12.95-13.4,19.86-19.62,6.18-5.57,11.9-11.56,17.84-17.35A59.91,59.91,0,0,1,381.1,15Z"/><path class="cls-34" d="M320,83.41c1.69-.35,2.7.06,2.49,2.06-.16,1.57-.19,3.15-.28,4.73a2.14,2.14,0,0,1-.38,1.88c-1.42,0-.65,1.36-1.22,1.89.45,0,.9-.52,1.35,0a2,2,0,0,1,.35,1.24,3.71,3.71,0,0,1-3,3.58l-1.87,1.9a24.22,24.22,0,0,1-1.74,1.77l-.06.07c-.68,2.55-2.86,3.86-4.65,5.47-3.83,3.47-7,7.63-11,10.94a2,2,0,0,1-.79.28c-1.27-.1-2.26.08-1.78,1.75-.08,1-.85,1.58-1.49,2.22-24.46,24.79-48.87,47.93-86.49,45.42-33.6-2.24-69.84-27.66-75.54-62.53a1.12,1.12,0,0,0,.52-1c-.31.08-.32.49-.64.57A29.14,29.14,0,0,1,132,95.32a8.11,8.11,0,0,1-.5-3c.52-1.35.09-3,1.31-4.13,1.57-.75,2.78.24,3.83,1,2.41,1.85,4.64,2,7,0a2.76,2.76,0,0,1,2-.61c2.77.1,3.31,1.72,2.71,3.63a3.12,3.12,0,0,1,.17-1.45c.51-.36,2.42,5.76.57,7.17C154.81,118,168.77,136,187.6,145c21.49,10.32,48.25,7.73,66.8-7.5.93-.76,1.73-1.66,2.59-2.5a4.63,4.63,0,0,1,3.19-3.2L274,118.5c.69.14,1-.13.8-.82,6.34-6.46,12.64-13,19.32-19.06a2.27,2.27,0,0,0,1.79-1.75l1.27-1.31a1.16,1.16,0,0,0,1.16-1.15l6.91-7.17a4,4,0,0,1,1-1.74c1-.88,1.73-2.06,3.13-2.39a1.57,1.57,0,0,1,.74.16c1,.78,2-.34,3-.09C315.41,83.29,317.74,82.93,320,83.41Z"/><path class="cls-33" d="M491.25,76.76a31.66,31.66,0,0,1,6.47,5.66c1.16,1.46,2.11,1.63,3.41.07,2.21-2.63,4.59-5.11,6.9-7.64.07,1.13.15,2.25.22,3.38a2.66,2.66,0,0,0-.47.86c-.64,13.37-.48,25-5.2,37.84A86.19,86.19,0,0,1,482,149c-19,18.44-45.85,25.55-71,21-28.68-5.12-47.31-25.31-66.58-46.43l-3.1-3.46a17.69,17.69,0,0,1,1.64-10.7c2.55-.85,5.17-.27,7.76-.44,1.92-.15,3.74.89,5.68.53,2.28.47,3.53,2.45,5,4,5.25,5.36,10.24,11,15.5,16.36,12,12.21,27.61,21.83,44.65,22.86a53.81,53.81,0,0,0,6.35,0A64.45,64.45,0,0,0,467.28,136a71.13,71.13,0,0,0,21.52-38.8c.18-.91.55-2,1.42-2.1s.6,1.93,0,1.28c-.19-6,.91-11.65.45-17.65A2,2,0,0,1,491.25,76.76Z"/><path class="cls-34" d="M145.94,89.51c-3.27,2.79-8.13,2.07-11.69-.87a3.08,3.08,0,0,0-.83-.34c-.65-.47-1.72.16-2.19-.82a2.94,2.94,0,0,1,.16-1.28,12.39,12.39,0,0,0-.18-4.54c.19-1.62-.43-3.31.41-4.87.68-2.68.28-5.57,1.65-8.1.4.18.23.64.46.94-.22-.67.13-1.4-.33-2a2.44,2.44,0,0,1,.61-1.88c.37-.77,1-1.49.52-2.43,3.91-16.2,13.16-29.07,25.14-40.25,1.14-2.21,3.69-2.7,5.31-4.33l.78-.67a20.29,20.29,0,0,1,1.91-1.12l6-3.8a2.91,2.91,0,0,1,2.07-1l4.06-2c.6-1,1.75-.7,2.6-1.12a169.71,169.71,0,0,1,16.38-5c.48-.4,1.05-.25,1.59-.26.37.11.73.26,1.09.39s-.12.12.27.08c.23,0-.12-.2-.11-.34a.39.39,0,0,1,.36-.4l3.88-.17c1.48-.51,3.07.18,4.54-.45a81.76,81.76,0,0,1,33.17,5,76,76,0,0,1,28.77,18.59c5.69,5.83,11.84,11.2,17,17.51a17.88,17.88,0,0,0,2.81,2.27c1.48.64,2.17,1.51.91,3,0,1.33-1.82,1.21-2,2.43a14.35,14.35,0,0,1-4.4,4.83l-.51.61a5.83,5.83,0,0,1-1.74,1.92c-1.76,2.23-3,2-5-.17-3.75-4.1-8.05-7.69-11.64-12-.26-1.06-.06-2.17-.31-3.35,0,1,.43,1.95-.28,2.75-2.73-1.12-4.33-3.67-6.11-5.65-5.37-6-12-10-18.89-13.77-2.66-1.47-5.65-2-8.57-2.74l0,0A40.7,40.7,0,0,0,222,21.15c-1.09-.11-2.17-.3-3.25-.46,1-.86,2.21-.18,3.32-.47-5.09.11-10.15-.14-15.19.39a9.58,9.58,0,0,1-2.33.27c-.4,0-.61.28-.22.16,0,0,.1.16.15.25a82.1,82.1,0,0,0-23.3,8.5c-.53.3-1.08.5-1.37,1.08a6,6,0,0,1-3.06,1.9l-.59.61c-.4,1.58-1.94,1.75-3,2.46-3.34,1.81-5.77,4.74-8.15,7.48-8.69,10-13.63,22.37-15.19,35.47-.31,2.63-.5,5.33-1.62,7.73A8.8,8.8,0,0,1,145.94,89.51Z"/><path class="cls-34" d="M342.64,110.34c.25,3.33-1.06,6.44-1.41,9.69q-9.57-9.42-19.14-18.83c-.87-.85-1.82-1.61-2.73-2.41.83-1.16,2.31-1.86,2.49-3.49.15-.7.44-1.24,1.26-1.28,3.59-2.06,5.72-5.72,9-8.16a6,6,0,0,1,3.32,2q9.41,9.25,18.66,18.67c.74.75,2.58,1.59.75,3.11-2.61.35-5.25-.21-7.86.26C345.54,110.32,344,109.64,342.64,110.34Z"/><path class="cls-34" d="M309.65,83.51,306.57,86c-.81-.08-.9-.88-1.34-1.33-3.62-3.69-7-7.73-10.94-11-3.34-2.72-3.53-5.8-2.93-9.39,1-5.86,1-5.59,7.16-6a11.25,11.25,0,0,1,9.82,4c3.57,3.82,7,7.91,11.41,10.84a75.18,75.18,0,0,1-9.53,9.52C310.29,83.13,309.78,83.19,309.65,83.51Z"/><text class="cls-35" transform="translate(180.75 93.16)">Husband</text><text class="cls-35" transform="translate(404.1 91.8)">Wi<tspan class="cls-36" x="23.96" y="0">f</tspan><tspan x="29.37" y="0">e</tspan></text><text class="cls-35" transform="translate(489.74 18.08)">Communica<tspan class="cls-37" x="107.86" y="0">t</tspan><tspan class="cls-38" x="113.94" y="0">e</tspan><tspan x="25.32" y="25.45">Channel</tspan></text><text class="cls-35" transform="translate(51.29 165.69)"><tspan class="cls-39">A</tspan><tspan x="12.75" y="0">wearness</tspan></text><text class="cls-35" transform="translate(35.77 68.83)">Reminder</text><text class="cls-35" transform="translate(0 119.2)">Du<tspan class="cls-40" x="25.57" y="0">r</tspan><tspan x="31.9" y="0">ation Ale</tspan><tspan class="cls-41" x="108.74" y="0">r</tspan><tspan class="cls-38" x="115.8" y="0">t</tspan></text><text class="cls-35" transform="translate(83.55 20.2)">Buf<tspan class="cls-42" x="30.43" y="0">f</tspan><tspan class="cls-38" x="35.84" y="0">er</tspan></text><text class="cls-35" transform="translate(534.06 119.39)">Moti<tspan class="cls-40" x="39.64" y="0">v</tspan><tspan x="49.68" y="0">a</tspan><tspan class="cls-43" x="60.32" y="0">t</tspan><tspan x="66.4" y="0">e</tspan></text><text class="cls-35" transform="translate(517.18 80.42)"><tspan class="cls-44">P</tspan><tspan x="11.32" y="0">assi</tspan><tspan class="cls-45" x="46.07" y="0">v</tspan><tspan class="cls-38" x="55.9" y="0">e Ale</tspan><tspan class="cls-41" x="99.78" y="0">r</tspan><tspan class="cls-38" x="106.83" y="0">t</tspan></text><text class="cls-35" transform="translate(509.62 162.38)"><tspan class="cls-46">W</tspan><tspan x="18.45" y="0">ork load</tspan></text></g></g></svg>