<svg xmlns="http://www.w3.org/2000/svg" viewBox="0 0 1251.65 168.45"><defs><style>.cls-1{fill:#fff;}</style></defs><g id="图层_2" data-name="图层 2"><g id="图层_1-2" data-name="图层 1"><rect class="cls-1" width="1251.65" height="168.45"/><path d="M90.77,85a7.65,7.65,0,0,1-3.25-2.57,6.53,6.53,0,0,1-1.19-3.89h4.52a4.1,4.1,0,0,0,1.31,2.74,4.66,4.66,0,0,0,3.28,1.07,5,5,0,0,0,3.4-1,3.43,3.43,0,0,0,1.22-2.72,3,3,0,0,0-.76-2.11,5,5,0,0,0-1.88-1.26,31.62,31.62,0,0,0-3.13-1,29.23,29.23,0,0,1-4.09-1.35,6.8,6.8,0,0,1-2.68-2.13,6.14,6.14,0,0,1-1.11-3.85A6.86,6.86,0,0,1,87.52,63a7,7,0,0,1,3.11-2.55,11.1,11.1,0,0,1,4.62-.89,9.68,9.68,0,0,1,6.13,1.87A6.86,6.86,0,0,1,104,66.55H99.36A3.38,3.38,0,0,0,98,64.15a4.9,4.9,0,0,0-3.22-1,4.55,4.55,0,0,0-3,.92,3.25,3.25,0,0,0-1.15,2.67,2.68,2.68,0,0,0,.72,1.94,5.2,5.2,0,0,0,1.83,1.2,26.38,26.38,0,0,0,3,1,30.39,30.39,0,0,1,4.16,1.41,7.06,7.06,0,0,1,2.74,2.16,6.27,6.27,0,0,1,1.13,3.91,7,7,0,0,1-1.06,3.7,7.51,7.51,0,0,1-3.07,2.79,10.13,10.13,0,0,1-4.75,1A11.51,11.51,0,0,1,90.77,85Z"/><path d="M126.74,65.22V85.61h-4.22V83.2a6.92,6.92,0,0,1-2.61,2,8.24,8.24,0,0,1-3.42.72,9.08,9.08,0,0,1-4.31-1,7.23,7.23,0,0,1-3-3,9.51,9.51,0,0,1-1.09-4.73v-12h4.18V76.58a6,6,0,0,0,1.37,4.2,5.53,5.53,0,0,0,7.49,0,5.9,5.9,0,0,0,1.39-4.2V65.22Z"/><path d="M137.93,65.76a7.33,7.33,0,0,1,3.64-.87v4.36H140.5a5.09,5.09,0,0,0-3.75,1.26c-.85.84-1.28,2.29-1.28,4.37V85.61h-4.22V65.22h4.22v3A6.75,6.75,0,0,1,137.93,65.76Z"/><path d="M152.3,81.83l5.78-16.61h4.47l-7.77,20.39h-5L142,65.22h4.51Z"/><path d="M183.24,77H167.66a5.66,5.66,0,0,0,1.81,3.93,5.75,5.75,0,0,0,4,1.48,4.94,4.94,0,0,0,4.81-2.85h4.55a9.15,9.15,0,0,1-3.35,4.6,9.83,9.83,0,0,1-6,1.8,10.43,10.43,0,0,1-5.24-1.31,9.33,9.33,0,0,1-3.62-3.7,11.24,11.24,0,0,1-1.32-5.54,11.56,11.56,0,0,1,1.28-5.53,9,9,0,0,1,3.59-3.68,10.7,10.7,0,0,1,5.31-1.29,10.48,10.48,0,0,1,5.14,1.25,8.88,8.88,0,0,1,3.52,3.54,10.6,10.6,0,0,1,1.25,5.23A14.41,14.41,0,0,1,183.24,77ZM179,73.58a4.83,4.83,0,0,0-1.66-3.74,6,6,0,0,0-4-1.4,5.39,5.39,0,0,0-3.73,1.39,5.7,5.7,0,0,0-1.85,3.75Z"/><path d="M204.84,65.22l-12.5,30H188l4.15-9.92-8-20h4.7l5.73,15.54,6-15.54Z"/><path d="M656,56.14v1h-2.47v8.1H652.3v-8.1h-2.49v-1Z"/><path d="M658.33,64.87a3.31,3.31,0,0,1-1.27-1.3,4.26,4.26,0,0,1,0-3.87,3.29,3.29,0,0,1,1.3-1.29,4,4,0,0,1,3.66,0,3.4,3.4,0,0,1,1.3,1.28,4,4,0,0,1,.47,1.94,3.67,3.67,0,0,1-.49,1.94,3.37,3.37,0,0,1-1.32,1.3,3.82,3.82,0,0,1-1.84.45A3.71,3.71,0,0,1,658.33,64.87Zm3-.89a2.23,2.23,0,0,0,.91-.89,2.86,2.86,0,0,0,.34-1.46,2.8,2.8,0,0,0-.34-1.45,2.24,2.24,0,0,0-.88-.9,2.55,2.55,0,0,0-2.37,0,2.22,2.22,0,0,0-.87.9,2.93,2.93,0,0,0-.32,1.45,3,3,0,0,0,.32,1.47,2,2,0,0,0,.88.9,2.28,2.28,0,0,0,1.17.29,2.5,2.5,0,0,0,1.17-.29Z"/><path d="M668.1,59.7a3.22,3.22,0,0,1,1.23-1.28,3.88,3.88,0,0,1,4,.18,3,3,0,0,1,1.12,1.77h-1.27a1.89,1.89,0,0,0-.71-1,2.2,2.2,0,0,0-1.31-.37,2.09,2.09,0,0,0-1.63.69,2.84,2.84,0,0,0-.63,2,2.89,2.89,0,0,0,.63,2,2.07,2.07,0,0,0,1.63.7,2.23,2.23,0,0,0,1.3-.36,1.82,1.82,0,0,0,.72-1h1.27a3.14,3.14,0,0,1-1.14,1.75,3.46,3.46,0,0,1-2.15.65,3.54,3.54,0,0,1-1.8-.45,3.25,3.25,0,0,1-1.23-1.29,4.74,4.74,0,0,1,0-4Z"/><path d="M676.92,64.87a3.31,3.31,0,0,1-1.27-1.3,4.26,4.26,0,0,1,0-3.87,3.29,3.29,0,0,1,1.3-1.29,4,4,0,0,1,3.66,0,3.4,3.4,0,0,1,1.3,1.28,4,4,0,0,1,.47,1.94,3.67,3.67,0,0,1-.49,1.94,3.37,3.37,0,0,1-1.32,1.3,3.82,3.82,0,0,1-1.84.45A3.71,3.71,0,0,1,676.92,64.87Zm3-.89a2.23,2.23,0,0,0,.91-.89,2.86,2.86,0,0,0,.34-1.46,2.8,2.8,0,0,0-.34-1.45,2.24,2.24,0,0,0-.88-.9,2.55,2.55,0,0,0-2.37,0,2.22,2.22,0,0,0-.87.9,2.93,2.93,0,0,0-.32,1.45,3,3,0,0,0,.32,1.47,2,2,0,0,0,.85.89,2.28,2.28,0,0,0,1.17.29,2.49,2.49,0,0,0,1.2-.28Z"/><path d="M684.77,55.59v9.62h-1.18V55.59Z"/><path d="M687.6,55.59v9.62h-1.18V55.59Z"/><path d="M695.71,62.09H690a2.23,2.23,0,0,0,2.31,2.23A2.18,2.18,0,0,0,693.6,64a1.82,1.82,0,0,0,.72-1h1.27a3,3,0,0,1-1.14,1.67,3.48,3.48,0,0,1-2.14.64,3.58,3.58,0,0,1-1.81-.45,3.32,3.32,0,0,1-1.25-1.3,3.86,3.86,0,0,1-.46-1.94,4.21,4.21,0,0,1,.44-1.94,3.14,3.14,0,0,1,1.25-1.28,3.65,3.65,0,0,1,1.83-.45,3.54,3.54,0,0,1,1.8.45,3,3,0,0,1,1.2,1.21,3.56,3.56,0,0,1,.42,1.75A6.6,6.6,0,0,1,695.71,62.09ZM694.23,60a2.06,2.06,0,0,0-.81-.74,2.53,2.53,0,0,0-1.14-.25,2.18,2.18,0,0,0-1.52.57,2.32,2.32,0,0,0-.73,1.58h4.5A2.14,2.14,0,0,0,694.23,60Z"/><path d="M697,59.7a3.1,3.1,0,0,1,1.23-1.28,3.86,3.86,0,0,1,4,.18,3,3,0,0,1,1.13,1.77H702a1.83,1.83,0,0,0-.7-1A2.22,2.22,0,0,0,700,59a2.13,2.13,0,0,0-1.64.69,2.83,2.83,0,0,0-.62,2,2.9,2.9,0,0,0,.62,2,2.09,2.09,0,0,0,1.64.7,2.23,2.23,0,0,0,1.3-.36,1.76,1.76,0,0,0,.71-1h1.28a3.12,3.12,0,0,1-1.15,1.75,3.41,3.41,0,0,1-2.14.65,3.54,3.54,0,0,1-1.8-.45,3.14,3.14,0,0,1-1.2-1.4,4.1,4.1,0,0,1-.44-1.95A4.17,4.17,0,0,1,697,59.7Z"/><path d="M705.92,59.06v4.2a1,1,0,0,0,.22.73,1.06,1.06,0,0,0,.77.22h.87v1h-1.07a2.15,2.15,0,0,1-1.48-.46,2,2,0,0,1-.49-1.49v-4.2h-.93v-1h.93V56.29h1.18v1.79h1.86v1Z"/><path d="M712,59.7a3.2,3.2,0,0,1,1.22-1.28A3.38,3.38,0,0,1,714.9,58a3.15,3.15,0,0,1,1.62.41,2.53,2.53,0,0,1,1,1v-1.3h1.2V68.59h-1.2v-4.7a2.82,2.82,0,0,1-1,1,3.25,3.25,0,0,1-1.64.41,3.1,3.1,0,0,1-1.7-.47A3.26,3.26,0,0,1,712,63.54a4.41,4.41,0,0,1,0-3.84Zm5.27.53a2.36,2.36,0,0,0-.88-.92,2.48,2.48,0,0,0-2.42,0,2.33,2.33,0,0,0-.88.91,3,3,0,0,0-.32,1.41A3,3,0,0,0,713,63a2.36,2.36,0,0,0,.88.92,2.21,2.21,0,0,0,1.2.32,2.31,2.31,0,0,0,2.1-1.24,3,3,0,0,0,.32-1.41,3,3,0,0,0-.28-1.36Z"/><path d="M726.69,58.08v7.13h-1.18V64.15a2.21,2.21,0,0,1-.94.85,2.8,2.8,0,0,1-1.33.31,3.23,3.23,0,0,1-1.5-.34,2.53,2.53,0,0,1-1-1,3.4,3.4,0,0,1-.38-1.68V58.08h1.17v4a2.27,2.27,0,0,0,.53,1.62,2.19,2.19,0,0,0,3,0,2.38,2.38,0,0,0,.55-1.7V58.08Z"/><path d="M728.33,59.7a3.2,3.2,0,0,1,1.22-1.28,3.36,3.36,0,0,1,1.72-.46,3.15,3.15,0,0,1,1.62.41,2.67,2.67,0,0,1,1,1v-1.3h1.2V65.2h-1.2V63.88a2.67,2.67,0,0,1-1,1,3.39,3.39,0,0,1-3.34-.06,3.25,3.25,0,0,1-1.21-1.31,4.39,4.39,0,0,1,0-3.81Zm5.27.53A2.3,2.3,0,0,0,731.5,59a2.56,2.56,0,0,0-1.21.31,2.31,2.31,0,0,0-.87.91,3,3,0,0,0-.32,1.41,3,3,0,0,0,.32,1.42,2.33,2.33,0,0,0,.87.92,2.37,2.37,0,0,0,3.25-.87l.06-.1a3,3,0,0,0,.32-1.41,3.05,3.05,0,0,0-.32-1.36Z"/><path d="M742.33,58.74a3,3,0,0,1,.81,2.27v4.2H742v-4a2.33,2.33,0,0,0-.53-1.64A1.93,1.93,0,0,0,740,59a2,2,0,0,0-1.49.58,2.37,2.37,0,0,0-.55,1.71v3.94h-1.18V58.08H738v1a2.29,2.29,0,0,1,.95-.85,3.12,3.12,0,0,1,1.34-.3A2.87,2.87,0,0,1,742.33,58.74Z"/><path d="M746.15,59.06v4.2a1,1,0,0,0,.23.73,1.05,1.05,0,0,0,.76.22H748v1h-1a2.1,2.1,0,0,1-1.48-.46,1.94,1.94,0,0,1-.5-1.49v-4.2h-.92v-1h.9V56.29h1.18v1.79H748v1Z"/><path d="M749.12,56.69a.76.76,0,0,1-.24-.57.73.73,0,0,1,.24-.57.76.76,0,0,1,.57-.24.72.72,0,0,1,.55.24.82.82,0,0,1,0,1.14.72.72,0,0,1-.55.24A.76.76,0,0,1,749.12,56.69Zm1.14,1.39v7.13h-1.18V58.08Z"/><path d="M753.36,59.06v4.2a1,1,0,0,0,.22.73,1.1,1.1,0,0,0,.76.22h.88v1h-1.07a2.15,2.15,0,0,1-1.48-.46,1.94,1.94,0,0,1-.5-1.49v-4.2h-.92v-1h.92V56.29h1.19v1.79h1.86v1Z"/><path d="M756.28,59.7a3.2,3.2,0,0,1,1.22-1.28,3.36,3.36,0,0,1,1.72-.46,3.15,3.15,0,0,1,1.62.41,2.67,2.67,0,0,1,1,1v-1.3H763V65.2h-1.2V63.88a2.67,2.67,0,0,1-1,1,3.39,3.39,0,0,1-3.34-.06,3.25,3.25,0,0,1-1.21-1.31,4.39,4.39,0,0,1,0-3.81Zm5.27.53a2.36,2.36,0,0,0-.88-.92,2.47,2.47,0,0,0-1.22-.32,2.56,2.56,0,0,0-1.21.31,2.31,2.31,0,0,0-.87.91,3,3,0,0,0-.32,1.41,3,3,0,0,0,.32,1.42,2.33,2.33,0,0,0,.87.92,2.38,2.38,0,0,0,3.26-.83l0-.09a3,3,0,0,0,.32-1.41,2.94,2.94,0,0,0-.32-1.4Z"/><path d="M766.15,59.06v4.2a1,1,0,0,0,.22.73,1.06,1.06,0,0,0,.77.22H768v1h-1.07a2.15,2.15,0,0,1-1.48-.46,2,2,0,0,1-.49-1.49v-4.2h-1v-1h1V56.29h1.18v1.79H768v1Z"/><path d="M769.11,56.69a.81.81,0,0,1,.56-1.38h0a.8.8,0,0,1,.56.24.85.85,0,0,1,0,1.14.8.8,0,0,1-.56.24A.78.78,0,0,1,769.11,56.69Zm1.15,1.39v7.13h-1.19V58.08Z"/><path d="M774.56,64.11l2.21-6H778l-2.79,7.13h-1.38L771,58.11h1.28Z"/><path d="M785.3,62.09h-5.7a2.23,2.23,0,0,0,2.23,2.23h.09A2.13,2.13,0,0,0,783.2,64a1.82,1.82,0,0,0,.72-1h1.27a3,3,0,0,1-1.14,1.67,3.45,3.45,0,0,1-2.13.64,3.61,3.61,0,0,1-1.82-.45,3.32,3.32,0,0,1-1.25-1.3,4.34,4.34,0,0,1,0-3.88,3.06,3.06,0,0,1,1.24-1.28,3.69,3.69,0,0,1,1.84-.45,3.5,3.5,0,0,1,1.79.45,3,3,0,0,1,1.2,1.21,3.57,3.57,0,0,1,.43,1.75C785.34,61.6,785.32,61.83,785.3,62.09ZM783.82,60a2,2,0,0,0-.82-.74,2.46,2.46,0,0,0-1.13-.25,2.22,2.22,0,0,0-1.53.57,2.31,2.31,0,0,0-.72,1.58h4.49A2.22,2.22,0,0,0,783.82,60Z"/><path d="M789.64,59.7a3.11,3.11,0,0,1,1.21-1.28,3.43,3.43,0,0,1,1.74-.46,3.24,3.24,0,0,1,1.55.39,2.7,2.7,0,0,1,1.09,1V55.59h1.2v9.62h-1.2V63.87a2.67,2.67,0,0,1-1,1,3,3,0,0,1-1.61.41,3.23,3.23,0,0,1-2.94-1.78,4,4,0,0,1-.44-1.92A3.93,3.93,0,0,1,789.64,59.7Zm5.26.53a2.27,2.27,0,0,0-.87-.92,2.47,2.47,0,0,0-1.22-.32,2.56,2.56,0,0,0-1.21.31,2.31,2.31,0,0,0-.87.91,3,3,0,0,0-.32,1.41,3,3,0,0,0,.32,1.42,2.33,2.33,0,0,0,.87.92,2.24,2.24,0,0,0,1.21.32A2.35,2.35,0,0,0,794,64a2.27,2.27,0,0,0,.87-.92,3.38,3.38,0,0,0,0-2.85Z"/><path d="M798.06,59.7a3.2,3.2,0,0,1,1.22-1.28A3.35,3.35,0,0,1,801,58a3.21,3.21,0,0,1,1.63.41,2.53,2.53,0,0,1,1,1v-1.3h1.2v7.13h-1.2V63.88a2.67,2.67,0,0,1-1,1,3.39,3.39,0,0,1-3.34-.06,3.25,3.25,0,0,1-1.21-1.31,4.44,4.44,0,0,1,0-3.81Zm5.27.53a2.36,2.36,0,0,0-.88-.92,2.48,2.48,0,0,0-2.42,0,2.24,2.24,0,0,0-.87.91,2.87,2.87,0,0,0-.33,1.41,2.94,2.94,0,0,0,.33,1.42,2.18,2.18,0,0,0,.84,1,2.24,2.24,0,0,0,1.21.32A2.33,2.33,0,0,0,803.33,63a3,3,0,0,0,.32-1.41A3.05,3.05,0,0,0,803.33,60.23Z"/><path d="M807.93,59.06v4.2a1,1,0,0,0,.22.73,1.06,1.06,0,0,0,.77.22h.87v1h-1.07a2.15,2.15,0,0,1-1.48-.46,2,2,0,0,1-.49-1.49v-4.2h-.93v-1h.93V56.29h1.18v1.79h1.86v1Z"/><path d="M810.86,59.7a3.11,3.11,0,0,1,1.21-1.28,3.46,3.46,0,0,1,1.72-.46,3.21,3.21,0,0,1,1.63.41,2.67,2.67,0,0,1,1,1v-1.3h1.19V65.2h-1.19V63.88a2.88,2.88,0,0,1-1,1,3.06,3.06,0,0,1-1.62.41,3.2,3.2,0,0,1-2.92-1.78,4.13,4.13,0,0,1,0-3.81Zm5.26.53a2.36,2.36,0,0,0-.88-.92,2.58,2.58,0,0,0-2.45,0,2.24,2.24,0,0,0-.87.91,2.87,2.87,0,0,0-.33,1.41A2.91,2.91,0,0,0,812,63a2.27,2.27,0,0,0,.87.92,2.24,2.24,0,0,0,1.21.32,2.32,2.32,0,0,0,2-1.24,2.87,2.87,0,0,0,.33-1.41A2.82,2.82,0,0,0,816.12,60.23Z"/><path d="M820.5,63.57,819,67.06h-.79l1-3.49Z"/><path d="M825.78,56.14v9.07H824.6V56.14Z"/><path d="M830.54,59.7a3.11,3.11,0,0,1,1.21-1.28,3.46,3.46,0,0,1,1.72-.46,3.21,3.21,0,0,1,1.63.41,2.67,2.67,0,0,1,1,1v-1.3h1.19V65.2H836.1V63.88a2.82,2.82,0,0,1-1,1,3,3,0,0,1-1.62.41,3.25,3.25,0,0,1-2.92-1.78,4.34,4.34,0,0,1,0-3.81Zm5.26.53a2.36,2.36,0,0,0-.88-.92,2.48,2.48,0,0,0-2.42,0,2.31,2.31,0,0,0-.87.91,2.87,2.87,0,0,0-.33,1.41,2.94,2.94,0,0,0,.33,1.42,2.33,2.33,0,0,0,.87.92,2.37,2.37,0,0,0,3.25-.83l0-.09a2.87,2.87,0,0,0,.33-1.41A2.83,2.83,0,0,0,835.8,60.23Z"/><path d="M840.14,55.59v9.62H839V55.59Z"/><path d="M842.85,65a2.32,2.32,0,0,1-1-.78,2.07,2.07,0,0,1-.42-1.15h1.23a1.17,1.17,0,0,0,.5.87,1.87,1.87,0,0,0,1.17.34,1.69,1.69,0,0,0,1.07-.3.9.9,0,0,0,.39-.75.76.76,0,0,0-.42-.7,5.9,5.9,0,0,0-1.28-.45,7.58,7.58,0,0,1-1.3-.42,2.2,2.2,0,0,1-.85-.63,1.82,1.82,0,0,1,0-2.12,2.19,2.19,0,0,1,.93-.72,3.18,3.18,0,0,1,1.36-.27,2.91,2.91,0,0,1,1.91.6,2.12,2.12,0,0,1,.78,1.64H845.7a1.27,1.27,0,0,0-.45-.9,2,2,0,0,0-2.11-.06.84.84,0,0,0-.38.71.78.78,0,0,0,.23.58,1.65,1.65,0,0,0,.57.37,8.83,8.83,0,0,0,1,.3,11.24,11.24,0,0,1,1.24.41,2.39,2.39,0,0,1,.83.61,1.61,1.61,0,0,1,.36,1,1.78,1.78,0,0,1-.33,1,2.15,2.15,0,0,1-.92.74,3.31,3.31,0,0,1-1.35.26A3.53,3.53,0,0,1,842.85,65Z"/><path d="M849.51,64.87a3.18,3.18,0,0,1-1.27-1.3,4,4,0,0,1-.47-1.94,3.84,3.84,0,0,1,.48-1.93,3.33,3.33,0,0,1,1.29-1.29,4,4,0,0,1,3.67,0,3.31,3.31,0,0,1,1.29,1.28,4.1,4.1,0,0,1,0,3.88,3.58,3.58,0,0,1-1.32,1.3,3.86,3.86,0,0,1-1.85.45A3.72,3.72,0,0,1,849.51,64.87Zm3-.89a2.2,2.2,0,0,0,.9-.89,3,3,0,0,0,.35-1.46,2.8,2.8,0,0,0-.34-1.45,2.24,2.24,0,0,0-.88-.9,2.59,2.59,0,0,0-2.38,0,2.13,2.13,0,0,0-.86.9,2.94,2.94,0,0,0-.33,1.45,3.25,3.25,0,0,0,.32,1.47,2,2,0,0,0,.85.89,2.28,2.28,0,0,0,1.17.29,2.53,2.53,0,0,0,1.21-.28Z"/><path d="M859.28,59.7a3.1,3.1,0,0,1,1.23-1.28,3.86,3.86,0,0,1,4,.18,3,3,0,0,1,1.13,1.77h-1.28a1.76,1.76,0,0,0-.71-1,2.36,2.36,0,0,0-2.94.32,2.83,2.83,0,0,0-.62,2,2.9,2.9,0,0,0,.62,2,2.09,2.09,0,0,0,1.64.7,2.23,2.23,0,0,0,1.3-.36,1.76,1.76,0,0,0,.71-1h1.28a3.12,3.12,0,0,1-1.15,1.75,3.41,3.41,0,0,1-2.14.65,3.54,3.54,0,0,1-1.8-.45,3.12,3.12,0,0,1-1.23-1.29,4.94,4.94,0,0,1,0-4Z"/><path d="M868.1,64.87a3.18,3.18,0,0,1-1.27-1.3,4,4,0,0,1-.47-1.94,3.84,3.84,0,0,1,.48-1.93,3.33,3.33,0,0,1,1.29-1.29,4,4,0,0,1,3.67,0,3.31,3.31,0,0,1,1.29,1.28,4.1,4.1,0,0,1,0,3.88,3.58,3.58,0,0,1-1.32,1.3,3.86,3.86,0,0,1-1.85.45A3.72,3.72,0,0,1,868.1,64.87Zm3-.89a2.2,2.2,0,0,0,.9-.89,3,3,0,0,0,.35-1.46,2.8,2.8,0,0,0-.34-1.45,2.24,2.24,0,0,0-.88-.9A2.49,2.49,0,0,0,870,59a2.61,2.61,0,0,0-1.19.29,2.13,2.13,0,0,0-.86.9,2.94,2.94,0,0,0-.33,1.45,3.25,3.25,0,0,0,.32,1.47,2,2,0,0,0,.85.89,2.28,2.28,0,0,0,1.17.29,2.42,2.42,0,0,0,1.15-.29Z"/><path d="M880.34,58.74a3,3,0,0,1,.81,2.27v4.2H880v-4a2.28,2.28,0,0,0-.54-1.64A1.89,1.89,0,0,0,878,59a1.93,1.93,0,0,0-1.49.58,2.37,2.37,0,0,0-.55,1.71v3.94h-1.19V58.08H876v1a2.29,2.29,0,0,1,1-.85,3,3,0,0,1,1.33-.3A2.87,2.87,0,0,1,880.34,58.74Z"/><path d="M882.72,59.7a3.11,3.11,0,0,1,1.21-1.28,3.43,3.43,0,0,1,1.74-.46,3.24,3.24,0,0,1,1.55.39,2.7,2.7,0,0,1,1.09,1V55.59h1.19v9.62h-1.19V63.87a2.82,2.82,0,0,1-1,1,3,3,0,0,1-1.61.41,3.23,3.23,0,0,1-2.94-1.78,4,4,0,0,1-.44-1.92A3.93,3.93,0,0,1,882.72,59.7Zm5.26.53a2.33,2.33,0,0,0-.87-.92,2.5,2.5,0,0,0-2.43,0,2.31,2.31,0,0,0-.87.91,3,3,0,0,0-.32,1.41,3,3,0,0,0,.32,1.42,2.33,2.33,0,0,0,.87.92,2.24,2.24,0,0,0,1.21.32,2.28,2.28,0,0,0,1.22-.32,2.35,2.35,0,0,0,.89-1,2.87,2.87,0,0,0,.33-1.41,2.82,2.82,0,0,0-.33-1.36Z"/><path d="M897.46,58.08v7.13h-1.18V64.15a2.29,2.29,0,0,1-.95.85,2.8,2.8,0,0,1-1.33.31,3.19,3.19,0,0,1-1.49-.34,2.53,2.53,0,0,1-1-1,3.4,3.4,0,0,1-.38-1.68V58.08h1.17v4a2.27,2.27,0,0,0,.53,1.62,2.19,2.19,0,0,0,3,0,2.38,2.38,0,0,0,.55-1.7V58.08Z"/><path d="M899.1,59.7a3.1,3.1,0,0,1,1.23-1.28,3.86,3.86,0,0,1,4,.18,3.12,3.12,0,0,1,1.13,1.77h-1.28a1.89,1.89,0,0,0-.71-1,2.36,2.36,0,0,0-2.94.32,2.83,2.83,0,0,0-.62,2,2.9,2.9,0,0,0,.62,2,2.09,2.09,0,0,0,1.64.7,2.23,2.23,0,0,0,1.3-.36,1.89,1.89,0,0,0,.71-1h1.28a3.15,3.15,0,0,1-1.15,1.75,3.41,3.41,0,0,1-2.14.65,3.54,3.54,0,0,1-1.8-.45,3.12,3.12,0,0,1-1.23-1.29,4.94,4.94,0,0,1,0-4Z"/><path d="M908.07,59.06v4.2a1,1,0,0,0,.22.73,1.06,1.06,0,0,0,.77.22h.87v1h-1.07a2.15,2.15,0,0,1-1.48-.46,2,2,0,0,1-.49-1.49v-4.2H906v-1h.93V56.29h1.18v1.79H910v1Z"/><path d="M917.45,62.09h-5.69a2.23,2.23,0,0,0,2.31,2.23,2.17,2.17,0,0,0,1.28-.36,1.84,1.84,0,0,0,.73-1h1.27a3,3,0,0,1-1.14,1.67,3.48,3.48,0,0,1-2.14.64,3.58,3.58,0,0,1-1.81-.45,3.32,3.32,0,0,1-1.25-1.3,3.86,3.86,0,0,1-.46-1.94,4.21,4.21,0,0,1,.44-1.94,3.12,3.12,0,0,1,1.24-1.28,3.69,3.69,0,0,1,1.84-.45,3.54,3.54,0,0,1,1.8.45,3,3,0,0,1,1.2,1.21,3.56,3.56,0,0,1,.42,1.75A6.62,6.62,0,0,1,917.45,62.09ZM916,60a2.06,2.06,0,0,0-.81-.74A2.58,2.58,0,0,0,914,59a2.22,2.22,0,0,0-1.53.57,2.31,2.31,0,0,0-.72,1.58h4.5A2.18,2.18,0,0,0,916,60Z"/><path d="M918.69,59.7a3.11,3.11,0,0,1,1.21-1.28,3.43,3.43,0,0,1,1.74-.46,3.24,3.24,0,0,1,1.55.39,2.7,2.7,0,0,1,1.09,1V55.59h1.2v9.62h-1.2V63.87a2.82,2.82,0,0,1-1,1,3,3,0,0,1-1.61.41,3.23,3.23,0,0,1-2.94-1.78,4,4,0,0,1-.44-1.92A3.93,3.93,0,0,1,918.69,59.7Zm5.26.53a2.27,2.27,0,0,0-.87-.92,2.47,2.47,0,0,0-1.22-.32,2.56,2.56,0,0,0-1.21.31,2.31,2.31,0,0,0-.87.91,3,3,0,0,0-.32,1.41,3,3,0,0,0,.32,1.42,2.33,2.33,0,0,0,.87.92,2.24,2.24,0,0,0,1.21.32,2.28,2.28,0,0,0,1.22-.32,2.19,2.19,0,0,0,.92-1,2.87,2.87,0,0,0,.33-1.41,2.82,2.82,0,0,0-.33-1.36Z"/><path d="M932.47,62.08a10.71,10.71,0,0,0,1.58-1.78,3.19,3.19,0,0,0,.64-1.83,2,2,0,0,0-.41-1.33,1.6,1.6,0,0,0-1.32-.49,1.72,1.72,0,0,0-1.37.55,2.29,2.29,0,0,0-.52,1.48h-1.15a3.13,3.13,0,0,1,.88-2.25,3.38,3.38,0,0,1,4.28,0,2.67,2.67,0,0,1,.78,2,3.9,3.9,0,0,1-.64,2.1,9,9,0,0,1-1.46,1.79q-.82.78-2.1,1.8h4.47v1h-6.25v-.84C931,63.37,931.84,62.65,932.47,62.08Z"/><path d="M937.86,56.92a3.2,3.2,0,0,1,5.09,0,6.9,6.9,0,0,1,.72,3.49,7.08,7.08,0,0,1-.72,3.53,3.19,3.19,0,0,1-4.47.62,3.64,3.64,0,0,1-.62-.62,7.08,7.08,0,0,1-.72-3.53A6.9,6.9,0,0,1,937.86,56.92Zm4.5,1.57a2.45,2.45,0,0,0-.62-1.27,2.1,2.1,0,0,0-2.67,0,2.33,2.33,0,0,0-.61,1.27,10.29,10.29,0,0,0-.15,1.92,11.16,11.16,0,0,0,.15,2,2.36,2.36,0,0,0,.61,1.28,2.1,2.1,0,0,0,2.67,0,2.48,2.48,0,0,0,.62-1.28,13.78,13.78,0,0,0,0-3.92Z"/><path d="M945.66,56.92a3.2,3.2,0,0,1,5.09,0,6.9,6.9,0,0,1,.72,3.49,7.08,7.08,0,0,1-.72,3.53,3.19,3.19,0,0,1-4.47.62,3.64,3.64,0,0,1-.62-.62,7.08,7.08,0,0,1-.72-3.53A6.9,6.9,0,0,1,945.66,56.92Zm4.5,1.57a2.45,2.45,0,0,0-.62-1.27,2.1,2.1,0,0,0-2.67,0,2.45,2.45,0,0,0-.62,1.27,11.28,11.28,0,0,0-.14,1.92,12.15,12.15,0,0,0,.14,2,2.48,2.48,0,0,0,.62,1.28,2.1,2.1,0,0,0,2.67,0,2.48,2.48,0,0,0,.62-1.28,12.15,12.15,0,0,0,.14-2A11.28,11.28,0,0,0,950.16,58.49Z"/><path d="M957.09,65a2.48,2.48,0,0,1-1-.78,2,2,0,0,1-.41-1.15h1.22a1.17,1.17,0,0,0,.5.87,1.9,1.9,0,0,0,1.18.34,1.67,1.67,0,0,0,1.06-.3.9.9,0,0,0,.39-.75.77.77,0,0,0-.41-.7,5.8,5.8,0,0,0-1.29-.45A7.75,7.75,0,0,1,957,61.7a2.23,2.23,0,0,1-.86-.63,1.8,1.8,0,0,1,0-2.12,2.17,2.17,0,0,1,.92-.72A3.24,3.24,0,0,1,958.4,58a2.91,2.91,0,0,1,1.91.6,2.12,2.12,0,0,1,.78,1.64h-1.18a1.22,1.22,0,0,0-.45-.9,2,2,0,0,0-2.09-.06A.83.83,0,0,0,957,60a.78.78,0,0,0,.23.58,1.65,1.65,0,0,0,.57.37,8.83,8.83,0,0,0,1,.3,11.4,11.4,0,0,1,1.25.41,2.26,2.26,0,0,1,.82.61,1.61,1.61,0,0,1,.36,1,1.78,1.78,0,0,1-.33,1,2.12,2.12,0,0,1-.91.74,3.33,3.33,0,0,1-1.36.26A3.55,3.55,0,0,1,957.09,65Z"/><path d="M968.78,58.08v7.13h-1.19V64.15a2.21,2.21,0,0,1-.94.85,2.8,2.8,0,0,1-1.33.31,3.26,3.26,0,0,1-1.5-.34,2.53,2.53,0,0,1-1-1,3.4,3.4,0,0,1-.39-1.68V58.08h1.17v4a2.28,2.28,0,0,0,.54,1.62,1.91,1.91,0,0,0,1.45.56,2,2,0,0,0,1.5-.58,2.45,2.45,0,0,0,.54-1.7v-3.9Z"/><path d="M972.49,58.29A2.74,2.74,0,0,1,973.9,58v1.22h-.31c-1.33,0-2,.72-2,2.16v3.88h-1.18V58.08h1.18v1.16A2.23,2.23,0,0,1,972.49,58.29Z"/><path d="M977.55,64.11l2.21-6H981l-2.79,7.13h-1.38L974,58.11h1.28Z"/><path d="M988.29,62.09H982.6a2.23,2.23,0,0,0,2.31,2.23,2.17,2.17,0,0,0,1.28-.36,1.82,1.82,0,0,0,.72-1h1.28A3.16,3.16,0,0,1,987,64.68a3.45,3.45,0,0,1-2.13.64,3.58,3.58,0,0,1-1.81-.45,3.35,3.35,0,0,1-1.26-1.3,4.47,4.47,0,0,1,0-3.88A3.12,3.12,0,0,1,983,58.41a3.69,3.69,0,0,1,1.84-.45,3.5,3.5,0,0,1,1.79.45,3.06,3.06,0,0,1,1.21,1.21,3.56,3.56,0,0,1,.42,1.75A5.77,5.77,0,0,1,988.29,62.09ZM986.81,60a2.06,2.06,0,0,0-.81-.74,2.53,2.53,0,0,0-1.14-.25,2.22,2.22,0,0,0-1.53.57,2.31,2.31,0,0,0-.72,1.58h4.5A2.14,2.14,0,0,0,986.81,60Z"/><path d="M995.66,58.08l-4.29,10.48h-1.22l1.4-3.43-2.87-7H990l2.24,5.77,2.21-5.77Z"/><path d="M997.7,63.57l-1.45,3.49h-.8l.95-3.49Z"/><path d="M1001.8,59.7a3.11,3.11,0,0,1,1.21-1.28,3.43,3.43,0,0,1,1.74-.46,3.15,3.15,0,0,1,1.62.41,2.67,2.67,0,0,1,1,1v-1.3h1.19V68.59h-1.19v-4.7a3,3,0,0,1-1,1,3.33,3.33,0,0,1-4.55-1.37,4,4,0,0,1-.45-1.92A3.92,3.92,0,0,1,1001.8,59.7Zm5.26.53a2.36,2.36,0,0,0-.88-.92,2.46,2.46,0,0,0-2.39,0,2.31,2.31,0,0,0-.87.91,2.87,2.87,0,0,0-.33,1.41,2.94,2.94,0,0,0,.33,1.42,2.33,2.33,0,0,0,.87.92,2.37,2.37,0,0,0,3.25-.83l.05-.09a3.05,3.05,0,0,0,0-2.82Z"/><path d="M1016.54,58.08v7.13h-1.18V64.15a2.24,2.24,0,0,1-1,.85,2.8,2.8,0,0,1-1.33.31,3.19,3.19,0,0,1-1.49-.34,2.47,2.47,0,0,1-1-1,3.4,3.4,0,0,1-.38-1.68V58.08h1.17v4a2.27,2.27,0,0,0,.53,1.62,2.19,2.19,0,0,0,3,0,2.44,2.44,0,0,0,.55-1.7V58.08Z"/><path d="M1024.64,62.09h-5.7a2.33,2.33,0,0,0,.73,1.64,2.26,2.26,0,0,0,1.59.59,2.17,2.17,0,0,0,1.28-.36,1.82,1.82,0,0,0,.72-1h1.27a3,3,0,0,1-1.14,1.67,3.45,3.45,0,0,1-2.13.64,3.61,3.61,0,0,1-1.82-.45,3.32,3.32,0,0,1-1.25-1.3,4.47,4.47,0,0,1,0-3.88,3.12,3.12,0,0,1,1.24-1.28,3.69,3.69,0,0,1,1.84-.45,3.5,3.5,0,0,1,1.79.45,3,3,0,0,1,1.2,1.21,3.57,3.57,0,0,1,.43,1.75C1024.68,61.6,1024.66,61.83,1024.64,62.09ZM1023.16,60a2,2,0,0,0-.82-.74,2.46,2.46,0,0,0-1.13-.25,2.22,2.22,0,0,0-1.53.57,2.31,2.31,0,0,0-.72,1.58h4.5A2.14,2.14,0,0,0,1023.16,60Z"/><path d="M1026.93,65a2.32,2.32,0,0,1-1-.78,2.07,2.07,0,0,1-.42-1.15h1.23a1.17,1.17,0,0,0,.5.87,1.87,1.87,0,0,0,1.17.34,1.69,1.69,0,0,0,1.07-.3.9.9,0,0,0,.39-.75.76.76,0,0,0-.42-.7,5.8,5.8,0,0,0-1.29-.45,7.47,7.47,0,0,1-1.29-.42A2.34,2.34,0,0,1,1026,61a1.74,1.74,0,0,1-.35-1.12,1.7,1.7,0,0,1,.32-1,2.23,2.23,0,0,1,.92-.72,3.22,3.22,0,0,1,1.37-.27,2.92,2.92,0,0,1,1.91.6,2.18,2.18,0,0,1,.78,1.64h-1.18a1.27,1.27,0,0,0-.45-.9,2,2,0,0,0-2.11-.06.81.81,0,0,0-.38.71.74.74,0,0,0,.23.58,1.65,1.65,0,0,0,.57.37,8.06,8.06,0,0,0,1,.3,11.4,11.4,0,0,1,1.25.41,2.39,2.39,0,0,1,.83.61,1.61,1.61,0,0,1,.36,1,1.78,1.78,0,0,1-.33,1,2.15,2.15,0,0,1-.92.74,3.33,3.33,0,0,1-1.36.26A3.53,3.53,0,0,1,1026.93,65Z"/><path d="M1033.74,59.06v4.2a1,1,0,0,0,.22.73,1.06,1.06,0,0,0,.77.22h.87v1h-1.07a2.15,2.15,0,0,1-1.48-.46,1.94,1.94,0,0,1-.5-1.49v-4.2h-.92v-1h.92V56.29h1.19v1.79h1.86v1Z"/><path d="M1036.7,56.69a.77.77,0,0,1-.23-.57.73.73,0,0,1,.23-.57.76.76,0,0,1,.57-.24.8.8,0,0,1,.56.24.85.85,0,0,1,0,1.14.8.8,0,0,1-.56.24A.76.76,0,0,1,1036.7,56.69Zm1.15,1.39v7.13h-1.19V58.08Z"/><path d="M1040.79,64.87a3.18,3.18,0,0,1-1.27-1.3,4,4,0,0,1-.47-1.94,3.84,3.84,0,0,1,.48-1.93,3.33,3.33,0,0,1,1.29-1.29,4,4,0,0,1,3.67,0,3.31,3.31,0,0,1,1.29,1.28,4.1,4.1,0,0,1,0,3.88,3.58,3.58,0,0,1-1.32,1.3,3.86,3.86,0,0,1-1.85.45A3.72,3.72,0,0,1,1040.79,64.87Zm3-.89a2.2,2.2,0,0,0,.9-.89,3.24,3.24,0,0,0,0-2.91,2.24,2.24,0,0,0-.88-.9,2.59,2.59,0,0,0-2.38,0,2.13,2.13,0,0,0-.86.9,2.94,2.94,0,0,0-.33,1.45,3.25,3.25,0,0,0,.32,1.47,2,2,0,0,0,.85.89,2.28,2.28,0,0,0,1.17.29,2.53,2.53,0,0,0,1.21-.28Z"/><path d="M1053,58.74a3,3,0,0,1,.8,2.27v4.2h-1.16v-4a2.28,2.28,0,0,0-.54-1.64,2.18,2.18,0,0,0-2.94,0,2.37,2.37,0,0,0-.55,1.71v3.94h-1.19V58.08h1.19v1a2.29,2.29,0,0,1,1-.85,3,3,0,0,1,1.33-.3A2.86,2.86,0,0,1,1053,58.74Z"/><path d="M1056.46,65a2.48,2.48,0,0,1-1-.78,2,2,0,0,1-.41-1.15h1.22a1.17,1.17,0,0,0,.5.87,1.9,1.9,0,0,0,1.18.34,1.7,1.7,0,0,0,1-.28.9.9,0,0,0,.39-.75.77.77,0,0,0-.41-.7,5.8,5.8,0,0,0-1.29-.45,7.47,7.47,0,0,1-1.29-.42,2.23,2.23,0,0,1-.86-.63,1.8,1.8,0,0,1,0-2.12,2.17,2.17,0,0,1,.92-.72,3.18,3.18,0,0,1,1.36-.27,3,3,0,0,1,1.92.6,2.22,2.22,0,0,1,.78,1.64h-1.19a1.22,1.22,0,0,0-.45-.9,2,2,0,0,0-2.09-.06.84.84,0,0,0-.38.71.78.78,0,0,0,.23.58,1.65,1.65,0,0,0,.57.37,8.83,8.83,0,0,0,1,.3,11.4,11.4,0,0,1,1.25.41,2.26,2.26,0,0,1,.82.61,1.61,1.61,0,0,1,.36,1,1.85,1.85,0,0,1-.32,1,2.29,2.29,0,0,1-.92.74,3.33,3.33,0,0,1-1.36.26A3.55,3.55,0,0,1,1056.46,65Z"/><path d="M1064.94,59.7a3.1,3.1,0,0,1,1.23-1.28,3.86,3.86,0,0,1,4,.18,3,3,0,0,1,1.12,1.77H1070a1.89,1.89,0,0,0-.71-1A2.12,2.12,0,0,0,1068,59a2.09,2.09,0,0,0-1.64.69,2.84,2.84,0,0,0-.63,2,2.89,2.89,0,0,0,.63,2,2.06,2.06,0,0,0,1.64.7,2.23,2.23,0,0,0,1.3-.36,1.89,1.89,0,0,0,.71-1h1.27a3.14,3.14,0,0,1-1.14,1.75,3.41,3.41,0,0,1-2.14.65,3.54,3.54,0,0,1-1.8-.45,3.12,3.12,0,0,1-1.23-1.29,4.89,4.89,0,0,1,0-4Z"/><path d="M1073.76,64.87a3.4,3.4,0,0,1-1.28-1.3,4.08,4.08,0,0,1-.46-1.94,3.84,3.84,0,0,1,.48-1.93,3.2,3.2,0,0,1,1.29-1.29,4,4,0,0,1,3.67,0,3.31,3.31,0,0,1,1.29,1.28,4.22,4.22,0,0,1,0,3.88,3.58,3.58,0,0,1-1.32,1.3,3.86,3.86,0,0,1-1.85.45A3.61,3.61,0,0,1,1073.76,64.87Zm3-.89a2.2,2.2,0,0,0,.9-.89,2.86,2.86,0,0,0,.34-1.46,2.94,2.94,0,0,0-.33-1.45,2.27,2.27,0,0,0-.89-.9,2.55,2.55,0,0,0-2.37,0,2.13,2.13,0,0,0-.86.9,2.94,2.94,0,0,0-.33,1.45,3.25,3.25,0,0,0,.32,1.47,2,2,0,0,0,.85.89,2.28,2.28,0,0,0,1.17.29,2.53,2.53,0,0,0,1.21-.28Z"/><path d="M1083.07,64.11l2.21-6h1.26l-2.79,7.13h-1.38l-2.79-7.13h1.27Z"/><path d="M1093.81,62.09h-5.69a2.23,2.23,0,0,0,2.31,2.23,2.17,2.17,0,0,0,1.28-.36,1.82,1.82,0,0,0,.72-1h1.28a3.12,3.12,0,0,1-1.15,1.67,3.45,3.45,0,0,1-2.13.64,3.58,3.58,0,0,1-1.81-.45,3.35,3.35,0,0,1-1.26-1.3,4.47,4.47,0,0,1,0-3.88,3.12,3.12,0,0,1,1.24-1.28,3.69,3.69,0,0,1,1.84-.45,3.5,3.5,0,0,1,1.79.45,3.06,3.06,0,0,1,1.21,1.21,3.56,3.56,0,0,1,.42,1.75A6.64,6.64,0,0,1,1093.81,62.09ZM1092.33,60a2.06,2.06,0,0,0-.81-.74,2.53,2.53,0,0,0-1.14-.25,2.22,2.22,0,0,0-1.53.57,2.31,2.31,0,0,0-.72,1.58h4.5A2.14,2.14,0,0,0,1092.33,60Z"/><path d="M1097.12,58.29a2.68,2.68,0,0,1,1.41-.34v1.22h-.31c-1.33,0-2,.72-2,2.16v3.88H1095V58.08h1.19v1.16A2.3,2.3,0,0,1,1097.12,58.29Z"/><path d="M1099.57,56.69a.76.76,0,0,1-.24-.57.73.73,0,0,1,.24-.57.76.76,0,0,1,.57-.24.72.72,0,0,1,.55.24.82.82,0,0,1,0,1.14.72.72,0,0,1-.55.24A.76.76,0,0,1,1099.57,56.69Zm1.14,1.39v7.13h-1.18V58.08Z"/><path d="M1107.94,58.74a3,3,0,0,1,.81,2.27v4.2h-1.17v-4a2.28,2.28,0,0,0-.54-1.64,2.18,2.18,0,0,0-2.94,0,2.37,2.37,0,0,0-.55,1.71v3.94h-1.19V58.08h1.19v1a2.3,2.3,0,0,1,1-.85,3,3,0,0,1,1.33-.3A2.87,2.87,0,0,1,1107.94,58.74Z"/><path d="M1114.88,58.37a2.67,2.67,0,0,1,1,1v-1.3h1.2v7.28a3.5,3.5,0,0,1-.42,1.74,3.09,3.09,0,0,1-1.19,1.19,3.74,3.74,0,0,1-1.8.43,3.9,3.9,0,0,1-2.34-.67,2.61,2.61,0,0,1-1.11-1.8h1.17a1.83,1.83,0,0,0,.81,1,2.55,2.55,0,0,0,1.47.4,2.18,2.18,0,0,0,1.59-.61,2.32,2.32,0,0,0,.62-1.72V63.87a2.9,2.9,0,0,1-1,1,3.14,3.14,0,0,1-1.61.41,3.27,3.27,0,0,1-2.94-1.78,4,4,0,0,1-.44-1.92,3.87,3.87,0,0,1,.44-1.92,3.2,3.2,0,0,1,1.22-1.28,3.36,3.36,0,0,1,1.72-.46A3.15,3.15,0,0,1,1114.88,58.37Zm.7,1.86a2.27,2.27,0,0,0-.87-.92,2.47,2.47,0,0,0-1.22-.32,2.56,2.56,0,0,0-1.21.31,2.31,2.31,0,0,0-.87.91,3,3,0,0,0-.32,1.41,3,3,0,0,0,.32,1.42,2.33,2.33,0,0,0,.87.92,2.24,2.24,0,0,0,1.21.32,2.3,2.3,0,0,0,2.09-1.24,2.87,2.87,0,0,0,.33-1.41A2.83,2.83,0,0,0,1115.58,60.23Z"/><path d="M650.91,84.5a1.52,1.52,0,0,1-.46-1.12,1.57,1.57,0,0,1,1.59-1.6,1.59,1.59,0,0,1,1.61,1.57v0a1.57,1.57,0,0,1-.47,1.12A1.54,1.54,0,0,1,652,85,1.51,1.51,0,0,1,650.91,84.5Z"/><path d="M660.65,83.18a3.31,3.31,0,0,1-2.36.74h-1.74v3.79h-1.19V78.64h2.93a3.29,3.29,0,0,1,2.33.75,2.47,2.47,0,0,1,.8,1.91A2.51,2.51,0,0,1,660.65,83.18Zm-.91-.66a1.55,1.55,0,0,0,.47-1.22q0-1.68-1.92-1.68h-1.74V83h1.74a2.06,2.06,0,0,0,1.45-.48Z"/><path d="M664.6,80.79a2.68,2.68,0,0,1,1.41-.34v1.22h-.31c-1.33,0-2,.72-2,2.16v3.88h-1.18V80.58h1.18v1.16A2.23,2.23,0,0,1,664.6,80.79Z"/><path d="M673.47,84.59h-5.69a2.23,2.23,0,0,0,2.31,2.23,2.17,2.17,0,0,0,1.28-.36,1.84,1.84,0,0,0,.72-.95h1.28a3,3,0,0,1-1.15,1.67,3.45,3.45,0,0,1-2.13.64,3.58,3.58,0,0,1-1.81-.45,3.35,3.35,0,0,1-1.26-1.3,4,4,0,0,1-.45-1.94,4.21,4.21,0,0,1,.44-1.94,3.12,3.12,0,0,1,1.24-1.28,3.69,3.69,0,0,1,1.84-.45,3.54,3.54,0,0,1,1.8.45,3,3,0,0,1,1.2,1.21,3.56,3.56,0,0,1,.42,1.75A5.79,5.79,0,0,1,673.47,84.59ZM672,82.46a2.06,2.06,0,0,0-.81-.74,2.53,2.53,0,0,0-1.14-.25,2.22,2.22,0,0,0-1.53.57,2.31,2.31,0,0,0-.72,1.58h4.5A2.14,2.14,0,0,0,672,82.46Z"/><path d="M677.61,81.56h-1.5v6.15h-1.18V81.56H674v-1h.93v-.5a2.18,2.18,0,0,1,.62-1.75,2.88,2.88,0,0,1,2-.56v1a1.55,1.55,0,0,0-1.1.31,1.36,1.36,0,0,0-.32,1v.5h1.5Z"/><path d="M685.08,84.59h-5.69a2.23,2.23,0,0,0,2.31,2.23,2.17,2.17,0,0,0,1.28-.36,1.84,1.84,0,0,0,.72-.95H685a3,3,0,0,1-1.15,1.67,3.45,3.45,0,0,1-2.13.64,3.58,3.58,0,0,1-1.81-.45,3.35,3.35,0,0,1-1.26-1.3,4,4,0,0,1-.45-1.94,4.21,4.21,0,0,1,.44-1.94,3.12,3.12,0,0,1,1.24-1.28,3.69,3.69,0,0,1,1.84-.45,3.54,3.54,0,0,1,1.8.45,3,3,0,0,1,1.2,1.21,3.56,3.56,0,0,1,.42,1.75Q685.13,84.23,685.08,84.59Zm-1.48-2.13a2.06,2.06,0,0,0-.81-.74,2.53,2.53,0,0,0-1.14-.25,2.22,2.22,0,0,0-1.53.57,2.31,2.31,0,0,0-.72,1.58h4.5a2.14,2.14,0,0,0-.3-1.16Z"/><path d="M688.39,80.79a2.68,2.68,0,0,1,1.41-.34v1.22h-.31c-1.33,0-2,.72-2,2.16v3.88h-1.18V80.58h1.18v1.16A2.23,2.23,0,0,1,688.39,80.79Z"/><path d="M697.26,84.59h-5.69a2.23,2.23,0,0,0,2.31,2.23,2.17,2.17,0,0,0,1.28-.36,1.84,1.84,0,0,0,.72-.95h1.28A3,3,0,0,1,696,87.18a3.45,3.45,0,0,1-2.13.64,3.58,3.58,0,0,1-1.81-.45,3.35,3.35,0,0,1-1.26-1.3,4,4,0,0,1-.45-1.94,4.21,4.21,0,0,1,.44-1.94A3.11,3.11,0,0,1,692,80.91a3.69,3.69,0,0,1,1.84-.45,3.54,3.54,0,0,1,1.8.45,3,3,0,0,1,1.2,1.21,3.56,3.56,0,0,1,.42,1.75Q697.28,84.23,697.26,84.59Zm-1.48-2.13a2.06,2.06,0,0,0-.81-.74,2.53,2.53,0,0,0-1.14-.25,2.22,2.22,0,0,0-1.53.57,2.31,2.31,0,0,0-.72,1.58h4.5A2.14,2.14,0,0,0,695.78,82.46Z"/><path d="M698.5,82.2a3.11,3.11,0,0,1,1.21-1.28,3.43,3.43,0,0,1,1.74-.46,3.24,3.24,0,0,1,1.55.39,2.76,2.76,0,0,1,1.09,1V78.09h1.19v9.62h-1.19V86.37a2.82,2.82,0,0,1-1,1,3,3,0,0,1-1.62.41,3.23,3.23,0,0,1-3-1.78,4.24,4.24,0,0,1,0-3.8Zm5.26.53a2.36,2.36,0,0,0-.88-.92,2.48,2.48,0,0,0-2.42,0,2.31,2.31,0,0,0-.87.91,2.87,2.87,0,0,0-.33,1.41,2.94,2.94,0,0,0,.33,1.42,2.33,2.33,0,0,0,.87.92,2.37,2.37,0,0,0,3.25-.83l0-.09a2.87,2.87,0,0,0,.33-1.41A2.83,2.83,0,0,0,703.76,82.73Z"/><path d="M710,82.2a3.11,3.11,0,0,1,1.21-1.28,3.43,3.43,0,0,1,1.74-.46,3.24,3.24,0,0,1,1.55.39,2.7,2.7,0,0,1,1.09,1V78.09h1.19v9.62h-1.19V86.37a2.82,2.82,0,0,1-1,1,3,3,0,0,1-1.61.41A3.25,3.25,0,0,1,710,86a4.32,4.32,0,0,1,0-3.8Zm5.26.53a2.33,2.33,0,0,0-.87-.92,2.47,2.47,0,0,0-1.22-.32,2.56,2.56,0,0,0-1.21.31,2.31,2.31,0,0,0-.87.91,2.87,2.87,0,0,0-.33,1.41,2.94,2.94,0,0,0,.33,1.42,2.33,2.33,0,0,0,.87.92,2.24,2.24,0,0,0,1.21.32,2.28,2.28,0,0,0,1.22-.32,2.33,2.33,0,0,0,.87-.92,2.87,2.87,0,0,0,.33-1.41,2.83,2.83,0,0,0-.3-1.4Z"/><path d="M724.91,84.59h-5.69a2.23,2.23,0,0,0,2.31,2.23,2.17,2.17,0,0,0,1.28-.36,1.86,1.86,0,0,0,.73-.95h1.27a3,3,0,0,1-1.14,1.67,3.48,3.48,0,0,1-2.14.64,3.58,3.58,0,0,1-1.81-.45,3.35,3.35,0,0,1-1.26-1.3,4,4,0,0,1-.45-1.94,4.21,4.21,0,0,1,.44-1.94,3.12,3.12,0,0,1,1.24-1.28,3.69,3.69,0,0,1,1.84-.45,3.54,3.54,0,0,1,1.8.45,3,3,0,0,1,1.2,1.21,3.56,3.56,0,0,1,.42,1.75A5.79,5.79,0,0,1,724.91,84.59Zm-1.48-2.13a2.06,2.06,0,0,0-.81-.74,2.53,2.53,0,0,0-1.14-.25A2.22,2.22,0,0,0,720,82a2.31,2.31,0,0,0-.72,1.58h4.5A2.12,2.12,0,0,0,723.43,82.46Z"/><path d="M728.38,80.87a3.15,3.15,0,0,1,1.62-.41,3.46,3.46,0,0,1,1.72.46,3.11,3.11,0,0,1,1.21,1.28,4.32,4.32,0,0,1,0,3.84A3.25,3.25,0,0,1,730,87.82a3,3,0,0,1-1.61-.41,2.91,2.91,0,0,1-1.06-1v4.7h-1.18V80.58h1.18v1.31A2.85,2.85,0,0,1,728.38,80.87Zm3.46,1.84a2.27,2.27,0,0,0-.88-.91,2.45,2.45,0,0,0-1.21-.31,2.4,2.4,0,0,0-1.2.32,2.31,2.31,0,0,0-.89.92,3.16,3.16,0,0,0,0,2.81,2.31,2.31,0,0,0,.89.92,2.41,2.41,0,0,0,2.41,0,2.17,2.17,0,0,0,.88-.92,2.94,2.94,0,0,0,.33-1.42A2.87,2.87,0,0,0,731.84,82.71Z"/><path d="M734.57,82.2a3.2,3.2,0,0,1,1.22-1.28,3.36,3.36,0,0,1,1.72-.46,3.15,3.15,0,0,1,1.62.41,2.67,2.67,0,0,1,1,1v-1.3h1.2V87.7h-1.2V86.38a2.67,2.67,0,0,1-1,1,3.39,3.39,0,0,1-3.34-.06A3.3,3.3,0,0,1,734.57,86a4.13,4.13,0,0,1-.44-1.92A4,4,0,0,1,734.57,82.2Zm5.27.53a2.36,2.36,0,0,0-.88-.92,2.47,2.47,0,0,0-1.22-.32,2.56,2.56,0,0,0-1.21.31,2.31,2.31,0,0,0-.87.91,3,3,0,0,0-.32,1.41,3,3,0,0,0,.32,1.42,2.33,2.33,0,0,0,.87.92,2.38,2.38,0,0,0,3.26-.83l.05-.09a3,3,0,0,0,.32-1.41A2.94,2.94,0,0,0,739.84,82.73Z"/><path d="M745.07,80.79a2.68,2.68,0,0,1,1.41-.34v1.22h-.31c-1.33,0-2,.72-2,2.16v3.88H743V80.58h1.18v1.16A2.27,2.27,0,0,1,745.07,80.79Z"/><path d="M748.92,81.56v4.2a1,1,0,0,0,.22.73,1.11,1.11,0,0,0,.77.22h.87v1h-1.06a2.16,2.16,0,0,1-1.49-.46,2,2,0,0,1-.49-1.49v-4.2h-.92v-1h.92V78.79h1.18v1.79h1.86v1Z"/><path d="M758.17,80.58v7.13H757V86.65a2.21,2.21,0,0,1-.94.85,2.8,2.8,0,0,1-1.33.31,3.26,3.26,0,0,1-1.5-.34,2.53,2.53,0,0,1-1-1,3.4,3.4,0,0,1-.39-1.68V80.58H753v4a2.28,2.28,0,0,0,.54,1.62,1.91,1.91,0,0,0,1.45.56,2,2,0,0,0,1.5-.58,2.45,2.45,0,0,0,.54-1.7v-3.9Z"/><path d="M761.88,80.79a2.68,2.68,0,0,1,1.41-.34v1.22H763c-1.33,0-2,.72-2,2.16v3.88h-1.2V80.58H761v1.16A2.18,2.18,0,0,1,761.88,80.79Z"/><path d="M770.75,84.59h-5.69a2.23,2.23,0,0,0,2.31,2.23,2.17,2.17,0,0,0,1.28-.36,1.84,1.84,0,0,0,.72-.95h1.28a3.12,3.12,0,0,1-1.15,1.67,3.45,3.45,0,0,1-2.13.64,3.58,3.58,0,0,1-1.81-.45,3.35,3.35,0,0,1-1.26-1.3,4.47,4.47,0,0,1,0-3.88,3.12,3.12,0,0,1,1.24-1.28,3.69,3.69,0,0,1,1.84-.45,3.5,3.5,0,0,1,1.79.45,3.06,3.06,0,0,1,1.21,1.21,3.56,3.56,0,0,1,.42,1.75A5.81,5.81,0,0,1,770.75,84.59Zm-1.48-2.13a2.06,2.06,0,0,0-.81-.74,2.53,2.53,0,0,0-1.14-.25,2.22,2.22,0,0,0-1.53.57,2.31,2.31,0,0,0-.72,1.58h4.5A2.14,2.14,0,0,0,769.27,82.46Z"/><path d="M776.28,78.09v9.62h-1.19V78.09Z"/><path d="M779.22,87.37a3.18,3.18,0,0,1-1.27-1.3,4,4,0,0,1-.47-1.94A3.85,3.85,0,0,1,778,82.2a3.33,3.33,0,0,1,1.29-1.29,4,4,0,0,1,3.67,0,3.31,3.31,0,0,1,1.29,1.28,4.1,4.1,0,0,1,0,3.88,3.58,3.58,0,0,1-1.32,1.3,3.86,3.86,0,0,1-1.85.45A3.66,3.66,0,0,1,779.22,87.37Zm3-.89a2.2,2.2,0,0,0,.9-.89,3.24,3.24,0,0,0,0-2.91,2.27,2.27,0,0,0-.89-.9,2.54,2.54,0,0,0-1.18-.29,2.61,2.61,0,0,0-1.19.29,2.13,2.13,0,0,0-.86.9,2.94,2.94,0,0,0-.33,1.45A3.25,3.25,0,0,0,779,85.6a2,2,0,0,0,.85.89,2.28,2.28,0,0,0,1.17.29,2.55,2.55,0,0,0,1.21-.3Z"/><path d="M785.88,82.2a3.22,3.22,0,0,1,1.23-1.28,3.86,3.86,0,0,1,4,.18,3.05,3.05,0,0,1,1.12,1.77H791a1.93,1.93,0,0,0-.71-1,2.2,2.2,0,0,0-1.31-.37,2.13,2.13,0,0,0-1.64.69,3.54,3.54,0,0,0,0,4,2.1,2.1,0,0,0,1.64.7,2.23,2.23,0,0,0,1.3-.36,1.82,1.82,0,0,0,.72-1h1.27a3.14,3.14,0,0,1-1.14,1.75,3.46,3.46,0,0,1-2.15.65,3.54,3.54,0,0,1-1.8-.45,3.25,3.25,0,0,1-1.23-1.29,4.21,4.21,0,0,1-.44-2A4.14,4.14,0,0,1,785.88,82.2Z"/><path d="M793.41,82.2a3.11,3.11,0,0,1,1.21-1.28,3.4,3.4,0,0,1,1.73-.46,3.15,3.15,0,0,1,1.62.41,2.67,2.67,0,0,1,1,1v-1.3h1.2V87.7H799V86.38a2.67,2.67,0,0,1-1,1,3,3,0,0,1-1.62.41,3.13,3.13,0,0,1-1.71-.47A3.2,3.2,0,0,1,793.41,86a4.32,4.32,0,0,1,0-3.8Zm5.26.53a2.27,2.27,0,0,0-.87-.92,2.47,2.47,0,0,0-1.22-.32,2.56,2.56,0,0,0-1.21.31,2.31,2.31,0,0,0-.87.91,3,3,0,0,0-.32,1.41,3,3,0,0,0,.32,1.42,2.33,2.33,0,0,0,.87.92,2.24,2.24,0,0,0,1.21.32,2.3,2.3,0,0,0,2.09-1.24,2.87,2.87,0,0,0,.33-1.41A2.83,2.83,0,0,0,798.67,82.73Z"/><path d="M803.28,81.56v4.2a1,1,0,0,0,.22.73,1.05,1.05,0,0,0,.76.22h.87v1h-1.06a2.15,2.15,0,0,1-1.48-.46,1.94,1.94,0,0,1-.5-1.49v-4.2h-.92v-1h.92V78.79h1.19v1.79h1.85v1Z"/><path d="M806.24,79.19a.77.77,0,0,1-.23-.57.73.73,0,0,1,.23-.57.78.78,0,0,1,.57-.24.72.72,0,0,1,.55.24.73.73,0,0,1,.23.57.77.77,0,0,1-.23.57.72.72,0,0,1-.55.24A.78.78,0,0,1,806.24,79.19Zm1.14,1.39v7.13H806.2V80.58Z"/><path d="M810.33,87.37a3.4,3.4,0,0,1-1.28-1.3,4.08,4.08,0,0,1-.46-1.94,3.84,3.84,0,0,1,.48-1.93,3.2,3.2,0,0,1,1.29-1.29,4,4,0,0,1,3.67,0,3.31,3.31,0,0,1,1.29,1.28,4.22,4.22,0,0,1,0,3.88,3.58,3.58,0,0,1-1.32,1.3,3.86,3.86,0,0,1-1.85.45A3.61,3.61,0,0,1,810.33,87.37Zm3-.89a2.2,2.2,0,0,0,.9-.89,2.86,2.86,0,0,0,.34-1.46,2.94,2.94,0,0,0-.33-1.45,2.27,2.27,0,0,0-.89-.9,2.55,2.55,0,0,0-2.37,0,2.13,2.13,0,0,0-.86.9,2.94,2.94,0,0,0-.33,1.45,3.25,3.25,0,0,0,.32,1.47,2,2,0,0,0,.85.89,2.28,2.28,0,0,0,1.17.29,2.55,2.55,0,0,0,1.21-.3Z"/><path d="M822.57,81.24a3,3,0,0,1,.8,2.27v4.2H822.2v-4a2.33,2.33,0,0,0-.53-1.64,2.18,2.18,0,0,0-2.94,0,2.42,2.42,0,0,0-.56,1.71v3.94H817V80.58h1.18v1a2.36,2.36,0,0,1,1-.85,3,3,0,0,1,1.33-.3A2.87,2.87,0,0,1,822.57,81.24Z"/><path d="M826.17,86.07l-1.46,3.49h-.79l1-3.49Z"/><path d="M831.71,81.56v4.2a1,1,0,0,0,.22.73,1.1,1.1,0,0,0,.76.22h.88v1H832.5a2.15,2.15,0,0,1-1.48-.46,1.94,1.94,0,0,1-.5-1.49v-4.2h-.92v-1h.92V78.79h1.19v1.79h1.86v1Z"/><path d="M834.67,79.19a.77.77,0,0,1-.23-.57.73.73,0,0,1,.23-.57.78.78,0,0,1,.57-.24.72.72,0,0,1,.55.24.73.73,0,0,1,.23.57.77.77,0,0,1-.23.57.72.72,0,0,1-.55.24A.78.78,0,0,1,834.67,79.19Zm1.14,1.39v7.13h-1.18V80.58Z"/><path d="M847.51,80.8a2.53,2.53,0,0,1,1,1,3.4,3.4,0,0,1,.38,1.68v4.2h-1.17v-4a2.33,2.33,0,0,0-.53-1.64,1.85,1.85,0,0,0-1.42-.56,1.9,1.9,0,0,0-1.47.59,2.46,2.46,0,0,0-.55,1.71v3.93h-1.17v-4a2.33,2.33,0,0,0-.52-1.64,1.88,1.88,0,0,0-1.43-.56,1.93,1.93,0,0,0-1.47.59,2.46,2.46,0,0,0-.54,1.71v3.93h-1.18V80.58h1.18v1a2.36,2.36,0,0,1,.94-.86,2.86,2.86,0,0,1,1.31-.3,3.12,3.12,0,0,1,1.58.4,2.53,2.53,0,0,1,1,1.19,2.38,2.38,0,0,1,1-1.17,2.85,2.85,0,0,1,1.53-.42A3,3,0,0,1,847.51,80.8Z"/><path d="M857,84.59h-5.69a2.23,2.23,0,0,0,2.31,2.23,2.17,2.17,0,0,0,1.28-.36,1.76,1.76,0,0,0,.72-.95h1.28a3,3,0,0,1-1.15,1.67,3.45,3.45,0,0,1-2.13.64,3.58,3.58,0,0,1-1.81-.45,3.35,3.35,0,0,1-1.26-1.3,4,4,0,0,1-.45-1.94,4.21,4.21,0,0,1,.44-1.94,3.12,3.12,0,0,1,1.24-1.28,3.69,3.69,0,0,1,1.84-.45,3.54,3.54,0,0,1,1.8.45,3,3,0,0,1,1.2,1.21,3.56,3.56,0,0,1,.42,1.75A5.79,5.79,0,0,1,857,84.59Zm-1.48-2.13a2.06,2.06,0,0,0-.81-.74,2.53,2.53,0,0,0-1.14-.25A2.24,2.24,0,0,0,852,82a2.31,2.31,0,0,0-.72,1.58h4.5a2.22,2.22,0,0,0-.31-1.12Z"/><path d="M650.91,107a1.52,1.52,0,0,1-.46-1.12,1.57,1.57,0,0,1,1.59-1.6,1.59,1.59,0,0,1,1.61,1.57v0a1.61,1.61,0,0,1-2.74,1.12Z"/><path d="M660.72,108.19h-4l-.73,2h-1.25l3.28-9h1.36l3.27,9H661.4Zm-.34-1-1.64-4.58-1.63,4.58Z"/><path d="M666.66,104.06h-1.49v6.15H664v-6.15h-.92v-1H664v-.5a2.23,2.23,0,0,1,.62-1.75,2.88,2.88,0,0,1,2-.56v1a1.55,1.55,0,0,0-1.1.31,1.39,1.39,0,0,0-.31,1v.5h1.49Z"/><path d="M670.57,104.06h-1.49v6.15H667.9v-6.15H667v-1h.93v-.5a2.23,2.23,0,0,1,.61-1.75,3,3,0,0,1,2-.56v1a1.55,1.55,0,0,0-1.1.31,1.3,1.3,0,0,0-.32,1v.5h1.49Z"/><path d="M672.88,109.87a3.31,3.31,0,0,1-1.27-1.3,4.26,4.26,0,0,1,0-3.87,3.33,3.33,0,0,1,1.29-1.29,4,4,0,0,1,3.67,0,3.24,3.24,0,0,1,1.29,1.28,3.85,3.85,0,0,1,.48,1.94,3.67,3.67,0,0,1-.49,1.94,3.37,3.37,0,0,1-1.32,1.3,3.86,3.86,0,0,1-1.85.45A3.68,3.68,0,0,1,672.88,109.87Zm3-.89a2.2,2.2,0,0,0,.9-.89,3,3,0,0,0,.35-1.46,2.8,2.8,0,0,0-.34-1.45,2.24,2.24,0,0,0-.88-.9,2.59,2.59,0,0,0-2.38,0,2.13,2.13,0,0,0-.86.9,2.94,2.94,0,0,0-.33,1.45,3.25,3.25,0,0,0,.32,1.47,2.21,2.21,0,0,0,.85.89,2.28,2.28,0,0,0,1.17.29,2.53,2.53,0,0,0,1.21-.28Z"/><path d="M681.62,103.29A2.65,2.65,0,0,1,683,103v1.22h-.31c-1.33,0-2,.72-2,2.16v3.88H679.5v-7.13h1.19v1.16A2.25,2.25,0,0,1,681.62,103.29Z"/><path d="M684,104.7a3.11,3.11,0,0,1,1.21-1.28A3.4,3.4,0,0,1,687,103a3.24,3.24,0,0,1,1.55.39,2.7,2.7,0,0,1,1.09,1v-3.77h1.19v9.62h-1.19V108.9a2.82,2.82,0,0,1-1,1,3,3,0,0,1-1.61.41,3.23,3.23,0,0,1-2.94-1.78,4,4,0,0,1-.44-1.92A4,4,0,0,1,684,104.7Zm5.26.53a2.33,2.33,0,0,0-.87-.92,2.47,2.47,0,0,0-1.22-.32,2.56,2.56,0,0,0-1.21.31,2.31,2.31,0,0,0-.87.91,2.87,2.87,0,0,0-.33,1.41,2.94,2.94,0,0,0,.33,1.42,2.33,2.33,0,0,0,.87.92,2.24,2.24,0,0,0,1.21.32,2.28,2.28,0,0,0,1.22-.32,2.33,2.33,0,0,0,.87-.92,2.87,2.87,0,0,0,.33-1.41,2.83,2.83,0,0,0-.3-1.4Z"/><path d="M692.45,104.7a3.2,3.2,0,0,1,1.22-1.28,3.36,3.36,0,0,1,1.72-.46,3.21,3.21,0,0,1,1.63.41,2.67,2.67,0,0,1,1,1v-1.3h1.2v7.13H698v-1.33a2.67,2.67,0,0,1-1,1,3.39,3.39,0,0,1-3.34-.06,3.25,3.25,0,0,1-1.21-1.31,4.13,4.13,0,0,1-.44-1.92A4,4,0,0,1,692.45,104.7Zm5.27.53a2.36,2.36,0,0,0-.88-.92,2.48,2.48,0,0,0-2.42,0,2.33,2.33,0,0,0-.88.91,3,3,0,0,0-.32,1.41,3,3,0,0,0,.32,1.42,2.36,2.36,0,0,0,.88.92,2.21,2.21,0,0,0,1.2.32,2.31,2.31,0,0,0,2.1-1.24,3.27,3.27,0,0,0,0-2.82Z"/><path d="M703.13,103.37a3,3,0,0,1,1.59-.41,3.28,3.28,0,0,1,1.73.46,3.11,3.11,0,0,1,1.21,1.28,3.87,3.87,0,0,1,.44,1.92,4,4,0,0,1-.44,1.92,3.23,3.23,0,0,1-2.94,1.78,3.13,3.13,0,0,1-1.61-.4,2.66,2.66,0,0,1-1.05-1v1.32h-1.18v-9.62h1.18v3.82A2.75,2.75,0,0,1,703.13,103.37Zm3.44,1.84a2.33,2.33,0,0,0-.88-.91,2.56,2.56,0,0,0-1.21-.31,2.46,2.46,0,0,0-1.21.32,2.36,2.36,0,0,0-.88.92,3.16,3.16,0,0,0,0,2.81,2.37,2.37,0,0,0,4.13.09l.05-.09a2.94,2.94,0,0,0,.33-1.42A2.87,2.87,0,0,0,706.57,105.21Z"/><path d="M710.48,100.59v9.62H709.3v-9.62Z"/><path d="M718.59,107.09H712.9a2.23,2.23,0,0,0,2.31,2.23,2.18,2.18,0,0,0,1.29-.36,1.84,1.84,0,0,0,.72-.95h1.27a3,3,0,0,1-1.14,1.67,3.48,3.48,0,0,1-2.14.64,3.58,3.58,0,0,1-1.81-.45,3.32,3.32,0,0,1-1.25-1.3,3.86,3.86,0,0,1-.46-1.94,4.21,4.21,0,0,1,.44-1.94,3.14,3.14,0,0,1,1.25-1.28,3.65,3.65,0,0,1,1.83-.45,3.54,3.54,0,0,1,1.8.45,3,3,0,0,1,1.2,1.21,3.56,3.56,0,0,1,.42,1.75A5.79,5.79,0,0,1,718.59,107.09ZM717.11,105a2.06,2.06,0,0,0-.81-.74,2.53,2.53,0,0,0-1.14-.25,2.18,2.18,0,0,0-1.52.57,2.32,2.32,0,0,0-.73,1.58h4.5A2.14,2.14,0,0,0,717.11,105Z"/><path d="M728.22,105.68a3.31,3.31,0,0,1-2.36.74h-1.74v3.79h-1.18v-9.07h2.92a3.32,3.32,0,0,1,2.34.75,2.67,2.67,0,0,1,0,3.78h0Zm-.9-.66a1.55,1.55,0,0,0,.47-1.22c0-1.12-.65-1.68-1.93-1.68h-1.74v3.33h1.74a2.07,2.07,0,0,0,1.46-.45Z"/><path d="M732.17,103.29a2.68,2.68,0,0,1,1.41-.34v1.22h-.31c-1.32,0-2,.72-2,2.16v3.88H730.1v-7.13h1.18v1.16A2.39,2.39,0,0,1,732.17,103.29Z"/><path d="M734.62,101.69a.82.82,0,0,1,0-1.14.78.78,0,0,1,.58-.24.76.76,0,0,1,.55.24.82.82,0,0,1,0,1.14.76.76,0,0,1-.55.24A.78.78,0,0,1,734.62,101.69Zm1.15,1.39v7.13h-1.19v-7.13Z"/><path d="M737.42,104.7a3.1,3.1,0,0,1,1.23-1.28,3.86,3.86,0,0,1,4,.18,3.12,3.12,0,0,1,1.13,1.77H742.5a1.89,1.89,0,0,0-.71-1,2.36,2.36,0,0,0-2.94.32,2.83,2.83,0,0,0-.62,2,2.9,2.9,0,0,0,.62,2,2.09,2.09,0,0,0,1.64.7,2.23,2.23,0,0,0,1.3-.36,1.89,1.89,0,0,0,.71-1h1.28a3.15,3.15,0,0,1-1.15,1.75,3.41,3.41,0,0,1-2.14.65,3.54,3.54,0,0,1-1.8-.45,3.12,3.12,0,0,1-1.23-1.29,4.95,4.95,0,0,1,0-4Z"/><path d="M751.41,107.09h-5.7a2.23,2.23,0,0,0,2.23,2.23H748a2.17,2.17,0,0,0,1.28-.36,1.85,1.85,0,0,0,.69-1h1.27a3,3,0,0,1-1.14,1.67,3.45,3.45,0,0,1-2.13.64,3.61,3.61,0,0,1-1.82-.45,3.32,3.32,0,0,1-1.25-1.3,4.34,4.34,0,0,1,0-3.88,3.06,3.06,0,0,1,1.24-1.28A3.63,3.63,0,0,1,748,103a3.5,3.5,0,0,1,1.79.45,3,3,0,0,1,1.2,1.21,3.57,3.57,0,0,1,.43,1.75A3.14,3.14,0,0,1,751.41,107.09ZM749.92,105a1.87,1.87,0,0,0-.81-.74A2.51,2.51,0,0,0,748,104a2.18,2.18,0,0,0-1.52.57,2.31,2.31,0,0,0-.72,1.58h4.49A2.14,2.14,0,0,0,749.92,105Z"/><path d="M650.91,129.5a1.52,1.52,0,0,1-.46-1.12,1.57,1.57,0,0,1,1.59-1.6,1.59,1.59,0,0,1,1.61,1.57v0a1.57,1.57,0,0,1-.47,1.12,1.54,1.54,0,0,1-1.18.5A1.51,1.51,0,0,1,650.91,129.5Z"/><path d="M656.55,123.64v9.07h-1.19v-9.07Z"/><path d="M663.77,126.24a3,3,0,0,1,.81,2.27v4.2h-1.17v-4a2.33,2.33,0,0,0-.53-1.64,2,2,0,0,0-1.46-.56,2,2,0,0,0-1.49.58,2.37,2.37,0,0,0-.55,1.71v3.94H658.2v-7.13h1.18v1a2.24,2.24,0,0,1,1-.85,2.91,2.91,0,0,1,1.33-.3A2.82,2.82,0,0,1,663.77,126.24Z"/><path d="M667.6,126.56v4.2a1,1,0,0,0,.22.73,1.05,1.05,0,0,0,.76.22h.88v1h-1.07a2.15,2.15,0,0,1-1.48-.46,1.94,1.94,0,0,1-.5-1.49v-4.2h-.92v-1h.92v-1.79h1.19v1.79h1.86v1Z"/><path d="M677,129.59h-5.69a2.23,2.23,0,0,0,2.31,2.23,2.17,2.17,0,0,0,1.28-.36,1.78,1.78,0,0,0,.72-1h1.28a3,3,0,0,1-1.15,1.67,3.45,3.45,0,0,1-2.13.64,3.58,3.58,0,0,1-1.81-.45,3.35,3.35,0,0,1-1.26-1.3,4,4,0,0,1-.45-1.94,4.21,4.21,0,0,1,.44-1.94,3.12,3.12,0,0,1,1.24-1.28,3.69,3.69,0,0,1,1.84-.45,3.54,3.54,0,0,1,1.8.45,3,3,0,0,1,1.2,1.21,3.56,3.56,0,0,1,.42,1.75A6.62,6.62,0,0,1,677,129.59Zm-1.48-2.13a2.06,2.06,0,0,0-.81-.74,2.53,2.53,0,0,0-1.14-.25A2.24,2.24,0,0,0,672,127a2.31,2.31,0,0,0-.72,1.58h4.5a2.19,2.19,0,0,0-.28-1.12Z"/><path d="M683.79,126.24a3,3,0,0,1,.81,2.27v4.2h-1.17v-4a2.33,2.33,0,0,0-.53-1.64,2,2,0,0,0-1.46-.56,2,2,0,0,0-1.49.58,2.37,2.37,0,0,0-.55,1.71v3.94h-1.18v-7.13h1.18v1a2.24,2.24,0,0,1,1-.85,2.91,2.91,0,0,1,1.33-.3A2.82,2.82,0,0,1,683.79,126.24Z"/><path d="M687.62,126.56v4.2a1,1,0,0,0,.22.73,1.1,1.1,0,0,0,.76.22h.88v1h-1.07a2.15,2.15,0,0,1-1.48-.46,1.94,1.94,0,0,1-.5-1.49v-4.2h-.92v-1h.92v-1.79h1.19v1.79h1.86v1Z"/><path d="M690.58,124.19a.77.77,0,0,1-.23-.57.73.73,0,0,1,.23-.57.79.79,0,0,1,1.13,0,.85.85,0,0,1,0,1.14.79.79,0,0,1-1.13,0Zm1.14,1.39v7.13h-1.18v-7.13Z"/><path d="M694.67,132.37a3.4,3.4,0,0,1-1.28-1.3,4.08,4.08,0,0,1-.46-1.94,3.84,3.84,0,0,1,.48-1.93,3.33,3.33,0,0,1,1.29-1.29,4,4,0,0,1,3.67,0,3.31,3.31,0,0,1,1.29,1.28,4.1,4.1,0,0,1,0,3.88,3.58,3.58,0,0,1-1.32,1.3,3.86,3.86,0,0,1-1.85.45A3.61,3.61,0,0,1,694.67,132.37Zm3-.89a2.2,2.2,0,0,0,.9-.89,3.24,3.24,0,0,0,0-2.91,2.27,2.27,0,0,0-.89-.9,2.54,2.54,0,0,0-1.18-.29,2.61,2.61,0,0,0-1.19.29,2.13,2.13,0,0,0-.86.9,2.94,2.94,0,0,0-.33,1.45,3.25,3.25,0,0,0,.32,1.47,2,2,0,0,0,.85.89,2.28,2.28,0,0,0,1.17.29,2.55,2.55,0,0,0,1.21-.3Z"/><path d="M706.91,126.24a3,3,0,0,1,.8,2.27v4.2h-1.17v-4A2.31,2.31,0,0,0,706,127a2.18,2.18,0,0,0-2.94,0,2.42,2.42,0,0,0-.56,1.71v3.94h-1.18v-7.13h1.18v1a2.36,2.36,0,0,1,1-.85,3,3,0,0,1,1.33-.3A2.89,2.89,0,0,1,706.91,126.24Z"/><path d="M713.71,120.46l-3.56,14.46H709l3.54-14.46Z"/><path d="M725.16,125.8a2.53,2.53,0,0,1,1,1,3.5,3.5,0,0,1,.37,1.68v4.2h-1.17v-4a2.33,2.33,0,0,0-.52-1.64,2.1,2.1,0,0,0-2.89,0,2.37,2.37,0,0,0-.55,1.71v3.93h-1.17v-4a2.33,2.33,0,0,0-.53-1.64,1.85,1.85,0,0,0-1.42-.56,1.9,1.9,0,0,0-1.47.59,2.46,2.46,0,0,0-.55,1.71v3.93h-1.18v-7.13h1.18v1a2.45,2.45,0,0,1,1-.86,2.79,2.79,0,0,1,1.3-.3,3.16,3.16,0,0,1,1.59.4,2.53,2.53,0,0,1,1,1.19,2.33,2.33,0,0,1,1-1.17,2.88,2.88,0,0,1,1.54-.42A3,3,0,0,1,725.16,125.8Z"/><path d="M729.43,132.37a3.18,3.18,0,0,1-1.27-1.3,4.26,4.26,0,0,1,0-3.87,3.33,3.33,0,0,1,1.29-1.29,4,4,0,0,1,3.67,0,3.31,3.31,0,0,1,1.29,1.28,4.1,4.1,0,0,1,0,3.88,3.58,3.58,0,0,1-1.32,1.3,3.86,3.86,0,0,1-1.85.45A3.72,3.72,0,0,1,729.43,132.37Zm3-.89a2.2,2.2,0,0,0,.9-.89,3,3,0,0,0,.35-1.46,2.8,2.8,0,0,0-.34-1.45,2.24,2.24,0,0,0-.88-.9,2.59,2.59,0,0,0-2.38,0,2.13,2.13,0,0,0-.86.9,2.94,2.94,0,0,0-.33,1.45,3.25,3.25,0,0,0,.32,1.47,2,2,0,0,0,.85.89,2.28,2.28,0,0,0,1.17.29,2.55,2.55,0,0,0,1.21-.3Z"/><path d="M737.54,126.56v4.2a1,1,0,0,0,.22.73,1.05,1.05,0,0,0,.76.22h.88v1h-1.07a2.15,2.15,0,0,1-1.48-.46,1.94,1.94,0,0,1-.5-1.49v-4.2h-.92v-1h.92v-1.79h1.19v1.79h1.86v1Z"/><path d="M740.5,124.19a.77.77,0,0,1-.23-.57.73.73,0,0,1,.23-.57.78.78,0,0,1,.57-.24.8.8,0,0,1,.56.24.85.85,0,0,1,0,1.14.8.8,0,0,1-.56.24A.78.78,0,0,1,740.5,124.19Zm1.14,1.39v7.13h-1.18v-7.13Z"/><path d="M746,131.61l2.21-6h1.26l-2.8,7.13H745.3l-2.8-7.13h1.27Z"/><path d="M750.22,127.2a3.2,3.2,0,0,1,1.22-1.28,3.46,3.46,0,0,1,1.72-.46,3.21,3.21,0,0,1,1.63.41,2.6,2.6,0,0,1,1,1v-1.3H757v7.13h-1.2v-1.33a2.67,2.67,0,0,1-1,1,3.39,3.39,0,0,1-3.34-.06,3.25,3.25,0,0,1-1.21-1.31,4.13,4.13,0,0,1-.44-1.92A3.94,3.94,0,0,1,750.22,127.2Zm5.27.53a2.36,2.36,0,0,0-.88-.92,2.48,2.48,0,0,0-2.42,0,2.24,2.24,0,0,0-.87.91,2.87,2.87,0,0,0-.33,1.41,2.94,2.94,0,0,0,.33,1.42,2.27,2.27,0,0,0,.87.92,2.24,2.24,0,0,0,1.21.32,2.34,2.34,0,0,0,2.09-1.24,3,3,0,0,0,.32-1.41A2.83,2.83,0,0,0,755.49,127.73Z"/><path d="M760.09,126.56v4.2a1,1,0,0,0,.22.73,1.06,1.06,0,0,0,.77.22H762v1h-1.07a2.15,2.15,0,0,1-1.48-.46,2,2,0,0,1-.49-1.49v-4.2h-1v-1h.93v-1.79h1.18v1.79H762v1Z"/><path d="M763.05,124.19a.82.82,0,0,1,0-1.14.78.78,0,0,1,.58-.24.76.76,0,0,1,.55.24.82.82,0,0,1,0,1.14.76.76,0,0,1-.55.24A.78.78,0,0,1,763.05,124.19Zm1.15,1.39v7.13H763v-7.13Z"/><path d="M767.14,132.37a3.31,3.31,0,0,1-1.27-1.3,4.26,4.26,0,0,1,0-3.87,3.29,3.29,0,0,1,1.3-1.29,3.65,3.65,0,0,1,1.83-.45,3.76,3.76,0,0,1,1.83.45,3.24,3.24,0,0,1,1.29,1.28,3.85,3.85,0,0,1,.48,1.94,3.67,3.67,0,0,1-.49,1.94,3.37,3.37,0,0,1-1.32,1.3,3.82,3.82,0,0,1-1.84.45A3.68,3.68,0,0,1,767.14,132.37Zm3-.89a2.23,2.23,0,0,0,.91-.89,2.86,2.86,0,0,0,.34-1.46,2.8,2.8,0,0,0-.34-1.45,2.24,2.24,0,0,0-.88-.9,2.54,2.54,0,0,0-1.18-.29,2.61,2.61,0,0,0-1.19.29,2.22,2.22,0,0,0-.87.9,2.93,2.93,0,0,0-.32,1.45,3.11,3.11,0,0,0,.31,1.47,2.05,2.05,0,0,0,.86.89,2.28,2.28,0,0,0,1.17.29,2.51,2.51,0,0,0,1.2-.3Z"/><path d="M779.38,126.24a3,3,0,0,1,.81,2.27v4.2H779v-4a2.33,2.33,0,0,0-.53-1.64,2.19,2.19,0,0,0-3,0,2.37,2.37,0,0,0-.55,1.71v3.94h-1.18v-7.13H775v1a2.3,2.3,0,0,1,1-.85,3.12,3.12,0,0,1,1.34-.3A2.87,2.87,0,0,1,779.38,126.24Z"/><path d="M787.77,126.56h-1.5v6.15h-1.18v-6.15h-.92v-1h.92v-.5a2.18,2.18,0,0,1,.62-1.75,2.88,2.88,0,0,1,2-.56v1a1.55,1.55,0,0,0-1.1.31,1.36,1.36,0,0,0-.32,1v.5h1.5Z"/><path d="M790.08,132.37a3.2,3.2,0,0,1-1.28-1.3,4.26,4.26,0,0,1,0-3.87,3.29,3.29,0,0,1,1.3-1.29,4,4,0,0,1,3.66,0,3.4,3.4,0,0,1,1.3,1.28,4,4,0,0,1,.47,1.94,3.67,3.67,0,0,1-.49,1.94,3.37,3.37,0,0,1-1.32,1.3,3.82,3.82,0,0,1-1.84.45A3.64,3.64,0,0,1,790.08,132.37Zm3-.89a2.23,2.23,0,0,0,.91-.89,2.86,2.86,0,0,0,.34-1.46,2.8,2.8,0,0,0-.34-1.45,2.24,2.24,0,0,0-.88-.9,2.55,2.55,0,0,0-2.37,0,2.22,2.22,0,0,0-.87.9,2.93,2.93,0,0,0-.32,1.45,3,3,0,0,0,.32,1.47,2,2,0,0,0,.85.89,2.28,2.28,0,0,0,1.17.29A2.47,2.47,0,0,0,793.08,131.48Z"/><path d="M798.81,125.79a2.68,2.68,0,0,1,1.41-.34v1.22h-.31c-1.33,0-2,.72-2,2.16v3.88h-1.18v-7.13h1.18v1.16A2.29,2.29,0,0,1,798.81,125.79Z"/><path d="M805.77,126.56v4.2a1,1,0,0,0,.22.73,1.11,1.11,0,0,0,.77.22h.87v1h-1.06a2.16,2.16,0,0,1-1.49-.46,2,2,0,0,1-.49-1.49v-4.2h-.92v-1h.92v-1.79h1.18v1.79h1.86v1Z"/><path d="M813.69,125.8a2.53,2.53,0,0,1,1,1,3.5,3.5,0,0,1,.37,1.68v4.2h-1.17v-4a2.33,2.33,0,0,0-.53-1.64,2,2,0,0,0-1.46-.56,2,2,0,0,0-1.49.58,2.37,2.37,0,0,0-.55,1.71v3.94H808.7v-9.62h1.18v3.51a2.3,2.3,0,0,1,1-.85,3.12,3.12,0,0,1,1.38-.3A3.08,3.08,0,0,1,813.69,125.8Z"/><path d="M823.11,129.59h-5.69a2.23,2.23,0,0,0,2.31,2.23,2.17,2.17,0,0,0,1.28-.36,1.84,1.84,0,0,0,.73-1H823a3,3,0,0,1-1.14,1.67,3.48,3.48,0,0,1-2.14.64,3.58,3.58,0,0,1-1.81-.45,3.32,3.32,0,0,1-1.25-1.3,3.86,3.86,0,0,1-.46-1.94,4.21,4.21,0,0,1,.44-1.94,3.12,3.12,0,0,1,1.24-1.28,3.69,3.69,0,0,1,1.84-.45,3.54,3.54,0,0,1,1.8.45,3,3,0,0,1,1.2,1.21,3.56,3.56,0,0,1,.42,1.75A5,5,0,0,1,823.11,129.59Zm-1.48-2.13a2.06,2.06,0,0,0-.81-.74,2.53,2.53,0,0,0-1.14-.25,2.22,2.22,0,0,0-1.53.57,2.31,2.31,0,0,0-.72,1.58h4.5A2.14,2.14,0,0,0,821.63,127.46Z"/><path d="M828.9,126.56v4.2a1,1,0,0,0,.22.73,1.06,1.06,0,0,0,.77.22h.87v1h-1.07a2.15,2.15,0,0,1-1.48-.46,2,2,0,0,1-.49-1.49v-4.2h-.93v-1h.93v-1.79h1.18v1.79h1.86v1Z"/><path d="M833.9,125.79a2.68,2.68,0,0,1,1.41-.34v1.22H835c-1.33,0-2,.72-2,2.16v3.88h-1.19v-7.13H833v1.16A2.23,2.23,0,0,1,833.9,125.79Z"/><path d="M836.35,124.19a.76.76,0,0,1-.24-.57.82.82,0,0,1,.81-.81.72.72,0,0,1,.55.24.82.82,0,0,1,0,1.14.72.72,0,0,1-.55.24A.73.73,0,0,1,836.35,124.19Zm1.14,1.39v7.13h-1.18v-7.13Z"/><path d="M841.37,125.87a3.15,3.15,0,0,1,1.62-.41,3.36,3.36,0,0,1,1.72.46,3.2,3.2,0,0,1,1.22,1.28,4.41,4.41,0,0,1,0,3.84,3.21,3.21,0,0,1-1.22,1.31,3.16,3.16,0,0,1-1.72.47,3,3,0,0,1-1.6-.41,2.83,2.83,0,0,1-1.06-1v4.7h-1.19V125.58h1.19v1.31A2.91,2.91,0,0,1,841.37,125.87Zm3.47,1.84a2.33,2.33,0,0,0-.88-.91,2.46,2.46,0,0,0-1.22-.31,2.4,2.4,0,0,0-1.2.32,2.36,2.36,0,0,0-.88.92,3.16,3.16,0,0,0,0,2.81,2.37,2.37,0,0,0,4.18,0,3,3,0,0,0,.32-1.42,3,3,0,0,0-.32-1.41Z"/><path d="M650.91,152a1.52,1.52,0,0,1-.46-1.12,1.57,1.57,0,0,1,1.59-1.6,1.59,1.59,0,0,1,1.61,1.57v0a1.61,1.61,0,0,1-2.74,1.12Z"/><path d="M662.34,146.14v9.07h-1.18V151.1h-4.61v4.11h-1.19v-9.07h1.19v4h4.61v-4Z"/><path d="M665.29,154.87a3.4,3.4,0,0,1-1.28-1.3,4.08,4.08,0,0,1-.46-1.94,3.84,3.84,0,0,1,.48-1.93,3.33,3.33,0,0,1,1.29-1.29,4,4,0,0,1,3.67,0,3.31,3.31,0,0,1,1.29,1.28,4.1,4.1,0,0,1,0,3.88,3.58,3.58,0,0,1-1.32,1.3,3.86,3.86,0,0,1-1.85.45A3.61,3.61,0,0,1,665.29,154.87Zm3-.89a2.2,2.2,0,0,0,.9-.89,3.24,3.24,0,0,0,0-2.91,2.27,2.27,0,0,0-.89-.9,2.54,2.54,0,0,0-1.18-.29,2.61,2.61,0,0,0-1.19.29,2.13,2.13,0,0,0-.86.9,2.94,2.94,0,0,0-.33,1.45,3.25,3.25,0,0,0,.32,1.47,2,2,0,0,0,.85.89,2.28,2.28,0,0,0,1.17.29,2.53,2.53,0,0,0,1.21-.28Z"/><path d="M681.44,148.08l-2.22,7.13H678l-1.72-5.66-1.72,5.66h-1.22l-2.23-7.13h1.21l1.63,6,1.77-6h1.21l1.73,6,1.61-6Z"/><path d="M695.4,148.3a2.53,2.53,0,0,1,1,1,3.4,3.4,0,0,1,.38,1.68v4.2h-1.17v-4a2.33,2.33,0,0,0-.53-1.64,1.85,1.85,0,0,0-1.42-.56,1.9,1.9,0,0,0-1.47.59,2.37,2.37,0,0,0-.55,1.71v3.93H690.5v-4a2.33,2.33,0,0,0-.52-1.64,1.88,1.88,0,0,0-1.43-.56,1.93,1.93,0,0,0-1.47.59,2.46,2.46,0,0,0-.54,1.71v3.93h-1.19v-7.13h1.19v1a2.29,2.29,0,0,1,.94-.86,2.86,2.86,0,0,1,1.31-.3,3.12,3.12,0,0,1,1.58.4,2.53,2.53,0,0,1,1,1.19,2.38,2.38,0,0,1,1-1.17,2.85,2.85,0,0,1,1.53-.42A3.12,3.12,0,0,1,695.4,148.3Z"/><path d="M698.38,149.7a3.2,3.2,0,0,1,1.22-1.28,3.36,3.36,0,0,1,1.72-.46,3.15,3.15,0,0,1,1.62.41,2.67,2.67,0,0,1,1,1v-1.3h1.2v7.13H704v-1.33a2.66,2.66,0,0,1-1,1,3,3,0,0,1-1.62.41,3.13,3.13,0,0,1-1.71-.47,3.18,3.18,0,0,1-1.21-1.31,4,4,0,0,1-.44-1.92A3.94,3.94,0,0,1,698.38,149.7Zm5.27.53a2.36,2.36,0,0,0-.88-.92,2.47,2.47,0,0,0-1.22-.32,2.56,2.56,0,0,0-1.21.31,2.31,2.31,0,0,0-.87.91,3,3,0,0,0-.32,1.41,3,3,0,0,0,.32,1.42,2.33,2.33,0,0,0,.87.92,2.24,2.24,0,0,0,1.21.32,2.28,2.28,0,0,0,1.22-.32,2.36,2.36,0,0,0,.88-.92,3,3,0,0,0,.32-1.41A2.94,2.94,0,0,0,703.65,150.23Z"/><path d="M712.38,148.74a3,3,0,0,1,.81,2.27v4.2H712v-4a2.28,2.28,0,0,0-.54-1.64A1.89,1.89,0,0,0,710,149a1.93,1.93,0,0,0-1.49.58,2.37,2.37,0,0,0-.55,1.71v3.94H706.8V148.1H708v1a2.3,2.3,0,0,1,1-.85,3.12,3.12,0,0,1,1.34-.3A2.86,2.86,0,0,1,712.38,148.74Z"/><path d="M720.9,148.08l-4.29,10.48h-1.23l1.41-3.43-2.87-7h1.31l2.23,5.77,2.21-5.77Z"/><path d="M727.05,148.37a3.15,3.15,0,0,1,1.62-.41,3.36,3.36,0,0,1,1.72.46,3.2,3.2,0,0,1,1.22,1.28,4.41,4.41,0,0,1,0,3.84,3.21,3.21,0,0,1-1.22,1.31,3.37,3.37,0,0,1-3.33.06,3,3,0,0,1-1.06-1v4.7h-1.18V148.08H726v1.31A3,3,0,0,1,727.05,148.37Zm3.47,1.84a2.33,2.33,0,0,0-.88-.91,2.46,2.46,0,0,0-1.22-.31,2.4,2.4,0,0,0-1.2.32,2.36,2.36,0,0,0-.88.92,3.09,3.09,0,0,0,0,2.81,2.37,2.37,0,0,0,4.18,0,3,3,0,0,0,.32-1.42,3,3,0,0,0-.32-1.41Z"/><path d="M733.25,149.7a3.11,3.11,0,0,1,1.21-1.28,3.46,3.46,0,0,1,1.72-.46,3.21,3.21,0,0,1,1.63.41,2.67,2.67,0,0,1,1,1v-1.3H740v7.13h-1.19v-1.33a2.88,2.88,0,0,1-1,1,3,3,0,0,1-1.62.41,3.25,3.25,0,0,1-2.92-1.78,4.11,4.11,0,0,1,0-3.8Zm5.26.53a2.36,2.36,0,0,0-.88-.92,2.48,2.48,0,0,0-2.42,0,2.24,2.24,0,0,0-.87.91,2.87,2.87,0,0,0-.33,1.41,2.94,2.94,0,0,0,.33,1.42,2.27,2.27,0,0,0,.87.92,2.24,2.24,0,0,0,1.21.32,2.34,2.34,0,0,0,2.09-1.24,2.87,2.87,0,0,0,.33-1.41A2.83,2.83,0,0,0,738.51,150.23Z"/><path d="M742.72,155a2.32,2.32,0,0,1-1-.78,2,2,0,0,1-.42-1.15h1.22a1.17,1.17,0,0,0,.5.87,1.9,1.9,0,0,0,1.18.34,1.69,1.69,0,0,0,1.07-.3.93.93,0,0,0,.38-.75.76.76,0,0,0-.41-.7,5.8,5.8,0,0,0-1.29-.45,7.47,7.47,0,0,1-1.29-.42,2.23,2.23,0,0,1-.86-.63,1.8,1.8,0,0,1,0-2.12,2.17,2.17,0,0,1,.92-.72A3.27,3.27,0,0,1,744,148a2.92,2.92,0,0,1,1.91.6,2.22,2.22,0,0,1,.78,1.64H745.5a1.21,1.21,0,0,0-.44-.9,2,2,0,0,0-2.12-.06.82.82,0,0,0-.37.71.77.77,0,0,0,.22.58,1.69,1.69,0,0,0,.58.37,8.83,8.83,0,0,0,1,.3,11.4,11.4,0,0,1,1.25.41,2.06,2.06,0,0,1,.82.61,1.61,1.61,0,0,1,.36,1.05,1.85,1.85,0,0,1-.32,1,2.15,2.15,0,0,1-.92.74,3.33,3.33,0,0,1-1.36.26A3.78,3.78,0,0,1,742.72,155Z"/><path d="M749.14,155a2.32,2.32,0,0,1-1-.78,2.07,2.07,0,0,1-.42-1.15h1.22a1.26,1.26,0,0,0,.5.87,1.9,1.9,0,0,0,1.18.34,1.69,1.69,0,0,0,1.07-.3.9.9,0,0,0,.39-.75.76.76,0,0,0-.42-.7,5.8,5.8,0,0,0-1.29-.45,7.47,7.47,0,0,1-1.29-.42,2.34,2.34,0,0,1-.86-.63,1.8,1.8,0,0,1,0-2.12,2.23,2.23,0,0,1,.92-.72,3.22,3.22,0,0,1,1.37-.27,2.92,2.92,0,0,1,1.91.6,2.22,2.22,0,0,1,.78,1.64H752a1.27,1.27,0,0,0-.45-.9,1.74,1.74,0,0,0-1.1-.33,1.77,1.77,0,0,0-1,.27.82.82,0,0,0-.37.71.77.77,0,0,0,.22.58,1.69,1.69,0,0,0,.58.37c.23.09.55.19,1,.3a11.4,11.4,0,0,1,1.25.41,2.39,2.39,0,0,1,.83.61,1.55,1.55,0,0,1,.35,1,1.7,1.7,0,0,1-.32,1,2.15,2.15,0,0,1-.92.74,3.33,3.33,0,0,1-1.36.26A3.73,3.73,0,0,1,749.14,155Z"/><path d="M761,152.09h-5.69a2.23,2.23,0,0,0,2.31,2.23,2.18,2.18,0,0,0,1.29-.36,1.82,1.82,0,0,0,.72-1h1.27a3,3,0,0,1-1.14,1.67,3.48,3.48,0,0,1-2.14.64,3.58,3.58,0,0,1-1.81-.45,3.32,3.32,0,0,1-1.25-1.3,3.86,3.86,0,0,1-.46-1.94,4.21,4.21,0,0,1,.44-1.94,3.12,3.12,0,0,1,1.24-1.28,3.69,3.69,0,0,1,1.84-.45,3.54,3.54,0,0,1,1.8.45,3,3,0,0,1,1.2,1.21,3.56,3.56,0,0,1,.42,1.75A6.62,6.62,0,0,1,761,152.09ZM759.49,150a2.06,2.06,0,0,0-.81-.74,2.53,2.53,0,0,0-1.14-.25,2.22,2.22,0,0,0-1.53.57,2.31,2.31,0,0,0-.72,1.58h4.5A2.14,2.14,0,0,0,759.49,150Z"/><path d="M767.79,148.74a3,3,0,0,1,.8,2.27v4.2h-1.17v-4a2.33,2.33,0,0,0-.53-1.64,2.18,2.18,0,0,0-2.94,0,2.42,2.42,0,0,0-.56,1.71v3.94h-1.18v-7.13h1.18v1a2.36,2.36,0,0,1,1-.85,3,3,0,0,1,1.33-.3A2.9,2.9,0,0,1,767.79,148.74Z"/><path d="M774.72,148.37a2.67,2.67,0,0,1,1,1v-1.3H777v7.28a3.65,3.65,0,0,1-.41,1.74,3.09,3.09,0,0,1-1.19,1.19,3.74,3.74,0,0,1-1.8.43,3.9,3.9,0,0,1-2.34-.67,2.56,2.56,0,0,1-1.11-1.8h1.17a1.83,1.83,0,0,0,.81,1,2.55,2.55,0,0,0,1.47.4,2.18,2.18,0,0,0,1.59-.61,2.32,2.32,0,0,0,.62-1.72v-1.49a3,3,0,0,1-1,1,3.15,3.15,0,0,1-1.62.41,3.25,3.25,0,0,1-2.93-1.78,4.32,4.32,0,0,1,0-3.84,3.11,3.11,0,0,1,1.21-1.28,3.46,3.46,0,0,1,1.72-.46A3.12,3.12,0,0,1,774.72,148.37Zm.71,1.86a2.36,2.36,0,0,0-.88-.92,2.48,2.48,0,0,0-2.42,0,2.24,2.24,0,0,0-.87.91,2.87,2.87,0,0,0-.33,1.41,2.94,2.94,0,0,0,.33,1.42,2.27,2.27,0,0,0,.87.92,2.24,2.24,0,0,0,1.21.32,2.34,2.34,0,0,0,2.09-1.24,2.87,2.87,0,0,0,.33-1.41A2.83,2.83,0,0,0,775.43,150.23Z"/><path d="M785.05,152.09h-5.69a2.23,2.23,0,0,0,2.31,2.23A2.15,2.15,0,0,0,783,154a1.82,1.82,0,0,0,.72-1H785a3,3,0,0,1-1.15,1.67,3.45,3.45,0,0,1-2.13.64,3.58,3.58,0,0,1-1.81-.45,3.35,3.35,0,0,1-1.26-1.3,4.47,4.47,0,0,1,0-3.88,3.12,3.12,0,0,1,1.24-1.28,3.69,3.69,0,0,1,1.84-.45,3.5,3.5,0,0,1,1.79.45,3.06,3.06,0,0,1,1.21,1.21,3.56,3.56,0,0,1,.42,1.75A5.83,5.83,0,0,1,785.05,152.09ZM783.57,150a2.06,2.06,0,0,0-.81-.74,2.53,2.53,0,0,0-1.14-.25,2.22,2.22,0,0,0-1.53.57,2.31,2.31,0,0,0-.72,1.58h4.5A2.14,2.14,0,0,0,783.57,150Z"/><path d="M788.36,148.29a2.68,2.68,0,0,1,1.41-.34v1.22h-.31c-1.33,0-2,.72-2,2.16v3.88h-1.18v-7.13h1.18v1.16A2.23,2.23,0,0,1,788.36,148.29Z"/><path d="M791.82,155a2.32,2.32,0,0,1-1-.78,2,2,0,0,1-.42-1.15h1.22a1.17,1.17,0,0,0,.5.87,1.9,1.9,0,0,0,1.18.34,1.76,1.76,0,0,0,1.07-.3.9.9,0,0,0,.39-.75.76.76,0,0,0-.42-.7,5.8,5.8,0,0,0-1.29-.45,7.47,7.47,0,0,1-1.29-.42,2.34,2.34,0,0,1-.86-.63,1.8,1.8,0,0,1,0-2.12,2.17,2.17,0,0,1,.92-.72,3.22,3.22,0,0,1,1.37-.27,2.92,2.92,0,0,1,1.91.6,2.22,2.22,0,0,1,.78,1.64h-1.19a1.21,1.21,0,0,0-.44-.9,2,2,0,0,0-2.12-.06.82.82,0,0,0-.37.71.77.77,0,0,0,.22.58,1.69,1.69,0,0,0,.58.37,8.83,8.83,0,0,0,1,.3,11.4,11.4,0,0,1,1.25.41,2.39,2.39,0,0,1,.83.61,1.66,1.66,0,0,1,.35,1,1.85,1.85,0,0,1-.32,1,2.29,2.29,0,0,1-.92.74,3.33,3.33,0,0,1-1.36.26A3.66,3.66,0,0,1,791.82,155Z"/></g></g></svg>