<svg xmlns="http://www.w3.org/2000/svg" viewBox="0 0 1252.1 111.8"><defs><style>.cls-1{fill:#fff;}</style></defs><g id="图层_2" data-name="图层 2"><g id="图层_1-2" data-name="图层 1"><rect class="cls-1" width="1252.1" height="111.8"/><path d="M105.6,29.43a6.76,6.76,0,0,0-2.77-2.9,8.41,8.41,0,0,0-4.11-1,8.92,8.92,0,0,0-4.55,1.15A8.1,8.1,0,0,0,91,30a10.26,10.26,0,0,0-1.12,4.89A10.32,10.32,0,0,0,91,39.74,8,8,0,0,0,94.17,43a8.92,8.92,0,0,0,4.55,1.15,8.06,8.06,0,0,0,5.59-1.92A8.43,8.43,0,0,0,106.94,37H97.28V33.65h14.17V37A12.7,12.7,0,0,1,98.72,48a13.3,13.3,0,0,1-6.62-1.68,12.58,12.58,0,0,1-4.76-4.68,13.16,13.16,0,0,1-1.75-6.77,13.11,13.11,0,0,1,1.75-6.77,12.56,12.56,0,0,1,4.78-4.68,14,14,0,0,1,13.91.33,11.48,11.48,0,0,1,4.64,5.71Z"/><path d="M118.18,46.77a9.5,9.5,0,0,1-3.66-3.7,11.15,11.15,0,0,1-1.33-5.53A11,11,0,0,1,114.56,32a9.54,9.54,0,0,1,3.73-3.7,11.51,11.51,0,0,1,10.59,0,9.48,9.48,0,0,1,3.73,3.7A10.92,10.92,0,0,1,134,37.54a10.77,10.77,0,0,1-1.4,5.51,9.85,9.85,0,0,1-3.83,3.72,11,11,0,0,1-5.35,1.31A10.43,10.43,0,0,1,118.18,46.77Zm8.27-3.13a6,6,0,0,0,2.32-2.33,7.48,7.48,0,0,0,.88-3.77,7.66,7.66,0,0,0-.85-3.76,5.82,5.82,0,0,0-2.25-2.31,6.17,6.17,0,0,0-3-.78,6,6,0,0,0-3,.78,5.61,5.61,0,0,0-2.21,2.31,8,8,0,0,0-.81,3.76,7.18,7.18,0,0,0,1.68,5.09,5.6,5.6,0,0,0,4.24,1.79A6.24,6.24,0,0,0,126.45,43.64Z"/><path d="M137,32a9.42,9.42,0,0,1,3.48-3.68A9.32,9.32,0,0,1,145.34,27a8.91,8.91,0,0,1,4.2.94,8.64,8.64,0,0,1,2.87,2.35v-3h4.25V47.75h-4.25v-3a8.38,8.38,0,0,1-2.93,2.4,9.45,9.45,0,0,1-9-.39A9.56,9.56,0,0,1,137,43a11.65,11.65,0,0,1-1.28-5.5A11.32,11.32,0,0,1,137,32Zm14.54,1.85a6.1,6.1,0,0,0-2.28-2.36,5.87,5.87,0,0,0-3-.82,6,6,0,0,0-5.31,3.13,7.26,7.26,0,0,0-.87,3.64,7.58,7.58,0,0,0,.87,3.7,6.18,6.18,0,0,0,2.29,2.43,6,6,0,0,0,6,0,6.11,6.11,0,0,0,2.28-2.39,7.5,7.5,0,0,0,.87-3.68A7.41,7.41,0,0,0,151.54,33.87Z"/><path d="M165.4,20.37V47.75h-4.22V20.37Z"/><path d="M650.44,18.83a.74.74,0,0,1-.23-.57.79.79,0,0,1,.8-.8.71.71,0,0,1,.55.23.77.77,0,0,1,.23.57.74.74,0,0,1-.23.57.72.72,0,0,1-.55.24A.78.78,0,0,1,650.44,18.83Zm1.14,1.4v7.12H650.4V20.23Z"/><path d="M658.36,18.29v1h-3.94v3.06h3.2v1h-3.2v4.08h-1.19V18.29Z"/><path d="M660.61,17.73v9.62h-1.19V17.73Z"/><path d="M668.39,20.23,664.1,30.7h-1.22l1.4-3.43-2.87-7h1.31L665,26l2.21-5.77Z"/><path d="M674.5,22.82a3.29,3.29,0,0,1-2.36.75h-1.75v3.78h-1.18V18.29h2.93a3.32,3.32,0,0,1,2.33.74,2.49,2.49,0,0,1,.8,1.91A2.53,2.53,0,0,1,674.5,22.82Zm-.91-.66a1.57,1.57,0,0,0,.47-1.22q0-1.68-1.92-1.68h-1.75v3.33h1.75A2.08,2.08,0,0,0,673.59,22.16Z"/><path d="M677.56,17.73v9.62h-1.18V17.73Z"/><path d="M685.53,20.23v7.12h-1.19V26.3a2.35,2.35,0,0,1-.94.85,3,3,0,0,1-1.33.3,3.22,3.22,0,0,1-1.5-.34,2.46,2.46,0,0,1-1-1,3.37,3.37,0,0,1-.39-1.68V20.23h1.17v4a2.26,2.26,0,0,0,.54,1.62,1.88,1.88,0,0,0,1.45.57,2,2,0,0,0,1.5-.59,2.43,2.43,0,0,0,.54-1.7V20.23Z"/><path d="M688.22,27.19a2.5,2.5,0,0,1-1-.78,2.15,2.15,0,0,1-.42-1.15H688a1.2,1.2,0,0,0,.5.87,1.91,1.91,0,0,0,1.17.34,1.72,1.72,0,0,0,1.07-.3.92.92,0,0,0,.39-.76.74.74,0,0,0-.42-.69,5.83,5.83,0,0,0-1.28-.45,10.56,10.56,0,0,1-1.3-.42,2.45,2.45,0,0,1-.86-.64,1.83,1.83,0,0,1,0-2.11,2.13,2.13,0,0,1,.93-.72,3.24,3.24,0,0,1,1.36-.27,2.89,2.89,0,0,1,1.91.6,2.12,2.12,0,0,1,.78,1.63H691a1.23,1.23,0,0,0-.45-.89,1.65,1.65,0,0,0-1.1-.34,1.7,1.7,0,0,0-1,.27.85.85,0,0,0-.38.72.82.82,0,0,0,.23.58,1.64,1.64,0,0,0,.57.36c.23.09.55.19,1,.31a9.61,9.61,0,0,1,1.24.4,2.27,2.27,0,0,1,.83.61,1.62,1.62,0,0,1,.36,1.05,1.82,1.82,0,0,1-.33,1.06,2.19,2.19,0,0,1-.92.73,3.19,3.19,0,0,1-1.35.27A3.78,3.78,0,0,1,688.22,27.19Z"/><path d="M703.15,24.23h-5.69a2.25,2.25,0,0,0,2.31,2.24,2.15,2.15,0,0,0,1.28-.36,1.89,1.89,0,0,0,.73-1h1.27a3,3,0,0,1-1.14,1.67,3.49,3.49,0,0,1-2.14.65A3.63,3.63,0,0,1,698,27a3.17,3.17,0,0,1-1.25-1.29,4,4,0,0,1-.46-1.95,4.1,4.1,0,0,1,.44-1.93,3.12,3.12,0,0,1,1.24-1.28,3.72,3.72,0,0,1,1.84-.45,3.64,3.64,0,0,1,1.8.44,3.06,3.06,0,0,1,1.2,1.22,3.56,3.56,0,0,1,.42,1.74A6,6,0,0,1,703.15,24.23Zm-1.48-2.13a2,2,0,0,0-.81-.74,2.51,2.51,0,0,0-1.14-.25,2.22,2.22,0,0,0-1.53.57,2.33,2.33,0,0,0-.72,1.59H702A2.21,2.21,0,0,0,701.67,22.1Z"/><path d="M708.11,27.35l-1.69-2.65-1.63,2.65h-1.23l2.3-3.54-2.3-3.58h1.34l1.69,2.63,1.61-2.63h1.23l-2.29,3.52,2.31,3.6Z"/><path d="M712.48,20.52a3.17,3.17,0,0,1,1.62-.41,3.35,3.35,0,0,1,1.72.45A3.27,3.27,0,0,1,717,21.84a4.06,4.06,0,0,1,.44,1.92,4.19,4.19,0,0,1-.44,1.93,3.27,3.27,0,0,1-2.94,1.78,3.16,3.16,0,0,1-1.61-.41,3,3,0,0,1-1-1v4.69h-1.19V20.23h1.19v1.31A2.76,2.76,0,0,1,712.48,20.52ZM716,22.36a2.27,2.27,0,0,0-.88-.91,2.43,2.43,0,0,0-1.22-.31,2.39,2.39,0,0,0-1.2.31,2.33,2.33,0,0,0-.88.93,2.75,2.75,0,0,0-.33,1.39,2.84,2.84,0,0,0,.33,1.42,2.3,2.3,0,0,0,.88.92,2.4,2.4,0,0,0,1.2.32,2.44,2.44,0,0,0,1.22-.32,2.3,2.3,0,0,0,.88-.92,3.08,3.08,0,0,0,.32-1.43A3,3,0,0,0,716,22.36Z"/><path d="M718.68,21.84a3.25,3.25,0,0,1,1.21-1.28,3.37,3.37,0,0,1,1.72-.45,3.15,3.15,0,0,1,1.63.4,2.73,2.73,0,0,1,1,1v-1.3h1.19v7.12h-1.19V26a2.91,2.91,0,0,1-1,1,3.14,3.14,0,0,1-1.62.41,3.29,3.29,0,0,1-1.72-.47,3.24,3.24,0,0,1-1.2-1.31,4.07,4.07,0,0,1-.45-1.93A4,4,0,0,1,718.68,21.84Zm5.26.53a2.43,2.43,0,0,0-3.3-.92,2.25,2.25,0,0,0-.87.91,2.84,2.84,0,0,0-.33,1.4,3,3,0,0,0,.33,1.43,2.28,2.28,0,0,0,.87.92,2.45,2.45,0,0,0,2.42,0,2.3,2.3,0,0,0,.88-.92,3,3,0,0,0,.33-1.42A2.87,2.87,0,0,0,723.94,22.37Z"/><path d="M732.68,20.88a3.06,3.06,0,0,1,.8,2.27v4.2h-1.17v-4a2.3,2.3,0,0,0-.53-1.63,1.91,1.91,0,0,0-1.46-.57,2,2,0,0,0-1.49.59,2.43,2.43,0,0,0-.55,1.7v3.94H727.1V20.23h1.18v1a2.4,2.4,0,0,1,1-.85,3.05,3.05,0,0,1,1.33-.29A2.91,2.91,0,0,1,732.68,20.88Z"/><path d="M735.06,21.84a3.25,3.25,0,0,1,1.21-1.28,3.42,3.42,0,0,1,1.74-.45,3.25,3.25,0,0,1,1.54.38,2.84,2.84,0,0,1,1.1,1V17.73h1.19v9.62h-1.19V26a2.9,2.9,0,0,1-1,1,3.14,3.14,0,0,1-1.62.41,3.24,3.24,0,0,1-2.93-1.78,4.07,4.07,0,0,1-.45-1.93A4,4,0,0,1,735.06,21.84Zm5.26.53a2.36,2.36,0,0,0-.88-.92,2.4,2.4,0,0,0-1.21-.31,2.37,2.37,0,0,0-1.21.31,2.19,2.19,0,0,0-.87.91,2.84,2.84,0,0,0-.33,1.4,3,3,0,0,0,.33,1.43,2.21,2.21,0,0,0,.87.92,2.38,2.38,0,0,0,1.21.32,2.4,2.4,0,0,0,1.21-.32,2.3,2.3,0,0,0,.88-.92,3,3,0,0,0,.33-1.42A2.87,2.87,0,0,0,740.32,22.37Z"/><path d="M748,21.2v4.2a1,1,0,0,0,.22.73,1.06,1.06,0,0,0,.77.22h.87v1h-1.07a2.08,2.08,0,0,1-1.48-.46,1.94,1.94,0,0,1-.49-1.49V21.2h-.93v-1h.93v-1.8H748v1.8h1.86v1Z"/><path d="M756,20.44a2.47,2.47,0,0,1,1,1,3.59,3.59,0,0,1,.37,1.68v4.2h-1.17v-4a2.26,2.26,0,0,0-.54-1.63,1.88,1.88,0,0,0-1.45-.57,2,2,0,0,0-1.49.59,2.38,2.38,0,0,0-.55,1.7v3.94H751V17.73h1.18v3.51a2.3,2.3,0,0,1,1-.85,3.25,3.25,0,0,1,1.38-.29A3.08,3.08,0,0,1,756,20.44Z"/><path d="M765.37,24.23h-5.69A2.25,2.25,0,0,0,762,26.47a2.17,2.17,0,0,0,1.28-.36,1.87,1.87,0,0,0,.72-1h1.28a3,3,0,0,1-1.15,1.67,3.44,3.44,0,0,1-2.13.65,3.63,3.63,0,0,1-1.81-.46,3.2,3.2,0,0,1-1.26-1.29,4.45,4.45,0,0,1,0-3.88,3.12,3.12,0,0,1,1.24-1.28,3.72,3.72,0,0,1,1.84-.45,3.64,3.64,0,0,1,1.8.44,3.06,3.06,0,0,1,1.2,1.22,3.56,3.56,0,0,1,.42,1.74A6,6,0,0,1,765.37,24.23Zm-1.48-2.13a2,2,0,0,0-.81-.74,2.54,2.54,0,0,0-1.14-.25,2.2,2.2,0,0,0-1.53.57,2.33,2.33,0,0,0-.72,1.59h4.5A2.21,2.21,0,0,0,763.89,22.1Z"/><path d="M770.77,27.19a2.5,2.5,0,0,1-1-.78,2.15,2.15,0,0,1-.42-1.15h1.22a1.24,1.24,0,0,0,.51.87,1.91,1.91,0,0,0,1.17.34,1.72,1.72,0,0,0,1.07-.3.92.92,0,0,0,.39-.76.74.74,0,0,0-.42-.69,6,6,0,0,0-1.28-.45,10.56,10.56,0,0,1-1.3-.42,2.45,2.45,0,0,1-.86-.64,1.7,1.7,0,0,1-.35-1.11,1.63,1.63,0,0,1,.32-1,2.15,2.15,0,0,1,.92-.72,3.32,3.32,0,0,1,1.37-.27,2.91,2.91,0,0,1,1.91.6,2.12,2.12,0,0,1,.78,1.63h-1.18a1.23,1.23,0,0,0-.45-.89,1.65,1.65,0,0,0-1.1-.34,1.7,1.7,0,0,0-1,.27.85.85,0,0,0-.38.72.78.78,0,0,0,.23.58,1.64,1.64,0,0,0,.57.36c.23.09.55.19.95.31a9.32,9.32,0,0,1,1.25.4,2.27,2.27,0,0,1,.83.61,1.62,1.62,0,0,1,.36,1.05,1.82,1.82,0,0,1-.33,1.06,2.19,2.19,0,0,1-.92.73,3.19,3.19,0,0,1-1.35.27A3.78,3.78,0,0,1,770.77,27.19Z"/><path d="M782.6,24.23h-5.7a2.35,2.35,0,0,0,.72,1.64,2.29,2.29,0,0,0,1.6.6,2.19,2.19,0,0,0,1.28-.36,1.92,1.92,0,0,0,.72-1h1.27a3,3,0,0,1-1.14,1.67,3.44,3.44,0,0,1-2.13.65A3.67,3.67,0,0,1,777.4,27a3.17,3.17,0,0,1-1.25-1.29,4,4,0,0,1-.46-1.95,4.1,4.1,0,0,1,.44-1.93,3.09,3.09,0,0,1,1.25-1.28,3.66,3.66,0,0,1,1.84-.45,3.62,3.62,0,0,1,1.79.44,3.06,3.06,0,0,1,1.2,1.22,3.56,3.56,0,0,1,.42,1.74Q782.63,23.85,782.6,24.23Zm-1.49-2.13a1.93,1.93,0,0,0-.81-.74,2.51,2.51,0,0,0-1.14-.25,2.19,2.19,0,0,0-1.52.57,2.33,2.33,0,0,0-.72,1.59h4.49A2.21,2.21,0,0,0,781.11,22.1Z"/><path d="M785.9,20.43a2.83,2.83,0,0,1,1.41-.33v1.22H787c-1.32,0-2,.72-2,2.16v3.87h-1.18V20.23H785v1.15A2.4,2.4,0,0,1,785.9,20.43Z"/><path d="M791,26.26l2.21-6h1.26l-2.8,7.12h-1.37l-2.8-7.12h1.28Z"/><path d="M795.28,18.83a.78.78,0,0,1-.23-.57.81.81,0,0,1,.23-.57.78.78,0,0,1,.58-.23.73.73,0,0,1,.55.23.81.81,0,0,1,.23.57.78.78,0,0,1-.23.57.74.74,0,0,1-.55.24A.78.78,0,0,1,795.28,18.83Zm1.15,1.4v7.12h-1.19V20.23Z"/><path d="M798.08,21.84a3.16,3.16,0,0,1,1.23-1.28,3.54,3.54,0,0,1,1.8-.45,3.46,3.46,0,0,1,2.16.64,3,3,0,0,1,1.13,1.76h-1.28a1.77,1.77,0,0,0-.71-1,2.17,2.17,0,0,0-1.3-.38,2.08,2.08,0,0,0-1.64.7,2.81,2.81,0,0,0-.62,2,2.86,2.86,0,0,0,.62,2,2.09,2.09,0,0,0,1.64.71,2.24,2.24,0,0,0,1.3-.37,1.86,1.86,0,0,0,.71-1h1.28a3.15,3.15,0,0,1-1.15,1.75,3.39,3.39,0,0,1-2.14.66,3.54,3.54,0,0,1-1.8-.46,3.06,3.06,0,0,1-1.23-1.29,4.5,4.5,0,0,1,0-3.88Z"/><path d="M812.07,24.23h-5.7a2.35,2.35,0,0,0,.72,1.64,2.29,2.29,0,0,0,1.6.6,2.17,2.17,0,0,0,1.28-.36,1.92,1.92,0,0,0,.72-1H812a3,3,0,0,1-1.14,1.67,3.44,3.44,0,0,1-2.13.65,3.67,3.67,0,0,1-1.82-.46,3.17,3.17,0,0,1-1.25-1.29,4.36,4.36,0,0,1,0-3.88,3,3,0,0,1,1.24-1.28,3.66,3.66,0,0,1,1.84-.45,3.62,3.62,0,0,1,1.79.44,3.06,3.06,0,0,1,1.2,1.22,3.56,3.56,0,0,1,.43,1.74C812.11,23.74,812.09,24,812.07,24.23Zm-1.49-2.13a2,2,0,0,0-.81-.74,2.51,2.51,0,0,0-1.14-.25,2.19,2.19,0,0,0-1.52.57,2.38,2.38,0,0,0-.73,1.59h4.5A2.21,2.21,0,0,0,810.58,22.1Z"/><path d="M817.59,17.73v9.62h-1.18V17.73Z"/><path d="M819.28,18.83a.78.78,0,0,1-.23-.57.81.81,0,0,1,.23-.57.77.77,0,0,1,.57-.23.75.75,0,0,1,.56.23.8.8,0,0,1,.22.57.77.77,0,0,1-.22.57.76.76,0,0,1-.56.24A.78.78,0,0,1,819.28,18.83Zm1.15,1.4v7.12h-1.19V20.23Z"/><path d="M827.65,20.88a3,3,0,0,1,.81,2.27v4.2h-1.17v-4a2.3,2.3,0,0,0-.53-1.63,1.91,1.91,0,0,0-1.46-.57,2,2,0,0,0-1.49.59,2.38,2.38,0,0,0-.55,1.7v3.94h-1.18V20.23h1.18v1a2.37,2.37,0,0,1,1-.85,3.13,3.13,0,0,1,1.34-.29A2.89,2.89,0,0,1,827.65,20.88Z"/><path d="M836.49,24.23H830.8a2.25,2.25,0,0,0,2.31,2.24,2.15,2.15,0,0,0,1.28-.36,1.89,1.89,0,0,0,.73-1h1.27a3,3,0,0,1-1.14,1.67,3.49,3.49,0,0,1-2.14.65A3.63,3.63,0,0,1,831.3,27,3.26,3.26,0,0,1,830,25.72a4.45,4.45,0,0,1,0-3.88,3.12,3.12,0,0,1,1.24-1.28,3.72,3.72,0,0,1,1.84-.45,3.64,3.64,0,0,1,1.8.44,3.06,3.06,0,0,1,1.2,1.22,3.56,3.56,0,0,1,.42,1.74A6,6,0,0,1,836.49,24.23ZM835,22.1a2,2,0,0,0-.81-.74,2.51,2.51,0,0,0-1.14-.25,2.2,2.2,0,0,0-1.53.57,2.33,2.33,0,0,0-.72,1.59h4.5A2.21,2.21,0,0,0,835,22.1Z"/><path d="M843.08,20.51a3.14,3.14,0,0,1,1.6-.4,3.36,3.36,0,0,1,1.73.45,3.25,3.25,0,0,1,1.21,1.28,3.94,3.94,0,0,1,.44,1.92,4.07,4.07,0,0,1-.44,1.93A3.26,3.26,0,0,1,846.41,27a3.3,3.3,0,0,1-1.73.47,3.2,3.2,0,0,1-1.62-.41,2.76,2.76,0,0,1-1-1v1.31h-1.19V17.73H842v3.82A2.86,2.86,0,0,1,843.08,20.51Zm3.45,1.85a2.27,2.27,0,0,0-.88-.91,2.36,2.36,0,0,0-3.3.93,2.86,2.86,0,0,0-.33,1.39,3,3,0,0,0,.33,1.42,2.37,2.37,0,0,0,.88.92,2.45,2.45,0,0,0,2.42,0,2.3,2.3,0,0,0,.88-.92,3,3,0,0,0,.32-1.43A2.84,2.84,0,0,0,846.53,22.36Z"/><path d="M855.39,20.23,851.11,30.7h-1.23l1.41-3.43-2.88-7h1.32L852,26l2.21-5.77Z"/><path d="M859.32,21.84a3.27,3.27,0,0,1,1.22-1.28,3.35,3.35,0,0,1,1.72-.45,3.14,3.14,0,0,1,1.62.4,2.66,2.66,0,0,1,1,1v-1.3h1.2v7.12h-1.2V26a2.76,2.76,0,0,1-1,1,3.13,3.13,0,0,1-1.61.41,3.24,3.24,0,0,1-1.72-.47,3.33,3.33,0,0,1-1.21-1.31,4.19,4.19,0,0,1-.44-1.93A4.06,4.06,0,0,1,859.32,21.84Zm5.27.53a2.36,2.36,0,0,0-.88-.92,2.54,2.54,0,0,0-2.43,0,2.31,2.31,0,0,0-.87.91,3,3,0,0,0-.32,1.4,3.08,3.08,0,0,0,.32,1.43,2.34,2.34,0,0,0,.87.92,2.47,2.47,0,0,0,2.43,0,2.3,2.3,0,0,0,.88-.92,3.06,3.06,0,0,0,.32-1.42A3,3,0,0,0,864.59,22.37Z"/><path d="M867.74,21.84A3.27,3.27,0,0,1,869,20.56a3.39,3.39,0,0,1,1.74-.45,3.25,3.25,0,0,1,1.54.38,2.74,2.74,0,0,1,1.09,1V17.73h1.2v9.62h-1.2V26a2.76,2.76,0,0,1-1,1,3.11,3.11,0,0,1-1.61.41,3.27,3.27,0,0,1-2.94-1.78,4.19,4.19,0,0,1-.44-1.93A4.06,4.06,0,0,1,867.74,21.84Zm5.27.53a2.36,2.36,0,0,0-.88-.92,2.4,2.4,0,0,0-1.21-.31,2.34,2.34,0,0,0-1.21.31,2.19,2.19,0,0,0-.87.91,2.84,2.84,0,0,0-.33,1.4,3,3,0,0,0,.33,1.43,2.21,2.21,0,0,0,.87.92,2.35,2.35,0,0,0,1.21.32,2.4,2.4,0,0,0,1.21-.32,2.3,2.3,0,0,0,.88-.92,3,3,0,0,0,.32-1.42A2.87,2.87,0,0,0,873,22.37Z"/><path d="M876.17,21.84a3.25,3.25,0,0,1,1.21-1.28,3.42,3.42,0,0,1,1.74-.45,3.32,3.32,0,0,1,1.55.38,2.81,2.81,0,0,1,1.09,1V17.73H883v9.62h-1.2V26a2.83,2.83,0,0,1-1,1,3.13,3.13,0,0,1-1.61.41,3.3,3.3,0,0,1-1.73-.47,3.26,3.26,0,0,1-1.21-1.31,4.07,4.07,0,0,1-.44-1.93A3.94,3.94,0,0,1,876.17,21.84Zm5.26.53a2.34,2.34,0,0,0-.87-.92,2.43,2.43,0,0,0-1.22-.31,2.4,2.4,0,0,0-1.21.31,2.31,2.31,0,0,0-.87.91,2.84,2.84,0,0,0-.32,1.4,3,3,0,0,0,.32,1.43,2.34,2.34,0,0,0,.87.92,2.4,2.4,0,0,0,1.21.32,2.44,2.44,0,0,0,1.22-.32,2.28,2.28,0,0,0,.87-.92,3,3,0,0,0,.33-1.42A2.87,2.87,0,0,0,881.43,22.37Z"/><path d="M884.63,18.83a.78.78,0,0,1-.23-.57.81.81,0,0,1,.23-.57.77.77,0,0,1,.57-.23.75.75,0,0,1,.56.23.8.8,0,0,1,.22.57.77.77,0,0,1-.22.57.76.76,0,0,1-.56.24A.78.78,0,0,1,884.63,18.83Zm1.15,1.4v7.12h-1.19V20.23Z"/><path d="M893,20.88a3,3,0,0,1,.81,2.27v4.2h-1.17v-4a2.3,2.3,0,0,0-.53-1.63,1.91,1.91,0,0,0-1.46-.57,2,2,0,0,0-1.49.59,2.38,2.38,0,0,0-.55,1.7v3.94h-1.18V20.23h1.18v1a2.37,2.37,0,0,1,.95-.85,3.13,3.13,0,0,1,1.34-.29A2.89,2.89,0,0,1,893,20.88Z"/><path d="M899.94,20.51a2.66,2.66,0,0,1,1,1v-1.3h1.2v7.28a3.52,3.52,0,0,1-.42,1.73,3,3,0,0,1-1.19,1.19,3.58,3.58,0,0,1-1.8.43,4,4,0,0,1-2.34-.66,2.62,2.62,0,0,1-1.1-1.81h1.17a1.92,1.92,0,0,0,.8,1.05,2.69,2.69,0,0,0,1.47.39,2.19,2.19,0,0,0,1.6-.61,2.31,2.31,0,0,0,.61-1.71V26a2.8,2.8,0,0,1-1,1,3,3,0,0,1-1.61.42,3.27,3.27,0,0,1-2.94-1.78,4.19,4.19,0,0,1-.44-1.93,4.06,4.06,0,0,1,.44-1.92,3.27,3.27,0,0,1,1.22-1.28,3.35,3.35,0,0,1,1.72-.45A3.17,3.17,0,0,1,899.94,20.51Zm.71,1.86a2.36,2.36,0,0,0-.88-.92,2.41,2.41,0,0,0-1.22-.31,2.33,2.33,0,0,0-1.2.31,2.27,2.27,0,0,0-.88.91,3,3,0,0,0-.32,1.4,3.08,3.08,0,0,0,.32,1.43,2.3,2.3,0,0,0,.88.92,2.34,2.34,0,0,0,1.2.32,2.41,2.41,0,0,0,1.22-.32,2.3,2.3,0,0,0,.88-.92,3.06,3.06,0,0,0,.32-1.42A3,3,0,0,0,900.65,22.37Z"/><path d="M908.36,21.2v4.2a1,1,0,0,0,.22.73,1,1,0,0,0,.76.22h.88v1h-1.07a2.08,2.08,0,0,1-1.48-.46,1.94,1.94,0,0,1-.5-1.49V21.2h-.92v-1h.92v-1.8h1.19v1.8h1.86v1Z"/><path d="M916.27,20.44a2.36,2.36,0,0,1,1,1,3.48,3.48,0,0,1,.37,1.68v4.2h-1.17v-4a2.25,2.25,0,0,0-.53-1.63,1.88,1.88,0,0,0-1.45-.57,1.94,1.94,0,0,0-1.49.59,2.39,2.39,0,0,0-.56,1.7v3.94h-1.18V17.73h1.18v3.51a2.43,2.43,0,0,1,1-.85,3.29,3.29,0,0,1,1.39-.29A3,3,0,0,1,916.27,20.44Z"/><path d="M925.7,24.23H920a2.31,2.31,0,0,0,.73,1.64,2.25,2.25,0,0,0,1.59.6,2.17,2.17,0,0,0,1.28-.36,1.92,1.92,0,0,0,.72-1h1.27a3,3,0,0,1-1.14,1.67,3.44,3.44,0,0,1-2.13.65A3.67,3.67,0,0,1,920.5,27a3.17,3.17,0,0,1-1.25-1.29,4.07,4.07,0,0,1-.46-1.95,4,4,0,0,1,.45-1.93,3.06,3.06,0,0,1,1.24-1.28,3.69,3.69,0,0,1,1.84-.45,3.62,3.62,0,0,1,1.79.44,3.06,3.06,0,0,1,1.2,1.22,3.45,3.45,0,0,1,.43,1.74C925.74,23.74,925.72,24,925.7,24.23Zm-1.48-2.13a2,2,0,0,0-.82-.74,2.5,2.5,0,0,0-1.13-.25,2.2,2.2,0,0,0-1.53.57,2.33,2.33,0,0,0-.72,1.59h4.5A2.21,2.21,0,0,0,924.22,22.1Z"/><path d="M931.09,27.19a2.53,2.53,0,0,1-1-.78,2.07,2.07,0,0,1-.42-1.15h1.22a1.23,1.23,0,0,0,.5.87,1.94,1.94,0,0,0,1.18.34,1.72,1.72,0,0,0,1.07-.3.92.92,0,0,0,.39-.76.74.74,0,0,0-.42-.69,6.16,6.16,0,0,0-1.29-.45,9.81,9.81,0,0,1-1.29-.42,2.45,2.45,0,0,1-.86-.64,1.79,1.79,0,0,1,0-2.11,2,2,0,0,1,.92-.72,3.28,3.28,0,0,1,1.37-.27,2.91,2.91,0,0,1,1.91.6,2.18,2.18,0,0,1,.78,1.63h-1.19a1.18,1.18,0,0,0-.44-.89,1.66,1.66,0,0,0-1.1-.34,1.74,1.74,0,0,0-1,.27.84.84,0,0,0-.37.72.81.81,0,0,0,.22.58,1.78,1.78,0,0,0,.58.36c.23.09.54.19,1,.31a9.82,9.82,0,0,1,1.25.4,2.15,2.15,0,0,1,.82.61,1.57,1.57,0,0,1,.36,1.05,1.89,1.89,0,0,1-.32,1.06,2.19,2.19,0,0,1-.92.73,3.24,3.24,0,0,1-1.36.27A3.85,3.85,0,0,1,931.09,27.19Z"/><path d="M941.45,20.44a2.36,2.36,0,0,1,1,1,3.48,3.48,0,0,1,.37,1.68v4.2h-1.17v-4a2.25,2.25,0,0,0-.53-1.63,1.88,1.88,0,0,0-1.45-.57,2,2,0,0,0-1.49.59,2.39,2.39,0,0,0-.56,1.7v3.94h-1.18V17.73h1.18v3.51a2.43,2.43,0,0,1,1-.85A3.32,3.32,0,0,1,940,20.1,3,3,0,0,1,941.45,20.44Z"/><path d="M944.42,21.84a3.25,3.25,0,0,1,1.21-1.28,3.38,3.38,0,0,1,1.73-.45,3.14,3.14,0,0,1,1.62.4,2.73,2.73,0,0,1,1,1v-1.3h1.19v7.12H950V26a2.91,2.91,0,0,1-1,1,3.14,3.14,0,0,1-1.62.41,3.24,3.24,0,0,1-2.92-1.78,4.07,4.07,0,0,1-.44-1.93A3.94,3.94,0,0,1,944.42,21.84Zm5.26.53a2.34,2.34,0,0,0-.87-.92,2.43,2.43,0,0,0-1.22-.31,2.4,2.4,0,0,0-1.21.31,2.31,2.31,0,0,0-.87.91,2.84,2.84,0,0,0-.32,1.4,3,3,0,0,0,.32,1.43,2.34,2.34,0,0,0,.87.92,2.4,2.4,0,0,0,1.21.32,2.44,2.44,0,0,0,1.22-.32,2.28,2.28,0,0,0,.87-.92,3,3,0,0,0,.33-1.42A2.87,2.87,0,0,0,949.68,22.37Z"/><path d="M954.92,20.43a2.78,2.78,0,0,1,1.41-.33v1.22H956q-2,0-2,2.16v3.87h-1.19V20.23H954v1.15A2.26,2.26,0,0,1,954.92,20.43Z"/><path d="M963.79,24.23h-5.7a2.35,2.35,0,0,0,.72,1.64,2.29,2.29,0,0,0,1.6.6,2.17,2.17,0,0,0,1.28-.36,1.92,1.92,0,0,0,.72-1h1.27a3,3,0,0,1-1.14,1.67,3.44,3.44,0,0,1-2.13.65,3.67,3.67,0,0,1-1.82-.46,3.17,3.17,0,0,1-1.25-1.29,4.07,4.07,0,0,1-.46-1.95,4,4,0,0,1,.45-1.93,3.06,3.06,0,0,1,1.24-1.28,3.66,3.66,0,0,1,1.84-.45,3.62,3.62,0,0,1,1.79.44,3.06,3.06,0,0,1,1.2,1.22,3.45,3.45,0,0,1,.43,1.74C963.83,23.74,963.81,24,963.79,24.23Zm-1.48-2.13a2,2,0,0,0-.82-.74,2.5,2.5,0,0,0-1.13-.25,2.2,2.2,0,0,0-1.53.57,2.33,2.33,0,0,0-.72,1.59h4.49A2.31,2.31,0,0,0,962.31,22.1Z"/><path d="M965,21.84a3.27,3.27,0,0,1,1.22-1.28,3.36,3.36,0,0,1,1.73-.45,3.29,3.29,0,0,1,1.55.38,2.74,2.74,0,0,1,1.09,1V17.73h1.2v9.62h-1.2V26a2.76,2.76,0,0,1-1,1,3.11,3.11,0,0,1-1.61.41A3.27,3.27,0,0,1,965,25.69a4.19,4.19,0,0,1-.44-1.93A4.06,4.06,0,0,1,965,21.84Zm5.27.53a2.36,2.36,0,0,0-.88-.92,2.4,2.4,0,0,0-1.21-.31,2.34,2.34,0,0,0-1.21.31,2.19,2.19,0,0,0-.87.91,2.84,2.84,0,0,0-.33,1.4,3,3,0,0,0,.33,1.43,2.21,2.21,0,0,0,.87.92,2.35,2.35,0,0,0,1.21.32,2.4,2.4,0,0,0,1.21-.32,2.3,2.3,0,0,0,.88-.92,3.06,3.06,0,0,0,.32-1.42A3,3,0,0,0,970.29,22.37Z"/><path d="M979.45,21.2H978v6.15h-1.18V21.2h-.93v-1h.93v-.51a2.24,2.24,0,0,1,.61-1.75,2.92,2.92,0,0,1,2-.55v1a1.57,1.57,0,0,0-1.1.3,1.33,1.33,0,0,0-.32,1v.51h1.49Z"/><path d="M981.65,17.73v9.62h-1.18V17.73Z"/><path d="M983.34,18.83a.74.74,0,0,1-.23-.57.79.79,0,0,1,.8-.8.71.71,0,0,1,.55.23.77.77,0,0,1,.23.57.74.74,0,0,1-.23.57.72.72,0,0,1-.55.24A.78.78,0,0,1,983.34,18.83Zm1.14,1.4v7.12H983.3V20.23Z"/><path d="M990.69,20.51a2.66,2.66,0,0,1,1,1v-1.3h1.2v7.28a3.52,3.52,0,0,1-.42,1.73,2.9,2.9,0,0,1-1.19,1.19,3.58,3.58,0,0,1-1.8.43,4,4,0,0,1-2.34-.66,2.62,2.62,0,0,1-1.1-1.81h1.17a1.92,1.92,0,0,0,.8,1.05,2.69,2.69,0,0,0,1.47.39,2.17,2.17,0,0,0,1.6-.61,2.31,2.31,0,0,0,.61-1.71V26a2.8,2.8,0,0,1-1,1,3,3,0,0,1-1.61.42,3.27,3.27,0,0,1-2.94-1.78,4.19,4.19,0,0,1-.44-1.93,4.06,4.06,0,0,1,.44-1.92,3.27,3.27,0,0,1,1.22-1.28,3.37,3.37,0,0,1,1.72-.45A3.14,3.14,0,0,1,990.69,20.51Zm.71,1.86a2.36,2.36,0,0,0-.88-.92,2.4,2.4,0,0,0-1.21-.31,2.34,2.34,0,0,0-1.21.31,2.19,2.19,0,0,0-.87.91,2.84,2.84,0,0,0-.33,1.4,3,3,0,0,0,.33,1.43,2.21,2.21,0,0,0,.87.92,2.35,2.35,0,0,0,1.21.32,2.4,2.4,0,0,0,1.21-.32,2.3,2.3,0,0,0,.88-.92,3,3,0,0,0,.32-1.42A2.87,2.87,0,0,0,991.4,22.37Z"/><path d="M999.55,20.44a2.47,2.47,0,0,1,1,1,3.48,3.48,0,0,1,.37,1.68v4.2h-1.17v-4a2.3,2.3,0,0,0-.53-1.63,1.91,1.91,0,0,0-1.46-.57,2,2,0,0,0-1.49.59,2.43,2.43,0,0,0-.55,1.7v3.94h-1.18V17.73h1.18v3.51a2.36,2.36,0,0,1,1-.85,3.25,3.25,0,0,1,1.38-.29A3.05,3.05,0,0,1,999.55,20.44Z"/><path d="M1004,21.2v4.2a1,1,0,0,0,.22.73,1.06,1.06,0,0,0,.77.22h.87v1h-1.07a2.08,2.08,0,0,1-1.48-.46,1.94,1.94,0,0,1-.5-1.49V21.2h-.92v-1h.92v-1.8H1004v1.8h1.86v1Z"/><path d="M1011,27.19a2.53,2.53,0,0,1-1-.78,2.07,2.07,0,0,1-.42-1.15h1.22a1.23,1.23,0,0,0,.5.87,1.94,1.94,0,0,0,1.18.34,1.69,1.69,0,0,0,1.06-.3.92.92,0,0,0,.39-.76.73.73,0,0,0-.41-.69,6.16,6.16,0,0,0-1.29-.45,9.81,9.81,0,0,1-1.29-.42,2.37,2.37,0,0,1-.86-.64,1.79,1.79,0,0,1,0-2.11,2,2,0,0,1,.92-.72,3.28,3.28,0,0,1,1.37-.27,2.93,2.93,0,0,1,1.91.6,2.18,2.18,0,0,1,.78,1.63h-1.19a1.16,1.16,0,0,0-.45-.89,1.62,1.62,0,0,0-1.09-.34,1.71,1.71,0,0,0-1,.27.84.84,0,0,0-.37.72.81.81,0,0,0,.22.58,1.73,1.73,0,0,0,.57.36c.23.09.55.19,1,.31a9.82,9.82,0,0,1,1.25.4,2.23,2.23,0,0,1,.82.61,1.62,1.62,0,0,1,.36,1.05,1.89,1.89,0,0,1-.32,1.06,2.25,2.25,0,0,1-.92.73,3.27,3.27,0,0,1-1.36.27A3.81,3.81,0,0,1,1011,27.19Z"/><path d="M1022.87,24.23h-5.69a2.25,2.25,0,0,0,2.31,2.24,2.17,2.17,0,0,0,1.28-.36,1.82,1.82,0,0,0,.72-1h1.28a3,3,0,0,1-1.15,1.67,3.44,3.44,0,0,1-2.13.65,3.63,3.63,0,0,1-1.81-.46,3.26,3.26,0,0,1-1.26-1.29,4.45,4.45,0,0,1,0-3.88,3.12,3.12,0,0,1,1.24-1.28,3.72,3.72,0,0,1,1.84-.45,3.64,3.64,0,0,1,1.8.44,3.06,3.06,0,0,1,1.2,1.22,3.56,3.56,0,0,1,.42,1.74A6,6,0,0,1,1022.87,24.23Zm-1.48-2.13a2,2,0,0,0-.81-.74,2.51,2.51,0,0,0-1.14-.25,2.2,2.2,0,0,0-1.53.57,2.33,2.33,0,0,0-.72,1.59h4.5A2.21,2.21,0,0,0,1021.39,22.1Z"/><path d="M1026.18,20.43a2.83,2.83,0,0,1,1.41-.33v1.22h-.31c-1.33,0-2,.72-2,2.16v3.87h-1.18V20.23h1.18v1.15A2.33,2.33,0,0,1,1026.18,20.43Z"/><path d="M1031.24,26.26l2.21-6h1.26l-2.79,7.12h-1.38l-2.79-7.12H1029Z"/><path d="M1035.56,18.83a.74.74,0,0,1-.23-.57.77.77,0,0,1,.23-.57.75.75,0,0,1,.57-.23.71.71,0,0,1,.55.23.77.77,0,0,1,.23.57.74.74,0,0,1-.23.57.72.72,0,0,1-.55.24A.76.76,0,0,1,1035.56,18.83Zm1.14,1.4v7.12h-1.18V20.23Z"/><path d="M1038.35,21.84a3.29,3.29,0,0,1,1.23-1.28,3.59,3.59,0,0,1,1.8-.45,3.49,3.49,0,0,1,2.17.64,3,3,0,0,1,1.12,1.76h-1.27a1.82,1.82,0,0,0-.71-1,2.21,2.21,0,0,0-1.31-.38,2.06,2.06,0,0,0-1.63.7,2.82,2.82,0,0,0-.63,2,2.86,2.86,0,0,0,.63,2,2.07,2.07,0,0,0,1.63.71,2.22,2.22,0,0,0,1.3-.37,1.83,1.83,0,0,0,.72-1h1.27a3.14,3.14,0,0,1-1.14,1.75,3.42,3.42,0,0,1-2.15.66,3.6,3.6,0,0,1-1.8-.46,3.19,3.19,0,0,1-1.23-1.29,4.5,4.5,0,0,1,0-3.88Z"/><path d="M1052.34,24.23h-5.69a2.25,2.25,0,0,0,2.31,2.24,2.17,2.17,0,0,0,1.28-.36,1.87,1.87,0,0,0,.72-1h1.28a3,3,0,0,1-1.15,1.67,3.44,3.44,0,0,1-2.13.65,3.63,3.63,0,0,1-1.81-.46,3.26,3.26,0,0,1-1.26-1.29,4.45,4.45,0,0,1,0-3.88,3.12,3.12,0,0,1,1.24-1.28,3.72,3.72,0,0,1,1.84-.45,3.64,3.64,0,0,1,1.8.44,3.06,3.06,0,0,1,1.2,1.22,3.56,3.56,0,0,1,.42,1.74A6,6,0,0,1,1052.34,24.23Zm-1.48-2.13a2,2,0,0,0-.81-.74,2.51,2.51,0,0,0-1.14-.25,2.2,2.2,0,0,0-1.53.57,2.33,2.33,0,0,0-.72,1.59h4.5A2.21,2.21,0,0,0,1050.86,22.1Z"/><path d="M1054.8,25.71l-1.46,3.5h-.79l1-3.5Z"/><path d="M1063.89,20.44a2.47,2.47,0,0,1,1,1,3.59,3.59,0,0,1,.37,1.68v4.2h-1.17v-4a2.26,2.26,0,0,0-.54-1.63,1.88,1.88,0,0,0-1.45-.57,2,2,0,0,0-1.49.59,2.38,2.38,0,0,0-.55,1.7v3.94h-1.19V17.73h1.19v3.51a2.34,2.34,0,0,1,1-.85,3.32,3.32,0,0,1,1.39-.29A3.08,3.08,0,0,1,1063.89,20.44Z"/><path d="M1068.14,27a3.22,3.22,0,0,1-1.27-1.29,4.28,4.28,0,0,1,0-3.88,3.33,3.33,0,0,1,1.3-1.28,3.95,3.95,0,0,1,3.66,0,3.27,3.27,0,0,1,1.3,1.28,3.88,3.88,0,0,1,.47,1.93,3.77,3.77,0,0,1-.49,1.95A3.28,3.28,0,0,1,1071.8,27a3.8,3.8,0,0,1-1.84.46A3.73,3.73,0,0,1,1068.14,27Zm3-.88a2.25,2.25,0,0,0,.91-.9,3.28,3.28,0,0,0,0-2.91,2.16,2.16,0,0,0-.88-.89,2.43,2.43,0,0,0-1.18-.29,2.38,2.38,0,0,0-1.19.29,2.14,2.14,0,0,0-.87.89,3.08,3.08,0,0,0-.32,1.45,3,3,0,0,0,.32,1.47,2,2,0,0,0,.85.89,2.32,2.32,0,0,0,1.17.3A2.47,2.47,0,0,0,1071.15,26.13Z"/><path d="M1084.3,20.23l-2.23,7.12h-1.22l-1.72-5.66-1.71,5.66h-1.22L1074,20.23h1.21l1.64,6,1.77-6h1.21l1.72,6,1.62-6Z"/><path d="M1091.56,24.23h-5.69a2.25,2.25,0,0,0,2.31,2.24,2.17,2.17,0,0,0,1.28-.36,1.89,1.89,0,0,0,.73-1h1.27a3,3,0,0,1-1.15,1.67,3.44,3.44,0,0,1-2.13.65,3.63,3.63,0,0,1-1.81-.46,3.17,3.17,0,0,1-1.25-1.29,4,4,0,0,1-.46-1.95,4.1,4.1,0,0,1,.44-1.93,3.12,3.12,0,0,1,1.24-1.28,3.72,3.72,0,0,1,1.84-.45,3.64,3.64,0,0,1,1.8.44,3.06,3.06,0,0,1,1.2,1.22,3.56,3.56,0,0,1,.42,1.74A6,6,0,0,1,1091.56,24.23Zm-1.48-2.13a2,2,0,0,0-.81-.74,2.51,2.51,0,0,0-1.14-.25,2.2,2.2,0,0,0-1.53.57,2.33,2.33,0,0,0-.72,1.59h4.5A2.21,2.21,0,0,0,1090.08,22.1Z"/><path d="M1095.45,26.26l2.21-6h1.26l-2.79,7.12h-1.38l-2.8-7.12h1.28Z"/><path d="M1106.19,24.23h-5.7a2.35,2.35,0,0,0,.72,1.64,2.29,2.29,0,0,0,1.6.6,2.17,2.17,0,0,0,1.28-.36,1.92,1.92,0,0,0,.72-1h1.27a3,3,0,0,1-1.14,1.67,3.44,3.44,0,0,1-2.13.65A3.67,3.67,0,0,1,1101,27a3.17,3.17,0,0,1-1.25-1.29,4.07,4.07,0,0,1-.45-1.95,4,4,0,0,1,.44-1.93,3.06,3.06,0,0,1,1.24-1.28,3.69,3.69,0,0,1,1.84-.45,3.62,3.62,0,0,1,1.79.44,3.06,3.06,0,0,1,1.2,1.22,3.45,3.45,0,0,1,.43,1.74C1106.23,23.74,1106.21,24,1106.19,24.23Zm-1.48-2.13a2,2,0,0,0-.82-.74,2.5,2.5,0,0,0-1.13-.25,2.2,2.2,0,0,0-1.53.57,2.33,2.33,0,0,0-.72,1.59H1105A2.21,2.21,0,0,0,1104.71,22.1Z"/><path d="M1109.5,20.43a2.78,2.78,0,0,1,1.41-.33v1.22h-.32q-2,0-2,2.16v3.87h-1.19V20.23h1.19v1.15A2.26,2.26,0,0,1,1109.5,20.43Z"/><path d="M1113.13,25.71l-1.46,3.5h-.79l.95-3.5Z"/><path d="M651.84,43.7v4.2a1,1,0,0,0,.22.73,1.07,1.07,0,0,0,.77.22h.87v1h-1.06a2.11,2.11,0,0,1-1.49-.46,2,2,0,0,1-.49-1.49V43.7h-.92v-1h.92v-1.8h1.18v1.8h1.86v1Z"/><path d="M659.76,42.94a2.41,2.41,0,0,1,1,1,3.48,3.48,0,0,1,.37,1.68v4.2H660v-4a2.3,2.3,0,0,0-.53-1.63,1.91,1.91,0,0,0-1.46-.57,2,2,0,0,0-1.49.59,2.43,2.43,0,0,0-.55,1.7v3.94h-1.18V40.23H656v3.51a2.43,2.43,0,0,1,1-.85,3.25,3.25,0,0,1,1.38-.29A3.05,3.05,0,0,1,659.76,42.94Z"/><path d="M669.19,46.73h-5.7a2.35,2.35,0,0,0,.72,1.64,2.29,2.29,0,0,0,1.6.6,2.19,2.19,0,0,0,1.28-.36,1.92,1.92,0,0,0,.72-1h1.27a3,3,0,0,1-1.14,1.67,3.46,3.46,0,0,1-2.13.65,3.67,3.67,0,0,1-1.82-.46,3.17,3.17,0,0,1-1.25-1.29,4,4,0,0,1-.46-1.95,4.1,4.1,0,0,1,.44-1.93A3.09,3.09,0,0,1,664,43.06a3.66,3.66,0,0,1,1.84-.45,3.62,3.62,0,0,1,1.79.44,3.06,3.06,0,0,1,1.2,1.22,3.56,3.56,0,0,1,.42,1.74Q669.22,46.36,669.19,46.73ZM667.7,44.6a2,2,0,0,0-.81-.74,2.51,2.51,0,0,0-1.14-.25,2.19,2.19,0,0,0-1.52.57,2.33,2.33,0,0,0-.73,1.59H668A2.21,2.21,0,0,0,667.7,44.6Z"/><path d="M673.53,44.34a3.16,3.16,0,0,1,1.23-1.28,3.54,3.54,0,0,1,1.8-.45,3.48,3.48,0,0,1,2.16.64A3,3,0,0,1,679.85,45h-1.28a1.82,1.82,0,0,0-.71-1,2.17,2.17,0,0,0-1.3-.38,2.07,2.07,0,0,0-1.64.7,2.82,2.82,0,0,0-.63,2,2.86,2.86,0,0,0,.63,2,2.08,2.08,0,0,0,1.64.71,2.24,2.24,0,0,0,1.3-.37,1.86,1.86,0,0,0,.71-1h1.28a3.15,3.15,0,0,1-1.15,1.75,3.39,3.39,0,0,1-2.14.66,3.54,3.54,0,0,1-1.8-.46,3.06,3.06,0,0,1-1.23-1.29,4.5,4.5,0,0,1,0-3.88Z"/><path d="M687.37,42.73v7.12h-1.18V48.8a2.42,2.42,0,0,1-.94.85,3,3,0,0,1-1.34.3,3.17,3.17,0,0,1-1.49-.34,2.54,2.54,0,0,1-1-1A3.48,3.48,0,0,1,681,46.9V42.73h1.17v4a2.31,2.31,0,0,0,.53,1.62,1.91,1.91,0,0,0,1.46.57,1.94,1.94,0,0,0,1.49-.59,2.38,2.38,0,0,0,.55-1.7V42.73Z"/><path d="M691.08,42.93a2.83,2.83,0,0,1,1.41-.33v1.22h-.31c-1.32,0-2,.72-2,2.16v3.87H689V42.73h1.18v1.15A2.4,2.4,0,0,1,691.08,42.93Z"/><path d="M695.57,42.93A2.8,2.8,0,0,1,697,42.6v1.22h-.31c-1.33,0-2,.72-2,2.16v3.87H693.5V42.73h1.18v1.15A2.33,2.33,0,0,1,695.57,42.93Z"/><path d="M704.44,46.73h-5.69A2.25,2.25,0,0,0,701.06,49a2.17,2.17,0,0,0,1.28-.36,1.92,1.92,0,0,0,.72-1h1.28a3,3,0,0,1-1.15,1.67,3.44,3.44,0,0,1-2.13.65,3.61,3.61,0,0,1-1.81-.46A3.2,3.2,0,0,1,698,48.22a4.45,4.45,0,0,1,0-3.88,3.12,3.12,0,0,1,1.24-1.28,3.69,3.69,0,0,1,1.84-.45,3.64,3.64,0,0,1,1.8.44,3.06,3.06,0,0,1,1.2,1.22,3.56,3.56,0,0,1,.42,1.74A6,6,0,0,1,704.44,46.73ZM703,44.6a2,2,0,0,0-.81-.74,2.54,2.54,0,0,0-1.14-.25,2.2,2.2,0,0,0-1.53.57,2.33,2.33,0,0,0-.72,1.59h4.5A2.21,2.21,0,0,0,703,44.6Z"/><path d="M711.25,43.38a3,3,0,0,1,.81,2.27v4.2h-1.17v-4a2.3,2.3,0,0,0-.53-1.63,1.91,1.91,0,0,0-1.46-.57,2,2,0,0,0-1.49.59,2.38,2.38,0,0,0-.55,1.7v3.94h-1.18V42.73h1.18v1a2.37,2.37,0,0,1,.95-.85,3.13,3.13,0,0,1,1.34-.29A2.89,2.89,0,0,1,711.25,43.38Z"/><path d="M715.08,43.7v4.2a1,1,0,0,0,.22.73,1,1,0,0,0,.76.22h.87v1h-1.06a2.08,2.08,0,0,1-1.48-.46,1.94,1.94,0,0,1-.5-1.49V43.7H713v-1h.92v-1.8h1.19v1.8h1.85v1Z"/><path d="M727.43,42.73v7.12h-1.19V48.8a2.35,2.35,0,0,1-.94.85A3,3,0,0,1,724,50a3.19,3.19,0,0,1-1.5-.34,2.46,2.46,0,0,1-1-1A3.37,3.37,0,0,1,721,46.9V42.73h1.17v4a2.26,2.26,0,0,0,.54,1.62,1.88,1.88,0,0,0,1.45.57,2,2,0,0,0,1.5-.59,2.43,2.43,0,0,0,.54-1.7V42.73Z"/><path d="M730.12,49.69a2.5,2.5,0,0,1-1-.78,2.15,2.15,0,0,1-.42-1.15h1.22a1.24,1.24,0,0,0,.51.87,1.91,1.91,0,0,0,1.17.34,1.72,1.72,0,0,0,1.07-.3.92.92,0,0,0,.39-.76.74.74,0,0,0-.42-.69,6,6,0,0,0-1.28-.45,10.56,10.56,0,0,1-1.3-.42,2.45,2.45,0,0,1-.86-.64,1.7,1.7,0,0,1-.35-1.11,1.63,1.63,0,0,1,.32-1,2.15,2.15,0,0,1,.92-.72,3.32,3.32,0,0,1,1.37-.27,2.91,2.91,0,0,1,1.91.6,2.12,2.12,0,0,1,.78,1.63h-1.18a1.23,1.23,0,0,0-.45-.89,1.66,1.66,0,0,0-1.1-.34,1.68,1.68,0,0,0-1,.27.85.85,0,0,0-.38.72.78.78,0,0,0,.23.58,1.64,1.64,0,0,0,.57.36c.23.09.55.19,1,.31a9.32,9.32,0,0,1,1.25.4,2.27,2.27,0,0,1,.83.61,1.62,1.62,0,0,1,.36,1,1.82,1.82,0,0,1-.33,1.06,2.19,2.19,0,0,1-.92.73,3.2,3.2,0,0,1-1.36.27A3.76,3.76,0,0,1,730.12,49.69Z"/><path d="M742,46.73h-5.7A2.25,2.25,0,0,0,738.57,49a2.19,2.19,0,0,0,1.28-.36,1.92,1.92,0,0,0,.72-1h1.27a3,3,0,0,1-1.14,1.67,3.44,3.44,0,0,1-2.13.65,3.67,3.67,0,0,1-1.82-.46,3.17,3.17,0,0,1-1.25-1.29,4,4,0,0,1-.46-1.95,4.1,4.1,0,0,1,.44-1.93,3.09,3.09,0,0,1,1.25-1.28,3.66,3.66,0,0,1,1.84-.45,3.62,3.62,0,0,1,1.79.44,3.06,3.06,0,0,1,1.2,1.22A3.56,3.56,0,0,1,742,46Q742,46.36,742,46.73Zm-1.49-2.13a2,2,0,0,0-.81-.74,2.51,2.51,0,0,0-1.14-.25,2.19,2.19,0,0,0-1.52.57,2.38,2.38,0,0,0-.73,1.59h4.5A2.21,2.21,0,0,0,740.46,44.6Z"/><path d="M745.25,42.93a2.84,2.84,0,0,1,1.42-.33v1.22h-.32c-1.32,0-2,.72-2,2.16v3.87h-1.18V42.73h1.18v1.15A2.4,2.4,0,0,1,745.25,42.93Z"/><path d="M757.23,46.73h-5.69A2.25,2.25,0,0,0,753.85,49a2.15,2.15,0,0,0,1.28-.36,1.89,1.89,0,0,0,.73-1h1.27A3,3,0,0,1,756,49.32a3.49,3.49,0,0,1-2.14.65,3.63,3.63,0,0,1-1.81-.46,3.17,3.17,0,0,1-1.25-1.29,4,4,0,0,1-.46-1.95,4.1,4.1,0,0,1,.44-1.93A3.12,3.12,0,0,1,752,43.06a3.72,3.72,0,0,1,1.84-.45,3.64,3.64,0,0,1,1.8.44,3.06,3.06,0,0,1,1.2,1.22,3.56,3.56,0,0,1,.42,1.74A6,6,0,0,1,757.23,46.73Zm-1.48-2.13a2,2,0,0,0-.81-.74,2.51,2.51,0,0,0-1.14-.25,2.22,2.22,0,0,0-1.53.57,2.33,2.33,0,0,0-.72,1.59h4.5A2.21,2.21,0,0,0,755.75,44.6Z"/><path d="M762.19,49.85,760.5,47.2l-1.63,2.65h-1.23l2.3-3.54-2.3-3.58H759l1.69,2.63,1.61-2.63h1.23l-2.29,3.52,2.31,3.6Z"/><path d="M766.56,43a3.14,3.14,0,0,1,1.62-.41,3.35,3.35,0,0,1,1.72.45,3.27,3.27,0,0,1,1.22,1.28,4.06,4.06,0,0,1,.44,1.92,4.19,4.19,0,0,1-.44,1.93A3.27,3.27,0,0,1,768.18,50a3.06,3.06,0,0,1-2.67-1.43v4.69h-1.18V42.73h1.18V44A2.86,2.86,0,0,1,766.56,43ZM770,44.86a2.27,2.27,0,0,0-.88-.91,2.52,2.52,0,0,0-2.42,0,2.33,2.33,0,0,0-.88.93,2.86,2.86,0,0,0-.34,1.39,3,3,0,0,0,.34,1.42,2.3,2.3,0,0,0,.88.92,2.45,2.45,0,0,0,2.42,0,2.3,2.3,0,0,0,.88-.92,3.08,3.08,0,0,0,.32-1.43A3,3,0,0,0,770,44.86Z"/><path d="M779.22,46.73h-5.7a2.35,2.35,0,0,0,.72,1.64,2.29,2.29,0,0,0,1.6.6,2.19,2.19,0,0,0,1.28-.36,1.92,1.92,0,0,0,.72-1h1.27A3,3,0,0,1,778,49.32a3.44,3.44,0,0,1-2.13.65,3.67,3.67,0,0,1-1.82-.46,3.17,3.17,0,0,1-1.25-1.29,4.36,4.36,0,0,1,0-3.88A3,3,0,0,1,774,43.06a3.66,3.66,0,0,1,1.84-.45,3.62,3.62,0,0,1,1.79.44,3.06,3.06,0,0,1,1.2,1.22,3.56,3.56,0,0,1,.43,1.74C779.26,46.24,779.24,46.48,779.22,46.73Zm-1.49-2.13a1.93,1.93,0,0,0-.81-.74,2.51,2.51,0,0,0-1.14-.25,2.19,2.19,0,0,0-1.52.57,2.33,2.33,0,0,0-.72,1.59H778A2.21,2.21,0,0,0,777.73,44.6Z"/><path d="M782.53,42.93a2.78,2.78,0,0,1,1.41-.33v1.22h-.32c-1.32,0-2,.72-2,2.16v3.87h-1.18V42.73h1.18v1.15A2.35,2.35,0,0,1,782.53,42.93Z"/><path d="M785,41.33a.78.78,0,0,1-.23-.57.81.81,0,0,1,.23-.57.78.78,0,0,1,.58-.23.73.73,0,0,1,.55.23.81.81,0,0,1,.23.57.78.78,0,0,1-.23.57.74.74,0,0,1-.55.24A.78.78,0,0,1,785,41.33Zm1.15,1.4v7.12h-1.18V42.73Z"/><path d="M794.23,46.73h-5.69A2.25,2.25,0,0,0,790.85,49a2.17,2.17,0,0,0,1.28-.36,1.92,1.92,0,0,0,.72-1h1.28A3.06,3.06,0,0,1,793,49.32a3.44,3.44,0,0,1-2.13.65,3.61,3.61,0,0,1-1.81-.46,3.2,3.2,0,0,1-1.26-1.29,4.07,4.07,0,0,1-.45-1.95,4,4,0,0,1,.44-1.93A3.06,3.06,0,0,1,789,43.06a3.69,3.69,0,0,1,1.84-.45,3.57,3.57,0,0,1,1.79.44,3,3,0,0,1,1.21,1.22,3.56,3.56,0,0,1,.42,1.74A6,6,0,0,1,794.23,46.73Zm-1.48-2.13a2,2,0,0,0-.81-.74,2.57,2.57,0,0,0-1.14-.25,2.2,2.2,0,0,0-1.53.57,2.33,2.33,0,0,0-.72,1.59h4.5A2.21,2.21,0,0,0,792.75,44.6Z"/><path d="M801,43.38a3,3,0,0,1,.81,2.27v4.2h-1.17v-4a2.3,2.3,0,0,0-.53-1.63,1.92,1.92,0,0,0-1.46-.57,2,2,0,0,0-1.49.59,2.38,2.38,0,0,0-.55,1.7v3.94h-1.18V42.73h1.18v1a2.37,2.37,0,0,1,1-.85,3.13,3.13,0,0,1,1.34-.29A2.89,2.89,0,0,1,801,43.38Z"/><path d="M803.42,44.34a3.29,3.29,0,0,1,1.23-1.28,3.56,3.56,0,0,1,1.8-.45,3.49,3.49,0,0,1,2.17.64A3,3,0,0,1,809.74,45h-1.27a1.87,1.87,0,0,0-.71-1,2.21,2.21,0,0,0-1.31-.38,2.1,2.1,0,0,0-1.64.7,2.86,2.86,0,0,0-.62,2,2.91,2.91,0,0,0,.62,2,2.11,2.11,0,0,0,1.64.71,2.24,2.24,0,0,0,1.3-.37,1.83,1.83,0,0,0,.72-1h1.27a3.14,3.14,0,0,1-1.14,1.75,3.44,3.44,0,0,1-2.15.66,3.57,3.57,0,0,1-1.8-.46,3.19,3.19,0,0,1-1.23-1.29,4.5,4.5,0,0,1,0-3.88Z"/><path d="M817.41,46.73h-5.69A2.25,2.25,0,0,0,814,49a2.17,2.17,0,0,0,1.28-.36,1.92,1.92,0,0,0,.72-1h1.28a3.06,3.06,0,0,1-1.15,1.67A3.44,3.44,0,0,1,814,50a3.61,3.61,0,0,1-1.81-.46A3.2,3.2,0,0,1,811,48.22a4.07,4.07,0,0,1-.45-1.95,4,4,0,0,1,.44-1.93,3.06,3.06,0,0,1,1.24-1.28,3.69,3.69,0,0,1,1.84-.45,3.6,3.6,0,0,1,1.79.44A3.15,3.15,0,0,1,817,44.27a3.56,3.56,0,0,1,.42,1.74A6,6,0,0,1,817.41,46.73Zm-1.48-2.13a2,2,0,0,0-.81-.74,2.57,2.57,0,0,0-1.14-.25,2.2,2.2,0,0,0-1.53.57,2.33,2.33,0,0,0-.72,1.59h4.5A2.21,2.21,0,0,0,815.93,44.6Z"/><path d="M823,49.51a3.22,3.22,0,0,1-1.27-1.29,4,4,0,0,1-.46-1.95,3.84,3.84,0,0,1,.48-1.93,3.24,3.24,0,0,1,1.29-1.28,3.95,3.95,0,0,1,3.66,0,3.27,3.27,0,0,1,1.3,1.28,3.88,3.88,0,0,1,.47,1.93,3.77,3.77,0,0,1-.49,1.95,3.32,3.32,0,0,1-1.31,1.29,3.84,3.84,0,0,1-1.85.46A3.73,3.73,0,0,1,823,49.51Zm3-.88a2.25,2.25,0,0,0,.91-.9,3.28,3.28,0,0,0,0-2.91,2.1,2.1,0,0,0-.88-.89,2.57,2.57,0,0,0-2.37,0,2.14,2.14,0,0,0-.87.89,3.49,3.49,0,0,0,0,2.92,2,2,0,0,0,.85.89,2.32,2.32,0,0,0,1.17.3A2.47,2.47,0,0,0,826.05,48.63Z"/><path d="M832.61,43.7h-1.5v6.15h-1.18V43.7H829v-1h.92v-.51a2.21,2.21,0,0,1,.62-1.75,2.91,2.91,0,0,1,2-.55v1a1.59,1.59,0,0,0-1.1.3,1.37,1.37,0,0,0-.32,1v.51h1.5Z"/><path d="M837.78,49.69a2.56,2.56,0,0,1-1-.78,2.06,2.06,0,0,1-.41-1.15h1.22a1.2,1.2,0,0,0,.5.87,1.94,1.94,0,0,0,1.18.34,1.69,1.69,0,0,0,1.06-.3.92.92,0,0,0,.39-.76.74.74,0,0,0-.41-.69,6.16,6.16,0,0,0-1.29-.45,9.81,9.81,0,0,1-1.29-.42,2.37,2.37,0,0,1-.86-.64,1.79,1.79,0,0,1,0-2.11,2,2,0,0,1,.92-.72,3.27,3.27,0,0,1,1.36-.27,2.89,2.89,0,0,1,1.91.6,2.16,2.16,0,0,1,.79,1.63H840.6a1.16,1.16,0,0,0-.45-.89,1.65,1.65,0,0,0-1.1-.34,1.7,1.7,0,0,0-1,.27.85.85,0,0,0-.38.72.82.82,0,0,0,.23.58,1.64,1.64,0,0,0,.57.36c.23.09.55.19,1,.31a9.82,9.82,0,0,1,1.25.4,2.23,2.23,0,0,1,.82.61,1.62,1.62,0,0,1,.36,1,1.82,1.82,0,0,1-.33,1.06,2.16,2.16,0,0,1-.91.73,3.27,3.27,0,0,1-1.36.27A3.78,3.78,0,0,1,837.78,49.69Z"/><path d="M848.14,42.94a2.41,2.41,0,0,1,1,1,3.48,3.48,0,0,1,.37,1.68v4.2h-1.17v-4a2.3,2.3,0,0,0-.53-1.63,1.91,1.91,0,0,0-1.46-.57,2,2,0,0,0-1.49.59,2.43,2.43,0,0,0-.55,1.7v3.94h-1.18V40.23h1.18v3.51a2.43,2.43,0,0,1,1-.85,3.26,3.26,0,0,1,1.39-.29A3,3,0,0,1,848.14,42.94Z"/><path d="M851.11,44.34a3.18,3.18,0,0,1,1.21-1.28,3.37,3.37,0,0,1,1.72-.45,3.15,3.15,0,0,1,1.63.4,2.73,2.73,0,0,1,1,1v-1.3h1.19v7.12H856.7V48.52a2.91,2.91,0,0,1-1.05,1A3.14,3.14,0,0,1,854,50a3.29,3.29,0,0,1-1.72-.47,3.24,3.24,0,0,1-1.2-1.31,4.07,4.07,0,0,1-.45-1.93A4,4,0,0,1,851.11,44.34Zm5.26.53a2.43,2.43,0,0,0-3.3-.92,2.25,2.25,0,0,0-.87.91,2.84,2.84,0,0,0-.33,1.4,3,3,0,0,0,.33,1.43,2.28,2.28,0,0,0,.87.92,2.45,2.45,0,0,0,2.42,0,2.3,2.3,0,0,0,.88-.92,3,3,0,0,0,.33-1.42A2.87,2.87,0,0,0,856.37,44.87Z"/><path d="M861.6,42.93A2.83,2.83,0,0,1,863,42.6v1.22h-.31c-1.32,0-2,.72-2,2.16v3.87h-1.18V42.73h1.18v1.15A2.4,2.4,0,0,1,861.6,42.93Z"/><path d="M870.47,46.73h-5.69a2.27,2.27,0,0,0,.72,1.64,2.29,2.29,0,0,0,1.6.6,2.19,2.19,0,0,0,1.28-.36,1.92,1.92,0,0,0,.72-1h1.27a3,3,0,0,1-1.14,1.67,3.46,3.46,0,0,1-2.13.65,3.64,3.64,0,0,1-1.82-.46A3.17,3.17,0,0,1,864,48.22a4,4,0,0,1-.46-1.95,4.1,4.1,0,0,1,.44-1.93,3.09,3.09,0,0,1,1.25-1.28,3.66,3.66,0,0,1,1.84-.45,3.62,3.62,0,0,1,1.79.44,3.06,3.06,0,0,1,1.2,1.22,3.56,3.56,0,0,1,.42,1.74A6,6,0,0,1,870.47,46.73ZM869,44.6a2,2,0,0,0-.81-.74,2.51,2.51,0,0,0-1.14-.25,2.19,2.19,0,0,0-1.52.57,2.33,2.33,0,0,0-.73,1.59h4.5A2.21,2.21,0,0,0,869,44.6Z"/><path d="M871.71,44.34a3.2,3.2,0,0,1,1.22-1.28,3.36,3.36,0,0,1,1.73-.45,3.29,3.29,0,0,1,1.55.38,2.74,2.74,0,0,1,1.09,1V40.23h1.2v9.62h-1.2V48.51a2.76,2.76,0,0,1-1,1.05,3.13,3.13,0,0,1-1.61.41,3.27,3.27,0,0,1-1.72-.47,3.22,3.22,0,0,1-1.22-1.31,4.19,4.19,0,0,1-.44-1.93A4.06,4.06,0,0,1,871.71,44.34Zm5.27.53a2.36,2.36,0,0,0-.88-.92,2.43,2.43,0,0,0-1.22-.31,2.4,2.4,0,0,0-1.21.31,2.31,2.31,0,0,0-.87.91,3,3,0,0,0-.32,1.4,3.08,3.08,0,0,0,.32,1.43,2.34,2.34,0,0,0,.87.92,2.4,2.4,0,0,0,1.21.32,2.44,2.44,0,0,0,1.22-.32,2.3,2.3,0,0,0,.88-.92,3.06,3.06,0,0,0,.32-1.42A3,3,0,0,0,877,44.87Z"/><path d="M886.14,43.7h-1.5v6.15h-1.18V43.7h-.92v-1h.92v-.51a2.24,2.24,0,0,1,.62-1.75,2.91,2.91,0,0,1,2-.55v1a1.61,1.61,0,0,0-1.1.3,1.37,1.37,0,0,0-.32,1v.51h1.5Z"/><path d="M888.34,40.23v9.62h-1.19V40.23Z"/><path d="M890,41.33a.75.75,0,0,1-.24-.57.78.78,0,0,1,.24-.57.74.74,0,0,1,.57-.23.71.71,0,0,1,.55.23.81.81,0,0,1,.23.57.78.78,0,0,1-.23.57.72.72,0,0,1-.55.24A.75.75,0,0,1,890,41.33Zm1.14,1.4v7.12H890V42.73Z"/><path d="M897.38,43a2.66,2.66,0,0,1,1,1v-1.3h1.2V50a3.52,3.52,0,0,1-.42,1.73A3,3,0,0,1,898,52.93a3.58,3.58,0,0,1-1.8.43,4,4,0,0,1-2.34-.66,2.62,2.62,0,0,1-1.1-1.81h1.17a1.92,1.92,0,0,0,.8,1,2.69,2.69,0,0,0,1.47.39,2.15,2.15,0,0,0,1.59-.61,2.27,2.27,0,0,0,.62-1.71v-1.5a2.8,2.8,0,0,1-1,1,3,3,0,0,1-1.61.42,3.27,3.27,0,0,1-2.94-1.78,4.19,4.19,0,0,1-.44-1.93,4.06,4.06,0,0,1,.44-1.92A3.27,3.27,0,0,1,894,43.06a3.35,3.35,0,0,1,1.72-.45A3.17,3.17,0,0,1,897.38,43Zm.71,1.86a2.36,2.36,0,0,0-.88-.92,2.41,2.41,0,0,0-1.22-.31,2.33,2.33,0,0,0-1.2.31,2.27,2.27,0,0,0-.88.91,3,3,0,0,0-.32,1.4,3.08,3.08,0,0,0,.32,1.43,2.3,2.3,0,0,0,.88.92,2.34,2.34,0,0,0,1.2.32,2.41,2.41,0,0,0,1.22-.32,2.3,2.3,0,0,0,.88-.92,3.06,3.06,0,0,0,.32-1.42A3,3,0,0,0,898.09,44.87Z"/><path d="M906.24,42.94a2.47,2.47,0,0,1,1,1,3.48,3.48,0,0,1,.37,1.68v4.2h-1.17v-4a2.3,2.3,0,0,0-.53-1.63,1.92,1.92,0,0,0-1.46-.57,2,2,0,0,0-1.49.59,2.38,2.38,0,0,0-.55,1.7v3.94h-1.18V40.23h1.18v3.51a2.36,2.36,0,0,1,1-.85,3.25,3.25,0,0,1,1.38-.29A3.08,3.08,0,0,1,906.24,42.94Z"/><path d="M910.64,43.7v4.2a1,1,0,0,0,.23.73,1,1,0,0,0,.76.22h.87v1h-1.06a2.08,2.08,0,0,1-1.48-.46,1.94,1.94,0,0,1-.5-1.49V43.7h-.92v-1h.92v-1.8h1.18v1.8h1.86v1Z"/><path d="M916.72,41.33a.75.75,0,0,1-.24-.57.78.78,0,0,1,.24-.57.74.74,0,0,1,.57-.23.73.73,0,0,1,.55.23.81.81,0,0,1,.23.57.78.78,0,0,1-.23.57.74.74,0,0,1-.55.24A.75.75,0,0,1,916.72,41.33Zm1.14,1.4v7.12h-1.18V42.73Z"/><path d="M920.56,49.69a2.53,2.53,0,0,1-1-.78,2.15,2.15,0,0,1-.42-1.15h1.22a1.23,1.23,0,0,0,.5.87A1.94,1.94,0,0,0,922,49a1.72,1.72,0,0,0,1.07-.3.91.91,0,0,0,.38-.76.73.73,0,0,0-.41-.69,6.16,6.16,0,0,0-1.29-.45,9.81,9.81,0,0,1-1.29-.42,2.37,2.37,0,0,1-.86-.64,1.79,1.79,0,0,1,0-2.11,2,2,0,0,1,.92-.72,3.32,3.32,0,0,1,1.37-.27,2.91,2.91,0,0,1,1.91.6,2.18,2.18,0,0,1,.78,1.63h-1.19a1.18,1.18,0,0,0-.44-.89,1.66,1.66,0,0,0-1.1-.34,1.71,1.71,0,0,0-1,.27.84.84,0,0,0-.37.72.81.81,0,0,0,.22.58,1.78,1.78,0,0,0,.58.36c.22.09.54.19,1,.31a9.82,9.82,0,0,1,1.25.4,2.35,2.35,0,0,1,.83.61,1.68,1.68,0,0,1,.35,1,1.89,1.89,0,0,1-.32,1.06,2.19,2.19,0,0,1-.92.73A3.24,3.24,0,0,1,922,50,3.85,3.85,0,0,1,920.56,49.69Z"/><path d="M931.51,43.38a3,3,0,0,1,.8,2.27v4.2h-1.17v-4a2.25,2.25,0,0,0-.53-1.63,1.88,1.88,0,0,0-1.45-.57,2,2,0,0,0-1.49.59,2.38,2.38,0,0,0-.55,1.7v3.94h-1.19V42.73h1.19v1a2.37,2.37,0,0,1,1-.85,3.08,3.08,0,0,1,1.33-.29A2.91,2.91,0,0,1,931.51,43.38Z"/><path d="M934.07,40.79h1.31l-1.25,3h-.83Z"/><path d="M937.81,43.7v4.2a1,1,0,0,0,.23.73,1,1,0,0,0,.76.22h.87v1h-1.06a2.08,2.08,0,0,1-1.48-.46,1.9,1.9,0,0,1-.5-1.49V43.7h-.92v-1h.92v-1.8h1.18v1.8h1.86v1Z"/><path d="M944.9,49.69a2.56,2.56,0,0,1-1-.78,2.06,2.06,0,0,1-.41-1.15h1.22a1.2,1.2,0,0,0,.5.87,1.94,1.94,0,0,0,1.18.34,1.69,1.69,0,0,0,1.06-.3.92.92,0,0,0,.39-.76.74.74,0,0,0-.42-.69,5.83,5.83,0,0,0-1.28-.45,10.56,10.56,0,0,1-1.3-.42,2.42,2.42,0,0,1-.85-.64,1.65,1.65,0,0,1-.36-1.11,1.7,1.7,0,0,1,.32-1,2.13,2.13,0,0,1,.93-.72,3.27,3.27,0,0,1,1.36-.27,2.89,2.89,0,0,1,1.91.6,2.12,2.12,0,0,1,.78,1.63h-1.18a1.23,1.23,0,0,0-.45-.89,1.65,1.65,0,0,0-1.1-.34,1.7,1.7,0,0,0-1,.27.85.85,0,0,0-.38.72.82.82,0,0,0,.23.58,1.64,1.64,0,0,0,.57.36c.23.09.55.19,1,.31a10.38,10.38,0,0,1,1.25.4,2.23,2.23,0,0,1,.82.61,1.62,1.62,0,0,1,.36,1,1.82,1.82,0,0,1-.33,1.06,2.16,2.16,0,0,1-.91.73,3.27,3.27,0,0,1-1.36.27A3.78,3.78,0,0,1,944.9,49.69Z"/><path d="M950.27,44.34a3.25,3.25,0,0,1,1.21-1.28,3.38,3.38,0,0,1,1.73-.45,3.14,3.14,0,0,1,1.62.4,2.73,2.73,0,0,1,1,1v-1.3h1.19v7.12h-1.19V48.52a2.83,2.83,0,0,1-1.05,1,3.14,3.14,0,0,1-1.62.41,3.24,3.24,0,0,1-2.92-1.78,4.07,4.07,0,0,1-.44-1.93A3.94,3.94,0,0,1,950.27,44.34Zm5.26.53a2.34,2.34,0,0,0-.87-.92,2.43,2.43,0,0,0-1.22-.31,2.4,2.4,0,0,0-1.21.31,2.31,2.31,0,0,0-.87.91,2.84,2.84,0,0,0-.32,1.4,3,3,0,0,0,.32,1.43,2.34,2.34,0,0,0,.87.92,2.4,2.4,0,0,0,1.21.32,2.44,2.44,0,0,0,1.22-.32,2.28,2.28,0,0,0,.87-.92,3,3,0,0,0,.33-1.42A2.87,2.87,0,0,0,955.53,44.87Z"/><path d="M960.13,43.7v4.2a1,1,0,0,0,.23.73,1,1,0,0,0,.76.22H962v1h-1.06a2.08,2.08,0,0,1-1.48-.46,1.94,1.94,0,0,1-.5-1.49V43.7H958v-1H959v-1.8h1.18v1.8H962v1Z"/><path d="M963.1,41.33a.74.74,0,0,1-.23-.57.77.77,0,0,1,.23-.57.75.75,0,0,1,.57-.23.71.71,0,0,1,.55.23.77.77,0,0,1,.23.57.74.74,0,0,1-.23.57.72.72,0,0,1-.55.24A.76.76,0,0,1,963.1,41.33Zm1.14,1.4v7.12h-1.18V42.73Z"/><path d="M967,49.69a2.5,2.5,0,0,1-1-.78,2.15,2.15,0,0,1-.42-1.15h1.23a1.2,1.2,0,0,0,.5.87,1.93,1.93,0,0,0,1.17.34,1.72,1.72,0,0,0,1.07-.3.92.92,0,0,0,.39-.76.74.74,0,0,0-.42-.69,5.83,5.83,0,0,0-1.28-.45,10.56,10.56,0,0,1-1.3-.42,2.45,2.45,0,0,1-.86-.64,1.83,1.83,0,0,1,0-2.11,2.15,2.15,0,0,1,.92-.72,3.32,3.32,0,0,1,1.37-.27,2.89,2.89,0,0,1,1.91.6,2.12,2.12,0,0,1,.78,1.63h-1.18a1.23,1.23,0,0,0-.45-.89,1.65,1.65,0,0,0-1.1-.34,1.7,1.7,0,0,0-1,.27.85.85,0,0,0-.38.72.82.82,0,0,0,.23.58,1.64,1.64,0,0,0,.57.36c.23.09.55.19,1,.31a9.32,9.32,0,0,1,1.25.4,2.27,2.27,0,0,1,.83.61,1.62,1.62,0,0,1,.36,1,1.82,1.82,0,0,1-.33,1.06,2.19,2.19,0,0,1-.92.73,3.19,3.19,0,0,1-1.35.27A3.78,3.78,0,0,1,967,49.69Z"/><path d="M975.21,43.7h-1.49v6.15h-1.18V43.7h-.93v-1h.93v-.51a2.24,2.24,0,0,1,.61-1.75,3,3,0,0,1,2-.55v1a1.59,1.59,0,0,0-1.1.3,1.37,1.37,0,0,0-.32,1v.51h1.49Z"/><path d="M982.37,42.73l-4.3,10.47h-1.22l1.41-3.43-2.88-7h1.32l2.23,5.77,2.21-5.77Z"/><path d="M983.22,41.33a.78.78,0,0,1-.23-.57.81.81,0,0,1,.23-.57.77.77,0,0,1,.57-.23.73.73,0,0,1,.56.23.8.8,0,0,1,.22.57.77.77,0,0,1-.22.57.74.74,0,0,1-.56.24A.78.78,0,0,1,983.22,41.33Zm1.15,1.4v7.12h-1.19V42.73Z"/><path d="M991.59,43.38a3,3,0,0,1,.81,2.27v4.2h-1.17v-4a2.3,2.3,0,0,0-.53-1.63,1.91,1.91,0,0,0-1.46-.57,2,2,0,0,0-1.49.59,2.38,2.38,0,0,0-.55,1.7v3.94H986V42.73h1.18v1a2.34,2.34,0,0,1,1-.85,3.05,3.05,0,0,1,1.33-.29A2.89,2.89,0,0,1,991.59,43.38Z"/><path d="M998.53,43a2.66,2.66,0,0,1,1,1v-1.3h1.2V50a3.52,3.52,0,0,1-.42,1.73,2.9,2.9,0,0,1-1.19,1.19,3.58,3.58,0,0,1-1.8.43A4,4,0,0,1,995,52.7a2.62,2.62,0,0,1-1.1-1.81h1.17a1.92,1.92,0,0,0,.8,1,2.69,2.69,0,0,0,1.47.39,2.19,2.19,0,0,0,1.6-.61,2.31,2.31,0,0,0,.61-1.71v-1.5a2.8,2.8,0,0,1-1,1,3,3,0,0,1-1.61.42A3.27,3.27,0,0,1,994,48.19a4.19,4.19,0,0,1-.44-1.93,4.06,4.06,0,0,1,.44-1.92,3.27,3.27,0,0,1,1.22-1.28,3.35,3.35,0,0,1,1.72-.45A3.14,3.14,0,0,1,998.53,43Zm.71,1.86a2.36,2.36,0,0,0-.88-.92,2.41,2.41,0,0,0-1.22-.31,2.33,2.33,0,0,0-1.2.31,2.27,2.27,0,0,0-.88.91,3,3,0,0,0-.32,1.4,3.08,3.08,0,0,0,.32,1.43,2.3,2.3,0,0,0,.88.92,2.34,2.34,0,0,0,1.2.32,2.41,2.41,0,0,0,1.22-.32,2.3,2.3,0,0,0,.88-.92,3,3,0,0,0,.32-1.42A2.87,2.87,0,0,0,999.24,44.87Z"/><path d="M1002.2,49.69a.78.78,0,0,1-.23-.57.81.81,0,0,1,.23-.57.77.77,0,0,1,.57-.23.75.75,0,0,1,.56.23.8.8,0,0,1,.22.57.77.77,0,0,1-.22.57.76.76,0,0,1-.56.24A.78.78,0,0,1,1002.2,49.69Z"/><path d="M1017.06,40.85v9h-1.18V43.14l-3,6.71h-.83l-3-6.72v6.72h-1.18v-9h1.27l3.33,7.44,3.33-7.44Z"/><path d="M1024.83,42.73l-4.29,10.47h-1.22l1.41-3.43-2.88-7h1.32l2.23,5.77,2.21-5.77Z"/><path d="M1033.32,43a2.66,2.66,0,0,1,1,1v-1.3h1.2V50a3.52,3.52,0,0,1-.42,1.73,3,3,0,0,1-1.19,1.19,3.58,3.58,0,0,1-1.8.43,4,4,0,0,1-2.34-.66,2.62,2.62,0,0,1-1.1-1.81h1.17a1.88,1.88,0,0,0,.8,1,2.69,2.69,0,0,0,1.47.39,2.15,2.15,0,0,0,1.59-.61,2.31,2.31,0,0,0,.62-1.71v-1.5a2.8,2.8,0,0,1-1,1,3,3,0,0,1-1.61.42,3.27,3.27,0,0,1-1.72-.47,3.22,3.22,0,0,1-1.22-1.31,4.19,4.19,0,0,1-.44-1.93,4.06,4.06,0,0,1,.44-1.92,3.2,3.2,0,0,1,1.22-1.28,3.35,3.35,0,0,1,1.72-.45A3.19,3.19,0,0,1,1033.32,43Zm.71,1.86a2.36,2.36,0,0,0-.88-.92,2.54,2.54,0,0,0-2.43,0,2.31,2.31,0,0,0-.87.91,3,3,0,0,0-.32,1.4,3.08,3.08,0,0,0,.32,1.43,2.34,2.34,0,0,0,.87.92,2.47,2.47,0,0,0,2.43,0,2.3,2.3,0,0,0,.88-.92,3.06,3.06,0,0,0,.32-1.42A3,3,0,0,0,1034,44.87Z"/><path d="M1038.48,49.51a3.24,3.24,0,0,1-1.28-1.29,4.07,4.07,0,0,1-.46-1.95,3.84,3.84,0,0,1,.48-1.93,3.24,3.24,0,0,1,1.29-1.28,4,4,0,0,1,3.67,0,3.31,3.31,0,0,1,1.29,1.28,3.79,3.79,0,0,1,.48,1.93,3.87,3.87,0,0,1-.49,1.95,3.41,3.41,0,0,1-1.32,1.29,3.84,3.84,0,0,1-1.85.46A3.66,3.66,0,0,1,1038.48,49.51Zm3-.88a2.29,2.29,0,0,0,.9-.9,2.87,2.87,0,0,0,.35-1.46,3,3,0,0,0-.34-1.45,2.18,2.18,0,0,0-.89-.89,2.57,2.57,0,0,0-2.37,0,2.06,2.06,0,0,0-.86.89,3,3,0,0,0-.33,1.45,3.08,3.08,0,0,0,.32,1.47,2.09,2.09,0,0,0,.85.89,2.37,2.37,0,0,0,1.17.3A2.48,2.48,0,0,0,1041.49,48.63Z"/><path d="M1045.14,44.34a3.27,3.27,0,0,1,1.22-1.28,3.35,3.35,0,0,1,1.72-.45,3.14,3.14,0,0,1,1.62.4,2.66,2.66,0,0,1,1,1v-1.3h1.2v7.12h-1.2V48.52a2.76,2.76,0,0,1-1,1,3.13,3.13,0,0,1-1.61.41,3.24,3.24,0,0,1-1.72-.47,3.33,3.33,0,0,1-1.21-1.31,4.19,4.19,0,0,1-.44-1.93A4.06,4.06,0,0,1,1045.14,44.34Zm5.27.53a2.36,2.36,0,0,0-.88-.92,2.43,2.43,0,0,0-1.22-.31,2.4,2.4,0,0,0-1.21.31,2.31,2.31,0,0,0-.87.91,3,3,0,0,0-.32,1.4,3.08,3.08,0,0,0,.32,1.43,2.34,2.34,0,0,0,.87.92,2.4,2.4,0,0,0,1.21.32,2.44,2.44,0,0,0,1.22-.32,2.3,2.3,0,0,0,.88-.92,3.06,3.06,0,0,0,.32-1.42A3,3,0,0,0,1050.41,44.87Z"/><path d="M1054.75,40.23v9.62h-1.19V40.23Z"/><path d="M1059.54,41.33a.78.78,0,0,1-.23-.57.81.81,0,0,1,.23-.57.78.78,0,0,1,.58-.23.73.73,0,0,1,.55.23.81.81,0,0,1,.23.57.78.78,0,0,1-.23.57.74.74,0,0,1-.55.24A.78.78,0,0,1,1059.54,41.33Zm1.15,1.4v7.12h-1.18V42.73Z"/><path d="M1063.39,49.69a2.53,2.53,0,0,1-1-.78,2.07,2.07,0,0,1-.42-1.15h1.22a1.23,1.23,0,0,0,.5.87,1.94,1.94,0,0,0,1.18.34,1.69,1.69,0,0,0,1.06-.3.92.92,0,0,0,.39-.76.73.73,0,0,0-.41-.69,6.16,6.16,0,0,0-1.29-.45,9.81,9.81,0,0,1-1.29-.42,2.37,2.37,0,0,1-.86-.64,1.79,1.79,0,0,1,0-2.11,2,2,0,0,1,.92-.72,3.28,3.28,0,0,1,1.37-.27,2.93,2.93,0,0,1,1.91.6,2.18,2.18,0,0,1,.78,1.63h-1.19a1.16,1.16,0,0,0-.45-.89,1.62,1.62,0,0,0-1.09-.34,1.71,1.71,0,0,0-1,.27.84.84,0,0,0-.37.72.81.81,0,0,0,.22.58,1.73,1.73,0,0,0,.57.36c.23.09.55.19,1,.31a9.82,9.82,0,0,1,1.25.4,2.23,2.23,0,0,1,.82.61,1.62,1.62,0,0,1,.36,1,1.89,1.89,0,0,1-.32,1.06,2.25,2.25,0,0,1-.92.73,3.24,3.24,0,0,1-1.36.27A3.85,3.85,0,0,1,1063.39,49.69Z"/><path d="M1073.31,43.7v4.2a1,1,0,0,0,.22.73,1.07,1.07,0,0,0,.77.22h.87v1h-1.07a2.1,2.1,0,0,1-1.48-.46,1.94,1.94,0,0,1-.49-1.49V43.7h-.92v-1h.92v-1.8h1.18v1.8h1.86v1Z"/><path d="M1077.53,49.51a3.16,3.16,0,0,1-1.27-1.29,4,4,0,0,1-.47-1.95,3.84,3.84,0,0,1,.48-1.93,3.31,3.31,0,0,1,1.29-1.28,4,4,0,0,1,3.67,0,3.24,3.24,0,0,1,1.29,1.28,3.79,3.79,0,0,1,.48,1.93,3.87,3.87,0,0,1-.49,1.95,3.41,3.41,0,0,1-1.32,1.29,3.84,3.84,0,0,1-1.85.46A3.69,3.69,0,0,1,1077.53,49.51Zm3-.88a2.29,2.29,0,0,0,.9-.9,2.87,2.87,0,0,0,.35-1.46,3,3,0,0,0-.34-1.45,2.18,2.18,0,0,0-.89-.89,2.37,2.37,0,0,0-1.18-.29,2.41,2.41,0,0,0-1.19.29,2.06,2.06,0,0,0-.86.89,3,3,0,0,0-.33,1.45,3.08,3.08,0,0,0,.32,1.47,2.09,2.09,0,0,0,.85.89,2.37,2.37,0,0,0,1.17.3A2.48,2.48,0,0,0,1080.54,48.63Z"/><path d="M652.4,64.28a1.33,1.33,0,0,1-1.84,0,1.3,1.3,0,1,1,1.84,0Zm-2,8.07V65.1h2.22v7.25Z"/><path d="M656.41,65.1v1.06A2.37,2.37,0,0,1,658.6,65a2.85,2.85,0,0,1,1.44.36,2.46,2.46,0,0,1,1,1,3.2,3.2,0,0,1,1.05-1A2.81,2.81,0,0,1,663.5,65a2.76,2.76,0,0,1,2.11.82,3.14,3.14,0,0,1,.78,2.27v4.24h-2.21V68.41a1.46,1.46,0,0,0-.37-1.08,1.53,1.53,0,0,0-2,0,1.46,1.46,0,0,0-.37,1.08v3.94h-2.21V68.41a1.46,1.46,0,0,0-.37-1.08,1.35,1.35,0,0,0-1-.39,1.33,1.33,0,0,0-1,.39,1.46,1.46,0,0,0-.37,1.08v3.94h-2.23V65.1Z"/><path d="M670.13,66a2.49,2.49,0,0,1,2.13-1,3.11,3.11,0,0,1,2.35,1,3.81,3.81,0,0,1,1,2.68,3.76,3.76,0,0,1-1,2.66,3.09,3.09,0,0,1-2.33,1,2.47,2.47,0,0,1-2.15-1.14v4.51h-2.22V65.1h2.22Zm2.7,4a2.07,2.07,0,0,0,0-2.65,1.55,1.55,0,0,0-2.21,0,1.72,1.72,0,0,0-.49,1.32,1.74,1.74,0,0,0,.49,1.33,1.53,1.53,0,0,0,1.1.47A1.58,1.58,0,0,0,672.83,70.06Z"/><path d="M678.85,65.1v1.35A2.32,2.32,0,0,1,680.92,65v2.26h-.54a1.62,1.62,0,0,0-1.15.36,1.72,1.72,0,0,0-.38,1.28v3.43h-2.23V65.1Z"/><path d="M682.35,71.41a3.86,3.86,0,0,1,0-5.39,3.85,3.85,0,0,1,2.71-1,3.8,3.8,0,0,1,2.69,1,3.49,3.49,0,0,1,1.09,2.69,3.54,3.54,0,0,1-1.08,2.7,3.74,3.74,0,0,1-2.69,1A3.78,3.78,0,0,1,682.35,71.41Zm3.78-1.34a1.91,1.91,0,0,0,.44-1.35,1.8,1.8,0,0,0-.46-1.34,1.49,1.49,0,0,0-2.15,0,1.84,1.84,0,0,0-.45,1.34,1.87,1.87,0,0,0,.46,1.35,1.45,1.45,0,0,0,1.09.47A1.41,1.41,0,0,0,686.13,70.07Z"/><path d="M689,65.1h2.37L693,70.49l1.65-5.39H697l-2.58,7.25h-2.88Z"/><path d="M700.75,72.44a3.51,3.51,0,0,1-2.6-1,4.13,4.13,0,0,1,0-5.4,3.53,3.53,0,0,1,2.61-1,3.7,3.7,0,0,1,2.65,1,3.57,3.57,0,0,1,1.06,2.74,3.88,3.88,0,0,1-.06.7h-5a1.22,1.22,0,0,0,.43.79,1.2,1.2,0,0,0,.79.3,2,2,0,0,0,.63-.08,1,1,0,0,0,.3-.17,2.6,2.6,0,0,0,.26-.28h2.4A3.17,3.17,0,0,1,703,71.77,3.67,3.67,0,0,1,700.75,72.44Zm1-5.21a1.42,1.42,0,0,0-.92-.31,1.31,1.31,0,0,0-.9.31,1.43,1.43,0,0,0-.46.83h2.72A1.18,1.18,0,0,0,701.7,67.23Z"/><path d="M712.14,70.46h.79v1.89H711.8a2.92,2.92,0,0,1-1.89-.54,2.24,2.24,0,0,1-.67-1.85v-3h-.68V65.1h.68V63.33h2.22V65.1h1.46v1.84h-1.46v3C711.46,70.3,711.69,70.46,712.14,70.46Z"/><path d="M716.31,62.73v3.43a2.38,2.38,0,0,1,2.2-1.14,2.62,2.62,0,0,1,2,.83,3.21,3.21,0,0,1,.77,2.26v4.24h-2.21V68.41a1.46,1.46,0,0,0-.37-1.08,1.53,1.53,0,0,0-2,0,1.46,1.46,0,0,0-.37,1.08v3.94h-2.22V62.73Z"/><path d="M725.9,72.44a3.53,3.53,0,0,1-2.6-1,3.69,3.69,0,0,1-1-2.71,3.63,3.63,0,0,1,1-2.69,3.52,3.52,0,0,1,2.6-1,3.75,3.75,0,0,1,2.66,1,3.56,3.56,0,0,1,1.05,2.74,5.12,5.12,0,0,1-.05.7h-5a1.27,1.27,0,0,0,.43.79,1.24,1.24,0,0,0,.79.3,2,2,0,0,0,.63-.08,1.22,1.22,0,0,0,.31-.17A2.73,2.73,0,0,0,727,70h2.41a3.22,3.22,0,0,1-1.25,1.76A3.73,3.73,0,0,1,725.9,72.44Zm1-5.21a1.4,1.4,0,0,0-.92-.31,1.33,1.33,0,0,0-.9.31,1.42,1.42,0,0,0-.45.83h2.71A1.18,1.18,0,0,0,726.85,67.23Z"/><path d="M733.72,67.28a2,2,0,0,1,.82-1.61,3.4,3.4,0,0,1,2.21-.65,3.74,3.74,0,0,1,2.26.63,2.23,2.23,0,0,1,.91,1.75h-2.28a.63.63,0,0,0-.26-.52,1.28,1.28,0,0,0-.66-.13c-.58,0-.87.17-.87.53s.35.54,1.07.66a8.79,8.79,0,0,1,2,.56,1.7,1.7,0,0,1,1.06,1.64,2,2,0,0,1-.87,1.66,3.58,3.58,0,0,1-2.19.64,3.81,3.81,0,0,1-2.21-.6,2.26,2.26,0,0,1-1-1.79H736c.06.44.37.66.94.66a1.1,1.1,0,0,0,.64-.18.55.55,0,0,0,.25-.47q0-.28-.42-.45a5.24,5.24,0,0,0-1-.29c-.4-.08-.8-.17-1.2-.29a2.29,2.29,0,0,1-1-.61A1.57,1.57,0,0,1,733.72,67.28Z"/><path d="M743.29,62.73v3.43A2.36,2.36,0,0,1,745.48,65a2.6,2.6,0,0,1,2,.83,3.17,3.17,0,0,1,.78,2.26v4.24h-2.21V68.41a1.5,1.5,0,0,0-.37-1.08,1.35,1.35,0,0,0-1-.39,1.32,1.32,0,0,0-1,.39,1.46,1.46,0,0,0-.37,1.08v3.94h-2.23V62.73Z"/><path d="M750.23,71.4a3.77,3.77,0,0,1-1-2.66,3.82,3.82,0,0,1,1-2.68,3.08,3.08,0,0,1,2.34-1,2.46,2.46,0,0,1,2.13,1V65.1h2.22v7.25H754.7v-1a2.52,2.52,0,0,1-2.16,1.14A3,3,0,0,1,750.23,71.4Zm4-1.35a1.78,1.78,0,0,0,.48-1.33,1.75,1.75,0,0,0-.48-1.32,1.58,1.58,0,0,0-1.11-.46,1.55,1.55,0,0,0-1.1.47,2.07,2.07,0,0,0,0,2.65,1.58,1.58,0,0,0,1.1.46A1.55,1.55,0,0,0,754.22,70.05Z"/><path d="M760.73,65.1v1.35A2.32,2.32,0,0,1,762.81,65v2.26h-.55a1.63,1.63,0,0,0-1.15.36,1.76,1.76,0,0,0-.38,1.28v3.43h-2.22V65.1Z"/><path d="M766.74,72.44a3.5,3.5,0,0,1-2.6-1,4.1,4.1,0,0,1,0-5.4,3.53,3.53,0,0,1,2.61-1,3.72,3.72,0,0,1,2.65,1,3.56,3.56,0,0,1,1.05,2.74,5.12,5.12,0,0,1-.05.7h-5a1.18,1.18,0,0,0,.43.79,1.19,1.19,0,0,0,.78.3,1.92,1.92,0,0,0,.63-.08,1.22,1.22,0,0,0,.31-.17,2.73,2.73,0,0,0,.25-.28h2.41A3.22,3.22,0,0,1,769,71.77,3.69,3.69,0,0,1,766.74,72.44Zm1-5.21a1.43,1.43,0,0,0-.93-.31,1.31,1.31,0,0,0-.89.31,1.38,1.38,0,0,0-.46.83h2.72A1.22,1.22,0,0,0,767.69,67.23Z"/><path d="M771.94,71.4a3.73,3.73,0,0,1-1-2.66,3.77,3.77,0,0,1,1-2.68,3.08,3.08,0,0,1,2.34-1,2.47,2.47,0,0,1,2.13,1V62.73h2.22v9.62h-2.22v-1a2.52,2.52,0,0,1-2.16,1.14A3,3,0,0,1,771.94,71.4Zm4-1.35a1.78,1.78,0,0,0,.48-1.33,1.75,1.75,0,0,0-.48-1.32,1.58,1.58,0,0,0-1.11-.46,1.55,1.55,0,0,0-1.1.47,2.07,2.07,0,0,0,0,2.65,1.58,1.58,0,0,0,1.1.46A1.55,1.55,0,0,0,775.93,70.05Z"/><path d="M786,64.82v.28h.93v1.84H786v5.41h-2.22V66.94h-.68V65.1h.68v-.28a2.51,2.51,0,0,1,.73-2,3.45,3.45,0,0,1,2.31-.64v1.89a1,1,0,0,0-.63.16A.79.79,0,0,0,786,64.82Zm2.12-2.09h2.22v9.62h-2.22Z"/><path d="M794,64.28a1.31,1.31,0,0,1-1.85-1.86A1.31,1.31,0,0,1,794,64.28Zm-2,8.07V65.1h2.22v7.25Z"/><path d="M796.17,71.4a3.76,3.76,0,0,1-1-2.66,3.81,3.81,0,0,1,1-2.68,3.08,3.08,0,0,1,2.34-1,2.46,2.46,0,0,1,2.13,1V65.1h2.22v7.21a3.86,3.86,0,0,1-.83,2.54,2.7,2.7,0,0,1-1.14.8,4.49,4.49,0,0,1-1.67.29,4.57,4.57,0,0,1-2.64-.68,2.67,2.67,0,0,1-1.1-2.07h2.18c.21.55.73.82,1.56.82a1.35,1.35,0,0,0,1-.41,1.77,1.77,0,0,0,.4-1.29v-1a2.52,2.52,0,0,1-2.16,1.14A3,3,0,0,1,796.17,71.4Zm4-1.35a1.78,1.78,0,0,0,.48-1.33,1.75,1.75,0,0,0-.48-1.32,1.58,1.58,0,0,0-1.11-.46,1.55,1.55,0,0,0-1.1.47,2.07,2.07,0,0,0,0,2.65,1.58,1.58,0,0,0,1.1.46A1.55,1.55,0,0,0,800.16,70.05Z"/><path d="M806.67,62.73v3.43a2.38,2.38,0,0,1,2.2-1.14,2.6,2.6,0,0,1,2,.83,3.16,3.16,0,0,1,.77,2.26v4.24h-2.21V68.41a1.46,1.46,0,0,0-.37-1.08,1.32,1.32,0,0,0-1-.39,1.35,1.35,0,0,0-1,.39,1.46,1.46,0,0,0-.37,1.08v3.94h-2.22V62.73Z"/><path d="M816.27,70.46h.79v1.89h-1.13a2.92,2.92,0,0,1-1.89-.54,2.24,2.24,0,0,1-.67-1.85v-3h-.68V65.1h.68V63.33h2.22V65.1h1.46v1.84h-1.46v3C815.59,70.3,815.82,70.46,816.27,70.46Z"/><path d="M824.83,72.44a3.53,3.53,0,0,1-2.6-1,3.69,3.69,0,0,1-1-2.71,3.59,3.59,0,0,1,1-2.69,3.52,3.52,0,0,1,2.6-1,3.7,3.7,0,0,1,2.65,1,3.53,3.53,0,0,1,1.06,2.74,5.12,5.12,0,0,1,0,.7h-5a1.27,1.27,0,0,0,.43.79,1.24,1.24,0,0,0,.79.3,2,2,0,0,0,.63-.08,1.22,1.22,0,0,0,.31-.17l.25-.28h2.4a3.16,3.16,0,0,1-1.24,1.76A3.73,3.73,0,0,1,824.83,72.44Zm.95-5.21a1.42,1.42,0,0,0-.92-.31,1.33,1.33,0,0,0-.9.31,1.42,1.42,0,0,0-.45.83h2.71A1.18,1.18,0,0,0,825.78,67.23Z"/><path d="M835.73,65.1l-2.34,3.51,2.34,3.74h-2.5l-1.18-1.89-1.17,1.89h-2.2L831,68.84l-2.35-3.74h2.5L832.36,67l1.17-1.88Z"/><path d="M838.6,66a2.46,2.46,0,0,1,2.13-1,3.08,3.08,0,0,1,2.34,1,3.81,3.81,0,0,1,1,2.68,3.76,3.76,0,0,1-1,2.66,3.07,3.07,0,0,1-2.33,1,2.45,2.45,0,0,1-2.14-1.14v4.51h-2.22V65.1h2.22Zm2.69,4a2.07,2.07,0,0,0,0-2.65,1.55,1.55,0,0,0-1.1-.47,1.58,1.58,0,0,0-1.11.46,1.75,1.75,0,0,0-.48,1.32,1.78,1.78,0,0,0,.48,1.33,1.55,1.55,0,0,0,1.11.47A1.58,1.58,0,0,0,841.29,70.06Z"/><path d="M848.17,72.44a3.5,3.5,0,0,1-2.6-1,4.1,4.1,0,0,1,0-5.4,3.53,3.53,0,0,1,2.61-1,3.72,3.72,0,0,1,2.65,1,3.56,3.56,0,0,1,1,2.74,3.91,3.91,0,0,1,0,.7h-5a1.22,1.22,0,0,0,.43.79,1.19,1.19,0,0,0,.78.3,1.88,1.88,0,0,0,.63-.08,1.07,1.07,0,0,0,.31-.17,2.73,2.73,0,0,0,.25-.28h2.41a3.22,3.22,0,0,1-1.25,1.76A3.67,3.67,0,0,1,848.17,72.44Zm1-5.21a1.43,1.43,0,0,0-.93-.31,1.31,1.31,0,0,0-.89.31,1.38,1.38,0,0,0-.46.83h2.72A1.22,1.22,0,0,0,849.12,67.23Z"/><path d="M855.16,65.1v1.35A2.33,2.33,0,0,1,857.24,65v2.26h-.54a1.65,1.65,0,0,0-1.16.36,1.76,1.76,0,0,0-.38,1.28v3.43h-2.22V65.1Z"/><path d="M860.12,64.28a1.27,1.27,0,0,1-.93.37,1.25,1.25,0,0,1-.92-.37,1.31,1.31,0,0,1,.92-2.24,1.28,1.28,0,0,1,.93.38,1.35,1.35,0,0,1,0,1.86Zm-2,8.07V65.1h2.22v7.25Z"/><path d="M865,72.44a3.5,3.5,0,0,1-2.6-1,4.1,4.1,0,0,1,0-5.4A3.53,3.53,0,0,1,865,65a3.72,3.72,0,0,1,2.65,1,3.56,3.56,0,0,1,1,2.74,5.12,5.12,0,0,1,0,.7h-5a1.18,1.18,0,0,0,.43.79,1.19,1.19,0,0,0,.78.3,2,2,0,0,0,.63-.08,1.22,1.22,0,0,0,.31-.17A2.73,2.73,0,0,0,866,70h2.41a3.22,3.22,0,0,1-1.25,1.76A3.69,3.69,0,0,1,865,72.44Zm.95-5.21a1.43,1.43,0,0,0-.93-.31,1.31,1.31,0,0,0-.89.31,1.38,1.38,0,0,0-.46.83h2.72A1.22,1.22,0,0,0,865.93,67.23Z"/><path d="M872,65.1v1.06a2.38,2.38,0,0,1,2.2-1.14,2.62,2.62,0,0,1,2,.83,3.16,3.16,0,0,1,.77,2.26v4.24h-2.21V68.41a1.46,1.46,0,0,0-.37-1.08,1.53,1.53,0,0,0-2,0,1.46,1.46,0,0,0-.37,1.08v3.94h-2.22V65.1Z"/><path d="M879,71.43A4.13,4.13,0,0,1,879,66a3.52,3.52,0,0,1,2.6-1,3.81,3.81,0,0,1,2.25.65A3.14,3.14,0,0,1,885,67.55h-2.41a1.06,1.06,0,0,0-1-.65,1.2,1.2,0,0,0-1.05.5,2.31,2.31,0,0,0-.35,1.32,2.27,2.27,0,0,0,.35,1.32,1.12,1.12,0,0,0,1,.5,1.18,1.18,0,0,0,.65-.14,1.16,1.16,0,0,0,.42-.51H885a3.26,3.26,0,0,1-1.24,1.86,3.66,3.66,0,0,1-2.24.69A3.53,3.53,0,0,1,879,71.43Z"/><path d="M889,72.44a3.51,3.51,0,0,1-2.6-1,4.13,4.13,0,0,1,0-5.4A3.54,3.54,0,0,1,889,65a3.7,3.7,0,0,1,2.65,1,3.57,3.57,0,0,1,1.06,2.74,3.88,3.88,0,0,1-.06.7h-5a1.27,1.27,0,0,0,.43.79,1.22,1.22,0,0,0,.79.3,2,2,0,0,0,.63-.08,1,1,0,0,0,.3-.17,2.6,2.6,0,0,0,.26-.28h2.4a3.17,3.17,0,0,1-1.25,1.76A3.67,3.67,0,0,1,889,72.44Zm1-5.21a1.42,1.42,0,0,0-.92-.31,1.31,1.31,0,0,0-.9.31,1.43,1.43,0,0,0-.46.83h2.72A1.18,1.18,0,0,0,890,67.23Z"/><path d="M897.89,71.41a3.86,3.86,0,0,1,0-5.39,4.14,4.14,0,0,1,5.4,0,3.89,3.89,0,0,1,0,5.39,3.74,3.74,0,0,1-2.69,1A3.78,3.78,0,0,1,897.89,71.41Zm3.77-1.34a1.86,1.86,0,0,0,.44-1.35,1.84,1.84,0,0,0-.45-1.34,1.44,1.44,0,0,0-1.08-.46,1.42,1.42,0,0,0-1.07.46,2.22,2.22,0,0,0,0,2.69,1.45,1.45,0,0,0,1.09.47A1.38,1.38,0,0,0,901.66,70.07Z"/><path d="M907.66,65.1v1.06A2.36,2.36,0,0,1,909.85,65a2.6,2.6,0,0,1,2,.83,3.17,3.17,0,0,1,.78,2.26v4.24h-2.21V68.41a1.5,1.5,0,0,0-.37-1.08,1.35,1.35,0,0,0-1-.39,1.32,1.32,0,0,0-1,.39,1.46,1.46,0,0,0-.37,1.08v3.94h-2.23V65.1Z"/><path d="M923.5,72.35l-.5-1.53h-3.28l-.51,1.53h-2.36L920,63.2h2.7l3.16,9.15Zm-3.22-3.22h2.16l-1.08-3.25Z"/><path d="M928.83,66A2.47,2.47,0,0,1,931,65a3.08,3.08,0,0,1,2.34,1,3.77,3.77,0,0,1,1,2.68,3.73,3.73,0,0,1-1,2.66,3,3,0,0,1-2.32,1,2.47,2.47,0,0,1-2.15-1.14v4.51h-2.22V65.1h2.22Zm2.69,4a2.07,2.07,0,0,0,0-2.65,1.55,1.55,0,0,0-1.1-.47,1.58,1.58,0,0,0-1.11.46,1.75,1.75,0,0,0-.48,1.32,1.78,1.78,0,0,0,.48,1.33,1.55,1.55,0,0,0,1.11.47A1.58,1.58,0,0,0,931.52,70.06Z"/><path d="M937.54,66a2.47,2.47,0,0,1,2.13-1,3.08,3.08,0,0,1,2.34,1,3.82,3.82,0,0,1,1,2.68,3.77,3.77,0,0,1-1,2.66,3,3,0,0,1-2.32,1,2.47,2.47,0,0,1-2.15-1.14v4.51h-2.22V65.1h2.22Zm2.69,4a2.07,2.07,0,0,0,0-2.65,1.55,1.55,0,0,0-1.1-.47,1.58,1.58,0,0,0-1.11.46,1.75,1.75,0,0,0-.48,1.32,1.78,1.78,0,0,0,.48,1.33,1.55,1.55,0,0,0,1.11.47A1.58,1.58,0,0,0,940.23,70.06Z"/><path d="M945.28,70.71l-1.46,3.5H943l1-3.5Z"/><path d="M949.37,66.84a3.27,3.27,0,0,1,1.22-1.28,3.35,3.35,0,0,1,1.72-.45,3.14,3.14,0,0,1,1.62.4,2.66,2.66,0,0,1,1,1v-1.3h1.2v7.12H955V71a2.8,2.8,0,0,1-1,1,3.2,3.2,0,0,1-1.62.41,3.24,3.24,0,0,1-1.72-.47,3.33,3.33,0,0,1-1.21-1.31,4.19,4.19,0,0,1-.44-1.93A4.06,4.06,0,0,1,949.37,66.84Zm5.27.53a2.36,2.36,0,0,0-.88-.92,2.54,2.54,0,0,0-2.43,0,2.31,2.31,0,0,0-.87.91,3,3,0,0,0-.32,1.4,3.08,3.08,0,0,0,.32,1.43,2.34,2.34,0,0,0,.87.92,2.47,2.47,0,0,0,2.43,0,2.3,2.3,0,0,0,.88-.92,3.06,3.06,0,0,0,.32-1.42A3,3,0,0,0,954.64,67.37Z"/><path d="M963.37,65.88a3,3,0,0,1,.81,2.27v4.2H963v-4a2.3,2.3,0,0,0-.53-1.63,1.92,1.92,0,0,0-1.46-.57,2,2,0,0,0-1.49.59,2.38,2.38,0,0,0-.55,1.7v3.94h-1.19V65.23H959v1a2.37,2.37,0,0,1,.95-.85,3.13,3.13,0,0,1,1.34-.29A2.9,2.9,0,0,1,963.37,65.88Z"/><path d="M965.75,66.84A3.27,3.27,0,0,1,967,65.56a3.36,3.36,0,0,1,1.73-.45,3.29,3.29,0,0,1,1.55.38,2.74,2.74,0,0,1,1.09,1V62.73h1.2v9.62h-1.2V71a2.76,2.76,0,0,1-1,1,3.13,3.13,0,0,1-1.61.41,3.27,3.27,0,0,1-2.94-1.78,4.19,4.19,0,0,1-.44-1.93A4.06,4.06,0,0,1,965.75,66.84Zm5.27.53a2.36,2.36,0,0,0-.88-.92,2.54,2.54,0,0,0-2.43,0,2.31,2.31,0,0,0-.87.91,3,3,0,0,0-.32,1.4,3.08,3.08,0,0,0,.32,1.43,2.34,2.34,0,0,0,.87.92,2.47,2.47,0,0,0,2.43,0,2.3,2.3,0,0,0,.88-.92,3.06,3.06,0,0,0,.32-1.42A3,3,0,0,0,971,67.37Z"/><path d="M987.38,63.22h2.4l-2.55,9.13h-2.55l-1.6-5.79-1.59,5.79H979l-2.59-9.13h2.38l1.58,6.57L982,63.22h2.52L986,69.68Z"/><path d="M993.56,72.44a3.5,3.5,0,0,1-2.6-1,4.1,4.1,0,0,1,0-5.4,3.53,3.53,0,0,1,2.61-1,3.7,3.7,0,0,1,2.65,1,3.56,3.56,0,0,1,1,2.74,3.91,3.91,0,0,1,0,.7h-5a1.22,1.22,0,0,0,.43.79,1.2,1.2,0,0,0,.79.3,2,2,0,0,0,.63-.08,1.13,1.13,0,0,0,.3-.17,2.6,2.6,0,0,0,.26-.28H997a3.17,3.17,0,0,1-1.25,1.76A3.67,3.67,0,0,1,993.56,72.44Zm1-5.21a1.43,1.43,0,0,0-.93-.31,1.31,1.31,0,0,0-.89.31,1.43,1.43,0,0,0-.46.83H995A1.22,1.22,0,0,0,994.51,67.23Z"/><path d="M1000.55,66a2.47,2.47,0,0,1,2.13-1,3.08,3.08,0,0,1,2.34,1,3.77,3.77,0,0,1,1,2.68,3.73,3.73,0,0,1-1,2.66,3,3,0,0,1-2.32,1,2.47,2.47,0,0,1-2.15-1.14v1h-2.22V62.73h2.22Zm2.69,4a2.07,2.07,0,0,0,0-2.65,1.55,1.55,0,0,0-1.1-.47,1.58,1.58,0,0,0-1.11.46,1.75,1.75,0,0,0-.48,1.32,1.78,1.78,0,0,0,.48,1.33,1.55,1.55,0,0,0,1.11.47A1.58,1.58,0,0,0,1003.24,70.06Z"/><path d="M1006.54,67.28a2,2,0,0,1,.82-1.61,3.45,3.45,0,0,1,2.22-.65,3.76,3.76,0,0,1,2.26.63,2.23,2.23,0,0,1,.91,1.75h-2.28a.63.63,0,0,0-.26-.52,1.31,1.31,0,0,0-.66-.13c-.58,0-.87.17-.87.53s.35.54,1.06.66a8.73,8.73,0,0,1,2,.56,1.7,1.7,0,0,1,1.06,1.64,2,2,0,0,1-.87,1.66,3.58,3.58,0,0,1-2.19.64,3.87,3.87,0,0,1-2.22-.6,2.22,2.22,0,0,1-1-1.79h2.28q.09.66.93.66a1.11,1.11,0,0,0,.65-.18.55.55,0,0,0,.25-.47q0-.28-.42-.45a5.24,5.24,0,0,0-1-.29c-.4-.08-.8-.17-1.2-.29a2.29,2.29,0,0,1-1-.61A1.58,1.58,0,0,1,1006.54,67.28Z"/><path d="M1015.92,64.28a1.31,1.31,0,0,1-1.85-1.86,1.31,1.31,0,0,1,1.85,1.86Zm-2,8.07V65.1h2.22v7.25Z"/><path d="M1020.78,70.46h.79v1.89h-1.13a3,3,0,0,1-1.89-.54,2.24,2.24,0,0,1-.67-1.85v-3h-.67V65.1h.67V63.33h2.22V65.1h1.46v1.84h-1.46v3C1020.1,70.3,1020.33,70.46,1020.78,70.46Z"/><path d="M1025.81,72.44a3.51,3.51,0,0,1-2.6-1,3.69,3.69,0,0,1-1-2.71,3.59,3.59,0,0,1,1-2.69,3.52,3.52,0,0,1,2.6-1,3.7,3.7,0,0,1,2.65,1,3.53,3.53,0,0,1,1.06,2.74,3.88,3.88,0,0,1-.06.7h-5a1.27,1.27,0,0,0,.43.79,1.22,1.22,0,0,0,.79.3,2,2,0,0,0,.63-.08,1,1,0,0,0,.3-.17,2.6,2.6,0,0,0,.26-.28h2.4a3.17,3.17,0,0,1-1.25,1.76A3.67,3.67,0,0,1,1025.81,72.44Zm1-5.21a1.42,1.42,0,0,0-.92-.31,1.31,1.31,0,0,0-.9.31,1.42,1.42,0,0,0-.45.83h2.71A1.18,1.18,0,0,0,1026.76,67.23Z"/><path d="M1031.83,70.71l-1.46,3.5h-.79l1-3.5Z"/><path d="M656.86,91.73h-5.69A2.25,2.25,0,0,0,653.48,94a2.17,2.17,0,0,0,1.28-.36,1.87,1.87,0,0,0,.72-1h1.28a3,3,0,0,1-1.15,1.67,3.44,3.44,0,0,1-2.13.65,3.63,3.63,0,0,1-1.81-.46,3.2,3.2,0,0,1-1.26-1.29,4.45,4.45,0,0,1,0-3.88,3.12,3.12,0,0,1,1.24-1.28,3.72,3.72,0,0,1,1.84-.45,3.64,3.64,0,0,1,1.8.44,3.06,3.06,0,0,1,1.2,1.22A3.56,3.56,0,0,1,656.9,91,6,6,0,0,1,656.86,91.73Zm-1.48-2.13a2,2,0,0,0-.81-.74,2.54,2.54,0,0,0-1.14-.25,2.2,2.2,0,0,0-1.53.57,2.33,2.33,0,0,0-.72,1.59h4.5A2.21,2.21,0,0,0,655.38,89.6Z"/><path d="M661.81,94.85l-1.68-2.65-1.63,2.65h-1.24l2.31-3.54-2.31-3.58h1.34l1.69,2.63,1.62-2.63h1.23l-2.29,3.52,2.3,3.6Z"/><path d="M666.19,88a3.14,3.14,0,0,1,1.62-.41,3.24,3.24,0,0,1,2.94,1.73,4.06,4.06,0,0,1,.44,1.92,4.19,4.19,0,0,1-.44,1.93,3.36,3.36,0,0,1-1.22,1.31,3.29,3.29,0,0,1-1.72.47,3.16,3.16,0,0,1-1.61-.41,3.06,3.06,0,0,1-1.06-1v4.69H664V87.73h1.18V89A2.79,2.79,0,0,1,666.19,88Zm3.46,1.84a2.25,2.25,0,0,0-.87-.91,2.43,2.43,0,0,0-1.22-.31,2.39,2.39,0,0,0-1.2.31,2.42,2.42,0,0,0-.89.93,2.86,2.86,0,0,0-.33,1.39,3,3,0,0,0,.33,1.42,2.36,2.36,0,0,0,2.09,1.24,2.44,2.44,0,0,0,1.22-.32,2.28,2.28,0,0,0,.87-.92,3,3,0,0,0,.33-1.43A2.84,2.84,0,0,0,669.65,89.86Z"/><path d="M673.57,85.23v9.62h-1.19V85.23Z"/><path d="M676.51,94.51a3.16,3.16,0,0,1-1.27-1.29,4,4,0,0,1-.46-2,3.83,3.83,0,0,1,.47-1.93,3.37,3.37,0,0,1,1.29-1.28,4,4,0,0,1,3.67,0,3.18,3.18,0,0,1,1.29,1.28,3.79,3.79,0,0,1,.48,1.93,3.87,3.87,0,0,1-.49,2,3.34,3.34,0,0,1-1.32,1.29,3.81,3.81,0,0,1-1.85.46A3.69,3.69,0,0,1,676.51,94.51Zm3-.88a2.29,2.29,0,0,0,.9-.9,3.24,3.24,0,0,0,0-2.91,2.16,2.16,0,0,0-.88-.89,2.44,2.44,0,0,0-1.19-.29,2.41,2.41,0,0,0-1.19.29,2.11,2.11,0,0,0-.86.89,3,3,0,0,0-.33,1.45,3.08,3.08,0,0,0,.32,1.47,2.15,2.15,0,0,0,.85.89,2.37,2.37,0,0,0,1.17.3A2.48,2.48,0,0,0,679.52,93.63Z"/><path d="M685.25,87.93a2.78,2.78,0,0,1,1.41-.33v1.22h-.31c-1.33,0-2,.72-2,2.16v3.87h-1.19V87.73h1.19v1.15A2.26,2.26,0,0,1,685.25,87.93Z"/><path d="M694.12,91.73h-5.69A2.25,2.25,0,0,0,690.74,94a2.17,2.17,0,0,0,1.28-.36,1.92,1.92,0,0,0,.72-1H694a3.12,3.12,0,0,1-1.15,1.67,3.44,3.44,0,0,1-2.13.65,3.61,3.61,0,0,1-1.81-.46,3.13,3.13,0,0,1-1.26-1.29,4.07,4.07,0,0,1-.45-2,4,4,0,0,1,.44-1.93,3.06,3.06,0,0,1,1.24-1.28,3.69,3.69,0,0,1,1.84-.45,3.6,3.6,0,0,1,1.79.44,3.15,3.15,0,0,1,1.21,1.22,3.56,3.56,0,0,1,.42,1.74C694.16,91.24,694.14,91.48,694.12,91.73Zm-1.48-2.13a2,2,0,0,0-.82-.74,2.5,2.5,0,0,0-1.13-.25,2.2,2.2,0,0,0-1.53.57,2.33,2.33,0,0,0-.72,1.59h4.5A2.21,2.21,0,0,0,692.64,89.6Z"/><path d="M700.69,88a3.14,3.14,0,0,1,1.62-.41,3.35,3.35,0,0,1,1.72.45,3.27,3.27,0,0,1,1.22,1.28,4.06,4.06,0,0,1,.44,1.92,4.19,4.19,0,0,1-.44,1.93A3.27,3.27,0,0,1,702.31,95a3.06,3.06,0,0,1-2.67-1.43v4.69h-1.18V87.73h1.18V89A2.86,2.86,0,0,1,700.69,88Zm3.46,1.84a2.19,2.19,0,0,0-.87-.91,2.43,2.43,0,0,0-1.22-.31,2.39,2.39,0,0,0-1.2.31,2.33,2.33,0,0,0-.88.93,2.75,2.75,0,0,0-.34,1.39,2.84,2.84,0,0,0,.34,1.42,2.3,2.3,0,0,0,.88.92,2.4,2.4,0,0,0,1.2.32,2.44,2.44,0,0,0,1.22-.32,2.21,2.21,0,0,0,.87-.92,3,3,0,0,0,.33-1.43A2.84,2.84,0,0,0,704.15,89.86Z"/><path d="M708.18,94.51a3.24,3.24,0,0,1-1.28-1.29,4.07,4.07,0,0,1-.46-2,3.84,3.84,0,0,1,.48-1.93,3.31,3.31,0,0,1,1.29-1.28,4,4,0,0,1,3.67,0,3.31,3.31,0,0,1,1.29,1.28,3.79,3.79,0,0,1,.48,1.93,3.87,3.87,0,0,1-.49,2,3.41,3.41,0,0,1-1.32,1.29A3.84,3.84,0,0,1,710,95,3.66,3.66,0,0,1,708.18,94.51Zm3-.88a2.29,2.29,0,0,0,.9-.9,2.87,2.87,0,0,0,.35-1.46,3,3,0,0,0-.34-1.45,2.18,2.18,0,0,0-.89-.89,2.37,2.37,0,0,0-1.18-.29,2.41,2.41,0,0,0-1.19.29,2.06,2.06,0,0,0-.86.89,3,3,0,0,0-.33,1.45,3.08,3.08,0,0,0,.32,1.47,2.09,2.09,0,0,0,.85.89,2.37,2.37,0,0,0,1.17.3A2.48,2.48,0,0,0,711.19,93.63Z"/><path d="M716.28,88.7v4.2a1,1,0,0,0,.23.73,1,1,0,0,0,.76.22h.87v1h-1.06a2.07,2.07,0,0,1-1.48-.46,1.94,1.94,0,0,1-.5-1.49V88.7h-.92v-1h.92v-1.8h1.18v1.8h1.86v1Z"/><path d="M725.67,91.73H720A2.25,2.25,0,0,0,722.29,94a2.17,2.17,0,0,0,1.28-.36,1.92,1.92,0,0,0,.72-1h1.28a3.06,3.06,0,0,1-1.15,1.67,3.44,3.44,0,0,1-2.13.65,3.61,3.61,0,0,1-1.81-.46,3.2,3.2,0,0,1-1.26-1.29,4.07,4.07,0,0,1-.45-2,4,4,0,0,1,.44-1.93,3.06,3.06,0,0,1,1.24-1.28,3.69,3.69,0,0,1,1.84-.45,3.6,3.6,0,0,1,1.79.44,3.15,3.15,0,0,1,1.21,1.22,3.56,3.56,0,0,1,.42,1.74A6,6,0,0,1,725.67,91.73Zm-1.48-2.13a2,2,0,0,0-.81-.74,2.57,2.57,0,0,0-1.14-.25,2.2,2.2,0,0,0-1.53.57,2.33,2.33,0,0,0-.72,1.59h4.5A2.21,2.21,0,0,0,724.19,89.6Z"/><path d="M732.48,88.38a3,3,0,0,1,.81,2.27v4.2h-1.17v-4a2.26,2.26,0,0,0-.54-1.63,1.88,1.88,0,0,0-1.45-.57,2,2,0,0,0-1.49.59,2.38,2.38,0,0,0-.55,1.7v3.94H726.9V87.73h1.19v1a2.37,2.37,0,0,1,.95-.85,3.13,3.13,0,0,1,1.34-.29A2.9,2.9,0,0,1,732.48,88.38Z"/><path d="M736.3,88.7v4.2a1,1,0,0,0,.23.73,1,1,0,0,0,.76.22h.87v1H737.1a2.07,2.07,0,0,1-1.48-.46,1.94,1.94,0,0,1-.5-1.49V88.7h-.92v-1h.92v-1.8h1.18v1.8h1.86v1Z"/><path d="M739.27,86.33a.75.75,0,0,1-.24-.57.78.78,0,0,1,.24-.57.75.75,0,0,1,.57-.23.71.71,0,0,1,.55.23.81.81,0,0,1,.23.57.78.78,0,0,1-.23.57.72.72,0,0,1-.55.24A.76.76,0,0,1,739.27,86.33Zm1.14,1.4v7.12h-1.18V87.73Z"/><path d="M742.06,89.34a3.27,3.27,0,0,1,1.22-1.28,3.35,3.35,0,0,1,1.72-.45,3.15,3.15,0,0,1,1.63.4,2.63,2.63,0,0,1,1,1v-1.3h1.2v7.12h-1.2V93.52a2.8,2.8,0,0,1-1,1A3.2,3.2,0,0,1,745,95a3.27,3.27,0,0,1-1.72-.47,3.33,3.33,0,0,1-1.21-1.31,4.19,4.19,0,0,1-.44-1.93A4.06,4.06,0,0,1,742.06,89.34Zm5.27.53a2.36,2.36,0,0,0-.88-.92,2.41,2.41,0,0,0-1.22-.31A2.33,2.33,0,0,0,744,89a2.27,2.27,0,0,0-.88.91,3,3,0,0,0-.32,1.4,3.08,3.08,0,0,0,.32,1.43,2.3,2.3,0,0,0,.88.92,2.34,2.34,0,0,0,1.2.32,2.41,2.41,0,0,0,1.22-.32,2.3,2.3,0,0,0,.88-.92,3.06,3.06,0,0,0,.32-1.42A3,3,0,0,0,747.33,89.87Z"/><path d="M751.67,85.23v9.62h-1.18V85.23Z"/><path d="M758.63,87.6v1.06a2.36,2.36,0,0,1,2.19-1.14,2.85,2.85,0,0,1,1.44.36,2.46,2.46,0,0,1,1,1,3.2,3.2,0,0,1,1-1,3,3,0,0,1,3.54.44,3.14,3.14,0,0,1,.78,2.27v4.24H766.4V90.91a1.46,1.46,0,0,0-.37-1.08,1.35,1.35,0,0,0-1-.39,1.32,1.32,0,0,0-1,.39,1.46,1.46,0,0,0-.37,1.08v3.94h-2.21V90.91a1.5,1.5,0,0,0-.37-1.08,1.35,1.35,0,0,0-1-.39,1.32,1.32,0,0,0-1,.39,1.46,1.46,0,0,0-.37,1.08v3.94H756.4V87.6Z"/><path d="M770.56,93.9a3.76,3.76,0,0,1-1-2.66,3.81,3.81,0,0,1,1-2.68,3.08,3.08,0,0,1,2.35-1,2.46,2.46,0,0,1,2.12,1V87.6h2.22v7.25H775v-1a2.52,2.52,0,0,1-2.16,1.14A3,3,0,0,1,770.56,93.9Zm4-1.35a1.78,1.78,0,0,0,.48-1.33,1.75,1.75,0,0,0-.48-1.32,1.58,1.58,0,0,0-1.1-.46,1.55,1.55,0,0,0-1.11.47,2.07,2.07,0,0,0,0,2.65,1.58,1.58,0,0,0,1.11.46A1.55,1.55,0,0,0,774.55,92.55Z"/><path d="M781.06,87.6V89a2.33,2.33,0,0,1,2.08-1.43v2.26h-.54a1.62,1.62,0,0,0-1.15.36,1.72,1.72,0,0,0-.39,1.28v3.43h-2.22V87.6Z"/><path d="M786.21,94.85H784V85.23h2.22v5.39l2.25-3h3l-3.11,3.7,3.11,3.55h-3L786.21,92Z"/><path d="M795.19,94.94a3.53,3.53,0,0,1-2.6-1,3.69,3.69,0,0,1-1-2.71,3.63,3.63,0,0,1,1-2.69,3.52,3.52,0,0,1,2.6-1,3.75,3.75,0,0,1,2.66,1,3.56,3.56,0,0,1,1,2.74,5.12,5.12,0,0,1,0,.7h-5a1.27,1.27,0,0,0,.43.79,1.24,1.24,0,0,0,.79.3,2,2,0,0,0,.63-.08,1.22,1.22,0,0,0,.31-.17,2.73,2.73,0,0,0,.25-.28h2.4a3.16,3.16,0,0,1-1.24,1.76A3.73,3.73,0,0,1,795.19,94.94Zm.95-5.21a1.4,1.4,0,0,0-.92-.31,1.33,1.33,0,0,0-.9.31,1.42,1.42,0,0,0-.45.83h2.71A1.18,1.18,0,0,0,796.14,89.73Z"/><path d="M803,93h.8v1.89h-1.13a2.92,2.92,0,0,1-1.89-.54,2.24,2.24,0,0,1-.67-1.85v-3h-.68V87.6h.68V85.83h2.22V87.6h1.46v1.84h-1.46v3C802.37,92.8,802.59,93,803,93Z"/><path d="M809.11,93.91a3.86,3.86,0,0,1,0-5.39,3.85,3.85,0,0,1,2.71-1,3.8,3.8,0,0,1,2.69,1,3.49,3.49,0,0,1,1.09,2.69,3.54,3.54,0,0,1-1.08,2.7,3.74,3.74,0,0,1-2.69,1A3.8,3.8,0,0,1,809.11,93.91Zm3.78-1.34a1.91,1.91,0,0,0,.44-1.35,1.8,1.8,0,0,0-.46-1.34,1.49,1.49,0,0,0-2.15,0,1.84,1.84,0,0,0-.45,1.34,1.87,1.87,0,0,0,.46,1.35,1.45,1.45,0,0,0,1.09.47A1.4,1.4,0,0,0,812.89,92.57Z"/><path d="M818.88,88.54a2.46,2.46,0,0,1,2.12-1,3.08,3.08,0,0,1,2.35,1,3.81,3.81,0,0,1,1,2.68,3.76,3.76,0,0,1-1,2.66,3.07,3.07,0,0,1-2.33,1,2.45,2.45,0,0,1-2.14-1.14v4.51h-2.22V87.6h2.22Zm2.69,4a2.07,2.07,0,0,0,0-2.65,1.55,1.55,0,0,0-1.11-.47,1.58,1.58,0,0,0-1.1.46,1.75,1.75,0,0,0-.48,1.32,1.78,1.78,0,0,0,.48,1.33,1.55,1.55,0,0,0,1.1.47A1.58,1.58,0,0,0,821.57,92.56Z"/><path d="M827.59,88.54a2.46,2.46,0,0,1,2.12-1,3.08,3.08,0,0,1,2.35,1,3.81,3.81,0,0,1,1,2.68,3.76,3.76,0,0,1-1,2.66,3.07,3.07,0,0,1-2.33,1,2.45,2.45,0,0,1-2.14-1.14v4.51h-2.22V87.6h2.22Zm2.69,4a2.07,2.07,0,0,0,0-2.65,1.55,1.55,0,0,0-1.1-.47,1.58,1.58,0,0,0-1.11.46,1.75,1.75,0,0,0-.48,1.32,1.78,1.78,0,0,0,.48,1.33,1.55,1.55,0,0,0,1.11.47A1.58,1.58,0,0,0,830.28,92.56Z"/><path d="M834.65,93.91a3.88,3.88,0,0,1,0-5.39,4.15,4.15,0,0,1,5.4,0,3.92,3.92,0,0,1,0,5.39,3.74,3.74,0,0,1-2.69,1A3.82,3.82,0,0,1,834.65,93.91Zm3.78-1.34a1.86,1.86,0,0,0,.44-1.35,1.84,1.84,0,0,0-.45-1.34,1.46,1.46,0,0,0-1.08-.46,1.42,1.42,0,0,0-1.07.46,2.22,2.22,0,0,0,0,2.69,1.45,1.45,0,0,0,1.09.47A1.38,1.38,0,0,0,838.43,92.57Z"/><path d="M844.42,87.6V89a2.33,2.33,0,0,1,2.08-1.43v2.26H846a1.62,1.62,0,0,0-1.15.36,1.72,1.72,0,0,0-.39,1.28v3.43H842.2V87.6Z"/><path d="M850.43,93h.79v1.89h-1.13a3,3,0,0,1-1.89-.54,2.24,2.24,0,0,1-.67-1.85v-3h-.67V87.6h.67V85.83h2.22V87.6h1.46v1.84h-1.46v3C849.75,92.8,850,93,850.43,93Z"/><path d="M857.31,87.6h2.22v7.25h-2.22V93.78a2.36,2.36,0,0,1-2.2,1.15,2.64,2.64,0,0,1-2-.83,3.19,3.19,0,0,1-.78-2.27V87.6h2.22v3.93a1.5,1.5,0,0,0,.37,1.09,1.31,1.31,0,0,0,1,.38,1.34,1.34,0,0,0,1-.38,1.54,1.54,0,0,0,.37-1.09Z"/><path d="M863.34,87.6v1.06a2.38,2.38,0,0,1,2.2-1.14,2.62,2.62,0,0,1,2,.83,3.21,3.21,0,0,1,.77,2.26v4.24h-2.21V90.91a1.46,1.46,0,0,0-.37-1.08,1.53,1.53,0,0,0-2,0,1.46,1.46,0,0,0-.37,1.08v3.94h-2.22V87.6Z"/><path d="M871.88,86.78a1.25,1.25,0,0,1-.92.37,1.27,1.27,0,0,1-.93-.37,1.35,1.35,0,0,1,0-1.86,1.28,1.28,0,0,1,.93-.38,1.32,1.32,0,0,1,.92,2.24Zm-2,8.07V87.6h2.23v7.25Z"/><path d="M876.74,93h.8v1.89H876.4a3,3,0,0,1-1.89-.54,2.28,2.28,0,0,1-.67-1.85v-3h-.67V87.6h.67V85.83h2.23V87.6h1.45v1.84h-1.45v3C876.07,92.8,876.29,93,876.74,93Z"/><path d="M880.72,86.78a1.25,1.25,0,0,1-.92.37,1.27,1.27,0,0,1-.93-.37,1.35,1.35,0,0,1,0-1.86,1.28,1.28,0,0,1,.93-.38,1.32,1.32,0,0,1,.92,2.24Zm-2,8.07V87.6h2.23v7.25Z"/><path d="M885.58,94.94a3.51,3.51,0,0,1-2.6-1,3.69,3.69,0,0,1-1-2.71,3.59,3.59,0,0,1,1-2.69,3.52,3.52,0,0,1,2.6-1,3.7,3.7,0,0,1,2.65,1,3.53,3.53,0,0,1,1.06,2.74,3.88,3.88,0,0,1-.06.7h-5a1.27,1.27,0,0,0,.43.79,1.22,1.22,0,0,0,.79.3,2,2,0,0,0,.63-.08,1,1,0,0,0,.3-.17,2.6,2.6,0,0,0,.26-.28h2.4a3.17,3.17,0,0,1-1.25,1.76A3.67,3.67,0,0,1,885.58,94.94Zm.95-5.21a1.42,1.42,0,0,0-.92-.31,1.31,1.31,0,0,0-.9.31,1.42,1.42,0,0,0-.45.83H887A1.18,1.18,0,0,0,886.53,89.73Z"/><path d="M889.86,89.78a2,2,0,0,1,.82-1.61,3.4,3.4,0,0,1,2.21-.65,3.71,3.71,0,0,1,2.26.63,2.2,2.2,0,0,1,.91,1.75h-2.27a.66.66,0,0,0-.27-.52,1.26,1.26,0,0,0-.66-.13c-.58,0-.87.17-.87.53s.36.54,1.07.66a8.64,8.64,0,0,1,2,.56,1.66,1.66,0,0,1,.76.61,1.72,1.72,0,0,1,.31,1,2,2,0,0,1-.88,1.66,3.58,3.58,0,0,1-2.19.64,3.84,3.84,0,0,1-2.21-.6,2.22,2.22,0,0,1-1-1.79h2.27c.06.44.37.66.94.66a1.08,1.08,0,0,0,.64-.18.55.55,0,0,0,.25-.47q0-.28-.42-.45a5.24,5.24,0,0,0-1-.29c-.4-.08-.8-.17-1.2-.29a2.29,2.29,0,0,1-1-.61A1.57,1.57,0,0,1,889.86,89.78Z"/><path d="M898.45,93.21,897,96.71h-.8l.95-3.5Z"/><path d="M902.55,89.34a3.25,3.25,0,0,1,1.21-1.28,3.37,3.37,0,0,1,1.72-.45,3.15,3.15,0,0,1,1.63.4,2.73,2.73,0,0,1,1,1v-1.3h1.19v7.12h-1.19V93.52a2.91,2.91,0,0,1-1,1,3.14,3.14,0,0,1-1.62.41,3.23,3.23,0,0,1-1.71-.47,3.19,3.19,0,0,1-1.21-1.31,4.07,4.07,0,0,1-.45-1.93A4,4,0,0,1,902.55,89.34Zm5.26.53a2.43,2.43,0,0,0-3.3-.92,2.31,2.31,0,0,0-.87.91,2.84,2.84,0,0,0-.33,1.4,3,3,0,0,0,.33,1.43,2.34,2.34,0,0,0,.87.92,2.45,2.45,0,0,0,2.42,0,2.3,2.3,0,0,0,.88-.92,3,3,0,0,0,.33-1.42A2.87,2.87,0,0,0,907.81,89.87Z"/><path d="M916.55,88.38a3.06,3.06,0,0,1,.8,2.27v4.2h-1.17v-4a2.25,2.25,0,0,0-.53-1.63,1.91,1.91,0,0,0-1.46-.57,1.93,1.93,0,0,0-1.48.59,2.39,2.39,0,0,0-.56,1.7v3.94H911V87.73h1.18v1a2.47,2.47,0,0,1,1-.85,3.08,3.08,0,0,1,1.33-.29A2.91,2.91,0,0,1,916.55,88.38Z"/><path d="M918.93,89.34a3.25,3.25,0,0,1,1.21-1.28,3.42,3.42,0,0,1,1.74-.45,3.25,3.25,0,0,1,1.54.38,2.84,2.84,0,0,1,1.1,1V85.23h1.19v9.62h-1.19V93.51a2.83,2.83,0,0,1-1,1,3.14,3.14,0,0,1-1.62.41,3.24,3.24,0,0,1-2.93-1.78,4.07,4.07,0,0,1-.45-1.93A4,4,0,0,1,918.93,89.34Zm5.26.53a2.43,2.43,0,0,0-3.3-.92,2.25,2.25,0,0,0-.87.91,2.84,2.84,0,0,0-.33,1.4,3,3,0,0,0,.33,1.43,2.28,2.28,0,0,0,.87.92,2.45,2.45,0,0,0,2.42,0,2.3,2.3,0,0,0,.88-.92,3,3,0,0,0,.33-1.42A2.87,2.87,0,0,0,924.19,89.87Z"/><path d="M930.5,86.33a.75.75,0,0,1-.24-.57.78.78,0,0,1,.24-.57.74.74,0,0,1,.57-.23.71.71,0,0,1,.55.23.81.81,0,0,1,.23.57.78.78,0,0,1-.23.57.72.72,0,0,1-.55.24A.75.75,0,0,1,930.5,86.33Zm1.14,1.4v7.12h-1.18V87.73Z"/><path d="M934.73,88.7v4.2a1,1,0,0,0,.23.73,1,1,0,0,0,.76.22h.87v1h-1.06a2.13,2.13,0,0,1-1.49-.46,1.94,1.94,0,0,1-.49-1.49V88.7h-.92v-1h.92v-1.8h1.18v1.8h1.86v1Z"/><path d="M944.12,91.73h-5.69A2.25,2.25,0,0,0,940.74,94a2.17,2.17,0,0,0,1.28-.36,1.92,1.92,0,0,0,.72-1H944a3.06,3.06,0,0,1-1.15,1.67,3.44,3.44,0,0,1-2.13.65,3.61,3.61,0,0,1-1.81-.46,3.2,3.2,0,0,1-1.26-1.29,4.07,4.07,0,0,1-.45-2,4,4,0,0,1,.44-1.93,3.06,3.06,0,0,1,1.24-1.28,3.69,3.69,0,0,1,1.84-.45,3.6,3.6,0,0,1,1.79.44,3.09,3.09,0,0,1,1.21,1.22,3.56,3.56,0,0,1,.42,1.74A6,6,0,0,1,944.12,91.73Zm-1.48-2.13a2,2,0,0,0-.81-.74,2.57,2.57,0,0,0-1.14-.25,2.2,2.2,0,0,0-1.53.57,2.33,2.33,0,0,0-.72,1.59h4.5A2.21,2.21,0,0,0,942.64,89.6Z"/><path d="M947.43,87.93a2.78,2.78,0,0,1,1.41-.33v1.22h-.31c-1.33,0-2,.72-2,2.16v3.87h-1.18V87.73h1.18v1.15A2.33,2.33,0,0,1,947.43,87.93Z"/><path d="M949.84,89.34a3.25,3.25,0,0,1,1.21-1.28,3.38,3.38,0,0,1,1.73-.45,3.14,3.14,0,0,1,1.62.4,2.66,2.66,0,0,1,1,1v-1.3h1.2v7.12h-1.2V93.52a2.76,2.76,0,0,1-1,1,3.14,3.14,0,0,1-1.62.41,3.24,3.24,0,0,1-2.92-1.78,4.07,4.07,0,0,1-.44-1.93A3.94,3.94,0,0,1,949.84,89.34Zm5.27.53a2.36,2.36,0,0,0-.88-.92,2.43,2.43,0,0,0-1.22-.31,2.4,2.4,0,0,0-1.21.31,2.31,2.31,0,0,0-.87.91,2.84,2.84,0,0,0-.32,1.4,3,3,0,0,0,.32,1.43,2.34,2.34,0,0,0,.87.92,2.4,2.4,0,0,0,1.21.32,2.44,2.44,0,0,0,1.22-.32,2.3,2.3,0,0,0,.88-.92,3.06,3.06,0,0,0,.32-1.42A3,3,0,0,0,955.11,89.87Z"/><path d="M959.71,88.7v4.2a1,1,0,0,0,.22.73,1.06,1.06,0,0,0,.77.22h.87v1H960.5a2.08,2.08,0,0,1-1.48-.46,1.94,1.94,0,0,1-.5-1.49V88.7h-.92v-1h.92v-1.8h1.19v1.8h1.86v1Z"/><path d="M969.09,91.73H963.4A2.25,2.25,0,0,0,965.71,94a2.17,2.17,0,0,0,1.28-.36,1.82,1.82,0,0,0,.72-1H969a3,3,0,0,1-1.15,1.67,3.44,3.44,0,0,1-2.13.65,3.63,3.63,0,0,1-1.81-.46,3.26,3.26,0,0,1-1.26-1.29,4.45,4.45,0,0,1,0-3.88,3.12,3.12,0,0,1,1.24-1.28,3.72,3.72,0,0,1,1.84-.45,3.64,3.64,0,0,1,1.8.44,3.06,3.06,0,0,1,1.2,1.22,3.56,3.56,0,0,1,.42,1.74A6,6,0,0,1,969.09,91.73Zm-1.48-2.13a2,2,0,0,0-.81-.74,2.51,2.51,0,0,0-1.14-.25,2.2,2.2,0,0,0-1.53.57,2.33,2.33,0,0,0-.72,1.59h4.5A2.21,2.21,0,0,0,967.61,89.6Z"/><path d="M974.88,88.7v4.2a1,1,0,0,0,.22.73,1.06,1.06,0,0,0,.77.22h.87v1h-1.07a2.08,2.08,0,0,1-1.48-.46,1.94,1.94,0,0,1-.49-1.49V88.7h-.93v-1h.93v-1.8h1.18v1.8h1.86v1Z"/><path d="M982.79,87.94a2.44,2.44,0,0,1,1,1,3.59,3.59,0,0,1,.37,1.68v4.2H983v-4a2.26,2.26,0,0,0-.54-1.63,1.88,1.88,0,0,0-1.45-.57,2,2,0,0,0-1.49.59,2.38,2.38,0,0,0-.55,1.7v3.94H977.8V85.23H979v3.51a2.34,2.34,0,0,1,1-.85,3.32,3.32,0,0,1,1.39-.29A3,3,0,0,1,982.79,87.94Z"/><path d="M992.22,91.73h-5.69A2.25,2.25,0,0,0,988.84,94a2.17,2.17,0,0,0,1.28-.36,1.92,1.92,0,0,0,.72-1h1.28A3.06,3.06,0,0,1,991,94.32a3.44,3.44,0,0,1-2.13.65,3.61,3.61,0,0,1-1.81-.46,3.2,3.2,0,0,1-1.26-1.29,4.07,4.07,0,0,1-.45-2,4,4,0,0,1,.44-1.93A3.06,3.06,0,0,1,987,88.06a3.69,3.69,0,0,1,1.84-.45,3.6,3.6,0,0,1,1.79.44,3.15,3.15,0,0,1,1.21,1.22,3.56,3.56,0,0,1,.42,1.74A6,6,0,0,1,992.22,91.73Zm-1.48-2.13a2,2,0,0,0-.81-.74,2.57,2.57,0,0,0-1.14-.25,2.2,2.2,0,0,0-1.53.57,2.33,2.33,0,0,0-.72,1.59H991A2.21,2.21,0,0,0,990.74,89.6Z"/><path d="M996.56,89.34a3.29,3.29,0,0,1,1.23-1.28,3.54,3.54,0,0,1,1.8-.45,3.44,3.44,0,0,1,2.16.64,3,3,0,0,1,1.13,1.76h-1.27a1.87,1.87,0,0,0-.71-1,2.21,2.21,0,0,0-1.31-.38,2.08,2.08,0,0,0-1.64.7,2.86,2.86,0,0,0-.62,2,2.91,2.91,0,0,0,.62,2,2.09,2.09,0,0,0,1.64.71,2.24,2.24,0,0,0,1.3-.37,1.83,1.83,0,0,0,.72-1h1.27a3.14,3.14,0,0,1-1.14,1.75,3.44,3.44,0,0,1-2.15.66,3.54,3.54,0,0,1-1.8-.46,3.19,3.19,0,0,1-1.23-1.29,4.5,4.5,0,0,1,0-3.88Z"/><path d="M1010.41,87.73v7.12h-1.19v-1a2.35,2.35,0,0,1-.94.85,3,3,0,0,1-1.33.3,3.22,3.22,0,0,1-1.5-.34,2.46,2.46,0,0,1-1-1,3.37,3.37,0,0,1-.39-1.68V87.73h1.17v4a2.26,2.26,0,0,0,.54,1.62,1.88,1.88,0,0,0,1.45.57,2,2,0,0,0,1.5-.59,2.43,2.43,0,0,0,.54-1.7V87.73Z"/><path d="M1014.12,87.93a2.78,2.78,0,0,1,1.41-.33v1.22h-.31c-1.33,0-2,.72-2,2.16v3.87H1012V87.73h1.19v1.15A2.33,2.33,0,0,1,1014.12,87.93Z"/><path d="M1018.6,87.93a2.83,2.83,0,0,1,1.41-.33v1.22h-.31c-1.32,0-2,.72-2,2.16v3.87h-1.18V87.73h1.18v1.15A2.4,2.4,0,0,1,1018.6,87.93Z"/><path d="M1027.47,91.73h-5.69a2.27,2.27,0,0,0,.72,1.64,2.29,2.29,0,0,0,1.6.6,2.19,2.19,0,0,0,1.28-.36,1.92,1.92,0,0,0,.72-1h1.27a3,3,0,0,1-1.14,1.67,3.46,3.46,0,0,1-2.13.65,3.64,3.64,0,0,1-1.82-.46,3.17,3.17,0,0,1-1.25-1.29,4,4,0,0,1-.46-2,4.1,4.1,0,0,1,.44-1.93,3.09,3.09,0,0,1,1.25-1.28,3.66,3.66,0,0,1,1.84-.45,3.62,3.62,0,0,1,1.79.44,3.06,3.06,0,0,1,1.2,1.22,3.56,3.56,0,0,1,.42,1.74A6,6,0,0,1,1027.47,91.73ZM1026,89.6a2,2,0,0,0-.81-.74,2.51,2.51,0,0,0-1.14-.25,2.19,2.19,0,0,0-1.52.57,2.33,2.33,0,0,0-.73,1.59h4.5A2.21,2.21,0,0,0,1026,89.6Z"/><path d="M1034.29,88.38a3.06,3.06,0,0,1,.8,2.27v4.2h-1.17v-4a2.25,2.25,0,0,0-.53-1.63,1.89,1.89,0,0,0-1.46-.57,1.93,1.93,0,0,0-1.48.59,2.39,2.39,0,0,0-.56,1.7v3.94h-1.18V87.73h1.18v1a2.47,2.47,0,0,1,1-.85,3.08,3.08,0,0,1,1.33-.29A2.91,2.91,0,0,1,1034.29,88.38Z"/><path d="M1038.11,88.7v4.2a1,1,0,0,0,.22.73,1.06,1.06,0,0,0,.77.22h.87v1h-1.07a2.08,2.08,0,0,1-1.48-.46,1.94,1.94,0,0,1-.49-1.49V88.7H1036v-1h.93v-1.8h1.18v1.8H1040v1Z"/><path d="M1044.08,91.17V85.72h2.22v5.45a1.78,1.78,0,0,0,.4,1.26,1.51,1.51,0,0,0,1.18.44,1.54,1.54,0,0,0,1.2-.44,1.74,1.74,0,0,0,.42-1.26V85.72h2.22v5.45a3.76,3.76,0,0,1-.57,2.09,3.38,3.38,0,0,1-1.43,1.28,4.33,4.33,0,0,1-1.87.4,3.85,3.85,0,0,1-2.68-1A3.54,3.54,0,0,1,1044.08,91.17Z"/><path d="M1053.25,94.85V85.72h2.23v9.13Z"/></g></g></svg>