<svg xmlns="http://www.w3.org/2000/svg" viewBox="0 0 1252.1 84.14"><defs><style>.cls-1{fill:#fff;}</style></defs><g id="图层_2" data-name="图层 2"><g id="图层_1-2" data-name="图层 1"><rect class="cls-1" width="1252.1" height="84.14"/><path d="M91.17,22v16.4a5.87,5.87,0,0,0,1.54,4.4,7,7,0,0,0,8.58,0,5.83,5.83,0,0,0,1.54-4.4V22h4.22V38.35a9.85,9.85,0,0,1-1.37,5.33A8.5,8.5,0,0,1,102,46.94a12.48,12.48,0,0,1-10.11,0,8.3,8.3,0,0,1-3.61-3.26A10,10,0,0,1,87,38.35V22Z"/><path d="M115.7,22V47.75h-4.21V22Z"/><path d="M655.84,23.09a2.32,2.32,0,0,1,.65.8,2.29,2.29,0,0,1,.24,1,2.21,2.21,0,0,1-.35,1.24,2.31,2.31,0,0,1-1,.87,3.68,3.68,0,0,1-1.58.32H650.4V18.29h3.25a3.7,3.7,0,0,1,1.57.3,2.25,2.25,0,0,1,1,.83,2.15,2.15,0,0,1,.32,1.17,2,2,0,0,1-.43,1.33,2.43,2.43,0,0,1-1.15.76A1.85,1.85,0,0,1,655.84,23.09Zm-4.26-.89h2a1.91,1.91,0,0,0,1.29-.39,1.52,1.52,0,0,0,0-2.16,2,2,0,0,0-1.31-.39h-2ZM655.05,26a1.43,1.43,0,0,0,.5-1.16,1.46,1.46,0,0,0-.52-1.19,2.1,2.1,0,0,0-1.39-.43h-2.06v3.19h2.1A2,2,0,0,0,655.05,26Z"/><path d="M658,21.84a3.25,3.25,0,0,1,1.21-1.28,3.37,3.37,0,0,1,1.72-.45,3.15,3.15,0,0,1,1.63.4,2.73,2.73,0,0,1,1,1v-1.3h1.19v7.12H663.6V26a2.91,2.91,0,0,1-1.05,1,3.14,3.14,0,0,1-1.62.41,3.29,3.29,0,0,1-1.72-.47,3.24,3.24,0,0,1-1.2-1.31,4.07,4.07,0,0,1-.45-1.93A4,4,0,0,1,658,21.84Zm5.26.53a2.43,2.43,0,0,0-3.3-.92,2.25,2.25,0,0,0-.87.91,2.84,2.84,0,0,0-.33,1.4,3,3,0,0,0,.33,1.43,2.28,2.28,0,0,0,.87.92,2.45,2.45,0,0,0,2.42,0,2.3,2.3,0,0,0,.88-.92,3,3,0,0,0,.33-1.42A2.87,2.87,0,0,0,663.27,22.37Z"/><path d="M667.48,27.19a2.53,2.53,0,0,1-1-.78,2.07,2.07,0,0,1-.42-1.15h1.22a1.23,1.23,0,0,0,.5.87,1.94,1.94,0,0,0,1.18.34,1.69,1.69,0,0,0,1.06-.3.92.92,0,0,0,.39-.76.73.73,0,0,0-.41-.69,5.63,5.63,0,0,0-1.29-.45,9.81,9.81,0,0,1-1.29-.42,2.37,2.37,0,0,1-.86-.64,1.79,1.79,0,0,1,0-2.11,2,2,0,0,1,.92-.72,3.28,3.28,0,0,1,1.37-.27,2.93,2.93,0,0,1,1.91.6,2.18,2.18,0,0,1,.78,1.63H670.3a1.18,1.18,0,0,0-.44-.89,1.66,1.66,0,0,0-1.1-.34,1.71,1.71,0,0,0-1,.27.84.84,0,0,0-.37.72.81.81,0,0,0,.22.58,1.68,1.68,0,0,0,.58.36c.22.09.54.19,1,.31a9.82,9.82,0,0,1,1.25.4,2.23,2.23,0,0,1,.82.61,1.62,1.62,0,0,1,.36,1.05,1.89,1.89,0,0,1-.32,1.06,2.19,2.19,0,0,1-.92.73,3.24,3.24,0,0,1-1.36.27A3.85,3.85,0,0,1,667.48,27.19Z"/><path d="M679.31,24.23h-5.69a2.25,2.25,0,0,0,2.31,2.24,2.17,2.17,0,0,0,1.28-.36,1.87,1.87,0,0,0,.72-1h1.28a3,3,0,0,1-1.15,1.67,3.44,3.44,0,0,1-2.13.65,3.63,3.63,0,0,1-1.81-.46,3.17,3.17,0,0,1-1.25-1.29,4,4,0,0,1-.46-1.95,4.1,4.1,0,0,1,.44-1.93,3.12,3.12,0,0,1,1.24-1.28,3.72,3.72,0,0,1,1.84-.45,3.64,3.64,0,0,1,1.8.44,3.06,3.06,0,0,1,1.2,1.22,3.56,3.56,0,0,1,.42,1.74A6,6,0,0,1,679.31,24.23Zm-1.48-2.13a2,2,0,0,0-.81-.74,2.51,2.51,0,0,0-1.14-.25,2.2,2.2,0,0,0-1.53.57,2.33,2.33,0,0,0-.72,1.59h4.5A2.21,2.21,0,0,0,677.83,22.1Z"/><path d="M685,27a3.24,3.24,0,0,1-1.28-1.29,4.07,4.07,0,0,1-.46-1.95,3.84,3.84,0,0,1,.48-1.93A3.24,3.24,0,0,1,685,20.56a4,4,0,0,1,3.67,0,3.31,3.31,0,0,1,1.29,1.28,3.78,3.78,0,0,1,.47,1.93,3.86,3.86,0,0,1-.48,1.95A3.41,3.41,0,0,1,688.61,27a3.84,3.84,0,0,1-1.85.46A3.66,3.66,0,0,1,685,27Zm3-.88a2.29,2.29,0,0,0,.9-.9,2.87,2.87,0,0,0,.35-1.46,3,3,0,0,0-.34-1.45,2.18,2.18,0,0,0-.89-.89,2.57,2.57,0,0,0-2.37,0,2.06,2.06,0,0,0-.86.89,3,3,0,0,0-.33,1.45,3.08,3.08,0,0,0,.32,1.47,2.09,2.09,0,0,0,.85.89,2.37,2.37,0,0,0,1.17.3A2.51,2.51,0,0,0,688,26.13Z"/><path d="M697.19,20.88a3.06,3.06,0,0,1,.8,2.27v4.2h-1.17v-4a2.25,2.25,0,0,0-.53-1.63,1.89,1.89,0,0,0-1.46-.57,1.93,1.93,0,0,0-1.48.59,2.39,2.39,0,0,0-.56,1.7v3.94h-1.18V20.23h1.18v1a2.37,2.37,0,0,1,1-.84,3,3,0,0,1,1.33-.3A2.91,2.91,0,0,1,697.19,20.88Z"/><path d="M704.12,21.2v4.2a1,1,0,0,0,.22.73,1,1,0,0,0,.76.22H706v1h-1.07a2.13,2.13,0,0,1-1.48-.45,2,2,0,0,1-.5-1.5V21.2H702v-1h.92v-1.8h1.19v1.8H706v1Z"/><path d="M712,20.44a2.36,2.36,0,0,1,1,1,3.48,3.48,0,0,1,.37,1.68v4.2h-1.17v-4a2.25,2.25,0,0,0-.53-1.63,1.88,1.88,0,0,0-1.45-.57,2,2,0,0,0-1.49.59,2.39,2.39,0,0,0-.56,1.7v3.94H707V17.73h1.18v3.51a2.33,2.33,0,0,1,1-.84,3.15,3.15,0,0,1,1.39-.3A3,3,0,0,1,712,20.44Z"/><path d="M721.46,24.23h-5.7a2.31,2.31,0,0,0,.73,1.64,2.26,2.26,0,0,0,1.59.6,2.17,2.17,0,0,0,1.28-.36,1.92,1.92,0,0,0,.72-1h1.27a3,3,0,0,1-1.14,1.67,3.44,3.44,0,0,1-2.13.65,3.61,3.61,0,0,1-1.81-.46A3.13,3.13,0,0,1,715,25.72a4.07,4.07,0,0,1-.45-1.95,4,4,0,0,1,.44-1.93,3.06,3.06,0,0,1,1.24-1.28,3.66,3.66,0,0,1,1.84-.45,3.62,3.62,0,0,1,1.79.44,3.15,3.15,0,0,1,1.21,1.22,3.56,3.56,0,0,1,.42,1.74C721.5,23.74,721.48,24,721.46,24.23ZM720,22.1a2,2,0,0,0-.82-.74,2.5,2.5,0,0,0-1.13-.25,2.2,2.2,0,0,0-1.53.57,2.33,2.33,0,0,0-.72,1.59h4.5A2.21,2.21,0,0,0,720,22.1Z"/><path d="M728.7,21.2h-1.5v6.15H726V21.2h-.92v-1H726v-.51a2.24,2.24,0,0,1,.62-1.75,2.91,2.91,0,0,1,2-.55v1a1.59,1.59,0,0,0-1.1.3,1.36,1.36,0,0,0-.32,1v.51h1.5Z"/><path d="M729.75,18.83a.78.78,0,0,1-.23-.57.81.81,0,0,1,.23-.57.77.77,0,0,1,.57-.23.75.75,0,0,1,.56.23.8.8,0,0,1,.22.57.77.77,0,0,1-.22.57.76.76,0,0,1-.56.24A.78.78,0,0,1,729.75,18.83Zm1.15,1.4v7.12h-1.19V20.23Z"/><path d="M738.12,20.88a3,3,0,0,1,.81,2.27v4.2h-1.17v-4a2.3,2.3,0,0,0-.53-1.63,1.91,1.91,0,0,0-1.46-.57,2,2,0,0,0-1.49.59,2.38,2.38,0,0,0-.55,1.7v3.94h-1.18V20.23h1.18v1a2.25,2.25,0,0,1,1-.84,2.92,2.92,0,0,1,1.33-.3A2.89,2.89,0,0,1,738.12,20.88Z"/><path d="M740.5,21.84a3.27,3.27,0,0,1,1.22-1.28,3.36,3.36,0,0,1,1.73-.45,3.29,3.29,0,0,1,1.55.38,2.74,2.74,0,0,1,1.09,1V17.73h1.2v9.62h-1.2V26a2.76,2.76,0,0,1-1,1,3.11,3.11,0,0,1-1.61.41,3.27,3.27,0,0,1-2.94-1.78,4.19,4.19,0,0,1-.44-1.93A4.09,4.09,0,0,1,740.5,21.84Zm5.27.53a2.36,2.36,0,0,0-.88-.92,2.41,2.41,0,0,0-1.22-.31,2.33,2.33,0,0,0-1.2.31,2.27,2.27,0,0,0-.88.91,3,3,0,0,0-.32,1.4,3.08,3.08,0,0,0,.32,1.43,2.3,2.3,0,0,0,.88.92,2.34,2.34,0,0,0,1.2.32,2.41,2.41,0,0,0,1.22-.32,2.3,2.3,0,0,0,.88-.92,3.06,3.06,0,0,0,.32-1.42A3,3,0,0,0,745.77,22.37Z"/><path d="M749,18.83a.75.75,0,0,1-.24-.57.78.78,0,0,1,.24-.57.74.74,0,0,1,.57-.23.73.73,0,0,1,.55.23.81.81,0,0,1,.23.57.78.78,0,0,1-.23.57.74.74,0,0,1-.55.24A.75.75,0,0,1,749,18.83Zm1.14,1.4v7.12h-1.18V20.23Z"/><path d="M757.34,20.88a3,3,0,0,1,.8,2.27v4.2H757v-4a2.25,2.25,0,0,0-.53-1.63,1.89,1.89,0,0,0-1.46-.57,1.94,1.94,0,0,0-1.48.59,2.39,2.39,0,0,0-.56,1.7v3.94h-1.18V20.23h1.18v1a2.37,2.37,0,0,1,1-.84,3,3,0,0,1,1.33-.3A2.91,2.91,0,0,1,757.34,20.88Z"/><path d="M764.27,20.51a2.69,2.69,0,0,1,1,1v-1.3h1.19v7.28a3.62,3.62,0,0,1-.41,1.73,3,3,0,0,1-1.19,1.19,3.63,3.63,0,0,1-1.8.43,3.94,3.94,0,0,1-2.34-.66,2.6,2.6,0,0,1-1.11-1.81h1.17a1.89,1.89,0,0,0,.81,1.05,2.69,2.69,0,0,0,1.47.39,2.15,2.15,0,0,0,1.59-.61,2.31,2.31,0,0,0,.62-1.71V26a2.88,2.88,0,0,1-1,1,3.05,3.05,0,0,1-1.62.42,3.24,3.24,0,0,1-2.93-1.78,4.07,4.07,0,0,1-.44-1.93,4,4,0,0,1,.44-1.92,3.25,3.25,0,0,1,1.21-1.28,3.37,3.37,0,0,1,1.72-.45A3.14,3.14,0,0,1,764.27,20.51Zm.71,1.86a2.3,2.3,0,0,0-.88-.92,2.52,2.52,0,0,0-2.42,0,2.31,2.31,0,0,0-.87.91,2.84,2.84,0,0,0-.33,1.4,3,3,0,0,0,.33,1.43,2.34,2.34,0,0,0,.87.92,2.45,2.45,0,0,0,2.42,0,2.23,2.23,0,0,0,.88-.92,3,3,0,0,0,.33-1.42A2.87,2.87,0,0,0,765,22.37Z"/><path d="M769.19,27.19a2.53,2.53,0,0,1-1-.78,2.15,2.15,0,0,1-.42-1.15H769a1.23,1.23,0,0,0,.5.87,1.94,1.94,0,0,0,1.18.34,1.72,1.72,0,0,0,1.07-.3.92.92,0,0,0,.39-.76.74.74,0,0,0-.42-.69,5.63,5.63,0,0,0-1.29-.45,9.81,9.81,0,0,1-1.29-.42,2.45,2.45,0,0,1-.86-.64,1.79,1.79,0,0,1,0-2.11,2.1,2.1,0,0,1,.92-.72,3.32,3.32,0,0,1,1.37-.27,2.93,2.93,0,0,1,1.91.6,2.18,2.18,0,0,1,.78,1.63H772a1.18,1.18,0,0,0-.44-.89,1.66,1.66,0,0,0-1.1-.34,1.74,1.74,0,0,0-1,.27.84.84,0,0,0-.37.72.81.81,0,0,0,.22.58,1.78,1.78,0,0,0,.58.36c.23.09.54.19,1,.31a9.82,9.82,0,0,1,1.25.4,2.27,2.27,0,0,1,.83.61,1.68,1.68,0,0,1,.35,1.05,1.89,1.89,0,0,1-.32,1.06,2.19,2.19,0,0,1-.92.73,3.24,3.24,0,0,1-1.36.27A3.85,3.85,0,0,1,769.19,27.19Z"/><path d="M780.57,21.2h-1.5v6.15h-1.18V21.2H777v-1h.92v-.51a2.24,2.24,0,0,1,.62-1.75,2.91,2.91,0,0,1,2-.55v1a1.59,1.59,0,0,0-1.1.3,1.36,1.36,0,0,0-.32,1v.51h1.5Z"/><path d="M783.66,20.43a2.78,2.78,0,0,1,1.41-.33v1.22h-.32q-2,0-2,2.16v3.87h-1.19V20.23h1.19v1.15A2.26,2.26,0,0,1,783.66,20.43Z"/><path d="M787.36,27a3.16,3.16,0,0,1-1.27-1.29,4,4,0,0,1-.46-1.95,3.83,3.83,0,0,1,.47-1.93,3.37,3.37,0,0,1,1.29-1.28,4,4,0,0,1,3.67,0,3.18,3.18,0,0,1,1.29,1.28,4.12,4.12,0,0,1,0,3.88A3.34,3.34,0,0,1,791,27a3.81,3.81,0,0,1-1.85.46A3.69,3.69,0,0,1,787.36,27Zm3-.88a2.29,2.29,0,0,0,.9-.9,3.24,3.24,0,0,0,0-2.91,2.22,2.22,0,0,0-.88-.89,2.44,2.44,0,0,0-1.19-.29,2.41,2.41,0,0,0-1.19.29,2.11,2.11,0,0,0-.86.89,3,3,0,0,0-.33,1.45,3.08,3.08,0,0,0,.32,1.47,2.15,2.15,0,0,0,.85.89,2.37,2.37,0,0,0,1.17.3A2.48,2.48,0,0,0,790.37,26.13Z"/><path d="M804.07,20.44a2.44,2.44,0,0,1,1,1,3.48,3.48,0,0,1,.38,1.68v4.2h-1.17v-4a2.3,2.3,0,0,0-.53-1.63,1.83,1.83,0,0,0-1.42-.57,1.91,1.91,0,0,0-1.47.59,2.43,2.43,0,0,0-.55,1.71v3.93h-1.17v-4a2.25,2.25,0,0,0-.53-1.63,1.83,1.83,0,0,0-1.42-.57,1.94,1.94,0,0,0-1.47.59,2.47,2.47,0,0,0-.54,1.71v3.93H794V20.23h1.19v1a2.21,2.21,0,0,1,.94-.85,2.84,2.84,0,0,1,1.31-.3,3.07,3.07,0,0,1,1.58.4,2.48,2.48,0,0,1,1,1.18,2.36,2.36,0,0,1,1-1.17,2.88,2.88,0,0,1,1.53-.41A3.11,3.11,0,0,1,804.07,20.44Z"/><path d="M812.23,20.43a2.83,2.83,0,0,1,1.41-.33v1.22h-.31c-1.33,0-2,.72-2,2.16v3.87h-1.18V20.23h1.18v1.15A2.33,2.33,0,0,1,812.23,20.43Z"/><path d="M821.1,24.23h-5.69a2.25,2.25,0,0,0,2.31,2.24,2.17,2.17,0,0,0,1.28-.36,1.87,1.87,0,0,0,.72-1H821a3,3,0,0,1-1.15,1.67,3.44,3.44,0,0,1-2.13.65,3.63,3.63,0,0,1-1.81-.46,3.26,3.26,0,0,1-1.26-1.29,4.45,4.45,0,0,1,0-3.88,3.12,3.12,0,0,1,1.24-1.28,3.72,3.72,0,0,1,1.84-.45,3.64,3.64,0,0,1,1.8.44,3.06,3.06,0,0,1,1.2,1.22,3.56,3.56,0,0,1,.42,1.74A6,6,0,0,1,821.1,24.23Zm-1.48-2.13a2,2,0,0,0-.81-.74,2.54,2.54,0,0,0-1.14-.25,2.2,2.2,0,0,0-1.53.57,2.33,2.33,0,0,0-.72,1.59h4.5A2.21,2.21,0,0,0,819.62,22.1Z"/><path d="M823.39,27.19a2.56,2.56,0,0,1-1-.78,2.06,2.06,0,0,1-.41-1.15h1.22a1.2,1.2,0,0,0,.5.87,1.94,1.94,0,0,0,1.18.34,1.69,1.69,0,0,0,1.06-.3.92.92,0,0,0,.39-.76.74.74,0,0,0-.41-.69,5.63,5.63,0,0,0-1.29-.45,9.81,9.81,0,0,1-1.29-.42,2.37,2.37,0,0,1-.86-.64,1.79,1.79,0,0,1,0-2.11,2,2,0,0,1,.92-.72,3.27,3.27,0,0,1,1.36-.27,2.89,2.89,0,0,1,1.91.6,2.12,2.12,0,0,1,.78,1.63h-1.18a1.16,1.16,0,0,0-.45-.89,1.65,1.65,0,0,0-1.1-.34,1.7,1.7,0,0,0-1,.27.85.85,0,0,0-.38.72.82.82,0,0,0,.23.58,1.64,1.64,0,0,0,.57.36c.23.09.55.19,1,.31a9.82,9.82,0,0,1,1.25.4,2.23,2.23,0,0,1,.82.61,1.62,1.62,0,0,1,.36,1.05,1.82,1.82,0,0,1-.33,1.06,2.16,2.16,0,0,1-.91.73,3.27,3.27,0,0,1-1.36.27A3.78,3.78,0,0,1,823.39,27.19Z"/><path d="M835.22,24.23h-5.69a2.25,2.25,0,0,0,2.31,2.24,2.17,2.17,0,0,0,1.28-.36,1.92,1.92,0,0,0,.72-1h1.28A3.06,3.06,0,0,1,834,26.82a3.44,3.44,0,0,1-2.13.65A3.61,3.61,0,0,1,830,27a3.2,3.2,0,0,1-1.26-1.29,4.07,4.07,0,0,1-.45-1.95,4,4,0,0,1,.44-1.93A3.06,3.06,0,0,1,830,20.56a3.69,3.69,0,0,1,1.84-.45,3.6,3.6,0,0,1,1.79.44,3.15,3.15,0,0,1,1.21,1.22,3.56,3.56,0,0,1,.42,1.74A6,6,0,0,1,835.22,24.23Zm-1.48-2.13a2,2,0,0,0-.81-.74,2.57,2.57,0,0,0-1.14-.25,2.2,2.2,0,0,0-1.53.57,2.33,2.33,0,0,0-.72,1.59H834A2.21,2.21,0,0,0,833.74,22.1Z"/><path d="M836.46,21.84a3.18,3.18,0,0,1,1.21-1.28,3.37,3.37,0,0,1,1.72-.45,3.15,3.15,0,0,1,1.63.4,2.63,2.63,0,0,1,1,1v-1.3h1.2v7.12H842V26a2.8,2.8,0,0,1-1,1,3.17,3.17,0,0,1-1.62.41,3.21,3.21,0,0,1-2.92-1.78,4.07,4.07,0,0,1-.45-1.93A4,4,0,0,1,836.46,21.84Zm5.26.53a2.36,2.36,0,0,0-.88-.92,2.4,2.4,0,0,0-1.21-.31,2.34,2.34,0,0,0-1.21.31,2.19,2.19,0,0,0-.87.91,2.84,2.84,0,0,0-.33,1.4,3,3,0,0,0,.33,1.43,2.21,2.21,0,0,0,.87.92,2.35,2.35,0,0,0,1.21.32,2.4,2.4,0,0,0,1.21-.32,2.3,2.3,0,0,0,.88-.92,3,3,0,0,0,.32-1.42A2.87,2.87,0,0,0,841.72,22.37Z"/><path d="M847,20.43a2.83,2.83,0,0,1,1.41-.33v1.22h-.31c-1.33,0-2,.72-2,2.16v3.87h-1.18V20.23h1.18v1.15A2.4,2.4,0,0,1,847,20.43Z"/><path d="M849.36,21.84a3.29,3.29,0,0,1,1.23-1.28,3.59,3.59,0,0,1,1.8-.45,3.49,3.49,0,0,1,2.17.64,3,3,0,0,1,1.12,1.76h-1.27a1.82,1.82,0,0,0-.71-1,2.14,2.14,0,0,0-1.31-.38,2.1,2.1,0,0,0-1.64.7,2.86,2.86,0,0,0-.62,2,2.91,2.91,0,0,0,.62,2,2.11,2.11,0,0,0,1.64.71,2.22,2.22,0,0,0,1.3-.37,1.83,1.83,0,0,0,.72-1h1.27a3.14,3.14,0,0,1-1.14,1.75,3.42,3.42,0,0,1-2.15.66,3.6,3.6,0,0,1-1.8-.46,3.23,3.23,0,0,1-1.23-1.28,4.2,4.2,0,0,1-.44-2A4.13,4.13,0,0,1,849.36,21.84Z"/><path d="M861.88,20.44a2.36,2.36,0,0,1,1,1,3.48,3.48,0,0,1,.37,1.68v4.2H862.1v-4a2.25,2.25,0,0,0-.53-1.63,1.9,1.9,0,0,0-1.45-.57,1.94,1.94,0,0,0-1.49.59,2.39,2.39,0,0,0-.56,1.7v3.94h-1.18V17.73h1.18v3.51a2.33,2.33,0,0,1,1-.84,3.15,3.15,0,0,1,1.39-.3A3,3,0,0,1,861.88,20.44Z"/><path d="M866.07,25.71l-1.46,3.5h-.79l.95-3.5Z"/><path d="M871.35,18.29v9.06h-1.19V18.29Z"/><path d="M885.59,20.23l-2.22,7.12h-1.22l-1.72-5.66-1.71,5.66H877.5l-2.24-7.12h1.21l1.64,6,1.76-6h1.21l1.73,6,1.61-6Z"/><path d="M886.44,18.83a.74.74,0,0,1-.23-.57.77.77,0,0,1,.23-.57.75.75,0,0,1,.57-.23.71.71,0,0,1,.55.23.81.81,0,0,1,.23.57.78.78,0,0,1-.23.57.72.72,0,0,1-.55.24A.76.76,0,0,1,886.44,18.83Zm1.14,1.4v7.12H886.4V20.23Z"/><path d="M890.42,17.73v9.62h-1.19V17.73Z"/><path d="M893.25,17.73v9.62h-1.18V17.73Z"/><path d="M900.08,20.43a2.83,2.83,0,0,1,1.41-.33v1.22h-.31c-1.32,0-2,.72-2,2.16v3.87H898V20.23h1.18v1.15A2.4,2.4,0,0,1,900.08,20.43Z"/><path d="M909,24.23h-5.7a2.25,2.25,0,0,0,2.31,2.24,2.21,2.21,0,0,0,1.29-.36,1.92,1.92,0,0,0,.72-1h1.27a3,3,0,0,1-1.14,1.67,3.49,3.49,0,0,1-2.14.65,3.63,3.63,0,0,1-1.81-.46,3.17,3.17,0,0,1-1.25-1.29,4,4,0,0,1-.46-1.95,4.1,4.1,0,0,1,.44-1.93,3.09,3.09,0,0,1,1.25-1.28,3.92,3.92,0,0,1,3.63,0,3.06,3.06,0,0,1,1.2,1.22,3.56,3.56,0,0,1,.42,1.74Q909,23.85,909,24.23Zm-1.49-2.13a2,2,0,0,0-.81-.74,2.51,2.51,0,0,0-1.14-.25,2.17,2.17,0,0,0-1.52.57,2.29,2.29,0,0,0-.73,1.59h4.5A2.21,2.21,0,0,0,907.47,22.1Z"/><path d="M910.19,21.84a3.25,3.25,0,0,1,1.21-1.28,3.42,3.42,0,0,1,1.74-.45,3.29,3.29,0,0,1,1.55.38,2.81,2.81,0,0,1,1.09,1V17.73H917v9.62h-1.2V26a2.83,2.83,0,0,1-1,1,3.13,3.13,0,0,1-1.61.41A3.3,3.3,0,0,1,911.4,27a3.26,3.26,0,0,1-1.21-1.31,4.07,4.07,0,0,1-.44-1.93A4,4,0,0,1,910.19,21.84Zm5.27.53a2.36,2.36,0,0,0-.88-.92,2.43,2.43,0,0,0-1.22-.31,2.4,2.4,0,0,0-1.21.31,2.31,2.31,0,0,0-.87.91,2.84,2.84,0,0,0-.32,1.4,3,3,0,0,0,.32,1.43,2.34,2.34,0,0,0,.87.92,2.4,2.4,0,0,0,1.21.32,2.44,2.44,0,0,0,1.22-.32,2.3,2.3,0,0,0,.88-.92,3.06,3.06,0,0,0,.32-1.42A3,3,0,0,0,915.46,22.37Z"/><path d="M925.07,24.23h-5.69a2.25,2.25,0,0,0,2.31,2.24,2.15,2.15,0,0,0,1.28-.36,1.89,1.89,0,0,0,.73-1H925a3,3,0,0,1-1.14,1.67,3.49,3.49,0,0,1-2.14.65,3.63,3.63,0,0,1-1.81-.46,3.17,3.17,0,0,1-1.25-1.29,4,4,0,0,1-.46-1.95,4.1,4.1,0,0,1,.44-1.93,3.09,3.09,0,0,1,1.25-1.28,3.92,3.92,0,0,1,3.63,0,3.06,3.06,0,0,1,1.2,1.22,3.56,3.56,0,0,1,.42,1.74A6,6,0,0,1,925.07,24.23Zm-1.48-2.13a2,2,0,0,0-.81-.74,2.51,2.51,0,0,0-1.14-.25,2.17,2.17,0,0,0-1.52.57,2.29,2.29,0,0,0-.73,1.59h4.5A2.21,2.21,0,0,0,923.59,22.1Z"/><path d="M927.36,27.19a2.64,2.64,0,0,1-1-.78,2.14,2.14,0,0,1-.41-1.15h1.22a1.23,1.23,0,0,0,.5.87,1.94,1.94,0,0,0,1.18.34,1.69,1.69,0,0,0,1.06-.3.92.92,0,0,0,.39-.76.74.74,0,0,0-.41-.69,5.63,5.63,0,0,0-1.29-.45,9.81,9.81,0,0,1-1.29-.42,2.37,2.37,0,0,1-.86-.64,1.79,1.79,0,0,1,0-2.11,2,2,0,0,1,.92-.72,3.28,3.28,0,0,1,1.37-.27,2.93,2.93,0,0,1,1.91.6,2.18,2.18,0,0,1,.78,1.63h-1.19a1.16,1.16,0,0,0-.45-.89,1.62,1.62,0,0,0-1.09-.34,1.71,1.71,0,0,0-1,.27.84.84,0,0,0-.37.72.81.81,0,0,0,.22.58A1.64,1.64,0,0,0,928,23c.23.09.55.19,1,.31a9.82,9.82,0,0,1,1.25.4,2.23,2.23,0,0,1,.82.61,1.62,1.62,0,0,1,.36,1.05,1.89,1.89,0,0,1-.32,1.06,2.25,2.25,0,0,1-.92.73,3.27,3.27,0,0,1-1.36.27A3.81,3.81,0,0,1,927.36,27.19Z"/><path d="M932.77,18.83a.74.74,0,0,1-.23-.57.79.79,0,0,1,.8-.8.71.71,0,0,1,.55.23.77.77,0,0,1,.23.57.74.74,0,0,1-.23.57.72.72,0,0,1-.55.24A.78.78,0,0,1,932.77,18.83Zm1.14,1.4v7.12h-1.18V20.23Z"/><path d="M940.12,20.51a2.66,2.66,0,0,1,1,1v-1.3h1.2v7.28a3.62,3.62,0,0,1-.41,1.73,3,3,0,0,1-1.19,1.19,3.63,3.63,0,0,1-1.8.43,3.94,3.94,0,0,1-2.34-.66,2.6,2.6,0,0,1-1.11-1.81h1.17a1.89,1.89,0,0,0,.81,1.05,2.64,2.64,0,0,0,1.47.39,2.16,2.16,0,0,0,1.59-.61,2.31,2.31,0,0,0,.61-1.71V26a2.85,2.85,0,0,1-1,1,3.05,3.05,0,0,1-1.62.42,3.27,3.27,0,0,1-2.94-1.78,4.19,4.19,0,0,1-.44-1.93,4.09,4.09,0,0,1,.44-1.92,3.27,3.27,0,0,1,1.22-1.28,3.37,3.37,0,0,1,1.72-.45A3.14,3.14,0,0,1,940.12,20.51Zm.71,1.86a2.36,2.36,0,0,0-.88-.92,2.4,2.4,0,0,0-1.21-.31,2.34,2.34,0,0,0-1.21.31,2.19,2.19,0,0,0-.87.91,2.84,2.84,0,0,0-.33,1.4,3,3,0,0,0,.33,1.43,2.21,2.21,0,0,0,.87.92,2.35,2.35,0,0,0,1.21.32,2.4,2.4,0,0,0,1.21-.32,2.3,2.3,0,0,0,.88-.92,3,3,0,0,0,.32-1.42A2.87,2.87,0,0,0,940.83,22.37Z"/><path d="M949.57,20.88a3.06,3.06,0,0,1,.8,2.27v4.2H949.2v-4a2.3,2.3,0,0,0-.53-1.63,1.91,1.91,0,0,0-1.46-.57,2,2,0,0,0-1.49.59,2.43,2.43,0,0,0-.55,1.7v3.94H944V20.23h1.18v1a2.31,2.31,0,0,1,1-.84,3.19,3.19,0,0,1,3.44.48Z"/><path d="M956.49,21.2v4.2a1,1,0,0,0,.23.73,1,1,0,0,0,.76.22h.87v1h-1.06a2.11,2.11,0,0,1-1.48-.45,2,2,0,0,1-.5-1.5V21.2h-.92v-1h.92v-1.8h1.18v1.8h1.86v1Z"/><path d="M964.41,20.44a2.36,2.36,0,0,1,1,1,3.48,3.48,0,0,1,.37,1.68v4.2h-1.17v-4a2.25,2.25,0,0,0-.53-1.63,1.91,1.91,0,0,0-1.46-.57,1.93,1.93,0,0,0-1.48.59,2.39,2.39,0,0,0-.56,1.7v3.94h-1.18V17.73h1.18v3.51a2.33,2.33,0,0,1,1-.84,3.12,3.12,0,0,1,1.39-.3A3,3,0,0,1,964.41,20.44Z"/><path d="M973.84,24.23h-5.7a2.35,2.35,0,0,0,.72,1.64,2.29,2.29,0,0,0,1.6.6,2.19,2.19,0,0,0,1.28-.36,1.92,1.92,0,0,0,.72-1h1.27a3,3,0,0,1-1.14,1.67,3.44,3.44,0,0,1-2.13.65,3.67,3.67,0,0,1-1.82-.46,3.17,3.17,0,0,1-1.25-1.29,4.36,4.36,0,0,1,0-3.88,3,3,0,0,1,1.24-1.28,3.66,3.66,0,0,1,1.84-.45,3.62,3.62,0,0,1,1.79.44,3.06,3.06,0,0,1,1.2,1.22,3.56,3.56,0,0,1,.43,1.74C973.88,23.74,973.86,24,973.84,24.23Zm-1.49-2.13a1.93,1.93,0,0,0-.81-.74,2.51,2.51,0,0,0-1.14-.25,2.19,2.19,0,0,0-1.52.57,2.33,2.33,0,0,0-.72,1.59h4.49A2.21,2.21,0,0,0,972.35,22.1Z"/><path d="M980.41,20.52a3,3,0,0,1,1.62-.41,3.37,3.37,0,0,1,1.72.45A3.25,3.25,0,0,1,985,21.84a4,4,0,0,1,.45,1.92,4.07,4.07,0,0,1-.45,1.93A3.24,3.24,0,0,1,982,27.47a3.13,3.13,0,0,1-1.61-.41,3.06,3.06,0,0,1-1.06-1v4.69h-1.18V20.23h1.18v1.31A2.79,2.79,0,0,1,980.41,20.52Zm3.46,1.84a2.25,2.25,0,0,0-.87-.91,2.43,2.43,0,0,0-1.22-.31,2.39,2.39,0,0,0-1.2.31,2.35,2.35,0,0,0-.89.93,2.86,2.86,0,0,0-.33,1.39,3,3,0,0,0,.33,1.42,2.32,2.32,0,0,0,.89.92,2.4,2.4,0,0,0,1.2.32,2.44,2.44,0,0,0,1.22-.32,2.28,2.28,0,0,0,.87-.92,3,3,0,0,0,.33-1.43A2.84,2.84,0,0,0,983.87,22.36Z"/><path d="M988.68,20.43a2.78,2.78,0,0,1,1.41-.33v1.22h-.32q-2,0-2,2.16v3.87H986.6V20.23h1.19v1.15A2.26,2.26,0,0,1,988.68,20.43Z"/><path d="M991.13,18.83a.75.75,0,0,1-.24-.57.78.78,0,0,1,.24-.57.74.74,0,0,1,.57-.23.71.71,0,0,1,.55.23.81.81,0,0,1,.23.57.78.78,0,0,1-.23.57.72.72,0,0,1-.55.24A.75.75,0,0,1,991.13,18.83Zm1.14,1.4v7.12h-1.18V20.23Z"/><path d="M996.57,26.26l2.21-6H1000l-2.79,7.12h-1.38l-2.79-7.12h1.27Z"/><path d="M1000.85,21.84a3.2,3.2,0,0,1,1.22-1.28,3.35,3.35,0,0,1,1.72-.45,3.14,3.14,0,0,1,1.62.4,2.73,2.73,0,0,1,1,1v-1.3h1.2v7.12h-1.2V26a2.76,2.76,0,0,1-1.05,1,3.13,3.13,0,0,1-1.61.41,3.24,3.24,0,0,1-2.93-1.78,4.07,4.07,0,0,1-.44-1.93A4,4,0,0,1,1000.85,21.84Zm5.27.53a2.36,2.36,0,0,0-.88-.92,2.43,2.43,0,0,0-1.22-.31,2.4,2.4,0,0,0-1.21.31,2.31,2.31,0,0,0-.87.91,3,3,0,0,0-.32,1.4,3.08,3.08,0,0,0,.32,1.43,2.34,2.34,0,0,0,.87.92,2.4,2.4,0,0,0,1.21.32,2.44,2.44,0,0,0,1.22-.32,2.3,2.3,0,0,0,.88-.92,3.06,3.06,0,0,0,.32-1.42A3,3,0,0,0,1006.12,22.37Z"/><path d="M1009.27,21.84a3.29,3.29,0,0,1,1.23-1.28,3.59,3.59,0,0,1,1.8-.45,3.49,3.49,0,0,1,2.17.64,3,3,0,0,1,1.12,1.76h-1.27a1.82,1.82,0,0,0-.71-1,2.14,2.14,0,0,0-1.31-.38,2.06,2.06,0,0,0-1.63.7,2.82,2.82,0,0,0-.63,2,2.86,2.86,0,0,0,.63,2,2.07,2.07,0,0,0,1.63.71,2.22,2.22,0,0,0,1.3-.37,1.83,1.83,0,0,0,.72-1h1.27a3.14,3.14,0,0,1-1.14,1.75,3.42,3.42,0,0,1-2.15.66,3.6,3.6,0,0,1-1.8-.46,3.23,3.23,0,0,1-1.23-1.28,4.2,4.2,0,0,1-.44-2A4.13,4.13,0,0,1,1009.27,21.84Z"/><path d="M1022.94,20.23l-4.29,10.47h-1.23l1.41-3.43-2.87-7h1.31L1019.5,26l2.21-5.77Z"/><path d="M1029.09,20.52a3.1,3.1,0,0,1,1.62-.41,3.35,3.35,0,0,1,1.72.45,3.27,3.27,0,0,1,1.22,1.28,4.09,4.09,0,0,1,.44,1.92,4.19,4.19,0,0,1-.44,1.93,3.27,3.27,0,0,1-2.94,1.78,3.1,3.1,0,0,1-1.6-.41,3,3,0,0,1-1.06-1v4.69h-1.19V20.23h1.19v1.31A2.76,2.76,0,0,1,1029.09,20.52Zm3.47,1.84a2.27,2.27,0,0,0-.88-.91,2.52,2.52,0,0,0-2.42,0,2.33,2.33,0,0,0-.88.93,2.86,2.86,0,0,0-.33,1.39,3,3,0,0,0,.33,1.42,2.3,2.3,0,0,0,.88.92,2.45,2.45,0,0,0,2.42,0,2.3,2.3,0,0,0,.88-.92,3.08,3.08,0,0,0,.32-1.43A3,3,0,0,0,1032.56,22.36Z"/><path d="M1037.36,20.43a2.83,2.83,0,0,1,1.41-.33v1.22h-.31c-1.33,0-2,.72-2,2.16v3.87h-1.18V20.23h1.18v1.15A2.33,2.33,0,0,1,1037.36,20.43Z"/><path d="M1041.06,27a3.22,3.22,0,0,1-1.27-1.29,4.28,4.28,0,0,1,0-3.88,3.33,3.33,0,0,1,1.3-1.28,3.95,3.95,0,0,1,3.66,0,3.27,3.27,0,0,1,1.3,1.28,3.88,3.88,0,0,1,.47,1.93,3.77,3.77,0,0,1-.49,1.95,3.28,3.28,0,0,1-1.32,1.29,3.8,3.8,0,0,1-1.84.46A3.73,3.73,0,0,1,1041.06,27Zm3-.88a2.25,2.25,0,0,0,.91-.9,3.28,3.28,0,0,0,0-2.91,2.16,2.16,0,0,0-.88-.89,2.57,2.57,0,0,0-2.37,0,2.14,2.14,0,0,0-.87.89,3.08,3.08,0,0,0-.32,1.45,3,3,0,0,0,.32,1.47,2,2,0,0,0,.85.89,2.32,2.32,0,0,0,1.17.3A2.47,2.47,0,0,0,1044.07,26.13Z"/><path d="M1049.17,21.2v4.2a1,1,0,0,0,.22.73,1.06,1.06,0,0,0,.77.22h.87v1H1050a2.13,2.13,0,0,1-1.48-.45,2,2,0,0,1-.49-1.5V21.2h-.93v-1h.93v-1.8h1.18v1.8H1051v1Z"/><path d="M1058.56,24.23h-5.7a2.35,2.35,0,0,0,.72,1.64,2.29,2.29,0,0,0,1.6.6,2.19,2.19,0,0,0,1.28-.36,1.92,1.92,0,0,0,.72-1h1.27a3,3,0,0,1-1.14,1.67,3.44,3.44,0,0,1-2.13.65,3.67,3.67,0,0,1-1.82-.46,3.17,3.17,0,0,1-1.25-1.29,4.36,4.36,0,0,1,0-3.88,3,3,0,0,1,1.24-1.28,3.66,3.66,0,0,1,1.84-.45,3.62,3.62,0,0,1,1.79.44,3.06,3.06,0,0,1,1.2,1.22,3.56,3.56,0,0,1,.43,1.74C1058.6,23.74,1058.58,24,1058.56,24.23Zm-1.49-2.13a1.93,1.93,0,0,0-.81-.74,2.51,2.51,0,0,0-1.14-.25,2.19,2.19,0,0,0-1.52.57,2.33,2.33,0,0,0-.72,1.59h4.49A2.21,2.21,0,0,0,1057.07,22.1Z"/><path d="M1059.79,21.84a3.29,3.29,0,0,1,1.23-1.28,3.54,3.54,0,0,1,1.8-.45,3.44,3.44,0,0,1,2.16.64,3,3,0,0,1,1.13,1.76h-1.27a1.87,1.87,0,0,0-.71-1,2.14,2.14,0,0,0-1.31-.38,2.08,2.08,0,0,0-1.64.7,2.86,2.86,0,0,0-.62,2,2.91,2.91,0,0,0,.62,2,2.09,2.09,0,0,0,1.64.71,2.24,2.24,0,0,0,1.3-.37,1.83,1.83,0,0,0,.72-1h1.27a3.1,3.1,0,0,1-1.15,1.75,3.39,3.39,0,0,1-2.14.66A3.54,3.54,0,0,1,1061,27a3.23,3.23,0,0,1-1.23-1.28,4.2,4.2,0,0,1-.44-2A4.13,4.13,0,0,1,1059.79,21.84Z"/><path d="M1068.76,21.2v4.2a1,1,0,0,0,.22.73,1.06,1.06,0,0,0,.77.22h.87v1h-1.07a2.15,2.15,0,0,1-1.48-.45,2,2,0,0,1-.49-1.5V21.2h-.92v-1h.92v-1.8h1.18v1.8h1.86v1Z"/><path d="M1071.73,18.83a.75.75,0,0,1-.24-.57.78.78,0,0,1,.24-.57.74.74,0,0,1,.57-.23.73.73,0,0,1,.55.23.81.81,0,0,1,.23.57.78.78,0,0,1-.23.57.74.74,0,0,1-.55.24A.75.75,0,0,1,1071.73,18.83Zm1.14,1.4v7.12h-1.18V20.23Z"/><path d="M1075.81,27a3.22,3.22,0,0,1-1.27-1.29,4.28,4.28,0,0,1,0-3.88,3.33,3.33,0,0,1,1.3-1.28,3.95,3.95,0,0,1,3.66,0,3.27,3.27,0,0,1,1.3,1.28,3.88,3.88,0,0,1,.47,1.93,3.77,3.77,0,0,1-.49,1.95,3.28,3.28,0,0,1-1.32,1.29,3.8,3.8,0,0,1-1.84.46A3.73,3.73,0,0,1,1075.81,27Zm3-.88a2.25,2.25,0,0,0,.91-.9,3.28,3.28,0,0,0,0-2.91,2.16,2.16,0,0,0-.88-.89,2.43,2.43,0,0,0-1.18-.29,2.38,2.38,0,0,0-1.19.29,2.14,2.14,0,0,0-.87.89,3.08,3.08,0,0,0-.32,1.45,3,3,0,0,0,.32,1.47,2,2,0,0,0,.85.89,2.32,2.32,0,0,0,1.17.3A2.47,2.47,0,0,0,1078.82,26.13Z"/><path d="M1088.05,20.88a3,3,0,0,1,.81,2.27v4.2h-1.17v-4a2.3,2.3,0,0,0-.53-1.63,1.91,1.91,0,0,0-1.46-.57,2,2,0,0,0-1.49.59,2.38,2.38,0,0,0-.55,1.7v3.94h-1.18V20.23h1.18v1a2.25,2.25,0,0,1,1-.84,2.92,2.92,0,0,1,1.33-.3A2.89,2.89,0,0,1,1088.05,20.88Z"/><path d="M650.4,44.34a3.27,3.27,0,0,1,1.22-1.28,3.35,3.35,0,0,1,1.72-.45A3.14,3.14,0,0,1,655,43a2.66,2.66,0,0,1,1,1v-1.3h1.2v7.12H656V48.52a2.76,2.76,0,0,1-1,1,3.13,3.13,0,0,1-1.61.41,3.24,3.24,0,0,1-1.72-.47,3.33,3.33,0,0,1-1.21-1.31,4.19,4.19,0,0,1-.44-1.93A4.09,4.09,0,0,1,650.4,44.34Zm5.27.53a2.36,2.36,0,0,0-.88-.92,2.54,2.54,0,0,0-2.43,0,2.31,2.31,0,0,0-.87.91,3,3,0,0,0-.32,1.4,3.08,3.08,0,0,0,.32,1.43,2.34,2.34,0,0,0,.87.92,2.47,2.47,0,0,0,2.43,0,2.3,2.3,0,0,0,.88-.92,3.06,3.06,0,0,0,.32-1.42A3,3,0,0,0,655.67,44.87Z"/><path d="M663.38,43a2.66,2.66,0,0,1,1,1v-1.3h1.2V50a3.62,3.62,0,0,1-.41,1.73A3,3,0,0,1,664,52.93a3.63,3.63,0,0,1-1.8.43,3.94,3.94,0,0,1-2.34-.66,2.6,2.6,0,0,1-1.11-1.81h1.17a1.89,1.89,0,0,0,.81,1,2.64,2.64,0,0,0,1.47.39,2.18,2.18,0,0,0,1.59-.61,2.31,2.31,0,0,0,.61-1.71v-1.5a2.85,2.85,0,0,1-1,1,3.05,3.05,0,0,1-1.62.42,3.27,3.27,0,0,1-2.94-1.78,4.19,4.19,0,0,1-.44-1.93,4.09,4.09,0,0,1,.44-1.92A3.27,3.27,0,0,1,660,43.06a3.37,3.37,0,0,1,1.72-.45A3.14,3.14,0,0,1,663.38,43Zm.71,1.86a2.36,2.36,0,0,0-.88-.92,2.4,2.4,0,0,0-1.21-.31,2.34,2.34,0,0,0-1.21.31,2.19,2.19,0,0,0-.87.91,2.84,2.84,0,0,0-.33,1.4,3,3,0,0,0,.33,1.43,2.21,2.21,0,0,0,.87.92,2.35,2.35,0,0,0,1.21.32,2.4,2.4,0,0,0,1.21-.32,2.3,2.3,0,0,0,.88-.92,3,3,0,0,0,.32-1.42A2.87,2.87,0,0,0,664.09,44.87Z"/><path d="M669.32,42.93a2.83,2.83,0,0,1,1.41-.33v1.22h-.31c-1.33,0-2,.72-2,2.16v3.87h-1.18V42.73h1.18v1.15A2.4,2.4,0,0,1,669.32,42.93Z"/><path d="M678.19,46.73H672.5A2.25,2.25,0,0,0,674.81,49a2.15,2.15,0,0,0,1.28-.36,1.89,1.89,0,0,0,.73-1h1.27A3,3,0,0,1,677,49.32a3.47,3.47,0,0,1-2.14.65,3.63,3.63,0,0,1-1.81-.46,3.17,3.17,0,0,1-1.25-1.29,4,4,0,0,1-.46-1.95,4.1,4.1,0,0,1,.44-1.93A3.12,3.12,0,0,1,673,43.06a3.72,3.72,0,0,1,1.84-.45,3.64,3.64,0,0,1,1.8.44,3.06,3.06,0,0,1,1.2,1.22,3.56,3.56,0,0,1,.42,1.74A6,6,0,0,1,678.19,46.73Zm-1.48-2.13a2,2,0,0,0-.81-.74,2.51,2.51,0,0,0-1.14-.25,2.22,2.22,0,0,0-1.53.57,2.33,2.33,0,0,0-.72,1.59H677A2.21,2.21,0,0,0,676.71,44.6Z"/><path d="M685.89,46.73H680.2A2.25,2.25,0,0,0,682.51,49a2.17,2.17,0,0,0,1.28-.36,1.92,1.92,0,0,0,.72-1h1.28a3.06,3.06,0,0,1-1.15,1.67,3.44,3.44,0,0,1-2.13.65,3.61,3.61,0,0,1-1.81-.46,3.2,3.2,0,0,1-1.26-1.29,4.07,4.07,0,0,1-.45-1.95,4,4,0,0,1,.44-1.93,3.06,3.06,0,0,1,1.24-1.28,3.69,3.69,0,0,1,1.84-.45,3.57,3.57,0,0,1,1.79.44,3.09,3.09,0,0,1,1.21,1.22,3.56,3.56,0,0,1,.42,1.74A6,6,0,0,1,685.89,46.73Zm-1.48-2.13a2,2,0,0,0-.81-.74,2.54,2.54,0,0,0-1.14-.25,2.2,2.2,0,0,0-1.53.57,2.33,2.33,0,0,0-.72,1.59h4.5A2.21,2.21,0,0,0,684.41,44.6Z"/><path d="M697.17,42.94a2.44,2.44,0,0,1,1,1,3.48,3.48,0,0,1,.38,1.68v4.2h-1.17v-4a2.3,2.3,0,0,0-.53-1.63,1.83,1.83,0,0,0-1.42-.57,1.91,1.91,0,0,0-1.47.59,2.47,2.47,0,0,0-.55,1.71v3.93h-1.17v-4a2.3,2.3,0,0,0-.52-1.63,1.85,1.85,0,0,0-1.43-.57,1.94,1.94,0,0,0-1.47.59,2.47,2.47,0,0,0-.54,1.71v3.93h-1.18V42.73h1.18v1a2.27,2.27,0,0,1,.94-.85,2.87,2.87,0,0,1,1.31-.3,3,3,0,0,1,1.58.4,2.43,2.43,0,0,1,1,1.18,2.36,2.36,0,0,1,1-1.17,2.88,2.88,0,0,1,1.53-.41A3.08,3.08,0,0,1,697.17,42.94Z"/><path d="M706.61,46.73h-5.69A2.25,2.25,0,0,0,703.23,49a2.17,2.17,0,0,0,1.28-.36,1.82,1.82,0,0,0,.72-1h1.28a3,3,0,0,1-1.15,1.67,3.44,3.44,0,0,1-2.13.65,3.63,3.63,0,0,1-1.81-.46,3.26,3.26,0,0,1-1.26-1.29,4.45,4.45,0,0,1,0-3.88,3.12,3.12,0,0,1,1.24-1.28,3.72,3.72,0,0,1,1.84-.45,3.64,3.64,0,0,1,1.8.44,3.06,3.06,0,0,1,1.2,1.22,3.56,3.56,0,0,1,.42,1.74A6,6,0,0,1,706.61,46.73Zm-1.48-2.13a2,2,0,0,0-.81-.74,2.51,2.51,0,0,0-1.14-.25,2.2,2.2,0,0,0-1.53.57,2.33,2.33,0,0,0-.72,1.59h4.5A2.21,2.21,0,0,0,705.13,44.6Z"/><path d="M713.42,43.38a3,3,0,0,1,.81,2.27v4.2h-1.17v-4a2.3,2.3,0,0,0-.53-1.63,1.91,1.91,0,0,0-1.46-.57,2,2,0,0,0-1.49.59,2.38,2.38,0,0,0-.55,1.7v3.94h-1.18V42.73H709v1a2.25,2.25,0,0,1,1-.84,2.92,2.92,0,0,1,1.33-.3A2.89,2.89,0,0,1,713.42,43.38Z"/><path d="M717.25,43.7v4.2a1,1,0,0,0,.22.73,1,1,0,0,0,.76.22h.88v1H718a2.13,2.13,0,0,1-1.48-.45,2,2,0,0,1-.5-1.5V43.7h-.92v-1h.92v-1.8h1.19v1.8h1.86v1Z"/><path d="M721.39,48.21l-1.45,3.5h-.8l1-3.5Z"/><path d="M725.49,44.34a3.25,3.25,0,0,1,1.21-1.28,3.42,3.42,0,0,1,1.74-.45A3.32,3.32,0,0,1,730,43a2.81,2.81,0,0,1,1.09,1V40.23h1.19v9.62h-1.19V48.51a2.83,2.83,0,0,1-1,1.05,3.13,3.13,0,0,1-1.61.41,3.3,3.3,0,0,1-1.73-.47,3.26,3.26,0,0,1-1.21-1.31,4.07,4.07,0,0,1-.44-1.93A4,4,0,0,1,725.49,44.34Zm5.26.53a2.34,2.34,0,0,0-.87-.92,2.43,2.43,0,0,0-1.22-.31,2.4,2.4,0,0,0-1.21.31,2.31,2.31,0,0,0-.87.91,2.84,2.84,0,0,0-.32,1.4,3,3,0,0,0,.32,1.43,2.34,2.34,0,0,0,.87.92,2.4,2.4,0,0,0,1.21.32,2.44,2.44,0,0,0,1.22-.32,2.28,2.28,0,0,0,.87-.92,3,3,0,0,0,.33-1.42A2.87,2.87,0,0,0,730.75,44.87Z"/><path d="M740.37,46.73h-5.69A2.25,2.25,0,0,0,737,49a2.17,2.17,0,0,0,1.28-.36,1.89,1.89,0,0,0,.73-1h1.27a3,3,0,0,1-1.14,1.67A3.49,3.49,0,0,1,737,50a3.63,3.63,0,0,1-1.81-.46,3.17,3.17,0,0,1-1.25-1.29,4,4,0,0,1-.46-1.95,4.1,4.1,0,0,1,.44-1.93,3.12,3.12,0,0,1,1.24-1.28,3.72,3.72,0,0,1,1.84-.45,3.64,3.64,0,0,1,1.8.44,3.06,3.06,0,0,1,1.2,1.22,3.56,3.56,0,0,1,.42,1.74A6,6,0,0,1,740.37,46.73Zm-1.48-2.13a2,2,0,0,0-.81-.74,2.51,2.51,0,0,0-1.14-.25,2.2,2.2,0,0,0-1.53.57,2.33,2.33,0,0,0-.72,1.59h4.5A2.21,2.21,0,0,0,738.89,44.6Z"/><path d="M742.66,49.69a2.56,2.56,0,0,1-1-.78,2.06,2.06,0,0,1-.41-1.15h1.22a1.2,1.2,0,0,0,.5.87,1.94,1.94,0,0,0,1.18.34,1.69,1.69,0,0,0,1.06-.3.92.92,0,0,0,.39-.76.74.74,0,0,0-.41-.69,5.63,5.63,0,0,0-1.29-.45,9.81,9.81,0,0,1-1.29-.42,2.37,2.37,0,0,1-.86-.64,1.79,1.79,0,0,1,0-2.11,2,2,0,0,1,.92-.72,3.27,3.27,0,0,1,1.36-.27,2.89,2.89,0,0,1,1.91.6,2.16,2.16,0,0,1,.79,1.63h-1.19A1.16,1.16,0,0,0,745,44a1.64,1.64,0,0,0-1.09-.34,1.71,1.71,0,0,0-1,.27.85.85,0,0,0-.38.72.82.82,0,0,0,.23.58,1.64,1.64,0,0,0,.57.36c.23.09.55.19,1,.31a9.82,9.82,0,0,1,1.25.4,2.23,2.23,0,0,1,.82.61,1.62,1.62,0,0,1,.36,1A1.82,1.82,0,0,1,746.4,49a2.16,2.16,0,0,1-.91.73,3.27,3.27,0,0,1-1.36.27A3.78,3.78,0,0,1,742.66,49.69Z"/><path d="M748.07,41.33a.75.75,0,0,1-.24-.57.78.78,0,0,1,.24-.57.75.75,0,0,1,.57-.23.71.71,0,0,1,.55.23.81.81,0,0,1,.23.57.78.78,0,0,1-.23.57.72.72,0,0,1-.55.24A.76.76,0,0,1,748.07,41.33Zm1.14,1.4v7.12H748V42.73Z"/><path d="M755.42,43a2.66,2.66,0,0,1,1,1v-1.3h1.2V50a3.52,3.52,0,0,1-.42,1.73A2.85,2.85,0,0,1,756,52.93a3.58,3.58,0,0,1-1.8.43,4,4,0,0,1-2.34-.66,2.62,2.62,0,0,1-1.1-1.81H752a1.89,1.89,0,0,0,.81,1,2.63,2.63,0,0,0,1.46.39,2.19,2.19,0,0,0,1.6-.61,2.31,2.31,0,0,0,.61-1.71v-1.5a2.8,2.8,0,0,1-1,1,3,3,0,0,1-1.61.42,3.27,3.27,0,0,1-2.94-1.78,4.19,4.19,0,0,1-.44-1.93,4.09,4.09,0,0,1,.44-1.92,3.27,3.27,0,0,1,1.22-1.28,3.35,3.35,0,0,1,1.72-.45A3.14,3.14,0,0,1,755.42,43Zm.71,1.86a2.36,2.36,0,0,0-.88-.92,2.4,2.4,0,0,0-1.21-.31,2.34,2.34,0,0,0-1.21.31,2.19,2.19,0,0,0-.87.91,2.84,2.84,0,0,0-.33,1.4,3,3,0,0,0,.33,1.43,2.21,2.21,0,0,0,.87.92,2.35,2.35,0,0,0,1.21.32,2.4,2.4,0,0,0,1.21-.32,2.3,2.3,0,0,0,.88-.92,3,3,0,0,0,.32-1.42A2.87,2.87,0,0,0,756.13,44.87Z"/><path d="M764.87,43.38a3.06,3.06,0,0,1,.8,2.27v4.2H764.5v-4a2.3,2.3,0,0,0-.53-1.63,1.91,1.91,0,0,0-1.46-.57,2,2,0,0,0-1.49.59,2.38,2.38,0,0,0-.55,1.7v3.94h-1.18V42.73h1.18v1a2.31,2.31,0,0,1,1-.84,3.19,3.19,0,0,1,3.44.48Z"/><path d="M771.79,43.7v4.2a1,1,0,0,0,.22.73,1.07,1.07,0,0,0,.77.22h.87v1h-1.06a2.16,2.16,0,0,1-1.49-.45,2,2,0,0,1-.49-1.5V43.7h-.92v-1h.92v-1.8h1.18v1.8h1.86v1Z"/><path d="M779.71,42.94a2.47,2.47,0,0,1,1,1,3.48,3.48,0,0,1,.37,1.68v4.2h-1.17v-4a2.3,2.3,0,0,0-.53-1.63,1.91,1.91,0,0,0-1.46-.57,2,2,0,0,0-1.49.59,2.43,2.43,0,0,0-.55,1.7v3.94h-1.18V40.23h1.18v3.51a2.33,2.33,0,0,1,1-.84,3.11,3.11,0,0,1,1.38-.3A3.05,3.05,0,0,1,779.71,42.94Z"/><path d="M789.14,46.73h-5.7A2.25,2.25,0,0,0,785.76,49a2.19,2.19,0,0,0,1.28-.36,1.92,1.92,0,0,0,.72-1H789a3,3,0,0,1-1.14,1.67,3.44,3.44,0,0,1-2.13.65,3.64,3.64,0,0,1-1.82-.46,3.17,3.17,0,0,1-1.25-1.29,4,4,0,0,1-.46-1.95,4.1,4.1,0,0,1,.44-1.93,3.09,3.09,0,0,1,1.25-1.28,3.66,3.66,0,0,1,1.84-.45,3.62,3.62,0,0,1,1.79.44,3.06,3.06,0,0,1,1.2,1.22,3.56,3.56,0,0,1,.42,1.74Q789.17,46.36,789.14,46.73Zm-1.49-2.13a1.93,1.93,0,0,0-.81-.74,2.51,2.51,0,0,0-1.14-.25,2.19,2.19,0,0,0-1.52.57,2.33,2.33,0,0,0-.72,1.59H788A2.21,2.21,0,0,0,787.65,44.6Z"/><path d="M794.53,49.69a2.56,2.56,0,0,1-1-.78,2.06,2.06,0,0,1-.41-1.15h1.22a1.2,1.2,0,0,0,.5.87A1.94,1.94,0,0,0,796,49a1.69,1.69,0,0,0,1.06-.3.92.92,0,0,0,.39-.76.74.74,0,0,0-.41-.69,5.63,5.63,0,0,0-1.29-.45,9.81,9.81,0,0,1-1.29-.42,2.37,2.37,0,0,1-.86-.64,1.79,1.79,0,0,1,0-2.11,2,2,0,0,1,.92-.72,3.27,3.27,0,0,1,1.36-.27,2.89,2.89,0,0,1,1.91.6,2.16,2.16,0,0,1,.79,1.63h-1.19a1.16,1.16,0,0,0-.45-.89,1.65,1.65,0,0,0-1.1-.34,1.7,1.7,0,0,0-1,.27.85.85,0,0,0-.38.72.82.82,0,0,0,.23.58,1.64,1.64,0,0,0,.57.36c.23.09.55.19,1,.31a9.82,9.82,0,0,1,1.25.4,2.23,2.23,0,0,1,.82.61,1.62,1.62,0,0,1,.36,1,1.82,1.82,0,0,1-.33,1.06,2.16,2.16,0,0,1-.91.73A3.27,3.27,0,0,1,796,50,3.78,3.78,0,0,1,794.53,49.69Z"/><path d="M804.89,42.94a2.41,2.41,0,0,1,1,1,3.48,3.48,0,0,1,.37,1.68v4.2h-1.17v-4a2.3,2.3,0,0,0-.53-1.63,1.91,1.91,0,0,0-1.46-.57,2,2,0,0,0-1.49.59,2.43,2.43,0,0,0-.55,1.7v3.94H799.9V40.23h1.18v3.51a2.33,2.33,0,0,1,1-.84,3.12,3.12,0,0,1,1.39-.3A3,3,0,0,1,804.89,42.94Z"/><path d="M807.86,44.34a3.18,3.18,0,0,1,1.21-1.28,3.37,3.37,0,0,1,1.72-.45,3.15,3.15,0,0,1,1.63.4,2.73,2.73,0,0,1,1,1v-1.3h1.19v7.12h-1.19V48.52a2.91,2.91,0,0,1-1.05,1,3.14,3.14,0,0,1-1.62.41,3.29,3.29,0,0,1-1.72-.47,3.24,3.24,0,0,1-1.2-1.31,4.07,4.07,0,0,1-.45-1.93A4,4,0,0,1,807.86,44.34Zm5.26.53a2.43,2.43,0,0,0-3.3-.92,2.25,2.25,0,0,0-.87.91,2.84,2.84,0,0,0-.33,1.4,3,3,0,0,0,.33,1.43,2.28,2.28,0,0,0,.87.92,2.45,2.45,0,0,0,2.42,0,2.3,2.3,0,0,0,.88-.92,3,3,0,0,0,.33-1.42A2.87,2.87,0,0,0,813.12,44.87Z"/><path d="M818.35,42.93a2.83,2.83,0,0,1,1.41-.33v1.22h-.31c-1.32,0-2,.72-2,2.16v3.87h-1.18V42.73h1.18v1.15A2.4,2.4,0,0,1,818.35,42.93Z"/><path d="M827.22,46.73h-5.69a2.27,2.27,0,0,0,.72,1.64,2.29,2.29,0,0,0,1.6.6,2.19,2.19,0,0,0,1.28-.36,1.92,1.92,0,0,0,.72-1h1.27A3,3,0,0,1,826,49.32a3.46,3.46,0,0,1-2.13.65,3.64,3.64,0,0,1-1.82-.46,3.17,3.17,0,0,1-1.25-1.29,4,4,0,0,1-.46-1.95,4.1,4.1,0,0,1,.44-1.93A3.09,3.09,0,0,1,822,43.06a3.66,3.66,0,0,1,1.84-.45,3.62,3.62,0,0,1,1.79.44,3.06,3.06,0,0,1,1.2,1.22,3.56,3.56,0,0,1,.42,1.74A6,6,0,0,1,827.22,46.73Zm-1.48-2.13a2,2,0,0,0-.81-.74,2.51,2.51,0,0,0-1.14-.25,2.19,2.19,0,0,0-1.52.57,2.33,2.33,0,0,0-.73,1.59H826A2.21,2.21,0,0,0,825.74,44.6Z"/><path d="M828.46,44.34a3.2,3.2,0,0,1,1.22-1.28,3.36,3.36,0,0,1,1.73-.45A3.32,3.32,0,0,1,833,43a2.81,2.81,0,0,1,1.09,1V40.23h1.2v9.62h-1.2V48.51a2.76,2.76,0,0,1-1,1.05,3.13,3.13,0,0,1-1.61.41,3.27,3.27,0,0,1-1.72-.47,3.22,3.22,0,0,1-1.22-1.31,4.19,4.19,0,0,1-.44-1.93A4.09,4.09,0,0,1,828.46,44.34Zm5.26.53a2.27,2.27,0,0,0-.87-.92,2.43,2.43,0,0,0-1.22-.31,2.4,2.4,0,0,0-1.21.31,2.31,2.31,0,0,0-.87.91,3,3,0,0,0-.32,1.4,3.08,3.08,0,0,0,.32,1.43,2.34,2.34,0,0,0,.87.92,2.4,2.4,0,0,0,1.21.32,2.44,2.44,0,0,0,1.22-.32,2.21,2.21,0,0,0,.87-.92,3,3,0,0,0,.33-1.42A2.87,2.87,0,0,0,833.72,44.87Z"/><path d="M842.89,43.7h-1.5v6.15h-1.18V43.7h-.92v-1h.92v-.51a2.24,2.24,0,0,1,.62-1.75,2.91,2.91,0,0,1,2-.55v1a1.61,1.61,0,0,0-1.1.3,1.36,1.36,0,0,0-.32,1v.51h1.5Z"/><path d="M845.09,40.23v9.62H843.9V40.23Z"/><path d="M846.78,41.33a.75.75,0,0,1-.24-.57.78.78,0,0,1,.24-.57.74.74,0,0,1,.57-.23.71.71,0,0,1,.55.23.81.81,0,0,1,.23.57.78.78,0,0,1-.23.57.72.72,0,0,1-.55.24A.75.75,0,0,1,846.78,41.33Zm1.14,1.4v7.12h-1.18V42.73Z"/><path d="M854.13,43a2.66,2.66,0,0,1,1,1v-1.3h1.2V50a3.52,3.52,0,0,1-.42,1.73,2.9,2.9,0,0,1-1.19,1.19,3.58,3.58,0,0,1-1.8.43,4,4,0,0,1-2.34-.66,2.62,2.62,0,0,1-1.1-1.81h1.17a1.92,1.92,0,0,0,.8,1,2.69,2.69,0,0,0,1.47.39,2.15,2.15,0,0,0,1.59-.61,2.27,2.27,0,0,0,.62-1.71v-1.5a2.8,2.8,0,0,1-1,1,3,3,0,0,1-1.61.42,3.27,3.27,0,0,1-2.94-1.78,4.19,4.19,0,0,1-.44-1.93,4.09,4.09,0,0,1,.44-1.92,3.27,3.27,0,0,1,1.22-1.28,3.35,3.35,0,0,1,1.72-.45A3.17,3.17,0,0,1,854.13,43Zm.71,1.86A2.36,2.36,0,0,0,854,44a2.41,2.41,0,0,0-1.22-.31,2.33,2.33,0,0,0-1.2.31,2.27,2.27,0,0,0-.88.91,3,3,0,0,0-.32,1.4,3.08,3.08,0,0,0,.32,1.43,2.3,2.3,0,0,0,.88.92,2.34,2.34,0,0,0,1.2.32,2.41,2.41,0,0,0,1.22-.32,2.3,2.3,0,0,0,.88-.92,3.06,3.06,0,0,0,.32-1.42A3,3,0,0,0,854.84,44.87Z"/><path d="M863,42.94a2.47,2.47,0,0,1,1,1,3.48,3.48,0,0,1,.37,1.68v4.2h-1.17v-4a2.3,2.3,0,0,0-.53-1.63,1.92,1.92,0,0,0-1.46-.57,2,2,0,0,0-1.49.59,2.38,2.38,0,0,0-.55,1.7v3.94H858V40.23h1.18v3.51a2.27,2.27,0,0,1,1-.84,3.31,3.31,0,0,1,2.84,0Z"/><path d="M867.39,43.7v4.2a1,1,0,0,0,.23.73,1,1,0,0,0,.76.22h.87v1h-1.06a2.13,2.13,0,0,1-1.48-.45,2,2,0,0,1-.5-1.5V43.7h-.92v-1h.92v-1.8h1.18v1.8h1.86v1Z"/><path d="M879.89,46.73h-5.7a2.35,2.35,0,0,0,.72,1.64,2.29,2.29,0,0,0,1.6.6,2.17,2.17,0,0,0,1.28-.36,1.92,1.92,0,0,0,.72-1h1.27a3,3,0,0,1-1.14,1.67,3.44,3.44,0,0,1-2.13.65,3.67,3.67,0,0,1-1.82-.46,3.17,3.17,0,0,1-1.25-1.29,4.07,4.07,0,0,1-.46-1.95,4,4,0,0,1,.45-1.93,3,3,0,0,1,1.24-1.28,3.66,3.66,0,0,1,1.84-.45,3.62,3.62,0,0,1,1.79.44,3.06,3.06,0,0,1,1.2,1.22,3.45,3.45,0,0,1,.43,1.74C879.93,46.24,879.91,46.48,879.89,46.73Zm-1.48-2.13a2,2,0,0,0-.82-.74,2.5,2.5,0,0,0-1.13-.25,2.2,2.2,0,0,0-1.53.57,2.33,2.33,0,0,0-.72,1.59h4.49A2.31,2.31,0,0,0,878.41,44.6Z"/><path d="M884.84,49.85l-1.69-2.65-1.62,2.65h-1.24l2.3-3.54-2.3-3.58h1.34l1.69,2.63,1.61-2.63h1.24l-2.29,3.52,2.3,3.6Z"/><path d="M889.21,43a3.1,3.1,0,0,1,1.62-.41,3.38,3.38,0,0,1,1.73.45,3.25,3.25,0,0,1,1.21,1.28,4,4,0,0,1,.44,1.92,4.07,4.07,0,0,1-.44,1.93,3.26,3.26,0,0,1-1.21,1.31,3.3,3.3,0,0,1-1.73.47,3.12,3.12,0,0,1-1.6-.41,3,3,0,0,1-1.06-1v4.69H887V42.73h1.18V44A2.76,2.76,0,0,1,889.21,43Zm3.47,1.84a2.27,2.27,0,0,0-.88-.91,2.36,2.36,0,0,0-3.3.93,2.86,2.86,0,0,0-.33,1.39,3,3,0,0,0,.33,1.42,2.37,2.37,0,0,0,.88.92,2.45,2.45,0,0,0,2.42,0,2.3,2.3,0,0,0,.88-.92,3,3,0,0,0,.32-1.43A2.84,2.84,0,0,0,892.68,44.86Z"/><path d="M901.87,46.73h-5.69A2.25,2.25,0,0,0,898.49,49a2.17,2.17,0,0,0,1.28-.36,1.92,1.92,0,0,0,.72-1h1.28a3.06,3.06,0,0,1-1.15,1.67,3.44,3.44,0,0,1-2.13.65,3.61,3.61,0,0,1-1.81-.46,3.2,3.2,0,0,1-1.26-1.29,4.07,4.07,0,0,1-.45-1.95,4,4,0,0,1,.44-1.93,3.06,3.06,0,0,1,1.24-1.28,3.69,3.69,0,0,1,1.84-.45,3.6,3.6,0,0,1,1.79.44,3.09,3.09,0,0,1,1.21,1.22,3.56,3.56,0,0,1,.42,1.74A6,6,0,0,1,901.87,46.73Zm-1.48-2.13a2,2,0,0,0-.81-.74,2.57,2.57,0,0,0-1.14-.25,2.2,2.2,0,0,0-1.53.57,2.33,2.33,0,0,0-.72,1.59h4.5A2.21,2.21,0,0,0,900.39,44.6Z"/><path d="M905.18,42.93a2.78,2.78,0,0,1,1.41-.33v1.22h-.31c-1.33,0-2,.72-2,2.16v3.87h-1.18V42.73h1.18v1.15A2.33,2.33,0,0,1,905.18,42.93Z"/><path d="M907.63,41.33a.75.75,0,0,1-.24-.57.78.78,0,0,1,.24-.57.77.77,0,0,1,.57-.23.71.71,0,0,1,.55.23.81.81,0,0,1,.23.57.78.78,0,0,1-.23.57.72.72,0,0,1-.55.24A.78.78,0,0,1,907.63,41.33Zm1.14,1.4v7.12h-1.18V42.73Z"/><path d="M916.88,46.73h-5.69A2.25,2.25,0,0,0,913.5,49a2.21,2.21,0,0,0,1.29-.36,1.92,1.92,0,0,0,.72-1h1.27a3,3,0,0,1-1.14,1.67,3.49,3.49,0,0,1-2.14.65,3.63,3.63,0,0,1-1.81-.46,3.17,3.17,0,0,1-1.25-1.29,4,4,0,0,1-.46-1.95,4.1,4.1,0,0,1,.44-1.93,3.09,3.09,0,0,1,1.25-1.28,3.92,3.92,0,0,1,3.63,0,3.06,3.06,0,0,1,1.2,1.22,3.56,3.56,0,0,1,.42,1.74A6,6,0,0,1,916.88,46.73ZM915.4,44.6a2,2,0,0,0-.81-.74,2.51,2.51,0,0,0-1.14-.25,2.19,2.19,0,0,0-1.52.57,2.29,2.29,0,0,0-.73,1.59h4.5A2.21,2.21,0,0,0,915.4,44.6Z"/><path d="M923.7,43.38a3.06,3.06,0,0,1,.8,2.27v4.2h-1.17v-4a2.3,2.3,0,0,0-.53-1.63,1.91,1.91,0,0,0-1.46-.57,1.93,1.93,0,0,0-1.48.59,2.39,2.39,0,0,0-.56,1.7v3.94h-1.18V42.73h1.18v1a2.37,2.37,0,0,1,1-.84,3,3,0,0,1,1.33-.3A2.91,2.91,0,0,1,923.7,43.38Z"/><path d="M926.08,44.34a3.2,3.2,0,0,1,1.22-1.28,3.59,3.59,0,0,1,1.8-.45,3.49,3.49,0,0,1,2.17.64A3,3,0,0,1,932.39,45h-1.27a1.82,1.82,0,0,0-.71-1,2.12,2.12,0,0,0-1.31-.38,2.06,2.06,0,0,0-1.63.7,2.82,2.82,0,0,0-.63,2,2.86,2.86,0,0,0,.63,2,2.07,2.07,0,0,0,1.63.71,2.2,2.2,0,0,0,1.3-.37,1.83,1.83,0,0,0,.72-1h1.27a3.14,3.14,0,0,1-1.14,1.75,3.42,3.42,0,0,1-2.15.66,3.6,3.6,0,0,1-1.8-.46,3.14,3.14,0,0,1-1.22-1.28,4.08,4.08,0,0,1-.45-2A4,4,0,0,1,926.08,44.34Z"/><path d="M940.06,46.73h-5.69A2.25,2.25,0,0,0,936.68,49a2.15,2.15,0,0,0,1.28-.36,1.89,1.89,0,0,0,.73-1H940a3,3,0,0,1-1.14,1.67,3.49,3.49,0,0,1-2.14.65,3.63,3.63,0,0,1-1.81-.46,3.17,3.17,0,0,1-1.25-1.29,4,4,0,0,1-.46-1.95,4.1,4.1,0,0,1,.44-1.93,3.12,3.12,0,0,1,1.24-1.28,3.72,3.72,0,0,1,1.84-.45,3.64,3.64,0,0,1,1.8.44,3.06,3.06,0,0,1,1.2,1.22A3.56,3.56,0,0,1,940.1,46,6,6,0,0,1,940.06,46.73Zm-1.48-2.13a2,2,0,0,0-.81-.74,2.51,2.51,0,0,0-1.14-.25,2.2,2.2,0,0,0-1.53.57,2.33,2.33,0,0,0-.72,1.59h4.5A2.21,2.21,0,0,0,938.58,44.6Z"/><path d="M942.52,48.21l-1.46,3.5h-.79l1-3.5Z"/><path d="M946.62,44.34a3.25,3.25,0,0,1,1.21-1.28,3.37,3.37,0,0,1,1.72-.45,3.15,3.15,0,0,1,1.63.4,2.73,2.73,0,0,1,1,1v-1.3h1.19v7.12h-1.19V48.52a2.91,2.91,0,0,1-1.05,1,3.14,3.14,0,0,1-1.62.41,3.29,3.29,0,0,1-1.72-.47,3.24,3.24,0,0,1-1.2-1.31,4.07,4.07,0,0,1-.45-1.93A4,4,0,0,1,946.62,44.34Zm5.26.53A2.36,2.36,0,0,0,951,44a2.4,2.4,0,0,0-1.21-.31,2.37,2.37,0,0,0-1.21.31,2.19,2.19,0,0,0-.87.91,2.84,2.84,0,0,0-.33,1.4,3,3,0,0,0,.33,1.43,2.21,2.21,0,0,0,.87.92,2.38,2.38,0,0,0,1.21.32,2.4,2.4,0,0,0,1.21-.32,2.3,2.3,0,0,0,.88-.92,3,3,0,0,0,.33-1.42A2.87,2.87,0,0,0,951.88,44.87Z"/><path d="M960.62,43.38a3.06,3.06,0,0,1,.8,2.27v4.2h-1.17v-4a2.3,2.3,0,0,0-.53-1.63,1.91,1.91,0,0,0-1.46-.57,1.93,1.93,0,0,0-1.48.59,2.39,2.39,0,0,0-.56,1.7v3.94H955V42.73h1.18v1a2.37,2.37,0,0,1,1-.84,3,3,0,0,1,1.33-.3A2.91,2.91,0,0,1,960.62,43.38Z"/><path d="M963,44.34a3.25,3.25,0,0,1,1.21-1.28,3.39,3.39,0,0,1,1.74-.45,3.25,3.25,0,0,1,1.54.38,2.84,2.84,0,0,1,1.1,1V40.23h1.19v9.62h-1.19V48.51a2.86,2.86,0,0,1-1.05,1.05,3.08,3.08,0,0,1-1.61.41A3.24,3.24,0,0,1,963,48.19a4.07,4.07,0,0,1-.45-1.93A4,4,0,0,1,963,44.34Zm5.26.53a2.36,2.36,0,0,0-.88-.92,2.4,2.4,0,0,0-1.21-.31A2.37,2.37,0,0,0,965,44a2.19,2.19,0,0,0-.87.91,2.84,2.84,0,0,0-.33,1.4,3,3,0,0,0,.33,1.43,2.21,2.21,0,0,0,.87.92,2.38,2.38,0,0,0,1.21.32,2.4,2.4,0,0,0,1.21-.32,2.3,2.3,0,0,0,.88-.92,3,3,0,0,0,.33-1.42A2.87,2.87,0,0,0,968.26,44.87Z"/><path d="M976,43.7v4.2a1,1,0,0,0,.22.73,1.06,1.06,0,0,0,.77.22h.87v1h-1.07a2.13,2.13,0,0,1-1.48-.45,2,2,0,0,1-.49-1.5V43.7h-.93v-1h.93v-1.8H976v1.8h1.86v1Z"/><path d="M983.89,42.94a2.47,2.47,0,0,1,1,1,3.59,3.59,0,0,1,.37,1.68v4.2h-1.17v-4a2.26,2.26,0,0,0-.54-1.63,1.88,1.88,0,0,0-1.45-.57,2,2,0,0,0-1.49.59,2.38,2.38,0,0,0-.55,1.7v3.94h-1.19V40.23h1.19v3.51a2.22,2.22,0,0,1,1-.84,3.31,3.31,0,0,1,2.84,0Z"/><path d="M993.31,46.73h-5.69A2.25,2.25,0,0,0,989.93,49a2.17,2.17,0,0,0,1.28-.36,1.92,1.92,0,0,0,.72-1h1.28a3,3,0,0,1-1.15,1.67,3.44,3.44,0,0,1-2.13.65,3.63,3.63,0,0,1-1.81-.46,3.2,3.2,0,0,1-1.26-1.29,4.45,4.45,0,0,1,0-3.88,3.06,3.06,0,0,1,1.24-1.28,3.72,3.72,0,0,1,1.84-.45,3.64,3.64,0,0,1,1.8.44,3.06,3.06,0,0,1,1.2,1.22,3.56,3.56,0,0,1,.42,1.74A6,6,0,0,1,993.31,46.73Zm-1.48-2.13a2,2,0,0,0-.81-.74,2.57,2.57,0,0,0-1.14-.25,2.2,2.2,0,0,0-1.53.57,2.33,2.33,0,0,0-.72,1.59h4.5A2.21,2.21,0,0,0,991.83,44.6Z"/><path d="M999.73,42.93a2.78,2.78,0,0,1,1.41-.33v1.22h-.31c-1.33,0-2,.72-2,2.16v3.87h-1.19V42.73h1.19v1.15A2.26,2.26,0,0,1,999.73,42.93Z"/><path d="M1008.6,46.73h-5.69a2.25,2.25,0,0,0,2.31,2.24,2.17,2.17,0,0,0,1.28-.36,1.92,1.92,0,0,0,.72-1h1.28a3.12,3.12,0,0,1-1.15,1.67,3.44,3.44,0,0,1-2.13.65,3.61,3.61,0,0,1-1.81-.46,3.2,3.2,0,0,1-1.26-1.29,4.07,4.07,0,0,1-.45-1.95,4,4,0,0,1,.44-1.93,3.06,3.06,0,0,1,1.24-1.28,3.69,3.69,0,0,1,1.84-.45,3.62,3.62,0,0,1,1.79.44,3.15,3.15,0,0,1,1.21,1.22,3.56,3.56,0,0,1,.42,1.74A6,6,0,0,1,1008.6,46.73Zm-1.48-2.13a2,2,0,0,0-.82-.74,2.5,2.5,0,0,0-1.13-.25,2.2,2.2,0,0,0-1.53.57,2.33,2.33,0,0,0-.72,1.59h4.5A2.21,2.21,0,0,0,1007.12,44.6Z"/><path d="M1012.73,43.7h-1.49v6.15h-1.19V43.7h-.92v-1h.92v-.51a2.24,2.24,0,0,1,.62-1.75,2.93,2.93,0,0,1,2-.55v1a1.56,1.56,0,0,0-1.09.3,1.32,1.32,0,0,0-.32,1v.51h1.49Z"/><path d="M1013.79,41.33a.75.75,0,0,1-.24-.57.78.78,0,0,1,.24-.57.74.74,0,0,1,.57-.23.73.73,0,0,1,.55.23.81.81,0,0,1,.23.57.78.78,0,0,1-.23.57.74.74,0,0,1-.55.24A.75.75,0,0,1,1013.79,41.33Zm1.14,1.4v7.12h-1.18V42.73Z"/><path d="M1022.16,43.38a3,3,0,0,1,.8,2.27v4.2h-1.17v-4a2.25,2.25,0,0,0-.53-1.63,1.89,1.89,0,0,0-1.46-.57,1.93,1.93,0,0,0-1.48.59,2.39,2.39,0,0,0-.56,1.7v3.94h-1.18V42.73h1.18v1a2.37,2.37,0,0,1,1-.84,3,3,0,0,1,1.33-.3A2.91,2.91,0,0,1,1022.16,43.38Z"/><path d="M1031,46.73h-5.7a2.31,2.31,0,0,0,.73,1.64,2.25,2.25,0,0,0,1.59.6,2.17,2.17,0,0,0,1.28-.36,1.92,1.92,0,0,0,.72-1h1.27a3,3,0,0,1-1.14,1.67,3.44,3.44,0,0,1-2.13.65,3.67,3.67,0,0,1-1.82-.46,3.17,3.17,0,0,1-1.25-1.29,4.07,4.07,0,0,1-.46-1.95,4,4,0,0,1,.45-1.93,3.06,3.06,0,0,1,1.24-1.28,3.66,3.66,0,0,1,1.84-.45,3.62,3.62,0,0,1,1.79.44,3.06,3.06,0,0,1,1.2,1.22A3.45,3.45,0,0,1,1031,46C1031,46.24,1031,46.48,1031,46.73Zm-1.48-2.13a2,2,0,0,0-.82-.74,2.5,2.5,0,0,0-1.13-.25,2.2,2.2,0,0,0-1.53.57,2.33,2.33,0,0,0-.72,1.59h4.49A2.31,2.31,0,0,0,1029.52,44.6Z"/><path d="M1042.28,42.94a2.49,2.49,0,0,1,1,1,3.48,3.48,0,0,1,.38,1.68v4.2h-1.17v-4a2.3,2.3,0,0,0-.53-1.63,1.85,1.85,0,0,0-1.42-.57,1.91,1.91,0,0,0-1.47.59,2.43,2.43,0,0,0-.55,1.71v3.93h-1.17v-4a2.25,2.25,0,0,0-.53-1.63,1.83,1.83,0,0,0-1.42-.57,1.94,1.94,0,0,0-1.47.59,2.47,2.47,0,0,0-.54,1.71v3.93h-1.19V42.73h1.19v1a2.21,2.21,0,0,1,.94-.85,2.84,2.84,0,0,1,1.31-.3,3.07,3.07,0,0,1,1.58.4,2.48,2.48,0,0,1,1,1.18,2.36,2.36,0,0,1,1-1.17,2.85,2.85,0,0,1,1.53-.41A3.11,3.11,0,0,1,1042.28,42.94Z"/><path d="M1051.72,46.73H1046a2.25,2.25,0,0,0,2.31,2.24,2.17,2.17,0,0,0,1.28-.36,1.92,1.92,0,0,0,.72-1h1.28a3.06,3.06,0,0,1-1.15,1.67,3.44,3.44,0,0,1-2.13.65,3.61,3.61,0,0,1-1.81-.46,3.2,3.2,0,0,1-1.26-1.29,4.07,4.07,0,0,1-.45-1.95,4,4,0,0,1,.44-1.93,3.06,3.06,0,0,1,1.24-1.28,3.69,3.69,0,0,1,1.84-.45,3.6,3.6,0,0,1,1.79.44,3.15,3.15,0,0,1,1.21,1.22,3.56,3.56,0,0,1,.42,1.74A6,6,0,0,1,1051.72,46.73Zm-1.48-2.13a2,2,0,0,0-.81-.74,2.57,2.57,0,0,0-1.14-.25,2.2,2.2,0,0,0-1.53.57,2.33,2.33,0,0,0-.72,1.59h4.5A2.21,2.21,0,0,0,1050.24,44.6Z"/><path d="M1058.53,43.38a3,3,0,0,1,.81,2.27v4.2h-1.17v-4a2.26,2.26,0,0,0-.54-1.63,1.88,1.88,0,0,0-1.45-.57,2,2,0,0,0-1.49.59,2.38,2.38,0,0,0-.55,1.7v3.94H1053V42.73h1.18v1a2.28,2.28,0,0,1,.95-.84,3,3,0,0,1,1.34-.3A2.9,2.9,0,0,1,1058.53,43.38Z"/><path d="M1062.35,43.7v4.2a1,1,0,0,0,.22.73,1.07,1.07,0,0,0,.77.22h.87v1h-1.06a2.16,2.16,0,0,1-1.49-.45,2,2,0,0,1-.49-1.5V43.7h-.92v-1h.92v-1.8h1.18v1.8h1.86v1Z"/><path d="M1069.68,49.51a3.16,3.16,0,0,1-1.27-1.29,4,4,0,0,1-.47-1.95,3.84,3.84,0,0,1,.48-1.93,3.31,3.31,0,0,1,1.29-1.28,4,4,0,0,1,3.67,0,3.24,3.24,0,0,1,1.29,1.28,3.79,3.79,0,0,1,.48,1.93,3.87,3.87,0,0,1-.49,1.95,3.41,3.41,0,0,1-1.32,1.29,3.84,3.84,0,0,1-1.85.46A3.69,3.69,0,0,1,1069.68,49.51Zm3-.88a2.29,2.29,0,0,0,.9-.9,2.87,2.87,0,0,0,.35-1.46,3,3,0,0,0-.34-1.45,2.18,2.18,0,0,0-.89-.89,2.37,2.37,0,0,0-1.18-.29,2.41,2.41,0,0,0-1.19.29,2.06,2.06,0,0,0-.86.89,3,3,0,0,0-.33,1.45,3.08,3.08,0,0,0,.32,1.47,2.09,2.09,0,0,0,.85.89,2.37,2.37,0,0,0,1.17.3A2.48,2.48,0,0,0,1072.69,48.63Z"/><path d="M1079.24,43.7h-1.49v6.15h-1.19V43.7h-.92v-1h.92v-.51a2.24,2.24,0,0,1,.62-1.75,2.91,2.91,0,0,1,2-.55v1a1.61,1.61,0,0,0-1.1.3,1.36,1.36,0,0,0-.31,1v.51h1.49Z"/><path d="M651.84,66.2v4.2a1,1,0,0,0,.22.73,1.07,1.07,0,0,0,.77.22h.87v1h-1.06a2.16,2.16,0,0,1-1.49-.45,2,2,0,0,1-.49-1.5V66.2h-.92v-1h.92v-1.8h1.18v1.8h1.86v1Z"/><path d="M659.76,65.44a2.41,2.41,0,0,1,1,1,3.48,3.48,0,0,1,.37,1.68v4.2H660v-4a2.3,2.3,0,0,0-.53-1.63,1.91,1.91,0,0,0-1.46-.57,2,2,0,0,0-1.49.59,2.43,2.43,0,0,0-.55,1.7v3.94h-1.18V62.73H656v3.51a2.33,2.33,0,0,1,1-.84,3.11,3.11,0,0,1,1.38-.3A3.05,3.05,0,0,1,659.76,65.44Z"/><path d="M669.19,69.23h-5.7a2.35,2.35,0,0,0,.72,1.64,2.29,2.29,0,0,0,1.6.6,2.19,2.19,0,0,0,1.28-.36,1.92,1.92,0,0,0,.72-1h1.27a3,3,0,0,1-1.14,1.67,3.46,3.46,0,0,1-2.13.65A3.67,3.67,0,0,1,664,72a3.17,3.17,0,0,1-1.25-1.29,4,4,0,0,1-.46-2,4.1,4.1,0,0,1,.44-1.93A3.09,3.09,0,0,1,664,65.56a3.66,3.66,0,0,1,1.84-.45,3.62,3.62,0,0,1,1.79.44,3.06,3.06,0,0,1,1.2,1.22,3.56,3.56,0,0,1,.42,1.74Q669.22,68.85,669.19,69.23ZM667.7,67.1a2,2,0,0,0-.81-.74,2.51,2.51,0,0,0-1.14-.25,2.19,2.19,0,0,0-1.52.57,2.33,2.33,0,0,0-.73,1.59H668A2.21,2.21,0,0,0,667.7,67.1Z"/><path d="M673.57,63.83a.75.75,0,0,1-.24-.57.78.78,0,0,1,.24-.57.74.74,0,0,1,.57-.23.71.71,0,0,1,.55.23.81.81,0,0,1,.23.57.78.78,0,0,1-.23.57.72.72,0,0,1-.55.24A.75.75,0,0,1,673.57,63.83Zm1.14,1.4v7.12h-1.18V65.23Z"/><path d="M681.94,65.88a3,3,0,0,1,.8,2.27v4.2h-1.17v-4a2.25,2.25,0,0,0-.53-1.63,1.88,1.88,0,0,0-1.45-.57,2,2,0,0,0-1.49.59,2.39,2.39,0,0,0-.56,1.7v3.94h-1.18V65.23h1.18v1a2.37,2.37,0,0,1,1-.84,3,3,0,0,1,1.33-.3A2.91,2.91,0,0,1,681.94,65.88Z"/><path d="M685.76,66.2v4.2a1,1,0,0,0,.22.73,1.06,1.06,0,0,0,.77.22h.87v1h-1.07a2.13,2.13,0,0,1-1.48-.45,2,2,0,0,1-.49-1.5V66.2h-.93v-1h.93v-1.8h1.18v1.8h1.86v1Z"/><path d="M695.15,69.23h-5.7a2.35,2.35,0,0,0,.72,1.64,2.29,2.29,0,0,0,1.6.6,2.17,2.17,0,0,0,1.28-.36,1.92,1.92,0,0,0,.72-1H695a3,3,0,0,1-1.14,1.67,3.44,3.44,0,0,1-2.13.65A3.67,3.67,0,0,1,690,72a3.17,3.17,0,0,1-1.25-1.29,4.36,4.36,0,0,1,0-3.88,3,3,0,0,1,1.24-1.28,3.66,3.66,0,0,1,1.84-.45,3.62,3.62,0,0,1,1.79.44,3.06,3.06,0,0,1,1.2,1.22,3.56,3.56,0,0,1,.43,1.74C695.19,68.74,695.17,69,695.15,69.23Zm-1.49-2.13a2,2,0,0,0-.81-.74,2.51,2.51,0,0,0-1.14-.25,2.19,2.19,0,0,0-1.52.57,2.38,2.38,0,0,0-.73,1.59H694A2.21,2.21,0,0,0,693.66,67.1Z"/><path d="M698.46,65.43a2.78,2.78,0,0,1,1.41-.33v1.22h-.32c-1.32,0-2,.72-2,2.16v3.87h-1.18V65.23h1.18v1.15A2.35,2.35,0,0,1,698.46,65.43Z"/><path d="M703.77,66.2h-1.5v6.15h-1.18V66.2h-.93v-1h.93v-.51a2.21,2.21,0,0,1,.62-1.75,2.91,2.91,0,0,1,2-.55v1a1.59,1.59,0,0,0-1.1.3,1.36,1.36,0,0,0-.32,1v.51h1.5Z"/><path d="M704.78,66.84A3.25,3.25,0,0,1,706,65.56a3.38,3.38,0,0,1,1.73-.45,3.14,3.14,0,0,1,1.62.4,2.73,2.73,0,0,1,1,1v-1.3h1.2v7.12h-1.2V71a2.83,2.83,0,0,1-1,1,3.14,3.14,0,0,1-1.62.41,3.24,3.24,0,0,1-2.92-1.78,4.07,4.07,0,0,1-.44-1.93A4,4,0,0,1,704.78,66.84Zm5.26.53a2.27,2.27,0,0,0-.87-.92,2.43,2.43,0,0,0-1.22-.31,2.4,2.4,0,0,0-1.21.31,2.31,2.31,0,0,0-.87.91,2.84,2.84,0,0,0-.32,1.4,3,3,0,0,0,.32,1.43,2.34,2.34,0,0,0,.87.92,2.4,2.4,0,0,0,1.21.32,2.44,2.44,0,0,0,1.22-.32,2.21,2.21,0,0,0,.87-.92,3,3,0,0,0,.33-1.42A2.87,2.87,0,0,0,710,67.37Z"/><path d="M713.2,66.84a3.29,3.29,0,0,1,1.23-1.28,3.59,3.59,0,0,1,1.8-.45,3.49,3.49,0,0,1,2.17.64,3,3,0,0,1,1.12,1.76h-1.27a1.82,1.82,0,0,0-.71-1,2.14,2.14,0,0,0-1.31-.38,2.1,2.1,0,0,0-1.64.7,2.86,2.86,0,0,0-.62,2,2.91,2.91,0,0,0,.62,2,2.11,2.11,0,0,0,1.64.71,2.22,2.22,0,0,0,1.3-.37,1.83,1.83,0,0,0,.72-1h1.27a3.14,3.14,0,0,1-1.14,1.75,3.44,3.44,0,0,1-2.15.66,3.6,3.6,0,0,1-1.8-.46,3.23,3.23,0,0,1-1.23-1.28,4.2,4.2,0,0,1-.44-2A4.13,4.13,0,0,1,713.2,66.84Z"/><path d="M727.19,69.23H721.5a2.25,2.25,0,0,0,2.31,2.24,2.17,2.17,0,0,0,1.28-.36,1.92,1.92,0,0,0,.72-1h1.28a3,3,0,0,1-1.15,1.67,3.44,3.44,0,0,1-2.13.65A3.61,3.61,0,0,1,722,72a3.2,3.2,0,0,1-1.26-1.29,4.45,4.45,0,0,1,0-3.88A3.06,3.06,0,0,1,722,65.56a3.94,3.94,0,0,1,3.64,0,3.06,3.06,0,0,1,1.2,1.22,3.56,3.56,0,0,1,.42,1.74A6,6,0,0,1,727.19,69.23Zm-1.48-2.13a2,2,0,0,0-.81-.74,2.57,2.57,0,0,0-1.14-.25,2.2,2.2,0,0,0-1.53.57,2.33,2.33,0,0,0-.72,1.59H726A2.21,2.21,0,0,0,725.71,67.1Z"/></g></g></svg>