<svg xmlns="http://www.w3.org/2000/svg" viewBox="0 0 1251.65 48.67"><defs><style>.cls-1{fill:#fff;}</style></defs><g id="图层_2" data-name="图层 2"><g id="图层_1-2" data-name="图层 1"><rect class="cls-1" width="1251.65" height="48.67"/><path d="M95.26,4.74a6,6,0,0,1,2.58,2.44,7.31,7.31,0,0,1,.91,3.71,7.15,7.15,0,0,1-.91,3.68A6,6,0,0,1,95.26,17a8.67,8.67,0,0,1-3.89.83H86.83V3.89h4.54A8.41,8.41,0,0,1,95.26,4.74Zm-.15,9.87a5.06,5.06,0,0,0,1.3-3.72,5.24,5.24,0,0,0-1.3-3.78,4.9,4.9,0,0,0-3.74-1.36H89.11V15.93h2.26A5,5,0,0,0,95.11,14.61Z"/><path d="M110.47,13.13h-8.42a3,3,0,0,0,3.14,2.92,2.65,2.65,0,0,0,2.6-1.54h2.46A4.93,4.93,0,0,1,108.44,17a5.33,5.33,0,0,1-3.25,1,5.69,5.69,0,0,1-2.83-.71,5.1,5.1,0,0,1-2-2,6.15,6.15,0,0,1-.71-3,6.25,6.25,0,0,1,.69-3,4.89,4.89,0,0,1,1.94-2,5.76,5.76,0,0,1,2.87-.7,5.53,5.53,0,0,1,2.78.68,4.72,4.72,0,0,1,1.9,1.91,5.67,5.67,0,0,1,.68,2.83A6.41,6.41,0,0,1,110.47,13.13Zm-2.3-1.84a2.58,2.58,0,0,0-.9-2,3.18,3.18,0,0,0-2.18-.76,2.94,2.94,0,0,0-2,.75,3.16,3.16,0,0,0-1,2Z"/><path d="M114.51,3v14.8h-2.28V3Z"/><path d="M117.07,4.89a1.42,1.42,0,0,1-.42-1,1.43,1.43,0,0,1,1.46-1.46,1.39,1.39,0,0,1,1,.42,1.42,1.42,0,0,1,.42,1,1.42,1.42,0,0,1-.42,1,1.39,1.39,0,0,1-1,.42A1.42,1.42,0,0,1,117.07,4.89Zm2.16,1.88v11H117v-11Z"/><path d="M125.93,15.75l3.12-9h2.42l-4.2,11h-2.72l-4.18-11h2.44Z"/><path d="M142.65,13.13h-8.42a3,3,0,0,0,3.14,2.92,2.65,2.65,0,0,0,2.6-1.54h2.46A4.93,4.93,0,0,1,140.62,17a5.33,5.33,0,0,1-3.25,1,5.69,5.69,0,0,1-2.83-.71,5.1,5.1,0,0,1-2-2,6.15,6.15,0,0,1-.71-3,6.25,6.25,0,0,1,.69-3,4.89,4.89,0,0,1,1.94-2,5.76,5.76,0,0,1,2.87-.7,5.53,5.53,0,0,1,2.78.68,4.72,4.72,0,0,1,1.9,1.91,5.67,5.67,0,0,1,.68,2.83A6.41,6.41,0,0,1,142.65,13.13Zm-2.3-1.84a2.58,2.58,0,0,0-.9-2,3.18,3.18,0,0,0-2.18-.76,2.94,2.94,0,0,0-2,.75,3.16,3.16,0,0,0-1,2Z"/><path d="M148,7.06a4,4,0,0,1,2-.47V9h-.58a2.8,2.8,0,0,0-2,.68,3.25,3.25,0,0,0-.69,2.36v5.8h-2.28v-11h2.28v1.6A3.63,3.63,0,0,1,148,7.06Z"/><path d="M151.46,9.29A5,5,0,0,1,156,6.59a4.78,4.78,0,0,1,2.27.51,4.47,4.47,0,0,1,1.55,1.27V6.77h2.3v11h-2.3V16.15a4.47,4.47,0,0,1-1.58,1.3,4.79,4.79,0,0,1-2.28.52,4.84,4.84,0,0,1-2.6-.73,5.27,5.27,0,0,1-1.87-2,6.26,6.26,0,0,1-.69-3A6.08,6.08,0,0,1,151.46,9.29Zm7.86,1a3.24,3.24,0,0,0-2.87-1.72,3.27,3.27,0,0,0-1.64.43,3.39,3.39,0,0,0-1.23,1.26,4,4,0,0,0-.47,2,4.16,4.16,0,0,0,.47,2,3.41,3.41,0,0,0,1.24,1.31,3.22,3.22,0,0,0,4.5-1.28,4,4,0,0,0,.47-2A3.92,3.92,0,0,0,159.32,10.29Z"/><path d="M168.4,7.1a5,5,0,0,1,2.25-.51,5,5,0,0,1,2.64.7,4.9,4.9,0,0,1,1.86,2,6.14,6.14,0,0,1,.68,3,6.25,6.25,0,0,1-.68,3,5.05,5.05,0,0,1-1.87,2,4.89,4.89,0,0,1-2.63.73,5,5,0,0,1-2.27-.5,4.36,4.36,0,0,1-1.57-1.28v1.6h-2.28V3h2.28V8.41A4.41,4.41,0,0,1,168.4,7.1ZM173,10.26A3.2,3.2,0,0,0,171.8,9a3.31,3.31,0,0,0-3.28,0,3.32,3.32,0,0,0-1.24,1.28,4,4,0,0,0-.47,2,4.09,4.09,0,0,0,.47,2A3.25,3.25,0,0,0,170.15,16a3.2,3.2,0,0,0,1.65-.45A3.27,3.27,0,0,0,173,14.23a4,4,0,0,0,.47-2A3.86,3.86,0,0,0,173,10.26Z"/><path d="M179.81,3v14.8h-2.28V3Z"/><path d="M192.27,13.13h-8.42A3,3,0,0,0,187,16.05a2.65,2.65,0,0,0,2.6-1.54h2.46A4.93,4.93,0,0,1,190.24,17,5.33,5.33,0,0,1,187,18a5.69,5.69,0,0,1-2.83-.71,5.1,5.1,0,0,1-2-2,6.15,6.15,0,0,1-.71-3,6.25,6.25,0,0,1,.69-3,4.89,4.89,0,0,1,1.94-2,5.76,5.76,0,0,1,2.87-.7,5.53,5.53,0,0,1,2.78.68,4.72,4.72,0,0,1,1.9,1.91,5.67,5.67,0,0,1,.68,2.83A6.41,6.41,0,0,1,192.27,13.13ZM190,11.29a2.58,2.58,0,0,0-.9-2,3.18,3.18,0,0,0-2.18-.76,2.94,2.94,0,0,0-2,.75,3.16,3.16,0,0,0-1,2Z"/><path d="M195.7,17.5a4.11,4.11,0,0,1-1.63-1.28,3.21,3.21,0,0,1-.64-1.81h2.36a1.62,1.62,0,0,0,.67,1.17,2.47,2.47,0,0,0,1.53.47,2.54,2.54,0,0,0,1.49-.37,1.1,1.1,0,0,0,.53-.95,1,1,0,0,0-.59-.92,10.74,10.74,0,0,0-1.87-.66,20.1,20.1,0,0,1-2-.66,3.51,3.51,0,0,1-1.35-1,2.57,2.57,0,0,1-.57-1.74,2.74,2.74,0,0,1,.52-1.61A3.5,3.5,0,0,1,195.62,7a5.58,5.58,0,0,1,2.23-.42,4.54,4.54,0,0,1,3,1,3.39,3.39,0,0,1,1.23,2.59h-2.28a1.62,1.62,0,0,0-.6-1.18,2.19,2.19,0,0,0-1.46-.44,2.34,2.34,0,0,0-1.38.34,1.06,1.06,0,0,0-.48.9,1,1,0,0,0,.32.74A2.36,2.36,0,0,0,197,11c.31.11.76.26,1.36.43a14.17,14.17,0,0,1,2,.65,3.55,3.55,0,0,1,1.33,1,2.52,2.52,0,0,1,.58,1.7,2.84,2.84,0,0,1-.52,1.68,3.39,3.39,0,0,1-1.47,1.16A5.44,5.44,0,0,1,198,18,5.64,5.64,0,0,1,195.7,17.5Z"/><path d="M213.41,8.63h-2v9.16h-2.3V8.63h-1.3V6.77h1.3V6a3.47,3.47,0,0,1,1-2.77,4.8,4.8,0,0,1,3.17-.87v1.9a2.15,2.15,0,0,0-1.46.39A1.79,1.79,0,0,0,211.37,6v.78h2Z"/><path d="M216.83,17.26a5.08,5.08,0,0,1-2-2,6,6,0,0,1-.72-3,5.93,5.93,0,0,1,.74-3,5.18,5.18,0,0,1,2-2,6.19,6.19,0,0,1,5.72,0,5,5,0,0,1,2,2,5.83,5.83,0,0,1,.74,3,5.77,5.77,0,0,1-.76,3,5.13,5.13,0,0,1-2.07,2,6,6,0,0,1-2.89.71A5.68,5.68,0,0,1,216.83,17.26Zm4.47-1.69a3.16,3.16,0,0,0,1.25-1.26,4.05,4.05,0,0,0,.48-2,4.09,4.09,0,0,0-.46-2A3.06,3.06,0,0,0,221.35,9a3.39,3.39,0,0,0-3.27,0,3.06,3.06,0,0,0-1.19,1.25,4.32,4.32,0,0,0-.44,2,3.9,3.9,0,0,0,.91,2.75,3,3,0,0,0,2.29,1A3.37,3.37,0,0,0,221.3,15.57Z"/><path d="M230.68,7.06a4,4,0,0,1,2-.47V9h-.58a2.8,2.8,0,0,0-2,.68,3.25,3.25,0,0,0-.69,2.36v5.8h-2.28v-11h2.28v1.6A3.63,3.63,0,0,1,230.68,7.06Z"/><path d="M253.47,3.89v13.9h-2.28V8.27L247,17.79h-1.58l-4.26-9.52v9.52h-2.28V3.89h2.46l4.88,10.9L251,3.89Z"/><path d="M255.84,9.29a5,5,0,0,1,4.51-2.7,4.81,4.81,0,0,1,2.27.51,4.57,4.57,0,0,1,1.55,1.27V6.77h2.3v11h-2.3V16.15a4.56,4.56,0,0,1-1.58,1.3,5.11,5.11,0,0,1-4.88-.21,5.2,5.2,0,0,1-1.87-2,6.26,6.26,0,0,1-.69-3A6.08,6.08,0,0,1,255.84,9.29Zm7.86,1a3.26,3.26,0,0,0-5.74,0,4,4,0,0,0-.47,2,4.16,4.16,0,0,0,.47,2,3.34,3.34,0,0,0,1.24,1.31,3.18,3.18,0,0,0,1.63.45,3.25,3.25,0,0,0,1.64-.44,3.19,3.19,0,0,0,1.23-1.29,4.09,4.09,0,0,0,.47-2A4,4,0,0,0,263.7,10.29Z"/><path d="M272.52,7.06a4,4,0,0,1,2-.47V9h-.58a2.8,2.8,0,0,0-2,.68,3.25,3.25,0,0,0-.69,2.36v5.8h-2.28v-11h2.28v1.6A3.56,3.56,0,0,1,272.52,7.06Z"/><path d="M280.39,12.29l5.08,5.5h-3.08l-4.08-4.74v4.74H276V3h2.28v8.6l4-4.82h3.16Z"/><path d="M296.57,13.13h-8.42a3.05,3.05,0,0,0,1,2.12,3.12,3.12,0,0,0,2.16.8,2.66,2.66,0,0,0,2.6-1.54h2.46A5,5,0,0,1,294.54,17a5.35,5.35,0,0,1-3.25,1,5.66,5.66,0,0,1-2.83-.71,5,5,0,0,1-2-2,6.15,6.15,0,0,1-.71-3,6.25,6.25,0,0,1,.69-3,4.89,4.89,0,0,1,1.94-2,5.73,5.73,0,0,1,2.87-.7,5.53,5.53,0,0,1,2.78.68A4.78,4.78,0,0,1,296,9.18a5.78,5.78,0,0,1,.68,2.83A7.55,7.55,0,0,1,296.57,13.13Zm-2.3-1.84a2.58,2.58,0,0,0-.9-2,3.2,3.2,0,0,0-2.18-.76,2.92,2.92,0,0,0-2,.75,3.16,3.16,0,0,0-1,2Z"/><path d="M301,8.63v6.1a1.19,1.19,0,0,0,.29.89,1.43,1.43,0,0,0,1,.27h1.4v1.9h-1.8a3.47,3.47,0,0,1-2.36-.72,3,3,0,0,1-.82-2.34V8.63h-1.3V6.77h1.3V4H301V6.77h2.68V8.63Z"/><path d="M318.83,3.89V5.75h-3.7v12h-2.28v-12h-3.72V3.89Z"/><path d="M330.59,13.13h-8.42a3.05,3.05,0,0,0,1,2.12,3.12,3.12,0,0,0,2.16.8,2.66,2.66,0,0,0,2.6-1.54h2.46A5,5,0,0,1,328.56,17a5.35,5.35,0,0,1-3.25,1,5.66,5.66,0,0,1-2.83-.71,5,5,0,0,1-2-2,6.15,6.15,0,0,1-.71-3,6.25,6.25,0,0,1,.69-3,4.89,4.89,0,0,1,1.94-2,5.73,5.73,0,0,1,2.87-.7,5.53,5.53,0,0,1,2.78.68A4.78,4.78,0,0,1,330,9.18a5.78,5.78,0,0,1,.68,2.83A7.55,7.55,0,0,1,330.59,13.13Zm-2.3-1.84a2.58,2.58,0,0,0-.9-2,3.2,3.2,0,0,0-2.18-.76,2.92,2.92,0,0,0-2,.75,3.16,3.16,0,0,0-1,2Z"/><path d="M332.28,9.29a5,5,0,0,1,4.51-2.7,4.81,4.81,0,0,1,2.27.51,4.57,4.57,0,0,1,1.55,1.27V6.77h2.3v11h-2.3V16.15a4.56,4.56,0,0,1-1.58,1.3,5.11,5.11,0,0,1-4.88-.21,5.2,5.2,0,0,1-1.87-2,6.26,6.26,0,0,1-.69-3A6.08,6.08,0,0,1,332.28,9.29Zm7.86,1a3.26,3.26,0,0,0-5.74,0,4,4,0,0,0-.47,2,4.16,4.16,0,0,0,.47,2,3.34,3.34,0,0,0,1.24,1.31,3.18,3.18,0,0,0,1.63.45,3.25,3.25,0,0,0,1.64-.44,3.19,3.19,0,0,0,1.23-1.29,4.09,4.09,0,0,0,.47-2A4,4,0,0,0,340.14,10.29Z"/><path d="M361,7.13a3.84,3.84,0,0,1,1.62,1.6,5.24,5.24,0,0,1,.59,2.56v6.5H361V11.63a3.21,3.21,0,0,0-.74-2.27,2.62,2.62,0,0,0-2-.79,2.66,2.66,0,0,0-2,.79,3.17,3.17,0,0,0-.75,2.27v6.16h-2.26V11.63a3.21,3.21,0,0,0-.74-2.27,2.62,2.62,0,0,0-2-.79,2.66,2.66,0,0,0-2,.79,3.17,3.17,0,0,0-.75,2.27v6.16h-2.28v-11h2.28V8A3.79,3.79,0,0,1,349.05,7a4.56,4.56,0,0,1,1.84-.38,4.93,4.93,0,0,1,2.36.56,3.79,3.79,0,0,1,1.6,1.62,3.62,3.62,0,0,1,1.56-1.59,4.67,4.67,0,0,1,2.28-.59A4.94,4.94,0,0,1,361,7.13Z"/><path d="M96.17,33.83A3.46,3.46,0,0,1,97,36.05,3.41,3.41,0,0,1,96.4,38a3.65,3.65,0,0,1-1.59,1.34,5.56,5.56,0,0,1-2.42.49H86.83V25.89h5.3a5.68,5.68,0,0,1,2.44.48,3.54,3.54,0,0,1,1.54,1.29,3.24,3.24,0,0,1,.52,1.81,3.08,3.08,0,0,1-.64,2,3.77,3.77,0,0,1-1.72,1.18A3.06,3.06,0,0,1,96.17,33.83Zm-7.06-2.1h2.82a2.7,2.7,0,0,0,1.75-.51,1.78,1.78,0,0,0,.63-1.47,1.81,1.81,0,0,0-.63-1.47,2.65,2.65,0,0,0-1.75-.53H89.11ZM94,37.37a1.93,1.93,0,0,0,.66-1.56,2,2,0,0,0-.7-1.62,2.74,2.74,0,0,0-1.86-.6h-3v4.34h3.08A2.73,2.73,0,0,0,94,37.37Z"/><path d="M102.48,29.06a4,4,0,0,1,2-.47V31h-.58a2.8,2.8,0,0,0-2,.68,3.25,3.25,0,0,0-.69,2.36v5.8H98.87v-11h2.28v1.6A3.63,3.63,0,0,1,102.48,29.06Z"/><path d="M105.92,31.29a5,5,0,0,1,4.51-2.7,4.78,4.78,0,0,1,2.27.51,4.47,4.47,0,0,1,1.55,1.27v-1.6h2.3v11h-2.3V38.15a4.47,4.47,0,0,1-1.58,1.3,4.79,4.79,0,0,1-2.28.52,4.84,4.84,0,0,1-2.6-.73,5.27,5.27,0,0,1-1.87-2,6.26,6.26,0,0,1-.69-3A6.08,6.08,0,0,1,105.92,31.29Zm7.86,1a3.24,3.24,0,0,0-2.87-1.72,3.27,3.27,0,0,0-1.64.43A3.39,3.39,0,0,0,108,32.26a4,4,0,0,0-.47,2,4.16,4.16,0,0,0,.47,2,3.41,3.41,0,0,0,1.24,1.31,3.22,3.22,0,0,0,4.5-1.28,4,4,0,0,0,.47-2A3.92,3.92,0,0,0,113.78,32.29Z"/><path d="M126.88,29.13a3.77,3.77,0,0,1,1.61,1.6,5.24,5.24,0,0,1,.58,2.56v6.5h-2.26V33.63a3.17,3.17,0,0,0-.74-2.27,2.61,2.61,0,0,0-2-.79,2.66,2.66,0,0,0-2,.79,3.17,3.17,0,0,0-.75,2.27v6.16H119v-11h2.28V30A3.83,3.83,0,0,1,122.7,29a4.64,4.64,0,0,1,1.85-.38A4.91,4.91,0,0,1,126.88,29.13Z"/><path d="M131.34,31.29a5,5,0,0,1,4.53-2.7,5.22,5.22,0,0,1,2.13.47,4.3,4.3,0,0,1,1.67,1.25V25H142v14.8h-2.3V38.13a4.31,4.31,0,0,1-1.55,1.32,4.75,4.75,0,0,1-2.27.52,4.92,4.92,0,0,1-2.63-.73,5.22,5.22,0,0,1-1.88-2,6.26,6.26,0,0,1-.69-3A6.08,6.08,0,0,1,131.34,31.29Zm7.86,1a3.24,3.24,0,0,0-2.87-1.72,3.27,3.27,0,0,0-1.64.43,3.39,3.39,0,0,0-1.23,1.26,4,4,0,0,0-.47,2,4.16,4.16,0,0,0,.47,2,3.41,3.41,0,0,0,1.24,1.31,3.22,3.22,0,0,0,4.5-1.28,4,4,0,0,0,.47-2A3.92,3.92,0,0,0,139.2,32.29Z"/><path d="M161,25.89l-5.22,13.9h-2.64l-5.24-13.9h2.44l4.12,11.56,4.14-11.56Z"/><path d="M164.65,25.89v13.9h-2.28V25.89Z"/></g></g></svg>