<svg xmlns="http://www.w3.org/2000/svg" viewBox="0 0 1252.1 65.15"><defs><style>.cls-1{fill:#fff;}</style></defs><g id="图层_2" data-name="图层 2"><g id="图层_1-2" data-name="图层 1"><rect class="cls-1" width="1252.1" height="65.15"/><path d="M101.16,25.29v3.26H90.83v7.17h8V39h-8V49.62h-4V25.29Z"/><path d="M104.1,27a2.55,2.55,0,0,1,1.82-4.37,2.41,2.41,0,0,1,1.78.73,2.61,2.61,0,0,1,0,3.64,2.42,2.42,0,0,1-1.78.74A2.47,2.47,0,0,1,104.1,27Zm3.78,3.29V49.62h-4V30.33Z"/><path d="M129.68,41.46H115a5.34,5.34,0,0,0,1.71,3.71,5.39,5.39,0,0,0,3.78,1.4A4.65,4.65,0,0,0,125,43.88h4.31a8.78,8.78,0,0,1-3.17,4.36,9.3,9.3,0,0,1-5.69,1.69,9.83,9.83,0,0,1-5-1.24,8.82,8.82,0,0,1-3.43-3.5A10.64,10.64,0,0,1,110.82,40a11,11,0,0,1,1.2-5.23,8.53,8.53,0,0,1,3.4-3.49,10.17,10.17,0,0,1,5-1.22,9.9,9.9,0,0,1,4.87,1.19,8.4,8.4,0,0,1,3.32,3.34,10,10,0,0,1,1.19,5A11.64,11.64,0,0,1,129.68,41.46Zm-4-3.22a4.55,4.55,0,0,0-1.58-3.53,5.6,5.6,0,0,0-3.81-1.33,5.15,5.15,0,0,0-3.54,1.31A5.51,5.51,0,0,0,115,38.24Z"/><path d="M136.75,23.72v25.9h-4V23.72Z"/><path d="M140.9,34.74A8.79,8.79,0,0,1,148.83,30a9,9,0,0,1,3.72.82A7.69,7.69,0,0,1,155.48,33V23.72h4v25.9h-4V46.71A7.38,7.38,0,0,1,152.76,49a8.33,8.33,0,0,1-4,.91,8.63,8.63,0,0,1-4.6-1.27,9.08,9.08,0,0,1-3.29-3.57,10.93,10.93,0,0,1-1.21-5.2A10.65,10.65,0,0,1,140.9,34.74Zm13.75,1.75a5.73,5.73,0,0,0-2.15-2.24,5.71,5.71,0,0,0-7.89,2.19,6.88,6.88,0,0,0-.82,3.45,7.16,7.16,0,0,0,.82,3.5,5.78,5.78,0,0,0,2.17,2.29,5.52,5.52,0,0,0,2.85.79,5.63,5.63,0,0,0,5-3,7.69,7.69,0,0,0,0-6.95Z"/><path d="M184.53,49.62l-5.6-9.73h-3.05v9.73h-4V25.29h8.4a10.45,10.45,0,0,1,4.74,1,6.8,6.8,0,0,1,2.91,2.63,7.16,7.16,0,0,1,1,3.67,7.32,7.32,0,0,1-1.38,4.33,7,7,0,0,1-4.25,2.64l6,10.08ZM175.88,36.7h4.41a4.63,4.63,0,0,0,3.38-1.12,4,4,0,0,0,1.14-3,3.9,3.9,0,0,0-1.12-2.95,4.73,4.73,0,0,0-3.4-1.07h-4.41Z"/><path d="M210.57,41.46H195.83a5.33,5.33,0,0,0,5.5,5.11,4.67,4.67,0,0,0,4.55-2.69h4.3A8.72,8.72,0,0,1,207,48.24a9.27,9.27,0,0,1-5.68,1.69,9.85,9.85,0,0,1-5-1.24,8.88,8.88,0,0,1-3.43-3.5A10.75,10.75,0,0,1,191.7,40a10.86,10.86,0,0,1,1.21-5.23,8.51,8.51,0,0,1,3.39-3.49,10.21,10.21,0,0,1,5-1.22,9.83,9.83,0,0,1,4.86,1.19,8.49,8.49,0,0,1,3.33,3.34,10.12,10.12,0,0,1,1.19,5A12.79,12.79,0,0,1,210.57,41.46Zm-4-3.22A4.54,4.54,0,0,0,205,34.71a5.63,5.63,0,0,0-3.82-1.33,5.13,5.13,0,0,0-3.53,1.31,5.47,5.47,0,0,0-1.75,3.55Z"/><path d="M216.57,49.11a7.14,7.14,0,0,1-2.85-2.24,5.52,5.52,0,0,1-1.12-3.17h4.13a2.82,2.82,0,0,0,1.17,2,4.24,4.24,0,0,0,2.68.82,4.5,4.5,0,0,0,2.6-.64,2,2,0,0,0,.93-1.67,1.71,1.71,0,0,0-1-1.61,19.56,19.56,0,0,0-3.27-1.15,30.7,30.7,0,0,1-3.54-1.16,6.1,6.1,0,0,1-2.36-1.71,4.48,4.48,0,0,1-1-3.05,4.71,4.71,0,0,1,.91-2.81,6,6,0,0,1,2.61-2,9.72,9.72,0,0,1,3.9-.73,8,8,0,0,1,5.3,1.66,6,6,0,0,1,2.16,4.53h-4a2.83,2.83,0,0,0-1.05-2.06,4,4,0,0,0-2.56-.77,4.18,4.18,0,0,0-2.41.59,1.86,1.86,0,0,0-.84,1.58,1.68,1.68,0,0,0,.56,1.29,3.94,3.94,0,0,0,1.36.83c.54.19,1.33.45,2.38.75a24.82,24.82,0,0,1,3.45,1.14A6.47,6.47,0,0,1,227,41.25a4.5,4.5,0,0,1,1,3,5,5,0,0,1-.91,2.94,6.06,6.06,0,0,1-2.57,2,10.67,10.67,0,0,1-8-.09Z"/><path d="M248.89,41.46H234.16a5.3,5.3,0,0,0,1.71,3.71,5.39,5.39,0,0,0,3.78,1.4,4.66,4.66,0,0,0,4.55-2.69h4.31a8.78,8.78,0,0,1-3.17,4.36,9.32,9.32,0,0,1-5.69,1.69,9.83,9.83,0,0,1-5-1.24,8.82,8.82,0,0,1-3.43-3.5A10.64,10.64,0,0,1,230,40a11,11,0,0,1,1.2-5.23,8.53,8.53,0,0,1,3.4-3.49,10.17,10.17,0,0,1,5-1.22,9.9,9.9,0,0,1,4.87,1.19,8.4,8.4,0,0,1,3.32,3.34,10.12,10.12,0,0,1,1.19,5A12.79,12.79,0,0,1,248.89,41.46Zm-4-3.22a4.55,4.55,0,0,0-1.58-3.53,5.62,5.62,0,0,0-3.81-1.33,5.15,5.15,0,0,0-3.54,1.31,5.51,5.51,0,0,0-1.75,3.55Z"/><path d="M251.85,34.74A8.79,8.79,0,0,1,259.74,30a8.45,8.45,0,0,1,4,.89,8.28,8.28,0,0,1,2.72,2.22v-2.8h4V49.62h-4V46.75A7.86,7.86,0,0,1,263.66,49a9,9,0,0,1-8.54-.36,9.11,9.11,0,0,1-3.27-3.57,10.93,10.93,0,0,1-1.21-5.2A10.65,10.65,0,0,1,251.85,34.74Zm13.75,1.75a5.8,5.8,0,0,0-2.15-2.24,5.71,5.71,0,0,0-7.89,2.19,6.88,6.88,0,0,0-.82,3.45,7.16,7.16,0,0,0,.82,3.5,5.78,5.78,0,0,0,2.17,2.29,5.52,5.52,0,0,0,2.85.79,5.66,5.66,0,0,0,2.87-.77,5.72,5.72,0,0,0,2.15-2.26,7.69,7.69,0,0,0,0-6.95Z"/><path d="M281,30.84a6.84,6.84,0,0,1,3.44-.82v4.13h-1a4.86,4.86,0,0,0-3.55,1.19c-.81.79-1.21,2.17-1.21,4.13V49.62h-4V30.33h4v2.8A6.24,6.24,0,0,1,281,30.84Z"/><path d="M287.06,34.73a8.58,8.58,0,0,1,3.34-3.49A9.73,9.73,0,0,1,295.3,30a9.6,9.6,0,0,1,5.79,1.66,8.21,8.21,0,0,1,3.1,4.74h-4.31a4.6,4.6,0,0,0-1.68-2.24,5,5,0,0,0-2.9-.8,4.85,4.85,0,0,0-3.9,1.73A7.33,7.33,0,0,0,289.94,40a7.36,7.36,0,0,0,1.46,4.86,4.8,4.8,0,0,0,3.9,1.75,4.41,4.41,0,0,0,4.58-3h4.31A8.59,8.59,0,0,1,301,48.2a9.26,9.26,0,0,1-5.74,1.73,9.54,9.54,0,0,1-4.9-1.24,8.67,8.67,0,0,1-3.34-3.5A10.86,10.86,0,0,1,285.85,40,10.86,10.86,0,0,1,287.06,34.73Z"/><path d="M321.11,31a6.71,6.71,0,0,1,2.73,2.8,9.29,9.29,0,0,1,1,4.48V49.62h-4V38.84a5.6,5.6,0,0,0-1.29-4,4.58,4.58,0,0,0-3.54-1.39,4.65,4.65,0,0,0-3.55,1.39,5.56,5.56,0,0,0-1.31,4V49.62h-4V23.72h4v8.85a6.83,6.83,0,0,1,2.57-1.89,8.67,8.67,0,0,1,3.41-.66A8.08,8.08,0,0,1,321.11,31Z"/><path d="M651.58,18.29v9.06H650.4V18.29Z"/><path d="M656.34,21.84a3.29,3.29,0,0,1,1.23-1.28,3.56,3.56,0,0,1,1.8-.45,3.49,3.49,0,0,1,2.17.64,3,3,0,0,1,1.12,1.76h-1.27a1.87,1.87,0,0,0-.71-1,2.21,2.21,0,0,0-1.31-.38,2.1,2.1,0,0,0-1.64.7,2.86,2.86,0,0,0-.62,2,2.91,2.91,0,0,0,.62,2,2.11,2.11,0,0,0,1.64.71,2.24,2.24,0,0,0,1.3-.37,1.83,1.83,0,0,0,.72-1h1.27a3.14,3.14,0,0,1-1.14,1.75,3.44,3.44,0,0,1-2.15.66,3.57,3.57,0,0,1-1.8-.46,3.19,3.19,0,0,1-1.23-1.29,4.5,4.5,0,0,1,0-3.88Z"/><path d="M665.16,27a3.22,3.22,0,0,1-1.27-1.29,4,4,0,0,1-.46-1.95,3.83,3.83,0,0,1,.47-1.93,3.33,3.33,0,0,1,1.3-1.28,3.7,3.7,0,0,1,1.83-.45,3.76,3.76,0,0,1,1.83.45,3.18,3.18,0,0,1,1.29,1.28,4.12,4.12,0,0,1,0,3.88A3.28,3.28,0,0,1,668.82,27a3.8,3.8,0,0,1-1.84.46A3.7,3.7,0,0,1,665.16,27Zm3-.88a2.31,2.31,0,0,0,.91-.9,3,3,0,0,0,.34-1.46,2.85,2.85,0,0,0-.34-1.45,2.16,2.16,0,0,0-.88-.89,2.44,2.44,0,0,0-1.19-.29,2.35,2.35,0,0,0-1.18.29,2.08,2.08,0,0,0-.87.89,3,3,0,0,0-.32,1.45,3.08,3.08,0,0,0,.31,1.47,2.11,2.11,0,0,0,.86.89,2.32,2.32,0,0,0,1.17.3A2.47,2.47,0,0,0,668.17,26.13Z"/><path d="M677.4,20.88a3,3,0,0,1,.81,2.27v4.2H677v-4a2.26,2.26,0,0,0-.54-1.63,1.88,1.88,0,0,0-1.45-.57,2,2,0,0,0-1.49.59,2.38,2.38,0,0,0-.55,1.7v3.94h-1.19V20.23H673v1a2.37,2.37,0,0,1,1-.85,3.13,3.13,0,0,1,1.34-.29A2.9,2.9,0,0,1,677.4,20.88Z"/><path d="M679.78,21.84A3.27,3.27,0,0,1,681,20.56a3.36,3.36,0,0,1,1.73-.45,3.29,3.29,0,0,1,1.55.38,2.74,2.74,0,0,1,1.09,1V17.73h1.2v9.62h-1.2V26a2.76,2.76,0,0,1-1,1,3.13,3.13,0,0,1-1.61.41,3.27,3.27,0,0,1-2.94-1.78,4.19,4.19,0,0,1-.44-1.93A4.06,4.06,0,0,1,679.78,21.84Zm5.27.53a2.36,2.36,0,0,0-.88-.92,2.43,2.43,0,0,0-1.22-.31,2.4,2.4,0,0,0-1.21.31,2.31,2.31,0,0,0-.87.91,3,3,0,0,0-.32,1.4,3,3,0,0,0,.32,1.42,2.31,2.31,0,0,0,.87.93,2.4,2.4,0,0,0,1.21.32,2.44,2.44,0,0,0,1.22-.32,2.26,2.26,0,0,0,.88-.93,3.24,3.24,0,0,0,0-2.81Z"/><path d="M694.52,20.23v7.12h-1.18V26.3a2.42,2.42,0,0,1-.94.85,3,3,0,0,1-1.34.3,3.17,3.17,0,0,1-1.49-.34,2.54,2.54,0,0,1-1.05-1,3.48,3.48,0,0,1-.38-1.68V20.23h1.17v4a2.31,2.31,0,0,0,.53,1.62,1.91,1.91,0,0,0,1.46.57,1.94,1.94,0,0,0,1.49-.59,2.38,2.38,0,0,0,.55-1.7V20.23Z"/><path d="M696.16,21.84a3.29,3.29,0,0,1,1.23-1.28,3.54,3.54,0,0,1,1.8-.45,3.46,3.46,0,0,1,2.16.64,3,3,0,0,1,1.13,1.76h-1.27a1.87,1.87,0,0,0-.71-1,2.23,2.23,0,0,0-1.31-.38,2.08,2.08,0,0,0-1.64.7,2.86,2.86,0,0,0-.62,2,2.91,2.91,0,0,0,.62,2,2.09,2.09,0,0,0,1.64.71,2.24,2.24,0,0,0,1.3-.37,1.88,1.88,0,0,0,.72-1h1.27a3.1,3.1,0,0,1-1.15,1.75,3.39,3.39,0,0,1-2.14.66,3.54,3.54,0,0,1-1.8-.46,3.19,3.19,0,0,1-1.23-1.29,4.5,4.5,0,0,1,0-3.88Z"/><path d="M705.13,21.2v4.2a1,1,0,0,0,.22.73,1.06,1.06,0,0,0,.77.22H707v1h-1.07a2.08,2.08,0,0,1-1.48-.46A1.94,1.94,0,0,1,704,25.4V21.2H703v-1H704v-1.8h1.18v1.8H707v1Z"/><path d="M714.52,24.23h-5.7a2.35,2.35,0,0,0,.72,1.64,2.29,2.29,0,0,0,1.6.6,2.19,2.19,0,0,0,1.28-.36,1.92,1.92,0,0,0,.72-1h1.27a3,3,0,0,1-1.14,1.67,3.44,3.44,0,0,1-2.13.65,3.67,3.67,0,0,1-1.82-.46,3.17,3.17,0,0,1-1.25-1.29,4.07,4.07,0,0,1-.46-1.95,4,4,0,0,1,.45-1.93,3,3,0,0,1,1.24-1.28,3.66,3.66,0,0,1,1.84-.45,3.62,3.62,0,0,1,1.79.44,3.06,3.06,0,0,1,1.2,1.22,3.56,3.56,0,0,1,.43,1.74C714.56,23.74,714.54,24,714.52,24.23ZM713,22.1a2,2,0,0,0-.82-.74,2.51,2.51,0,0,0-1.14-.25,2.19,2.19,0,0,0-1.52.57,2.33,2.33,0,0,0-.72,1.59h4.49A2.31,2.31,0,0,0,713,22.1Z"/><path d="M715.75,21.84A3.27,3.27,0,0,1,717,20.56a3.36,3.36,0,0,1,1.73-.45,3.29,3.29,0,0,1,1.55.38,2.74,2.74,0,0,1,1.09,1V17.73h1.2v9.62h-1.2V26a2.76,2.76,0,0,1-1,1,3.13,3.13,0,0,1-1.61.41,3.27,3.27,0,0,1-2.94-1.78,4.19,4.19,0,0,1-.44-1.93A4.06,4.06,0,0,1,715.75,21.84Zm5.27.53a2.36,2.36,0,0,0-.88-.92,2.54,2.54,0,0,0-2.43,0,2.31,2.31,0,0,0-.87.91,3,3,0,0,0-.32,1.4,3,3,0,0,0,.32,1.42,2.31,2.31,0,0,0,.87.93,2.47,2.47,0,0,0,2.43,0,2.26,2.26,0,0,0,.88-.93,3.24,3.24,0,0,0,0-2.81Z"/><path d="M730.18,21.2h-1.49v6.15H727.5V21.2h-.92v-1h.92v-.51a2.24,2.24,0,0,1,.62-1.75,2.91,2.91,0,0,1,2-.55v1a1.61,1.61,0,0,0-1.1.3,1.36,1.36,0,0,0-.31,1v.51h1.49Z"/><path d="M731.23,18.83a.78.78,0,0,1-.23-.57.81.81,0,0,1,.23-.57.78.78,0,0,1,.58-.23.73.73,0,0,1,.55.23.81.81,0,0,1,.23.57.78.78,0,0,1-.23.57.74.74,0,0,1-.55.24A.78.78,0,0,1,731.23,18.83Zm1.15,1.4v7.12H731.2V20.23Z"/><path d="M740.49,24.23H734.8a2.25,2.25,0,0,0,2.31,2.24,2.17,2.17,0,0,0,1.28-.36,1.92,1.92,0,0,0,.72-1h1.28a3.06,3.06,0,0,1-1.15,1.67,3.44,3.44,0,0,1-2.13.65A3.61,3.61,0,0,1,735.3,27,3.2,3.2,0,0,1,734,25.72a4.07,4.07,0,0,1-.45-1.95,4,4,0,0,1,.44-1.93,3.06,3.06,0,0,1,1.24-1.28,3.69,3.69,0,0,1,1.84-.45,3.6,3.6,0,0,1,1.79.44,3.15,3.15,0,0,1,1.21,1.22,3.56,3.56,0,0,1,.42,1.74A6,6,0,0,1,740.49,24.23ZM739,22.1a2,2,0,0,0-.81-.74,2.57,2.57,0,0,0-1.14-.25,2.2,2.2,0,0,0-1.53.57,2.33,2.33,0,0,0-.72,1.59h4.5A2.21,2.21,0,0,0,739,22.1Z"/><path d="M742.91,17.73v9.62h-1.19V17.73Z"/><path d="M744.56,21.84a3.25,3.25,0,0,1,1.21-1.28,3.42,3.42,0,0,1,1.74-.45,3.32,3.32,0,0,1,1.55.38,2.81,2.81,0,0,1,1.09,1V17.73h1.19v9.62h-1.19V26a2.83,2.83,0,0,1-1,1,3.13,3.13,0,0,1-1.61.41,3.3,3.3,0,0,1-1.73-.47,3.26,3.26,0,0,1-1.21-1.31,4.07,4.07,0,0,1-.44-1.93A3.94,3.94,0,0,1,744.56,21.84Zm5.26.53a2.34,2.34,0,0,0-.87-.92,2.43,2.43,0,0,0-1.22-.31,2.4,2.4,0,0,0-1.21.31,2.31,2.31,0,0,0-.87.91,2.84,2.84,0,0,0-.32,1.4,2.89,2.89,0,0,0,.32,1.42,2.31,2.31,0,0,0,.87.93,2.4,2.4,0,0,0,1.21.32,2.44,2.44,0,0,0,1.22-.32,2.24,2.24,0,0,0,.87-.93,3.16,3.16,0,0,0,0-2.81Z"/><path d="M758.16,20.43a2.83,2.83,0,0,1,1.41-.33v1.22h-.31c-1.32,0-2,.72-2,2.16v3.87h-1.18V20.23h1.18v1.15A2.4,2.4,0,0,1,758.16,20.43Z"/><path d="M767,24.23h-5.7a2.25,2.25,0,0,0,2.32,2.24,2.19,2.19,0,0,0,1.28-.36,1.92,1.92,0,0,0,.72-1h1.27a3,3,0,0,1-1.14,1.67,3.46,3.46,0,0,1-2.13.65,3.67,3.67,0,0,1-1.82-.46,3.17,3.17,0,0,1-1.25-1.29,4,4,0,0,1-.46-1.95,4.1,4.1,0,0,1,.44-1.93,3.09,3.09,0,0,1,1.25-1.28,3.66,3.66,0,0,1,1.84-.45,3.62,3.62,0,0,1,1.79.44,3.06,3.06,0,0,1,1.2,1.22,3.56,3.56,0,0,1,.42,1.74Q767.07,23.85,767,24.23Zm-1.49-2.13a2,2,0,0,0-.81-.74,2.51,2.51,0,0,0-1.14-.25,2.19,2.19,0,0,0-1.52.57,2.38,2.38,0,0,0-.73,1.59h4.5A2.21,2.21,0,0,0,765.55,22.1Z"/><path d="M769.32,27.19a2.53,2.53,0,0,1-1-.78,2.07,2.07,0,0,1-.42-1.15h1.22a1.23,1.23,0,0,0,.5.87,1.94,1.94,0,0,0,1.18.34,1.72,1.72,0,0,0,1.07-.3.92.92,0,0,0,.39-.76.74.74,0,0,0-.42-.69,6.16,6.16,0,0,0-1.29-.45,9.81,9.81,0,0,1-1.29-.42,2.45,2.45,0,0,1-.86-.64,1.79,1.79,0,0,1,0-2.11,2.13,2.13,0,0,1,.92-.73,3.49,3.49,0,0,1,1.37-.26,2.91,2.91,0,0,1,1.91.6,2.18,2.18,0,0,1,.78,1.63h-1.19a1.18,1.18,0,0,0-.44-.89,1.66,1.66,0,0,0-1.1-.34,1.71,1.71,0,0,0-1,.27.84.84,0,0,0-.37.72.81.81,0,0,0,.22.58A1.78,1.78,0,0,0,770,23c.23.09.54.19,1,.31a9.82,9.82,0,0,1,1.25.4,2.35,2.35,0,0,1,.83.61,1.68,1.68,0,0,1,.35,1.05,1.89,1.89,0,0,1-.32,1.06,2.25,2.25,0,0,1-.92.73,3.24,3.24,0,0,1-1.36.27A3.85,3.85,0,0,1,769.32,27.19Z"/><path d="M781.15,24.23h-5.69a2.25,2.25,0,0,0,2.31,2.24,2.15,2.15,0,0,0,1.28-.36,1.89,1.89,0,0,0,.73-1h1.27a3,3,0,0,1-1.14,1.67,3.49,3.49,0,0,1-2.14.65A3.63,3.63,0,0,1,776,27a3.17,3.17,0,0,1-1.25-1.29,4,4,0,0,1-.46-1.95,4.1,4.1,0,0,1,.44-1.93,3.12,3.12,0,0,1,1.24-1.28,3.72,3.72,0,0,1,1.84-.45,3.64,3.64,0,0,1,1.8.44,3.06,3.06,0,0,1,1.2,1.22,3.56,3.56,0,0,1,.42,1.74A6,6,0,0,1,781.15,24.23Zm-1.48-2.13a2,2,0,0,0-.81-.74,2.51,2.51,0,0,0-1.14-.25,2.2,2.2,0,0,0-1.53.57,2.33,2.33,0,0,0-.72,1.59H780A2.21,2.21,0,0,0,779.67,22.1Z"/><path d="M782.39,21.84a3.25,3.25,0,0,1,1.21-1.28,3.38,3.38,0,0,1,1.73-.45,3.14,3.14,0,0,1,1.62.4,2.73,2.73,0,0,1,1,1v-1.3h1.19v7.12H788V26a2.91,2.91,0,0,1-1.05,1,3.14,3.14,0,0,1-1.62.41,3.24,3.24,0,0,1-2.92-1.78,4.07,4.07,0,0,1-.44-1.93A3.94,3.94,0,0,1,782.39,21.84Zm5.26.53a2.34,2.34,0,0,0-.87-.92,2.43,2.43,0,0,0-1.22-.31,2.37,2.37,0,0,0-1.21.31,2.31,2.31,0,0,0-.87.91,2.84,2.84,0,0,0-.32,1.4,2.89,2.89,0,0,0,.32,1.42,2.31,2.31,0,0,0,.87.93,2.38,2.38,0,0,0,1.21.32,2.44,2.44,0,0,0,1.22-.32,2.24,2.24,0,0,0,.87-.93,3.16,3.16,0,0,0,0-2.81Z"/><path d="M792.89,20.43a2.78,2.78,0,0,1,1.41-.33v1.22H794q-2,0-2,2.16v3.87h-1.19V20.23H792v1.15A2.26,2.26,0,0,1,792.89,20.43Z"/><path d="M795.3,21.84a3.16,3.16,0,0,1,1.23-1.28,3.54,3.54,0,0,1,1.8-.45,3.48,3.48,0,0,1,2.16.64,3,3,0,0,1,1.13,1.76h-1.28a1.82,1.82,0,0,0-.71-1,2.17,2.17,0,0,0-1.3-.38,2.07,2.07,0,0,0-1.64.7,2.82,2.82,0,0,0-.63,2,2.86,2.86,0,0,0,.63,2,2.08,2.08,0,0,0,1.64.71,2.24,2.24,0,0,0,1.3-.37,1.86,1.86,0,0,0,.71-1h1.28a3.21,3.21,0,0,1-1.15,1.75,3.41,3.41,0,0,1-2.14.66,3.54,3.54,0,0,1-1.8-.46,3.06,3.06,0,0,1-1.23-1.29,4.5,4.5,0,0,1,0-3.88Z"/><path d="M807.82,20.44a2.47,2.47,0,0,1,1,1,3.59,3.59,0,0,1,.37,1.68v4.2H808v-4a2.26,2.26,0,0,0-.54-1.63,1.88,1.88,0,0,0-1.45-.57,2,2,0,0,0-1.49.59,2.38,2.38,0,0,0-.55,1.7v3.94h-1.19V17.73H804v3.51a2.34,2.34,0,0,1,1-.85,3.32,3.32,0,0,1,1.39-.29A3.08,3.08,0,0,1,807.82,20.44Z"/><path d="M815.33,21.2v4.2a1,1,0,0,0,.22.73,1.06,1.06,0,0,0,.77.22h.87v1h-1.07a2.08,2.08,0,0,1-1.48-.46,1.94,1.94,0,0,1-.49-1.49V21.2h-.93v-1h.93v-1.8h1.18v1.8h1.86v1Z"/><path d="M819.55,27a3.24,3.24,0,0,1-1.28-1.29,4.07,4.07,0,0,1-.46-1.95,3.84,3.84,0,0,1,.48-1.93,3.31,3.31,0,0,1,1.29-1.28,4,4,0,0,1,3.67,0,3.31,3.31,0,0,1,1.29,1.28,3.79,3.79,0,0,1,.48,1.93,3.87,3.87,0,0,1-.49,1.95A3.41,3.41,0,0,1,823.21,27a3.84,3.84,0,0,1-1.85.46A3.66,3.66,0,0,1,819.55,27Zm3-.88a2.29,2.29,0,0,0,.9-.9,2.87,2.87,0,0,0,.35-1.46,3,3,0,0,0-.34-1.45,2.18,2.18,0,0,0-.89-.89,2.37,2.37,0,0,0-1.18-.29,2.41,2.41,0,0,0-1.19.29,2.06,2.06,0,0,0-.86.89,3,3,0,0,0-.33,1.45,3.08,3.08,0,0,0,.32,1.47,2.09,2.09,0,0,0,.85.89,2.37,2.37,0,0,0,1.17.3A2.48,2.48,0,0,0,822.56,26.13Z"/><path d="M830.76,21.2v4.2a1,1,0,0,0,.22.73,1.06,1.06,0,0,0,.77.22h.87v1h-1.07a2.08,2.08,0,0,1-1.48-.46,1.94,1.94,0,0,1-.49-1.49V21.2h-.93v-1h.93v-1.8h1.18v1.8h1.86v1Z"/><path d="M835.76,20.43a2.8,2.8,0,0,1,1.41-.33v1.22h-.31c-1.33,0-2,.72-2,2.16v3.87h-1.18V20.23h1.18v1.15A2.33,2.33,0,0,1,835.76,20.43Z"/><path d="M838.17,21.84a3.2,3.2,0,0,1,1.22-1.28,3.35,3.35,0,0,1,1.72-.45,3.14,3.14,0,0,1,1.62.4,2.66,2.66,0,0,1,1,1v-1.3H845v7.12h-1.2V26a2.76,2.76,0,0,1-1,1,3.13,3.13,0,0,1-1.61.41,3.24,3.24,0,0,1-2.93-1.78,4.19,4.19,0,0,1-.44-1.93A4.06,4.06,0,0,1,838.17,21.84Zm5.27.53a2.36,2.36,0,0,0-.88-.92,2.54,2.54,0,0,0-2.43,0,2.31,2.31,0,0,0-.87.91,3,3,0,0,0-.32,1.4,3,3,0,0,0,.32,1.42,2.31,2.31,0,0,0,.87.93,2.47,2.47,0,0,0,2.43,0,2.26,2.26,0,0,0,.88-.93,3.24,3.24,0,0,0,0-2.81Z"/><path d="M849.25,26.26l2.21-6h1.26l-2.8,7.12h-1.38l-2.79-7.12H847Z"/><path d="M860,24.23h-5.69a2.25,2.25,0,0,0,2.31,2.24,2.15,2.15,0,0,0,1.28-.36,1.89,1.89,0,0,0,.73-1h1.27a3,3,0,0,1-1.14,1.67,3.49,3.49,0,0,1-2.14.65,3.63,3.63,0,0,1-1.81-.46,3.17,3.17,0,0,1-1.25-1.29,4,4,0,0,1-.46-1.95,4.1,4.1,0,0,1,.44-1.93,3.09,3.09,0,0,1,1.25-1.28,3.92,3.92,0,0,1,3.63,0,3.06,3.06,0,0,1,1.2,1.22,3.56,3.56,0,0,1,.42,1.74A6,6,0,0,1,860,24.23ZM858.5,22.1a2,2,0,0,0-.81-.74,2.51,2.51,0,0,0-1.14-.25,2.19,2.19,0,0,0-1.52.57,2.29,2.29,0,0,0-.73,1.59h4.5A2.21,2.21,0,0,0,858.5,22.1Z"/><path d="M862.4,17.73v9.62h-1.18V17.73Z"/><path d="M876.65,20.23l-2.22,7.12h-1.22l-1.72-5.66-1.72,5.66h-1.22l-2.24-7.12h1.21l1.64,6,1.77-6h1.21l1.73,6,1.61-6Z"/><path d="M877.5,18.83a.75.75,0,0,1-.24-.57.78.78,0,0,1,.24-.57.74.74,0,0,1,.57-.23.73.73,0,0,1,.55.23.81.81,0,0,1,.23.57.78.78,0,0,1-.23.57.74.74,0,0,1-.55.24A.75.75,0,0,1,877.5,18.83Zm1.14,1.4v7.12h-1.18V20.23Z"/><path d="M881.73,21.2v4.2a1,1,0,0,0,.22.73,1.07,1.07,0,0,0,.77.22h.87v1h-1.06a2.11,2.11,0,0,1-1.49-.46,1.94,1.94,0,0,1-.49-1.49V21.2h-.92v-1h.92v-1.8h1.18v1.8h1.86v1Z"/><path d="M889.65,20.44a2.47,2.47,0,0,1,1,1,3.48,3.48,0,0,1,.37,1.68v4.2h-1.17v-4a2.3,2.3,0,0,0-.53-1.63,1.91,1.91,0,0,0-1.46-.57,2,2,0,0,0-1.49.59,2.43,2.43,0,0,0-.55,1.7v3.94h-1.18V17.73h1.18v3.51a2.36,2.36,0,0,1,1-.85,3.25,3.25,0,0,1,1.38-.29A3.05,3.05,0,0,1,889.65,20.44Z"/><path d="M897,27a3.22,3.22,0,0,1-1.27-1.29,4.28,4.28,0,0,1,0-3.88,3.33,3.33,0,0,1,1.3-1.28,3.95,3.95,0,0,1,3.66,0,3.27,3.27,0,0,1,1.3,1.28,3.88,3.88,0,0,1,.47,1.93,3.77,3.77,0,0,1-.49,1.95A3.28,3.28,0,0,1,900.67,27a3.8,3.8,0,0,1-1.84.46A3.73,3.73,0,0,1,897,27Zm3-.88a2.25,2.25,0,0,0,.91-.9,3.28,3.28,0,0,0,0-2.91,2.16,2.16,0,0,0-.88-.89,2.57,2.57,0,0,0-2.37,0,2.14,2.14,0,0,0-.87.89,3.08,3.08,0,0,0-.32,1.45,3,3,0,0,0,.32,1.47,2,2,0,0,0,.85.89,2.32,2.32,0,0,0,1.17.3A2.47,2.47,0,0,0,900,26.13Z"/><path d="M910,20.23v7.12h-1.18V26.3a2.35,2.35,0,0,1-.94.85,3,3,0,0,1-1.33.3,3.19,3.19,0,0,1-1.5-.34,2.46,2.46,0,0,1-1-1,3.37,3.37,0,0,1-.39-1.68V20.23h1.17v4a2.31,2.31,0,0,0,.53,1.62,1.92,1.92,0,0,0,1.46.57,2,2,0,0,0,1.5-.59,2.43,2.43,0,0,0,.54-1.7V20.23Z"/><path d="M913.71,20.43a2.78,2.78,0,0,1,1.41-.33v1.22h-.32q-2,0-2,2.16v3.87h-1.19V20.23h1.19v1.15A2.26,2.26,0,0,1,913.71,20.43Z"/><path d="M919.22,21.84a3.29,3.29,0,0,1,1.23-1.28,3.59,3.59,0,0,1,1.8-.45,3.49,3.49,0,0,1,2.17.64,3,3,0,0,1,1.12,1.76h-1.27a1.82,1.82,0,0,0-.71-1,2.21,2.21,0,0,0-1.31-.38,2.06,2.06,0,0,0-1.63.7,2.82,2.82,0,0,0-.63,2,2.86,2.86,0,0,0,.63,2,2.07,2.07,0,0,0,1.63.71,2.22,2.22,0,0,0,1.3-.37,1.83,1.83,0,0,0,.72-1h1.27a3.14,3.14,0,0,1-1.14,1.75,3.42,3.42,0,0,1-2.15.66,3.6,3.6,0,0,1-1.8-.46,3.19,3.19,0,0,1-1.23-1.29,4.5,4.5,0,0,1,0-3.88Z"/><path d="M927.93,17.73v9.62h-1.18V17.73Z"/><path d="M929.63,18.83a.75.75,0,0,1-.24-.57.78.78,0,0,1,.24-.57.74.74,0,0,1,.57-.23.73.73,0,0,1,.55.23.81.81,0,0,1,.23.57.78.78,0,0,1-.23.57.74.74,0,0,1-.55.24A.75.75,0,0,1,929.63,18.83Zm1.14,1.4v7.12h-1.18V20.23Z"/><path d="M938.88,24.23h-5.69a2.25,2.25,0,0,0,2.31,2.24,2.17,2.17,0,0,0,1.28-.36,1.92,1.92,0,0,0,.72-1h1.28a3,3,0,0,1-1.15,1.67,3.44,3.44,0,0,1-2.13.65,3.61,3.61,0,0,1-1.81-.46,3.2,3.2,0,0,1-1.26-1.29,4.45,4.45,0,0,1,0-3.88,3.06,3.06,0,0,1,1.24-1.28,3.69,3.69,0,0,1,1.84-.45,3.6,3.6,0,0,1,1.79.44,3.15,3.15,0,0,1,1.21,1.22,3.56,3.56,0,0,1,.42,1.74A6,6,0,0,1,938.88,24.23ZM937.4,22.1a2,2,0,0,0-.81-.74,2.57,2.57,0,0,0-1.14-.25,2.2,2.2,0,0,0-1.53.57,2.33,2.33,0,0,0-.72,1.59h4.5A2.21,2.21,0,0,0,937.4,22.1Z"/><path d="M945.69,20.88a3,3,0,0,1,.81,2.27v4.2h-1.17v-4a2.26,2.26,0,0,0-.54-1.63,1.87,1.87,0,0,0-1.45-.57,2,2,0,0,0-1.49.59,2.38,2.38,0,0,0-.55,1.7v3.94h-1.18V20.23h1.18v1a2.37,2.37,0,0,1,1-.85,3.13,3.13,0,0,1,1.34-.29A2.9,2.9,0,0,1,945.69,20.88Z"/><path d="M949.51,21.2v4.2a1,1,0,0,0,.23.73,1,1,0,0,0,.76.22h.87v1h-1.06a2.07,2.07,0,0,1-1.48-.46,1.94,1.94,0,0,1-.5-1.49V21.2h-.92v-1h.92v-1.8h1.18v1.8h1.86v1Z"/><path d="M953.49,27.19a2.64,2.64,0,0,1-1-.78,2.14,2.14,0,0,1-.41-1.15h1.22a1.23,1.23,0,0,0,.5.87,1.94,1.94,0,0,0,1.18.34,1.69,1.69,0,0,0,1.06-.3.92.92,0,0,0,.39-.76.73.73,0,0,0-.41-.69,6.16,6.16,0,0,0-1.29-.45,9.81,9.81,0,0,1-1.29-.42,2.37,2.37,0,0,1-.86-.64,1.79,1.79,0,0,1,0-2.11,2.13,2.13,0,0,1,.92-.73,3.44,3.44,0,0,1,1.36-.26,2.94,2.94,0,0,1,1.92.6,2.18,2.18,0,0,1,.78,1.63h-1.19a1.16,1.16,0,0,0-.45-.89,1.64,1.64,0,0,0-1.09-.34,1.71,1.71,0,0,0-1,.27.84.84,0,0,0-.37.72.81.81,0,0,0,.22.58,1.73,1.73,0,0,0,.57.36c.23.09.55.19,1,.31a9.82,9.82,0,0,1,1.25.4,2.23,2.23,0,0,1,.82.61,1.62,1.62,0,0,1,.36,1.05,1.89,1.89,0,0,1-.32,1.06,2.25,2.25,0,0,1-.92.73,3.27,3.27,0,0,1-1.36.27A3.85,3.85,0,0,1,953.49,27.19Z"/><path d="M962,21.84a3.25,3.25,0,0,1,1.21-1.28,3.38,3.38,0,0,1,1.73-.45,3.14,3.14,0,0,1,1.62.4,2.73,2.73,0,0,1,1,1v-1.3h1.19v7.12h-1.19V26a2.91,2.91,0,0,1-1,1,3.14,3.14,0,0,1-1.62.41A3.24,3.24,0,0,1,962,25.69a4.07,4.07,0,0,1-.44-1.93A3.94,3.94,0,0,1,962,21.84Zm5.26.53a2.34,2.34,0,0,0-.87-.92,2.43,2.43,0,0,0-1.22-.31,2.37,2.37,0,0,0-1.21.31,2.31,2.31,0,0,0-.87.91,2.84,2.84,0,0,0-.33,1.4,2.89,2.89,0,0,0,.33,1.42,2.31,2.31,0,0,0,.87.93,2.38,2.38,0,0,0,1.21.32,2.44,2.44,0,0,0,1.22-.32,2.24,2.24,0,0,0,.87-.93,3.16,3.16,0,0,0,0-2.81Z"/><path d="M976,20.88a3,3,0,0,1,.81,2.27v4.2h-1.17v-4a2.26,2.26,0,0,0-.54-1.63,1.88,1.88,0,0,0-1.45-.57,2,2,0,0,0-1.49.59,2.38,2.38,0,0,0-.55,1.7v3.94h-1.19V20.23h1.19v1a2.37,2.37,0,0,1,.95-.85,3.08,3.08,0,0,1,1.33-.29A2.91,2.91,0,0,1,976,20.88Z"/><path d="M978.35,21.84a3.25,3.25,0,0,1,1.21-1.28,3.42,3.42,0,0,1,1.74-.45,3.32,3.32,0,0,1,1.55.38,2.81,2.81,0,0,1,1.09,1V17.73h1.19v9.62h-1.19V26a2.83,2.83,0,0,1-1,1,3.13,3.13,0,0,1-1.61.41,3.3,3.3,0,0,1-1.73-.47,3.26,3.26,0,0,1-1.21-1.31,4.07,4.07,0,0,1-.44-1.93A3.94,3.94,0,0,1,978.35,21.84Zm5.26.53a2.34,2.34,0,0,0-.87-.92,2.43,2.43,0,0,0-1.22-.31,2.4,2.4,0,0,0-1.21.31,2.31,2.31,0,0,0-.87.91,2.84,2.84,0,0,0-.32,1.4,2.89,2.89,0,0,0,.32,1.42,2.31,2.31,0,0,0,.87.93,2.4,2.4,0,0,0,1.21.32,2.44,2.44,0,0,0,1.22-.32,2.24,2.24,0,0,0,.87-.93,3.16,3.16,0,0,0,0-2.81Z"/><path d="M989.92,18.83a.75.75,0,0,1-.24-.57.78.78,0,0,1,.24-.57.74.74,0,0,1,.57-.23.71.71,0,0,1,.55.23.81.81,0,0,1,.23.57.78.78,0,0,1-.23.57.72.72,0,0,1-.55.24A.75.75,0,0,1,989.92,18.83Zm1.14,1.4v7.12h-1.18V20.23Z"/><path d="M998.29,20.88a3,3,0,0,1,.81,2.27v4.2h-1.17v-4a2.26,2.26,0,0,0-.54-1.63,1.88,1.88,0,0,0-1.45-.57,2,2,0,0,0-1.49.59,2.38,2.38,0,0,0-.55,1.7v3.94h-1.19V20.23h1.19v1a2.37,2.37,0,0,1,1-.85,3.08,3.08,0,0,1,1.33-.29A2.91,2.91,0,0,1,998.29,20.88Z"/><path d="M1002.11,21.2v4.2a1,1,0,0,0,.22.73,1.07,1.07,0,0,0,.77.22h.87v1h-1.07a2.1,2.1,0,0,1-1.48-.46,1.94,1.94,0,0,1-.49-1.49V21.2H1000v-1h.92v-1.8h1.18v1.8H1004v1Z"/><path d="M1011.5,24.23h-5.7a2.31,2.31,0,0,0,.73,1.64,2.25,2.25,0,0,0,1.59.6,2.17,2.17,0,0,0,1.28-.36,1.92,1.92,0,0,0,.72-1h1.27a3,3,0,0,1-1.14,1.67,3.44,3.44,0,0,1-2.13.65,3.67,3.67,0,0,1-1.82-.46,3.17,3.17,0,0,1-1.25-1.29,4.07,4.07,0,0,1-.46-1.95,4,4,0,0,1,.45-1.93,3.06,3.06,0,0,1,1.24-1.28,3.66,3.66,0,0,1,1.84-.45,3.62,3.62,0,0,1,1.79.44,3.06,3.06,0,0,1,1.2,1.22,3.45,3.45,0,0,1,.43,1.74C1011.54,23.74,1011.52,24,1011.5,24.23ZM1010,22.1a2,2,0,0,0-.82-.74,2.5,2.5,0,0,0-1.13-.25,2.2,2.2,0,0,0-1.53.57,2.33,2.33,0,0,0-.72,1.59h4.49A2.31,2.31,0,0,0,1010,22.1Z"/><path d="M1014.81,20.43a2.78,2.78,0,0,1,1.41-.33v1.22h-.32q-2,0-2,2.16v3.87h-1.19V20.23h1.19v1.15A2.26,2.26,0,0,1,1014.81,20.43Z"/><path d="M1019.87,26.26l2.21-6h1.26l-2.8,7.12h-1.37l-2.8-7.12h1.28Z"/><path d="M1024.19,18.83a.75.75,0,0,1-.24-.57.78.78,0,0,1,.24-.57.74.74,0,0,1,.57-.23.73.73,0,0,1,.55.23.81.81,0,0,1,.23.57.78.78,0,0,1-.23.57.74.74,0,0,1-.55.24A.75.75,0,0,1,1024.19,18.83Zm1.14,1.4v7.12h-1.18V20.23Z"/><path d="M1033.44,24.23h-5.69a2.25,2.25,0,0,0,2.31,2.24,2.17,2.17,0,0,0,1.28-.36,1.92,1.92,0,0,0,.72-1h1.28a3,3,0,0,1-1.15,1.67,3.44,3.44,0,0,1-2.13.65,3.61,3.61,0,0,1-1.81-.46,3.2,3.2,0,0,1-1.26-1.29,4.45,4.45,0,0,1,0-3.88,3.06,3.06,0,0,1,1.24-1.28,3.94,3.94,0,0,1,3.64,0,3.06,3.06,0,0,1,1.2,1.22,3.56,3.56,0,0,1,.42,1.74A6,6,0,0,1,1033.44,24.23ZM1032,22.1a2,2,0,0,0-.81-.74,2.57,2.57,0,0,0-1.14-.25,2.2,2.2,0,0,0-1.53.57,2.33,2.33,0,0,0-.72,1.59h4.5A2.21,2.21,0,0,0,1032,22.1Z"/><path d="M1044.17,20.23l-2.23,7.12h-1.22L1039,21.69l-1.71,5.66h-1.22l-2.24-7.12H1035l1.64,6,1.77-6h1.2l1.73,6,1.62-6Z"/><path d="M1051.43,24.23h-5.69a2.25,2.25,0,0,0,2.31,2.24,2.17,2.17,0,0,0,1.28-.36,1.82,1.82,0,0,0,.72-1h1.28a3,3,0,0,1-1.14,1.67,3.49,3.49,0,0,1-2.14.65,3.63,3.63,0,0,1-1.81-.46,3.17,3.17,0,0,1-1.25-1.29,4,4,0,0,1-.46-1.95,4.1,4.1,0,0,1,.44-1.93,3.12,3.12,0,0,1,1.24-1.28,3.72,3.72,0,0,1,1.84-.45,3.64,3.64,0,0,1,1.8.44,3.06,3.06,0,0,1,1.2,1.22,3.56,3.56,0,0,1,.42,1.74A6,6,0,0,1,1051.43,24.23ZM1050,22.1a2,2,0,0,0-.81-.74,2.51,2.51,0,0,0-1.14-.25,2.2,2.2,0,0,0-1.53.57,2.33,2.33,0,0,0-.72,1.59h4.5A2.21,2.21,0,0,0,1050,22.1Z"/><path d="M1052.67,21.84a3.25,3.25,0,0,1,1.21-1.28,3.42,3.42,0,0,1,1.74-.45,3.32,3.32,0,0,1,1.55.38,2.81,2.81,0,0,1,1.09,1V17.73h1.19v9.62h-1.19V26a2.83,2.83,0,0,1-1,1,3.13,3.13,0,0,1-1.61.41,3.3,3.3,0,0,1-1.73-.47,3.26,3.26,0,0,1-1.21-1.31,4.07,4.07,0,0,1-.44-1.93A3.94,3.94,0,0,1,1052.67,21.84Zm5.26.53a2.34,2.34,0,0,0-.87-.92,2.43,2.43,0,0,0-1.22-.31,2.4,2.4,0,0,0-1.21.31,2.31,2.31,0,0,0-.87.91,2.84,2.84,0,0,0-.32,1.4,2.89,2.89,0,0,0,.32,1.42,2.31,2.31,0,0,0,.87.93,2.4,2.4,0,0,0,1.21.32,2.44,2.44,0,0,0,1.22-.32,2.24,2.24,0,0,0,.87-.93,3.16,3.16,0,0,0,0-2.81Z"/><path d="M1065.64,21.2v4.2a1,1,0,0,0,.22.73,1.07,1.07,0,0,0,.77.22h.87v1h-1.07a2.1,2.1,0,0,1-1.48-.46,1.94,1.94,0,0,1-.49-1.49V21.2h-.92v-1h.92v-1.8h1.18v1.8h1.86v1Z"/><path d="M1073.56,20.44a2.47,2.47,0,0,1,1,1,3.48,3.48,0,0,1,.37,1.68v4.2h-1.17v-4a2.3,2.3,0,0,0-.53-1.63,1.91,1.91,0,0,0-1.46-.57,2,2,0,0,0-1.49.59,2.38,2.38,0,0,0-.55,1.7v3.94h-1.18V17.73h1.18v3.51a2.36,2.36,0,0,1,1-.85,3.25,3.25,0,0,1,1.38-.29A3.05,3.05,0,0,1,1073.56,20.44Z"/><path d="M1083,24.23h-5.69a2.25,2.25,0,0,0,2.31,2.24,2.15,2.15,0,0,0,1.28-.36,1.89,1.89,0,0,0,.73-1h1.27a3,3,0,0,1-1.14,1.67,3.49,3.49,0,0,1-2.14.65,3.63,3.63,0,0,1-1.81-.46,3.17,3.17,0,0,1-1.25-1.29,4,4,0,0,1-.46-1.95,4.1,4.1,0,0,1,.44-1.93,3.12,3.12,0,0,1,1.24-1.28,3.72,3.72,0,0,1,1.84-.45,3.64,3.64,0,0,1,1.8.44,3.06,3.06,0,0,1,1.2,1.22,3.56,3.56,0,0,1,.42,1.74A6,6,0,0,1,1083,24.23Zm-1.48-2.13a2,2,0,0,0-.81-.74,2.51,2.51,0,0,0-1.14-.25,2.22,2.22,0,0,0-1.53.57,2.33,2.33,0,0,0-.72,1.59h4.5A2.21,2.21,0,0,0,1081.5,22.1Z"/><path d="M1088.77,21.2v4.2a1,1,0,0,0,.22.73,1.06,1.06,0,0,0,.77.22h.87v1h-1.07a2.08,2.08,0,0,1-1.48-.46,1.94,1.94,0,0,1-.49-1.49V21.2h-.93v-1h.93v-1.8h1.18v1.8h1.86v1Z"/><path d="M1096.69,20.44a2.47,2.47,0,0,1,1,1,3.59,3.59,0,0,1,.37,1.68v4.2h-1.17v-4a2.26,2.26,0,0,0-.54-1.63,1.88,1.88,0,0,0-1.45-.57,2,2,0,0,0-1.49.59,2.38,2.38,0,0,0-.55,1.7v3.94h-1.19V17.73h1.19v3.51a2.3,2.3,0,0,1,1-.85,3.25,3.25,0,0,1,1.38-.29A3.08,3.08,0,0,1,1096.69,20.44Z"/><path d="M1101.72,20.43a2.83,2.83,0,0,1,1.41-.33v1.22h-.31c-1.32,0-2,.72-2,2.16v3.87h-1.18V20.23h1.18v1.15A2.4,2.4,0,0,1,1101.72,20.43Z"/><path d="M1110.6,24.23h-5.7a2.3,2.3,0,0,0,.72,1.64,2.28,2.28,0,0,0,1.59.6,2.21,2.21,0,0,0,1.29-.36,1.92,1.92,0,0,0,.72-1h1.27a3,3,0,0,1-1.14,1.67,3.47,3.47,0,0,1-2.14.65,3.63,3.63,0,0,1-1.81-.46,3.17,3.17,0,0,1-1.25-1.29,4,4,0,0,1-.46-1.95,4.1,4.1,0,0,1,.44-1.93,3.09,3.09,0,0,1,1.25-1.28,3.92,3.92,0,0,1,3.63,0,3.06,3.06,0,0,1,1.2,1.22,3.56,3.56,0,0,1,.42,1.74Q1110.63,23.85,1110.6,24.23Zm-1.49-2.13a2,2,0,0,0-.81-.74,2.51,2.51,0,0,0-1.14-.25,2.19,2.19,0,0,0-1.52.57,2.29,2.29,0,0,0-.73,1.59h4.5A2.21,2.21,0,0,0,1109.11,22.1Z"/><path d="M1118.29,24.23h-5.69a2.25,2.25,0,0,0,2.31,2.24,2.17,2.17,0,0,0,1.28-.36,1.87,1.87,0,0,0,.72-1h1.28a3,3,0,0,1-1.15,1.67,3.44,3.44,0,0,1-2.13.65,3.63,3.63,0,0,1-1.81-.46,3.2,3.2,0,0,1-1.26-1.29,4.45,4.45,0,0,1,0-3.88,3.12,3.12,0,0,1,1.24-1.28,3.72,3.72,0,0,1,1.84-.45,3.64,3.64,0,0,1,1.8.44,3.06,3.06,0,0,1,1.2,1.22,3.56,3.56,0,0,1,.42,1.74A6,6,0,0,1,1118.29,24.23Zm-1.48-2.13a2,2,0,0,0-.81-.74,2.54,2.54,0,0,0-1.14-.25,2.2,2.2,0,0,0-1.53.57,2.33,2.33,0,0,0-.72,1.59h4.5A2.21,2.21,0,0,0,1116.81,22.1Z"/><path d="M1127.19,20.51a2.66,2.66,0,0,1,1,1v-1.3h1.2v7.28a3.52,3.52,0,0,1-.42,1.73,2.9,2.9,0,0,1-1.19,1.19,3.58,3.58,0,0,1-1.8.43,4,4,0,0,1-2.34-.66,2.62,2.62,0,0,1-1.1-1.81h1.17a1.92,1.92,0,0,0,.8,1.05,2.69,2.69,0,0,0,1.47.39,2.19,2.19,0,0,0,1.6-.61,2.31,2.31,0,0,0,.61-1.71V26a2.8,2.8,0,0,1-1,1,3,3,0,0,1-1.61.42,3.27,3.27,0,0,1-2.94-1.78,4.19,4.19,0,0,1-.44-1.93,4.06,4.06,0,0,1,.44-1.92,3.27,3.27,0,0,1,1.22-1.28,3.35,3.35,0,0,1,1.72-.45A3.14,3.14,0,0,1,1127.19,20.51Zm.71,1.86a2.36,2.36,0,0,0-.88-.92,2.41,2.41,0,0,0-1.22-.31,2.33,2.33,0,0,0-1.2.31,2.27,2.27,0,0,0-.88.91,3,3,0,0,0-.32,1.4,3,3,0,0,0,.32,1.42,2.26,2.26,0,0,0,.88.93,2.34,2.34,0,0,0,1.2.32,2.41,2.41,0,0,0,1.22-.32,2.26,2.26,0,0,0,.88-.93,3.24,3.24,0,0,0,0-2.81Z"/><path d="M1133.13,20.43a2.83,2.83,0,0,1,1.41-.33v1.22h-.31c-1.33,0-2,.72-2,2.16v3.87h-1.18V20.23h1.18v1.15A2.4,2.4,0,0,1,1133.13,20.43Z"/><path d="M1136.84,27a3.18,3.18,0,0,1-1.28-1.29,4.28,4.28,0,0,1,0-3.88,3.33,3.33,0,0,1,1.3-1.28,3.95,3.95,0,0,1,3.66,0,3.27,3.27,0,0,1,1.3,1.28,3.88,3.88,0,0,1,.47,1.93,3.77,3.77,0,0,1-.49,1.95A3.32,3.32,0,0,1,1140.5,27a3.84,3.84,0,0,1-1.85.46A3.66,3.66,0,0,1,1136.84,27Zm3-.88a2.29,2.29,0,0,0,.9-.9,3.28,3.28,0,0,0,0-2.91,2.16,2.16,0,0,0-.88-.89,2.57,2.57,0,0,0-2.37,0,2.14,2.14,0,0,0-.87.89,3.49,3.49,0,0,0,0,2.92,2,2,0,0,0,.85.89,2.32,2.32,0,0,0,1.17.3A2.54,2.54,0,0,0,1139.85,26.13Z"/><path d="M1149.82,20.23v7.12h-1.19V26.3a2.35,2.35,0,0,1-.94.85,3,3,0,0,1-1.33.3,3.19,3.19,0,0,1-1.5-.34,2.46,2.46,0,0,1-1-1,3.37,3.37,0,0,1-.39-1.68V20.23h1.17v4a2.26,2.26,0,0,0,.54,1.62,1.88,1.88,0,0,0,1.45.57,2,2,0,0,0,1.5-.59,2.43,2.43,0,0,0,.54-1.7V20.23Z"/><path d="M1153.68,20.52a3.1,3.1,0,0,1,1.62-.41,3.35,3.35,0,0,1,1.72.45,3.2,3.2,0,0,1,1.22,1.28,3.94,3.94,0,0,1,.44,1.92,4.07,4.07,0,0,1-.44,1.93A3.22,3.22,0,0,1,1157,27a3.27,3.27,0,0,1-1.72.47,3.12,3.12,0,0,1-1.6-.41,3,3,0,0,1-1.06-1v4.69h-1.19V20.23h1.19v1.31A2.76,2.76,0,0,1,1153.68,20.52Zm3.47,1.84a2.27,2.27,0,0,0-.88-.91,2.52,2.52,0,0,0-2.42,0,2.33,2.33,0,0,0-.88.93,3.13,3.13,0,0,0,0,2.8,2.26,2.26,0,0,0,.88.93,2.45,2.45,0,0,0,2.42,0,2.26,2.26,0,0,0,.88-.93,2.89,2.89,0,0,0,.32-1.42A2.84,2.84,0,0,0,1157.15,22.36Z"/><path d="M1160.93,27.19a2.64,2.64,0,0,1-1-.78,2.06,2.06,0,0,1-.41-1.15h1.22a1.2,1.2,0,0,0,.5.87,1.94,1.94,0,0,0,1.18.34,1.69,1.69,0,0,0,1.06-.3.92.92,0,0,0,.39-.76.74.74,0,0,0-.41-.69,6.16,6.16,0,0,0-1.29-.45,9.81,9.81,0,0,1-1.29-.42,2.37,2.37,0,0,1-.86-.64,1.79,1.79,0,0,1,0-2.11,2.13,2.13,0,0,1,.92-.73,3.44,3.44,0,0,1,1.36-.26,2.89,2.89,0,0,1,1.91.6,2.16,2.16,0,0,1,.79,1.63h-1.19a1.16,1.16,0,0,0-.45-.89,1.64,1.64,0,0,0-1.09-.34,1.71,1.71,0,0,0-1,.27.85.85,0,0,0-.38.72.82.82,0,0,0,.23.58,1.64,1.64,0,0,0,.57.36c.23.09.55.19,1,.31a9.82,9.82,0,0,1,1.25.4,2.23,2.23,0,0,1,.82.61,1.62,1.62,0,0,1,.36,1.05,1.82,1.82,0,0,1-.33,1.06,2.16,2.16,0,0,1-.91.73,3.27,3.27,0,0,1-1.36.27A3.78,3.78,0,0,1,1160.93,27.19Z"/><path d="M1169.45,18.83a.75.75,0,0,1-.24-.57.78.78,0,0,1,.24-.57.74.74,0,0,1,.57-.23.73.73,0,0,1,.55.23.81.81,0,0,1,.23.57.78.78,0,0,1-.23.57.74.74,0,0,1-.55.24A.75.75,0,0,1,1169.45,18.83Zm1.14,1.4v7.12h-1.18V20.23Z"/><path d="M1177.82,20.88a3,3,0,0,1,.8,2.27v4.2h-1.17v-4a2.25,2.25,0,0,0-.53-1.63,1.89,1.89,0,0,0-1.46-.57,1.93,1.93,0,0,0-1.48.59,2.39,2.39,0,0,0-.56,1.7v3.94h-1.18V20.23h1.18v1a2.47,2.47,0,0,1,1-.85,3.08,3.08,0,0,1,1.33-.29A2.91,2.91,0,0,1,1177.82,20.88Z"/><path d="M1182.85,26.26l2.21-6h1.26l-2.79,7.12h-1.38l-2.8-7.12h1.28Z"/><path d="M1188.42,27a3.24,3.24,0,0,1-1.28-1.29,4.07,4.07,0,0,1-.46-1.95,3.84,3.84,0,0,1,.48-1.93,3.31,3.31,0,0,1,1.29-1.28,4,4,0,0,1,3.67,0,3.31,3.31,0,0,1,1.29,1.28,3.78,3.78,0,0,1,.47,1.93,3.86,3.86,0,0,1-.48,1.95,3.41,3.41,0,0,1-1.32,1.29,3.84,3.84,0,0,1-1.85.46A3.66,3.66,0,0,1,1188.42,27Zm3-.88a2.29,2.29,0,0,0,.9-.9,2.87,2.87,0,0,0,.35-1.46,3,3,0,0,0-.34-1.45,2.22,2.22,0,0,0-.88-.89,2.44,2.44,0,0,0-1.19-.29,2.41,2.41,0,0,0-1.19.29,2.06,2.06,0,0,0-.86.89,3,3,0,0,0-.33,1.45,3.08,3.08,0,0,0,.32,1.47,2.09,2.09,0,0,0,.85.89,2.37,2.37,0,0,0,1.17.3A2.48,2.48,0,0,0,1191.43,26.13Z"/><path d="M1196.26,17.73v9.62h-1.18V17.73Z"/><path d="M1200.57,26.26l2.21-6H1204l-2.8,7.12h-1.37l-2.8-7.12h1.27Z"/><path d="M1211.3,24.23h-5.69a2.27,2.27,0,0,0,.72,1.64,2.29,2.29,0,0,0,1.6.6,2.19,2.19,0,0,0,1.28-.36,1.92,1.92,0,0,0,.72-1h1.27a3,3,0,0,1-1.14,1.67,3.46,3.46,0,0,1-2.13.65,3.64,3.64,0,0,1-1.82-.46,3.17,3.17,0,0,1-1.25-1.29,4,4,0,0,1-.46-1.95,4.1,4.1,0,0,1,.44-1.93,3.09,3.09,0,0,1,1.25-1.28,3.66,3.66,0,0,1,1.84-.45,3.62,3.62,0,0,1,1.79.44,3.06,3.06,0,0,1,1.2,1.22,3.56,3.56,0,0,1,.42,1.74A6,6,0,0,1,1211.3,24.23Zm-1.48-2.13a2,2,0,0,0-.81-.74,2.51,2.51,0,0,0-1.14-.25,2.19,2.19,0,0,0-1.52.57,2.33,2.33,0,0,0-.72,1.59h4.49A2.21,2.21,0,0,0,1209.82,22.1Z"/><path d="M1212.54,21.84a3.27,3.27,0,0,1,1.22-1.28,3.36,3.36,0,0,1,1.73-.45,3.29,3.29,0,0,1,1.55.38,2.74,2.74,0,0,1,1.09,1V17.73h1.2v9.62h-1.2V26a2.76,2.76,0,0,1-1,1,3.13,3.13,0,0,1-1.61.41,3.27,3.27,0,0,1-2.94-1.78,4.19,4.19,0,0,1-.44-1.93A4.06,4.06,0,0,1,1212.54,21.84Zm5.26.53a2.27,2.27,0,0,0-.87-.92,2.43,2.43,0,0,0-1.22-.31,2.4,2.4,0,0,0-1.21.31,2.31,2.31,0,0,0-.87.91,3,3,0,0,0-.32,1.4,3,3,0,0,0,.32,1.42,2.31,2.31,0,0,0,.87.93,2.4,2.4,0,0,0,1.21.32,2.44,2.44,0,0,0,1.22-.32,2.18,2.18,0,0,0,.87-.93,3.16,3.16,0,0,0,0-2.81Z"/><path d="M655.69,45.32a3.29,3.29,0,0,1-2.36.75h-1.75v3.78H650.4V40.79h2.93a3.32,3.32,0,0,1,2.33.74,2.49,2.49,0,0,1,.8,1.91A2.53,2.53,0,0,1,655.69,45.32Zm-.91-.66a1.57,1.57,0,0,0,.47-1.22q0-1.68-1.92-1.68h-1.75v3.33h1.75A2.08,2.08,0,0,0,654.78,44.66Z"/><path d="M657.56,44.34a3.27,3.27,0,0,1,1.22-1.28,3.35,3.35,0,0,1,1.72-.45,3.15,3.15,0,0,1,1.63.4,2.63,2.63,0,0,1,1,1v-1.3h1.2v7.12h-1.2V48.52a2.8,2.8,0,0,1-1,1,3.2,3.2,0,0,1-1.62.41,3.27,3.27,0,0,1-1.72-.47,3.33,3.33,0,0,1-1.21-1.31,4.19,4.19,0,0,1-.44-1.93A4.06,4.06,0,0,1,657.56,44.34Zm5.27.53A2.36,2.36,0,0,0,662,44a2.4,2.4,0,0,0-1.21-.31,2.34,2.34,0,0,0-1.21.31,2.19,2.19,0,0,0-.87.91,2.84,2.84,0,0,0-.33,1.4,2.89,2.89,0,0,0,.33,1.42,2.18,2.18,0,0,0,.87.93,2.35,2.35,0,0,0,1.21.32,2.4,2.4,0,0,0,1.21-.32,2.26,2.26,0,0,0,.88-.93,3.24,3.24,0,0,0,0-2.81Z"/><path d="M667,49.69a2.64,2.64,0,0,1-1-.78,2.06,2.06,0,0,1-.41-1.15h1.22a1.2,1.2,0,0,0,.5.87,1.94,1.94,0,0,0,1.18.34,1.69,1.69,0,0,0,1.06-.3.92.92,0,0,0,.39-.76.74.74,0,0,0-.41-.69,6.16,6.16,0,0,0-1.29-.45,9.81,9.81,0,0,1-1.29-.42,2.37,2.37,0,0,1-.86-.64,1.79,1.79,0,0,1,0-2.11,2.13,2.13,0,0,1,.92-.73,3.44,3.44,0,0,1,1.36-.26,2.89,2.89,0,0,1,1.91.6,2.12,2.12,0,0,1,.78,1.63h-1.18a1.16,1.16,0,0,0-.45-.89,1.65,1.65,0,0,0-1.1-.34,1.7,1.7,0,0,0-1,.27.85.85,0,0,0-.38.72.82.82,0,0,0,.23.58,1.64,1.64,0,0,0,.57.36c.23.09.55.19,1,.31a9.82,9.82,0,0,1,1.25.4,2.23,2.23,0,0,1,.82.61,1.62,1.62,0,0,1,.36,1,1.89,1.89,0,0,1-.32,1.06,2.25,2.25,0,0,1-.92.73,3.27,3.27,0,0,1-1.36.27A3.78,3.78,0,0,1,667,49.69Z"/><path d="M673.46,49.69a2.53,2.53,0,0,1-1-.78,2.07,2.07,0,0,1-.42-1.15h1.22a1.23,1.23,0,0,0,.5.87,1.94,1.94,0,0,0,1.18.34,1.69,1.69,0,0,0,1.06-.3.93.93,0,0,0,.4-.76.74.74,0,0,0-.42-.69,6.16,6.16,0,0,0-1.29-.45,9.81,9.81,0,0,1-1.29-.42,2.37,2.37,0,0,1-.86-.64,1.79,1.79,0,0,1,0-2.11,2.13,2.13,0,0,1,.92-.73,3.45,3.45,0,0,1,1.37-.26,2.93,2.93,0,0,1,1.91.6,2.18,2.18,0,0,1,.78,1.63h-1.19a1.16,1.16,0,0,0-.45-.89,1.62,1.62,0,0,0-1.09-.34,1.71,1.71,0,0,0-1,.27.84.84,0,0,0-.37.72.81.81,0,0,0,.22.58,1.73,1.73,0,0,0,.57.36c.24.09.55.19,1,.31a9.82,9.82,0,0,1,1.25.4,2.23,2.23,0,0,1,.82.61,1.62,1.62,0,0,1,.36,1,1.89,1.89,0,0,1-.32,1.06,2.25,2.25,0,0,1-.92.73,3.24,3.24,0,0,1-1.36.27A3.85,3.85,0,0,1,673.46,49.69Z"/><path d="M685.29,46.73H679.6A2.25,2.25,0,0,0,681.91,49a2.17,2.17,0,0,0,1.28-.36,1.82,1.82,0,0,0,.72-1h1.28A3,3,0,0,1,684,49.32a3.44,3.44,0,0,1-2.13.65,3.63,3.63,0,0,1-1.81-.46,3.26,3.26,0,0,1-1.26-1.29,4.45,4.45,0,0,1,0-3.88,3.12,3.12,0,0,1,1.24-1.28,3.72,3.72,0,0,1,1.84-.45,3.64,3.64,0,0,1,1.8.44,3.06,3.06,0,0,1,1.2,1.22,3.56,3.56,0,0,1,.42,1.74A6,6,0,0,1,685.29,46.73Zm-1.48-2.13a2,2,0,0,0-.81-.74,2.51,2.51,0,0,0-1.14-.25,2.2,2.2,0,0,0-1.53.57,2.33,2.33,0,0,0-.72,1.59h4.5A2.21,2.21,0,0,0,683.81,44.6Z"/><path d="M692.1,43.38a3,3,0,0,1,.81,2.27v4.2h-1.17v-4a2.3,2.3,0,0,0-.53-1.63,1.91,1.91,0,0,0-1.46-.57,2,2,0,0,0-1.49.59,2.38,2.38,0,0,0-.55,1.7v3.94h-1.18V42.73h1.18v1a2.34,2.34,0,0,1,1-.85A3.05,3.05,0,0,1,690,42.6,2.87,2.87,0,0,1,692.1,43.38Z"/><path d="M699,43a2.66,2.66,0,0,1,1,1v-1.3h1.2V50a3.52,3.52,0,0,1-.42,1.73,2.9,2.9,0,0,1-1.19,1.19,3.58,3.58,0,0,1-1.8.43,4,4,0,0,1-2.34-.66,2.62,2.62,0,0,1-1.1-1.81h1.17a1.92,1.92,0,0,0,.8,1,2.69,2.69,0,0,0,1.47.39,2.19,2.19,0,0,0,1.6-.61,2.31,2.31,0,0,0,.61-1.71v-1.5a2.8,2.8,0,0,1-1,1,3,3,0,0,1-1.61.42,3.27,3.27,0,0,1-2.94-1.78,4.19,4.19,0,0,1-.44-1.93,4.06,4.06,0,0,1,.44-1.92,3.27,3.27,0,0,1,1.22-1.28,3.35,3.35,0,0,1,1.72-.45A3.14,3.14,0,0,1,699,43Zm.71,1.86a2.36,2.36,0,0,0-.88-.92,2.4,2.4,0,0,0-1.21-.31,2.34,2.34,0,0,0-1.21.31,2.19,2.19,0,0,0-.87.91,2.84,2.84,0,0,0-.33,1.4,2.89,2.89,0,0,0,.33,1.42,2.18,2.18,0,0,0,.87.93,2.35,2.35,0,0,0,1.21.32,2.4,2.4,0,0,0,1.21-.32,2.26,2.26,0,0,0,.88-.93,3.24,3.24,0,0,0,0-2.81Z"/><path d="M709.37,46.73h-5.7a2.31,2.31,0,0,0,.73,1.64A2.25,2.25,0,0,0,706,49a2.17,2.17,0,0,0,1.28-.36,1.92,1.92,0,0,0,.72-1h1.27a3,3,0,0,1-1.14,1.67A3.44,3.44,0,0,1,706,50a3.67,3.67,0,0,1-1.82-.46,3.17,3.17,0,0,1-1.25-1.29,4.07,4.07,0,0,1-.46-1.95,4,4,0,0,1,.45-1.93,3.06,3.06,0,0,1,1.24-1.28,3.66,3.66,0,0,1,1.84-.45,3.62,3.62,0,0,1,1.79.44,3.06,3.06,0,0,1,1.2,1.22,3.45,3.45,0,0,1,.43,1.74C709.41,46.24,709.39,46.48,709.37,46.73Zm-1.48-2.13a2,2,0,0,0-.82-.74,2.5,2.5,0,0,0-1.13-.25,2.2,2.2,0,0,0-1.53.57,2.33,2.33,0,0,0-.72,1.59h4.5A2.21,2.21,0,0,0,707.89,44.6Z"/><path d="M712.68,42.93a2.78,2.78,0,0,1,1.41-.33v1.22h-.31c-1.33,0-2,.72-2,2.16v3.87H710.6V42.73h1.19v1.15A2.26,2.26,0,0,1,712.68,42.93Z"/><path d="M716.14,49.69a2.64,2.64,0,0,1-1-.78,2.06,2.06,0,0,1-.41-1.15h1.22a1.23,1.23,0,0,0,.5.87,1.94,1.94,0,0,0,1.18.34,1.69,1.69,0,0,0,1.06-.3.92.92,0,0,0,.39-.76.74.74,0,0,0-.41-.69,6.16,6.16,0,0,0-1.29-.45,9.81,9.81,0,0,1-1.29-.42,2.37,2.37,0,0,1-.86-.64,1.79,1.79,0,0,1,0-2.11,2.13,2.13,0,0,1,.92-.73,3.44,3.44,0,0,1,1.36-.26,2.94,2.94,0,0,1,1.92.6,2.14,2.14,0,0,1,.77,1.63H719a1.16,1.16,0,0,0-.45-.89,1.64,1.64,0,0,0-1.09-.34,1.71,1.71,0,0,0-1,.27.85.85,0,0,0-.38.72.82.82,0,0,0,.23.58,1.64,1.64,0,0,0,.57.36c.23.09.55.19,1,.31a9.82,9.82,0,0,1,1.25.4,2.23,2.23,0,0,1,.82.61,1.62,1.62,0,0,1,.36,1,1.82,1.82,0,0,1-.33,1.06,2.16,2.16,0,0,1-.91.73,3.27,3.27,0,0,1-1.36.27A3.78,3.78,0,0,1,716.14,49.69Z"/><path d="M722.73,48.21l-1.45,3.5h-.8l.95-3.5Z"/><path d="M727,42.93a4.4,4.4,0,0,1,1.63-1.66,4.51,4.51,0,0,1,2.3-.6,4.64,4.64,0,0,1,2.59.72,4.11,4.11,0,0,1,1.61,2h-1.42a2.9,2.9,0,0,0-1.08-1.26,3.21,3.21,0,0,0-1.7-.44,3.34,3.34,0,0,0-1.7.44A3.14,3.14,0,0,0,728,43.41a4.39,4.39,0,0,0,0,3.79,3.08,3.08,0,0,0,1.19,1.26,3.34,3.34,0,0,0,1.7.44,3.21,3.21,0,0,0,1.7-.43,2.84,2.84,0,0,0,1.08-1.26h1.42a4.09,4.09,0,0,1-1.61,2,4.72,4.72,0,0,1-2.59.71,4.6,4.6,0,0,1-2.3-.59A4.45,4.45,0,0,1,727,47.69a5,5,0,0,1,0-4.76Z"/><path d="M738.57,42.93A2.83,2.83,0,0,1,740,42.6v1.22h-.31c-1.33,0-2,.72-2,2.16v3.87H736.5V42.73h1.18v1.15A2.4,2.4,0,0,1,738.57,42.93Z"/><path d="M747.44,46.73h-5.69A2.25,2.25,0,0,0,744.06,49a2.15,2.15,0,0,0,1.28-.36,1.89,1.89,0,0,0,.73-1h1.27a3,3,0,0,1-1.14,1.67,3.47,3.47,0,0,1-2.14.65,3.63,3.63,0,0,1-1.81-.46A3.17,3.17,0,0,1,741,48.22a4,4,0,0,1-.46-1.95,4.1,4.1,0,0,1,.44-1.93,3.12,3.12,0,0,1,1.24-1.28,3.72,3.72,0,0,1,1.84-.45,3.64,3.64,0,0,1,1.8.44,3.06,3.06,0,0,1,1.2,1.22,3.56,3.56,0,0,1,.42,1.74A6,6,0,0,1,747.44,46.73ZM746,44.6a2,2,0,0,0-.81-.74,2.51,2.51,0,0,0-1.14-.25,2.22,2.22,0,0,0-1.53.57,2.33,2.33,0,0,0-.72,1.59h4.5A2.21,2.21,0,0,0,746,44.6Z"/><path d="M758.17,42.73,756,49.85h-1.23L753,44.19l-1.72,5.66h-1.22l-2.24-7.12H749l1.64,6,1.77-6h1.21l1.73,6,1.61-6Z"/><path d="M760.2,48.21l-1.46,3.5H758l.95-3.5Z"/><path d="M764.29,44.34a3.27,3.27,0,0,1,1.22-1.28,3.35,3.35,0,0,1,1.72-.45,3.18,3.18,0,0,1,1.63.4,2.7,2.7,0,0,1,1,1v-1.3h1.2v7.12h-1.2V48.52a2.8,2.8,0,0,1-1,1,3.2,3.2,0,0,1-1.62.41,3.24,3.24,0,0,1-1.72-.47,3.33,3.33,0,0,1-1.21-1.31,4.19,4.19,0,0,1-.44-1.93A4.06,4.06,0,0,1,764.29,44.34Zm5.27.53a2.36,2.36,0,0,0-.88-.92,2.41,2.41,0,0,0-1.22-.31,2.33,2.33,0,0,0-1.2.31,2.27,2.27,0,0,0-.88.91,3,3,0,0,0-.32,1.4,3,3,0,0,0,.32,1.42,2.26,2.26,0,0,0,.88.93,2.34,2.34,0,0,0,1.2.32,2.41,2.41,0,0,0,1.22-.32,2.26,2.26,0,0,0,.88-.93,3.24,3.24,0,0,0,0-2.81Z"/><path d="M778.29,43.38a3,3,0,0,1,.81,2.27v4.2h-1.17v-4a2.3,2.3,0,0,0-.53-1.63,1.91,1.91,0,0,0-1.46-.57,2,2,0,0,0-1.49.59,2.38,2.38,0,0,0-.55,1.7v3.94h-1.18V42.73h1.18v1a2.34,2.34,0,0,1,1-.85,3.05,3.05,0,0,1,1.33-.29A2.89,2.89,0,0,1,778.29,43.38Z"/><path d="M780.67,44.34a3.27,3.27,0,0,1,1.22-1.28,3.36,3.36,0,0,1,1.73-.45,3.29,3.29,0,0,1,1.55.38,2.74,2.74,0,0,1,1.09,1V40.23h1.2v9.62h-1.2V48.51a2.76,2.76,0,0,1-1,1.05,3.11,3.11,0,0,1-1.61.41,3.27,3.27,0,0,1-2.94-1.78,4.19,4.19,0,0,1-.44-1.93A4.06,4.06,0,0,1,780.67,44.34Zm5.27.53a2.36,2.36,0,0,0-.88-.92,2.54,2.54,0,0,0-2.43,0,2.31,2.31,0,0,0-.87.91,3,3,0,0,0-.32,1.4,3,3,0,0,0,.32,1.42,2.31,2.31,0,0,0,.87.93,2.47,2.47,0,0,0,2.43,0,2.26,2.26,0,0,0,.88-.93,3.24,3.24,0,0,0,0-2.81Z"/><path d="M793.65,43.7v4.2a1,1,0,0,0,.22.73,1,1,0,0,0,.76.22h.88v1h-1.07a2.08,2.08,0,0,1-1.48-.46,1.94,1.94,0,0,1-.5-1.49V43.7h-.92v-1h.92v-1.8h1.19v1.8h1.86v1Z"/><path d="M801.56,42.94a2.36,2.36,0,0,1,1,1,3.48,3.48,0,0,1,.37,1.68v4.2h-1.17v-4a2.25,2.25,0,0,0-.53-1.63,1.89,1.89,0,0,0-1.46-.57,1.94,1.94,0,0,0-1.48.59,2.39,2.39,0,0,0-.56,1.7v3.94h-1.18V40.23h1.18v3.51a2.43,2.43,0,0,1,1-.85,3.29,3.29,0,0,1,1.39-.29A3,3,0,0,1,801.56,42.94Z"/><path d="M811,46.73h-5.7a2.31,2.31,0,0,0,.73,1.64,2.25,2.25,0,0,0,1.59.6,2.17,2.17,0,0,0,1.28-.36,1.92,1.92,0,0,0,.72-1h1.27a3,3,0,0,1-1.14,1.67,3.44,3.44,0,0,1-2.13.65,3.67,3.67,0,0,1-1.82-.46,3.17,3.17,0,0,1-1.25-1.29,4.07,4.07,0,0,1-.46-1.95,4,4,0,0,1,.45-1.93,3.06,3.06,0,0,1,1.24-1.28,3.66,3.66,0,0,1,1.84-.45,3.62,3.62,0,0,1,1.79.44,3.06,3.06,0,0,1,1.2,1.22A3.45,3.45,0,0,1,811,46C811,46.24,811,46.48,811,46.73Zm-1.48-2.13a2,2,0,0,0-.82-.74,2.5,2.5,0,0,0-1.13-.25,2.2,2.2,0,0,0-1.53.57,2.33,2.33,0,0,0-.72,1.59h4.49A2.21,2.21,0,0,0,809.51,44.6Z"/><path d="M826.72,40.79l-2.63,9.06h-1.32l-2.11-7.29-2.18,7.29h-1.32l-2.53-9.07h1.26l2,7.68,2.18-7.68h1.33l2.08,7.66,2-7.66Z"/><path d="M829,49.51a3.24,3.24,0,0,1-1.28-1.29,4.07,4.07,0,0,1-.46-1.95,3.84,3.84,0,0,1,.48-1.93A3.24,3.24,0,0,1,829,43.06a4,4,0,0,1,3.67,0,3.31,3.31,0,0,1,1.29,1.28,3.78,3.78,0,0,1,.47,1.93,3.86,3.86,0,0,1-.48,1.95,3.41,3.41,0,0,1-1.32,1.29,3.84,3.84,0,0,1-1.85.46A3.66,3.66,0,0,1,829,49.51Zm3-.88a2.29,2.29,0,0,0,.9-.9,2.87,2.87,0,0,0,.35-1.46,3,3,0,0,0-.34-1.45,2.18,2.18,0,0,0-.89-.89,2.57,2.57,0,0,0-2.37,0,2.06,2.06,0,0,0-.86.89,3,3,0,0,0-.33,1.45,3.08,3.08,0,0,0,.32,1.47,2.09,2.09,0,0,0,.85.89,2.37,2.37,0,0,0,1.17.3A2.51,2.51,0,0,0,832,48.63Z"/><path d="M837.68,42.93a2.83,2.83,0,0,1,1.41-.33v1.22h-.31c-1.32,0-2,.72-2,2.16v3.87h-1.18V42.73h1.18v1.15A2.4,2.4,0,0,1,837.68,42.93Z"/><path d="M844.07,49.85l-2.79-3.15v3.15h-1.19V40.23h1.19v5.65L844,42.73h1.65l-3.35,3.54,3.36,3.58Z"/><path d="M852.89,46.73h-5.7a2.35,2.35,0,0,0,.72,1.64,2.29,2.29,0,0,0,1.6.6,2.17,2.17,0,0,0,1.28-.36,1.92,1.92,0,0,0,.72-1h1.27a3,3,0,0,1-1.14,1.67,3.44,3.44,0,0,1-2.13.65,3.67,3.67,0,0,1-1.82-.46,3.17,3.17,0,0,1-1.25-1.29,4.36,4.36,0,0,1,0-3.88,3,3,0,0,1,1.24-1.28,3.66,3.66,0,0,1,1.84-.45,3.62,3.62,0,0,1,1.79.44,3.06,3.06,0,0,1,1.2,1.22,3.45,3.45,0,0,1,.43,1.74C852.93,46.24,852.91,46.48,852.89,46.73ZM851.4,44.6a1.93,1.93,0,0,0-.81-.74,2.5,2.5,0,0,0-1.13-.25,2.2,2.2,0,0,0-1.53.57,2.33,2.33,0,0,0-.72,1.59h4.49A2.21,2.21,0,0,0,851.4,44.6Z"/><path d="M856.2,42.93a2.78,2.78,0,0,1,1.41-.33v1.22h-.32c-1.32,0-2,.72-2,2.16v3.87h-1.18V42.73h1.18v1.15A2.35,2.35,0,0,1,856.2,42.93Z"/><path d="M859.66,49.69a2.56,2.56,0,0,1-1-.78,2.06,2.06,0,0,1-.41-1.15h1.22a1.2,1.2,0,0,0,.5.87,1.94,1.94,0,0,0,1.18.34,1.69,1.69,0,0,0,1.06-.3.92.92,0,0,0,.39-.76.74.74,0,0,0-.41-.69,6.16,6.16,0,0,0-1.29-.45,9.81,9.81,0,0,1-1.29-.42,2.37,2.37,0,0,1-.86-.64,1.65,1.65,0,0,1-.36-1.11,1.7,1.7,0,0,1,.32-1,2.22,2.22,0,0,1,.93-.73,3.44,3.44,0,0,1,1.36-.26,2.89,2.89,0,0,1,1.91.6,2.12,2.12,0,0,1,.78,1.63h-1.18A1.19,1.19,0,0,0,862,44a1.65,1.65,0,0,0-1.1-.34,1.7,1.7,0,0,0-1,.27.85.85,0,0,0-.38.72.82.82,0,0,0,.23.58,1.64,1.64,0,0,0,.57.36c.23.09.55.19,1,.31a9.61,9.61,0,0,1,1.24.4,2.19,2.19,0,0,1,.83.61,1.62,1.62,0,0,1,.36,1A1.82,1.82,0,0,1,863.4,49a2.16,2.16,0,0,1-.91.73,3.27,3.27,0,0,1-1.36.27A3.78,3.78,0,0,1,859.66,49.69Z"/><path d="M868.13,44.34a3.27,3.27,0,0,1,1.22-1.28,3.37,3.37,0,0,1,1.72-.45,3.15,3.15,0,0,1,1.63.4,2.63,2.63,0,0,1,1,1v-1.3h1.2v7.12h-1.2V48.52a2.8,2.8,0,0,1-1,1,3.17,3.17,0,0,1-1.62.41,3.29,3.29,0,0,1-1.72-.47,3.33,3.33,0,0,1-1.21-1.31,4.19,4.19,0,0,1-.44-1.93A4.06,4.06,0,0,1,868.13,44.34Zm5.27.53a2.36,2.36,0,0,0-.88-.92,2.4,2.4,0,0,0-1.21-.31,2.37,2.37,0,0,0-1.21.31,2.19,2.19,0,0,0-.87.91,2.84,2.84,0,0,0-.33,1.4,2.89,2.89,0,0,0,.33,1.42,2.18,2.18,0,0,0,.87.93,2.38,2.38,0,0,0,1.21.32,2.4,2.4,0,0,0,1.21-.32,2.26,2.26,0,0,0,.88-.93,3.24,3.24,0,0,0,0-2.81Z"/><path d="M878,43.7v4.2a1,1,0,0,0,.22.73,1.07,1.07,0,0,0,.77.22h.87v1h-1.07a2.1,2.1,0,0,1-1.48-.46,1.94,1.94,0,0,1-.49-1.49V43.7h-.92v-1h.92v-1.8H878v1.8h1.86v1Z"/><path d="M884,44.34a3.27,3.27,0,0,1,1.22-1.28,3.37,3.37,0,0,1,1.72-.45,3.15,3.15,0,0,1,1.63.4,2.63,2.63,0,0,1,1,1v-1.3h1.2v7.12h-1.2V48.52a2.8,2.8,0,0,1-1,1A3.2,3.2,0,0,1,887,50a3.27,3.27,0,0,1-1.72-.47A3.33,3.33,0,0,1,884,48.19a4.19,4.19,0,0,1-.44-1.93A4.06,4.06,0,0,1,884,44.34Zm5.27.53a2.36,2.36,0,0,0-.88-.92,2.4,2.4,0,0,0-1.21-.31A2.34,2.34,0,0,0,886,44a2.19,2.19,0,0,0-.87.91,2.84,2.84,0,0,0-.33,1.4,2.89,2.89,0,0,0,.33,1.42,2.18,2.18,0,0,0,.87.93,2.35,2.35,0,0,0,1.21.32,2.4,2.4,0,0,0,1.21-.32,2.26,2.26,0,0,0,.88-.93,3.24,3.24,0,0,0,0-2.81Z"/><path d="M892.5,41.33a.75.75,0,0,1-.24-.57.78.78,0,0,1,.24-.57.74.74,0,0,1,.57-.23.71.71,0,0,1,.55.23.81.81,0,0,1,.23.57.78.78,0,0,1-.23.57.72.72,0,0,1-.55.24A.75.75,0,0,1,892.5,41.33Zm1.14,1.4v7.12h-1.18V42.73Z"/><path d="M897.37,42.93a2.78,2.78,0,0,1,1.41-.33v1.22h-.32c-1.32,0-2,.72-2,2.16v3.87h-1.18V42.73h1.18v1.15A2.35,2.35,0,0,1,897.37,42.93Z"/><path d="M902,43a3,3,0,0,1,1.62-.41,3.37,3.37,0,0,1,1.72.45,3.25,3.25,0,0,1,1.21,1.28,3.94,3.94,0,0,1,.44,1.92,4.07,4.07,0,0,1-.44,1.93A3.24,3.24,0,0,1,903.63,50a3.13,3.13,0,0,1-1.61-.41,3.06,3.06,0,0,1-1.06-1v4.69h-1.18V42.73H901V44A2.72,2.72,0,0,1,902,43Zm3.46,1.84a2.27,2.27,0,0,0-.88-.91,2.4,2.4,0,0,0-1.21-.31,2.31,2.31,0,0,0-2.09,1.24,3.13,3.13,0,0,0,0,2.8,2.28,2.28,0,0,0,.89.93,2.34,2.34,0,0,0,1.2.32,2.4,2.4,0,0,0,1.21-.32,2.26,2.26,0,0,0,.88-.93,2.89,2.89,0,0,0,.33-1.42A2.84,2.84,0,0,0,905.47,44.86Z"/><path d="M909.49,49.51a3.22,3.22,0,0,1-1.27-1.29,4.28,4.28,0,0,1,0-3.88,3.33,3.33,0,0,1,1.3-1.28,3.95,3.95,0,0,1,3.66,0,3.27,3.27,0,0,1,1.3,1.28,3.88,3.88,0,0,1,.47,1.93,3.77,3.77,0,0,1-.49,1.95,3.28,3.28,0,0,1-1.32,1.29,3.8,3.8,0,0,1-1.84.46A3.73,3.73,0,0,1,909.49,49.51Zm3-.88a2.25,2.25,0,0,0,.91-.9,3.28,3.28,0,0,0,0-2.91,2.16,2.16,0,0,0-.88-.89,2.57,2.57,0,0,0-2.37,0,2.14,2.14,0,0,0-.87.89,3.08,3.08,0,0,0-.32,1.45,3,3,0,0,0,.32,1.47,2,2,0,0,0,.85.89,2.32,2.32,0,0,0,1.17.3A2.47,2.47,0,0,0,912.5,48.63Z"/><path d="M918.23,42.93a2.83,2.83,0,0,1,1.41-.33v1.22h-.31c-1.33,0-2,.72-2,2.16v3.87h-1.18V42.73h1.18v1.15A2.33,2.33,0,0,1,918.23,42.93Z"/><path d="M922.08,43.7v4.2a1,1,0,0,0,.23.73,1,1,0,0,0,.76.22h.87v1h-1.06a2.07,2.07,0,0,1-1.48-.46,1.94,1.94,0,0,1-.5-1.49V43.7H920v-1h.92v-1.8h1.18v1.8h1.86v1Z"/></g></g></svg>