<?xml version="1.0" encoding="utf-8"?>
<!-- Generator: Adobe Illustrator 24.1.0, SVG Export Plug-In . SVG Version: 6.00 Build 0)  -->
<svg version="1.1" id="图层_1" xmlns="http://www.w3.org/2000/svg" xmlns:xlink="http://www.w3.org/1999/xlink" x="0px" y="0px"
	 viewBox="0 0 862 576.4" style="enable-background:new 0 0 862 576.4;" xml:space="preserve">
<style type="text/css">
	.st0{font-family:'ArialMT';}
	.st1{font-size:10.26px;}
	.st2{font-family:'Roboto-Regular';}
	.st3{font-size:12.55px;}
</style>
<g id="图层_2_1_">
	<g id="图层_1-2">
		<text transform="matrix(1 0 0 1 443.91 106.75)" class="st0 st1">Mental </text>
		<text transform="matrix(1 0 0 1 443.91 119.06)" class="st0 st1">hurt</text>
		
			<image style="overflow:visible;enable-background:new    ;" width="1998" height="1283" id="图层_2_图像" xlink:href="BF35CB0B09807EA6.png"  transform="matrix(0.4304 0 0 0.4204 0 13.8803)">
		</image>
		
			<image style="overflow:visible;enable-background:new    ;" width="1868" height="1235" id="_1638081440771_图像" xlink:href="BF35CB0B09807EAA.png"  transform="matrix(0.4585 0 0 0.4585 5.5315 -6)">
		</image>
		
			<image style="overflow:visible;enable-background:new    ;" width="1878" height="1245" id="_1638081342256_图像" xlink:href="BF35CB0B09807EAD.png"  transform="matrix(0.4434 0 0 0.4627 14.2323 -0.49)">
		</image>
		<text transform="matrix(1 0 0 1 276.63 34.37)" class="st2 st1">I miss my </text>
		<text transform="matrix(1 0 0 1 276.63 46.68)" class="st2 st1">husband</text>
		<text transform="matrix(1 0 0 1 507.4 43.37)" class="st2 st1">I am so </text>
		<text transform="matrix(1 0 0 1 507.4 55.68)" class="st2 st1">dep</text>
		<text transform="matrix(1 0 0 1 524.39 55.68)" class="st2 st1">r</text>
		<text transform="matrix(1 0 0 1 527.78 55.68)" class="st2 st1">essed</text>
		<text transform="matrix(1 0 0 1 592.67 57.75)" class="st2 st3">When can my </text>
		<text transform="matrix(1 0 0 1 592.67 72.8)" class="st2 st3">husband ca</text>
		<text transform="matrix(1 0 0 1 657.34 72.8)" class="st2 st3">r</text>
		<text transform="matrix(1 0 0 1 661.48 72.8)" class="st2 st3">e </text>
		<text transform="matrix(1 0 0 1 592.67 87.86)" class="st2 st3">for us</text>
		<text transform="matrix(1 0 0 1 519.72 399.01)" class="st2 st3">Mar</text>
		<text transform="matrix(1 0 0 1 541.75 399.01)" class="st2 st3">r</text>
		<text transform="matrix(1 0 0 1 546.11 399.01)" class="st2 st3">y a</text>
		<text transform="matrix(1 0 0 1 561.98 399.01)" class="st2 st3">r</text>
		<text transform="matrix(1 0 0 1 566.11 399.01)" class="st2 st3">e </text>
		<text transform="matrix(1 0 0 1 575.8799 399.01)" class="st2 st3">y</text>
		<text transform="matrix(1 0 0 1 581.72 399.01)" class="st2 st3">ou </text>
		<text transform="matrix(1 0 0 1 519.72 414.06)" class="st2 st3">and ba</text>
		<text transform="matrix(1 0 0 1 557.53 414.06)" class="st2 st3">b</text>
		<text transform="matrix(1 0 0 1 564.5 414.06)" class="st2 st3">y ok? I </text>
		<text transform="matrix(1 0 0 1 519.72 429.12)" class="st2 st3">miss </text>
		<text transform="matrix(1 0 0 1 549.83 429.12)" class="st2 st3">y</text>
		<text transform="matrix(1 0 0 1 555.68 429.12)" class="st2 st3">ou</text>
		<text transform="matrix(1 0 0 1 541.06 472.87)" class="st2 st3">I am fine,</text>
		<text transform="matrix(1 0 0 1 541.06 487.92)" class="st2 st3">come home </text>
		<text transform="matrix(1 0 0 1 541.06 502.98)" class="st2 st3">earily</text>
	</g>
</g>
</svg>
