<svg xmlns="http://www.w3.org/2000/svg" viewBox="0 0 377.08 166.23"><defs><style>.cls-1{fill:#ffbddb;}.cls-2{fill:#8abaff;}</style></defs><g id="图层_2" data-name="图层 2"><g id="图层_2-2" data-name="图层 2"><path class="cls-1" d="M250.05,12.38a87.59,87.59,0,0,1,29.24-11c1.23.57,2.55,0,3.76.32.46,0,.07-.69.11-.29,0,0,0,0-.11,0a2,2,0,0,1-2.17-.23,12,12,0,0,1,5.39-.55,103.83,103.83,0,0,1,16,0,10.51,10.51,0,0,1,4.78.55c-.55.55-1.13.57-1.43.36a6.33,6.33,0,0,0,3-.19A73.41,73.41,0,0,1,326.8,6.7a89.57,89.57,0,0,1,21.34,13.52c13.7,11.87,23,26.34,27,44.06a4.91,4.91,0,0,0-.16,1.79,1.57,1.57,0,0,0,.07.58c0-.28,0-.56.32-.72.71,2.18,1.53,4.35.78,6.7-.26.8.4,1.26.71,1.85-1.56,3.71-4.87,5.86-7.64,8.46-1.07,1-2.11,0-2.9-.74-2-2-4.33-3.66-6.5-5.48A7.14,7.14,0,0,1,358.37,75c-1.47-6.75-3-13.46-6.09-19.74C342.81,36,327.28,24.55,306.45,20c-1-.23-2.32,0-2.86-1.31a.65.65,0,0,1,.9-.41c-.24-.58-.58,0-.83,0a5.64,5.64,0,0,1-1.48,0c-4.65-.75-9.42.34-14.34-.93-.11,0,.35.68.4.28,0-.06.1-.07.29-.07a2.52,2.52,0,0,1,1.18.23c.07,1.39-1.07,1.37-1.89,1.42-6.39.34-12.3,2.6-18.3,4.51-1.49.59-3,1.21-4.44,1.88-.49.26-1,.52-1.5.74a10.28,10.28,0,0,0-2.12,1.19c-6.7,4.13-13,8.79-18,14.92a22,22,0,0,1-2.29,2c-2.58,2.37-5,4.92-7.47,7.4C223.2,62.68,211.87,72.7,201.35,83.54c-2.16,2.08-4.24,4.24-6.4,6.33-.85.82-1.65,1.79-3,1.66a1.2,1.2,0,0,1-.94-.78,8.38,8.38,0,0,0-.24-3.23,5.77,5.77,0,0,1-.2-.82c-.65-1.87,1.14-4.72-2.23-5.49-2.87-.68-5.82.14-8.68-.53-1.09-.44-1-1.25-.32-1.84,3.23-2.67,5.66-6.2,9.28-8.44,4.78-4.12,9-8.79,13.44-13.26,6.56-6.61,12.95-13.41,19.86-19.63C228.08,32,233.8,26,239.73,20.17c2-2,4.55-3.4,6.48-5.52.45-.67,1.22-.79,1.88-1.1h0C248.46,12.7,249.25,12.54,250.05,12.38Z"/><path class="cls-2" d="M188.88,80.65c1.69-.35,2.69.06,2.48,2.06-.16,1.57-.19,3.15-.27,4.73a2.15,2.15,0,0,1-.39,1.88c-1.42,0-.65,1.36-1.22,1.89.45,0,.91-.51,1.36,0a2,2,0,0,1,.35,1.23,3.71,3.71,0,0,1-3,3.58l-1.86,1.9a24.22,24.22,0,0,1-1.74,1.77l-.06.07c-.69,2.55-2.87,3.86-4.65,5.47-3.84,3.47-7,7.63-11,10.94a2,2,0,0,1-.79.28c-1.26-.1-2.25.08-1.77,1.75-.09,1-.86,1.58-1.49,2.22-4.13,4.19-8.34,8.3-12.49,12.48a5.1,5.1,0,0,1-2.23,1.51l-.57.57a2.58,2.58,0,0,1-1.82,1.91l-.6.6a4.94,4.94,0,0,1-3.12,3l-.58.56c-2.33,3.89-5.82,6.48-9.69,8.66h0c-.46,1.09-1.49,1.4-2.46,1.8l-8,4.77a8.54,8.54,0,0,1-4.87,2.55,128.37,128.37,0,0,1-13.46,4.83,22.75,22.75,0,0,1-5.06,1.21l-.22-.07-.2.11c-1.26.82-2.54-.05-3.81,0-1.73-.66-3.42,0-5.1.2a71.75,71.75,0,0,1-14.87-.06,21.21,21.21,0,0,0-2.75-.21c-1.36-.33-2.71-1.12-4.07,0A72.08,72.08,0,0,1,42,155.2l0-.17-.1.15a60.25,60.25,0,0,1-12.33-8.47c0-.82-.23-1.31-1.15-.79a4.2,4.2,0,0,1-2.38-2.3c.54-1.47-1.16-1.53-1.54-2.42-1-.9-.56-2.93-2.41-3.2a9.24,9.24,0,0,1-1,.39.7.7,0,0,1-.64-.21l-2-2.45a2.19,2.19,0,0,1-1-1.31c-2.47-3.39-5.2-6.59-7-10.45C7.42,117.28,4,110.71,2.8,103.32a1.12,1.12,0,0,0,.53-1c-.32.08-.33.5-.64.57A29.32,29.32,0,0,1,.85,92.57a8,8,0,0,1-.49-3c.51-1.35.08-3,1.3-4.13,1.57-.75,2.78.24,3.83,1,2.41,1.85,4.65,2,7,0a2.77,2.77,0,0,1,2-.61c2.78.1,3.31,1.72,2.72,3.63A2.9,2.9,0,0,1,17.34,88a.53.53,0,0,1,.75,0l.05,1c.52,1-.1,2.25.5,3.27l.09,1.11A2.71,2.71,0,0,1,18.65,96c-1.46-.09-.51-1.47-1.08-2-.11-.44-.26-.1-.15,0,.62.5,0,1.56.84,2.06-.85,2,2.17,3.12,1.25,5.17.38,0,.47-.73,1-.37-.16,2.07,1.68,3.5,1.75,5.5a3.44,3.44,0,0,0-.34.66,2.26,2.26,0,0,0,.5,1.4,1.15,1.15,0,0,0,.68.19c2.15,3.75,3.71,7.85,6.55,11.19a81.58,81.58,0,0,1,7.45,9.05l0,0a1.31,1.31,0,0,1,.75,1.22c0,1.2.71,1.36,1.68,1.16a1.71,1.71,0,0,1,1.4.43,70.27,70.27,0,0,0,13.39,9.14,2.06,2.06,0,0,1,1,1.11c.3.47.77.47,1.25.45,1.46.57,3.29.23,4.36,1.76.64.71,1.9.37,2.34,1.4.92,1.91,2.81,1.2,4.29,1.6a2.65,2.65,0,0,0,.69-.4l1.11-.07c2.89.4,5.81.63,8.66,1.26h0a7.23,7.23,0,0,1,.64.44,2.44,2.44,0,0,0,.7.4c3,.31,6,0,9,.15a2.18,2.18,0,0,0,.77-.36l-.06-.21c1.49-1.31,3.44-.39,5.06-1h2.33c1.87.73,3.51-.51,5.28-.61a4.33,4.33,0,0,0,2.42-1c.34-.46,1.24-.15,1.33-1,6.28-2.75,12.48-5.63,17.83-10,.92-.76,1.72-1.66,2.58-2.5a4.67,4.67,0,0,1,3.19-3.2l13.85-13.31c.7.14,1-.13.81-.82C150,108.46,156.3,102,163,95.86a2.27,2.27,0,0,0,1.79-1.75L166,92.8a1.15,1.15,0,0,0,1.16-1.15l6.91-7.17a4,4,0,0,1,1-1.74c1-.88,1.73-2.06,3.13-2.39a1.57,1.57,0,0,1,.74.16c1,.78,2-.34,3-.09C184.24,80.54,186.57,80.17,188.88,80.65Z"/><path class="cls-1" d="M360.08,76.29a31.14,31.14,0,0,1,6.48,5.35c1.15,1.38,2.1,1.53,3.4.07,2.21-2.5,4.6-4.84,6.91-7.23l.21,3.19a2.45,2.45,0,0,0-.46.82c-.19,3.67-.07,7.34-.07,11,0,.16,0,.32,0,.48.48,3.43-.44,6.76-.73,10.14a.4.4,0,0,1-.54.32c-.19-.14-.25-.31-.13-.46.26-.31.1-.45,0-.06-.22.82.29,1.66-.09,2.48s-.2,2-1,2.7c-.9,5.84-3.38,11.1-6,16.29-1.18,2.35-2.53,4.6-3.8,6.89a7.86,7.86,0,0,1-2.48,3.71h0c-.26.73-.41,1.55-1.34,1.78l-.5.59a38.69,38.69,0,0,1-11,11.68l-.59.51c-.79,1.64-2.43,2.24-3.85,3.1-1.57,1.5-4,1.84-5.28,3.69a4.61,4.61,0,0,1-2,1.2l-1.07.79c-1,.55-1.88,1.51-3.14,1.66l0,0c-.77,1.58-2.38,1.48-3.75,1.86-3.68,1.06-7,3.13-10.81,3.78-.9-1.17-1.76-.31-2.62.06a.89.89,0,0,0-.22.66,8.12,8.12,0,0,1-3.91,1,1.13,1.13,0,0,0-.82-.25c-.21,0-.44-.11-.63.06a.49.49,0,0,1,.43.34A4,4,0,0,1,308,165c-.82-.65-1.67-.17-2.5-.05-1.17.34-2.64-.59-3.54.85a6.89,6.89,0,0,1-3.76.33,2.81,2.81,0,0,0-.7-.43,53.33,53.33,0,0,0-6.69,0,4,4,0,0,0-1.14.48c-1.3.05-2.61.26-3.81-.47a.77.77,0,0,0-.33-.6,4.79,4.79,0,0,0-2,0,2.76,2.76,0,0,0-.64.43l-2-.44c.26-.33.54-.55.88-.1a.53.53,0,0,0-.59-.31c-.65.06-1.34-.19-1.94.26-6.52-1.11-12.72-3.29-18.93-5.47-1.78-.52-3.67-.83-5-2.37l-2.33-.76h0l-1.94-1.74c-.07-.56-.34-.31-.59-.13l-.74-.44c-.71-.71-1.76-1-2.37-1.79-2.53-1.29-4.56-3.29-6.84-4.93-1.35-.85-2.92-1.46-3.48-3.17-2.29-2.79-5.3-4.9-7.38-7.89a4.18,4.18,0,0,0-2.4-2.42l-3.16-2.42c-3.85-3.44-7.41-7.17-11-10.89l-3.1-3.27a16,16,0,0,1,1.64-10.11c2.56-.8,5.18-.26,7.76-.41,1.92-.14,3.75.84,5.69.5,2.27.44,3.52,2.31,5,3.76,5.24,5.07,10.23,10.4,15.49,15.46,1.62,1.56,3.5,2.79,5.06,4.4,1.08,1,1.58,2.54,3.12,3.06a17.5,17.5,0,0,1,3.08,2,9.19,9.19,0,0,0,4.7,3c1.23.53,1.92,1.88,3.3,2.17.8.21,1.59.46,2.38.72,6,2.69,12.13,4.81,18.74,5.32.95.07,2.09-.08,2.55,1.15,0,.3-.42.3-.41.6a4.22,4.22,0,0,1,.87,0c3.32.08,6.63.07,9.94,0,.39,0,.82-.16,1.17.19-.19-.36-.77-.3-.84-.79.47-1.1,1.42-1,2.34-.91,1.59.25,3.23,1,4.65-.47a2.42,2.42,0,0,1,1.47-.76c1.53.07,3.09.33,4.37-.86.74-.34,1.55,0,2.3-.24a2.87,2.87,0,0,1,1.23.2c-.12-.25-.48-.33-.47-.68.47-1.07,1.51-1.2,2.45-1.5,2.16.07,3.66-1.45,5.43-2.3,4.51-2.12,8.28-5.38,12.46-8,1.46-.76,2.44-2.1,3.65-3.16a5.73,5.73,0,0,1,.63-.47,5.32,5.32,0,0,0,2.37-2.39,4.44,4.44,0,0,1,.89-1.29,6.83,6.83,0,0,0,1.83-3c4.74-5.33,7.8-11.59,10.24-18.21a14.59,14.59,0,0,1,1.41-3.36c1.19-1.21,1.12-2.7.89-4.22.06-1.18-.38-2.55,1.15-3.21.69.34.36,1,.56,1.56-.12-.5,0-1-.15-1.54a3.07,3.07,0,0,1-.11-1.17c.44-1.55.16-3.18.52-4.73a23,23,0,0,0,0-9.43A1.9,1.9,0,0,1,360.08,76.29Z"/><path class="cls-2" d="M14.34,86.18c-3.87,4.17-7.58,2.73-11.26-.3a3,3,0,0,0-.82-.34c-.66-.47-1.73.16-2.19-.82a2.93,2.93,0,0,1,.15-1.28A12.17,12.17,0,0,0,0,78.9c.2-1.62-.43-3.31.42-4.87.68-2.67.28-5.57,1.64-8.1.41.18.23.64.46.94-.21-.67.13-1.4-.32-2A2.44,2.44,0,0,1,2.85,63c.37-.77,1-1.49.51-2.43C7.28,44.35,16.53,31.48,28.5,20.3c1.14-2.21,3.7-2.7,5.31-4.33l.79-.67a19.09,19.09,0,0,1,1.91-1.12l6-3.8a2.87,2.87,0,0,1,2.06-1l4.07-2c.59-1,1.75-.7,2.59-1.12a169.9,169.9,0,0,1,16.39-5c.48-.4,1.05-.25,1.59-.25a10.9,10.9,0,0,1,1.09.39c.38.14-.12.11.26.07s-.11-.2-.11-.34a.4.4,0,0,1,.36-.4L74.71.61c1.47-.52,3.07.17,4.53-.46a81.84,81.84,0,0,1,33.18,5,76,76,0,0,1,28.76,18.58c5.7,5.83,11.85,11.2,17.06,17.51a17.43,17.43,0,0,0,2.81,2.27c1.48.64,2.17,1.51.91,3,0,1.33-1.82,1.21-2,2.43a14.45,14.45,0,0,1-4.4,4.83l-.52.62a5.68,5.68,0,0,1-1.74,1.91c-1.75,2.23-3,2-5-.17-3.75-4.1-8-7.69-11.63-12-.27-1.06-.07-2.16-.31-3.35,0,1,.43,2-.29,2.75-2.72-1.12-4.32-3.66-6.1-5.65-5.37-6-12-10-18.89-13.77-2.66-1.47-5.65-2-8.58-2.74l0,0a40.2,40.2,0,0,0-11.72-3c-1.08-.12-2.16-.31-3.24-.47,1-.85,2.2-.18,3.32-.47-5.09.11-10.16-.14-15.19.39a9.58,9.58,0,0,1-2.33.27c-.41,0-.61.28-.22.16a1.45,1.45,0,0,1,.14.25A82,82,0,0,0,50,27c-.53.3-1.09.5-1.37,1.08A6,6,0,0,1,45.57,30l-.59.61c-.39,1.58-1.93,1.75-3,2.46-3.34,1.81-5.77,4.74-8.15,7.48A68.87,68.87,0,0,0,21.93,60.71a6.62,6.62,0,0,0-.8,3.5c-.91,1.5-.59,3.33-1.34,4.87l-1.63,8.11c-.82,2-.38,3.94-.2,5.92a.35.35,0,0,1,0,.38,3.06,3.06,0,0,1-.89,1.27A7.38,7.38,0,0,1,14.34,86.18Z"/><path class="cls-2" d="M178.48,80.75l-3.07,2.51c-.81-.07-.91-.87-1.35-1.33-3.62-3.69-6.95-7.73-10.94-11-3.33-2.71-3.53-5.8-2.93-9.39,1-5.86,1-5.59,7.16-6a11.23,11.23,0,0,1,9.82,4c3.58,3.82,7,7.91,11.42,10.85a75.77,75.77,0,0,1-9.53,9.51C179.12,80.37,178.61,80.43,178.48,80.75Z"/></g></g></svg>