<?xml version="1.0" encoding="utf-8"?>
<!-- Generator: Adobe Illustrator 24.1.0, SVG Export Plug-In . SVG Version: 6.00 Build 0)  -->
<svg version="1.1" id="图层_1" xmlns="http://www.w3.org/2000/svg" xmlns:xlink="http://www.w3.org/1999/xlink" x="0px" y="0px"
	 viewBox="0 0 1252.1 93.2" style="enable-background:new 0 0 1252.1 93.2;" xml:space="preserve">
<style type="text/css">
	.st0{fill:#FFFFFF;}
	.st1{font-family:'Poppins-Medium';}
	.st2{font-size:40px;}
	.st3{letter-spacing:-1;}
	.st4{font-family:'Poppins-Regular';}
	.st5{font-size:14.65px;}
</style>
<g id="图层_2_1_">
	<g id="图层_1-2">
		<rect class="st0" width="1252.1" height="93.2"/>
		<text transform="matrix(1 0 0 1 84.22 49.62)" class="st1 st2 st3">Goal</text>
		<text transform="matrix(1 0 0 1 450.73 27.35)" class="st4 st5">iFlyPlus expand the service line by adding the shared flight service, however, the current user </text>
		<text transform="matrix(1 0 0 1 450.73 49.85)" class="st4 st5">experience of shared flight isn’t satisfying. My goal is to </text>
		<text transform="matrix(1 0 0 1 829.97 49.85)" class="st4 st5">improve the shared flight experience </text>
		<text transform="matrix(1 0 0 1 450.73 72.35)" class="st4 st5">on App</text>
		<text transform="matrix(1 0 0 1 503.38 72.35)" class="st4 st5">, and </text>
		<text transform="matrix(1 0 0 1 540.83 72.35)" class="st4 st5">Website</text>
		<text transform="matrix(1 0 0 1 600.92 72.35)" class="st4 st5">, explore potential </text>
		<text transform="matrix(1 0 0 1 726.4 72.35)" class="st4 st5">market opportunities</text>
		<text transform="matrix(1 0 0 1 885.0701 72.35)" class="st4 st5">, and iterate the current </text>
		<text transform="matrix(1 0 0 1 1050.63 72.35)" class="st4 st5">UI</text>
	</g>
</g>
</svg>
