<?xml version="1.0" encoding="utf-8"?>
<!-- Generator: Adobe Illustrator 24.1.0, SVG Export Plug-In . SVG Version: 6.00 Build 0)  -->
<svg version="1.1" id="图层_1" xmlns="http://www.w3.org/2000/svg" xmlns:xlink="http://www.w3.org/1999/xlink" x="0px" y="0px"
	 viewBox="0 0 1252.1 126.2" style="enable-background:new 0 0 1252.1 126.2;" xml:space="preserve">
<style type="text/css">
	.st0{display:none;}
	.st1{opacity:0.58;fill:#FFFFFF;}
	.st2{font-family:'Poppins-Medium';}
	.st3{font-size:40px;}
	.st4{letter-spacing:-1;}
	.st5{display:inline;}
	.st6{font-family:'Poppins-Regular';}
	.st7{font-size:14.65px;}
	.st8{font-family:'Poppins';}
</style>
<g id="wvNoiA.tif" class="st0">
	
		<image style="display:inline;overflow:visible;" width="2880" height="630" id="Layer_0" xlink:href="A1C697DD979A3337.png"  transform="matrix(0.4345 0 0 0.4345 0.45 0)">
	</image>
</g>
<g id="图层_2_1_">
	<g id="图层_1-2">
		<rect class="st1" width="1252.1" height="126.2"/>
		<text transform="matrix(1 0 0 1 84.489 65.7598)" class="st2 st3 st4">Goal</text>
		<g class="st0">
			<path class="st5" d="M653,33.8c-0.2-0.2-0.3-0.4-0.3-0.6c0-0.5,0.4-0.9,0.9-0.9c0.2,0,0.5,0.1,0.6,0.3c0.2,0.2,0.2,0.4,0.2,0.6
				c0,0.2-0.1,0.5-0.2,0.6C653.8,34.1,653.3,34.1,653,33.8z M654.2,35.3V43h-1.3v-7.7H654.2z"/>
			<path class="st5" d="M661.5,33.2v1h-4.2v3.3h3.4v1h-3.4v4.4H656v-9.7H661.5z"/>
			<path class="st5" d="M663.9,32.6V43h-1.3V32.6H663.9z"/>
			<path class="st5" d="M672.3,35.3l-4.6,11.3h-1.3l1.5-3.7l-3.1-7.6h1.4l2.4,6.2l2.4-6.2H672.3z"/>
			<path class="st5" d="M678.9,38.1c-0.7,0.6-1.6,0.9-2.5,0.8h-1.9V43h-1.3v-9.8h3.1c0.9-0.1,1.8,0.2,2.5,0.8
				C680,35.1,680,36.9,678.9,38.1C678.8,38,678.8,38.1,678.9,38.1L678.9,38.1z M677.9,37.4c0.4-0.3,0.5-0.8,0.5-1.3
				c0-1.2-0.7-1.8-2.1-1.8h-1.9v3.6h1.9C676.9,37.9,677.4,37.7,677.9,37.4L677.9,37.4z"/>
			<path class="st5" d="M682.1,32.6V43h-1.3V32.6H682.1z"/>
			<path class="st5" d="M690.7,35.3V43h-1.3v-1.1c-0.2,0.4-0.6,0.7-1,0.9s-0.9,0.3-1.4,0.3c-0.6,0-1.1-0.1-1.6-0.4
				c-0.5-0.3-0.9-0.6-1.1-1.1c-0.3-0.6-0.4-1.2-0.4-1.8v-4.5h1.2v4.3c0,0.6,0.2,1.3,0.6,1.8c0.4,0.4,1,0.6,1.6,0.6s1.2-0.2,1.6-0.6
				c0.4-0.5,0.6-1.2,0.6-1.8v-4.2h1.2V35.3z"/>
			<path class="st5" d="M693.6,42.8c-0.4-0.2-0.8-0.5-1.1-0.8c-0.3-0.4-0.4-0.8-0.4-1.2h1.3c0,0.4,0.2,0.7,0.5,0.9
				c0.4,0.3,0.8,0.4,1.3,0.4c0.4,0,0.8-0.1,1.1-0.3s0.4-0.5,0.4-0.8s-0.2-0.6-0.5-0.8c-0.4-0.2-0.9-0.4-1.4-0.5s-0.9-0.3-1.4-0.5
				c-0.4-0.2-0.7-0.4-0.9-0.7c-0.3-0.3-0.4-0.8-0.4-1.2s0.1-0.8,0.4-1.1s0.6-0.6,1-0.8c0.5-0.2,1-0.3,1.5-0.3c0.7,0,1.5,0.2,2.1,0.6
				c0.5,0.4,0.8,1.1,0.8,1.8h-1.3c0-0.4-0.2-0.8-0.5-1c-0.3-0.3-0.8-0.4-1.2-0.4s-0.8,0.1-1.1,0.3s-0.4,0.5-0.4,0.8
				c0,0.2,0.1,0.5,0.2,0.6c0.2,0.2,0.4,0.3,0.6,0.4c0.3,0.1,0.7,0.2,1,0.3c0.5,0.1,0.9,0.3,1.4,0.4c0.3,0.1,0.6,0.4,0.9,0.7
				s0.4,0.7,0.4,1.1c0,0.4-0.1,0.8-0.4,1.1c-0.3,0.4-0.6,0.6-1,0.8c-0.5,0.2-1,0.3-1.5,0.3C694.7,43,694.1,43,693.6,42.8z"/>
			<path class="st5" d="M709.7,39.6h-6.1c0,0.7,0.3,1.3,0.8,1.8c0.5,0.4,1.1,0.7,1.7,0.6c0.5,0,1-0.1,1.4-0.4c0.4-0.2,0.6-0.6,0.8-1
				h1.4c-0.2,0.7-0.6,1.4-1.2,1.8c-0.7,0.5-1.5,0.7-2.3,0.7c-0.7,0-1.4-0.1-2-0.5c-0.6-0.3-1-0.8-1.4-1.4c-0.3-0.6-0.5-1.4-0.5-2.1
				c0-0.7,0.1-1.4,0.5-2.1c0.3-0.6,0.8-1.1,1.4-1.4c0.6-0.3,1.3-0.5,2-0.5c0.7,0,1.3,0.2,1.9,0.5c0.5,0.3,1,0.8,1.3,1.3
				c0.3,0.6,0.5,1.2,0.5,1.9C709.8,39,709.7,39.3,709.7,39.6z M708.1,37.3c-0.2-0.3-0.5-0.6-0.9-0.8s-0.8-0.3-1.2-0.3
				c-0.6,0-1.2,0.2-1.6,0.6c-0.5,0.4-0.7,1.1-0.8,1.7h4.8C708.4,38.1,708.3,37.7,708.1,37.3z"/>
			<path class="st5" d="M715.1,42.9l-1.8-2.9l-1.8,2.9h-1.3l2.5-3.8l-2.5-3.9h1.4l1.8,2.8l1.7-2.8h1.3l-2.5,3.8l2.5,3.9H715.1z"/>
			<path class="st5" d="M719.8,35.6c0.5-0.3,1.1-0.5,1.7-0.4c0.7,0,1.3,0.2,1.9,0.5s1,0.8,1.3,1.4c0.3,0.6,0.5,1.3,0.5,2.1
				c0,0.7-0.1,1.4-0.5,2.1c-0.3,0.6-0.8,1.1-1.3,1.4c-0.6,0.3-1.2,0.5-1.9,0.5c-0.6,0-1.2-0.1-1.7-0.4c-0.5-0.3-0.9-0.6-1.1-1.1v5.1
				h-1.3V35.3h1.3v1.4C718.9,36.2,719.3,35.8,719.8,35.6z M723.5,37.6c-0.2-0.4-0.5-0.8-0.9-1s-0.9-0.3-1.3-0.3
				c-0.5,0-0.9,0.1-1.3,0.3s-0.8,0.6-1,1c-0.5,0.9-0.5,2.1,0,3c0.2,0.4,0.6,0.8,1,1s0.8,0.3,1.3,0.3s0.9-0.1,1.3-0.3
				c0.4-0.2,0.7-0.6,0.9-1c0.2-0.5,0.4-1,0.3-1.5C723.8,38.5,723.7,38,723.5,37.6L723.5,37.6z"/>
			<path class="st5" d="M726.4,37c0.3-0.6,0.8-1.1,1.3-1.4c0.6-0.3,1.2-0.5,1.8-0.5s1.2,0.1,1.8,0.4c0.5,0.3,0.8,0.6,1.1,1.1v-1.4
				h1.3v7.7h-1.3v-1.4c-0.3,0.5-0.7,0.9-1.1,1.1c-0.5,0.3-1.1,0.5-1.7,0.4c-0.7,0-1.3-0.2-1.8-0.5c-0.6-0.3-1-0.8-1.3-1.4
				c-0.3-0.6-0.5-1.4-0.5-2.1C725.9,38.4,726.1,37.6,726.4,37z M732.1,37.6c-0.2-0.4-0.5-0.8-0.9-1s-0.9-0.3-1.3-0.3
				c-0.5,0-0.9,0.1-1.3,0.3s-0.7,0.6-0.9,1c-0.2,0.5-0.4,1-0.3,1.5c0,0.5,0.1,1.1,0.3,1.5c0.2,0.4,0.5,0.8,0.9,1s0.9,0.3,1.3,0.3
				c0.5,0,0.9-0.1,1.3-0.3c0.4-0.2,0.7-0.6,0.9-1c0.2-0.5,0.4-1,0.3-1.5C732.5,38.6,732.3,38,732.1,37.6L732.1,37.6z"/>
			<path class="st5" d="M741.5,36c0.6,0.7,0.9,1.5,0.9,2.5V43h-1.3v-4.4c0-0.6-0.2-1.3-0.6-1.8c-0.4-0.4-1-0.6-1.6-0.6
				s-1.2,0.2-1.6,0.6c-0.4,0.5-0.6,1.2-0.6,1.8v4.2h-1.3v-7.7h1.3v1.1c0.2-0.4,0.6-0.7,1-0.9s0.9-0.3,1.4-0.3
				C740.1,35.1,740.9,35.4,741.5,36z"/>
			<path class="st5" d="M744.1,37c0.3-0.6,0.8-1.1,1.3-1.4c0.6-0.3,1.2-0.5,1.9-0.5c0.6,0,1.1,0.1,1.7,0.4c0.5,0.3,0.9,0.6,1.2,1.1
				v-4.1h1.3v10.4h-1.4v-1.4c-0.3,0.5-0.7,0.9-1.1,1.1c-0.5,0.3-1.1,0.5-1.7,0.4c-0.7,0-1.3-0.2-1.8-0.5c-0.6-0.3-1-0.8-1.3-1.4
				c-0.3-0.6-0.5-1.4-0.5-2.1C743.6,38.4,743.8,37.6,744.1,37z M749.8,37.6c-0.2-0.4-0.5-0.8-0.9-1s-0.9-0.3-1.3-0.3
				c-0.5,0-0.9,0.1-1.3,0.3c-0.4,0.2-0.7,0.6-0.9,1c-0.2,0.5-0.4,1-0.3,1.5c0,0.5,0.1,1.1,0.3,1.5c0.2,0.4,0.5,0.8,0.9,1
				s0.9,0.3,1.3,0.3c0.5,0,0.9-0.1,1.3-0.3s0.7-0.6,0.9-1c0.2-0.5,0.4-1,0.3-1.5C750.1,38.6,750,38,749.8,37.6L749.8,37.6z"/>
			<path class="st5" d="M758,36.3v4.5c0,0.3,0.1,0.6,0.2,0.8c0.2,0.2,0.5,0.3,0.8,0.2h0.9v1.1h-1.1c-0.6,0-1.1-0.1-1.6-0.5
				c-0.4-0.4-0.6-1-0.5-1.6v-4.5h-1v-1h1v-2h1.3v1.9h2v1L758,36.3z"/>
			<path class="st5" d="M766.6,35.5c0.5,0.3,0.8,0.6,1.1,1.1c0.3,0.6,0.4,1.2,0.4,1.8v4.5h-1.3v-4.3c0-0.6-0.2-1.3-0.6-1.8
				c-0.4-0.4-1-0.6-1.6-0.6s-1.2,0.2-1.6,0.6c-0.4,0.5-0.6,1.2-0.6,1.8v4.2h-1.3V32.6h1.3v3.8c0.2-0.4,0.6-0.7,1-0.9
				C764.4,35,765.6,35,766.6,35.5L766.6,35.5z"/>
			<path class="st5" d="M776.7,39.6h-6.1c0,0.7,0.3,1.3,0.8,1.8c0.5,0.4,1.1,0.7,1.7,0.6c0.5,0,1-0.1,1.4-0.4c0.4-0.2,0.6-0.6,0.8-1
				h1.4c-0.2,0.7-0.6,1.4-1.2,1.8c-0.7,0.5-1.5,0.7-2.3,0.7c-0.7,0-1.4-0.1-2-0.5c-0.6-0.3-1-0.8-1.3-1.4c-0.6-1.3-0.6-2.9,0-4.2
				c0.3-0.6,0.8-1.1,1.3-1.4c0.6-0.3,1.3-0.5,2-0.5c0.7,0,1.3,0.2,1.9,0.5c0.5,0.3,1,0.8,1.3,1.3c0.3,0.6,0.5,1.2,0.5,1.9
				C776.8,39.1,776.8,39.3,776.7,39.6z M775.1,37.3c-0.2-0.3-0.5-0.6-0.9-0.8s-0.8-0.3-1.2-0.3c-0.6,0-1.2,0.2-1.6,0.6
				c-0.5,0.4-0.8,1.1-0.8,1.7h4.8C775.4,38.1,775.3,37.7,775.1,37.3z"/>
			<path class="st5" d="M782.5,42.8c-0.4-0.2-0.8-0.5-1.1-0.8c-0.3-0.4-0.4-0.8-0.5-1.2h1.3c0,0.4,0.2,0.7,0.5,0.9
				c0.4,0.3,0.8,0.4,1.3,0.4c0.4,0,0.8-0.1,1.1-0.3c0.3-0.2,0.4-0.5,0.4-0.8s-0.2-0.6-0.4-0.8c-0.4-0.2-0.9-0.4-1.4-0.5
				s-0.9-0.3-1.4-0.5c-0.4-0.2-0.7-0.4-0.9-0.7c-0.3-0.3-0.4-0.8-0.4-1.2s0.1-0.8,0.3-1.1c0.3-0.3,0.6-0.6,1-0.8
				c0.5-0.2,1-0.3,1.5-0.3c0.7,0,1.5,0.2,2.1,0.6c0.5,0.4,0.8,1.1,0.8,1.8h-1.3c0-0.4-0.2-0.8-0.5-1c-0.3-0.3-0.8-0.4-1.2-0.4
				s-0.8,0.1-1.1,0.3c-0.3,0.2-0.4,0.5-0.4,0.8c0,0.2,0.1,0.5,0.2,0.6c0.2,0.2,0.4,0.3,0.6,0.4c0.3,0.1,0.7,0.2,1,0.3
				c0.5,0.1,0.9,0.3,1.3,0.4c0.3,0.1,0.6,0.4,0.9,0.7s0.4,0.7,0.4,1.1c0,0.4-0.1,0.8-0.3,1.1c-0.3,0.4-0.6,0.6-1,0.8
				c-0.5,0.2-1,0.3-1.5,0.3C783.5,43.1,783,43,782.5,42.8z"/>
			<path class="st5" d="M795.3,39.6h-6.2c0,0.7,0.3,1.3,0.8,1.8c0.5,0.4,1.1,0.7,1.7,0.6c0.5,0,1-0.1,1.4-0.4c0.4-0.2,0.6-0.6,0.8-1
				h1.4c-0.2,0.7-0.6,1.4-1.2,1.8c-0.7,0.5-1.5,0.7-2.3,0.7c-0.7,0-1.4-0.1-2-0.5c-0.6-0.3-1-0.8-1.3-1.4c-0.6-1.3-0.6-2.9,0-4.2
				c0.3-0.6,0.8-1.1,1.3-1.4c0.6-0.3,1.3-0.5,2-0.5c0.7,0,1.3,0.2,1.9,0.5c0.5,0.3,1,0.8,1.3,1.3c0.3,0.6,0.5,1.2,0.5,1.9
				C795.3,39.1,795.3,39.3,795.3,39.6z M793.7,37.3c-0.2-0.3-0.5-0.6-0.9-0.8s-0.8-0.3-1.2-0.3c-0.6,0-1.2,0.2-1.6,0.6
				c-0.5,0.4-0.8,1.1-0.8,1.7h4.8C794,38.1,793.9,37.7,793.7,37.3z"/>
			<path class="st5" d="M798.8,35.5c0.5-0.3,1-0.4,1.5-0.4v1.3H800c-1.4,0-2.1,0.8-2.1,2.3v4.2h-1.3v-7.7h1.3v1.2
				C798.1,36.1,798.4,35.7,798.8,35.5z"/>
			<path class="st5" d="M804.3,41.8l2.4-6.5h1.4l-3,7.7h-1.5l-3-7.7h1.4L804.3,41.8z"/>
			<path class="st5" d="M808.9,33.8c-0.2-0.2-0.3-0.4-0.2-0.6c0-0.2,0.1-0.5,0.2-0.6c0.2-0.2,0.4-0.3,0.6-0.3s0.4,0.1,0.6,0.3
				s0.3,0.4,0.2,0.6c0,0.2-0.1,0.5-0.2,0.6c-0.2,0.2-0.4,0.3-0.6,0.2C809.3,34,809.1,33.9,808.9,33.8z M810.2,35.3V43h-1.3v-7.7
				H810.2z"/>
			<path class="st5" d="M811.9,37c0.3-0.6,0.8-1.1,1.3-1.4c0.6-0.3,1.3-0.5,1.9-0.5c0.8,0,1.7,0.2,2.3,0.7s1.1,1.1,1.2,1.9h-1.4
				c-0.1-0.4-0.4-0.8-0.8-1.1c-0.4-0.3-0.9-0.4-1.4-0.4c-0.7,0-1.3,0.3-1.8,0.8c-0.5,0.6-0.7,1.4-0.7,2.1c-0.1,0.8,0.2,1.5,0.7,2.1
				c0.4,0.5,1.1,0.8,1.8,0.8c0.5,0,1-0.1,1.4-0.4c0.4-0.3,0.7-0.7,0.8-1.1h1.4c-0.2,0.8-0.6,1.4-1.2,1.9c-0.7,0.5-1.5,0.7-2.3,0.7
				c-0.7,0-1.3-0.2-1.9-0.5c-0.6-0.3-1-0.8-1.3-1.4c-0.3-0.7-0.5-1.4-0.5-2.1C811.5,38.4,811.6,37.6,811.9,37z"/>
			<path class="st5" d="M827,39.6h-6.1c0,0.7,0.3,1.3,0.8,1.8c0.5,0.4,1.1,0.7,1.7,0.6c0.5,0,1-0.1,1.4-0.4c0.4-0.2,0.6-0.6,0.8-1
				h1.4c-0.2,0.7-0.6,1.4-1.2,1.8c-0.7,0.5-1.5,0.7-2.3,0.7c-0.7,0-1.4-0.1-2-0.5c-0.5-0.3-1-0.8-1.3-1.4c-0.3-0.6-0.5-1.4-0.5-2.1
				c0-0.7,0.2-1.4,0.5-2.1c0.3-0.6,0.8-1.1,1.3-1.4c0.6-0.3,1.3-0.5,2-0.5c0.7,0,1.3,0.2,1.9,0.5c0.5,0.3,1,0.8,1.3,1.3
				c0.3,0.6,0.5,1.2,0.5,1.9C827.1,39,827,39.3,827,39.6z M825.4,37.3c-0.2-0.3-0.5-0.6-0.9-0.8s-0.8-0.3-1.2-0.3
				c-0.6,0-1.2,0.2-1.7,0.6c-0.5,0.4-0.7,1.1-0.8,1.7h4.8C825.7,38.1,825.6,37.7,825.4,37.3z"/>
			<path class="st5" d="M832.9,32.6V43h-1.3V32.6H832.9z"/>
			<path class="st5" d="M834.8,33.8c-0.2-0.2-0.3-0.4-0.2-0.6c0-0.2,0.1-0.4,0.2-0.6c0.2-0.2,0.4-0.3,0.6-0.3s0.4,0.1,0.6,0.3
				s0.2,0.4,0.2,0.6c0,0.2-0.1,0.5-0.2,0.6c-0.2,0.2-0.4,0.3-0.6,0.2C835.2,34,834.9,33.9,834.8,33.8z M836,35.3V43h-1.3v-7.7H836z"
				/>
			<path class="st5" d="M843.8,36c0.6,0.7,0.9,1.5,0.9,2.5V43h-1.3v-4.4c0-0.6-0.2-1.3-0.6-1.8c-0.4-0.4-1-0.6-1.6-0.6
				s-1.2,0.2-1.6,0.6c-0.4,0.5-0.6,1.2-0.5,1.8v4.2h-1.3v-7.7h1.3v1.1c0.2-0.4,0.6-0.7,1-0.9C841.3,34.9,842.8,35.1,843.8,36
				L843.8,36z"/>
			<path class="st5" d="M853.3,39.6h-6.1c0,1.3,1.1,2.4,2.4,2.4c0,0,0,0,0.1,0c0.5,0,1-0.1,1.4-0.4c0.4-0.2,0.6-0.6,0.8-1h1.4
				c-0.2,0.7-0.6,1.4-1.2,1.8c-0.7,0.5-1.5,0.7-2.3,0.7c-0.7,0-1.4-0.1-2-0.5c-0.6-0.3-1-0.8-1.3-1.4c-0.3-0.6-0.5-1.4-0.5-2.1
				c0-0.7,0.1-1.4,0.5-2.1c0.3-0.6,0.8-1.1,1.3-1.4c0.6-0.3,1.3-0.5,2-0.5c0.7,0,1.3,0.2,1.9,0.5c0.5,0.3,1,0.8,1.3,1.3
				c0.3,0.6,0.5,1.2,0.5,1.9C853.4,39.1,853.3,39.3,853.3,39.6z M851.7,37.3c-0.2-0.3-0.5-0.6-0.9-0.8s-0.8-0.3-1.2-0.3
				c-0.6,0-1.2,0.2-1.6,0.6c-0.5,0.5-0.7,1.1-0.8,1.7h4.8C852.1,38.1,851.9,37.7,851.7,37.3L851.7,37.3z"/>
			<path class="st5" d="M860.4,35.6c0.5-0.3,1.1-0.4,1.7-0.4c0.7,0,1.3,0.2,1.9,0.5s1,0.8,1.3,1.4c0.3,0.6,0.5,1.3,0.5,2.1
				c0,0.7-0.2,1.4-0.5,2.1c-0.3,0.6-0.7,1.1-1.3,1.4c-0.6,0.3-1.2,0.5-1.9,0.5c-0.6,0-1.2-0.1-1.7-0.4c-0.5-0.3-0.9-0.6-1.1-1.1v1.4
				H858V32.6h1.3v4.1C859.5,36.2,859.9,35.8,860.4,35.6z M864.1,37.6c-0.2-0.4-0.5-0.8-1-1c-0.4-0.2-0.9-0.3-1.3-0.3
				c-0.5,0-0.9,0.1-1.3,0.3s-0.8,0.6-1,1c-0.5,0.9-0.5,2.1,0,3c0.2,0.4,0.6,0.8,1,1c0.8,0.5,1.8,0.5,2.6,0c0.4-0.2,0.7-0.6,1-1
				c0.2-0.5,0.4-1,0.3-1.5C864.5,38.5,864.3,38,864.1,37.6L864.1,37.6z"/>
			<path class="st5" d="M873.7,35.3l-4.6,11.2h-1.3l1.5-3.7l-3.1-7.6h1.4l2.4,6.2l2.4-6.2L873.7,35.3z"/>
			<path class="st5" d="M877.9,37c0.3-0.6,0.8-1,1.3-1.4c0.6-0.3,1.2-0.5,1.9-0.5c0.6,0,1.2,0.1,1.8,0.4c0.5,0.3,0.8,0.6,1.1,1.1
				v-1.4h1.3v7.7H884v-1.4c-0.3,0.5-0.7,0.9-1.1,1.1c-0.5,0.3-1.1,0.5-1.8,0.4c-0.6,0-1.3-0.2-1.8-0.5c-0.6-0.3-1-0.8-1.3-1.4
				c-0.3-0.6-0.5-1.4-0.5-2.1C877.4,38.4,877.6,37.6,877.9,37z M883.6,37.6c-0.2-0.4-0.5-0.8-0.9-1s-0.9-0.3-1.3-0.3
				c-0.5,0-0.9,0.1-1.3,0.3s-0.7,0.6-0.9,1c-0.2,0.5-0.4,1-0.3,1.5c0,0.5,0.1,1.1,0.3,1.5c0.4,0.8,1.3,1.3,2.2,1.3
				c0.5,0,0.9-0.1,1.3-0.3c0.4-0.2,0.7-0.6,0.9-1c0.2-0.5,0.4-1,0.3-1.5C883.9,38.6,883.8,38,883.6,37.6L883.6,37.6z"/>
			<path class="st5" d="M887,37c0.3-0.6,0.7-1.1,1.3-1.4c0.6-0.3,1.2-0.5,1.9-0.5c0.6,0,1.2,0.1,1.7,0.4c0.5,0.2,0.9,0.6,1.2,1.1v-4
				h1.3V43h-1.3v-1.4c-0.3,0.5-0.7,0.9-1.1,1.1c-0.5,0.3-1.1,0.5-1.7,0.4c-0.7,0-1.3-0.2-1.9-0.5c-0.6-0.3-1-0.8-1.3-1.4
				c-0.3-0.6-0.5-1.4-0.5-2.1C886.5,38.4,886.6,37.6,887,37z M892.6,37.6c-0.2-0.4-0.5-0.8-1-1c-0.4-0.2-0.9-0.3-1.3-0.3
				c-0.5,0-0.9,0.1-1.3,0.3s-0.7,0.6-0.9,1c-0.2,0.5-0.4,1-0.3,1.5c0,0.5,0.1,1.1,0.3,1.5c0.2,0.4,0.5,0.8,0.9,1s0.8,0.3,1.3,0.3
				s0.9-0.1,1.3-0.3c0.4-0.2,0.7-0.6,1-1c0.2-0.5,0.4-1,0.3-1.5C893,38.6,892.9,38,892.6,37.6L892.6,37.6z"/>
			<path class="st5" d="M896,37c0.3-0.6,0.8-1.1,1.3-1.4c1.1-0.6,2.4-0.7,3.5-0.1c0.5,0.2,0.9,0.6,1.2,1.1v-4.1h1.3v10.4h-1.2v-1.4
				c-0.3,0.5-0.7,0.9-1.1,1.1c-0.5,0.3-1.1,0.5-1.7,0.4c-0.7,0-1.3-0.2-1.8-0.5c-0.6-0.3-1-0.8-1.3-1.4c-0.3-0.6-0.5-1.4-0.5-2.1
				C895.6,38.4,895.7,37.6,896,37z M901.7,37.6c-0.4-0.8-1.3-1.3-2.3-1.3c-0.5,0-0.9,0.1-1.3,0.3s-0.7,0.6-0.9,1
				c-0.2,0.5-0.4,1-0.3,1.5c0,0.5,0.1,1.1,0.3,1.5c0.2,0.4,0.5,0.8,0.9,1c1.2,0.7,2.8,0.3,3.5-0.9c0,0,0-0.1,0.1-0.1
				c0.2-0.5,0.4-1,0.3-1.5C902.1,38.6,902,38,901.7,37.6L901.7,37.6z"/>
			<path class="st5" d="M905.1,33.8c-0.2-0.2-0.3-0.4-0.2-0.6c0-0.2,0.1-0.5,0.2-0.6c0.2-0.2,0.4-0.3,0.6-0.3c0.2,0,0.4,0.1,0.6,0.3
				c0.2,0.2,0.3,0.4,0.2,0.6c0,0.2-0.1,0.5-0.2,0.6c-0.2,0.2-0.4,0.3-0.6,0.2C905.5,34,905.3,33.9,905.1,33.8z M906.4,35.3V43h-1.3
				v-7.7H906.4z"/>
			<path class="st5" d="M914.2,36c0.6,0.7,0.9,1.5,0.9,2.5V43h-1.3v-4.4c0-0.6-0.2-1.3-0.6-1.8c-0.4-0.4-1-0.6-1.6-0.6
				s-1.2,0.2-1.6,0.6c-0.4,0.5-0.6,1.2-0.6,1.8v4.2h-1.3v-7.7h1.3v1.1c0.2-0.4,0.6-0.7,1-0.9C911.7,34.9,913.1,35.1,914.2,36
				L914.2,36z"/>
			<path class="st5" d="M921.6,35.6c0.5,0.3,0.8,0.6,1.1,1.1v-1.4h1.3v7.8c0,0.7-0.1,1.3-0.5,1.9c-0.3,0.5-0.7,1-1.3,1.3
				s-1.3,0.5-1.9,0.5c-0.9,0-1.8-0.2-2.5-0.7c-0.7-0.4-1.1-1.2-1.2-1.9h1.3c0.1,0.5,0.5,0.9,0.9,1.1c0.5,0.3,1,0.4,1.6,0.4
				s1.3-0.2,1.7-0.6c0.5-0.5,0.7-1.2,0.7-1.8v-1.7c-0.3,0.5-0.7,0.8-1.1,1.1c-0.5,0.3-1.1,0.5-1.7,0.4c-0.7,0-1.3-0.2-1.8-0.5
				c-0.6-0.3-1-0.8-1.3-1.4c-0.3-0.6-0.5-1.4-0.5-2.1c0-0.7,0.1-1.4,0.5-2.1c0.3-0.6,0.8-1.1,1.3-1.4C919.2,35,920.5,35,921.6,35.6
				L921.6,35.6z M922.4,37.6c-0.2-0.4-0.5-0.8-1-1c-0.4-0.2-0.8-0.3-1.3-0.3s-0.9,0.1-1.3,0.3c-0.4,0.2-0.7,0.6-0.9,1
				c-0.2,0.5-0.4,1-0.3,1.5c0,0.5,0.1,1.1,0.3,1.5c0.2,0.4,0.5,0.8,0.9,1s0.9,0.3,1.3,0.3c0.5,0,0.9-0.1,1.3-0.3s0.7-0.6,1-1
				c0.2-0.5,0.4-1,0.3-1.5C922.8,38.6,922.6,38,922.4,37.6L922.4,37.6z"/>
			<path class="st5" d="M930.7,36.3v4.5c0,0.3,0.1,0.6,0.2,0.8c0.2,0.2,0.5,0.3,0.8,0.2h0.9v1.1h-1.1c-0.6,0-1.1-0.1-1.6-0.5
				c-0.4-0.4-0.6-1-0.5-1.6v-4.5h-1v-1h1v-2h1.3v1.9h2v1L930.7,36.3z"/>
			<path class="st5" d="M939.2,35.5c0.5,0.3,0.8,0.6,1.1,1.1c0.3,0.6,0.4,1.2,0.4,1.8v4.5h-1.3v-4.3c0-0.6-0.2-1.3-0.6-1.8
				c-0.4-0.4-1-0.6-1.6-0.6s-1.2,0.2-1.6,0.6c-0.4,0.5-0.7,1.2-0.6,1.8v4.2h-1.3V32.6h1.3v3.8c0.2-0.4,0.6-0.7,1-0.9
				C937.1,35,938.2,35,939.2,35.5L939.2,35.5z"/>
			<path class="st5" d="M949.4,39.6h-6.1c0,0.7,0.3,1.3,0.8,1.8c0.5,0.4,1.1,0.7,1.7,0.6c0.5,0,1-0.1,1.4-0.4c0.4-0.2,0.6-0.6,0.8-1
				h1.4c-0.2,0.7-0.6,1.4-1.2,1.8c-0.7,0.5-1.5,0.7-2.3,0.7c-0.7,0-1.4-0.1-2-0.5c-0.6-0.3-1-0.8-1.3-1.4c-0.6-1.3-0.6-2.9,0-4.2
				c0.3-0.6,0.8-1.1,1.3-1.4c0.6-0.3,1.3-0.5,2-0.5c0.7,0,1.3,0.2,1.9,0.5c0.5,0.3,1,0.8,1.3,1.3c0.3,0.6,0.5,1.2,0.5,1.9
				C949.4,39,949.4,39.3,949.4,39.6z M947.8,37.3c-0.2-0.3-0.5-0.6-0.9-0.8s-0.8-0.3-1.2-0.3c-0.6,0-1.2,0.2-1.6,0.6
				c-0.5,0.4-0.8,1.1-0.8,1.7h4.8C948.1,38.1,948,37.7,947.8,37.3L947.8,37.3z"/>
			<path class="st5" d="M955.2,42.8c-0.4-0.2-0.8-0.5-1.1-0.8c-0.3-0.4-0.4-0.8-0.5-1.2h1.3c0,0.4,0.2,0.7,0.5,0.9
				c0.4,0.3,0.8,0.4,1.3,0.4c0.4,0,0.8-0.1,1.1-0.3c0.3-0.2,0.4-0.5,0.4-0.8s-0.2-0.6-0.4-0.8c-0.4-0.2-0.9-0.4-1.4-0.5
				s-0.9-0.3-1.4-0.5c-0.4-0.2-0.7-0.4-0.9-0.7c-0.3-0.3-0.4-0.8-0.4-1.2s0.1-0.8,0.3-1.1c0.3-0.3,0.6-0.6,1-0.8
				c0.5-0.2,1-0.3,1.5-0.3c0.7,0,1.5,0.2,2.1,0.6c0.5,0.4,0.8,1.1,0.8,1.8h-1.3c0-0.4-0.2-0.8-0.5-1c-0.3-0.3-0.8-0.4-1.2-0.4
				s-0.8,0.1-1.1,0.3c-0.3,0.2-0.4,0.5-0.4,0.8c0,0.2,0.1,0.5,0.2,0.6c0.2,0.2,0.4,0.3,0.6,0.4c0.3,0.1,0.7,0.2,1,0.3
				c0.5,0.1,0.9,0.3,1.3,0.4c0.3,0.1,0.6,0.4,0.9,0.7s0.4,0.7,0.4,1.1c0,0.4-0.1,0.8-0.3,1.1c-0.3,0.4-0.6,0.6-1,0.8
				c-0.5,0.2-1,0.3-1.5,0.3C956.2,43,955.7,42.9,955.2,42.8z"/>
			<path class="st5" d="M966.3,35.5c0.5,0.3,0.8,0.6,1.1,1.1c0.3,0.6,0.4,1.2,0.4,1.8v4.5h-1.3v-4.3c0-0.6-0.2-1.3-0.6-1.8
				c-0.9-0.8-2.3-0.8-3.2,0c-0.4,0.5-0.6,1.2-0.6,1.8v4.2h-1.3V32.6h1.3v3.8c0.3-0.4,0.6-0.7,1-0.9C964.3,35,965.4,35,966.3,35.5
				L966.3,35.5z"/>
			<path class="st5" d="M969.5,37c0.3-0.6,0.8-1.1,1.3-1.4c0.6-0.3,1.2-0.5,1.8-0.5s1.2,0.1,1.8,0.4c0.5,0.3,0.8,0.6,1.1,1.1v-1.4
				h1.3v7.7h-1.3v-1.4c-0.3,0.5-0.7,0.9-1.1,1.1c-0.5,0.3-1.1,0.5-1.7,0.4c-0.7,0-1.3-0.2-1.8-0.5c-0.6-0.3-1-0.8-1.3-1.4
				c-0.3-0.6-0.5-1.4-0.5-2.1C969,38.4,969.2,37.6,969.5,37z M975.2,37.6c-0.2-0.4-0.6-0.8-1-1s-0.9-0.3-1.3-0.3
				c-0.5,0-0.9,0.1-1.3,0.3s-0.7,0.6-0.9,1c-0.2,0.5-0.4,1-0.3,1.5c0,0.5,0.1,1.1,0.3,1.5c0.2,0.4,0.5,0.8,0.9,1s0.8,0.3,1.3,0.3
				s0.9-0.1,1.3-0.3c0.4-0.2,0.8-0.6,1-1c0.2-0.5,0.4-1,0.3-1.5C975.6,38.6,975.5,38,975.2,37.6L975.2,37.6z"/>
			<path class="st5" d="M980.8,35.5c0.5-0.3,1-0.4,1.5-0.4v1.3H982c-1.4,0-2.1,0.8-2.1,2.3v4.2h-1.3v-7.7h1.3v1.2
				C980.1,36.1,980.4,35.7,980.8,35.5z"/>
			<path class="st5" d="M990.4,39.6h-6.1c0,0.7,0.3,1.3,0.8,1.8c0.5,0.4,1.1,0.7,1.7,0.6c0.5,0,0.9-0.1,1.3-0.4
				c0.4-0.2,0.6-0.6,0.8-1h1.4c-0.2,0.7-0.6,1.4-1.2,1.8c-0.7,0.5-1.5,0.7-2.3,0.7c-0.7,0-1.4-0.1-2-0.5c-0.6-0.3-1-0.8-1.3-1.4
				c-0.6-1.3-0.6-2.9,0-4.2c0.3-0.6,0.8-1.1,1.3-1.4c0.6-0.3,1.3-0.5,2-0.5c0.7,0,1.3,0.2,1.9,0.5c0.5,0.3,1,0.8,1.3,1.3
				c0.3,0.6,0.5,1.2,0.5,1.9C990.4,39,990.4,39.3,990.4,39.6z M988.8,37.3c-0.2-0.3-0.5-0.6-0.9-0.8s-0.8-0.3-1.2-0.3
				c-0.6,0-1.2,0.2-1.6,0.6c-0.5,0.4-0.8,1.1-0.8,1.7h4.8C989.1,38.1,989,37.7,988.8,37.3z"/>
			<path class="st5" d="M991.7,37c0.3-0.6,0.8-1.1,1.3-1.4c1.1-0.6,2.4-0.7,3.5-0.1c0.5,0.2,0.9,0.6,1.2,1.1v-4h1.3V43h-1.3v-1.4
				c-0.3,0.5-0.7,0.9-1.1,1.1c-0.5,0.3-1.1,0.5-1.7,0.4c-0.7,0-1.3-0.2-1.8-0.5c-0.6-0.3-1-0.8-1.3-1.4c-0.3-0.6-0.5-1.4-0.5-2.1
				C991.2,38.4,991.4,37.6,991.7,37z M997.4,37.6c-0.5-0.8-1.3-1.4-2.3-1.3c-0.5,0-0.9,0.1-1.3,0.3c-0.4,0.2-0.7,0.6-0.9,1
				c-0.2,0.5-0.4,1-0.3,1.5c0,0.5,0.1,1.1,0.3,1.5c0.2,0.4,0.5,0.8,0.9,1c1.2,0.7,2.8,0.3,3.5-0.9c0,0,0-0.1,0.1-0.1
				c0.2-0.5,0.4-1,0.3-1.5C997.7,38.6,997.6,38.1,997.4,37.6L997.4,37.6z"/>
			<path class="st5" d="M1007.3,36.3h-1.6v6.6h-1.3v-6.6h-1v-1h1v-0.5c-0.1-0.7,0.2-1.4,0.7-1.9c0.6-0.5,1.4-0.7,2.1-0.6v1.1
				c-0.4,0-0.8,0.1-1.2,0.3c-0.3,0.3-0.4,0.7-0.3,1.1v0.5h1.6V36.3z"/>
			<path class="st5" d="M1009.6,32.6V43h-1.3V32.6H1009.6z"/>
			<path class="st5" d="M1011.4,33.8c-0.2-0.2-0.3-0.4-0.2-0.6c0-0.2,0.1-0.5,0.2-0.6c0.2-0.2,0.4-0.3,0.6-0.3s0.4,0.1,0.6,0.3
				s0.3,0.4,0.2,0.6c0,0.2-0.1,0.5-0.2,0.6s-0.3,0.2-0.6,0.2C1011.9,34,1011.6,33.9,1011.4,33.8z M1012.7,35.3V43h-1.3v-7.7H1012.7z
				"/>
			<path class="st5" d="M1019.4,35.6c0.5,0.3,0.8,0.6,1.1,1.1v-1.4h1.3v7.8c0,0.7-0.1,1.3-0.5,1.9c-0.3,0.5-0.7,1-1.3,1.3
				s-1.3,0.5-1.9,0.5c-0.9,0-1.8-0.2-2.5-0.7c-0.7-0.4-1.1-1.2-1.2-1.9h1.3c0.1,0.5,0.5,0.9,0.9,1.1c0.5,0.3,1,0.4,1.6,0.4
				s1.3-0.2,1.7-0.7c0.5-0.5,0.7-1.2,0.7-1.8v-1.6c-0.3,0.5-0.7,0.9-1.1,1.1c-0.5,0.3-1.1,0.5-1.7,0.4c-0.7,0-1.3-0.2-1.9-0.5
				c-0.6-0.3-1-0.8-1.3-1.4c-0.3-0.6-0.5-1.4-0.5-2.1c0-0.7,0.1-1.4,0.5-2.1c0.6-1.2,1.8-1.9,3.2-1.9
				C1018.2,35.1,1018.8,35.3,1019.4,35.6z M1020.1,37.6c-0.2-0.4-0.5-0.8-0.9-1c-0.8-0.4-1.8-0.4-2.6,0c-0.4,0.2-0.7,0.6-0.9,1
				c-0.2,0.5-0.4,1-0.3,1.5c0,0.5,0.1,1.1,0.3,1.5c0.2,0.4,0.5,0.8,0.9,1s0.8,0.3,1.3,0.3s0.9-0.1,1.3-0.3c0.4-0.2,0.7-0.6,0.9-1
				c0.2-0.5,0.4-1,0.3-1.5C1020.5,38.6,1020.4,38,1020.1,37.6L1020.1,37.6z"/>
			<path class="st5" d="M1028.9,35.5c0.5,0.3,0.9,0.6,1.1,1.1c0.3,0.6,0.4,1.2,0.4,1.8v4.5h-1.3v-4.3c0-0.6-0.2-1.3-0.6-1.8
				c-0.4-0.4-1-0.6-1.6-0.6s-1.2,0.2-1.6,0.6c-0.4,0.5-0.6,1.2-0.6,1.8v4.2h-1.3V32.6h1.3v3.8c0.2-0.4,0.6-0.7,1-0.9
				C1026.8,35,1027.9,35,1028.9,35.5L1028.9,35.5z"/>
			<path class="st5" d="M1033.7,36.3v4.5c0,0.3,0.1,0.6,0.2,0.8c0.2,0.2,0.5,0.3,0.8,0.2h0.9v1.1h-1.2c-0.6,0-1.1-0.1-1.6-0.5
				c-0.4-0.4-0.6-1-0.5-1.6v-4.5h-1v-1h1v-2h1.3v1.9h2v1L1033.7,36.3z"/>
			<path class="st5" d="M1041.3,42.8c-0.4-0.2-0.8-0.5-1.1-0.8c-0.3-0.4-0.4-0.8-0.5-1.2h1.4c0,0.4,0.2,0.7,0.5,0.9
				c0.4,0.3,0.8,0.4,1.3,0.4c0.4,0,0.8-0.1,1.2-0.3c0.3-0.2,0.4-0.5,0.4-0.8s-0.2-0.6-0.5-0.8c-0.4-0.2-0.9-0.4-1.4-0.5
				s-0.9-0.3-1.4-0.5c-0.4-0.2-0.7-0.4-0.9-0.7c-0.3-0.3-0.4-0.8-0.4-1.2s0.1-0.8,0.3-1.1c0.3-0.3,0.6-0.6,1-0.8
				c0.5-0.2,1-0.3,1.5-0.3c0.7,0,1.5,0.2,2.1,0.6c0.5,0.4,0.8,1.1,0.8,1.8h-1.3c0-0.4-0.2-0.8-0.5-1c-0.3-0.3-0.8-0.4-1.2-0.4
				s-0.8,0.1-1.1,0.3c-0.3,0.2-0.4,0.5-0.4,0.8c0,0.2,0.1,0.5,0.2,0.6c0.2,0.2,0.4,0.3,0.6,0.4c0.3,0.1,0.7,0.2,1,0.3
				c0.5,0.1,0.9,0.3,1.3,0.4c0.3,0.1,0.7,0.4,0.9,0.7c0.3,0.3,0.4,0.7,0.4,1.1c0,0.4-0.1,0.8-0.3,1.1c-0.3,0.3-0.6,0.6-1,0.8
				c-0.5,0.2-1,0.3-1.5,0.3C1042.3,43.1,1041.8,43,1041.3,42.8z"/>
			<path class="st5" d="M1054,39.6h-6.1c0,0.7,0.3,1.3,0.8,1.8c0.5,0.4,1.1,0.7,1.7,0.6c0.5,0,1-0.1,1.4-0.4c0.4-0.2,0.6-0.6,0.8-1
				h1.4c-0.2,0.7-0.6,1.4-1.2,1.8c-0.7,0.5-1.5,0.7-2.3,0.7c-0.7,0-1.4-0.1-2-0.5c-0.6-0.3-1-0.8-1.3-1.4c-0.3-0.6-0.5-1.4-0.5-2.1
				c0-0.7,0.2-1.4,0.5-2.1c0.3-0.6,0.8-1.1,1.3-1.4c0.6-0.3,1.3-0.5,2-0.5c0.7,0,1.3,0.2,1.9,0.5c0.5,0.3,1,0.8,1.3,1.3
				c0.3,0.6,0.5,1.2,0.5,1.9C1054.1,39.1,1054.1,39.3,1054,39.6z M1052.4,37.3c-0.2-0.3-0.5-0.6-0.9-0.8s-0.8-0.3-1.2-0.3
				c-0.6,0-1.2,0.2-1.7,0.6c-0.5,0.4-0.7,1.1-0.8,1.7h4.8C1052.8,38.1,1052.6,37.7,1052.4,37.3L1052.4,37.3z"/>
			<path class="st5" d="M1057.6,35.5c0.5-0.3,1-0.4,1.5-0.4v1.3h-0.3c-1.4,0-2.1,0.8-2.1,2.3v4.2h-1.3v-7.7h1.3v1.2
				C1056.8,36.1,1057.2,35.7,1057.6,35.5z"/>
			<path class="st5" d="M1063,41.8l2.4-6.5h1.4l-3,7.7h-1.5l-3-7.7h1.4L1063,41.8z"/>
			<path class="st5" d="M1067.7,33.8c-0.2-0.2-0.3-0.4-0.2-0.6c0-0.2,0.1-0.5,0.2-0.6c0.2-0.2,0.4-0.3,0.6-0.3
				c0.2,0,0.4,0.1,0.6,0.3c0.2,0.2,0.2,0.4,0.2,0.6c0,0.2-0.1,0.5-0.2,0.6c-0.2,0.2-0.4,0.3-0.6,0.2
				C1068.1,34,1067.8,33.9,1067.7,33.8z M1068.9,35.3V43h-1.3v-7.7H1068.9z"/>
			<path class="st5" d="M1070.7,37c0.3-0.6,0.8-1.1,1.3-1.4c1.4-0.7,3-0.6,4.3,0.2c0.6,0.5,1.1,1.1,1.2,1.9h-1.4
				c-0.1-0.4-0.4-0.8-0.8-1.1c-0.4-0.3-0.9-0.4-1.4-0.4c-0.7,0-1.3,0.2-1.8,0.8s-0.7,1.4-0.7,2.1c0,0.8,0.2,1.5,0.7,2.1
				c0.4,0.5,1.1,0.8,1.8,0.8c0.5,0,1-0.1,1.4-0.4c0.4-0.3,0.7-0.7,0.8-1.1h1.4c-0.2,0.8-0.6,1.4-1.2,1.9c-0.7,0.5-1.5,0.7-2.3,0.7
				c-0.7,0-1.3-0.2-1.9-0.5c-0.6-0.3-1-0.8-1.3-1.4c-0.3-0.6-0.5-1.4-0.5-2.1C1070.2,38.4,1070.4,37.6,1070.7,37z"/>
			<path class="st5" d="M1085.8,39.6h-6.1c0,0.7,0.3,1.3,0.8,1.8c0.5,0.4,1.1,0.7,1.7,0.6c0.5,0,1-0.1,1.4-0.4
				c0.4-0.2,0.6-0.6,0.8-1h1.4c-0.2,0.7-0.6,1.4-1.2,1.8c-0.7,0.5-1.5,0.7-2.3,0.7c-0.7,0-1.4-0.2-2-0.5s-1-0.8-1.3-1.4
				c-0.3-0.6-0.5-1.4-0.5-2.1c0-0.7,0.2-1.5,0.5-2.1c0.3-0.6,0.7-1,1.3-1.4c0.6-0.3,1.3-0.5,2-0.5c0.7,0,1.3,0.2,1.9,0.5
				s1,0.8,1.3,1.3c0.3,0.6,0.5,1.2,0.5,1.9C1085.8,39.1,1085.8,39.3,1085.8,39.6z M1084.2,37.3c-0.2-0.3-0.5-0.6-0.9-0.8
				s-0.8-0.3-1.2-0.3c-0.6,0-1.2,0.2-1.7,0.6c-0.5,0.5-0.7,1.1-0.8,1.7h4.8C1084.5,38.1,1084.4,37.7,1084.2,37.3L1084.2,37.3z"/>
			<path class="st5" d="M1088.4,41.2l-1.6,3.8h-0.8l1-3.8H1088.4z"/>
			<path class="st5" d="M1098.2,35.5c0.5,0.2,0.9,0.6,1.1,1.1c0.3,0.6,0.4,1.2,0.4,1.8v4.5h-1.3v-4.3c0-0.6-0.2-1.3-0.6-1.8
				c-0.9-0.8-2.3-0.8-3.2,0c-0.4,0.5-0.6,1.2-0.6,1.8v4.2h-1.3V32.6h1.3v3.8c0.2-0.4,0.6-0.7,1-0.9C1096.1,35,1097.2,35,1098.2,35.5
				L1098.2,35.5z"/>
			<path class="st5" d="M1102.8,42.6c-0.6-0.3-1.1-0.8-1.4-1.4c-0.3-0.6-0.5-1.4-0.5-2.1c0-0.7,0.2-1.4,0.5-2.1
				c0.3-0.6,0.8-1.1,1.4-1.4c1.2-0.6,2.7-0.6,4,0c0.6,0.3,1.1,0.8,1.4,1.4c0.7,1.3,0.7,2.9,0,4.2c-0.3,0.6-0.8,1.1-1.4,1.4
				c-0.6,0.3-1.3,0.5-2,0.5C1104,43.1,1103.4,42.9,1102.8,42.6z M1106,41.6c0.4-0.2,0.8-0.6,1-1c0.3-0.5,0.4-1,0.4-1.6
				c0-0.5-0.1-1.1-0.4-1.6c-0.2-0.4-0.5-0.8-1-1c-0.8-0.4-1.8-0.4-2.6,0c-0.4,0.2-0.7,0.6-0.9,1c-0.2,0.5-0.4,1-0.3,1.6
				c0,0.5,0.1,1.1,0.3,1.6c0.2,0.4,0.5,0.8,0.9,1s0.8,0.3,1.3,0.3C1105.2,41.9,1105.6,41.8,1106,41.6L1106,41.6z"/>
			<path class="st5" d="M1120.2,35.3l-2.4,7.7h-1.3l-1.8-6.1l-1.8,6.1h-1.3l-2.4-7.7h1.3l1.8,6.4l1.9-6.4h1.3l1.9,6.5l1.7-6.5
				H1120.2z"/>
			<path class="st5" d="M1128,39.6h-6.1c0,0.7,0.3,1.3,0.8,1.8c0.5,0.4,1.1,0.6,1.7,0.6c0.5,0,1-0.1,1.4-0.4c0.4-0.2,0.6-0.6,0.8-1
				h1.4c-0.2,0.7-0.6,1.4-1.2,1.8c-0.7,0.5-1.5,0.7-2.3,0.7c-0.7,0-1.4-0.1-2-0.5c-0.5-0.3-1-0.8-1.3-1.4c-0.3-0.6-0.5-1.4-0.5-2.1
				c0-0.7,0.1-1.4,0.5-2.1c0.3-0.6,0.8-1.1,1.3-1.4c0.6-0.3,1.3-0.5,2-0.5c0.7,0,1.3,0.2,1.9,0.5c0.5,0.3,1,0.8,1.3,1.3
				c0.3,0.6,0.5,1.2,0.5,1.9C1128.1,39.1,1128,39.3,1128,39.6z M1126.4,37.3c-0.2-0.3-0.5-0.6-0.9-0.8s-0.8-0.3-1.2-0.3
				c-0.6,0-1.2,0.2-1.6,0.6c-0.5,0.5-0.7,1.1-0.8,1.7h4.8C1126.7,38.1,1126.6,37.7,1126.4,37.3L1126.4,37.3z"/>
			<path class="st5" d="M1132.2,41.8l2.4-6.5h1.3l-3,7.7h-1.5l-3-7.7h1.4L1132.2,41.8z"/>
			<path class="st5" d="M1143.8,39.6h-6.1c0,0.7,0.3,1.3,0.8,1.8c0.5,0.4,1.1,0.7,1.7,0.6c0.5,0,1-0.1,1.4-0.4
				c0.4-0.2,0.6-0.6,0.8-1h1.4c-0.2,0.7-0.6,1.4-1.2,1.8c-0.7,0.5-1.5,0.7-2.3,0.7c-0.7,0-1.4-0.1-2-0.5c-0.6-0.3-1-0.8-1.3-1.4
				c-0.3-0.6-0.5-1.4-0.5-2.1c0-0.7,0.1-1.4,0.5-2.1c0.3-0.6,0.8-1.1,1.4-1.4c0.6-0.3,1.3-0.5,2-0.5c0.7,0,1.3,0.2,1.9,0.5
				c0.5,0.3,1,0.8,1.3,1.3c0.3,0.6,0.5,1.2,0.5,1.9C1143.8,39.1,1143.8,39.3,1143.8,39.6z M1142.2,37.3c-0.2-0.3-0.5-0.6-0.9-0.8
				s-0.8-0.3-1.2-0.3c-0.6,0-1.2,0.2-1.6,0.6c-0.5,0.5-0.7,1.1-0.8,1.7h4.8C1142.5,38.1,1142.4,37.7,1142.2,37.3L1142.2,37.3z"/>
			<path class="st5" d="M1147.3,35.5c0.5-0.3,1-0.4,1.5-0.4v1.3h-0.3c-1.4,0-2.2,0.8-2.2,2.3v4.2h-1.2v-7.7h1.3v1.2
				C1146.6,36.1,1146.9,35.7,1147.3,35.5z"/>
			<path class="st5" d="M1151.2,41.2l-1.6,3.8h-0.9l1-3.8H1151.2z"/>
			<path class="st5" d="M1157.2,36.3v4.5c0,0.3,0.1,0.6,0.2,0.8c0.2,0.2,0.5,0.3,0.8,0.2h0.9v1.1h-1.2c-0.6,0-1.1-0.1-1.6-0.5
				c-0.4-0.4-0.6-1-0.5-1.6v-4.5h-1v-1h1v-2h1.3v1.9h2v1L1157.2,36.3z"/>
			<path class="st5" d="M1165.7,35.5c0.5,0.3,0.8,0.6,1.1,1.1c0.3,0.6,0.4,1.2,0.4,1.8v4.5h-1.3v-4.3c0-0.6-0.2-1.3-0.6-1.8
				c-0.9-0.8-2.3-0.8-3.2,0c-0.4,0.5-0.6,1.2-0.6,1.8v4.2h-1.3V32.6h1.3v3.8c0.2-0.4,0.6-0.7,1-0.9C1163.6,35,1164.7,35,1165.7,35.5
				L1165.7,35.5z"/>
			<path class="st5" d="M1175.9,39.6h-6.1c0,0.7,0.3,1.3,0.8,1.8c0.5,0.4,1.1,0.7,1.7,0.6c0.5,0,1-0.1,1.4-0.4
				c0.4-0.2,0.6-0.6,0.8-1h1.4c-0.2,0.7-0.6,1.4-1.2,1.8c-0.7,0.5-1.5,0.7-2.3,0.7c-0.7,0-1.4-0.1-2-0.5c-0.6-0.3-1-0.8-1.3-1.4
				c-0.3-0.6-0.5-1.4-0.5-2.1c0-0.7,0.1-1.4,0.5-2.1c0.3-0.6,0.8-1.1,1.3-1.4c0.6-0.3,1.3-0.5,2-0.5c0.7,0,1.3,0.2,1.9,0.5
				c0.5,0.3,1,0.8,1.3,1.3c0.3,0.6,0.5,1.2,0.5,1.9C1175.9,39,1175.9,39.3,1175.9,39.6z M1174.3,37.3c-0.2-0.3-0.5-0.6-0.9-0.8
				s-0.8-0.3-1.2-0.3c-0.6,0-1.2,0.2-1.7,0.6c-0.5,0.4-0.7,1.1-0.8,1.7h4.8C1174.6,38.1,1174.5,37.7,1174.3,37.3L1174.3,37.3z"/>
			<path class="st5" d="M1180.5,37c0.3-0.6,0.8-1.1,1.3-1.4c1.4-0.7,3-0.6,4.3,0.2c0.6,0.5,1.1,1.1,1.2,1.9h-1.4
				c-0.1-0.4-0.4-0.8-0.8-1.1s-0.9-0.4-1.4-0.4c-0.7,0-1.3,0.3-1.8,0.8c-0.5,0.6-0.7,1.4-0.7,2.1c-0.1,0.8,0.2,1.5,0.7,2.1
				c0.4,0.5,1.1,0.8,1.8,0.8c0.5,0,1-0.1,1.4-0.4c0.4-0.3,0.7-0.7,0.8-1.1h1.4c-0.2,0.8-0.6,1.4-1.3,1.9c-0.7,0.5-1.5,0.7-2.3,0.7
				c-0.7,0-1.3-0.2-1.9-0.5s-1-0.8-1.3-1.4c-0.3-0.6-0.5-1.4-0.5-2.1S1180.2,37.6,1180.5,37z"/>
			<path class="st5" d="M1195.4,35.3V43h-1.3v-1.1c-0.2,0.4-0.6,0.7-1,0.9s-0.9,0.3-1.4,0.3c-0.6,0-1.1-0.1-1.6-0.4
				c-0.5-0.3-0.9-0.6-1.1-1.1c-0.3-0.6-0.4-1.2-0.4-1.8v-4.5h1.3v4.3c0,0.6,0.2,1.3,0.6,1.8c0.4,0.4,1,0.6,1.6,0.6s1.2-0.2,1.6-0.6
				c0.4-0.5,0.6-1.2,0.6-1.8v-4.2h1.1V35.3z"/>
			<path class="st5" d="M1199.4,35.5c0.5-0.3,1-0.4,1.5-0.4v1.3h-0.3c-1.4,0-2.1,0.8-2.1,2.3v4.2h-1.3v-7.7h1.3v1.2
				C1198.7,36.1,1199,35.7,1199.4,35.5z"/>
			<path class="st5" d="M1204.3,35.5c0.5-0.3,1-0.4,1.5-0.4v1.3h-0.3c-1.4,0-2.1,0.8-2.1,2.3v4.2h-1.2v-7.7h1.3v1.2
				C1203.6,36.1,1203.9,35.7,1204.3,35.5z"/>
			<path class="st5" d="M1213.8,39.6h-6.1c0,0.7,0.3,1.3,0.8,1.8c0.5,0.4,1.1,0.7,1.7,0.6c0.5,0,1-0.1,1.4-0.4
				c0.4-0.2,0.6-0.6,0.8-1h1.4c-0.2,0.7-0.6,1.4-1.2,1.8c-0.7,0.5-1.5,0.7-2.3,0.7c-0.7,0-1.4-0.1-2-0.5c-0.6-0.3-1-0.8-1.3-1.4
				c-0.3-0.6-0.5-1.4-0.5-2.1c0-0.7,0.1-1.4,0.5-2.1c0.3-0.6,0.8-1.1,1.3-1.4c0.6-0.3,1.3-0.5,2-0.5c0.7,0,1.3,0.2,1.9,0.5
				c0.5,0.3,1,0.8,1.3,1.3c0.3,0.6,0.5,1.2,0.5,1.9C1213.9,39.1,1213.8,39.3,1213.8,39.6z M1212.2,37.3c-0.2-0.3-0.5-0.6-0.9-0.8
				s-0.8-0.3-1.2-0.3c-0.6,0-1.2,0.2-1.7,0.6c-0.5,0.4-0.7,1.1-0.8,1.7h4.8C1212.6,38.1,1212.5,37.7,1212.2,37.3L1212.2,37.3z"/>
			<path class="st5" d="M1221.2,36c0.6,0.7,0.9,1.5,0.9,2.5V43h-1.3v-4.4c0-0.6-0.2-1.3-0.6-1.8c-0.4-0.4-1-0.6-1.6-0.6
				s-1.2,0.2-1.6,0.6c-0.4,0.5-0.6,1.2-0.6,1.8v4.2h-1.3v-7.7h1.3v1.1c0.2-0.4,0.6-0.7,1-0.9s0.9-0.3,1.4-0.3
				C1219.7,35.1,1220.6,35.4,1221.2,36z"/>
			<path class="st5" d="M1225.3,36.3v4.5c0,0.3,0.1,0.6,0.2,0.8c0.2,0.2,0.5,0.3,0.8,0.2h0.9v1.1h-1.2c-0.6,0-1.1-0.1-1.6-0.5
				c-0.4-0.4-0.6-1-0.5-1.6v-4.5h-1v-1h1v-2h1.3v1.9h2v1L1225.3,36.3z"/>
			<path class="st5" d="M1238.6,35.3V43h-1.3v-1.1c-0.2,0.4-0.6,0.7-1,0.9s-0.9,0.3-1.4,0.3c-0.6,0-1.1-0.1-1.6-0.4
				c-0.5-0.3-0.9-0.6-1.1-1.1c-0.3-0.6-0.4-1.2-0.4-1.8v-4.5h1.3v4.3c0,0.6,0.2,1.3,0.6,1.8c0.9,0.8,2.3,0.8,3.2,0
				c0.4-0.5,0.6-1.2,0.6-1.8v-4.2h1.1V35.3z"/>
			<path class="st5" d="M1241.5,42.8c-0.4-0.2-0.8-0.5-1.1-0.8c-0.3-0.4-0.4-0.8-0.4-1.2h1.3c0,0.4,0.2,0.7,0.5,0.9
				c0.4,0.3,0.8,0.4,1.3,0.4c0.4,0,0.8-0.1,1.2-0.3c0.3-0.2,0.4-0.5,0.4-0.8s-0.2-0.6-0.4-0.8c-0.4-0.2-0.9-0.4-1.4-0.5
				s-0.9-0.3-1.4-0.5c-0.4-0.2-0.7-0.4-0.9-0.7c-0.3-0.3-0.4-0.8-0.4-1.2s0.1-0.8,0.3-1.1c0.3-0.3,0.6-0.6,1-0.8
				c0.5-0.2,1-0.3,1.5-0.3c0.7,0,1.4,0.2,2,0.6c0.5,0.4,0.8,1.1,0.8,1.8h-1.3c0-0.4-0.2-0.8-0.5-1c-0.3-0.3-0.8-0.4-1.2-0.4
				c-0.4,0-0.8,0.1-1.1,0.3c-0.3,0.2-0.4,0.5-0.4,0.8c0,0.2,0.1,0.5,0.2,0.6c0.2,0.2,0.4,0.3,0.6,0.4c0.3,0.1,0.7,0.2,1,0.3
				c0.5,0.1,0.9,0.3,1.3,0.4c0.3,0.1,0.6,0.4,0.9,0.7s0.4,0.7,0.4,1.1c0,0.4-0.1,0.8-0.3,1.1c-0.3,0.4-0.6,0.6-1,0.8
				c-0.5,0.2-1,0.3-1.5,0.3C1242.5,43,1242,43,1241.5,42.8z"/>
			<path class="st5" d="M1254.2,39.6h-6.1c0,0.7,0.3,1.3,0.8,1.8c0.5,0.4,1.1,0.7,1.7,0.6c0.5,0,1-0.1,1.4-0.4
				c0.4-0.2,0.6-0.6,0.8-1h1.3c-0.2,0.7-0.6,1.4-1.2,1.8c-0.7,0.5-1.5,0.7-2.3,0.7c-0.7,0-1.4-0.1-2-0.5c-0.6-0.3-1-0.8-1.3-1.4
				c-0.3-0.6-0.5-1.4-0.5-2.1c0-0.7,0.1-1.4,0.5-2.1c0.3-0.6,0.8-1.1,1.3-1.4c0.6-0.3,1.3-0.5,2-0.5s1.3,0.2,1.9,0.5s1,0.8,1.3,1.3
				c0.3,0.6,0.5,1.2,0.4,1.9C1254.2,39.1,1254.2,39.3,1254.2,39.6z M1252.6,37.3c-0.2-0.3-0.5-0.6-0.9-0.8s-0.8-0.3-1.2-0.3
				c-0.6,0-1.2,0.2-1.7,0.6c-0.5,0.5-0.7,1.1-0.8,1.7h4.8C1253,38.1,1252.8,37.7,1252.6,37.3z"/>
			<path class="st5" d="M1257.8,35.5c0.5-0.3,1-0.4,1.5-0.4v1.3h-0.3c-1.4,0-2.1,0.8-2.1,2.3v4.2h-1.3v-7.7h1.3v1.2
				C1257,36.1,1257.4,35.7,1257.8,35.5z"/>
			<path class="st5" d="M1270.7,39.6h-6.1c0,0.7,0.3,1.3,0.8,1.8c0.5,0.4,1.1,0.7,1.8,0.6c0.5,0,1-0.1,1.4-0.4
				c0.4-0.2,0.6-0.6,0.8-1h1.4c-0.2,0.7-0.6,1.4-1.2,1.8c-0.7,0.5-1.5,0.7-2.3,0.7c-0.7,0-1.4-0.1-2-0.5c-0.6-0.3-1-0.8-1.3-1.4
				c-0.6-1.3-0.6-2.9,0-4.2c0.3-0.6,0.8-1.1,1.3-1.4c0.6-0.3,1.3-0.5,2-0.5s1.3,0.2,1.9,0.5c0.5,0.3,1,0.8,1.3,1.3
				c0.3,0.6,0.5,1.2,0.5,1.9C1270.7,39,1270.7,39.3,1270.7,39.6z M1269.1,37.3c-0.2-0.3-0.5-0.6-0.9-0.8s-0.8-0.3-1.2-0.3
				c-0.6,0-1.2,0.2-1.6,0.6c-0.5,0.4-0.8,1.1-0.8,1.7h4.8C1269.4,38.1,1269.3,37.7,1269.1,37.3L1269.1,37.3z"/>
			<path class="st5" d="M1276,42.9l-1.8-2.9l-1.8,2.9h-1.4l2.5-3.8l-2.5-3.9h1.4l1.8,2.8l1.7-2.8h1.3l-2.5,3.8l2.5,3.9H1276z"/>
			<path class="st5" d="M1280.7,35.6c0.5-0.3,1.1-0.5,1.7-0.4c0.7,0,1.3,0.2,1.9,0.5s1,0.8,1.3,1.4c0.3,0.6,0.5,1.3,0.5,2.1
				c0,0.7-0.1,1.4-0.5,2.1c-0.3,0.6-0.8,1.1-1.3,1.4c-0.6,0.3-1.2,0.5-1.9,0.5c-0.6,0-1.2-0.1-1.7-0.4c-0.5-0.3-0.9-0.6-1.1-1.1v5.1
				h-1.3V35.3h1.3v1.4C1279.9,36.2,1280.3,35.8,1280.7,35.6z M1284.5,37.6c-0.2-0.4-0.5-0.8-0.9-1s-0.9-0.3-1.3-0.3
				c-0.5,0-0.9,0.1-1.3,0.3s-0.8,0.6-1,1c-0.5,0.9-0.5,2.1,0,3c0.2,0.4,0.6,0.8,1,1s0.8,0.3,1.3,0.3s0.9-0.1,1.3-0.3s0.7-0.6,0.9-1
				c0.2-0.5,0.4-1,0.3-1.5C1284.8,38.5,1284.7,38,1284.5,37.6L1284.5,37.6z"/>
			<path class="st5" d="M1294.4,39.6h-6.1c0,0.7,0.3,1.3,0.8,1.8c0.5,0.4,1.1,0.6,1.7,0.6c0.5,0,1-0.1,1.4-0.4
				c0.4-0.2,0.6-0.6,0.8-1h1.4c-0.2,0.7-0.6,1.4-1.2,1.8c-0.7,0.5-1.5,0.7-2.3,0.7c-0.7,0-1.4-0.2-1.9-0.5c-0.6-0.3-1-0.8-1.3-1.4
				c-0.3-0.6-0.5-1.4-0.5-2.1c0-0.7,0.1-1.4,0.5-2.1c0.3-0.6,0.8-1.1,1.3-1.4c0.6-0.3,1.3-0.5,2-0.5s1.3,0.2,1.9,0.5
				c0.5,0.3,1,0.8,1.3,1.3c0.3,0.6,0.5,1.2,0.4,1.9C1294.4,39.1,1294.4,39.3,1294.4,39.6z M1292.8,37.3c-0.2-0.3-0.5-0.6-0.9-0.8
				s-0.8-0.3-1.2-0.3c-0.6,0-1.2,0.2-1.6,0.6c-0.5,0.5-0.7,1.1-0.8,1.7h4.9C1293.1,38.1,1293,37.7,1292.8,37.3z"/>
			<path class="st5" d="M1297.9,35.5c0.5-0.3,1-0.4,1.5-0.4v1.3h-0.3c-1.4,0-2.1,0.8-2.1,2.3v4.2h-1.3v-7.7h1.3v1.2
				C1297.2,36.1,1297.5,35.7,1297.9,35.5z"/>
			<path class="st5" d="M1300.6,33.8c-0.2-0.2-0.3-0.4-0.2-0.6c0-0.2,0.1-0.5,0.2-0.6c0.2-0.2,0.4-0.3,0.6-0.3s0.4,0.1,0.6,0.3
				s0.3,0.4,0.2,0.6c0,0.2-0.1,0.5-0.2,0.6c-0.2,0.2-0.4,0.3-0.6,0.2C1300.9,34,1300.7,33.9,1300.6,33.8z M1301.8,35.3V43h-1.3v-7.7
				H1301.8z"/>
			<path class="st5" d="M1308.9,37.3v1.1h-5.6v-1.1H1308.9z"/>
			<path class="st5" d="M659.9,61.6h-6.1c0,0.7,0.3,1.3,0.8,1.8c0.5,0.4,1.1,0.7,1.7,0.6c0.5,0,1-0.1,1.4-0.4c0.4-0.2,0.6-0.6,0.8-1
				h1.4c-0.2,0.7-0.6,1.4-1.2,1.8c-0.7,0.5-1.5,0.7-2.3,0.7c-0.7,0-1.4-0.2-2-0.5s-1-0.8-1.4-1.4c-0.3-0.6-0.5-1.4-0.5-2.1
				c0-0.7,0.1-1.5,0.5-2.1c0.3-0.6,0.8-1.1,1.3-1.4c0.6-0.3,1.3-0.5,2-0.5c0.7,0,1.3,0.2,1.9,0.5s1,0.8,1.3,1.3
				c0.3,0.6,0.5,1.2,0.5,1.9C659.9,61.1,659.9,61.3,659.9,61.6z M658.3,59.3c-0.2-0.3-0.5-0.6-0.9-0.8s-0.8-0.3-1.2-0.3
				c-0.6,0-1.2,0.2-1.6,0.6c-0.5,0.5-0.7,1.1-0.8,1.7h4.9C658.6,60.1,658.5,59.7,658.3,59.3z"/>
			<path class="st5" d="M667.2,58c0.6,0.7,0.9,1.5,0.9,2.5V65h-1.3v-4.4c0-0.6-0.2-1.3-0.6-1.8c-0.4-0.4-1-0.6-1.6-0.6
				c-0.6,0-1.2,0.2-1.6,0.6c-0.4,0.5-0.6,1.2-0.6,1.8v4.2h-1.3v-7.7h1.3v1.1c0.2-0.4,0.6-0.7,1-0.9C664.7,56.9,666.2,57.1,667.2,58
				L667.2,58z"/>
			<path class="st5" d="M669.8,59c0.3-0.6,0.8-1,1.3-1.4c1.4-0.7,3-0.6,4.3,0.2c0.6,0.5,1.1,1.1,1.2,1.9h-1.4
				c-0.1-0.4-0.4-0.8-0.8-1.1s-0.9-0.4-1.4-0.4c-0.7,0-1.3,0.3-1.8,0.8c-0.5,0.6-0.7,1.4-0.7,2.1c-0.1,0.8,0.2,1.5,0.7,2.1
				c0.4,0.5,1.1,0.8,1.8,0.8c0.5,0,1-0.1,1.4-0.4c0.4-0.3,0.7-0.7,0.8-1.1h1.4c-0.2,0.8-0.6,1.4-1.2,1.9c-0.7,0.5-1.5,0.7-2.3,0.7
				c-0.7,0-1.3-0.2-1.9-0.5s-1-0.8-1.3-1.4c-0.3-0.6-0.5-1.4-0.5-2.1C669.3,60.4,669.4,59.6,669.8,59z"/>
			<path class="st5" d="M684.8,61.6h-6.1c0,0.7,0.3,1.3,0.8,1.8c0.5,0.4,1.1,0.7,1.7,0.6c0.5,0,1-0.1,1.4-0.4c0.4-0.2,0.6-0.6,0.8-1
				h1.4c-0.2,0.7-0.6,1.4-1.2,1.8c-0.7,0.5-1.5,0.7-2.3,0.7c-0.7,0-1.4-0.2-2-0.5s-1-0.8-1.4-1.4c-0.3-0.6-0.5-1.4-0.5-2.1
				c0-0.7,0.1-1.4,0.5-2.1c0.3-0.6,0.8-1.1,1.3-1.4c0.6-0.3,1.3-0.5,2-0.5c0.7,0,1.3,0.2,1.9,0.5c0.5,0.3,1,0.8,1.3,1.3
				c0.3,0.6,0.5,1.2,0.5,1.9C684.9,61.1,684.9,61.3,684.8,61.6z M683.2,59.3c-0.2-0.3-0.5-0.6-0.9-0.8c-0.4-0.2-0.8-0.3-1.2-0.3
				c-0.6,0-1.2,0.2-1.6,0.6c-0.5,0.4-0.7,1.1-0.8,1.7h4.8C683.6,60.1,683.4,59.7,683.2,59.3z"/>
			<path class="st5" d="M690.9,64.6c-0.6-0.3-1.1-0.8-1.4-1.4c-0.3-0.6-0.5-1.4-0.5-2.1c0-0.7,0.2-1.4,0.5-2.1
				c0.3-0.6,0.8-1.1,1.4-1.4c1.2-0.6,2.7-0.6,4,0c0.6,0.3,1.1,0.8,1.4,1.4c0.3,0.6,0.5,1.4,0.5,2.1c0,0.7-0.2,1.5-0.5,2.1
				s-0.8,1.1-1.4,1.4c-0.6,0.3-1.3,0.5-2,0.5C692.2,65.1,691.5,64.9,690.9,64.6z M694.1,63.6c0.4-0.2,0.8-0.6,1-1
				c0.3-0.5,0.4-1,0.4-1.6c0-0.5-0.1-1.1-0.4-1.6c-0.2-0.4-0.5-0.8-1-1c-0.4-0.2-0.8-0.3-1.3-0.3c-0.4,0-0.9,0.1-1.3,0.3
				c-0.4,0.2-0.7,0.6-0.9,1c-0.2,0.5-0.4,1-0.4,1.6c0,0.5,0.1,1.1,0.3,1.6c0.2,0.4,0.5,0.8,0.9,1s0.8,0.3,1.3,0.3
				C693.3,63.9,693.7,63.8,694.1,63.6L694.1,63.6z"/>
			<path class="st5" d="M701.2,58.3h-1.6v6.6h-1.3v-6.6h-1v-1h1v-0.5c-0.1-0.7,0.2-1.4,0.7-1.9c0.6-0.5,1.4-0.7,2.1-0.6v1.1
				c-0.4,0-0.8,0.1-1.2,0.3c-0.3,0.3-0.4,0.7-0.3,1.1v0.5h1.6L701.2,58.3z"/>
			<path class="st5" d="M706.8,64.8c-0.4-0.2-0.8-0.5-1.1-0.8c-0.3-0.4-0.4-0.8-0.4-1.2h1.3c0,0.4,0.2,0.7,0.5,0.9
				c0.4,0.3,0.8,0.4,1.3,0.4c0.4,0,0.8-0.1,1.1-0.3c0.3-0.2,0.4-0.5,0.4-0.8s-0.2-0.6-0.5-0.8c-0.4-0.2-0.9-0.4-1.4-0.5
				s-0.9-0.3-1.4-0.5c-0.4-0.2-0.7-0.4-0.9-0.7c-0.3-0.3-0.4-0.8-0.4-1.2s0.1-0.8,0.4-1.1s0.6-0.6,1-0.8c0.5-0.2,1-0.3,1.5-0.3
				c0.7,0,1.5,0.2,2.1,0.6c0.5,0.4,0.8,1.1,0.8,1.8h-1.3c0-0.4-0.2-0.8-0.5-1c-0.3-0.3-0.8-0.4-1.2-0.4c-0.4,0-0.8,0.1-1.1,0.3
				c-0.3,0.2-0.4,0.5-0.4,0.8c0,0.2,0.1,0.5,0.2,0.6c0.2,0.2,0.4,0.3,0.6,0.4c0.3,0.1,0.7,0.2,1,0.3c0.5,0.1,0.9,0.3,1.4,0.4
				c0.3,0.1,0.6,0.4,0.9,0.7s0.4,0.7,0.4,1.1c0,0.4-0.1,0.8-0.4,1.1c-0.3,0.4-0.6,0.6-1,0.8c-0.5,0.2-1,0.3-1.5,0.3
				C707.8,65,707.3,65,706.8,64.8z"/>
			<path class="st5" d="M717.9,57.5c0.5,0.3,0.9,0.6,1.1,1.1c0.3,0.6,0.4,1.2,0.4,1.8v4.5h-1.3v-4.3c0-0.6-0.2-1.3-0.6-1.8
				c-0.4-0.4-1-0.6-1.6-0.6s-1.2,0.2-1.6,0.6c-0.4,0.5-0.6,1.2-0.6,1.8v4.2h-1.3V54.6h1.3v3.8c0.2-0.4,0.6-0.7,1-0.9
				C715.8,57,716.9,57,717.9,57.5L717.9,57.5z"/>
			<path class="st5" d="M721.1,59c0.3-0.6,0.8-1.1,1.3-1.4c0.6-0.3,1.2-0.5,1.8-0.5s1.2,0.1,1.8,0.4c0.5,0.3,0.8,0.6,1.1,1.1v-1.4
				h1.3v7.7h-1.3v-1.4c-0.3,0.5-0.7,0.9-1.1,1.1c-0.5,0.3-1.1,0.5-1.7,0.4c-0.7,0-1.3-0.2-1.8-0.5c-0.6-0.3-1-0.8-1.3-1.4
				c-0.3-0.6-0.5-1.4-0.5-2.1C720.6,60.3,720.8,59.6,721.1,59z M726.8,59.6c-0.2-0.4-0.5-0.8-0.9-1s-0.9-0.3-1.3-0.3
				c-0.5,0-0.9,0.1-1.3,0.3c-0.4,0.2-0.7,0.6-0.9,1c-0.2,0.5-0.4,1-0.3,1.5c0,0.5,0.1,1.1,0.3,1.5c0.2,0.4,0.5,0.8,0.9,1
				s0.9,0.3,1.3,0.3c0.5,0,0.9-0.1,1.3-0.3s0.7-0.6,0.9-1c0.2-0.5,0.4-1,0.3-1.5C727.1,60.6,727,60,726.8,59.6L726.8,59.6z"/>
			<path class="st5" d="M732.4,57.5c0.5-0.3,1-0.4,1.5-0.4v1.3h-0.3c-1.4,0-2.1,0.8-2.1,2.3v4.2h-1.3v-7.7h1.3v1.2
				C731.7,58.1,732,57.7,732.4,57.5z"/>
			<path class="st5" d="M742,61.6h-6.1c0,0.7,0.3,1.3,0.8,1.8c0.5,0.4,1.1,0.7,1.7,0.6c0.5,0,1-0.1,1.4-0.4c0.4-0.2,0.6-0.6,0.8-1
				h1.4c-0.2,0.7-0.6,1.4-1.2,1.8c-0.7,0.5-1.5,0.7-2.3,0.7c-0.7,0-1.4-0.1-2-0.5c-0.6-0.3-1-0.8-1.3-1.4c-0.3-0.6-0.5-1.4-0.5-2.1
				c0-0.7,0.1-1.4,0.5-2.1c0.3-0.6,0.8-1.1,1.3-1.4c0.6-0.3,1.3-0.5,2-0.5c0.7,0,1.3,0.2,1.9,0.5c0.5,0.3,1,0.8,1.3,1.3
				c0.3,0.6,0.5,1.2,0.5,1.9C742,61.1,742,61.3,742,61.6z M740.4,59.3c-0.2-0.3-0.5-0.6-0.9-0.8s-0.8-0.3-1.2-0.3
				c-0.6,0-1.2,0.2-1.6,0.6c-0.5,0.5-0.7,1.1-0.8,1.7h4.8C740.7,60.1,740.6,59.7,740.4,59.3z"/>
			<path class="st5" d="M743.3,59c0.3-0.6,0.8-1.1,1.3-1.4c0.6-0.3,1.2-0.5,1.9-0.5c0.6,0,1.1,0.1,1.7,0.4c0.5,0.2,0.9,0.6,1.2,1.1
				v-4h1.3V65h-1.3v-1.4c-0.3,0.5-0.7,0.9-1.1,1.1c-0.5,0.3-1.1,0.5-1.7,0.4c-0.7,0-1.3-0.2-1.8-0.5c-0.6-0.3-1-0.8-1.3-1.4
				c-0.3-0.6-0.5-1.4-0.5-2.1C742.8,60.4,743,59.6,743.3,59z M749,59.6c-0.2-0.4-0.5-0.8-0.9-1s-0.9-0.3-1.3-0.3
				c-0.5,0-0.9,0.1-1.3,0.3s-0.7,0.6-0.9,1c-0.2,0.5-0.4,1-0.3,1.5c0,0.5,0.1,1.1,0.3,1.5c0.2,0.4,0.5,0.8,0.9,1s0.9,0.3,1.3,0.3
				c0.5,0,0.9-0.1,1.3-0.3c0.4-0.2,0.7-0.6,0.9-1c0.2-0.5,0.4-1,0.3-1.5C749.3,60.6,749.2,60,749,59.6L749,59.6z"/>
			<path class="st5" d="M758.8,58.3h-1.6v6.6h-1.3v-6.6h-1v-1h1v-0.5c-0.1-0.7,0.2-1.4,0.7-1.9c0.6-0.5,1.4-0.7,2.1-0.6v1.1
				c-0.4,0-0.8,0.1-1.2,0.3c-0.3,0.3-0.4,0.7-0.3,1.1v0.5h1.6V58.3z"/>
			<path class="st5" d="M761.2,54.6V65h-1.3V54.6H761.2z"/>
			<path class="st5" d="M763,55.8c-0.2-0.2-0.3-0.4-0.3-0.6c0-0.5,0.4-0.9,0.9-0.9c0.2,0,0.4,0.1,0.6,0.3s0.2,0.4,0.2,0.6
				c0,0.2-0.1,0.5-0.2,0.6c-0.2,0.2-0.4,0.3-0.6,0.2C763.4,56,763.2,55.9,763,55.8z M764.3,57.3V65H763v-7.7H764.3z"/>
			<path class="st5" d="M770.9,57.6c0.5,0.3,0.9,0.6,1.1,1.1v-1.4h1.3v7.8c0,0.7-0.1,1.3-0.4,1.9c-0.3,0.5-0.7,1-1.3,1.3
				s-1.3,0.5-1.9,0.5c-0.9,0-1.8-0.2-2.5-0.7c-0.7-0.4-1.1-1.2-1.2-1.9h1.3c0.1,0.5,0.4,0.9,0.9,1.1c0.5,0.3,1,0.4,1.6,0.4
				s1.3-0.2,1.7-0.7c0.5-0.5,0.7-1.2,0.7-1.8v-1.6c-0.3,0.5-0.7,0.8-1.1,1.1c-0.5,0.3-1.1,0.5-1.7,0.4c-0.7,0-1.3-0.2-1.9-0.5
				c-0.6-0.3-1-0.8-1.3-1.4c-0.3-0.6-0.5-1.4-0.5-2.1c0-0.7,0.1-1.4,0.5-2.1c0.3-0.6,0.7-1.1,1.3-1.4c0.6-0.3,1.2-0.5,1.9-0.5
				C769.8,57.1,770.4,57.3,770.9,57.6z M771.7,59.6c-0.2-0.4-0.6-0.8-1-1s-0.9-0.3-1.3-0.3c-0.5,0-0.9,0.1-1.3,0.3s-0.7,0.6-0.9,1
				c-0.2,0.5-0.4,1-0.3,1.5c0,0.5,0.1,1.1,0.3,1.5c0.2,0.4,0.5,0.8,0.9,1s0.8,0.3,1.3,0.3s0.9-0.1,1.3-0.3c0.4-0.2,0.8-0.6,1-1
				c0.2-0.5,0.4-1,0.3-1.5C772.1,60.6,772,60,771.7,59.6L771.7,59.6z"/>
			<path class="st5" d="M780.5,57.5c0.5,0.2,0.9,0.6,1.1,1.1c0.3,0.6,0.4,1.2,0.4,1.8v4.5h-1.3v-4.3c0-0.6-0.2-1.3-0.6-1.8
				c-0.9-0.8-2.3-0.8-3.2,0c-0.4,0.5-0.6,1.2-0.6,1.8v4.2h-1.2V54.6h1.3v3.8c0.2-0.4,0.6-0.7,1-0.9c0.5-0.2,1-0.3,1.5-0.3
				C779.4,57.1,780,57.2,780.5,57.5z"/>
			<path class="st5" d="M785.2,58.3v4.5c0,0.3,0.1,0.6,0.2,0.8c0.2,0.2,0.5,0.3,0.8,0.2h0.9v1.1h-1c-0.6,0-1.1-0.1-1.6-0.5
				c-0.4-0.4-0.6-1-0.5-1.6v-4.5h-1v-1h1v-2h1.3v1.9h2v1L785.2,58.3z"/>
			<path class="st5" d="M791.8,55.8c-0.2-0.2-0.3-0.4-0.2-0.6c0-0.2,0.1-0.5,0.2-0.6c0.2-0.2,0.4-0.3,0.6-0.3s0.4,0.1,0.6,0.3
				s0.2,0.4,0.2,0.6c0,0.2-0.1,0.5-0.2,0.6c-0.2,0.2-0.4,0.3-0.6,0.2C792.2,56,791.9,55.9,791.8,55.8z M793,57.3V65h-1.3v-7.7H793z"
				/>
			<path class="st5" d="M795.9,64.8c-0.4-0.2-0.8-0.5-1.1-0.8c-0.3-0.4-0.4-0.8-0.5-1.2h1.3c0,0.4,0.2,0.7,0.5,0.9
				c0.4,0.3,0.8,0.4,1.3,0.4c0.4,0,0.8-0.1,1.2-0.3c0.3-0.2,0.4-0.5,0.4-0.8s-0.2-0.6-0.5-0.8c-0.4-0.2-0.9-0.4-1.4-0.5
				s-0.9-0.3-1.4-0.5c-0.4-0.2-0.7-0.4-0.9-0.7c-0.3-0.3-0.4-0.8-0.4-1.2s0.1-0.8,0.3-1.1c0.3-0.3,0.6-0.6,1-0.8
				c0.5-0.2,1-0.3,1.5-0.3c0.7,0,1.4,0.2,2,0.6c0.5,0.4,0.8,1.1,0.8,1.8h-1.3c0-0.4-0.2-0.8-0.5-1c-0.3-0.3-0.8-0.4-1.2-0.4
				s-0.8,0.1-1.1,0.3c-0.3,0.2-0.4,0.5-0.4,0.8c0,0.2,0.1,0.5,0.2,0.6c0.2,0.2,0.4,0.3,0.6,0.4c0.3,0.1,0.7,0.2,1,0.3
				c0.5,0.1,0.9,0.3,1.3,0.4c0.3,0.1,0.6,0.4,0.9,0.7s0.4,0.7,0.4,1.1c0,0.4-0.1,0.8-0.3,1.1c-0.3,0.4-0.6,0.6-1,0.8
				c-0.5,0.2-1,0.3-1.5,0.3C796.9,65,796.4,64.9,795.9,64.8z"/>
			<path class="st5" d="M807.7,58c0.6,0.7,0.9,1.5,0.9,2.5V65h-1.3v-4.4c0-0.6-0.2-1.3-0.6-1.8c-0.4-0.4-1-0.6-1.6-0.6
				s-1.2,0.2-1.6,0.6c-0.4,0.5-0.6,1.2-0.6,1.8v4.2h-1.3v-7.7h1.3v1.1c0.2-0.4,0.6-0.7,1-0.9s0.9-0.3,1.4-0.3
				C806.3,57.1,807.1,57.4,807.7,58z"/>
			<path class="st5" d="M810.5,55.2h1.4l-1.3,3.2h-0.9L810.5,55.2z"/>
			<path class="st5" d="M814.5,58.3v4.5c0,0.3,0.1,0.6,0.2,0.8c0.2,0.2,0.5,0.3,0.8,0.2h0.9v1.1h-1.2c-0.6,0-1.1-0.1-1.6-0.5
				c-0.4-0.4-0.6-1-0.5-1.6v-4.5h-1v-1h1v-2h1.3v1.9h2v1L814.5,58.3z"/>
			<path class="st5" d="M822.1,64.8c-0.4-0.2-0.8-0.5-1.1-0.8c-0.3-0.4-0.4-0.8-0.5-1.2h1.3c0,0.4,0.2,0.7,0.5,0.9
				c0.4,0.3,0.8,0.4,1.3,0.4c0.4,0,0.8-0.1,1.1-0.3c0.3-0.2,0.4-0.5,0.4-0.8s-0.2-0.6-0.4-0.8c-0.4-0.2-0.9-0.4-1.4-0.5
				s-0.9-0.3-1.4-0.5c-0.4-0.2-0.7-0.4-0.9-0.7c-0.3-0.3-0.4-0.8-0.4-1.2s0.2-0.8,0.4-1.1c0.3-0.3,0.6-0.6,1-0.8
				c0.5-0.2,1-0.3,1.5-0.3c0.7,0,1.5,0.2,2.1,0.6c0.5,0.4,0.8,1.1,0.8,1.8h-1.3c0-0.4-0.2-0.8-0.5-1c-0.3-0.3-0.8-0.4-1.2-0.4
				s-0.8,0.1-1.1,0.3c-0.3,0.2-0.4,0.5-0.4,0.8c0,0.2,0.1,0.5,0.2,0.6c0.2,0.2,0.4,0.3,0.6,0.4c0.3,0.1,0.7,0.2,1,0.3
				c0.5,0.1,0.9,0.3,1.3,0.4c0.3,0.1,0.6,0.4,0.9,0.7c0.3,0.3,0.4,0.7,0.4,1.1c0,0.4-0.1,0.8-0.3,1.1c-0.3,0.4-0.6,0.6-1,0.8
				c-0.5,0.2-1,0.3-1.5,0.3C823.2,65.1,822.6,65,822.1,64.8z"/>
			<path class="st5" d="M827.9,59c0.3-0.6,0.8-1.1,1.3-1.4c0.6-0.3,1.2-0.5,1.8-0.5s1.2,0.1,1.8,0.4c0.5,0.3,0.8,0.6,1.1,1.1v-1.4
				h1.3v7.7h-1.3v-1.4c-0.3,0.5-0.7,0.9-1.1,1.1c-0.5,0.3-1.1,0.5-1.7,0.4c-0.7,0-1.3-0.2-1.8-0.5c-0.6-0.3-1-0.8-1.3-1.4
				c-0.3-0.6-0.5-1.4-0.5-2.1C827.4,60.4,827.6,59.6,827.9,59z M833.6,59.6c-0.2-0.4-0.5-0.8-0.9-1s-0.9-0.3-1.3-0.3
				c-0.5,0-0.9,0.1-1.3,0.3s-0.7,0.6-0.9,1c-0.2,0.5-0.4,1-0.3,1.5c0,0.5,0.1,1.1,0.3,1.5c0.2,0.4,0.5,0.8,0.9,1s0.9,0.3,1.3,0.3
				c0.5,0,0.9-0.1,1.3-0.3c0.4-0.2,0.7-0.6,0.9-1c0.2-0.5,0.4-1,0.3-1.5C833.9,60.6,833.8,60,833.6,59.6L833.6,59.6z"/>
			<path class="st5" d="M838.5,58.3v4.5c0,0.3,0.1,0.6,0.2,0.8c0.2,0.2,0.5,0.3,0.8,0.2h0.9v1.1h-1.2c-0.6,0-1.1-0.1-1.6-0.5
				c-0.4-0.4-0.6-1-0.5-1.6v-4.5h-1v-1h1v-2h1.3v1.9h2v1L838.5,58.3z"/>
			<path class="st5" d="M841.7,55.8c-0.2-0.2-0.3-0.4-0.2-0.6c0-0.2,0.1-0.5,0.2-0.6c0.2-0.2,0.4-0.3,0.6-0.3c0.2,0,0.4,0.1,0.6,0.3
				c0.2,0.2,0.3,0.4,0.2,0.6c0,0.2-0.1,0.5-0.2,0.6c-0.2,0.2-0.4,0.3-0.6,0.2C842.1,56,841.9,55.9,841.7,55.8z M842.9,57.3V65h-1.3
				v-7.7H842.9z"/>
			<path class="st5" d="M845.9,64.8c-0.4-0.2-0.8-0.5-1.1-0.8c-0.3-0.4-0.4-0.8-0.5-1.2h1.3c0,0.4,0.2,0.7,0.5,0.9
				c0.4,0.3,0.8,0.4,1.3,0.4c0.4,0,0.8-0.1,1.2-0.3c0.3-0.2,0.4-0.5,0.4-0.8s-0.2-0.6-0.5-0.8c-0.4-0.2-0.9-0.4-1.4-0.5
				s-0.9-0.3-1.4-0.5c-0.4-0.2-0.7-0.4-0.9-0.7c-0.3-0.3-0.4-0.8-0.4-1.2s0.1-0.8,0.3-1.1c0.3-0.3,0.6-0.6,1-0.8
				c0.5-0.2,1-0.3,1.5-0.3c0.7,0,1.5,0.2,2,0.6c0.5,0.4,0.8,1.1,0.8,1.8h-1.3c0-0.4-0.2-0.8-0.5-1c-0.3-0.3-0.8-0.4-1.2-0.4
				s-0.8,0.1-1.1,0.3c-0.3,0.2-0.4,0.5-0.4,0.8c0,0.2,0.1,0.5,0.2,0.6c0.2,0.2,0.4,0.3,0.6,0.4c0.3,0.1,0.7,0.2,1,0.3
				c0.5,0.1,0.9,0.3,1.3,0.4c0.3,0.1,0.7,0.4,0.9,0.7c0.3,0.3,0.4,0.7,0.4,1.1c0,0.4-0.1,0.8-0.3,1.1c-0.3,0.4-0.6,0.6-1,0.8
				c-0.5,0.2-1,0.3-1.5,0.3C846.9,65,846.3,64.9,845.9,64.8z"/>
			<path class="st5" d="M854.8,58.3h-1.6v6.6h-1.3v-6.6h-1v-1h1v-0.5c-0.1-0.7,0.2-1.4,0.7-1.9c0.6-0.5,1.4-0.7,2.1-0.6v1.1
				c-0.4,0-0.8,0.1-1.2,0.3c-0.3,0.3-0.4,0.7-0.3,1.1v0.5h1.6V58.3z"/>
			<path class="st5" d="M862.5,57.3l-4.6,11.3h-1.3l1.5-3.7l-3.1-7.6h1.4l2.4,6.2l2.4-6.2L862.5,57.3z"/>
			<path class="st5" d="M863.4,55.8c-0.2-0.2-0.3-0.4-0.2-0.6c0-0.2,0.1-0.5,0.2-0.6c0.2-0.2,0.4-0.3,0.6-0.3s0.4,0.1,0.6,0.3
				s0.3,0.4,0.2,0.6c0,0.2-0.1,0.5-0.2,0.6c-0.2,0.2-0.4,0.3-0.6,0.2C863.8,56,863.6,55.9,863.4,55.8z M864.6,57.3V65h-1.3v-7.7
				H864.6z"/>
			<path class="st5" d="M872.4,58c0.6,0.7,0.9,1.6,0.9,2.5V65H872v-4.4c0-0.6-0.2-1.3-0.6-1.8c-0.4-0.4-1-0.6-1.6-0.6
				s-1.2,0.2-1.6,0.6c-0.4,0.5-0.6,1.2-0.6,1.8v4.2h-1.3v-7.7h1.3v1.1c0.2-0.4,0.6-0.7,1-0.9C869.9,56.9,871.4,57.1,872.4,58
				L872.4,58z"/>
			<path class="st5" d="M879.9,57.6c0.5,0.3,0.9,0.6,1.1,1.1v-1.4h1.3v7.8c0,0.7-0.1,1.3-0.5,1.9c-0.3,0.5-0.7,1-1.3,1.3
				s-1.3,0.5-1.9,0.5c-0.9,0-1.8-0.2-2.5-0.7c-0.7-0.4-1.1-1.2-1.2-1.9h1.3c0.1,0.5,0.5,0.9,0.9,1.1c0.5,0.3,1,0.4,1.6,0.4
				s1.3-0.2,1.7-0.7c0.5-0.5,0.7-1.2,0.7-1.8v-1.6c-0.3,0.5-0.7,0.8-1.1,1.1c-0.5,0.3-1.1,0.5-1.7,0.4c-0.7,0-1.3-0.2-1.8-0.5
				c-0.6-0.3-1-0.8-1.3-1.4c-0.3-0.6-0.5-1.4-0.5-2.1c0-0.7,0.1-1.4,0.5-2.1c0.3-0.6,0.8-1.1,1.3-1.4c0.6-0.3,1.2-0.5,1.8-0.5
				C878.7,57.1,879.3,57.3,879.9,57.6z M880.6,59.6c-0.4-0.8-1.3-1.3-2.3-1.3c-0.5,0-0.9,0.1-1.3,0.3s-0.7,0.6-0.9,1
				c-0.2,0.5-0.4,1-0.3,1.5c0,0.5,0.1,1.1,0.3,1.5c0.2,0.4,0.5,0.8,0.9,1c1.2,0.7,2.8,0.3,3.5-0.9c0,0,0-0.1,0.1-0.1
				c0.2-0.5,0.4-1,0.3-1.5C881,60.6,880.9,60,880.6,59.6L880.6,59.6z"/>
			<path class="st5" d="M883.8,64.8c-0.3-0.3-0.3-0.9,0-1.2c0.2-0.2,0.4-0.2,0.6-0.2s0.4,0.1,0.6,0.2c0.3,0.3,0.3,0.9,0,1.2
				c-0.2,0.2-0.4,0.3-0.6,0.2C884.2,65,884,64.9,883.8,64.8z"/>
			<path class="st5" d="M899.8,55.2v9.7h-1.3v-7.2l-3.2,7.2h-0.9l-3.2-7.2v7.2h-1.3v-9.7h1.4l3.6,8l3.6-8H899.8z"/>
			<path class="st5" d="M908.2,57.3l-4.6,11.3h-1.3l1.5-3.7l-3.1-7.6h1.4l2.4,6.2l2.4-6.2L908.2,57.3z"/>
			<path class="st5" d="M917.3,57.6c0.5,0.3,0.8,0.6,1.1,1.1v-1.4h1.3v7.8c0,0.7-0.1,1.3-0.5,1.9c-0.3,0.5-0.7,1-1.3,1.3
				s-1.3,0.5-1.9,0.5c-0.9,0-1.8-0.2-2.5-0.7c-0.7-0.4-1.1-1.2-1.2-1.9h1.3c0.1,0.5,0.5,0.9,0.9,1.1c0.5,0.3,1,0.4,1.6,0.4
				s1.3-0.2,1.7-0.7c0.5-0.5,0.7-1.2,0.7-1.8v-1.6c-0.3,0.5-0.7,0.9-1.1,1.1c-0.5,0.3-1.1,0.5-1.7,0.4c-0.7,0-1.3-0.2-1.9-0.5
				c-0.6-0.3-1-0.8-1.3-1.4c-0.3-0.6-0.5-1.4-0.5-2.1c0-0.7,0.1-1.4,0.5-2.1c0.3-0.6,0.8-1.1,1.3-1.4c0.6-0.3,1.2-0.5,1.9-0.5
				C916.2,57.1,916.8,57.3,917.3,57.6z M918.1,59.6c-0.2-0.4-0.5-0.8-0.9-1s-0.9-0.3-1.3-0.3c-0.5,0-0.9,0.1-1.3,0.3s-0.7,0.6-0.9,1
				c-0.2,0.5-0.4,1-0.3,1.5c0,0.5,0.1,1.1,0.3,1.5c0.2,0.4,0.5,0.8,0.9,1s0.9,0.3,1.3,0.3c0.5,0,0.9-0.1,1.3-0.3
				c0.4-0.2,0.7-0.6,0.9-1c0.2-0.5,0.4-1,0.3-1.5C918.5,60.6,918.3,60,918.1,59.6L918.1,59.6z"/>
			<path class="st5" d="M922.9,64.6c-0.6-0.3-1.1-0.8-1.4-1.4c-0.3-0.6-0.5-1.4-0.5-2.1c0-0.7,0.2-1.4,0.5-2.1
				c0.3-0.6,0.8-1.1,1.4-1.4c1.2-0.6,2.7-0.6,4,0c0.6,0.3,1.1,0.8,1.4,1.4c0.3,0.6,0.5,1.4,0.5,2.1c0,0.7-0.2,1.5-0.5,2.1
				c-0.3,0.6-0.8,1.1-1.4,1.4s-1.3,0.5-2,0.5C924.2,65.1,923.5,64.9,922.9,64.6z M926.1,63.6c0.4-0.2,0.8-0.6,1-1
				c0.3-0.5,0.4-1,0.4-1.6c0-0.5-0.1-1.1-0.4-1.6c-0.2-0.4-0.6-0.8-1-1c-0.8-0.4-1.8-0.4-2.5,0c-0.4,0.2-0.7,0.6-0.9,1
				c-0.2,0.5-0.4,1-0.3,1.6c0,0.5,0.1,1.1,0.3,1.6c0.2,0.4,0.5,0.8,0.9,1s0.8,0.3,1.3,0.3C925.3,63.9,925.7,63.8,926.1,63.6
				L926.1,63.6z"/>
			<path class="st5" d="M930.1,59c0.3-0.6,0.8-1.1,1.3-1.4c0.6-0.3,1.2-0.5,1.8-0.5s1.2,0.1,1.8,0.4c0.5,0.3,0.8,0.6,1.1,1.1v-1.4
				h1.3v7.7h-1.3v-1.4c-0.3,0.5-0.7,0.9-1.1,1.1c-0.5,0.3-1.1,0.5-1.7,0.4c-0.7,0-1.3-0.2-1.8-0.5c-0.6-0.3-1-0.8-1.3-1.4
				c-0.3-0.6-0.5-1.4-0.5-2.1C929.6,60.3,929.8,59.6,930.1,59z M935.8,59.6c-0.2-0.4-0.5-0.8-0.9-1s-0.9-0.3-1.3-0.3
				c-0.5,0-0.9,0.1-1.3,0.3c-0.4,0.2-0.7,0.6-0.9,1c-0.2,0.5-0.4,1-0.3,1.5c0,0.5,0.1,1.1,0.3,1.5c0.2,0.4,0.5,0.8,0.9,1
				s0.9,0.3,1.3,0.3c0.5,0,0.9-0.1,1.3-0.3s0.7-0.6,0.9-1c0.2-0.5,0.4-1,0.3-1.5C936.1,60.6,936,60,935.8,59.6L935.8,59.6z"/>
			<path class="st5" d="M940.4,54.6V65h-1.3V54.6H940.4z"/>
			<path class="st5" d="M945.6,55.8c-0.2-0.2-0.3-0.4-0.2-0.6c0-0.2,0.1-0.5,0.2-0.6c0.2-0.2,0.4-0.3,0.6-0.3c0.2,0,0.4,0.1,0.6,0.3
				c0.2,0.2,0.3,0.4,0.2,0.6c0,0.2-0.1,0.5-0.2,0.6c-0.2,0.2-0.4,0.3-0.6,0.2C946,56,945.7,55.9,945.6,55.8z M946.8,57.3V65h-1.3
				v-7.7H946.8z"/>
			<path class="st5" d="M949.7,64.8c-0.4-0.2-0.8-0.5-1.1-0.8c-0.3-0.4-0.4-0.8-0.5-1.2h1.3c0,0.4,0.2,0.7,0.5,0.9
				c0.4,0.3,0.8,0.4,1.3,0.4c0.4,0,0.8-0.1,1.2-0.3c0.3-0.2,0.4-0.5,0.4-0.8s-0.2-0.6-0.5-0.8c-0.4-0.2-0.9-0.4-1.4-0.5
				s-0.9-0.3-1.4-0.5c-0.4-0.2-0.7-0.4-0.9-0.7c-0.3-0.3-0.4-0.8-0.4-1.2s0.1-0.8,0.3-1.1c0.3-0.3,0.6-0.6,1-0.8
				c0.5-0.2,1-0.3,1.5-0.3c0.7,0,1.5,0.2,2.1,0.6c0.5,0.4,0.8,1.1,0.8,1.8h-1.3c0-0.4-0.2-0.8-0.5-1c-0.3-0.3-0.8-0.4-1.2-0.4
				s-0.8,0.1-1.1,0.3c-0.3,0.2-0.4,0.5-0.4,0.8c0,0.2,0.1,0.5,0.2,0.6c0.2,0.2,0.4,0.3,0.6,0.4c0.3,0.1,0.7,0.2,1,0.3
				c0.5,0.1,0.9,0.3,1.3,0.4c0.3,0.1,0.7,0.4,0.9,0.7c0.3,0.3,0.4,0.7,0.4,1.1c0,0.4-0.1,0.8-0.3,1.1c-0.3,0.3-0.6,0.6-1,0.8
				c-0.5,0.2-1,0.3-1.5,0.3C950.8,65,950.2,65,949.7,64.8z"/>
			<path class="st5" d="M960.4,58.3v4.5c0,0.3,0.1,0.6,0.2,0.8c0.2,0.2,0.5,0.3,0.8,0.2h0.9v1.1h-1.2c-0.6,0-1.1-0.1-1.6-0.5
				c-0.4-0.4-0.6-1-0.5-1.6v-4.5h-1v-1h1v-2h1.3v1.9h2v1L960.4,58.3z"/>
			<path class="st5" d="M964.9,64.6c-0.6-0.3-1.1-0.8-1.4-1.4c-0.3-0.6-0.5-1.4-0.5-2.1c0-0.7,0.2-1.4,0.5-2.1
				c0.3-0.6,0.8-1.1,1.4-1.4c1.2-0.6,2.7-0.6,3.9,0c0.6,0.3,1.1,0.8,1.4,1.4c0.3,0.6,0.5,1.4,0.5,2.1c0,0.7-0.2,1.5-0.5,2.1
				c-0.3,0.6-0.8,1.1-1.4,1.4s-1.3,0.5-2,0.5C966.2,65.1,965.5,64.9,964.9,64.6z M968.2,63.6c0.4-0.2,0.8-0.6,1-1
				c0.3-0.5,0.4-1,0.4-1.6c0-0.5-0.1-1.1-0.4-1.6c-0.2-0.4-0.6-0.8-1-1c-0.8-0.4-1.8-0.4-2.6,0c-0.4,0.2-0.7,0.6-0.9,1
				c-0.2,0.5-0.4,1-0.3,1.6c0,0.5,0.1,1.1,0.3,1.6c0.2,0.4,0.5,0.8,0.9,1C966.4,64,967.4,64,968.2,63.6L968.2,63.6z"/>
			<path class="st5" d="M977.6,56.2c-0.3,0.3-0.6,0.4-1,0.4s-0.7-0.1-1-0.4c-0.3-0.3-0.4-0.6-0.4-1s0.1-0.7,0.4-1s0.6-0.4,1-0.4
				c0.8,0,1.4,0.6,1.4,1.3c0,0,0,0,0,0.1C978,55.6,977.9,56,977.6,56.2z M975.4,64.9v-7.8h2.4v7.8H975.4z"/>
			<path class="st5" d="M981.9,57.1v1.1c0.5-0.8,1.4-1.3,2.4-1.3c0.5,0,1.1,0.1,1.5,0.4c0.5,0.3,0.8,0.7,1.1,1.1
				c0.3-0.4,0.7-0.8,1.1-1.1c0.5-0.3,1-0.4,1.5-0.4c0.8,0,1.7,0.3,2.3,0.9c0.6,0.7,0.9,1.6,0.8,2.5v4.6h-2.4v-4.2
				c0-0.4-0.1-0.9-0.4-1.2s-0.7-0.4-1.1-0.4c-0.4,0-0.8,0.1-1.1,0.4c-0.3,0.3-0.4,0.7-0.4,1.2v4.2h-2.4v-4.2c0-0.4-0.1-0.8-0.4-1.2
				c-0.3-0.3-0.7-0.4-1.1-0.4c-0.4,0-0.8,0.1-1.1,0.4c-0.3,0.3-0.4,0.7-0.4,1.2v4.2h-2.4v-7.8C979.4,57.1,981.9,57.1,981.9,57.1z"/>
			<path class="st5" d="M996.7,58.2c0.5-0.7,1.4-1.2,2.3-1.2c1,0,1.9,0.4,2.5,1.1c1.4,1.7,1.4,4.1,0,5.8c-0.6,0.7-1.6,1.1-2.5,1.1
				s-1.8-0.4-2.3-1.2v4.9h-2.4V57.1h2.4V58.2z M999.6,62.5c0.7-0.8,0.7-2,0-2.8c-0.3-0.3-0.7-0.5-1.2-0.5c-0.4,0-0.9,0.2-1.2,0.5
				c-0.4,0.4-0.6,0.9-0.5,1.4c0,0.5,0.2,1,0.5,1.4C997.9,63.1,999,63.1,999.6,62.5L999.6,62.5L999.6,62.5z"/>
			<path class="st5" d="M1006.1,57.1v1.5c0.4-0.9,1.2-1.5,2.2-1.6v2.4h-0.6c-0.4,0-0.9,0.1-1.2,0.4c-0.3,0.4-0.5,0.9-0.4,1.4v3.7
				h-2.4v-7.8C1003.7,57.1,1006.1,57.1,1006.1,57.1z"/>
			<path class="st5" d="M1009.9,63.9c-0.8-0.8-1.2-1.8-1.2-2.9c0-1.1,0.4-2.1,1.2-2.9c1.7-1.5,4.2-1.5,5.8,0
				c0.8,0.7,1.2,1.8,1.2,2.9c0,1.1-0.4,2.2-1.2,2.9c-0.8,0.7-1.8,1.1-2.9,1.1C1011.7,65,1010.7,64.7,1009.9,63.9z M1013.9,62.5
				c0.3-0.4,0.5-0.9,0.5-1.5c0-0.5-0.1-1.1-0.5-1.5c-0.3-0.3-0.7-0.5-1.2-0.5c-0.4,0-0.9,0.2-1.2,0.5c-0.3,0.4-0.5,0.9-0.5,1.4
				s0.1,1.1,0.5,1.5c0.3,0.3,0.7,0.5,1.2,0.5C1013.2,63,1013.6,62.8,1013.9,62.5z"/>
			<path class="st5" d="M1017,57.1h2.5l1.8,5.8l1.8-5.8h2.5l-2.8,7.8h-3.1L1017,57.1z"/>
			<path class="st5" d="M1029.7,65c-1,0-2.1-0.4-2.8-1.1c-0.7-0.8-1.1-1.8-1.1-2.9c-0.1-1.1,0.3-2.1,1.1-2.9
				c0.7-0.7,1.8-1.1,2.8-1.1c1.1,0,2.1,0.3,2.9,1.1s1.2,1.9,1.1,3c0,0.3,0,0.5,0,0.8h-5.4c0.1,0.6,0.7,1.1,1.3,1.2
				c0.2,0,0.5,0,0.7-0.1c0.1,0,0.2-0.1,0.3-0.2c0.1-0.1,0.2-0.2,0.3-0.3h2.6c-0.2,0.8-0.7,1.4-1.3,1.9
				C1031.4,64.8,1030.5,65,1029.7,65z M1030.7,59.4c-0.3-0.2-0.6-0.3-1-0.3s-0.7,0.1-1,0.3c-0.3,0.2-0.4,0.5-0.5,0.9h2.9
				C1031.1,60,1031,59.7,1030.7,59.4L1030.7,59.4z"/>
			<path class="st5" d="M1042,62.9h0.8v2h-1.2c-0.7,0-1.4-0.2-2-0.6c-0.5-0.5-0.8-1.3-0.7-2v-3.2h-0.8v-2h0.7v-1.9h2.4v1.9h1.6v2
				h-1.6v3.2C1041.2,62.7,1041.5,62.9,1042,62.9z"/>
			<path class="st5" d="M1046.4,54.6v3.7c0.5-0.8,1.4-1.3,2.4-1.3c0.8,0,1.6,0.3,2.2,0.9c0.6,0.7,0.9,1.5,0.8,2.4v4.6h-2.4v-4.2
				c0-0.4-0.1-0.8-0.4-1.2c-0.6-0.6-1.6-0.6-2.2,0c-0.3,0.3-0.4,0.7-0.4,1.2v4.2h-2.3V54.6H1046.4z"/>
			<path class="st5" d="M1056.8,65c-1,0-2.1-0.4-2.8-1.1c-0.7-0.8-1.1-1.8-1.1-2.9c-0.1-1.1,0.3-2.1,1.1-2.9
				c0.7-0.7,1.8-1.1,2.8-1.1c1.1,0,2.1,0.3,2.9,1.1c0.8,0.8,1.2,1.9,1.1,3c0,0.3,0,0.5,0,0.8h-5.4c0.1,0.6,0.6,1.1,1.3,1.2
				c0.2,0,0.5,0,0.7-0.1c0.1,0,0.2-0.1,0.3-0.2c0.1-0.1,0.2-0.2,0.3-0.3h2.6c-0.2,0.8-0.7,1.4-1.3,1.9
				C1058.5,64.8,1057.6,65,1056.8,65z M1057.8,59.4c-0.3-0.2-0.6-0.4-1-0.3c-0.4,0-0.7,0.1-1,0.3c-0.3,0.2-0.4,0.5-0.5,0.9h2.9
				C1058.2,60,1058,59.6,1057.8,59.4L1057.8,59.4z"/>
			<path class="st5" d="M1065.2,59.5c0-0.7,0.3-1.3,0.9-1.7c0.7-0.5,1.5-0.7,2.4-0.7s1.7,0.2,2.4,0.7c0.6,0.4,1,1.1,1,1.9h-2.5
				c0-0.2-0.1-0.4-0.3-0.5c-0.2-0.1-0.5-0.2-0.7-0.2c-0.6,0-0.9,0.2-0.9,0.6s0.4,0.6,1.2,0.7c0.7,0.1,1.4,0.3,2.1,0.6
				c0.3,0.1,0.6,0.4,0.8,0.7c0.2,0.3,0.3,0.7,0.3,1.1c0,0.7-0.3,1.4-0.9,1.8c-0.7,0.5-1.5,0.7-2.4,0.7c-0.8,0-1.7-0.2-2.4-0.7
				c-0.6-0.4-1-1.2-1-1.9h2.5c0.1,0.5,0.4,0.7,1,0.7c0.2,0,0.5-0.1,0.7-0.2c0.2-0.1,0.3-0.3,0.3-0.5s-0.2-0.4-0.5-0.5
				c-0.4-0.1-0.7-0.2-1.1-0.3c-0.4-0.1-0.9-0.2-1.3-0.3s-0.8-0.3-1.1-0.7C1065.4,60.4,1065.2,59.9,1065.2,59.5z"/>
			<path class="st5" d="M1075.5,54.6v3.7c0.5-0.8,1.4-1.3,2.4-1.3c0.8,0,1.6,0.3,2.2,0.9c0.6,0.7,0.9,1.5,0.8,2.4v4.6h-2.4v-4.2
				c0-0.4-0.1-0.8-0.4-1.2c-0.3-0.3-0.7-0.4-1.1-0.4s-0.8,0.1-1.1,0.4c-0.3,0.3-0.4,0.7-0.4,1.2v4.2h-2.4V54.6H1075.5z"/>
			<path class="st5" d="M1083,63.9c-1.4-1.7-1.4-4.1,0-5.8c0.6-0.7,1.5-1.2,2.5-1.2c0.9,0,1.8,0.4,2.3,1.1v-1h2.4v7.8h-2.4v-1.1
				c-0.5,0.8-1.4,1.2-2.3,1.2C1084.5,65,1083.6,64.6,1083,63.9z M1087.3,62.5c0.4-0.4,0.6-0.9,0.5-1.4c0-0.5-0.2-1-0.5-1.4
				c-0.6-0.7-1.7-0.7-2.3,0l0,0c-0.7,0.8-0.7,2,0,2.8c0.3,0.3,0.8,0.5,1.2,0.5C1086.5,63,1087,62.8,1087.3,62.5z"/>
			<path class="st5" d="M1094.3,57.1v1.5c0.4-0.9,1.2-1.5,2.2-1.6v2.4h-0.6c-0.4,0-0.9,0.1-1.2,0.4c-0.3,0.4-0.5,0.9-0.4,1.4v3.7
				h-2.4v-7.8C1091.9,57.1,1094.3,57.1,1094.3,57.1z"/>
			<path class="st5" d="M1100.8,65c-1,0-2.1-0.4-2.8-1.1c-1.5-1.7-1.5-4.2,0-5.8c0.7-0.7,1.8-1.1,2.8-1.1c1.1,0,2.1,0.4,2.8,1.1
				c0.8,0.8,1.2,1.9,1.1,3c0,0.3,0,0.5-0.1,0.8h-5.4c0.1,0.7,0.7,1.1,1.3,1.2c0.2,0,0.5,0,0.7-0.1c0.1,0,0.2-0.1,0.3-0.2
				c0.1-0.1,0.2-0.2,0.3-0.3h2.6c-0.2,0.8-0.7,1.4-1.3,1.9C1102.4,64.8,1101.6,65,1100.8,65z M1101.8,59.4c-0.3-0.2-0.6-0.3-1-0.3
				s-0.7,0.1-1,0.3c-0.3,0.2-0.4,0.5-0.5,0.9h2.9C1102.2,60,1102,59.6,1101.8,59.4L1101.8,59.4z"/>
			<path class="st5" d="M1106.3,63.9c-1.4-1.7-1.4-4.1,0-5.8c0.6-0.7,1.6-1.2,2.5-1.2s1.8,0.4,2.3,1.1v-3.5h2.4v10.4h-2.4v-1.1
				c-0.5,0.8-1.4,1.2-2.3,1.2C1107.9,65,1107,64.6,1106.3,63.9z M1110.6,62.5c0.4-0.4,0.6-0.9,0.5-1.4c0-0.5-0.2-1-0.5-1.4
				c-0.6-0.7-1.7-0.7-2.3,0l0,0c-0.7,0.8-0.7,2,0,2.8c0.3,0.3,0.7,0.5,1.2,0.5C1109.9,63,1110.3,62.8,1110.6,62.5z"/>
			<path class="st5" d="M1121.5,56.8v0.3h1v2h-1V65h-2.4v-5.8h-0.7v-2h0.7v-0.3c-0.1-0.8,0.2-1.6,0.8-2.2c0.7-0.5,1.6-0.7,2.5-0.7v2
				c-0.2,0-0.5,0-0.7,0.2C1121.5,56.3,1121.5,56.6,1121.5,56.8z M1123.8,54.6h2.4V65h-2.4V54.6z"/>
			<path class="st5" d="M1130.1,56.2c-0.5,0.6-1.4,0.6-2,0l0,0c-0.3-0.3-0.4-0.6-0.4-1s0.1-0.7,0.4-1c0.6-0.5,1.4-0.5,2,0
				c0.3,0.3,0.4,0.6,0.4,1C1130.5,55.6,1130.4,56,1130.1,56.2z M1127.9,64.9v-7.8h2.4v7.8H1127.9z"/>
			<path class="st5" d="M1132.4,63.9c-1.4-1.7-1.4-4.1,0-5.8c0.6-0.7,1.6-1.2,2.5-1.2s1.8,0.4,2.3,1.1v-1h2.4v7.8c0,1-0.3,2-0.9,2.7
				c-0.3,0.4-0.8,0.7-1.2,0.9c-0.6,0.2-1.2,0.3-1.8,0.3c-1,0.1-2-0.2-2.8-0.7c-0.7-0.5-1.2-1.3-1.2-2.2h2.4c0.2,0.6,0.8,0.9,1.7,0.9
				c0.4,0,0.8-0.1,1.1-0.4c0.3-0.4,0.5-0.9,0.4-1.4v-1.1c-0.5,0.8-1.4,1.2-2.4,1.2C1134,65,1133.1,64.6,1132.4,63.9z M1136.7,62.5
				c0.4-0.4,0.5-0.9,0.5-1.4s-0.2-1-0.5-1.4c-0.3-0.3-0.7-0.5-1.2-0.5c-0.4,0-0.9,0.2-1.2,0.5c-0.7,0.8-0.7,2,0,2.8
				C1135,63.1,1136.1,63.1,1136.7,62.5L1136.7,62.5L1136.7,62.5z"/>
			<path class="st5" d="M1143.8,54.6v3.7c0.5-0.8,1.4-1.3,2.3-1.3c0.8,0,1.6,0.3,2.2,0.9c0.6,0.7,0.9,1.5,0.8,2.4v4.6h-2.4v-4.2
				c0-0.4-0.1-0.9-0.4-1.2c-0.6-0.6-1.6-0.6-2.2,0c-0.3,0.3-0.4,0.7-0.4,1.2v4.2h-2.4V54.6H1143.8z"/>
			<path class="st5" d="M1154.1,62.9h0.9v2h-1.2c-0.7,0-1.4-0.2-2-0.6c-0.5-0.5-0.8-1.3-0.7-2v-3.2h-0.7v-2h0.7v-1.9h2.4v1.9h1.6v2
				h-1.6v3.2C1153.4,62.7,1153.6,62.9,1154.1,62.9z"/>
			<path class="st5" d="M1163.3,65c-1,0-2.1-0.4-2.8-1.1c-1.4-1.7-1.4-4.2,0-5.8c0.7-0.7,1.8-1.1,2.8-1.1c1.1,0,2.1,0.3,2.9,1.1
				c0.8,0.8,1.2,1.9,1.1,3c0,0.3,0,0.5-0.1,0.8h-5.4c0,0.3,0.2,0.6,0.5,0.8c0.2,0.2,0.5,0.3,0.8,0.3c0.2,0,0.5,0,0.7-0.1
				c0.1,0,0.2-0.1,0.3-0.2c0.1-0.1,0.2-0.2,0.3-0.3h2.6c-0.2,0.8-0.7,1.4-1.3,1.9C1165,64.8,1164.2,65,1163.3,65z M1164.3,59.4
				c-0.3-0.2-0.6-0.4-1-0.3c-0.4,0-0.7,0.1-1,0.3c-0.3,0.2-0.4,0.5-0.5,0.9h2.9C1164.7,60,1164.6,59.6,1164.3,59.4L1164.3,59.4z"/>
			<path class="st5" d="M1175.1,57.1l-2.5,3.8l2.5,4h-2.7l-1.3-2l-1.3,2h-2.4l2.5-3.8l-2.5-4h2.7l1.3,2l1.3-2L1175.1,57.1z"/>
			<path class="st5" d="M1178.1,58.2c0.5-0.8,1.4-1.2,2.3-1.2c1,0,1.9,0.4,2.5,1.1c1.4,1.7,1.4,4.1,0,5.8c-0.6,0.7-1.5,1.1-2.5,1.1
				c-0.9,0-1.8-0.4-2.3-1.2v4.9h-2.4V57.1h2.4V58.2z M1181,62.5c0.7-0.8,0.7-2,0-2.8c-0.3-0.3-0.7-0.5-1.2-0.5
				c-0.4,0-0.9,0.2-1.2,0.5c-0.4,0.4-0.5,0.9-0.5,1.4s0.2,1,0.5,1.4C1179.3,63.1,1180.4,63.1,1181,62.5L1181,62.5L1181,62.5z"/>
			<path class="st5" d="M1188.4,65c-1,0-2.1-0.4-2.8-1.1c-1.4-1.7-1.4-4.2,0-5.8c0.7-0.7,1.8-1.1,2.8-1.1c1.1,0,2.1,0.3,2.9,1.1
				c0.8,0.8,1.2,1.9,1.1,3c0,0.3,0,0.5-0.1,0.8h-5.4c0,0.3,0.2,0.6,0.5,0.8c0.2,0.2,0.5,0.3,0.8,0.3c0.2,0,0.5,0,0.7-0.1
				c0.1,0,0.2-0.1,0.3-0.2c0.1-0.1,0.2-0.2,0.3-0.3h2.6c-0.2,0.8-0.7,1.4-1.3,1.9C1190.1,64.8,1189.3,65,1188.4,65z M1189.4,59.4
				c-0.3-0.2-0.6-0.4-1-0.3c-0.4,0-0.7,0.1-1,0.3c-0.3,0.2-0.4,0.5-0.5,0.9h2.9C1189.9,60,1189.7,59.6,1189.4,59.4L1189.4,59.4z"/>
			<path class="st5" d="M1196,57.1v1.5c0.4-0.9,1.2-1.5,2.2-1.6v2.4h-0.6c-0.4,0-0.9,0.1-1.2,0.4c-0.3,0.4-0.5,0.9-0.4,1.4v3.7h-2.4
				v-7.8C1193.6,57.1,1196,57.1,1196,57.1z"/>
			<path class="st5" d="M1201.3,56.2c-0.3,0.3-0.6,0.4-1,0.4s-0.7-0.1-1-0.4c-0.3-0.3-0.4-0.6-0.4-1s0.1-0.7,0.4-1
				c0.3-0.3,0.6-0.4,1-0.4s0.7,0.1,1,0.4c0.3,0.3,0.4,0.6,0.4,1C1201.7,55.6,1201.6,56,1201.3,56.2z M1199.1,64.9v-7.8h2.4v7.8
				H1199.1z"/>
			<path class="st5" d="M1206.6,65c-1,0-2.1-0.4-2.8-1.1c-1.4-1.7-1.4-4.2,0-5.8c0.7-0.7,1.8-1.1,2.8-1.1c1.1,0,2.1,0.3,2.9,1.1
				s1.2,1.9,1.1,3c0,0.3,0,0.5-0.1,0.8h-5.4c0,0.3,0.2,0.6,0.5,0.8c0.2,0.2,0.5,0.3,0.8,0.3c0.2,0,0.5,0,0.7-0.1
				c0.1,0,0.2-0.1,0.3-0.2c0.1-0.1,0.2-0.2,0.3-0.3h2.6c-0.2,0.8-0.7,1.4-1.3,1.9C1208.2,64.8,1207.4,65,1206.6,65z M1207.6,59.4
				c-0.3-0.2-0.6-0.4-1-0.3c-0.4,0-0.7,0.1-1,0.3c-0.3,0.2-0.4,0.5-0.5,0.9h3C1208,59.9,1207.9,59.6,1207.6,59.4L1207.6,59.4z"/>
			<path class="st5" d="M1214.1,57.1v1.1c0.5-0.8,1.4-1.3,2.4-1.2c0.8,0,1.6,0.3,2.2,0.9c0.6,0.7,0.9,1.5,0.8,2.4v4.6h-2.4v-4.2
				c0-0.4-0.1-0.9-0.4-1.2c-0.6-0.6-1.6-0.6-2.2,0c-0.3,0.3-0.4,0.7-0.4,1.2v4.2h-2.4v-7.8C1211.7,57.1,1214.1,57.1,1214.1,57.1z"/>
			<path class="st5" d="M1221.6,63.9c-1.5-1.7-1.5-4.1,0-5.8c0.7-0.7,1.8-1.1,2.8-1.1c0.9,0,1.7,0.2,2.4,0.7s1.1,1.2,1.3,2h-2.6
				c-0.2-0.4-0.6-0.7-1.1-0.7c-0.4,0-0.9,0.2-1.1,0.5c-0.5,0.9-0.5,2,0,2.8c0.2,0.4,0.7,0.6,1.1,0.5c0.2,0,0.5,0,0.7-0.2
				c0.2-0.1,0.3-0.3,0.4-0.5h2.6c-0.2,0.8-0.7,1.5-1.3,2c-0.7,0.5-1.5,0.8-2.4,0.8C1223.4,65.1,1222.4,64.7,1221.6,63.9z"/>
			<path class="st5" d="M1232.4,65c-1,0-2.1-0.4-2.8-1.1c-1.4-1.7-1.4-4.2,0-5.8c0.7-0.7,1.8-1.1,2.8-1.1c1.1,0,2.1,0.3,2.9,1.1
				s1.2,1.9,1.1,3c0,0.3,0,0.5,0,0.8h-5.4c0.1,0.7,0.6,1.2,1.3,1.2c0.2,0,0.5,0,0.7-0.1c0.1,0,0.2-0.1,0.3-0.2
				c0.1-0.1,0.2-0.2,0.3-0.3h2.6c-0.2,0.8-0.7,1.4-1.3,1.9C1234.2,64.8,1233.3,65.1,1232.4,65z M1233.4,59.4c-0.3-0.2-0.6-0.4-1-0.3
				c-0.4,0-0.7,0.1-1,0.3s-0.4,0.5-0.5,0.9h2.9C1233.8,60,1233.7,59.6,1233.4,59.4L1233.4,59.4z"/>
			<path class="st5" d="M1242,63.9c-0.8-0.8-1.2-1.8-1.2-2.9c0-1.1,0.4-2.1,1.2-2.9c0.8-0.7,1.8-1.2,2.9-1.1c1.1,0,2.1,0.4,2.9,1.1
				c0.8,0.7,1.2,1.8,1.2,2.9c0,1.1-0.4,2.1-1.2,2.9c-0.8,0.7-1.8,1.1-2.9,1.1C1243.8,65,1242.8,64.7,1242,63.9z M1246.1,62.5
				c0.3-0.4,0.5-0.9,0.5-1.5c0-0.5-0.1-1.1-0.5-1.5c-0.3-0.3-0.7-0.5-1.2-0.5c-0.4,0-0.9,0.2-1.2,0.5c-0.7,0.9-0.7,2.1,0,2.9
				c0.3,0.3,0.7,0.5,1.2,0.5C1245.4,63,1245.8,62.8,1246.1,62.5L1246.1,62.5z"/>
			<path class="st5" d="M1252.5,57.1v1.1c0.5-0.8,1.4-1.3,2.4-1.2c0.8,0,1.6,0.3,2.2,0.9c0.6,0.7,0.9,1.5,0.8,2.4v4.6h-2.4v-4.2
				c0-0.4-0.1-0.8-0.4-1.2c-0.6-0.6-1.6-0.6-2.2,0c-0.3,0.3-0.4,0.7-0.4,1.2v4.2h-2.4v-7.8C1250.1,57.1,1252.5,57.1,1252.5,57.1z"/>
			<path class="st5" d="M1269.6,64.9l-0.6-1.7h-3.5l-0.5,1.7h-2.6l3.4-9.9h2.9l3.4,9.9H1269.6z M1266.1,61.5h2.3l-1.2-3.5
				L1266.1,61.5z"/>
			<path class="st5" d="M1275.3,58.2c0.5-0.7,1.4-1.2,2.3-1.1c1,0,1.9,0.4,2.5,1.1c1.4,1.7,1.4,4.1,0,5.8c-0.6,0.7-1.5,1.1-2.5,1.1
				c-0.9,0-1.8-0.4-2.3-1.2v4.9h-2.4V57.1h2.4V58.2z M1278.2,62.5c0.7-0.8,0.7-2,0-2.8c-0.6-0.7-1.7-0.7-2.3,0l0,0
				c-0.4,0.4-0.6,0.9-0.5,1.4c0,0.5,0.2,1,0.5,1.4c0.3,0.3,0.7,0.5,1.2,0.5C1277.5,63,1277.9,62.8,1278.2,62.5z"/>
			<path class="st5" d="M1284.7,58.2c0.5-0.7,1.4-1.2,2.3-1.1c1,0,1.9,0.4,2.5,1.1c1.4,1.7,1.4,4.1,0,5.8c-0.6,0.7-1.5,1.1-2.5,1.1
				c-0.9,0-1.8-0.4-2.3-1.2v4.9h-2.4V57.1h2.4V58.2z M1287.6,62.5c0.7-0.8,0.7-2,0-2.8c-0.6-0.7-1.7-0.7-2.3,0l0,0
				c-0.4,0.4-0.6,0.9-0.5,1.4c0,0.5,0.2,1,0.5,1.4c0.3,0.3,0.7,0.5,1.2,0.5C1286.9,63,1287.3,62.8,1287.6,62.5z"/>
			<path class="st5" d="M1293,63.2l-1.6,3.8h-0.8l1-3.8H1293z"/>
			<path class="st5" d="M652.9,81c0.3-0.6,0.8-1,1.3-1.4c0.6-0.3,1.2-0.5,1.9-0.5c0.6,0,1.2,0.1,1.8,0.4c0.5,0.3,0.8,0.6,1.1,1.1
				v-1.4h1.3v7.7H659v-1.4c-0.3,0.5-0.7,0.9-1.1,1.1c-0.5,0.3-1.1,0.5-1.8,0.4c-0.6,0-1.3-0.2-1.8-0.5c-0.6-0.3-1-0.8-1.3-1.4
				s-0.5-1.4-0.5-2.1C652.4,82.4,652.6,81.6,652.9,81z M658.6,81.6c-0.2-0.4-0.5-0.8-0.9-1s-0.9-0.3-1.3-0.3c-0.5,0-0.9,0.1-1.3,0.3
				c-0.4,0.2-0.7,0.6-0.9,1c-0.2,0.5-0.4,1-0.4,1.5s0.1,1.1,0.4,1.5c0.4,0.8,1.3,1.3,2.2,1.3c0.5,0,0.9-0.1,1.3-0.3
				c0.4-0.2,0.7-0.6,0.9-1c0.2-0.5,0.4-1,0.4-1.5C658.9,82.6,658.8,82,658.6,81.6L658.6,81.6z"/>
			<path class="st5" d="M668,80c0.6,0.7,0.9,1.5,0.9,2.4V87h-1.3v-4.4c0-0.6-0.2-1.3-0.6-1.8c-0.4-0.4-1-0.6-1.6-0.6
				c-0.6,0-1.2,0.2-1.6,0.6c-0.4,0.5-0.6,1.2-0.6,1.8v4.2h-1.3v-7.7h1.3v1.1c0.2-0.4,0.6-0.7,1-0.9C665.5,78.9,666.9,79.1,668,80
				L668,80z"/>
			<path class="st5" d="M670.5,81c0.3-0.6,0.8-1,1.3-1.4c0.6-0.3,1.2-0.5,1.9-0.5c0.6,0,1.2,0.1,1.7,0.4s0.9,0.6,1.2,1.1v-4.1h1.3
				v10.4h-1.3v-1.4c-0.3,0.5-0.7,0.9-1.1,1.1c-0.5,0.3-1.1,0.5-1.7,0.4c-0.7,0-1.3-0.2-1.9-0.5c-0.6-0.3-1-0.8-1.3-1.4
				c-0.3-0.6-0.5-1.4-0.5-2.1C670.1,82.4,670.2,81.6,670.5,81z M676.2,81.6c-0.2-0.4-0.5-0.8-0.9-1c-0.4-0.2-0.9-0.3-1.3-0.3
				c-0.5,0-0.9,0.1-1.3,0.3c-0.4,0.2-0.7,0.6-0.9,1c-0.2,0.5-0.4,1-0.4,1.5s0.1,1.1,0.4,1.5c0.4,0.8,1.3,1.3,2.2,1.3
				c0.5,0,0.9-0.1,1.3-0.3c0.4-0.2,0.7-0.6,0.9-1c0.2-0.5,0.4-1,0.4-1.5C676.6,82.6,676.5,82,676.2,81.6L676.2,81.6z"/>
			<path class="st5" d="M693.8,77.1h2.6l-2.8,9.8h-2.7l-1.7-6.2l-1.7,6.2h-2.8l-2.8-9.8h2.6l1.7,7.1l1.8-7.1h2.7l1.7,7L693.8,77.1z"
				/>
			<path class="st5" d="M700.5,87c-1,0-2.1-0.4-2.8-1.1c-1.4-1.7-1.4-4.2,0-5.8c0.7-0.7,1.8-1.1,2.8-1.1c1.1,0,2.1,0.3,2.9,1.1
				c0.8,0.8,1.2,1.9,1.1,3c0,0.3,0,0.5-0.1,0.8h-5.3c0,0.3,0.2,0.6,0.5,0.8c0.2,0.2,0.5,0.3,0.9,0.3c0.2,0,0.5,0,0.7-0.1
				c0.1,0,0.2-0.1,0.3-0.2s0.2-0.2,0.3-0.3h2.6c-0.2,0.8-0.7,1.4-1.4,1.9C702.2,86.8,701.4,87,700.5,87z M701.5,81.4
				c-0.3-0.2-0.6-0.4-1-0.3c-0.4,0-0.7,0.1-1,0.3c-0.3,0.2-0.4,0.5-0.5,0.9h2.9C701.9,82,701.8,81.6,701.5,81.4L701.5,81.4z"/>
			<path class="st5" d="M708,80.2c0.5-0.8,1.4-1.2,2.3-1.2c1,0,1.9,0.4,2.5,1.1c1.4,1.7,1.4,4.1,0,5.8c-0.6,0.7-1.6,1.1-2.5,1.1
				s-1.8-0.4-2.3-1.2v1.1h-2.4V76.6h2.4V80.2z M710.9,84.5c0.7-0.8,0.7-2,0-2.8c-0.6-0.7-1.7-0.7-2.3,0l0,0
				c-0.4,0.4-0.6,0.9-0.5,1.4c0,0.5,0.2,1,0.5,1.4c0.3,0.3,0.7,0.5,1.2,0.5C710.2,85,710.6,84.8,710.9,84.5z"/>
			<path class="st5" d="M714.5,81.5c0-0.7,0.3-1.3,0.9-1.7c0.7-0.5,1.5-0.7,2.4-0.7s1.7,0.2,2.4,0.7c0.6,0.4,1,1.1,1,1.9h-2.5
				c0-0.2-0.1-0.4-0.3-0.6c-0.2-0.1-0.5-0.2-0.7-0.2c-0.6,0-0.9,0.2-0.9,0.6s0.4,0.6,1.2,0.7c0.7,0.1,1.4,0.3,2.1,0.6
				c0.3,0.1,0.6,0.4,0.8,0.7c0.2,0.3,0.3,0.7,0.3,1.1c0,0.7-0.3,1.4-0.9,1.8c-0.7,0.5-1.5,0.7-2.4,0.7c-0.8,0-1.7-0.2-2.4-0.7
				c-0.6-0.4-1-1.2-1-1.9h2.5c0.1,0.5,0.4,0.7,1,0.7c0.2,0,0.5-0.1,0.7-0.2c0.2-0.1,0.3-0.3,0.3-0.5s-0.2-0.4-0.5-0.5
				c-0.4-0.1-0.7-0.2-1.1-0.3c-0.4-0.1-0.9-0.2-1.3-0.3c-0.4-0.1-0.8-0.3-1.1-0.7C714.6,82.4,714.5,81.9,714.5,81.5z"/>
			<path class="st5" d="M724.6,78.2c-0.5,0.6-1.4,0.6-2,0l0,0c-0.3-0.3-0.4-0.6-0.4-1s0.1-0.7,0.4-1c0.6-0.5,1.4-0.5,2,0
				c0.3,0.3,0.4,0.6,0.4,1S724.8,78,724.6,78.2z M722.4,86.9v-7.8h2.4v7.8H722.4z"/>
			<path class="st5" d="M729.8,84.9h0.8v2h-1.2c-0.7,0-1.4-0.2-2-0.6c-0.5-0.5-0.8-1.3-0.7-2v-3.2H726v-2h0.7v-1.9h2.4v1.9h1.6v2
				h-1.6v3.2C729.1,84.7,729.3,84.9,729.8,84.9z"/>
			<path class="st5" d="M735.2,87c-1,0-2.1-0.4-2.8-1.1c-0.7-0.8-1.1-1.8-1.1-2.9c-0.1-1.1,0.3-2.1,1.1-2.9c0.7-0.7,1.8-1.1,2.8-1.1
				c1.1,0,2.1,0.4,2.9,1.1c0.8,0.8,1.2,1.9,1.1,3c0,0.3,0,0.5,0,0.8h-5.4c0.1,0.6,0.7,1.1,1.3,1.1c0.2,0,0.5,0,0.7-0.1
				c0.1,0,0.2-0.1,0.3-0.2s0.2-0.2,0.3-0.3h2.6c-0.2,0.8-0.7,1.4-1.3,1.9C736.9,86.8,736.1,87,735.2,87z M736.2,81.4
				c-0.3-0.2-0.6-0.3-1-0.3s-0.7,0.1-1,0.3c-0.3,0.2-0.4,0.5-0.5,0.9h2.9C736.6,82,736.5,81.7,736.2,81.4L736.2,81.4z"/>
			<path class="st5" d="M741.7,85.2l-1.6,3.8h-0.9l1-3.8H741.7z"/>
			<path class="st5" d="M753.1,83.6H747c0,0.7,0.3,1.3,0.8,1.8c0.5,0.4,1.1,0.7,1.7,0.6c0.5,0,1-0.1,1.4-0.4c0.4-0.2,0.6-0.6,0.8-1
				h1.4c-0.2,0.7-0.6,1.4-1.2,1.8c-0.7,0.5-1.5,0.7-2.3,0.7c-0.7,0-1.4-0.1-2-0.5c-0.6-0.3-1.1-0.8-1.4-1.4s-0.5-1.4-0.5-2.1
				s0.2-1.4,0.5-2.1c0.3-0.6,0.8-1.1,1.3-1.4c0.6-0.3,1.3-0.5,2-0.5c0.7,0,1.3,0.2,1.9,0.5s1,0.8,1.3,1.3c0.3,0.6,0.5,1.2,0.5,1.9
				C753.1,83.1,753.1,83.3,753.1,83.6z M751.5,81.3c-0.2-0.3-0.5-0.6-0.9-0.8c-0.4-0.2-0.8-0.3-1.2-0.3c-0.6,0-1.2,0.2-1.7,0.6
				c-0.5,0.5-0.7,1.1-0.8,1.7h4.8C751.8,82.1,751.7,81.7,751.5,81.3L751.5,81.3z"/>
			<path class="st5" d="M758.4,86.9l-1.8-2.9l-1.8,2.9h-1.3l2.5-3.8l-2.5-3.9h1.4l1.8,2.8l1.7-2.8h1.3l-2.5,3.8l2.5,3.9H758.4z"/>
			<path class="st5" d="M763.1,79.6c0.5-0.3,1.1-0.5,1.7-0.4c0.7,0,1.3,0.2,1.9,0.5c0.6,0.3,1,0.8,1.3,1.4c0.3,0.6,0.5,1.3,0.5,2.1
				c0,0.7-0.1,1.4-0.5,2.1c-0.3,0.6-0.8,1.1-1.3,1.4c-0.6,0.3-1.2,0.5-1.9,0.5c-0.6,0-1.2-0.1-1.7-0.4s-0.9-0.6-1.1-1.1v5.1h-1.3
				V79.3h1.3v1.4C762.3,80.2,762.6,79.8,763.1,79.6z M766.8,81.6c-0.2-0.4-0.6-0.8-1-1s-0.8-0.3-1.3-0.3s-0.9,0.1-1.3,0.3
				c-0.4,0.2-0.8,0.6-1,1c-0.5,0.9-0.5,2.1,0,3c0.2,0.4,0.6,0.8,1,1s0.8,0.3,1.3,0.3s0.9-0.1,1.3-0.3c0.4-0.2,0.8-0.6,1-1
				c0.2-0.5,0.4-1,0.3-1.5C767.2,82.5,767.1,82,766.8,81.6L766.8,81.6z"/>
			<path class="st5" d="M771.1,76.6V87h-1.3V76.6H771.1z"/>
			<path class="st5" d="M774.2,86.6c-0.6-0.3-1.1-0.8-1.4-1.4c-0.3-0.6-0.5-1.4-0.5-2.1s0.2-1.4,0.5-2.1c0.3-0.6,0.8-1.1,1.4-1.4
				c1.3-0.7,2.7-0.7,4,0c0.6,0.3,1,0.8,1.3,1.4c0.3,0.6,0.5,1.4,0.5,2.1s-0.2,1.5-0.5,2.1c-0.3,0.6-0.8,1.1-1.4,1.4s-1.3,0.5-2,0.5
				C775.5,87.1,774.8,86.9,774.2,86.6z M777.5,85.6c0.4-0.2,0.8-0.6,1-1c0.3-0.5,0.4-1,0.4-1.6c0-0.5-0.1-1.1-0.4-1.6
				c-0.2-0.4-0.6-0.8-1-1c-0.8-0.4-1.8-0.4-2.5,0c-0.4,0.2-0.7,0.6-0.9,1c-0.2,0.5-0.4,1-0.3,1.6c0,0.5,0.1,1.1,0.3,1.6
				c0.2,0.4,0.5,0.8,0.9,1s0.8,0.3,1.3,0.3C776.6,85.9,777.1,85.8,777.5,85.6z"/>
			<path class="st5" d="M783.6,79.5c0.5-0.3,1-0.4,1.5-0.4v1.3h-0.3c-1.4,0-2.1,0.8-2.1,2.3v4.2h-1.3v-7.7h1.3v1.2
				C782.9,80.1,783.2,79.7,783.6,79.5z"/>
			<path class="st5" d="M793.2,83.6h-6.1c0,0.7,0.3,1.3,0.8,1.8c0.5,0.4,1.1,0.7,1.7,0.6c0.5,0,1-0.1,1.4-0.4c0.4-0.2,0.6-0.6,0.8-1
				h1.3c-0.2,0.7-0.6,1.4-1.2,1.8c-0.7,0.5-1.5,0.7-2.3,0.7c-0.7,0-1.4-0.1-2-0.5c-0.6-0.3-1-0.8-1.3-1.4c-0.6-1.3-0.6-2.9,0-4.2
				c0.3-0.6,0.8-1.1,1.3-1.4c0.6-0.3,1.3-0.5,2-0.5c0.7,0,1.3,0.2,1.9,0.5c0.5,0.3,1,0.8,1.3,1.3c0.3,0.6,0.5,1.2,0.5,1.9
				C793.2,83.1,793.2,83.3,793.2,83.6z M791.6,81.3c-0.2-0.3-0.5-0.6-0.9-0.8c-0.4-0.2-0.8-0.3-1.2-0.3c-0.6,0-1.2,0.2-1.7,0.6
				s-0.7,1.1-0.8,1.7h4.8C791.9,82.1,791.8,81.7,791.6,81.3z"/>
			<path class="st5" d="M800.3,79.6c0.5-0.3,1.1-0.5,1.8-0.4c0.7,0,1.3,0.2,1.8,0.5c0.6,0.3,1,0.8,1.3,1.4c0.3,0.6,0.5,1.3,0.5,2.1
				c0,0.7-0.2,1.4-0.5,2.1c-0.3,0.6-0.8,1.1-1.3,1.4c-0.6,0.3-1.2,0.5-1.8,0.5s-1.2-0.1-1.7-0.4s-0.9-0.6-1.1-1.1v5.1H798V79.3h1.3
				v1.4C799.4,80.2,799.8,79.8,800.3,79.6z M804,81.6c-0.2-0.4-0.5-0.8-0.9-1s-0.9-0.3-1.3-0.3c-0.5,0-0.9,0.1-1.3,0.3
				c-0.4,0.2-0.8,0.6-1,1c-0.5,0.9-0.5,2.1,0,3c0.2,0.4,0.6,0.8,1,1s0.8,0.3,1.3,0.3s0.9-0.1,1.4-0.3c0.4-0.2,0.7-0.6,0.9-1
				c0.2-0.5,0.4-1,0.3-1.5C804.4,82.5,804.3,82,804,81.6L804,81.6z"/>
			<path class="st5" d="M808.3,86.6c-0.6-0.3-1.1-0.8-1.4-1.4c-0.7-1.3-0.7-2.9,0-4.2c0.3-0.6,0.8-1.1,1.4-1.4c1.3-0.7,2.7-0.7,4,0
				c0.6,0.3,1,0.8,1.3,1.4c0.3,0.6,0.5,1.4,0.5,2.1s-0.2,1.5-0.5,2.1c-0.3,0.6-0.8,1.1-1.4,1.4c-0.6,0.3-1.3,0.5-2,0.5
				C809.6,87.1,808.9,86.9,808.3,86.6z M811.6,85.6c0.4-0.2,0.8-0.6,1-1c0.3-0.5,0.4-1,0.4-1.6c0-0.5-0.1-1.1-0.4-1.6
				c-0.2-0.4-0.6-0.8-1-1s-0.8-0.3-1.3-0.3c-0.4,0-0.9,0.1-1.3,0.3c-0.4,0.2-0.7,0.6-0.9,1c-0.2,0.5-0.4,1-0.3,1.6
				c0,0.5,0.1,1.1,0.3,1.6c0.2,0.4,0.5,0.8,0.9,1s0.8,0.3,1.3,0.3C810.7,85.9,811.2,85.8,811.6,85.6z"/>
			<path class="st5" d="M817.1,80.3v4.5c0,0.3,0.1,0.6,0.2,0.8c0.2,0.2,0.5,0.3,0.8,0.2h0.9v1.1h-1.2c-0.6,0-1.1-0.1-1.6-0.5
				c-0.4-0.4-0.6-1-0.5-1.6v-4.5h-1v-1h1v-2h1.3v1.9h2v1L817.1,80.3z"/>
			<path class="st5" d="M827.2,83.6h-6.1c0,0.7,0.3,1.3,0.8,1.8c0.5,0.4,1.1,0.7,1.7,0.6c0.5,0,1-0.1,1.4-0.4c0.4-0.2,0.6-0.6,0.8-1
				h1.4c-0.2,0.7-0.6,1.4-1.2,1.8c-0.7,0.5-1.5,0.7-2.3,0.7c-0.7,0-1.4-0.2-2-0.5s-1-0.8-1.3-1.4c-0.3-0.6-0.5-1.4-0.5-2.1
				s0.1-1.4,0.5-2.1c0.3-0.6,0.8-1.1,1.3-1.4c0.6-0.3,1.3-0.5,2-0.5c0.7,0,1.3,0.2,1.9,0.5c0.5,0.3,1,0.8,1.3,1.3
				c0.3,0.6,0.5,1.2,0.5,1.9C827.3,83.1,827.2,83.3,827.2,83.6z M825.6,81.3c-0.2-0.3-0.5-0.6-0.9-0.8c-0.4-0.2-0.8-0.3-1.2-0.3
				c-0.6,0-1.2,0.2-1.7,0.6s-0.7,1.1-0.8,1.7h4.8C825.9,82.1,825.8,81.7,825.6,81.3z"/>
			<path class="st5" d="M834.5,80c0.6,0.7,0.9,1.5,0.9,2.4V87h-1.3v-4.4c0-0.6-0.2-1.3-0.6-1.8c-0.4-0.4-1-0.6-1.6-0.6
				s-1.2,0.2-1.6,0.6c-0.4,0.5-0.6,1.2-0.6,1.8v4.2h-1.3v-7.7h1.3v1.1c0.2-0.4,0.6-0.7,1-0.9C832,78.9,833.5,79.1,834.5,80L834.5,80
				z"/>
			<path class="st5" d="M838.6,80.3v4.5c0,0.3,0.1,0.6,0.2,0.8c0.2,0.2,0.5,0.3,0.8,0.2h0.9v1.1h-1.2c-0.6,0-1.1-0.1-1.6-0.5
				c-0.4-0.4-0.6-1-0.5-1.6v-4.5h-1v-1h1v-2h1.3v1.9h2v1L838.6,80.3z"/>
			<path class="st5" d="M841.8,77.8c-0.2-0.2-0.3-0.4-0.2-0.6c0-0.2,0.1-0.5,0.2-0.6c0.2-0.2,0.4-0.3,0.6-0.3s0.4,0.1,0.6,0.3
				c0.2,0.2,0.2,0.4,0.2,0.6s-0.1,0.5-0.2,0.6c-0.2,0.2-0.4,0.3-0.6,0.2C842.2,78,842,77.9,841.8,77.8z M843,79.3V87h-1.3v-7.7H843z
				"/>
			<path class="st5" d="M844.8,81c0.3-0.6,0.7-1,1.3-1.4c0.6-0.3,1.2-0.5,1.8-0.5s1.2,0.1,1.8,0.4c0.5,0.3,0.8,0.6,1.1,1.1v-1.4h1.3
				v7.7h-1.3v-1.4c-0.3,0.5-0.7,0.9-1.1,1.1c-0.5,0.3-1.1,0.5-1.7,0.4c-0.7,0-1.3-0.2-1.8-0.5c-0.6-0.3-1-0.8-1.3-1.4
				c-0.3-0.6-0.5-1.4-0.5-2.1C844.3,82.3,844.5,81.6,844.8,81z M850.5,81.6c-0.2-0.4-0.5-0.8-1-1c-0.4-0.2-0.9-0.3-1.3-0.3
				c-0.5,0-0.9,0.1-1.3,0.3c-0.4,0.2-0.7,0.6-0.9,1c-0.2,0.5-0.4,1-0.3,1.5c0,0.5,0.1,1.1,0.3,1.5c0.2,0.4,0.5,0.8,0.9,1
				c0.8,0.5,1.8,0.5,2.6,0c0.4-0.2,0.7-0.6,1-1c0.2-0.5,0.4-1,0.3-1.5C850.9,82.6,850.7,82,850.5,81.6L850.5,81.6z"/>
			<path class="st5" d="M855.2,76.6V87h-1.3V76.6H855.2z"/>
			<path class="st5" d="M862.7,79.1v1.1c0.5-0.8,1.4-1.3,2.4-1.3c0.5,0,1.1,0.1,1.5,0.4s0.8,0.7,1,1.1c0.3-0.4,0.7-0.8,1.1-1.1
				c0.5-0.3,1-0.4,1.5-0.4c0.8,0,1.7,0.3,2.3,0.9c0.6,0.7,0.9,1.6,0.8,2.4v4.6h-2.4v-4.2c0-0.4-0.1-0.8-0.4-1.2
				c-0.3-0.3-0.7-0.4-1.1-0.4s-0.8,0.1-1.1,0.4c-0.3,0.3-0.4,0.7-0.4,1.2v4.2h-2.4v-4.2c0-0.4-0.1-0.9-0.4-1.2
				c-0.6-0.6-1.6-0.6-2.2,0c-0.3,0.3-0.4,0.7-0.4,1.2v4.2h-2.4V79h2.6V79.1z"/>
			<path class="st5" d="M875.5,85.9c-1.4-1.7-1.4-4.1,0-5.8c0.6-0.7,1.5-1.2,2.5-1.2c0.9,0,1.8,0.4,2.3,1.1v-1h2.4v7.8h-2.4v-1.1
				c-0.5,0.8-1.4,1.2-2.3,1.2C877.1,87,876.2,86.6,875.5,85.9z M879.8,84.5c0.4-0.4,0.6-0.9,0.5-1.4c0-0.5-0.2-1-0.5-1.4
				c-0.6-0.7-1.7-0.7-2.3,0l0,0c-0.7,0.8-0.7,2,0,2.8c0.3,0.3,0.7,0.5,1.2,0.5C879.1,85,879.5,84.8,879.8,84.5L879.8,84.5z"/>
			<path class="st5" d="M886.8,79.1v1.4c0.4-0.9,1.3-1.6,2.3-1.6v2.4h-0.6c-0.4,0-0.9,0.1-1.2,0.4c-0.3,0.4-0.5,0.9-0.4,1.4v3.7
				h-2.4V79L886.8,79.1L886.8,79.1z"/>
			<path class="st5" d="M892.4,86.9H890V76.6h2.4v5.8l2.4-3.3h3.2l-3.3,4l3.3,3.8h-3.2l-2.5-3.1L892.4,86.9L892.4,86.9z"/>
			<path class="st5" d="M902.1,87c-1,0-2.1-0.4-2.8-1.1c-1.5-1.7-1.5-4.2,0-5.8c0.7-0.7,1.8-1.1,2.8-1.1c1.1,0,2.1,0.4,2.8,1.1
				c0.8,0.8,1.2,1.9,1.1,3c0,0.3,0,0.5-0.1,0.8h-5.4c0.1,0.7,0.7,1.1,1.3,1.2c0.2,0,0.5,0,0.7-0.1c0.1,0,0.2-0.1,0.3-0.2
				s0.2-0.2,0.3-0.3h2.6c-0.2,0.8-0.7,1.4-1.3,1.9C903.7,86.8,902.9,87,902.1,87z M903.1,81.4c-0.3-0.2-0.6-0.3-1-0.3
				s-0.7,0.1-1,0.3c-0.3,0.2-0.4,0.5-0.5,0.9h2.9C903.5,82,903.4,81.6,903.1,81.4L903.1,81.4z"/>
			<path class="st5" d="M910.5,84.9h0.9v2h-1.3c-0.7,0-1.4-0.2-2-0.6c-0.5-0.5-0.8-1.3-0.7-2v-3.2h-0.7v-2h0.7v-1.9h2.4v1.9h1.6v2
				h-1.6v3.2C909.8,84.7,910,84.9,910.5,84.9z"/>
			<path class="st5" d="M917,85.9c-0.8-0.8-1.2-1.8-1.2-2.9s0.4-2.1,1.2-2.9c0.8-0.7,1.8-1.1,2.9-1.1s2.1,0.4,2.9,1.1
				c0.8,0.8,1.2,1.8,1.2,2.9s-0.4,2.1-1.2,2.9c-0.8,0.7-1.8,1.1-2.9,1.1C918.9,87.1,917.8,86.7,917,85.9z M921.1,84.5
				c0.6-0.9,0.6-2,0-2.9c-0.3-0.3-0.7-0.5-1.2-0.5c-0.4,0-0.9,0.2-1.2,0.5c-0.3,0.4-0.5,0.9-0.5,1.4s0.1,1.1,0.5,1.5
				c0.3,0.3,0.7,0.5,1.2,0.5S920.8,84.8,921.1,84.5z"/>
			<path class="st5" d="M927.6,80.2c0.5-0.7,1.4-1.2,2.3-1.2c1,0,1.9,0.4,2.5,1.1c1.4,1.7,1.4,4.1,0,5.8c-0.6,0.7-1.6,1.1-2.5,1.1
				s-1.8-0.4-2.3-1.2v4.9h-2.4V79.1h2.4V80.2z M930.5,84.5c0.7-0.8,0.7-2,0-2.8c-0.3-0.3-0.7-0.5-1.2-0.5c-0.4,0-0.9,0.2-1.2,0.5
				c-0.4,0.4-0.6,0.9-0.5,1.4c0,0.5,0.2,1,0.5,1.4C928.7,85.1,929.8,85.1,930.5,84.5C930.4,84.5,930.4,84.5,930.5,84.5L930.5,84.5z"
				/>
			<path class="st5" d="M936.9,80.2c0.5-0.7,1.4-1.2,2.3-1.2c1,0,1.9,0.4,2.5,1.1c1.4,1.7,1.4,4.1,0,5.8c-0.6,0.7-1.6,1.1-2.5,1.1
				s-1.8-0.4-2.3-1.2v4.9h-2.4V79.1h2.4V80.2z M939.8,84.5c0.7-0.8,0.7-2,0-2.8c-0.3-0.3-0.7-0.5-1.2-0.5c-0.4,0-0.9,0.2-1.2,0.5
				c-0.4,0.4-0.6,0.9-0.5,1.4c0,0.5,0.2,1,0.5,1.4C938.1,85.1,939.2,85.1,939.8,84.5L939.8,84.5L939.8,84.5z"/>
			<path class="st5" d="M944.5,85.9c-0.8-0.8-1.2-1.8-1.2-2.9c-0.1-1.1,0.4-2.1,1.2-2.9c1.7-1.5,4.1-1.5,5.8,0
				c0.8,0.7,1.2,1.8,1.2,2.9s-0.4,2.1-1.2,2.9c-0.8,0.7-1.8,1.1-2.9,1.1C946.4,87.1,945.3,86.7,944.5,85.9z M948.6,84.5
				c0.6-0.9,0.6-2,0-2.9c-0.3-0.3-0.7-0.5-1.2-0.5c-0.4,0-0.9,0.2-1.2,0.5c-0.3,0.4-0.5,0.9-0.5,1.4s0.1,1.1,0.5,1.5
				c0.3,0.3,0.7,0.5,1.2,0.5S948.3,84.8,948.6,84.5z"/>
			<path class="st5" d="M955.1,79.1v1.4c0.4-0.9,1.2-1.5,2.2-1.6v2.4h-0.6c-0.4,0-0.9,0.1-1.2,0.4c-0.3,0.4-0.5,0.9-0.4,1.4v3.7
				h-2.4V79L955.1,79.1L955.1,79.1z"/>
			<path class="st5" d="M961.5,84.9h0.9v2h-1.2c-0.7,0-1.4-0.2-2-0.6c-0.5-0.5-0.8-1.3-0.7-2v-3.2h-0.7v-2h0.7v-1.9h2.4v1.9h1.6v2
				h-1.6v3.2C960.8,84.7,961.1,84.9,961.5,84.9z"/>
			<path class="st5" d="M968.9,79.1h2.4v7.8h-2.4v-1.1c-0.5,0.8-1.4,1.3-2.4,1.2c-0.8,0-1.6-0.3-2.2-0.9c-0.6-0.7-0.9-1.6-0.8-2.4
				v-4.5h2.4v4.2c0,0.4,0.1,0.8,0.4,1.2c0.6,0.5,1.6,0.5,2.2,0c0.3-0.3,0.4-0.7,0.4-1.2V79.1L968.9,79.1z"/>
			<path class="st5" d="M975.4,79.1v1.1c0.5-0.8,1.4-1.3,2.4-1.3c0.8,0,1.6,0.3,2.2,0.9c0.6,0.7,0.9,1.5,0.8,2.4v4.6h-2.4v-4.2
				c0-0.4-0.1-0.9-0.4-1.2c-0.6-0.6-1.6-0.6-2.2,0c-0.3,0.3-0.4,0.7-0.4,1.2v4.2H973V79h2.4V79.1z"/>
			<path class="st5" d="M984.6,78.2c-0.3,0.3-0.6,0.4-1,0.4s-0.7-0.1-1-0.4c-0.3-0.3-0.4-0.6-0.4-1c0-0.8,0.6-1.4,1.3-1.4
				c0,0,0,0,0.1,0c0.4,0,0.7,0.1,1,0.4c0.3,0.3,0.4,0.6,0.4,1S984.9,78,984.6,78.2z M982.5,86.9v-7.8h2.4v7.8H982.5z"/>
			<path class="st5" d="M989.9,84.9h0.8v2h-1.2c-0.7,0-1.4-0.2-2-0.6c-0.5-0.5-0.8-1.3-0.7-2v-3.2h-0.7v-2h0.7v-1.9h2.3v1.9h1.6v2
				h-1.6v3.2C989.1,84.7,989.4,84.9,989.9,84.9z"/>
			<path class="st5" d="M994.1,78.2c-0.3,0.3-0.6,0.4-1,0.4s-0.7-0.1-1-0.4c-0.3-0.3-0.4-0.6-0.4-1c0-0.8,0.6-1.4,1.3-1.4
				c0,0,0,0,0.1,0c0.4,0,0.7,0.1,1,0.4c0.3,0.3,0.4,0.6,0.4,1C994.6,77.6,994.4,78,994.1,78.2z M992,86.9v-7.8h2.4v7.8H992z"/>
			<path class="st5" d="M999.4,87c-1,0-2.1-0.4-2.8-1.1c-1.4-1.7-1.4-4.2,0-5.8c0.7-0.7,1.8-1.1,2.8-1.1c1.1,0,2.1,0.4,2.8,1.1
				c0.8,0.8,1.2,1.9,1.1,3c0,0.3,0,0.5-0.1,0.8h-5.4c0,0.3,0.2,0.6,0.5,0.8c0.2,0.2,0.5,0.3,0.8,0.3c0.2,0,0.5,0,0.7-0.1
				c0.1,0,0.2-0.1,0.3-0.2s0.2-0.2,0.3-0.3h2.6c-0.2,0.8-0.7,1.4-1.3,1.9C1001.1,86.8,1000.2,87,999.4,87z M1000.4,81.4
				c-0.3-0.2-0.6-0.4-1-0.3c-0.4,0-0.7,0.1-1,0.3c-0.3,0.2-0.4,0.5-0.5,0.9h2.9C1000.8,82,1000.7,81.6,1000.4,81.4L1000.4,81.4z"/>
			<path class="st5" d="M1004,81.5c0-0.7,0.3-1.3,0.9-1.7c0.7-0.5,1.5-0.7,2.4-0.7s1.7,0.2,2.4,0.7c0.6,0.4,1,1.1,1,1.9h-2.5
				c0-0.2-0.1-0.4-0.3-0.6c-0.2-0.1-0.5-0.2-0.7-0.2c-0.6,0-0.9,0.2-0.9,0.6s0.4,0.6,1.2,0.7c0.7,0.1,1.4,0.3,2.1,0.6
				c0.3,0.1,0.6,0.4,0.8,0.7c0.2,0.3,0.3,0.7,0.3,1.1c0,0.7-0.3,1.4-0.9,1.8c-0.7,0.5-1.5,0.7-2.4,0.7c-0.8,0-1.7-0.2-2.4-0.7
				c-0.6-0.4-1-1.2-1-1.9h2.5c0.1,0.5,0.4,0.7,1,0.7c0.2,0,0.4-0.1,0.6-0.2s0.3-0.3,0.3-0.5s-0.2-0.4-0.5-0.5
				c-0.4-0.1-0.7-0.2-1.1-0.3c-0.4-0.1-0.9-0.2-1.3-0.3c-0.4-0.1-0.8-0.3-1.1-0.7C1004.1,82.4,1004,81.9,1004,81.5z"/>
			<path class="st5" d="M1013.3,85.2l-1.6,3.8h-0.8l1-3.8H1013.3z"/>
			<path class="st5" d="M1017.7,81c0.3-0.6,0.8-1.1,1.3-1.4c0.6-0.3,1.2-0.5,1.8-0.5s1.2,0.1,1.8,0.4c0.5,0.3,0.8,0.6,1.1,1.1v-1.4
				h1.3v7.7h-1.3v-1.4c-0.3,0.5-0.7,0.9-1.1,1.1c-0.5,0.3-1.1,0.5-1.7,0.4c-0.7,0-1.3-0.2-1.8-0.5c-0.6-0.3-1-0.8-1.3-1.4
				c-0.3-0.6-0.5-1.4-0.5-2.1C1017.2,82.4,1017.3,81.6,1017.7,81z M1023.3,81.6c-0.2-0.4-0.6-0.8-1-1s-0.9-0.3-1.3-0.3
				c-0.5,0-0.9,0.1-1.3,0.3c-0.4,0.2-0.7,0.6-0.9,1c-0.2,0.5-0.4,1-0.3,1.5c0,0.5,0.1,1.1,0.3,1.5c0.2,0.4,0.5,0.8,0.9,1
				s0.8,0.3,1.3,0.3s0.9-0.1,1.3-0.3c0.4-0.2,0.8-0.6,1-1c0.2-0.5,0.4-1,0.3-1.5C1023.7,82.6,1023.6,82,1023.3,81.6L1023.3,81.6z"/>
			<path class="st5" d="M1032.7,80c0.6,0.7,0.9,1.5,0.9,2.4V87h-1.3v-4.4c0-0.6-0.2-1.3-0.6-1.8c-0.9-0.8-2.3-0.8-3.2,0
				c-0.4,0.5-0.6,1.2-0.6,1.8v4.2h-1.3v-7.6h1.3v1.1c0.2-0.4,0.6-0.7,1-0.9c0.4-0.2,0.9-0.3,1.4-0.3
				C1031.3,79.1,1032.1,79.4,1032.7,80z"/>
			<path class="st5" d="M1035.3,81c0.3-0.6,0.8-1.1,1.3-1.4c1.1-0.6,2.4-0.7,3.5-0.1c0.5,0.2,0.9,0.6,1.2,1.1v-4h1.3V87h-1.3v-1.4
				c-0.3,0.5-0.7,0.9-1.1,1.1c-0.5,0.3-1.1,0.5-1.7,0.4c-0.7,0-1.3-0.2-1.8-0.5c-0.6-0.3-1-0.8-1.3-1.4c-0.3-0.6-0.5-1.4-0.5-2.1
				C1034.8,82.4,1035,81.6,1035.3,81z M1041,81.6c-0.4-0.8-1.3-1.3-2.3-1.3c-0.5,0-0.9,0.1-1.3,0.3c-0.4,0.2-0.7,0.6-0.9,1
				c-0.2,0.5-0.4,1-0.3,1.5c0,0.5,0.1,1.1,0.3,1.5c0.2,0.4,0.5,0.8,0.9,1c1.2,0.7,2.8,0.3,3.5-0.9c0,0,0-0.1,0.1-0.1
				c0.2-0.5,0.4-1,0.3-1.5C1041.3,82.6,1041.2,82,1041,81.6L1041,81.6z"/>
			<path class="st5" d="M1047.8,77.8c-0.2-0.2-0.3-0.4-0.3-0.6c0-0.5,0.4-0.9,0.9-0.9c0.2,0,0.5,0.1,0.6,0.3
				c0.2,0.2,0.2,0.4,0.2,0.6s-0.1,0.5-0.2,0.6C1048.6,78.1,1048.1,78.1,1047.8,77.8L1047.8,77.8z M1049,79.3V87h-1.3v-7.7H1049z"/>
			<path class="st5" d="M1052.3,80.3v4.5c0,0.3,0.1,0.6,0.2,0.8c0.2,0.2,0.5,0.3,0.8,0.2h0.9v1.1h-1.2c-0.6,0-1.1-0.1-1.6-0.5
				c-0.4-0.4-0.6-1-0.5-1.6v-4.5h-1v-1h1v-2h1.3v1.9h2v1L1052.3,80.3z"/>
			<path class="st5" d="M1062.4,83.6h-6.1c0,0.7,0.3,1.3,0.8,1.8c0.5,0.4,1.1,0.7,1.7,0.6c0.5,0,1-0.1,1.4-0.4
				c0.4-0.2,0.6-0.6,0.8-1h1.4c-0.2,0.7-0.6,1.4-1.2,1.8c-0.7,0.5-1.5,0.7-2.3,0.7c-0.7,0-1.4-0.1-2-0.5c-0.6-0.3-1-0.8-1.4-1.4
				c-0.6-1.3-0.6-2.9,0-4.2c0.3-0.6,0.8-1.1,1.3-1.4c0.6-0.3,1.3-0.5,2-0.5c0.7,0,1.3,0.2,1.9,0.5c0.5,0.3,1,0.8,1.3,1.3
				c0.3,0.6,0.5,1.2,0.5,1.9C1062.5,83.1,1062.4,83.3,1062.4,83.6z M1060.8,81.3c-0.2-0.3-0.5-0.6-0.9-0.8c-0.4-0.2-0.8-0.3-1.2-0.3
				c-0.6,0-1.2,0.2-1.6,0.6c-0.5,0.4-0.8,1.1-0.8,1.7h4.8C1061.2,82.1,1061.1,81.7,1060.8,81.3L1060.8,81.3z"/>
			<path class="st5" d="M1066,79.5c0.5-0.3,1-0.4,1.5-0.4v1.3h-0.3c-1.4,0-2.1,0.8-2.1,2.3v4.2h-1.3v-7.7h1.3v1.2
				C1065.2,80.1,1065.6,79.7,1066,79.5z"/>
			<path class="st5" d="M1068.6,81c0.3-0.6,0.8-1.1,1.3-1.4c0.6-0.3,1.2-0.5,1.8-0.5s1.2,0.1,1.8,0.4c0.5,0.3,0.8,0.6,1.1,1.1v-1.4
				h1.3v7.7h-1.3v-1.4c-0.3,0.5-0.7,0.9-1.1,1.1c-0.5,0.3-1.1,0.5-1.7,0.4c-0.7,0-1.3-0.2-1.8-0.5c-0.6-0.3-1-0.8-1.3-1.4
				c-0.3-0.6-0.5-1.4-0.5-2.1C1068.1,82.4,1068.3,81.6,1068.6,81z M1074.3,81.6c-0.4-0.8-1.3-1.3-2.3-1.3c-0.5,0-0.9,0.1-1.3,0.3
				c-0.4,0.2-0.7,0.6-0.9,1c-0.2,0.5-0.4,1-0.3,1.5c0,0.5,0.1,1.1,0.3,1.5c0.2,0.4,0.5,0.8,0.9,1c1.2,0.7,2.8,0.3,3.5-0.9
				c0,0,0-0.1,0.1-0.1c0.2-0.5,0.4-1,0.3-1.5C1074.6,82.6,1074.5,82,1074.3,81.6L1074.3,81.6z"/>
			<path class="st5" d="M1079.2,80.3v4.5c0,0.3,0.1,0.6,0.2,0.8c0.2,0.2,0.5,0.3,0.8,0.2h0.9v1.1h-1c-0.6,0-1.1-0.1-1.6-0.5
				c-0.4-0.4-0.6-1-0.5-1.6v-4.5h-1v-1h1v-2h1.3v1.9h2v1L1079.2,80.3z"/>
			<path class="st5" d="M1089.3,83.6h-6.1c0,0.7,0.3,1.3,0.8,1.8c0.5,0.4,1.1,0.7,1.7,0.6c0.5,0,1-0.1,1.4-0.4
				c0.4-0.2,0.6-0.6,0.8-1h1.4c-0.2,0.7-0.6,1.4-1.2,1.8c-0.7,0.5-1.5,0.7-2.3,0.7c-0.7,0-1.4-0.1-2-0.5c-0.6-0.3-1-0.8-1.3-1.4
				c-0.3-0.6-0.5-1.4-0.5-2.1s0.1-1.4,0.5-2.1c0.3-0.6,0.8-1.1,1.3-1.4c0.6-0.3,1.3-0.5,2-0.5c0.7,0,1.3,0.2,1.9,0.5s1,0.8,1.3,1.3
				c0.3,0.6,0.5,1.2,0.5,1.9C1089.4,83.1,1089.3,83.3,1089.3,83.6z M1087.7,81.3c-0.2-0.3-0.5-0.6-0.9-0.8c-0.4-0.2-0.8-0.3-1.2-0.3
				c-0.6,0-1.2,0.2-1.7,0.6c-0.5,0.5-0.7,1.1-0.8,1.7h4.9C1088.1,82.1,1088,81.7,1087.7,81.3L1087.7,81.3z"/>
			<path class="st5" d="M1095.6,80.3v4.5c0,0.3,0.1,0.6,0.2,0.8c0.2,0.2,0.5,0.3,0.8,0.2h0.9v1.1h-1.1c-0.6,0-1.1-0.1-1.6-0.5
				c-0.4-0.4-0.6-1-0.5-1.6v-4.5h-1v-1h1v-2h1.3v1.9h2v1L1095.6,80.3z"/>
			<path class="st5" d="M1104.1,79.5c0.5,0.3,0.8,0.6,1.1,1.1c0.3,0.6,0.4,1.2,0.4,1.8v4.5h-1.3v-4.3c0-0.6-0.2-1.3-0.6-1.8
				c-0.4-0.4-1-0.6-1.6-0.6s-1.2,0.2-1.6,0.6c-0.4,0.5-0.6,1.2-0.6,1.8v4.2h-1.3V76.6h1.3v3.8c0.2-0.4,0.6-0.7,1-0.9
				C1101.9,79,1103.1,79,1104.1,79.5L1104.1,79.5z"/>
			<path class="st5" d="M1114.2,83.6h-6.1c0,0.7,0.3,1.3,0.8,1.8c0.5,0.4,1.1,0.7,1.7,0.6c0.5,0,1-0.1,1.4-0.4
				c0.4-0.2,0.6-0.6,0.8-1h1.4c-0.2,0.7-0.6,1.4-1.2,1.8c-0.7,0.5-1.5,0.7-2.3,0.7c-0.7,0-1.4-0.1-2-0.5c-0.6-0.3-1-0.8-1.4-1.4
				c-0.6-1.3-0.6-2.9,0-4.2c0.3-0.6,0.8-1.1,1.3-1.4c0.6-0.3,1.3-0.5,2-0.5c0.7,0,1.3,0.2,1.9,0.5c0.5,0.3,1,0.8,1.3,1.3
				c0.3,0.6,0.5,1.2,0.5,1.9C1114.2,83.1,1114.2,83.3,1114.2,83.6z M1112.6,81.3c-0.2-0.3-0.5-0.6-0.9-0.8c-0.4-0.2-0.8-0.3-1.2-0.3
				c-0.6,0-1.2,0.2-1.6,0.6c-0.5,0.4-0.8,1.1-0.8,1.7h4.8C1113,82.1,1112.9,81.7,1112.6,81.3z"/>
			<path class="st5" d="M1118.9,81c0.3-0.6,0.8-1.1,1.3-1.4c1.4-0.7,3-0.6,4.3,0.2c0.6,0.5,1,1.1,1.2,1.9h-1.4
				c-0.1-0.4-0.4-0.8-0.8-1.1c-0.4-0.3-0.9-0.4-1.4-0.4c-0.7,0-1.3,0.3-1.8,0.8c-0.5,0.6-0.7,1.4-0.7,2.1c-0.1,0.8,0.2,1.5,0.7,2.1
				c0.4,0.5,1.1,0.8,1.8,0.8c0.5,0,1-0.1,1.4-0.4s0.7-0.7,0.8-1.1h1.4c-0.2,0.8-0.6,1.4-1.2,1.9c-0.7,0.5-1.5,0.7-2.3,0.7
				c-0.7,0-1.3-0.2-1.9-0.5c-0.6-0.3-1-0.8-1.3-1.4c-0.3-0.7-0.5-1.4-0.5-2.1C1118.4,82.4,1118.6,81.6,1118.9,81z"/>
			<path class="st5" d="M1133.8,79.3V87h-1.3v-1.1c-0.2,0.4-0.6,0.7-1,0.9c-0.4,0.2-0.9,0.3-1.4,0.3c-0.6,0-1.1-0.1-1.6-0.4
				s-0.9-0.6-1.1-1.1c-0.3-0.6-0.4-1.2-0.4-1.8v-4.5h1.3v4.3c0,0.6,0.2,1.3,0.6,1.8c0.9,0.8,2.3,0.8,3.2,0c0.4-0.5,0.6-1.2,0.6-1.8
				v-4.2h1.1V79.3z"/>
			<path class="st5" d="M1137.8,79.5c0.5-0.3,1-0.4,1.5-0.4v1.3h-0.3c-1.4,0-2.1,0.8-2.1,2.3v4.2h-1.3v-7.7h1.3v1.2
				C1137.1,80.1,1137.4,79.7,1137.8,79.5z"/>
			<path class="st5" d="M1142.6,79.5c0.5-0.3,1-0.4,1.5-0.4v1.3h-0.3c-1.4,0-2.1,0.8-2.1,2.3v4.2h-1.3v-7.7h1.3v1.2
				C1141.9,80.1,1142.2,79.7,1142.6,79.5z"/>
			<path class="st5" d="M1152.2,83.6h-6.1c0,0.7,0.3,1.3,0.8,1.8c0.5,0.4,1.1,0.7,1.7,0.6c0.5,0,1-0.1,1.4-0.4
				c0.4-0.2,0.6-0.6,0.8-1h1.3c-0.2,0.7-0.6,1.4-1.2,1.8c-0.7,0.5-1.5,0.7-2.3,0.7c-0.7,0-1.4-0.1-2-0.5c-0.6-0.3-1-0.8-1.3-1.4
				c-0.3-0.6-0.5-1.4-0.5-2.1s0.1-1.4,0.5-2.1c0.3-0.6,0.8-1.1,1.3-1.4c0.6-0.3,1.3-0.5,2-0.5c0.7,0,1.3,0.2,1.9,0.5
				c0.5,0.3,1,0.8,1.3,1.3c0.3,0.6,0.5,1.2,0.5,1.9C1152.2,83.1,1152.2,83.3,1152.2,83.6z M1150.6,81.3c-0.2-0.3-0.5-0.6-0.9-0.8
				c-0.4-0.2-0.8-0.3-1.2-0.3c-0.6,0-1.2,0.2-1.7,0.6s-0.7,1.1-0.8,1.7h4.8C1150.9,82.1,1150.8,81.7,1150.6,81.3z"/>
			<path class="st5" d="M1159.5,80c0.6,0.7,0.9,1.5,0.9,2.4V87h-1.3v-4.4c0-0.6-0.2-1.3-0.6-1.8c-0.4-0.4-1-0.6-1.6-0.6
				s-1.2,0.2-1.6,0.6c-0.4,0.5-0.6,1.2-0.6,1.8v4.2h-1.3v-7.7h1.3v1.1c0.2-0.4,0.6-0.7,1-0.9C1157,78.9,1158.4,79.1,1159.5,80
				L1159.5,80z"/>
			<path class="st5" d="M1163.6,80.3v4.5c0,0.3,0.1,0.6,0.2,0.8c0.2,0.2,0.5,0.3,0.8,0.2h0.9v1.1h-1.1c-0.6,0-1.1-0.1-1.6-0.5
				c-0.4-0.4-0.6-1-0.5-1.6v-4.5h-1v-1h1v-2h1.3v1.9h2v1L1163.6,80.3z"/>
			<path class="st5" d="M1170.1,83v-5.9h2.4V83c0,0.5,0.1,1,0.4,1.3s0.8,0.5,1.3,0.5s0.9-0.1,1.3-0.5c0.3-0.4,0.5-0.9,0.5-1.3v-5.9
				h2.4V83c0,0.8-0.2,1.6-0.6,2.2s-0.9,1.1-1.5,1.4s-1.3,0.4-2,0.4c-1.1,0-2.1-0.3-2.9-1.1C1170.4,85.2,1170,84.1,1170.1,83z"/>
			<path class="st5" d="M1180,86.9v-9.8h2.4v9.8H1180z"/>
		</g>
	</g>
</g>
<text transform="matrix(1 0 0 1 649.9842 45.208)"><tspan x="0" y="0" class="st6 st7">iFlyPlus expand the service line by adding the shared flight service, however, </tspan><tspan x="0" y="22.5" class="st6 st7">the current user experience of shared flight isn’t satisfying. My goal is to </tspan><tspan x="0" y="45" class="st8 st7">improve the shared flight experience on App</tspan><tspan x="330.9" y="45" class="st6 st7">, and </tspan><tspan x="368.4" y="45" class="st8 st7">Website</tspan><tspan x="428.5" y="45" class="st6 st7">, </tspan><tspan x="0" y="67.5" class="st6 st7">explore potential </tspan><tspan x="119.5" y="67.5" class="st8 st7">market opportunities</tspan><tspan x="278.2" y="67.5" class="st6 st7">, and iterate the current </tspan><tspan x="443.7" y="67.5" class="st8 st7">UI </tspan></text>
</svg>
