<?xml version="1.0" encoding="utf-8"?>
<!-- Generator: Adobe Illustrator 24.1.0, SVG Export Plug-In . SVG Version: 6.00 Build 0)  -->
<svg version="1.1" id="图层_1" xmlns="http://www.w3.org/2000/svg" xmlns:xlink="http://www.w3.org/1999/xlink" x="0px" y="0px"
	 viewBox="0 0 1252.1 126.2" style="enable-background:new 0 0 1252.1 126.2;" xml:space="preserve">
<style type="text/css">
	.st0{fill:#FFFFFF;}
	.st1{font-family:'Poppins-Medium';}
	.st2{font-size:40px;}
	.st3{letter-spacing:-1;}
</style>
<g id="图层_2_1_">
	<g id="图层_1-2">
		<rect class="st0" width="1252.1" height="126.2"/>
		<text transform="matrix(1 0 0 1 84.489 65.7598)" class="st1 st2 st3">Goal</text>
		<path d="M451.9,33.8c-0.2-0.2-0.3-0.4-0.3-0.6c0-0.5,0.4-0.9,0.9-0.9c0.2,0,0.5,0.1,0.6,0.3c0.2,0.2,0.2,0.4,0.2,0.6
			c0,0.2-0.1,0.5-0.2,0.6C452.7,34.1,452.2,34.1,451.9,33.8z M453.1,35.3v7.7h-1.3v-7.7H453.1z"/>
		<path d="M460.4,33.2v1h-4.2v3.3h3.4v1h-3.4v4.4h-1.3v-9.7H460.4z"/>
		<path d="M462.8,32.6v10.4h-1.3V32.6H462.8z"/>
		<path d="M471.2,35.3l-4.6,11.3h-1.3l1.5-3.7l-3.1-7.6h1.4l2.4,6.2l2.4-6.2L471.2,35.3z"/>
		<path d="M477.8,38.1c-0.7,0.6-1.6,0.9-2.5,0.8h-1.9v4.1h-1.3v-9.8h3.1c0.9-0.1,1.8,0.2,2.5,0.8C478.9,35.1,478.9,36.9,477.8,38.1
			C477.7,38,477.7,38.1,477.8,38.1L477.8,38.1z M476.8,37.4c0.4-0.3,0.5-0.8,0.5-1.3c0-1.2-0.7-1.8-2.1-1.8h-1.9v3.6h1.9
			C475.8,37.9,476.3,37.7,476.8,37.4L476.8,37.4z"/>
		<path d="M481,32.6v10.4h-1.3V32.6H481z"/>
		<path d="M489.6,35.3v7.7h-1.3v-1.1c-0.2,0.4-0.6,0.7-1,0.9c-0.4,0.2-0.9,0.3-1.4,0.3c-0.6,0-1.1-0.1-1.6-0.4
			c-0.5-0.3-0.9-0.6-1.1-1.1c-0.3-0.6-0.4-1.2-0.4-1.8v-4.5h1.2v4.3c0,0.6,0.2,1.3,0.6,1.8c0.4,0.4,1,0.6,1.6,0.6
			c0.6,0,1.2-0.2,1.6-0.6c0.4-0.5,0.6-1.2,0.6-1.8v-4.2H489.6z"/>
		<path d="M492.5,42.8c-0.4-0.2-0.8-0.5-1.1-0.8c-0.3-0.4-0.4-0.8-0.4-1.2h1.3c0,0.4,0.2,0.7,0.5,0.9c0.4,0.3,0.8,0.4,1.3,0.4
			c0.4,0,0.8-0.1,1.1-0.3c0.3-0.2,0.4-0.5,0.4-0.8c0-0.3-0.2-0.6-0.5-0.8c-0.4-0.2-0.9-0.4-1.4-0.5c-0.5-0.1-0.9-0.3-1.4-0.5
			c-0.4-0.2-0.7-0.4-0.9-0.7c-0.3-0.3-0.4-0.8-0.4-1.2c0-0.4,0.1-0.8,0.4-1.1c0.3-0.3,0.6-0.6,1-0.8c0.5-0.2,1-0.3,1.5-0.3
			c0.7,0,1.5,0.2,2.1,0.6c0.5,0.4,0.8,1.1,0.8,1.8h-1.3c0-0.4-0.2-0.8-0.5-1c-0.3-0.3-0.8-0.4-1.2-0.4c-0.4,0-0.8,0.1-1.1,0.3
			c-0.3,0.2-0.4,0.5-0.4,0.8c0,0.2,0.1,0.5,0.2,0.6c0.2,0.2,0.4,0.3,0.6,0.4c0.3,0.1,0.7,0.2,1,0.3c0.5,0.1,0.9,0.3,1.4,0.4
			c0.3,0.1,0.6,0.4,0.9,0.7c0.3,0.3,0.4,0.7,0.4,1.1c0,0.4-0.1,0.8-0.4,1.1c-0.3,0.4-0.6,0.6-1,0.8c-0.5,0.2-1,0.3-1.5,0.3
			C493.6,43,493,43,492.5,42.8z"/>
		<path d="M508.6,39.6h-6.1c0,0.7,0.3,1.3,0.8,1.8c0.5,0.4,1.1,0.7,1.7,0.6c0.5,0,1-0.1,1.4-0.4c0.4-0.2,0.6-0.6,0.8-1h1.4
			c-0.2,0.7-0.6,1.4-1.2,1.8c-0.7,0.5-1.5,0.7-2.3,0.7c-0.7,0-1.4-0.1-2-0.5c-0.6-0.3-1-0.8-1.4-1.4c-0.3-0.6-0.5-1.4-0.5-2.1
			c0-0.7,0.1-1.4,0.5-2.1c0.3-0.6,0.8-1.1,1.4-1.4c0.6-0.3,1.3-0.5,2-0.5c0.7,0,1.3,0.2,1.9,0.5c0.5,0.3,1,0.8,1.3,1.3
			c0.3,0.6,0.5,1.2,0.5,1.9C508.7,39,508.6,39.3,508.6,39.6z M507,37.3c-0.2-0.3-0.5-0.6-0.9-0.8c-0.4-0.2-0.8-0.3-1.2-0.3
			c-0.6,0-1.2,0.2-1.6,0.6c-0.5,0.4-0.7,1.1-0.8,1.7h4.8C507.3,38.1,507.2,37.7,507,37.3z"/>
		<path d="M514,42.9l-1.8-2.9l-1.8,2.9h-1.3l2.5-3.8l-2.5-3.9h1.4l1.8,2.8l1.7-2.8h1.3l-2.5,3.8l2.5,3.9H514z"/>
		<path d="M518.7,35.6c0.5-0.3,1.1-0.5,1.7-0.4c0.7,0,1.3,0.2,1.9,0.5c0.6,0.3,1,0.8,1.3,1.4c0.3,0.6,0.5,1.3,0.5,2.1
			c0,0.7-0.1,1.4-0.5,2.1c-0.3,0.6-0.8,1.1-1.3,1.4c-0.6,0.3-1.2,0.5-1.9,0.5c-0.6,0-1.2-0.1-1.7-0.4c-0.5-0.3-0.9-0.6-1.1-1.1v5.1
			h-1.3V35.3h1.3v1.4C517.8,36.2,518.2,35.8,518.7,35.6z M522.4,37.6c-0.2-0.4-0.5-0.8-0.9-1c-0.4-0.2-0.9-0.3-1.3-0.3
			c-0.5,0-0.9,0.1-1.3,0.3c-0.4,0.2-0.8,0.6-1,1c-0.5,0.9-0.5,2.1,0,3c0.2,0.4,0.6,0.8,1,1c0.4,0.2,0.8,0.3,1.3,0.3
			c0.5,0,0.9-0.1,1.3-0.3c0.4-0.2,0.7-0.6,0.9-1c0.2-0.5,0.4-1,0.3-1.5C522.7,38.5,522.6,38,522.4,37.6L522.4,37.6z"/>
		<path d="M525.3,37c0.3-0.6,0.8-1.1,1.3-1.4c0.6-0.3,1.2-0.5,1.8-0.5c0.6,0,1.2,0.1,1.8,0.4c0.5,0.3,0.8,0.6,1.1,1.1v-1.4h1.3v7.7
			h-1.3v-1.4c-0.3,0.5-0.7,0.9-1.1,1.1c-0.5,0.3-1.1,0.5-1.7,0.4c-0.7,0-1.3-0.2-1.8-0.5c-0.6-0.3-1-0.8-1.3-1.4
			c-0.3-0.6-0.5-1.4-0.5-2.1C524.8,38.4,525,37.6,525.3,37z M531,37.6c-0.2-0.4-0.5-0.8-0.9-1c-0.4-0.2-0.9-0.3-1.3-0.3
			c-0.5,0-0.9,0.1-1.3,0.3c-0.4,0.2-0.7,0.6-0.9,1c-0.2,0.5-0.4,1-0.3,1.5c0,0.5,0.1,1.1,0.3,1.5c0.2,0.4,0.5,0.8,0.9,1
			c0.4,0.2,0.9,0.3,1.3,0.3c0.5,0,0.9-0.1,1.3-0.3c0.4-0.2,0.7-0.6,0.9-1c0.2-0.5,0.4-1,0.3-1.5C531.4,38.6,531.2,38,531,37.6
			L531,37.6z"/>
		<path d="M540.4,36c0.6,0.7,0.9,1.5,0.9,2.5V43H540v-4.4c0-0.6-0.2-1.3-0.6-1.8c-0.4-0.4-1-0.6-1.6-0.6c-0.6,0-1.2,0.2-1.6,0.6
			c-0.4,0.5-0.6,1.2-0.6,1.8v4.2h-1.3v-7.7h1.3v1.1c0.2-0.4,0.6-0.7,1-0.9c0.4-0.2,0.9-0.3,1.4-0.3C539,35.1,539.8,35.4,540.4,36z"
			/>
		<path d="M543,37c0.3-0.6,0.8-1.1,1.3-1.4c0.6-0.3,1.2-0.5,1.9-0.5c0.6,0,1.1,0.1,1.7,0.4c0.5,0.3,0.9,0.6,1.2,1.1v-4.1h1.3v10.4
			H549v-1.4c-0.3,0.5-0.7,0.9-1.1,1.1c-0.5,0.3-1.1,0.5-1.7,0.4c-0.7,0-1.3-0.2-1.8-0.5c-0.6-0.3-1-0.8-1.3-1.4
			c-0.3-0.6-0.5-1.4-0.5-2.1C542.5,38.4,542.7,37.6,543,37z M548.7,37.6c-0.2-0.4-0.5-0.8-0.9-1c-0.4-0.2-0.9-0.3-1.3-0.3
			c-0.5,0-0.9,0.1-1.3,0.3c-0.4,0.2-0.7,0.6-0.9,1c-0.2,0.5-0.4,1-0.3,1.5c0,0.5,0.1,1.1,0.3,1.5c0.2,0.4,0.5,0.8,0.9,1
			c0.4,0.2,0.9,0.3,1.3,0.3c0.5,0,0.9-0.1,1.3-0.3c0.4-0.2,0.7-0.6,0.9-1c0.2-0.5,0.4-1,0.3-1.5C549,38.6,548.9,38,548.7,37.6
			L548.7,37.6z"/>
		<path d="M556.9,36.3v4.5c0,0.3,0.1,0.6,0.2,0.8c0.2,0.2,0.5,0.3,0.8,0.2h0.9v1.1h-1.1c-0.6,0-1.1-0.1-1.6-0.5
			c-0.4-0.4-0.6-1-0.5-1.6v-4.5h-1v-1h1v-2h1.3v1.9h2v1L556.9,36.3z"/>
		<path d="M565.5,35.5c0.5,0.3,0.8,0.6,1.1,1.1c0.3,0.6,0.4,1.2,0.4,1.8v4.5h-1.3v-4.3c0-0.6-0.2-1.3-0.6-1.8
			c-0.4-0.4-1-0.6-1.6-0.6c-0.6,0-1.2,0.2-1.6,0.6c-0.4,0.5-0.6,1.2-0.6,1.8v4.2h-1.3V32.6h1.3v3.8c0.2-0.4,0.6-0.7,1-0.9
			C563.3,35,564.5,35,565.5,35.5L565.5,35.5z"/>
		<path d="M575.6,39.6h-6.1c0,0.7,0.3,1.3,0.8,1.8c0.5,0.4,1.1,0.7,1.7,0.6c0.5,0,1-0.1,1.4-0.4c0.4-0.2,0.6-0.6,0.8-1h1.4
			c-0.2,0.7-0.6,1.4-1.2,1.8c-0.7,0.5-1.5,0.7-2.3,0.7c-0.7,0-1.4-0.1-2-0.5c-0.6-0.3-1-0.8-1.3-1.4c-0.6-1.3-0.6-2.9,0-4.2
			c0.3-0.6,0.8-1.1,1.3-1.4c0.6-0.3,1.3-0.5,2-0.5c0.7,0,1.3,0.2,1.9,0.5c0.5,0.3,1,0.8,1.3,1.3c0.3,0.6,0.5,1.2,0.5,1.9
			C575.7,39.1,575.7,39.3,575.6,39.6z M574,37.3c-0.2-0.3-0.5-0.6-0.9-0.8c-0.4-0.2-0.8-0.3-1.2-0.3c-0.6,0-1.2,0.2-1.6,0.6
			c-0.5,0.4-0.8,1.1-0.8,1.7h4.8C574.3,38.1,574.2,37.7,574,37.3z"/>
		<path d="M581.4,42.8c-0.4-0.2-0.8-0.5-1.1-0.8c-0.3-0.4-0.4-0.8-0.5-1.2h1.3c0,0.4,0.2,0.7,0.5,0.9c0.4,0.3,0.8,0.4,1.3,0.4
			c0.4,0,0.8-0.1,1.1-0.3c0.3-0.2,0.4-0.5,0.4-0.8c0-0.3-0.2-0.6-0.4-0.8c-0.4-0.2-0.9-0.4-1.4-0.5c-0.5-0.1-0.9-0.3-1.4-0.5
			c-0.4-0.2-0.7-0.4-0.9-0.7c-0.3-0.3-0.4-0.8-0.4-1.2c0-0.4,0.1-0.8,0.3-1.1c0.3-0.3,0.6-0.6,1-0.8c0.5-0.2,1-0.3,1.5-0.3
			c0.7,0,1.5,0.2,2.1,0.6c0.5,0.4,0.8,1.1,0.8,1.8h-1.3c0-0.4-0.2-0.8-0.5-1c-0.3-0.3-0.8-0.4-1.2-0.4c-0.4,0-0.8,0.1-1.1,0.3
			c-0.3,0.2-0.4,0.5-0.4,0.8c0,0.2,0.1,0.5,0.2,0.6c0.2,0.2,0.4,0.3,0.6,0.4c0.3,0.1,0.7,0.2,1,0.3c0.5,0.1,0.9,0.3,1.3,0.4
			c0.3,0.1,0.6,0.4,0.9,0.7c0.3,0.3,0.4,0.7,0.4,1.1c0,0.4-0.1,0.8-0.3,1.1c-0.3,0.4-0.6,0.6-1,0.8c-0.5,0.2-1,0.3-1.5,0.3
			C582.4,43.1,581.9,43,581.4,42.8z"/>
		<path d="M594.2,39.6H588c0,0.7,0.3,1.3,0.8,1.8c0.5,0.4,1.1,0.7,1.7,0.6c0.5,0,1-0.1,1.4-0.4c0.4-0.2,0.6-0.6,0.8-1h1.4
			c-0.2,0.7-0.6,1.4-1.2,1.8c-0.7,0.5-1.5,0.7-2.3,0.7c-0.7,0-1.4-0.1-2-0.5c-0.6-0.3-1-0.8-1.3-1.4c-0.6-1.3-0.6-2.9,0-4.2
			c0.3-0.6,0.8-1.1,1.3-1.4c0.6-0.3,1.3-0.5,2-0.5c0.7,0,1.3,0.2,1.9,0.5c0.5,0.3,1,0.8,1.3,1.3c0.3,0.6,0.5,1.2,0.5,1.9
			C594.2,39.1,594.2,39.3,594.2,39.6z M592.6,37.3c-0.2-0.3-0.5-0.6-0.9-0.8c-0.4-0.2-0.8-0.3-1.2-0.3c-0.6,0-1.2,0.2-1.6,0.6
			c-0.5,0.4-0.8,1.1-0.8,1.7h4.8C592.9,38.1,592.8,37.7,592.6,37.3z"/>
		<path d="M597.7,35.5c0.5-0.3,1-0.4,1.5-0.4v1.3h-0.3c-1.4,0-2.1,0.8-2.1,2.3v4.2h-1.3v-7.7h1.3v1.2
			C597,36.1,597.3,35.7,597.7,35.5z"/>
		<path d="M603.2,41.8l2.4-6.5h1.4l-3,7.7h-1.5l-3-7.7h1.4L603.2,41.8z"/>
		<path d="M607.8,33.8c-0.2-0.2-0.3-0.4-0.2-0.6c0-0.2,0.1-0.5,0.2-0.6c0.2-0.2,0.4-0.3,0.6-0.3c0.2,0,0.4,0.1,0.6,0.3
			c0.2,0.2,0.3,0.4,0.2,0.6c0,0.2-0.1,0.5-0.2,0.6c-0.2,0.2-0.4,0.3-0.6,0.2C608.2,34,608,33.9,607.8,33.8z M609.1,35.3v7.7h-1.3
			v-7.7H609.1z"/>
		<path d="M610.8,37c0.3-0.6,0.8-1.1,1.3-1.4c0.6-0.3,1.3-0.5,1.9-0.5c0.8,0,1.7,0.2,2.3,0.7c0.6,0.5,1.1,1.1,1.2,1.9h-1.4
			c-0.1-0.4-0.4-0.8-0.8-1.1c-0.4-0.3-0.9-0.4-1.4-0.4c-0.7,0-1.3,0.3-1.8,0.8c-0.5,0.6-0.7,1.4-0.7,2.1c-0.1,0.8,0.2,1.5,0.7,2.1
			c0.4,0.5,1.1,0.8,1.8,0.8c0.5,0,1-0.1,1.4-0.4c0.4-0.3,0.7-0.7,0.8-1.1h1.4c-0.2,0.8-0.6,1.4-1.2,1.9c-0.7,0.5-1.5,0.7-2.3,0.7
			c-0.7,0-1.3-0.2-1.9-0.5c-0.6-0.3-1-0.8-1.3-1.4c-0.3-0.7-0.5-1.4-0.5-2.1C610.4,38.4,610.5,37.6,610.8,37z"/>
		<path d="M625.9,39.6h-6.1c0,0.7,0.3,1.3,0.8,1.8c0.5,0.4,1.1,0.7,1.7,0.6c0.5,0,1-0.1,1.4-0.4c0.4-0.2,0.6-0.6,0.8-1h1.4
			c-0.2,0.7-0.6,1.4-1.2,1.8c-0.7,0.5-1.5,0.7-2.3,0.7c-0.7,0-1.4-0.1-2-0.5c-0.5-0.3-1-0.8-1.3-1.4c-0.3-0.6-0.5-1.4-0.5-2.1
			c0-0.7,0.2-1.4,0.5-2.1c0.3-0.6,0.8-1.1,1.3-1.4c0.6-0.3,1.3-0.5,2-0.5c0.7,0,1.3,0.2,1.9,0.5c0.5,0.3,1,0.8,1.3,1.3
			c0.3,0.6,0.5,1.2,0.5,1.9C626,39,625.9,39.3,625.9,39.6z M624.3,37.3c-0.2-0.3-0.5-0.6-0.9-0.8c-0.4-0.2-0.8-0.3-1.2-0.3
			c-0.6,0-1.2,0.2-1.7,0.6c-0.5,0.4-0.7,1.1-0.8,1.7h4.8C624.6,38.1,624.5,37.7,624.3,37.3z"/>
		<path d="M631.8,32.6v10.4h-1.3V32.6H631.8z"/>
		<path d="M633.7,33.8c-0.2-0.2-0.3-0.4-0.2-0.6c0-0.2,0.1-0.4,0.2-0.6c0.2-0.2,0.4-0.3,0.6-0.3c0.2,0,0.4,0.1,0.6,0.3
			c0.2,0.2,0.2,0.4,0.2,0.6c0,0.2-0.1,0.5-0.2,0.6c-0.2,0.2-0.4,0.3-0.6,0.2C634.1,34,633.8,33.9,633.7,33.8z M634.9,35.3v7.7h-1.3
			v-7.7H634.9z"/>
		<path d="M642.7,36c0.6,0.7,0.9,1.5,0.9,2.5V43h-1.3v-4.4c0-0.6-0.2-1.3-0.6-1.8c-0.4-0.4-1-0.6-1.6-0.6c-0.6,0-1.2,0.2-1.6,0.6
			c-0.4,0.5-0.6,1.2-0.5,1.8v4.2h-1.3v-7.7h1.3v1.1c0.2-0.4,0.6-0.7,1-0.9C640.2,34.9,641.7,35.1,642.7,36L642.7,36z"/>
		<path d="M652.2,39.6h-6.1c0,1.3,1.1,2.4,2.4,2.4c0,0,0,0,0.1,0c0.5,0,1-0.1,1.4-0.4c0.4-0.2,0.6-0.6,0.8-1h1.4
			c-0.2,0.7-0.6,1.4-1.2,1.8c-0.7,0.5-1.5,0.7-2.3,0.7c-0.7,0-1.4-0.1-2-0.5c-0.6-0.3-1-0.8-1.3-1.4c-0.3-0.6-0.5-1.4-0.5-2.1
			c0-0.7,0.1-1.4,0.5-2.1c0.3-0.6,0.8-1.1,1.3-1.4c0.6-0.3,1.3-0.5,2-0.5c0.7,0,1.3,0.2,1.9,0.5c0.5,0.3,1,0.8,1.3,1.3
			c0.3,0.6,0.5,1.2,0.5,1.9C652.3,39.1,652.2,39.3,652.2,39.6z M650.6,37.3c-0.2-0.3-0.5-0.6-0.9-0.8c-0.4-0.2-0.8-0.3-1.2-0.3
			c-0.6,0-1.2,0.2-1.6,0.6c-0.5,0.5-0.7,1.1-0.8,1.7h4.8C651,38.1,650.8,37.7,650.6,37.3L650.6,37.3z"/>
		<path d="M659.3,35.6c0.5-0.3,1.1-0.4,1.7-0.4c0.7,0,1.3,0.2,1.9,0.5c0.6,0.3,1,0.8,1.3,1.4c0.3,0.6,0.5,1.3,0.5,2.1
			c0,0.7-0.2,1.4-0.5,2.1c-0.3,0.6-0.7,1.1-1.3,1.4c-0.6,0.3-1.2,0.5-1.9,0.5c-0.6,0-1.2-0.1-1.7-0.4c-0.5-0.3-0.9-0.6-1.1-1.1v1.4
			h-1.3V32.6h1.3v4.1C658.4,36.2,658.8,35.8,659.3,35.6z M663,37.6c-0.2-0.4-0.5-0.8-1-1c-0.4-0.2-0.9-0.3-1.3-0.3
			c-0.5,0-0.9,0.1-1.3,0.3c-0.4,0.2-0.8,0.6-1,1c-0.5,0.9-0.5,2.1,0,3c0.2,0.4,0.6,0.8,1,1c0.8,0.5,1.8,0.5,2.6,0
			c0.4-0.2,0.7-0.6,1-1c0.2-0.5,0.4-1,0.3-1.5C663.4,38.5,663.2,38,663,37.6L663,37.6z"/>
		<path d="M672.6,35.3L668,46.5h-1.3l1.5-3.7l-3.1-7.6h1.4l2.4,6.2l2.4-6.2L672.6,35.3z"/>
		<path d="M676.8,37c0.3-0.6,0.8-1,1.3-1.4c0.6-0.3,1.2-0.5,1.9-0.5c0.6,0,1.2,0.1,1.8,0.4c0.5,0.3,0.8,0.6,1.1,1.1v-1.4h1.3v7.7
			h-1.3v-1.4c-0.3,0.5-0.7,0.9-1.1,1.1c-0.5,0.3-1.1,0.5-1.8,0.4c-0.6,0-1.3-0.2-1.8-0.5c-0.6-0.3-1-0.8-1.3-1.4
			c-0.3-0.6-0.5-1.4-0.5-2.1C676.3,38.4,676.5,37.6,676.8,37z M682.5,37.6c-0.2-0.4-0.5-0.8-0.9-1c-0.4-0.2-0.9-0.3-1.3-0.3
			c-0.5,0-0.9,0.1-1.3,0.3c-0.4,0.2-0.7,0.6-0.9,1c-0.2,0.5-0.4,1-0.3,1.5c0,0.5,0.1,1.1,0.3,1.5c0.4,0.8,1.3,1.3,2.2,1.3
			c0.5,0,0.9-0.1,1.3-0.3c0.4-0.2,0.7-0.6,0.9-1c0.2-0.5,0.4-1,0.3-1.5C682.8,38.6,682.7,38,682.5,37.6L682.5,37.6z"/>
		<path d="M685.9,37c0.3-0.6,0.7-1.1,1.3-1.4c0.6-0.3,1.2-0.5,1.9-0.5c0.6,0,1.2,0.1,1.7,0.4c0.5,0.2,0.9,0.6,1.2,1.1v-4h1.3v10.4
			h-1.3v-1.4c-0.3,0.5-0.7,0.9-1.1,1.1c-0.5,0.3-1.1,0.5-1.7,0.4c-0.7,0-1.3-0.2-1.9-0.5c-0.6-0.3-1-0.8-1.3-1.4
			c-0.3-0.6-0.5-1.4-0.5-2.1C685.4,38.4,685.5,37.6,685.9,37z M691.5,37.6c-0.2-0.4-0.5-0.8-1-1c-0.4-0.2-0.9-0.3-1.3-0.3
			c-0.5,0-0.9,0.1-1.3,0.3c-0.4,0.2-0.7,0.6-0.9,1c-0.2,0.5-0.4,1-0.3,1.5c0,0.5,0.1,1.1,0.3,1.5c0.2,0.4,0.5,0.8,0.9,1
			c0.4,0.2,0.8,0.3,1.3,0.3c0.5,0,0.9-0.1,1.3-0.3c0.4-0.2,0.7-0.6,1-1c0.2-0.5,0.4-1,0.3-1.5C691.9,38.6,691.8,38,691.5,37.6
			L691.5,37.6z"/>
		<path d="M694.9,37c0.3-0.6,0.8-1.1,1.3-1.4c1.1-0.6,2.4-0.7,3.5-0.1c0.5,0.2,0.9,0.6,1.2,1.1v-4.1h1.3v10.4H701v-1.4
			c-0.3,0.5-0.7,0.9-1.1,1.1c-0.5,0.3-1.1,0.5-1.7,0.4c-0.7,0-1.3-0.2-1.8-0.5c-0.6-0.3-1-0.8-1.3-1.4c-0.3-0.6-0.5-1.4-0.5-2.1
			C694.5,38.4,694.6,37.6,694.9,37z M700.6,37.6c-0.4-0.8-1.3-1.3-2.3-1.3c-0.5,0-0.9,0.1-1.3,0.3c-0.4,0.2-0.7,0.6-0.9,1
			c-0.2,0.5-0.4,1-0.3,1.5c0,0.5,0.1,1.1,0.3,1.5c0.2,0.4,0.5,0.8,0.9,1c1.2,0.7,2.8,0.3,3.5-0.9c0,0,0-0.1,0.1-0.1
			c0.2-0.5,0.4-1,0.3-1.5C701,38.6,700.9,38,700.6,37.6L700.6,37.6z"/>
		<path d="M704,33.8c-0.2-0.2-0.3-0.4-0.2-0.6c0-0.2,0.1-0.5,0.2-0.6c0.2-0.2,0.4-0.3,0.6-0.3c0.2,0,0.4,0.1,0.6,0.3
			c0.2,0.2,0.3,0.4,0.2,0.6c0,0.2-0.1,0.5-0.2,0.6c-0.2,0.2-0.4,0.3-0.6,0.2C704.4,34,704.2,33.9,704,33.8z M705.3,35.3v7.7H704
			v-7.7H705.3z"/>
		<path d="M713.1,36c0.6,0.7,0.9,1.5,0.9,2.5V43h-1.3v-4.4c0-0.6-0.2-1.3-0.6-1.8c-0.4-0.4-1-0.6-1.6-0.6c-0.6,0-1.2,0.2-1.6,0.6
			c-0.4,0.5-0.6,1.2-0.6,1.8v4.2h-1.3v-7.7h1.3v1.1c0.2-0.4,0.6-0.7,1-0.9C710.6,34.9,712,35.1,713.1,36L713.1,36z"/>
		<path d="M720.5,35.6c0.5,0.3,0.8,0.6,1.1,1.1v-1.4h1.3v7.8c0,0.7-0.1,1.3-0.5,1.9c-0.3,0.5-0.7,1-1.3,1.3
			c-0.6,0.3-1.3,0.5-1.9,0.5c-0.9,0-1.8-0.2-2.5-0.7c-0.7-0.4-1.1-1.2-1.2-1.9h1.3c0.1,0.5,0.5,0.9,0.9,1.1c0.5,0.3,1,0.4,1.6,0.4
			c0.6,0,1.3-0.2,1.7-0.6c0.5-0.5,0.7-1.2,0.7-1.8v-1.7c-0.3,0.5-0.7,0.8-1.1,1.1c-0.5,0.3-1.1,0.5-1.7,0.4c-0.7,0-1.3-0.2-1.8-0.5
			c-0.6-0.3-1-0.8-1.3-1.4c-0.3-0.6-0.5-1.4-0.5-2.1c0-0.7,0.1-1.4,0.5-2.1c0.3-0.6,0.8-1.1,1.3-1.4C718.1,35,719.4,35,720.5,35.6
			L720.5,35.6z M721.3,37.6c-0.2-0.4-0.5-0.8-1-1c-0.4-0.2-0.8-0.3-1.3-0.3c-0.5,0-0.9,0.1-1.3,0.3c-0.4,0.2-0.7,0.6-0.9,1
			c-0.2,0.5-0.4,1-0.3,1.5c0,0.5,0.1,1.1,0.3,1.5c0.2,0.4,0.5,0.8,0.9,1c0.4,0.2,0.9,0.3,1.3,0.3c0.5,0,0.9-0.1,1.3-0.3
			c0.4-0.2,0.7-0.6,1-1c0.2-0.5,0.4-1,0.3-1.5C721.7,38.6,721.5,38,721.3,37.6L721.3,37.6z"/>
		<path d="M729.6,36.3v4.5c0,0.3,0.1,0.6,0.2,0.8c0.2,0.2,0.5,0.3,0.8,0.2h0.9v1.1h-1.1c-0.6,0-1.1-0.1-1.6-0.5
			c-0.4-0.4-0.6-1-0.5-1.6v-4.5h-1v-1h1v-2h1.3v1.9h2v1L729.6,36.3z"/>
		<path d="M738.1,35.5c0.5,0.3,0.8,0.6,1.1,1.1c0.3,0.6,0.4,1.2,0.4,1.8v4.5h-1.3v-4.3c0-0.6-0.2-1.3-0.6-1.8
			c-0.4-0.4-1-0.6-1.6-0.6c-0.6,0-1.2,0.2-1.6,0.6c-0.4,0.5-0.7,1.2-0.6,1.8v4.2h-1.3V32.6h1.3v3.8c0.2-0.4,0.6-0.7,1-0.9
			C736,35,737.1,35,738.1,35.5L738.1,35.5z"/>
		<path d="M748.3,39.6h-6.1c0,0.7,0.3,1.3,0.8,1.8c0.5,0.4,1.1,0.7,1.7,0.6c0.5,0,1-0.1,1.4-0.4c0.4-0.2,0.6-0.6,0.8-1h1.4
			c-0.2,0.7-0.6,1.4-1.2,1.8c-0.7,0.5-1.5,0.7-2.3,0.7c-0.7,0-1.4-0.1-2-0.5c-0.6-0.3-1-0.8-1.3-1.4c-0.6-1.3-0.6-2.9,0-4.2
			c0.3-0.6,0.8-1.1,1.3-1.4c0.6-0.3,1.3-0.5,2-0.5c0.7,0,1.3,0.2,1.9,0.5c0.5,0.3,1,0.8,1.3,1.3c0.3,0.6,0.5,1.2,0.5,1.9
			C748.3,39,748.3,39.3,748.3,39.6z M746.7,37.3c-0.2-0.3-0.5-0.6-0.9-0.8c-0.4-0.2-0.8-0.3-1.2-0.3c-0.6,0-1.2,0.2-1.6,0.6
			c-0.5,0.4-0.8,1.1-0.8,1.7h4.8C747,38.1,746.9,37.7,746.7,37.3L746.7,37.3z"/>
		<path d="M754.1,42.8c-0.4-0.2-0.8-0.5-1.1-0.8c-0.3-0.4-0.4-0.8-0.5-1.2h1.3c0,0.4,0.2,0.7,0.5,0.9c0.4,0.3,0.8,0.4,1.3,0.4
			c0.4,0,0.8-0.1,1.1-0.3c0.3-0.2,0.4-0.5,0.4-0.8c0-0.3-0.2-0.6-0.4-0.8c-0.4-0.2-0.9-0.4-1.4-0.5c-0.5-0.1-0.9-0.3-1.4-0.5
			c-0.4-0.2-0.7-0.4-0.9-0.7c-0.3-0.3-0.4-0.8-0.4-1.2c0-0.4,0.1-0.8,0.3-1.1c0.3-0.3,0.6-0.6,1-0.8c0.5-0.2,1-0.3,1.5-0.3
			c0.7,0,1.5,0.2,2.1,0.6c0.5,0.4,0.8,1.1,0.8,1.8h-1.3c0-0.4-0.2-0.8-0.5-1c-0.3-0.3-0.8-0.4-1.2-0.4c-0.4,0-0.8,0.1-1.1,0.3
			c-0.3,0.2-0.4,0.5-0.4,0.8c0,0.2,0.1,0.5,0.2,0.6c0.2,0.2,0.4,0.3,0.6,0.4c0.3,0.1,0.7,0.2,1,0.3c0.5,0.1,0.9,0.3,1.3,0.4
			c0.3,0.1,0.6,0.4,0.9,0.7c0.3,0.3,0.4,0.7,0.4,1.1c0,0.4-0.1,0.8-0.3,1.1c-0.3,0.4-0.6,0.6-1,0.8c-0.5,0.2-1,0.3-1.5,0.3
			C755.1,43,754.6,42.9,754.1,42.8z"/>
		<path d="M765.2,35.5c0.5,0.3,0.8,0.6,1.1,1.1c0.3,0.6,0.4,1.2,0.4,1.8v4.5h-1.3v-4.3c0-0.6-0.2-1.3-0.6-1.8
			c-0.9-0.8-2.3-0.8-3.2,0c-0.4,0.5-0.6,1.2-0.6,1.8v4.2h-1.3V32.6h1.3v3.8c0.3-0.4,0.6-0.7,1-0.9C763.2,35,764.3,35,765.2,35.5
			L765.2,35.5z"/>
		<path d="M768.4,37c0.3-0.6,0.8-1.1,1.3-1.4c0.6-0.3,1.2-0.5,1.8-0.5c0.6,0,1.2,0.1,1.8,0.4c0.5,0.3,0.8,0.6,1.1,1.1v-1.4h1.3v7.7
			h-1.3v-1.4c-0.3,0.5-0.7,0.9-1.1,1.1c-0.5,0.3-1.1,0.5-1.7,0.4c-0.7,0-1.3-0.2-1.8-0.5c-0.6-0.3-1-0.8-1.3-1.4
			c-0.3-0.6-0.5-1.4-0.5-2.1C767.9,38.4,768.1,37.6,768.4,37z M774.1,37.6c-0.2-0.4-0.6-0.8-1-1c-0.4-0.2-0.9-0.3-1.3-0.3
			c-0.5,0-0.9,0.1-1.3,0.3c-0.4,0.2-0.7,0.6-0.9,1c-0.2,0.5-0.4,1-0.3,1.5c0,0.5,0.1,1.1,0.3,1.5c0.2,0.4,0.5,0.8,0.9,1
			c0.4,0.2,0.8,0.3,1.3,0.3c0.5,0,0.9-0.1,1.3-0.3c0.4-0.2,0.8-0.6,1-1c0.2-0.5,0.4-1,0.3-1.5C774.5,38.6,774.4,38,774.1,37.6
			L774.1,37.6z"/>
		<path d="M779.7,35.5c0.5-0.3,1-0.4,1.5-0.4v1.3h-0.3c-1.4,0-2.1,0.8-2.1,2.3v4.2h-1.3v-7.7h1.3v1.2
			C779,36.1,779.3,35.7,779.7,35.5z"/>
		<path d="M789.3,39.6h-6.1c0,0.7,0.3,1.3,0.8,1.8c0.5,0.4,1.1,0.7,1.7,0.6c0.5,0,0.9-0.1,1.3-0.4c0.4-0.2,0.6-0.6,0.8-1h1.4
			c-0.2,0.7-0.6,1.4-1.2,1.8c-0.7,0.5-1.5,0.7-2.3,0.7c-0.7,0-1.4-0.1-2-0.5c-0.6-0.3-1-0.8-1.3-1.4c-0.6-1.3-0.6-2.9,0-4.2
			c0.3-0.6,0.8-1.1,1.3-1.4c0.6-0.3,1.3-0.5,2-0.5c0.7,0,1.3,0.2,1.9,0.5c0.5,0.3,1,0.8,1.3,1.3c0.3,0.6,0.5,1.2,0.5,1.9
			C789.3,39,789.3,39.3,789.3,39.6z M787.7,37.3c-0.2-0.3-0.5-0.6-0.9-0.8c-0.4-0.2-0.8-0.3-1.2-0.3c-0.6,0-1.2,0.2-1.6,0.6
			c-0.5,0.4-0.8,1.1-0.8,1.7h4.8C788,38.1,787.9,37.7,787.7,37.3z"/>
		<path d="M790.6,37c0.3-0.6,0.8-1.1,1.3-1.4c1.1-0.6,2.4-0.7,3.5-0.1c0.5,0.2,0.9,0.6,1.2,1.1v-4h1.3v10.4h-1.3v-1.4
			c-0.3,0.5-0.7,0.9-1.1,1.1c-0.5,0.3-1.1,0.5-1.7,0.4c-0.7,0-1.3-0.2-1.8-0.5c-0.6-0.3-1-0.8-1.3-1.4c-0.3-0.6-0.5-1.4-0.5-2.1
			C790.1,38.4,790.3,37.6,790.6,37z M796.3,37.6c-0.5-0.8-1.3-1.4-2.3-1.3c-0.5,0-0.9,0.1-1.3,0.3c-0.4,0.2-0.7,0.6-0.9,1
			c-0.2,0.5-0.4,1-0.3,1.5c0,0.5,0.1,1.1,0.3,1.5c0.2,0.4,0.5,0.8,0.9,1c1.2,0.7,2.8,0.3,3.5-0.9c0,0,0-0.1,0.1-0.1
			c0.2-0.5,0.4-1,0.3-1.5C796.6,38.6,796.5,38.1,796.3,37.6L796.3,37.6z"/>
		<path d="M806.2,36.3h-1.6v6.6h-1.3v-6.6h-1v-1h1v-0.5c-0.1-0.7,0.2-1.4,0.7-1.9c0.6-0.5,1.4-0.7,2.1-0.6v1.1
			c-0.4,0-0.8,0.1-1.2,0.3c-0.3,0.3-0.4,0.7-0.3,1.1v0.5h1.6L806.2,36.3z"/>
		<path d="M808.5,32.6v10.4h-1.3V32.6H808.5z"/>
		<path d="M810.3,33.8c-0.2-0.2-0.3-0.4-0.2-0.6c0-0.2,0.1-0.5,0.2-0.6c0.2-0.2,0.4-0.3,0.6-0.3c0.2,0,0.4,0.1,0.6,0.3
			c0.2,0.2,0.3,0.4,0.2,0.6c0,0.2-0.1,0.5-0.2,0.6c-0.1,0.1-0.3,0.2-0.6,0.2C810.8,34,810.5,33.9,810.3,33.8z M811.6,35.3v7.7h-1.3
			v-7.7H811.6z"/>
		<path d="M818.3,35.6c0.5,0.3,0.8,0.6,1.1,1.1v-1.4h1.3v7.8c0,0.7-0.1,1.3-0.5,1.9c-0.3,0.5-0.7,1-1.3,1.3
			c-0.6,0.3-1.3,0.5-1.9,0.5c-0.9,0-1.8-0.2-2.5-0.7c-0.7-0.4-1.1-1.2-1.2-1.9h1.3c0.1,0.5,0.5,0.9,0.9,1.1c0.5,0.3,1,0.4,1.6,0.4
			c0.6,0,1.3-0.2,1.7-0.7c0.5-0.5,0.7-1.2,0.7-1.8v-1.6c-0.3,0.5-0.7,0.9-1.1,1.1c-0.5,0.3-1.1,0.5-1.7,0.4c-0.7,0-1.3-0.2-1.9-0.5
			c-0.6-0.3-1-0.8-1.3-1.4c-0.3-0.6-0.5-1.4-0.5-2.1c0-0.7,0.1-1.4,0.5-2.1c0.6-1.2,1.8-1.9,3.2-1.9
			C817.1,35.1,817.7,35.3,818.3,35.6z M819,37.6c-0.2-0.4-0.5-0.8-0.9-1c-0.8-0.4-1.8-0.4-2.6,0c-0.4,0.2-0.7,0.6-0.9,1
			c-0.2,0.5-0.4,1-0.3,1.5c0,0.5,0.1,1.1,0.3,1.5c0.2,0.4,0.5,0.8,0.9,1c0.4,0.2,0.8,0.3,1.3,0.3c0.5,0,0.9-0.1,1.3-0.3
			c0.4-0.2,0.7-0.6,0.9-1c0.2-0.5,0.4-1,0.3-1.5C819.4,38.6,819.3,38,819,37.6L819,37.6z"/>
		<path d="M827.8,35.5c0.5,0.3,0.9,0.6,1.1,1.1c0.3,0.6,0.4,1.2,0.4,1.8v4.5H828v-4.3c0-0.6-0.2-1.3-0.6-1.8c-0.4-0.4-1-0.6-1.6-0.6
			c-0.6,0-1.2,0.2-1.6,0.6c-0.4,0.5-0.6,1.2-0.6,1.8v4.2h-1.3V32.6h1.3v3.8c0.2-0.4,0.6-0.7,1-0.9C825.7,35,826.8,35,827.8,35.5
			L827.8,35.5z"/>
		<path d="M832.6,36.3v4.5c0,0.3,0.1,0.6,0.2,0.8c0.2,0.2,0.5,0.3,0.8,0.2h0.9v1.1h-1.2c-0.6,0-1.1-0.1-1.6-0.5
			c-0.4-0.4-0.6-1-0.5-1.6v-4.5h-1v-1h1v-2h1.3v1.9h2v1L832.6,36.3z"/>
		<path d="M840.2,42.8c-0.4-0.2-0.8-0.5-1.1-0.8c-0.3-0.4-0.4-0.8-0.5-1.2h1.4c0,0.4,0.2,0.7,0.5,0.9c0.4,0.3,0.8,0.4,1.3,0.4
			c0.4,0,0.8-0.1,1.2-0.3c0.3-0.2,0.4-0.5,0.4-0.8c0-0.3-0.2-0.6-0.5-0.8c-0.4-0.2-0.9-0.4-1.4-0.5c-0.5-0.1-0.9-0.3-1.4-0.5
			c-0.4-0.2-0.7-0.4-0.9-0.7c-0.3-0.3-0.4-0.8-0.4-1.2c0-0.4,0.1-0.8,0.3-1.1c0.3-0.3,0.6-0.6,1-0.8c0.5-0.2,1-0.3,1.5-0.3
			c0.7,0,1.5,0.2,2.1,0.6c0.5,0.4,0.8,1.1,0.8,1.8h-1.3c0-0.4-0.2-0.8-0.5-1c-0.3-0.3-0.8-0.4-1.2-0.4c-0.4,0-0.8,0.1-1.1,0.3
			c-0.3,0.2-0.4,0.5-0.4,0.8c0,0.2,0.1,0.5,0.2,0.6c0.2,0.2,0.4,0.3,0.6,0.4c0.3,0.1,0.7,0.2,1,0.3c0.5,0.1,0.9,0.3,1.3,0.4
			c0.3,0.1,0.7,0.4,0.9,0.7c0.3,0.3,0.4,0.7,0.4,1.1c0,0.4-0.1,0.8-0.3,1.1c-0.3,0.3-0.6,0.6-1,0.8c-0.5,0.2-1,0.3-1.5,0.3
			C841.2,43.1,840.7,43,840.2,42.8z"/>
		<path d="M852.9,39.6h-6.1c0,0.7,0.3,1.3,0.8,1.8c0.5,0.4,1.1,0.7,1.7,0.6c0.5,0,1-0.1,1.4-0.4c0.4-0.2,0.6-0.6,0.8-1h1.4
			c-0.2,0.7-0.6,1.4-1.2,1.8c-0.7,0.5-1.5,0.7-2.3,0.7c-0.7,0-1.4-0.1-2-0.5c-0.6-0.3-1-0.8-1.3-1.4c-0.3-0.6-0.5-1.4-0.5-2.1
			c0-0.7,0.2-1.4,0.5-2.1c0.3-0.6,0.8-1.1,1.3-1.4c0.6-0.3,1.3-0.5,2-0.5c0.7,0,1.3,0.2,1.9,0.5c0.5,0.3,1,0.8,1.3,1.3
			c0.3,0.6,0.5,1.2,0.5,1.9C853,39.1,853,39.3,852.9,39.6z M851.3,37.3c-0.2-0.3-0.5-0.6-0.9-0.8c-0.4-0.2-0.8-0.3-1.2-0.3
			c-0.6,0-1.2,0.2-1.7,0.6c-0.5,0.4-0.7,1.1-0.8,1.7h4.8C851.7,38.1,851.5,37.7,851.3,37.3L851.3,37.3z"/>
		<path d="M856.5,35.5c0.5-0.3,1-0.4,1.5-0.4v1.3h-0.3c-1.4,0-2.1,0.8-2.1,2.3v4.2h-1.3v-7.7h1.3v1.2
			C855.7,36.1,856.1,35.7,856.5,35.5z"/>
		<path d="M861.9,41.8l2.4-6.5h1.4l-3,7.7h-1.5l-3-7.7h1.4L861.9,41.8z"/>
		<path d="M866.6,33.8c-0.2-0.2-0.3-0.4-0.2-0.6c0-0.2,0.1-0.5,0.2-0.6c0.2-0.2,0.4-0.3,0.6-0.3c0.2,0,0.4,0.1,0.6,0.3
			c0.2,0.2,0.2,0.4,0.2,0.6c0,0.2-0.1,0.5-0.2,0.6c-0.2,0.2-0.4,0.3-0.6,0.2C867,34,866.7,33.9,866.6,33.8z M867.8,35.3v7.7h-1.3
			v-7.7H867.8z"/>
		<path d="M869.6,37c0.3-0.6,0.8-1.1,1.3-1.4c1.4-0.7,3-0.6,4.3,0.2c0.6,0.5,1.1,1.1,1.2,1.9H875c-0.1-0.4-0.4-0.8-0.8-1.1
			c-0.4-0.3-0.9-0.4-1.4-0.4c-0.7,0-1.3,0.2-1.8,0.8c-0.5,0.6-0.7,1.4-0.7,2.1c0,0.8,0.2,1.5,0.7,2.1c0.4,0.5,1.1,0.8,1.8,0.8
			c0.5,0,1-0.1,1.4-0.4c0.4-0.3,0.7-0.7,0.8-1.1h1.4c-0.2,0.8-0.6,1.4-1.2,1.9c-0.7,0.5-1.5,0.7-2.3,0.7c-0.7,0-1.3-0.2-1.9-0.5
			c-0.6-0.3-1-0.8-1.3-1.4c-0.3-0.6-0.5-1.4-0.5-2.1C869.1,38.4,869.3,37.6,869.6,37z"/>
		<path d="M884.7,39.6h-6.1c0,0.7,0.3,1.3,0.8,1.8c0.5,0.4,1.1,0.7,1.7,0.6c0.5,0,1-0.1,1.4-0.4c0.4-0.2,0.6-0.6,0.8-1h1.4
			c-0.2,0.7-0.6,1.4-1.2,1.8c-0.7,0.5-1.5,0.7-2.3,0.7c-0.7,0-1.4-0.2-2-0.5c-0.6-0.3-1-0.8-1.3-1.4c-0.3-0.6-0.5-1.4-0.5-2.1
			c0-0.7,0.2-1.5,0.5-2.1c0.3-0.6,0.7-1,1.3-1.4c0.6-0.3,1.3-0.5,2-0.5c0.7,0,1.3,0.2,1.9,0.5c0.6,0.3,1,0.8,1.3,1.3
			c0.3,0.6,0.5,1.2,0.5,1.9C884.7,39.1,884.7,39.3,884.7,39.6z M883.1,37.3c-0.2-0.3-0.5-0.6-0.9-0.8c-0.4-0.2-0.8-0.3-1.2-0.3
			c-0.6,0-1.2,0.2-1.7,0.6c-0.5,0.5-0.7,1.1-0.8,1.7h4.8C883.4,38.1,883.3,37.7,883.1,37.3L883.1,37.3z"/>
		<path d="M887.3,41.2l-1.6,3.8h-0.8l1-3.8H887.3z"/>
		<path d="M897.1,35.5c0.5,0.2,0.9,0.6,1.1,1.1c0.3,0.6,0.4,1.2,0.4,1.8v4.5h-1.3v-4.3c0-0.6-0.2-1.3-0.6-1.8
			c-0.9-0.8-2.3-0.8-3.2,0c-0.4,0.5-0.6,1.2-0.6,1.8v4.2h-1.3V32.6h1.3v3.8c0.2-0.4,0.6-0.7,1-0.9C895,35,896.1,35,897.1,35.5
			L897.1,35.5z"/>
		<path d="M901.7,42.6c-0.6-0.3-1.1-0.8-1.4-1.4c-0.3-0.6-0.5-1.4-0.5-2.1c0-0.7,0.2-1.4,0.5-2.1c0.3-0.6,0.8-1.1,1.4-1.4
			c1.2-0.6,2.7-0.6,4,0c0.6,0.3,1.1,0.8,1.4,1.4c0.7,1.3,0.7,2.9,0,4.2c-0.3,0.6-0.8,1.1-1.4,1.4c-0.6,0.3-1.3,0.5-2,0.5
			C902.9,43.1,902.3,42.9,901.7,42.6z M904.9,41.6c0.4-0.2,0.8-0.6,1-1c0.3-0.5,0.4-1,0.4-1.6c0-0.5-0.1-1.1-0.4-1.6
			c-0.2-0.4-0.5-0.8-1-1c-0.8-0.4-1.8-0.4-2.6,0c-0.4,0.2-0.7,0.6-0.9,1c-0.2,0.5-0.4,1-0.3,1.6c0,0.5,0.1,1.1,0.3,1.6
			c0.2,0.4,0.5,0.8,0.9,1c0.4,0.2,0.8,0.3,1.3,0.3C904.1,41.9,904.5,41.8,904.9,41.6L904.9,41.6z"/>
		<path d="M919.1,35.3l-2.4,7.7h-1.3l-1.8-6.1l-1.8,6.1h-1.3l-2.4-7.7h1.3l1.8,6.4l1.9-6.4h1.3l1.9,6.5l1.7-6.5H919.1z"/>
		<path d="M926.9,39.6h-6.1c0,0.7,0.3,1.3,0.8,1.8c0.5,0.4,1.1,0.6,1.7,0.6c0.5,0,1-0.1,1.4-0.4c0.4-0.2,0.6-0.6,0.8-1h1.4
			c-0.2,0.7-0.6,1.4-1.2,1.8c-0.7,0.5-1.5,0.7-2.3,0.7c-0.7,0-1.4-0.1-2-0.5c-0.5-0.3-1-0.8-1.3-1.4c-0.3-0.6-0.5-1.4-0.5-2.1
			c0-0.7,0.1-1.4,0.5-2.1c0.3-0.6,0.8-1.1,1.3-1.4c0.6-0.3,1.3-0.5,2-0.5c0.7,0,1.3,0.2,1.9,0.5c0.5,0.3,1,0.8,1.3,1.3
			c0.3,0.6,0.5,1.2,0.5,1.9C927,39.1,926.9,39.3,926.9,39.6z M925.3,37.3c-0.2-0.3-0.5-0.6-0.9-0.8c-0.4-0.2-0.8-0.3-1.2-0.3
			c-0.6,0-1.2,0.2-1.6,0.6c-0.5,0.5-0.7,1.1-0.8,1.7h4.8C925.6,38.1,925.5,37.7,925.3,37.3L925.3,37.3z"/>
		<path d="M931.1,41.8l2.4-6.5h1.3l-3,7.7h-1.5l-3-7.7h1.4L931.1,41.8z"/>
		<path d="M942.7,39.6h-6.1c0,0.7,0.3,1.3,0.8,1.8c0.5,0.4,1.1,0.7,1.7,0.6c0.5,0,1-0.1,1.4-0.4c0.4-0.2,0.6-0.6,0.8-1h1.4
			c-0.2,0.7-0.6,1.4-1.2,1.8c-0.7,0.5-1.5,0.7-2.3,0.7c-0.7,0-1.4-0.1-2-0.5c-0.6-0.3-1-0.8-1.3-1.4c-0.3-0.6-0.5-1.4-0.5-2.1
			c0-0.7,0.1-1.4,0.5-2.1c0.3-0.6,0.8-1.1,1.4-1.4c0.6-0.3,1.3-0.5,2-0.5c0.7,0,1.3,0.2,1.9,0.5c0.5,0.3,1,0.8,1.3,1.3
			c0.3,0.6,0.5,1.2,0.5,1.9C942.7,39.1,942.7,39.3,942.7,39.6z M941.1,37.3c-0.2-0.3-0.5-0.6-0.9-0.8c-0.4-0.2-0.8-0.3-1.2-0.3
			c-0.6,0-1.2,0.2-1.6,0.6c-0.5,0.5-0.7,1.1-0.8,1.7h4.8C941.4,38.1,941.3,37.7,941.1,37.3L941.1,37.3z"/>
		<path d="M946.2,35.5c0.5-0.3,1-0.4,1.5-0.4v1.3h-0.3c-1.4,0-2.2,0.8-2.2,2.3v4.2H944v-7.7h1.3v1.2
			C945.5,36.1,945.8,35.7,946.2,35.5z"/>
		<path d="M950.1,41.2l-1.6,3.8h-0.9l1-3.8H950.1z"/>
		<path d="M956.1,36.3v4.5c0,0.3,0.1,0.6,0.2,0.8c0.2,0.2,0.5,0.3,0.8,0.2h0.9v1.1h-1.2c-0.6,0-1.1-0.1-1.6-0.5
			c-0.4-0.4-0.6-1-0.5-1.6v-4.5h-1v-1h1v-2h1.3v1.9h2v1L956.1,36.3z"/>
		<path d="M964.6,35.5c0.5,0.3,0.8,0.6,1.1,1.1c0.3,0.6,0.4,1.2,0.4,1.8v4.5h-1.3v-4.3c0-0.6-0.2-1.3-0.6-1.8
			c-0.9-0.8-2.3-0.8-3.2,0c-0.4,0.5-0.6,1.2-0.6,1.8v4.2h-1.3V32.6h1.3v3.8c0.2-0.4,0.6-0.7,1-0.9C962.5,35,963.6,35,964.6,35.5
			L964.6,35.5z"/>
		<path d="M974.8,39.6h-6.1c0,0.7,0.3,1.3,0.8,1.8c0.5,0.4,1.1,0.7,1.7,0.6c0.5,0,1-0.1,1.4-0.4c0.4-0.2,0.6-0.6,0.8-1h1.4
			c-0.2,0.7-0.6,1.4-1.2,1.8c-0.7,0.5-1.5,0.7-2.3,0.7c-0.7,0-1.4-0.1-2-0.5c-0.6-0.3-1-0.8-1.3-1.4c-0.3-0.6-0.5-1.4-0.5-2.1
			c0-0.7,0.1-1.4,0.5-2.1c0.3-0.6,0.8-1.1,1.3-1.4c0.6-0.3,1.3-0.5,2-0.5c0.7,0,1.3,0.2,1.9,0.5c0.5,0.3,1,0.8,1.3,1.3
			c0.3,0.6,0.5,1.2,0.5,1.9C974.8,39,974.8,39.3,974.8,39.6z M973.2,37.3c-0.2-0.3-0.5-0.6-0.9-0.8c-0.4-0.2-0.8-0.3-1.2-0.3
			c-0.6,0-1.2,0.2-1.7,0.6c-0.5,0.4-0.7,1.1-0.8,1.7h4.8C973.5,38.1,973.4,37.7,973.2,37.3L973.2,37.3z"/>
		<path d="M979.4,37c0.3-0.6,0.8-1.1,1.3-1.4c1.4-0.7,3-0.6,4.3,0.2c0.6,0.5,1.1,1.1,1.2,1.9h-1.4c-0.1-0.4-0.4-0.8-0.8-1.1
			c-0.4-0.3-0.9-0.4-1.4-0.4c-0.7,0-1.3,0.3-1.8,0.8c-0.5,0.6-0.7,1.4-0.7,2.1c-0.1,0.8,0.2,1.5,0.7,2.1c0.4,0.5,1.1,0.8,1.8,0.8
			c0.5,0,1-0.1,1.4-0.4c0.4-0.3,0.7-0.7,0.8-1.1h1.4c-0.2,0.8-0.6,1.4-1.3,1.9c-0.7,0.5-1.5,0.7-2.3,0.7c-0.7,0-1.3-0.2-1.9-0.5
			c-0.6-0.3-1-0.8-1.3-1.4c-0.3-0.6-0.5-1.4-0.5-2.1C978.9,38.4,979.1,37.6,979.4,37z"/>
		<path d="M994.3,35.3v7.7h-1.3v-1.1c-0.2,0.4-0.6,0.7-1,0.9c-0.4,0.2-0.9,0.3-1.4,0.3c-0.6,0-1.1-0.1-1.6-0.4
			c-0.5-0.3-0.9-0.6-1.1-1.1c-0.3-0.6-0.4-1.2-0.4-1.8v-4.5h1.3v4.3c0,0.6,0.2,1.3,0.6,1.8c0.4,0.4,1,0.6,1.6,0.6
			c0.6,0,1.2-0.2,1.6-0.6c0.4-0.5,0.6-1.2,0.6-1.8v-4.2H994.3z"/>
		<path d="M998.3,35.5c0.5-0.3,1-0.4,1.5-0.4v1.3h-0.3c-1.4,0-2.1,0.8-2.1,2.3v4.2h-1.3v-7.7h1.3v1.2
			C997.6,36.1,997.9,35.7,998.3,35.5z"/>
		<path d="M1003.2,35.5c0.5-0.3,1-0.4,1.5-0.4v1.3h-0.3c-1.4,0-2.1,0.8-2.1,2.3v4.2h-1.2v-7.7h1.3v1.2
			C1002.5,36.1,1002.8,35.7,1003.2,35.5z"/>
		<path d="M1012.7,39.6h-6.1c0,0.7,0.3,1.3,0.8,1.8c0.5,0.4,1.1,0.7,1.7,0.6c0.5,0,1-0.1,1.4-0.4c0.4-0.2,0.6-0.6,0.8-1h1.4
			c-0.2,0.7-0.6,1.4-1.2,1.8c-0.7,0.5-1.5,0.7-2.3,0.7c-0.7,0-1.4-0.1-2-0.5c-0.6-0.3-1-0.8-1.3-1.4c-0.3-0.6-0.5-1.4-0.5-2.1
			c0-0.7,0.1-1.4,0.5-2.1c0.3-0.6,0.8-1.1,1.3-1.4c0.6-0.3,1.3-0.5,2-0.5c0.7,0,1.3,0.2,1.9,0.5c0.5,0.3,1,0.8,1.3,1.3
			c0.3,0.6,0.5,1.2,0.5,1.9C1012.8,39.1,1012.7,39.3,1012.7,39.6z M1011.1,37.3c-0.2-0.3-0.5-0.6-0.9-0.8c-0.4-0.2-0.8-0.3-1.2-0.3
			c-0.6,0-1.2,0.2-1.7,0.6c-0.5,0.4-0.7,1.1-0.8,1.7h4.8C1011.5,38.1,1011.4,37.7,1011.1,37.3L1011.1,37.3z"/>
		<path d="M1020.1,36c0.6,0.7,0.9,1.5,0.9,2.5V43h-1.3v-4.4c0-0.6-0.2-1.3-0.6-1.8c-0.4-0.4-1-0.6-1.6-0.6c-0.6,0-1.2,0.2-1.6,0.6
			c-0.4,0.5-0.6,1.2-0.6,1.8v4.2h-1.3v-7.7h1.3v1.1c0.2-0.4,0.6-0.7,1-0.9c0.4-0.2,0.9-0.3,1.4-0.3
			C1018.6,35.1,1019.5,35.4,1020.1,36z"/>
		<path d="M1024.2,36.3v4.5c0,0.3,0.1,0.6,0.2,0.8c0.2,0.2,0.5,0.3,0.8,0.2h0.9v1.1h-1.2c-0.6,0-1.1-0.1-1.6-0.5
			c-0.4-0.4-0.6-1-0.5-1.6v-4.5h-1v-1h1v-2h1.3v1.9h2v1L1024.2,36.3z"/>
		<path d="M1037.5,35.3v7.7h-1.3v-1.1c-0.2,0.4-0.6,0.7-1,0.9c-0.4,0.2-0.9,0.3-1.4,0.3c-0.6,0-1.1-0.1-1.6-0.4
			c-0.5-0.3-0.9-0.6-1.1-1.1c-0.3-0.6-0.4-1.2-0.4-1.8v-4.5h1.3v4.3c0,0.6,0.2,1.3,0.6,1.8c0.9,0.8,2.3,0.8,3.2,0
			c0.4-0.5,0.6-1.2,0.6-1.8v-4.2H1037.5z"/>
		<path d="M1040.4,42.8c-0.4-0.2-0.8-0.5-1.1-0.8c-0.3-0.4-0.4-0.8-0.4-1.2h1.3c0,0.4,0.2,0.7,0.5,0.9c0.4,0.3,0.8,0.4,1.3,0.4
			c0.4,0,0.8-0.1,1.2-0.3c0.3-0.2,0.4-0.5,0.4-0.8c0-0.3-0.2-0.6-0.4-0.8c-0.4-0.2-0.9-0.4-1.4-0.5c-0.5-0.1-0.9-0.3-1.4-0.5
			c-0.4-0.2-0.7-0.4-0.9-0.7c-0.3-0.3-0.4-0.8-0.4-1.2c0-0.4,0.1-0.8,0.3-1.1c0.3-0.3,0.6-0.6,1-0.8c0.5-0.2,1-0.3,1.5-0.3
			c0.7,0,1.4,0.2,2,0.6c0.5,0.4,0.8,1.1,0.8,1.8h-1.3c0-0.4-0.2-0.8-0.5-1c-0.3-0.3-0.8-0.4-1.2-0.4c-0.4,0-0.8,0.1-1.1,0.3
			c-0.3,0.2-0.4,0.5-0.4,0.8c0,0.2,0.1,0.5,0.2,0.6c0.2,0.2,0.4,0.3,0.6,0.4c0.3,0.1,0.7,0.2,1,0.3c0.5,0.1,0.9,0.3,1.3,0.4
			c0.3,0.1,0.6,0.4,0.9,0.7c0.3,0.3,0.4,0.7,0.4,1.1c0,0.4-0.1,0.8-0.3,1.1c-0.3,0.4-0.6,0.6-1,0.8c-0.5,0.2-1,0.3-1.5,0.3
			C1041.4,43,1040.9,43,1040.4,42.8z"/>
		<path d="M1053.1,39.6h-6.1c0,0.7,0.3,1.3,0.8,1.8c0.5,0.4,1.1,0.7,1.7,0.6c0.5,0,1-0.1,1.4-0.4c0.4-0.2,0.6-0.6,0.8-1h1.3
			c-0.2,0.7-0.6,1.4-1.2,1.8c-0.7,0.5-1.5,0.7-2.3,0.7c-0.7,0-1.4-0.1-2-0.5c-0.6-0.3-1-0.8-1.3-1.4c-0.3-0.6-0.5-1.4-0.5-2.1
			c0-0.7,0.1-1.4,0.5-2.1c0.3-0.6,0.8-1.1,1.3-1.4c0.6-0.3,1.3-0.5,2-0.5c0.7,0,1.3,0.2,1.9,0.5c0.6,0.3,1,0.8,1.3,1.3
			c0.3,0.6,0.5,1.2,0.4,1.9C1053.1,39.1,1053.1,39.3,1053.1,39.6z M1051.5,37.3c-0.2-0.3-0.5-0.6-0.9-0.8c-0.4-0.2-0.8-0.3-1.2-0.3
			c-0.6,0-1.2,0.2-1.7,0.6c-0.5,0.5-0.7,1.1-0.8,1.7h4.8C1051.9,38.1,1051.7,37.7,1051.5,37.3z"/>
		<path d="M1056.7,35.5c0.5-0.3,1-0.4,1.5-0.4v1.3h-0.3c-1.4,0-2.1,0.8-2.1,2.3v4.2h-1.3v-7.7h1.3v1.2
			C1055.9,36.1,1056.3,35.7,1056.7,35.5z"/>
		<path d="M1069.6,39.6h-6.1c0,0.7,0.3,1.3,0.8,1.8c0.5,0.4,1.1,0.7,1.8,0.6c0.5,0,1-0.1,1.4-0.4c0.4-0.2,0.6-0.6,0.8-1h1.4
			c-0.2,0.7-0.6,1.4-1.2,1.8c-0.7,0.5-1.5,0.7-2.3,0.7c-0.7,0-1.4-0.1-2-0.5c-0.6-0.3-1-0.8-1.3-1.4c-0.6-1.3-0.6-2.9,0-4.2
			c0.3-0.6,0.8-1.1,1.3-1.4c0.6-0.3,1.3-0.5,2-0.5c0.7,0,1.3,0.2,1.9,0.5c0.5,0.3,1,0.8,1.3,1.3c0.3,0.6,0.5,1.2,0.5,1.9
			C1069.6,39,1069.6,39.3,1069.6,39.6z M1068,37.3c-0.2-0.3-0.5-0.6-0.9-0.8c-0.4-0.2-0.8-0.3-1.2-0.3c-0.6,0-1.2,0.2-1.6,0.6
			c-0.5,0.4-0.8,1.1-0.8,1.7h4.8C1068.3,38.1,1068.2,37.7,1068,37.3L1068,37.3z"/>
		<path d="M1074.9,42.9l-1.8-2.9l-1.8,2.9h-1.4l2.5-3.8l-2.5-3.9h1.4l1.8,2.8l1.7-2.8h1.3l-2.5,3.8l2.5,3.9L1074.9,42.9z"/>
		<path d="M1079.6,35.6c0.5-0.3,1.1-0.5,1.7-0.4c0.7,0,1.3,0.2,1.9,0.5c0.6,0.3,1,0.8,1.3,1.4c0.3,0.6,0.5,1.3,0.5,2.1
			c0,0.7-0.1,1.4-0.5,2.1c-0.3,0.6-0.8,1.1-1.3,1.4c-0.6,0.3-1.2,0.5-1.9,0.5c-0.6,0-1.2-0.1-1.7-0.4c-0.5-0.3-0.9-0.6-1.1-1.1v5.1
			h-1.3V35.3h1.3v1.4C1078.8,36.2,1079.2,35.8,1079.6,35.6z M1083.4,37.6c-0.2-0.4-0.5-0.8-0.9-1c-0.4-0.2-0.9-0.3-1.3-0.3
			c-0.5,0-0.9,0.1-1.3,0.3c-0.4,0.2-0.8,0.6-1,1c-0.5,0.9-0.5,2.1,0,3c0.2,0.4,0.6,0.8,1,1c0.4,0.2,0.8,0.3,1.3,0.3
			c0.5,0,0.9-0.1,1.3-0.3c0.4-0.2,0.7-0.6,0.9-1c0.2-0.5,0.4-1,0.3-1.5C1083.7,38.5,1083.6,38,1083.4,37.6L1083.4,37.6z"/>
		<path d="M1093.3,39.6h-6.1c0,0.7,0.3,1.3,0.8,1.8c0.5,0.4,1.1,0.6,1.7,0.6c0.5,0,1-0.1,1.4-0.4c0.4-0.2,0.6-0.6,0.8-1h1.4
			c-0.2,0.7-0.6,1.4-1.2,1.8c-0.7,0.5-1.5,0.7-2.3,0.7c-0.7,0-1.4-0.2-1.9-0.5c-0.6-0.3-1-0.8-1.3-1.4c-0.3-0.6-0.5-1.4-0.5-2.1
			c0-0.7,0.1-1.4,0.5-2.1c0.3-0.6,0.8-1.1,1.3-1.4c0.6-0.3,1.3-0.5,2-0.5c0.7,0,1.3,0.2,1.9,0.5c0.5,0.3,1,0.8,1.3,1.3
			c0.3,0.6,0.5,1.2,0.4,1.9C1093.3,39.1,1093.3,39.3,1093.3,39.6z M1091.7,37.3c-0.2-0.3-0.5-0.6-0.9-0.8c-0.4-0.2-0.8-0.3-1.2-0.3
			c-0.6,0-1.2,0.2-1.6,0.6c-0.5,0.5-0.7,1.1-0.8,1.7h4.9C1092,38.1,1091.9,37.7,1091.7,37.3z"/>
		<path d="M1096.8,35.5c0.5-0.3,1-0.4,1.5-0.4v1.3h-0.3c-1.4,0-2.1,0.8-2.1,2.3v4.2h-1.3v-7.7h1.3v1.2
			C1096.1,36.1,1096.4,35.7,1096.8,35.5z"/>
		<path d="M1099.5,33.8c-0.2-0.2-0.3-0.4-0.2-0.6c0-0.2,0.1-0.5,0.2-0.6c0.2-0.2,0.4-0.3,0.6-0.3c0.2,0,0.4,0.1,0.6,0.3
			c0.2,0.2,0.3,0.4,0.2,0.6c0,0.2-0.1,0.5-0.2,0.6c-0.2,0.2-0.4,0.3-0.6,0.2C1099.8,34,1099.6,33.9,1099.5,33.8z M1100.7,35.3v7.7
			h-1.3v-7.7H1100.7z"/>
		<path d="M1107.8,37.3v1.1h-5.6v-1.1H1107.8z"/>
		<path d="M458.8,61.6h-6.1c0,0.7,0.3,1.3,0.8,1.8c0.5,0.4,1.1,0.7,1.7,0.6c0.5,0,1-0.1,1.4-0.4c0.4-0.2,0.6-0.6,0.8-1h1.4
			c-0.2,0.7-0.6,1.4-1.2,1.8c-0.7,0.5-1.5,0.7-2.3,0.7c-0.7,0-1.4-0.2-2-0.5c-0.6-0.3-1-0.8-1.4-1.4c-0.3-0.6-0.5-1.4-0.5-2.1
			c0-0.7,0.1-1.5,0.5-2.1c0.3-0.6,0.8-1.1,1.3-1.4c0.6-0.3,1.3-0.5,2-0.5c0.7,0,1.3,0.2,1.9,0.5c0.6,0.3,1,0.8,1.3,1.3
			c0.3,0.6,0.5,1.2,0.5,1.9C458.8,61.1,458.8,61.3,458.8,61.6z M457.2,59.3c-0.2-0.3-0.5-0.6-0.9-0.8c-0.4-0.2-0.8-0.3-1.2-0.3
			c-0.6,0-1.2,0.2-1.6,0.6c-0.5,0.5-0.7,1.1-0.8,1.7h4.9C457.5,60.1,457.4,59.7,457.2,59.3z"/>
		<path d="M466.1,58c0.6,0.7,0.9,1.5,0.9,2.5V65h-1.3v-4.4c0-0.6-0.2-1.3-0.6-1.8c-0.4-0.4-1-0.6-1.6-0.6c-0.6,0-1.2,0.2-1.6,0.6
			c-0.4,0.5-0.6,1.2-0.6,1.8v4.2h-1.3v-7.7h1.3v1.1c0.2-0.4,0.6-0.7,1-0.9C463.6,56.9,465.1,57.1,466.1,58L466.1,58z"/>
		<path d="M468.7,59c0.3-0.6,0.8-1,1.3-1.4c1.4-0.7,3-0.6,4.3,0.2c0.6,0.5,1.1,1.1,1.2,1.9h-1.4c-0.1-0.4-0.4-0.8-0.8-1.1
			c-0.4-0.3-0.9-0.4-1.4-0.4c-0.7,0-1.3,0.3-1.8,0.8c-0.5,0.6-0.7,1.4-0.7,2.1c-0.1,0.8,0.2,1.5,0.7,2.1c0.4,0.5,1.1,0.8,1.8,0.8
			c0.5,0,1-0.1,1.4-0.4c0.4-0.3,0.7-0.7,0.8-1.1h1.4c-0.2,0.8-0.6,1.4-1.2,1.9c-0.7,0.5-1.5,0.7-2.3,0.7c-0.7,0-1.3-0.2-1.9-0.5
			c-0.6-0.3-1-0.8-1.3-1.4c-0.3-0.6-0.5-1.4-0.5-2.1C468.2,60.4,468.3,59.6,468.7,59z"/>
		<path d="M483.7,61.6h-6.1c0,0.7,0.3,1.3,0.8,1.8c0.5,0.4,1.1,0.7,1.7,0.6c0.5,0,1-0.1,1.4-0.4c0.4-0.2,0.6-0.6,0.8-1h1.4
			c-0.2,0.7-0.6,1.4-1.2,1.8c-0.7,0.5-1.5,0.7-2.3,0.7c-0.7,0-1.4-0.2-2-0.5c-0.6-0.3-1-0.8-1.4-1.4c-0.3-0.6-0.5-1.4-0.5-2.1
			c0-0.7,0.1-1.4,0.5-2.1c0.3-0.6,0.8-1.1,1.3-1.4c0.6-0.3,1.3-0.5,2-0.5c0.7,0,1.3,0.2,1.9,0.5c0.5,0.3,1,0.8,1.3,1.3
			c0.3,0.6,0.5,1.2,0.5,1.9C483.8,61.1,483.8,61.3,483.7,61.6z M482.1,59.3c-0.2-0.3-0.5-0.6-0.9-0.8c-0.4-0.2-0.8-0.3-1.2-0.3
			c-0.6,0-1.2,0.2-1.6,0.6c-0.5,0.4-0.7,1.1-0.8,1.7h4.8C482.5,60.1,482.3,59.7,482.1,59.3z"/>
		<path d="M489.8,64.6c-0.6-0.3-1.1-0.8-1.4-1.4c-0.3-0.6-0.5-1.4-0.5-2.1c0-0.7,0.2-1.4,0.5-2.1c0.3-0.6,0.8-1.1,1.4-1.4
			c1.2-0.6,2.7-0.6,4,0c0.6,0.3,1.1,0.8,1.4,1.4c0.3,0.6,0.5,1.4,0.5,2.1c0,0.7-0.2,1.5-0.5,2.1c-0.3,0.6-0.8,1.1-1.4,1.4
			c-0.6,0.3-1.3,0.5-2,0.5C491.1,65.1,490.4,64.9,489.8,64.6z M493,63.6c0.4-0.2,0.8-0.6,1-1c0.3-0.5,0.4-1,0.4-1.6
			c0-0.5-0.1-1.1-0.4-1.6c-0.2-0.4-0.5-0.8-1-1c-0.4-0.2-0.8-0.3-1.3-0.3c-0.4,0-0.9,0.1-1.3,0.3c-0.4,0.2-0.7,0.6-0.9,1
			c-0.2,0.5-0.4,1-0.4,1.6c0,0.5,0.1,1.1,0.3,1.6c0.2,0.4,0.5,0.8,0.9,1c0.4,0.2,0.8,0.3,1.3,0.3C492.2,63.9,492.6,63.8,493,63.6
			L493,63.6z"/>
		<path d="M500.1,58.3h-1.6v6.6h-1.3v-6.6h-1v-1h1v-0.5c-0.1-0.7,0.2-1.4,0.7-1.9c0.6-0.5,1.4-0.7,2.1-0.6v1.1
			c-0.4,0-0.8,0.1-1.2,0.3c-0.3,0.3-0.4,0.7-0.3,1.1v0.5h1.6L500.1,58.3z"/>
		<path d="M505.7,64.8c-0.4-0.2-0.8-0.5-1.1-0.8c-0.3-0.4-0.4-0.8-0.4-1.2h1.3c0,0.4,0.2,0.7,0.5,0.9c0.4,0.3,0.8,0.4,1.3,0.4
			c0.4,0,0.8-0.1,1.1-0.3c0.3-0.2,0.4-0.5,0.4-0.8c0-0.3-0.2-0.6-0.5-0.8c-0.4-0.2-0.9-0.4-1.4-0.5c-0.5-0.1-0.9-0.3-1.4-0.5
			c-0.4-0.2-0.7-0.4-0.9-0.7c-0.3-0.3-0.4-0.8-0.4-1.2c0-0.4,0.1-0.8,0.4-1.1c0.3-0.3,0.6-0.6,1-0.8c0.5-0.2,1-0.3,1.5-0.3
			c0.7,0,1.5,0.2,2.1,0.6c0.5,0.4,0.8,1.1,0.8,1.8h-1.3c0-0.4-0.2-0.8-0.5-1c-0.3-0.3-0.8-0.4-1.2-0.4c-0.4,0-0.8,0.1-1.1,0.3
			c-0.3,0.2-0.4,0.5-0.4,0.8c0,0.2,0.1,0.5,0.2,0.6c0.2,0.2,0.4,0.3,0.6,0.4c0.3,0.1,0.7,0.2,1,0.3c0.5,0.1,0.9,0.3,1.4,0.4
			c0.3,0.1,0.6,0.4,0.9,0.7c0.3,0.3,0.4,0.7,0.4,1.1c0,0.4-0.1,0.8-0.4,1.1c-0.3,0.4-0.6,0.6-1,0.8c-0.5,0.2-1,0.3-1.5,0.3
			C506.7,65,506.2,65,505.7,64.8z"/>
		<path d="M516.8,57.5c0.5,0.3,0.9,0.6,1.1,1.1c0.3,0.6,0.4,1.2,0.4,1.8v4.5h-1.3v-4.3c0-0.6-0.2-1.3-0.6-1.8
			c-0.4-0.4-1-0.6-1.6-0.6c-0.6,0-1.2,0.2-1.6,0.6c-0.4,0.5-0.6,1.2-0.6,1.8v4.2h-1.3V54.6h1.3v3.8c0.2-0.4,0.6-0.7,1-0.9
			C514.7,57,515.8,57,516.8,57.5L516.8,57.5z"/>
		<path d="M520,59c0.3-0.6,0.8-1.1,1.3-1.4c0.6-0.3,1.2-0.5,1.8-0.5c0.6,0,1.2,0.1,1.8,0.4c0.5,0.3,0.8,0.6,1.1,1.1v-1.4h1.3v7.7
			H526v-1.4c-0.3,0.5-0.7,0.9-1.1,1.1c-0.5,0.3-1.1,0.5-1.7,0.4c-0.7,0-1.3-0.2-1.8-0.5c-0.6-0.3-1-0.8-1.3-1.4
			c-0.3-0.6-0.5-1.4-0.5-2.1C519.5,60.3,519.7,59.6,520,59z M525.7,59.6c-0.2-0.4-0.5-0.8-0.9-1c-0.4-0.2-0.9-0.3-1.3-0.3
			c-0.5,0-0.9,0.1-1.3,0.3c-0.4,0.2-0.7,0.6-0.9,1c-0.2,0.5-0.4,1-0.3,1.5c0,0.5,0.1,1.1,0.3,1.5c0.2,0.4,0.5,0.8,0.9,1
			c0.4,0.2,0.9,0.3,1.3,0.3c0.5,0,0.9-0.1,1.3-0.3c0.4-0.2,0.7-0.6,0.9-1c0.2-0.5,0.4-1,0.3-1.5C526,60.6,525.9,60,525.7,59.6
			L525.7,59.6z"/>
		<path d="M531.3,57.5c0.5-0.3,1-0.4,1.5-0.4v1.3h-0.3c-1.4,0-2.1,0.8-2.1,2.3v4.2h-1.3v-7.7h1.3v1.2
			C530.6,58.1,530.9,57.7,531.3,57.5z"/>
		<path d="M540.9,61.6h-6.1c0,0.7,0.3,1.3,0.8,1.8c0.5,0.4,1.1,0.7,1.7,0.6c0.5,0,1-0.1,1.4-0.4c0.4-0.2,0.6-0.6,0.8-1h1.4
			c-0.2,0.7-0.6,1.4-1.2,1.8c-0.7,0.5-1.5,0.7-2.3,0.7c-0.7,0-1.4-0.1-2-0.5c-0.6-0.3-1-0.8-1.3-1.4c-0.3-0.6-0.5-1.4-0.5-2.1
			c0-0.7,0.1-1.4,0.5-2.1c0.3-0.6,0.8-1.1,1.3-1.4c0.6-0.3,1.3-0.5,2-0.5c0.7,0,1.3,0.2,1.9,0.5c0.5,0.3,1,0.8,1.3,1.3
			c0.3,0.6,0.5,1.2,0.5,1.9C540.9,61.1,540.9,61.3,540.9,61.6z M539.3,59.3c-0.2-0.3-0.5-0.6-0.9-0.8c-0.4-0.2-0.8-0.3-1.2-0.3
			c-0.6,0-1.2,0.2-1.6,0.6c-0.5,0.5-0.7,1.1-0.8,1.7h4.8C539.6,60.1,539.5,59.7,539.3,59.3z"/>
		<path d="M542.2,59c0.3-0.6,0.8-1.1,1.3-1.4c0.6-0.3,1.2-0.5,1.9-0.5c0.6,0,1.1,0.1,1.7,0.4c0.5,0.2,0.9,0.6,1.2,1.1v-4h1.3v10.4
			h-1.3v-1.4c-0.3,0.5-0.7,0.9-1.1,1.1c-0.5,0.3-1.1,0.5-1.7,0.4c-0.7,0-1.3-0.2-1.8-0.5c-0.6-0.3-1-0.8-1.3-1.4
			c-0.3-0.6-0.5-1.4-0.5-2.1C541.7,60.4,541.9,59.6,542.2,59z M547.9,59.6c-0.2-0.4-0.5-0.8-0.9-1c-0.4-0.2-0.9-0.3-1.3-0.3
			c-0.5,0-0.9,0.1-1.3,0.3c-0.4,0.2-0.7,0.6-0.9,1c-0.2,0.5-0.4,1-0.3,1.5c0,0.5,0.1,1.1,0.3,1.5c0.2,0.4,0.5,0.8,0.9,1
			c0.4,0.2,0.9,0.3,1.3,0.3c0.5,0,0.9-0.1,1.3-0.3c0.4-0.2,0.7-0.6,0.9-1c0.2-0.5,0.4-1,0.3-1.5C548.2,60.6,548.1,60,547.9,59.6
			L547.9,59.6z"/>
		<path d="M557.7,58.3h-1.6v6.6h-1.3v-6.6h-1v-1h1v-0.5c-0.1-0.7,0.2-1.4,0.7-1.9c0.6-0.5,1.4-0.7,2.1-0.6v1.1
			c-0.4,0-0.8,0.1-1.2,0.3c-0.3,0.3-0.4,0.7-0.3,1.1v0.5h1.6L557.7,58.3z"/>
		<path d="M560.1,54.6v10.4h-1.3V54.6H560.1z"/>
		<path d="M561.9,55.8c-0.2-0.2-0.3-0.4-0.3-0.6c0-0.5,0.4-0.9,0.9-0.9c0.2,0,0.4,0.1,0.6,0.3c0.2,0.2,0.2,0.4,0.2,0.6
			c0,0.2-0.1,0.5-0.2,0.6c-0.2,0.2-0.4,0.3-0.6,0.2C562.3,56,562.1,55.9,561.9,55.8z M563.2,57.3v7.7h-1.3v-7.7H563.2z"/>
		<path d="M569.8,57.6c0.5,0.3,0.9,0.6,1.1,1.1v-1.4h1.3v7.8c0,0.7-0.1,1.3-0.4,1.9c-0.3,0.5-0.7,1-1.3,1.3
			c-0.6,0.3-1.3,0.5-1.9,0.5c-0.9,0-1.8-0.2-2.5-0.7c-0.7-0.4-1.1-1.2-1.2-1.9h1.3c0.1,0.5,0.4,0.9,0.9,1.1c0.5,0.3,1,0.4,1.6,0.4
			c0.6,0,1.3-0.2,1.7-0.7c0.5-0.5,0.7-1.2,0.7-1.8v-1.6c-0.3,0.5-0.7,0.8-1.1,1.1c-0.5,0.3-1.1,0.5-1.7,0.4c-0.7,0-1.3-0.2-1.9-0.5
			c-0.6-0.3-1-0.8-1.3-1.4c-0.3-0.6-0.5-1.4-0.5-2.1c0-0.7,0.1-1.4,0.5-2.1c0.3-0.6,0.7-1.1,1.3-1.4c0.6-0.3,1.2-0.5,1.9-0.5
			C568.7,57.1,569.3,57.3,569.8,57.6z M570.6,59.6c-0.2-0.4-0.6-0.8-1-1c-0.4-0.2-0.9-0.3-1.3-0.3c-0.5,0-0.9,0.1-1.3,0.3
			c-0.4,0.2-0.7,0.6-0.9,1c-0.2,0.5-0.4,1-0.3,1.5c0,0.5,0.1,1.1,0.3,1.5c0.2,0.4,0.5,0.8,0.9,1c0.4,0.2,0.8,0.3,1.3,0.3
			c0.5,0,0.9-0.1,1.3-0.3c0.4-0.2,0.8-0.6,1-1c0.2-0.5,0.4-1,0.3-1.5C571,60.6,570.9,60,570.6,59.6L570.6,59.6z"/>
		<path d="M579.4,57.5c0.5,0.2,0.9,0.6,1.1,1.1c0.3,0.6,0.4,1.2,0.4,1.8v4.5h-1.3v-4.3c0-0.6-0.2-1.3-0.6-1.8
			c-0.9-0.8-2.3-0.8-3.2,0c-0.4,0.5-0.6,1.2-0.6,1.8v4.2H574V54.6h1.3v3.8c0.2-0.4,0.6-0.7,1-0.9c0.5-0.2,1-0.3,1.5-0.3
			C578.3,57.1,578.9,57.2,579.4,57.5z"/>
		<path d="M584.1,58.3v4.5c0,0.3,0.1,0.6,0.2,0.8c0.2,0.2,0.5,0.3,0.8,0.2h0.9v1.1H585c-0.6,0-1.1-0.1-1.6-0.5
			c-0.4-0.4-0.6-1-0.5-1.6v-4.5h-1v-1h1v-2h1.3v1.9h2v1L584.1,58.3z"/>
		<path d="M590.7,55.8c-0.2-0.2-0.3-0.4-0.2-0.6c0-0.2,0.1-0.5,0.2-0.6c0.2-0.2,0.4-0.3,0.6-0.3c0.2,0,0.4,0.1,0.6,0.3
			c0.2,0.2,0.2,0.4,0.2,0.6c0,0.2-0.1,0.5-0.2,0.6c-0.2,0.2-0.4,0.3-0.6,0.2C591.1,56,590.8,55.9,590.7,55.8z M591.9,57.3v7.7h-1.3
			v-7.7H591.9z"/>
		<path d="M594.8,64.8c-0.4-0.2-0.8-0.5-1.1-0.8c-0.3-0.4-0.4-0.8-0.5-1.2h1.3c0,0.4,0.2,0.7,0.5,0.9c0.4,0.3,0.8,0.4,1.3,0.4
			c0.4,0,0.8-0.1,1.2-0.3c0.3-0.2,0.4-0.5,0.4-0.8c0-0.3-0.2-0.6-0.5-0.8c-0.4-0.2-0.9-0.4-1.4-0.5c-0.5-0.1-0.9-0.3-1.4-0.5
			c-0.4-0.2-0.7-0.4-0.9-0.7c-0.3-0.3-0.4-0.8-0.4-1.2c0-0.4,0.1-0.8,0.3-1.1c0.3-0.3,0.6-0.6,1-0.8c0.5-0.2,1-0.3,1.5-0.3
			c0.7,0,1.4,0.2,2,0.6c0.5,0.4,0.8,1.1,0.8,1.8h-1.3c0-0.4-0.2-0.8-0.5-1c-0.3-0.3-0.8-0.4-1.2-0.4c-0.4,0-0.8,0.1-1.1,0.3
			c-0.3,0.2-0.4,0.5-0.4,0.8c0,0.2,0.1,0.5,0.2,0.6c0.2,0.2,0.4,0.3,0.6,0.4c0.3,0.1,0.7,0.2,1,0.3c0.5,0.1,0.9,0.3,1.3,0.4
			c0.3,0.1,0.6,0.4,0.9,0.7c0.3,0.3,0.4,0.7,0.4,1.1c0,0.4-0.1,0.8-0.3,1.1c-0.3,0.4-0.6,0.6-1,0.8c-0.5,0.2-1,0.3-1.5,0.3
			C595.8,65,595.3,64.9,594.8,64.8z"/>
		<path d="M606.6,58c0.6,0.7,0.9,1.5,0.9,2.5V65h-1.3v-4.4c0-0.6-0.2-1.3-0.6-1.8c-0.4-0.4-1-0.6-1.6-0.6c-0.6,0-1.2,0.2-1.6,0.6
			c-0.4,0.5-0.6,1.2-0.6,1.8v4.2h-1.3v-7.7h1.3v1.1c0.2-0.4,0.6-0.7,1-0.9c0.4-0.2,0.9-0.3,1.4-0.3C605.2,57.1,606,57.4,606.6,58z"
			/>
		<path d="M609.4,55.2h1.4l-1.3,3.2h-0.9L609.4,55.2z"/>
		<path d="M613.4,58.3v4.5c0,0.3,0.1,0.6,0.2,0.8c0.2,0.2,0.5,0.3,0.8,0.2h0.9v1.1h-1.2c-0.6,0-1.1-0.1-1.6-0.5
			c-0.4-0.4-0.6-1-0.5-1.6v-4.5h-1v-1h1v-2h1.3v1.9h2v1L613.4,58.3z"/>
		<path d="M621,64.8c-0.4-0.2-0.8-0.5-1.1-0.8c-0.3-0.4-0.4-0.8-0.5-1.2h1.3c0,0.4,0.2,0.7,0.5,0.9c0.4,0.3,0.8,0.4,1.3,0.4
			c0.4,0,0.8-0.1,1.1-0.3c0.3-0.2,0.4-0.5,0.4-0.8c0-0.3-0.2-0.6-0.4-0.8c-0.4-0.2-0.9-0.4-1.4-0.5c-0.5-0.1-0.9-0.3-1.4-0.5
			c-0.4-0.2-0.7-0.4-0.9-0.7c-0.3-0.3-0.4-0.8-0.4-1.2c0-0.4,0.2-0.8,0.4-1.1c0.3-0.3,0.6-0.6,1-0.8c0.5-0.2,1-0.3,1.5-0.3
			c0.7,0,1.5,0.2,2.1,0.6c0.5,0.4,0.8,1.1,0.8,1.8h-1.3c0-0.4-0.2-0.8-0.5-1c-0.3-0.3-0.8-0.4-1.2-0.4c-0.4,0-0.8,0.1-1.1,0.3
			c-0.3,0.2-0.4,0.5-0.4,0.8c0,0.2,0.1,0.5,0.2,0.6c0.2,0.2,0.4,0.3,0.6,0.4c0.3,0.1,0.7,0.2,1,0.3c0.5,0.1,0.9,0.3,1.3,0.4
			c0.3,0.1,0.6,0.4,0.9,0.7c0.3,0.3,0.4,0.7,0.4,1.1c0,0.4-0.1,0.8-0.3,1.1c-0.3,0.4-0.6,0.6-1,0.8c-0.5,0.2-1,0.3-1.5,0.3
			C622.1,65.1,621.5,65,621,64.8z"/>
		<path d="M626.8,59c0.3-0.6,0.8-1.1,1.3-1.4c0.6-0.3,1.2-0.5,1.8-0.5c0.6,0,1.2,0.1,1.8,0.4c0.5,0.3,0.8,0.6,1.1,1.1v-1.4h1.3v7.7
			h-1.3v-1.4c-0.3,0.5-0.7,0.9-1.1,1.1c-0.5,0.3-1.1,0.5-1.7,0.4c-0.7,0-1.3-0.2-1.8-0.5c-0.6-0.3-1-0.8-1.3-1.4
			c-0.3-0.6-0.5-1.4-0.5-2.1C626.3,60.4,626.5,59.6,626.8,59z M632.5,59.6c-0.2-0.4-0.5-0.8-0.9-1c-0.4-0.2-0.9-0.3-1.3-0.3
			c-0.5,0-0.9,0.1-1.3,0.3c-0.4,0.2-0.7,0.6-0.9,1c-0.2,0.5-0.4,1-0.3,1.5c0,0.5,0.1,1.1,0.3,1.5c0.2,0.4,0.5,0.8,0.9,1
			c0.4,0.2,0.9,0.3,1.3,0.3c0.5,0,0.9-0.1,1.3-0.3c0.4-0.2,0.7-0.6,0.9-1c0.2-0.5,0.4-1,0.3-1.5C632.8,60.6,632.7,60,632.5,59.6
			L632.5,59.6z"/>
		<path d="M637.4,58.3v4.5c0,0.3,0.1,0.6,0.2,0.8c0.2,0.2,0.5,0.3,0.8,0.2h0.9v1.1h-1.2c-0.6,0-1.1-0.1-1.6-0.5
			c-0.4-0.4-0.6-1-0.5-1.6v-4.5h-1v-1h1v-2h1.3v1.9h2v1L637.4,58.3z"/>
		<path d="M640.6,55.8c-0.2-0.2-0.3-0.4-0.2-0.6c0-0.2,0.1-0.5,0.2-0.6c0.2-0.2,0.4-0.3,0.6-0.3c0.2,0,0.4,0.1,0.6,0.3
			c0.2,0.2,0.3,0.4,0.2,0.6c0,0.2-0.1,0.5-0.2,0.6c-0.2,0.2-0.4,0.3-0.6,0.2C641,56,640.8,55.9,640.6,55.8z M641.8,57.3v7.7h-1.3
			v-7.7H641.8z"/>
		<path d="M644.8,64.8c-0.4-0.2-0.8-0.5-1.1-0.8c-0.3-0.4-0.4-0.8-0.5-1.2h1.3c0,0.4,0.2,0.7,0.5,0.9c0.4,0.3,0.8,0.4,1.3,0.4
			c0.4,0,0.8-0.1,1.2-0.3c0.3-0.2,0.4-0.5,0.4-0.8c0-0.3-0.2-0.6-0.5-0.8c-0.4-0.2-0.9-0.4-1.4-0.5c-0.5-0.1-0.9-0.3-1.4-0.5
			c-0.4-0.2-0.7-0.4-0.9-0.7c-0.3-0.3-0.4-0.8-0.4-1.2c0-0.4,0.1-0.8,0.3-1.1c0.3-0.3,0.6-0.6,1-0.8c0.5-0.2,1-0.3,1.5-0.3
			c0.7,0,1.5,0.2,2,0.6c0.5,0.4,0.8,1.1,0.8,1.8h-1.3c0-0.4-0.2-0.8-0.5-1c-0.3-0.3-0.8-0.4-1.2-0.4c-0.4,0-0.8,0.1-1.1,0.3
			c-0.3,0.2-0.4,0.5-0.4,0.8c0,0.2,0.1,0.5,0.2,0.6c0.2,0.2,0.4,0.3,0.6,0.4c0.3,0.1,0.7,0.2,1,0.3c0.5,0.1,0.9,0.3,1.3,0.4
			c0.3,0.1,0.7,0.4,0.9,0.7c0.3,0.3,0.4,0.7,0.4,1.1c0,0.4-0.1,0.8-0.3,1.1c-0.3,0.4-0.6,0.6-1,0.8c-0.5,0.2-1,0.3-1.5,0.3
			C645.8,65,645.2,64.9,644.8,64.8z"/>
		<path d="M653.7,58.3h-1.6v6.6h-1.3v-6.6h-1v-1h1v-0.5c-0.1-0.7,0.2-1.4,0.7-1.9c0.6-0.5,1.4-0.7,2.1-0.6v1.1
			c-0.4,0-0.8,0.1-1.2,0.3c-0.3,0.3-0.4,0.7-0.3,1.1v0.5h1.6L653.7,58.3z"/>
		<path d="M661.4,57.3l-4.6,11.3h-1.3l1.5-3.7l-3.1-7.6h1.4l2.4,6.2l2.4-6.2L661.4,57.3z"/>
		<path d="M662.3,55.8c-0.2-0.2-0.3-0.4-0.2-0.6c0-0.2,0.1-0.5,0.2-0.6c0.2-0.2,0.4-0.3,0.6-0.3c0.2,0,0.4,0.1,0.6,0.3
			c0.2,0.2,0.3,0.4,0.2,0.6c0,0.2-0.1,0.5-0.2,0.6c-0.2,0.2-0.4,0.3-0.6,0.2C662.7,56,662.5,55.9,662.3,55.8z M663.5,57.3v7.7h-1.3
			v-7.7H663.5z"/>
		<path d="M671.3,58c0.6,0.7,0.9,1.6,0.9,2.5V65h-1.3v-4.4c0-0.6-0.2-1.3-0.6-1.8c-0.4-0.4-1-0.6-1.6-0.6c-0.6,0-1.2,0.2-1.6,0.6
			c-0.4,0.5-0.6,1.2-0.6,1.8v4.2h-1.3v-7.7h1.3v1.1c0.2-0.4,0.6-0.7,1-0.9C668.8,56.9,670.3,57.1,671.3,58L671.3,58z"/>
		<path d="M678.8,57.6c0.5,0.3,0.9,0.6,1.1,1.1v-1.4h1.3v7.8c0,0.7-0.1,1.3-0.5,1.9c-0.3,0.5-0.7,1-1.3,1.3
			c-0.6,0.3-1.3,0.5-1.9,0.5c-0.9,0-1.8-0.2-2.5-0.7c-0.7-0.4-1.1-1.2-1.2-1.9h1.3c0.1,0.5,0.5,0.9,0.9,1.1c0.5,0.3,1,0.4,1.6,0.4
			c0.6,0,1.3-0.2,1.7-0.7c0.5-0.5,0.7-1.2,0.7-1.8v-1.6c-0.3,0.5-0.7,0.8-1.1,1.1c-0.5,0.3-1.1,0.5-1.7,0.4c-0.7,0-1.3-0.2-1.8-0.5
			c-0.6-0.3-1-0.8-1.3-1.4c-0.3-0.6-0.5-1.4-0.5-2.1c0-0.7,0.1-1.4,0.5-2.1c0.3-0.6,0.8-1.1,1.3-1.4c0.6-0.3,1.2-0.5,1.8-0.5
			C677.6,57.1,678.2,57.3,678.8,57.6z M679.5,59.6c-0.4-0.8-1.3-1.3-2.3-1.3c-0.5,0-0.9,0.1-1.3,0.3c-0.4,0.2-0.7,0.6-0.9,1
			c-0.2,0.5-0.4,1-0.3,1.5c0,0.5,0.1,1.1,0.3,1.5c0.2,0.4,0.5,0.8,0.9,1c1.2,0.7,2.8,0.3,3.5-0.9c0,0,0-0.1,0.1-0.1
			c0.2-0.5,0.4-1,0.3-1.5C679.9,60.6,679.8,60,679.5,59.6L679.5,59.6z"/>
		<path d="M682.7,64.8c-0.3-0.3-0.3-0.9,0-1.2c0.2-0.2,0.4-0.2,0.6-0.2c0.2,0,0.4,0.1,0.6,0.2c0.3,0.3,0.3,0.9,0,1.2
			c-0.2,0.2-0.4,0.3-0.6,0.2C683.1,65,682.9,64.9,682.7,64.8z"/>
		<path d="M698.7,55.2v9.7h-1.3v-7.2l-3.2,7.2h-0.9l-3.2-7.2v7.2h-1.3v-9.7h1.4l3.6,8l3.6-8H698.7z"/>
		<path d="M707.1,57.3l-4.6,11.3h-1.3l1.5-3.7l-3.1-7.6h1.4l2.4,6.2l2.4-6.2L707.1,57.3z"/>
		<path d="M716.2,57.6c0.5,0.3,0.8,0.6,1.1,1.1v-1.4h1.3v7.8c0,0.7-0.1,1.3-0.5,1.9c-0.3,0.5-0.7,1-1.3,1.3
			c-0.6,0.3-1.3,0.5-1.9,0.5c-0.9,0-1.8-0.2-2.5-0.7c-0.7-0.4-1.1-1.2-1.2-1.9h1.3c0.1,0.5,0.5,0.9,0.9,1.1c0.5,0.3,1,0.4,1.6,0.4
			c0.6,0,1.3-0.2,1.7-0.7c0.5-0.5,0.7-1.2,0.7-1.8v-1.6c-0.3,0.5-0.7,0.9-1.1,1.1c-0.5,0.3-1.1,0.5-1.7,0.4c-0.7,0-1.3-0.2-1.9-0.5
			c-0.6-0.3-1-0.8-1.3-1.4c-0.3-0.6-0.5-1.4-0.5-2.1c0-0.7,0.1-1.4,0.5-2.1c0.3-0.6,0.8-1.1,1.3-1.4c0.6-0.3,1.2-0.5,1.9-0.5
			C715.1,57.1,715.7,57.3,716.2,57.6z M717,59.6c-0.2-0.4-0.5-0.8-0.9-1c-0.4-0.2-0.9-0.3-1.3-0.3c-0.5,0-0.9,0.1-1.3,0.3
			c-0.4,0.2-0.7,0.6-0.9,1c-0.2,0.5-0.4,1-0.3,1.5c0,0.5,0.1,1.1,0.3,1.5c0.2,0.4,0.5,0.8,0.9,1c0.4,0.2,0.9,0.3,1.3,0.3
			c0.5,0,0.9-0.1,1.3-0.3c0.4-0.2,0.7-0.6,0.9-1c0.2-0.5,0.4-1,0.3-1.5C717.4,60.6,717.2,60,717,59.6L717,59.6z"/>
		<path d="M721.8,64.6c-0.6-0.3-1.1-0.8-1.4-1.4c-0.3-0.6-0.5-1.4-0.5-2.1c0-0.7,0.2-1.4,0.5-2.1c0.3-0.6,0.8-1.1,1.4-1.4
			c1.2-0.6,2.7-0.6,4,0c0.6,0.3,1.1,0.8,1.4,1.4c0.3,0.6,0.5,1.4,0.5,2.1c0,0.7-0.2,1.5-0.5,2.1c-0.3,0.6-0.8,1.1-1.4,1.4
			c-0.6,0.3-1.3,0.5-2,0.5C723.1,65.1,722.4,64.9,721.8,64.6z M725,63.6c0.4-0.2,0.8-0.6,1-1c0.3-0.5,0.4-1,0.4-1.6
			c0-0.5-0.1-1.1-0.4-1.6c-0.2-0.4-0.6-0.8-1-1c-0.8-0.4-1.8-0.4-2.5,0c-0.4,0.2-0.7,0.6-0.9,1c-0.2,0.5-0.4,1-0.3,1.6
			c0,0.5,0.1,1.1,0.3,1.6c0.2,0.4,0.5,0.8,0.9,1c0.4,0.2,0.8,0.3,1.3,0.3C724.2,63.9,724.6,63.8,725,63.6L725,63.6z"/>
		<path d="M729,59c0.3-0.6,0.8-1.1,1.3-1.4c0.6-0.3,1.2-0.5,1.8-0.5c0.6,0,1.2,0.1,1.8,0.4c0.5,0.3,0.8,0.6,1.1,1.1v-1.4h1.3v7.7
			H735v-1.4c-0.3,0.5-0.7,0.9-1.1,1.1c-0.5,0.3-1.1,0.5-1.7,0.4c-0.7,0-1.3-0.2-1.8-0.5c-0.6-0.3-1-0.8-1.3-1.4
			c-0.3-0.6-0.5-1.4-0.5-2.1C728.5,60.3,728.7,59.6,729,59z M734.7,59.6c-0.2-0.4-0.5-0.8-0.9-1c-0.4-0.2-0.9-0.3-1.3-0.3
			c-0.5,0-0.9,0.1-1.3,0.3c-0.4,0.2-0.7,0.6-0.9,1c-0.2,0.5-0.4,1-0.3,1.5c0,0.5,0.1,1.1,0.3,1.5c0.2,0.4,0.5,0.8,0.9,1
			c0.4,0.2,0.9,0.3,1.3,0.3c0.5,0,0.9-0.1,1.3-0.3c0.4-0.2,0.7-0.6,0.9-1c0.2-0.5,0.4-1,0.3-1.5C735,60.6,734.9,60,734.7,59.6
			L734.7,59.6z"/>
		<path d="M739.3,54.6v10.4H738V54.6H739.3z"/>
		<path d="M744.5,55.8c-0.2-0.2-0.3-0.4-0.2-0.6c0-0.2,0.1-0.5,0.2-0.6c0.2-0.2,0.4-0.3,0.6-0.3c0.2,0,0.4,0.1,0.6,0.3
			c0.2,0.2,0.3,0.4,0.2,0.6c0,0.2-0.1,0.5-0.2,0.6c-0.2,0.2-0.4,0.3-0.6,0.2C744.9,56,744.6,55.9,744.5,55.8z M745.7,57.3v7.7h-1.3
			v-7.7H745.7z"/>
		<path d="M748.6,64.8c-0.4-0.2-0.8-0.5-1.1-0.8c-0.3-0.4-0.4-0.8-0.5-1.2h1.3c0,0.4,0.2,0.7,0.5,0.9c0.4,0.3,0.8,0.4,1.3,0.4
			c0.4,0,0.8-0.1,1.2-0.3c0.3-0.2,0.4-0.5,0.4-0.8c0-0.3-0.2-0.6-0.5-0.8c-0.4-0.2-0.9-0.4-1.4-0.5c-0.5-0.1-0.9-0.3-1.4-0.5
			c-0.4-0.2-0.7-0.4-0.9-0.7c-0.3-0.3-0.4-0.8-0.4-1.2c0-0.4,0.1-0.8,0.3-1.1c0.3-0.3,0.6-0.6,1-0.8c0.5-0.2,1-0.3,1.5-0.3
			c0.7,0,1.5,0.2,2.1,0.6c0.5,0.4,0.8,1.1,0.8,1.8h-1.3c0-0.4-0.2-0.8-0.5-1c-0.3-0.3-0.8-0.4-1.2-0.4c-0.4,0-0.8,0.1-1.1,0.3
			c-0.3,0.2-0.4,0.5-0.4,0.8c0,0.2,0.1,0.5,0.2,0.6c0.2,0.2,0.4,0.3,0.6,0.4c0.3,0.1,0.7,0.2,1,0.3c0.5,0.1,0.9,0.3,1.3,0.4
			c0.3,0.1,0.7,0.4,0.9,0.7c0.3,0.3,0.4,0.7,0.4,1.1c0,0.4-0.1,0.8-0.3,1.1c-0.3,0.3-0.6,0.6-1,0.8c-0.5,0.2-1,0.3-1.5,0.3
			C749.7,65,749.1,65,748.6,64.8z"/>
		<path d="M759.3,58.3v4.5c0,0.3,0.1,0.6,0.2,0.8c0.2,0.2,0.5,0.3,0.8,0.2h0.9v1.1h-1.2c-0.6,0-1.1-0.1-1.6-0.5
			c-0.4-0.4-0.6-1-0.5-1.6v-4.5h-1v-1h1v-2h1.3v1.9h2v1L759.3,58.3z"/>
		<path d="M763.8,64.6c-0.6-0.3-1.1-0.8-1.4-1.4c-0.3-0.6-0.5-1.4-0.5-2.1c0-0.7,0.2-1.4,0.5-2.1c0.3-0.6,0.8-1.1,1.4-1.4
			c1.2-0.6,2.7-0.6,3.9,0c0.6,0.3,1.1,0.8,1.4,1.4c0.3,0.6,0.5,1.4,0.5,2.1c0,0.7-0.2,1.5-0.5,2.1c-0.3,0.6-0.8,1.1-1.4,1.4
			c-0.6,0.3-1.3,0.5-2,0.5C765.1,65.1,764.4,64.9,763.8,64.6z M767.1,63.6c0.4-0.2,0.8-0.6,1-1c0.3-0.5,0.4-1,0.4-1.6
			c0-0.5-0.1-1.1-0.4-1.6c-0.2-0.4-0.6-0.8-1-1c-0.8-0.4-1.8-0.4-2.6,0c-0.4,0.2-0.7,0.6-0.9,1c-0.2,0.5-0.4,1-0.3,1.6
			c0,0.5,0.1,1.1,0.3,1.6c0.2,0.4,0.5,0.8,0.9,1C765.3,64,766.3,64,767.1,63.6L767.1,63.6z"/>
		<path d="M776.5,56.2c-0.3,0.3-0.6,0.4-1,0.4c-0.4,0-0.7-0.1-1-0.4c-0.3-0.3-0.4-0.6-0.4-1c0-0.4,0.1-0.7,0.4-1
			c0.3-0.3,0.6-0.4,1-0.4c0.8,0,1.4,0.6,1.4,1.3c0,0,0,0,0,0.1C776.9,55.6,776.8,56,776.5,56.2z M774.3,64.9v-7.8h2.4v7.8H774.3z"/>
		<path d="M780.8,57.1v1.1c0.5-0.8,1.4-1.3,2.4-1.3c0.5,0,1.1,0.1,1.5,0.4c0.5,0.3,0.8,0.7,1.1,1.1c0.3-0.4,0.7-0.8,1.1-1.1
			c0.5-0.3,1-0.4,1.5-0.4c0.8,0,1.7,0.3,2.3,0.9c0.6,0.7,0.9,1.6,0.8,2.5v4.6h-2.4v-4.2c0-0.4-0.1-0.9-0.4-1.2
			c-0.3-0.3-0.7-0.4-1.1-0.4c-0.4,0-0.8,0.1-1.1,0.4c-0.3,0.3-0.4,0.7-0.4,1.2v4.2h-2.4v-4.2c0-0.4-0.1-0.8-0.4-1.2
			c-0.3-0.3-0.7-0.4-1.1-0.4c-0.4,0-0.8,0.1-1.1,0.4c-0.3,0.3-0.4,0.7-0.4,1.2v4.2h-2.4v-7.8H780.8z"/>
		<path d="M795.6,58.2c0.5-0.7,1.4-1.2,2.3-1.2c1,0,1.9,0.4,2.5,1.1c1.4,1.7,1.4,4.1,0,5.8c-0.6,0.7-1.6,1.1-2.5,1.1
			c-0.9,0-1.8-0.4-2.3-1.2v4.9h-2.4V57.1h2.4V58.2z M798.5,62.5c0.7-0.8,0.7-2,0-2.8c-0.3-0.3-0.7-0.5-1.2-0.5
			c-0.4,0-0.9,0.2-1.2,0.5c-0.4,0.4-0.6,0.9-0.5,1.4c0,0.5,0.2,1,0.5,1.4C796.8,63.1,797.9,63.1,798.5,62.5
			C798.5,62.5,798.5,62.5,798.5,62.5L798.5,62.5z"/>
		<path d="M805,57.1v1.5c0.4-0.9,1.2-1.5,2.2-1.6v2.4h-0.6c-0.4,0-0.9,0.1-1.2,0.4c-0.3,0.4-0.5,0.9-0.4,1.4v3.7h-2.4v-7.8H805z"/>
		<path d="M808.8,63.9c-0.8-0.8-1.2-1.8-1.2-2.9c0-1.1,0.4-2.1,1.2-2.9c1.7-1.5,4.2-1.5,5.8,0c0.8,0.7,1.2,1.8,1.2,2.9
			c0,1.1-0.4,2.2-1.2,2.9c-0.8,0.7-1.8,1.1-2.9,1.1C810.6,65,809.6,64.7,808.8,63.9z M812.8,62.5c0.3-0.4,0.5-0.9,0.5-1.5
			c0-0.5-0.1-1.1-0.5-1.5c-0.3-0.3-0.7-0.5-1.2-0.5c-0.4,0-0.9,0.2-1.2,0.5c-0.3,0.4-0.5,0.9-0.5,1.4c0,0.5,0.1,1.1,0.5,1.5
			c0.3,0.3,0.7,0.5,1.2,0.5C812.1,63,812.5,62.8,812.8,62.5z"/>
		<path d="M815.9,57.1h2.5l1.8,5.8l1.8-5.8h2.5l-2.8,7.8h-3.1L815.9,57.1z"/>
		<path d="M828.6,65c-1,0-2.1-0.4-2.8-1.1c-0.7-0.8-1.1-1.8-1.1-2.9c-0.1-1.1,0.3-2.1,1.1-2.9c0.7-0.7,1.8-1.1,2.8-1.1
			c1.1,0,2.1,0.3,2.9,1.1c0.8,0.8,1.2,1.9,1.1,3c0,0.3,0,0.5,0,0.8h-5.4c0.1,0.6,0.7,1.1,1.3,1.2c0.2,0,0.5,0,0.7-0.1
			c0.1,0,0.2-0.1,0.3-0.2c0.1-0.1,0.2-0.2,0.3-0.3h2.6c-0.2,0.8-0.7,1.4-1.3,1.9C830.3,64.8,829.4,65,828.6,65z M829.6,59.4
			c-0.3-0.2-0.6-0.3-1-0.3c-0.4,0-0.7,0.1-1,0.3c-0.3,0.2-0.4,0.5-0.5,0.9h2.9C830,60,829.9,59.7,829.6,59.4L829.6,59.4z"/>
		<path d="M840.9,62.9h0.8v2h-1.2c-0.7,0-1.4-0.2-2-0.6c-0.5-0.5-0.8-1.3-0.7-2v-3.2H837v-2h0.7v-1.9h2.4v1.9h1.6v2h-1.6v3.2
			C840.1,62.7,840.4,62.9,840.9,62.9z"/>
		<path d="M845.3,54.6v3.7c0.5-0.8,1.4-1.3,2.4-1.3c0.8,0,1.6,0.3,2.2,0.9c0.6,0.7,0.9,1.5,0.8,2.4v4.6h-2.4v-4.2
			c0-0.4-0.1-0.8-0.4-1.2c-0.6-0.6-1.6-0.6-2.2,0c-0.3,0.3-0.4,0.7-0.4,1.2v4.2H843V54.6H845.3z"/>
		<path d="M855.7,65c-1,0-2.1-0.4-2.8-1.1c-0.7-0.8-1.1-1.8-1.1-2.9c-0.1-1.1,0.3-2.1,1.1-2.9c0.7-0.7,1.8-1.1,2.8-1.1
			c1.1,0,2.1,0.3,2.9,1.1c0.8,0.8,1.2,1.9,1.1,3c0,0.3,0,0.5,0,0.8h-5.4c0.1,0.6,0.6,1.1,1.3,1.2c0.2,0,0.5,0,0.7-0.1
			c0.1,0,0.2-0.1,0.3-0.2c0.1-0.1,0.2-0.2,0.3-0.3h2.6c-0.2,0.8-0.7,1.4-1.3,1.9C857.4,64.8,856.5,65,855.7,65z M856.7,59.4
			c-0.3-0.2-0.6-0.4-1-0.3c-0.4,0-0.7,0.1-1,0.3c-0.3,0.2-0.4,0.5-0.5,0.9h2.9C857.1,60,856.9,59.6,856.7,59.4L856.7,59.4z"/>
		<path d="M864.1,59.5c0-0.7,0.3-1.3,0.9-1.7c0.7-0.5,1.5-0.7,2.4-0.7c0.9,0,1.7,0.2,2.4,0.7c0.6,0.4,1,1.1,1,1.9h-2.5
			c0-0.2-0.1-0.4-0.3-0.5c-0.2-0.1-0.5-0.2-0.7-0.2c-0.6,0-0.9,0.2-0.9,0.6s0.4,0.6,1.2,0.7c0.7,0.1,1.4,0.3,2.1,0.6
			c0.3,0.1,0.6,0.4,0.8,0.7c0.2,0.3,0.3,0.7,0.3,1.1c0,0.7-0.3,1.4-0.9,1.8c-0.7,0.5-1.5,0.7-2.4,0.7c-0.8,0-1.7-0.2-2.4-0.7
			c-0.6-0.4-1-1.2-1-1.9h2.5c0.1,0.5,0.4,0.7,1,0.7c0.2,0,0.5-0.1,0.7-0.2c0.2-0.1,0.3-0.3,0.3-0.5c0-0.2-0.2-0.4-0.5-0.5
			c-0.4-0.1-0.7-0.2-1.1-0.3c-0.4-0.1-0.9-0.2-1.3-0.3c-0.4-0.1-0.8-0.3-1.1-0.7C864.3,60.4,864.1,59.9,864.1,59.5z"/>
		<path d="M874.4,54.6v3.7c0.5-0.8,1.4-1.3,2.4-1.3c0.8,0,1.6,0.3,2.2,0.9c0.6,0.7,0.9,1.5,0.8,2.4v4.6h-2.4v-4.2
			c0-0.4-0.1-0.8-0.4-1.2c-0.3-0.3-0.7-0.4-1.1-0.4c-0.4,0-0.8,0.1-1.1,0.4c-0.3,0.3-0.4,0.7-0.4,1.2v4.2H872V54.6H874.4z"/>
		<path d="M881.9,63.9c-1.4-1.7-1.4-4.1,0-5.8c0.6-0.7,1.5-1.2,2.5-1.2c0.9,0,1.8,0.4,2.3,1.1v-1h2.4v7.8h-2.4v-1.1
			c-0.5,0.8-1.4,1.2-2.3,1.2C883.4,65,882.5,64.6,881.9,63.9z M886.2,62.5c0.4-0.4,0.6-0.9,0.5-1.4c0-0.5-0.2-1-0.5-1.4
			c-0.6-0.7-1.7-0.7-2.3,0c0,0,0,0,0,0c-0.7,0.8-0.7,2,0,2.8c0.3,0.3,0.8,0.5,1.2,0.5C885.4,63,885.9,62.8,886.2,62.5z"/>
		<path d="M893.2,57.1v1.5c0.4-0.9,1.2-1.5,2.2-1.6v2.4h-0.6c-0.4,0-0.9,0.1-1.2,0.4c-0.3,0.4-0.5,0.9-0.4,1.4v3.7h-2.4v-7.8H893.2z
			"/>
		<path d="M899.7,65c-1,0-2.1-0.4-2.8-1.1c-1.5-1.7-1.5-4.2,0-5.8c0.7-0.7,1.8-1.1,2.8-1.1c1.1,0,2.1,0.4,2.8,1.1
			c0.8,0.8,1.2,1.9,1.1,3c0,0.3,0,0.5-0.1,0.8h-5.4c0.1,0.7,0.7,1.1,1.3,1.2c0.2,0,0.5,0,0.7-0.1c0.1,0,0.2-0.1,0.3-0.2
			c0.1-0.1,0.2-0.2,0.3-0.3h2.6c-0.2,0.8-0.7,1.4-1.3,1.9C901.3,64.8,900.5,65,899.7,65z M900.7,59.4c-0.3-0.2-0.6-0.3-1-0.3
			c-0.4,0-0.7,0.1-1,0.3c-0.3,0.2-0.4,0.5-0.5,0.9h2.9C901.1,60,900.9,59.6,900.7,59.4L900.7,59.4z"/>
		<path d="M905.2,63.9c-1.4-1.7-1.4-4.1,0-5.8c0.6-0.7,1.6-1.2,2.5-1.2c0.9,0,1.8,0.4,2.3,1.1v-3.5h2.4v10.4h-2.4v-1.1
			c-0.5,0.8-1.4,1.2-2.3,1.2C906.8,65,905.9,64.6,905.2,63.9z M909.5,62.5c0.4-0.4,0.6-0.9,0.5-1.4c0-0.5-0.2-1-0.5-1.4
			c-0.6-0.7-1.7-0.7-2.3,0c0,0,0,0,0,0c-0.7,0.8-0.7,2,0,2.8c0.3,0.3,0.7,0.5,1.2,0.5C908.8,63,909.2,62.8,909.5,62.5z"/>
		<path d="M920.4,56.8v0.3h1v2h-1V65H918v-5.8h-0.7v-2h0.7v-0.3c-0.1-0.8,0.2-1.6,0.8-2.2c0.7-0.5,1.6-0.7,2.5-0.7v2
			c-0.2,0-0.5,0-0.7,0.2C920.4,56.3,920.4,56.6,920.4,56.8z M922.7,54.6h2.4v10.4h-2.4V54.6z"/>
		<path d="M929,56.2c-0.5,0.6-1.4,0.6-2,0c0,0,0,0,0,0c-0.3-0.3-0.4-0.6-0.4-1c0-0.4,0.1-0.7,0.4-1c0.6-0.5,1.4-0.5,2,0
			c0.3,0.3,0.4,0.6,0.4,1C929.4,55.6,929.3,56,929,56.2z M926.8,64.9v-7.8h2.4v7.8H926.8z"/>
		<path d="M931.3,63.9c-1.4-1.7-1.4-4.1,0-5.8c0.6-0.7,1.6-1.2,2.5-1.2c0.9,0,1.8,0.4,2.3,1.1v-1h2.4v7.8c0,1-0.3,2-0.9,2.7
			c-0.3,0.4-0.8,0.7-1.2,0.9c-0.6,0.2-1.2,0.3-1.8,0.3c-1,0.1-2-0.2-2.8-0.7c-0.7-0.5-1.2-1.3-1.2-2.2h2.4c0.2,0.6,0.8,0.9,1.7,0.9
			c0.4,0,0.8-0.1,1.1-0.4c0.3-0.4,0.5-0.9,0.4-1.4v-1.1c-0.5,0.8-1.4,1.2-2.4,1.2C932.9,65,932,64.6,931.3,63.9z M935.6,62.5
			c0.4-0.4,0.5-0.9,0.5-1.4c0-0.5-0.2-1-0.5-1.4c-0.3-0.3-0.7-0.5-1.2-0.5c-0.4,0-0.9,0.2-1.2,0.5c-0.7,0.8-0.7,2,0,2.8
			C933.9,63.1,935,63.1,935.6,62.5C935.6,62.5,935.6,62.5,935.6,62.5L935.6,62.5z"/>
		<path d="M942.7,54.6v3.7c0.5-0.8,1.4-1.3,2.3-1.3c0.8,0,1.6,0.3,2.2,0.9c0.6,0.7,0.9,1.5,0.8,2.4v4.6h-2.4v-4.2
			c0-0.4-0.1-0.9-0.4-1.2c-0.6-0.6-1.6-0.6-2.2,0c-0.3,0.3-0.4,0.7-0.4,1.2v4.2h-2.4V54.6H942.7z"/>
		<path d="M953,62.9h0.9v2h-1.2c-0.7,0-1.4-0.2-2-0.6c-0.5-0.5-0.8-1.3-0.7-2v-3.2h-0.7v-2h0.7v-1.9h2.4v1.9h1.6v2h-1.6v3.2
			C952.3,62.7,952.5,62.9,953,62.9z"/>
		<path d="M962.2,65c-1,0-2.1-0.4-2.8-1.1c-1.4-1.7-1.4-4.2,0-5.8c0.7-0.7,1.8-1.1,2.8-1.1c1.1,0,2.1,0.3,2.9,1.1
			c0.8,0.8,1.2,1.9,1.1,3c0,0.3,0,0.5-0.1,0.8h-5.4c0,0.3,0.2,0.6,0.5,0.8c0.2,0.2,0.5,0.3,0.8,0.3c0.2,0,0.5,0,0.7-0.1
			c0.1,0,0.2-0.1,0.3-0.2c0.1-0.1,0.2-0.2,0.3-0.3h2.6c-0.2,0.8-0.7,1.4-1.3,1.9C963.9,64.8,963.1,65,962.2,65z M963.2,59.4
			c-0.3-0.2-0.6-0.4-1-0.3c-0.4,0-0.7,0.1-1,0.3c-0.3,0.2-0.4,0.5-0.5,0.9h2.9C963.6,60,963.5,59.6,963.2,59.4L963.2,59.4z"/>
		<path d="M974,57.1l-2.5,3.8l2.5,4h-2.7l-1.3-2l-1.3,2h-2.4l2.5-3.8l-2.5-4h2.7l1.3,2l1.3-2L974,57.1z"/>
		<path d="M977,58.2c0.5-0.8,1.4-1.2,2.3-1.2c1,0,1.9,0.4,2.5,1.1c1.4,1.7,1.4,4.1,0,5.8c-0.6,0.7-1.5,1.1-2.5,1.1
			c-0.9,0-1.8-0.4-2.3-1.2v4.9h-2.4V57.1h2.4L977,58.2z M979.9,62.5c0.7-0.8,0.7-2,0-2.8c-0.3-0.3-0.7-0.5-1.2-0.5
			c-0.4,0-0.9,0.2-1.2,0.5c-0.4,0.4-0.5,0.9-0.5,1.4c0,0.5,0.2,1,0.5,1.4C978.2,63.1,979.3,63.1,979.9,62.5
			C979.9,62.5,979.9,62.5,979.9,62.5L979.9,62.5z"/>
		<path d="M987.3,65c-1,0-2.1-0.4-2.8-1.1c-1.4-1.7-1.4-4.2,0-5.8c0.7-0.7,1.8-1.1,2.8-1.1c1.1,0,2.1,0.3,2.9,1.1
			c0.8,0.8,1.2,1.9,1.1,3c0,0.3,0,0.5-0.1,0.8h-5.4c0,0.3,0.2,0.6,0.5,0.8c0.2,0.2,0.5,0.3,0.8,0.3c0.2,0,0.5,0,0.7-0.1
			c0.1,0,0.2-0.1,0.3-0.2c0.1-0.1,0.2-0.2,0.3-0.3h2.6c-0.2,0.8-0.7,1.4-1.3,1.9C989,64.8,988.2,65,987.3,65z M988.3,59.4
			c-0.3-0.2-0.6-0.4-1-0.3c-0.4,0-0.7,0.1-1,0.3c-0.3,0.2-0.4,0.5-0.5,0.9h2.9C988.8,60,988.6,59.6,988.3,59.4L988.3,59.4z"/>
		<path d="M994.9,57.1v1.5c0.4-0.9,1.2-1.5,2.2-1.6v2.4h-0.6c-0.4,0-0.9,0.1-1.2,0.4c-0.3,0.4-0.5,0.9-0.4,1.4v3.7h-2.4v-7.8H994.9z
			"/>
		<path d="M1000.2,56.2c-0.3,0.3-0.6,0.4-1,0.4c-0.4,0-0.7-0.1-1-0.4c-0.3-0.3-0.4-0.6-0.4-1c0-0.4,0.1-0.7,0.4-1
			c0.3-0.3,0.6-0.4,1-0.4c0.4,0,0.7,0.1,1,0.4c0.3,0.3,0.4,0.6,0.4,1C1000.6,55.6,1000.5,56,1000.2,56.2z M998,64.9v-7.8h2.4v7.8
			H998z"/>
		<path d="M1005.5,65c-1,0-2.1-0.4-2.8-1.1c-1.4-1.7-1.4-4.2,0-5.8c0.7-0.7,1.8-1.1,2.8-1.1c1.1,0,2.1,0.3,2.9,1.1
			c0.8,0.8,1.2,1.9,1.1,3c0,0.3,0,0.5-0.1,0.8h-5.4c0,0.3,0.2,0.6,0.5,0.8c0.2,0.2,0.5,0.3,0.8,0.3c0.2,0,0.5,0,0.7-0.1
			c0.1,0,0.2-0.1,0.3-0.2c0.1-0.1,0.2-0.2,0.3-0.3h2.6c-0.2,0.8-0.7,1.4-1.3,1.9C1007.1,64.8,1006.3,65,1005.5,65z M1006.5,59.4
			c-0.3-0.2-0.6-0.4-1-0.3c-0.4,0-0.7,0.1-1,0.3c-0.3,0.2-0.4,0.5-0.5,0.9h3C1006.9,59.9,1006.8,59.6,1006.5,59.4L1006.5,59.4z"/>
		<path d="M1013,57.1v1.1c0.5-0.8,1.4-1.3,2.4-1.2c0.8,0,1.6,0.3,2.2,0.9c0.6,0.7,0.9,1.5,0.8,2.4v4.6h-2.4v-4.2
			c0-0.4-0.1-0.9-0.4-1.2c-0.6-0.6-1.6-0.6-2.2,0c-0.3,0.3-0.4,0.7-0.4,1.2v4.2h-2.4v-7.8H1013z"/>
		<path d="M1020.5,63.9c-1.5-1.7-1.5-4.1,0-5.8c0.7-0.7,1.8-1.1,2.8-1.1c0.9,0,1.7,0.2,2.4,0.7c0.7,0.5,1.1,1.2,1.3,2h-2.6
			c-0.2-0.4-0.6-0.7-1.1-0.7c-0.4,0-0.9,0.2-1.1,0.5c-0.5,0.9-0.5,2,0,2.8c0.2,0.4,0.7,0.6,1.1,0.5c0.2,0,0.5,0,0.7-0.2
			c0.2-0.1,0.3-0.3,0.4-0.5h2.6c-0.2,0.8-0.7,1.5-1.3,2c-0.7,0.5-1.5,0.8-2.4,0.8C1022.3,65.1,1021.3,64.7,1020.5,63.9z"/>
		<path d="M1031.3,65c-1,0-2.1-0.4-2.8-1.1c-1.4-1.7-1.4-4.2,0-5.8c0.7-0.7,1.8-1.1,2.8-1.1c1.1,0,2.1,0.3,2.9,1.1
			c0.8,0.8,1.2,1.9,1.1,3c0,0.3,0,0.5,0,0.8h-5.4c0.1,0.7,0.6,1.2,1.3,1.2c0.2,0,0.5,0,0.7-0.1c0.1,0,0.2-0.1,0.3-0.2
			c0.1-0.1,0.2-0.2,0.3-0.3h2.6c-0.2,0.8-0.7,1.4-1.3,1.9C1033.1,64.8,1032.2,65.1,1031.3,65z M1032.3,59.4c-0.3-0.2-0.6-0.4-1-0.3
			c-0.4,0-0.7,0.1-1,0.3c-0.3,0.2-0.4,0.5-0.5,0.9h2.9C1032.7,60,1032.6,59.6,1032.3,59.4L1032.3,59.4z"/>
		<path d="M1040.9,63.9c-0.8-0.8-1.2-1.8-1.2-2.9c0-1.1,0.4-2.1,1.2-2.9c0.8-0.7,1.8-1.2,2.9-1.1c1.1,0,2.1,0.4,2.9,1.1
			c0.8,0.7,1.2,1.8,1.2,2.9c0,1.1-0.4,2.1-1.2,2.9c-0.8,0.7-1.8,1.1-2.9,1.1C1042.7,65,1041.7,64.7,1040.9,63.9z M1045,62.5
			c0.3-0.4,0.5-0.9,0.5-1.5c0-0.5-0.1-1.1-0.5-1.5c-0.3-0.3-0.7-0.5-1.2-0.5c-0.4,0-0.9,0.2-1.2,0.5c-0.7,0.9-0.7,2.1,0,2.9
			c0.3,0.3,0.7,0.5,1.2,0.5C1044.3,63,1044.7,62.8,1045,62.5L1045,62.5z"/>
		<path d="M1051.4,57.1v1.1c0.5-0.8,1.4-1.3,2.4-1.2c0.8,0,1.6,0.3,2.2,0.9c0.6,0.7,0.9,1.5,0.8,2.4v4.6h-2.4v-4.2
			c0-0.4-0.1-0.8-0.4-1.2c-0.6-0.6-1.6-0.6-2.2,0c-0.3,0.3-0.4,0.7-0.4,1.2v4.2h-2.4v-7.8H1051.4z"/>
		<path d="M1068.5,64.9l-0.6-1.7h-3.5l-0.5,1.7h-2.6l3.4-9.9h2.9l3.4,9.9H1068.5z M1065,61.5h2.3l-1.2-3.5L1065,61.5z"/>
		<path d="M1074.2,58.2c0.5-0.7,1.4-1.2,2.3-1.1c1,0,1.9,0.4,2.5,1.1c1.4,1.7,1.4,4.1,0,5.8c-0.6,0.7-1.5,1.1-2.5,1.1
			c-0.9,0-1.8-0.4-2.3-1.2v4.9h-2.4V57.1h2.4V58.2z M1077.1,62.5c0.7-0.8,0.7-2,0-2.8c-0.6-0.7-1.7-0.7-2.3,0c0,0,0,0,0,0
			c-0.4,0.4-0.6,0.9-0.5,1.4c0,0.5,0.2,1,0.5,1.4c0.3,0.3,0.7,0.5,1.2,0.5C1076.4,63,1076.8,62.8,1077.1,62.5z"/>
		<path d="M1083.6,58.2c0.5-0.7,1.4-1.2,2.3-1.1c1,0,1.9,0.4,2.5,1.1c1.4,1.7,1.4,4.1,0,5.8c-0.6,0.7-1.5,1.1-2.5,1.1
			c-0.9,0-1.8-0.4-2.3-1.2v4.9h-2.4V57.1h2.4V58.2z M1086.5,62.5c0.7-0.8,0.7-2,0-2.8c-0.6-0.7-1.7-0.7-2.3,0c0,0,0,0,0,0
			c-0.4,0.4-0.6,0.9-0.5,1.4c0,0.5,0.2,1,0.5,1.4c0.3,0.3,0.7,0.5,1.2,0.5C1085.8,63,1086.2,62.8,1086.5,62.5z"/>
		<path d="M1091.9,63.2l-1.6,3.8h-0.8l1-3.8L1091.9,63.2z"/>
		<path d="M451.8,81c0.3-0.6,0.8-1,1.3-1.4c0.6-0.3,1.2-0.5,1.9-0.5c0.6,0,1.2,0.1,1.8,0.4c0.5,0.3,0.8,0.6,1.1,1.1v-1.4h1.3v7.7
			h-1.3v-1.4c-0.3,0.5-0.7,0.9-1.1,1.1c-0.5,0.3-1.1,0.5-1.8,0.4c-0.6,0-1.3-0.2-1.8-0.5c-0.6-0.3-1-0.8-1.3-1.4
			c-0.3-0.6-0.5-1.4-0.5-2.1C451.3,82.4,451.5,81.6,451.8,81z M457.5,81.6c-0.2-0.4-0.5-0.8-0.9-1c-0.4-0.2-0.9-0.3-1.3-0.3
			c-0.5,0-0.9,0.1-1.3,0.3c-0.4,0.2-0.7,0.6-0.9,1c-0.2,0.5-0.4,1-0.4,1.5c0,0.5,0.1,1.1,0.4,1.5c0.4,0.8,1.3,1.3,2.2,1.3
			c0.5,0,0.9-0.1,1.3-0.3c0.4-0.2,0.7-0.6,0.9-1c0.2-0.5,0.4-1,0.4-1.5C457.8,82.6,457.7,82,457.5,81.6L457.5,81.6z"/>
		<path d="M466.9,80c0.6,0.7,0.9,1.5,0.9,2.4V87h-1.3v-4.4c0-0.6-0.2-1.3-0.6-1.8c-0.4-0.4-1-0.6-1.6-0.6c-0.6,0-1.2,0.2-1.6,0.6
			c-0.4,0.5-0.6,1.2-0.6,1.8v4.2h-1.3v-7.7h1.3v1.1c0.2-0.4,0.6-0.7,1-0.9C464.4,78.9,465.8,79.1,466.9,80L466.9,80z"/>
		<path d="M469.4,81c0.3-0.6,0.8-1,1.3-1.4c0.6-0.3,1.2-0.5,1.9-0.5c0.6,0,1.2,0.1,1.7,0.4c0.5,0.3,0.9,0.6,1.2,1.1v-4.1h1.3v10.4
			h-1.3v-1.4c-0.3,0.5-0.7,0.9-1.1,1.1c-0.5,0.3-1.1,0.5-1.7,0.4c-0.7,0-1.3-0.2-1.9-0.5c-0.6-0.3-1-0.8-1.3-1.4
			c-0.3-0.6-0.5-1.4-0.5-2.1C469,82.4,469.1,81.6,469.4,81z M475.1,81.6c-0.2-0.4-0.5-0.8-0.9-1c-0.4-0.2-0.9-0.3-1.3-0.3
			c-0.5,0-0.9,0.1-1.3,0.3c-0.4,0.2-0.7,0.6-0.9,1c-0.2,0.5-0.4,1-0.4,1.5c0,0.5,0.1,1.1,0.4,1.5c0.4,0.8,1.3,1.3,2.2,1.3
			c0.5,0,0.9-0.1,1.3-0.3c0.4-0.2,0.7-0.6,0.9-1c0.2-0.5,0.4-1,0.4-1.5C475.5,82.6,475.4,82,475.1,81.6L475.1,81.6z"/>
		<path d="M492.7,77.1h2.6l-2.8,9.8h-2.7l-1.7-6.2l-1.7,6.2h-2.8l-2.8-9.8h2.6l1.7,7.1l1.8-7.1h2.7l1.7,7L492.7,77.1z"/>
		<path d="M499.4,87c-1,0-2.1-0.4-2.8-1.1c-1.4-1.7-1.4-4.2,0-5.8c0.7-0.7,1.8-1.1,2.8-1.1c1.1,0,2.1,0.3,2.9,1.1
			c0.8,0.8,1.2,1.9,1.1,3c0,0.3,0,0.5-0.1,0.8H498c0,0.3,0.2,0.6,0.5,0.8c0.2,0.2,0.5,0.3,0.9,0.3c0.2,0,0.5,0,0.7-0.1
			c0.1,0,0.2-0.1,0.3-0.2c0.1-0.1,0.2-0.2,0.3-0.3h2.6c-0.2,0.8-0.7,1.4-1.4,1.9C501.1,86.8,500.3,87,499.4,87z M500.4,81.4
			c-0.3-0.2-0.6-0.4-1-0.3c-0.4,0-0.7,0.1-1,0.3c-0.3,0.2-0.4,0.5-0.5,0.9h2.9C500.8,82,500.7,81.6,500.4,81.4L500.4,81.4z"/>
		<path d="M506.9,80.2c0.5-0.8,1.4-1.2,2.3-1.2c1,0,1.9,0.4,2.5,1.1c1.4,1.7,1.4,4.1,0,5.8c-0.6,0.7-1.6,1.1-2.5,1.1
			c-0.9,0-1.8-0.4-2.3-1.2v1.1h-2.4V76.6h2.4V80.2z M509.8,84.5c0.7-0.8,0.7-2,0-2.8c-0.6-0.7-1.7-0.7-2.3,0c0,0,0,0,0,0
			c-0.4,0.4-0.6,0.9-0.5,1.4c0,0.5,0.2,1,0.5,1.4c0.3,0.3,0.7,0.5,1.2,0.5C509.1,85,509.5,84.8,509.8,84.5z"/>
		<path d="M513.4,81.5c0-0.7,0.3-1.3,0.9-1.7c0.7-0.5,1.5-0.7,2.4-0.7c0.9,0,1.7,0.2,2.4,0.7c0.6,0.4,1,1.1,1,1.9h-2.5
			c0-0.2-0.1-0.4-0.3-0.6c-0.2-0.1-0.5-0.2-0.7-0.2c-0.6,0-0.9,0.2-0.9,0.6s0.4,0.6,1.2,0.7c0.7,0.1,1.4,0.3,2.1,0.6
			c0.3,0.1,0.6,0.4,0.8,0.7c0.2,0.3,0.3,0.7,0.3,1.1c0,0.7-0.3,1.4-0.9,1.8c-0.7,0.5-1.5,0.7-2.4,0.7c-0.8,0-1.7-0.2-2.4-0.7
			c-0.6-0.4-1-1.2-1-1.9h2.5c0.1,0.5,0.4,0.7,1,0.7c0.2,0,0.5-0.1,0.7-0.2c0.2-0.1,0.3-0.3,0.3-0.5c0-0.2-0.2-0.4-0.5-0.5
			c-0.4-0.1-0.7-0.2-1.1-0.3c-0.4-0.1-0.9-0.2-1.3-0.3c-0.4-0.1-0.8-0.3-1.1-0.7C513.5,82.4,513.4,81.9,513.4,81.5z"/>
		<path d="M523.5,78.2c-0.5,0.6-1.4,0.6-2,0c0,0,0,0,0,0c-0.3-0.3-0.4-0.6-0.4-1c0-0.4,0.1-0.7,0.4-1c0.6-0.5,1.4-0.5,2,0
			c0.3,0.3,0.4,0.6,0.4,1C523.9,77.6,523.7,78,523.5,78.2z M521.3,86.9v-7.8h2.4v7.8H521.3z"/>
		<path d="M528.7,84.9h0.8v2h-1.2c-0.7,0-1.4-0.2-2-0.6c-0.5-0.5-0.8-1.3-0.7-2v-3.2h-0.7v-2h0.7v-1.9h2.4v1.9h1.6v2H528v3.2
			C528,84.7,528.2,84.9,528.7,84.9z"/>
		<path d="M534.1,87c-1,0-2.1-0.4-2.8-1.1c-0.7-0.8-1.1-1.8-1.1-2.9c-0.1-1.1,0.3-2.1,1.1-2.9c0.7-0.7,1.8-1.1,2.8-1.1
			c1.1,0,2.1,0.4,2.9,1.1c0.8,0.8,1.2,1.9,1.1,3c0,0.3,0,0.5,0,0.8h-5.4c0.1,0.6,0.7,1.1,1.3,1.1c0.2,0,0.5,0,0.7-0.1
			c0.1,0,0.2-0.1,0.3-0.2c0.1-0.1,0.2-0.2,0.3-0.3h2.6c-0.2,0.8-0.7,1.4-1.3,1.9C535.8,86.8,535,87,534.1,87z M535.1,81.4
			c-0.3-0.2-0.6-0.3-1-0.3c-0.4,0-0.7,0.1-1,0.3c-0.3,0.2-0.4,0.5-0.5,0.9h2.9C535.5,82,535.4,81.7,535.1,81.4L535.1,81.4z"/>
		<path d="M540.6,85.2l-1.6,3.8h-0.9l1-3.8L540.6,85.2z"/>
		<path d="M552,83.6h-6.1c0,0.7,0.3,1.3,0.8,1.8c0.5,0.4,1.1,0.7,1.7,0.6c0.5,0,1-0.1,1.4-0.4c0.4-0.2,0.6-0.6,0.8-1h1.4
			c-0.2,0.7-0.6,1.4-1.2,1.8c-0.7,0.5-1.5,0.7-2.3,0.7c-0.7,0-1.4-0.1-2-0.5c-0.6-0.3-1.1-0.8-1.4-1.4c-0.3-0.6-0.5-1.4-0.5-2.1
			c0-0.7,0.2-1.4,0.5-2.1c0.3-0.6,0.8-1.1,1.3-1.4c0.6-0.3,1.3-0.5,2-0.5c0.7,0,1.3,0.2,1.9,0.5c0.6,0.3,1,0.8,1.3,1.3
			c0.3,0.6,0.5,1.2,0.5,1.9C552,83.1,552,83.3,552,83.6z M550.4,81.3c-0.2-0.3-0.5-0.6-0.9-0.8c-0.4-0.2-0.8-0.3-1.2-0.3
			c-0.6,0-1.2,0.2-1.7,0.6c-0.5,0.5-0.7,1.1-0.8,1.7h4.8C550.7,82.1,550.6,81.7,550.4,81.3L550.4,81.3z"/>
		<path d="M557.3,86.9l-1.8-2.9l-1.8,2.9h-1.3l2.5-3.8l-2.5-3.9h1.4l1.8,2.8l1.7-2.8h1.3l-2.5,3.8l2.5,3.9H557.3z"/>
		<path d="M562,79.6c0.5-0.3,1.1-0.5,1.7-0.4c0.7,0,1.3,0.2,1.9,0.5c0.6,0.3,1,0.8,1.3,1.4c0.3,0.6,0.5,1.3,0.5,2.1
			c0,0.7-0.1,1.4-0.5,2.1c-0.3,0.6-0.8,1.1-1.3,1.4c-0.6,0.3-1.2,0.5-1.9,0.5c-0.6,0-1.2-0.1-1.7-0.4c-0.5-0.3-0.9-0.6-1.1-1.1v5.1
			h-1.3V79.3h1.3v1.4C561.2,80.2,561.5,79.8,562,79.6z M565.7,81.6c-0.2-0.4-0.6-0.8-1-1c-0.4-0.2-0.8-0.3-1.3-0.3
			c-0.5,0-0.9,0.1-1.3,0.3c-0.4,0.2-0.8,0.6-1,1c-0.5,0.9-0.5,2.1,0,3c0.2,0.4,0.6,0.8,1,1c0.4,0.2,0.8,0.3,1.3,0.3
			c0.5,0,0.9-0.1,1.3-0.3c0.4-0.2,0.8-0.6,1-1c0.2-0.5,0.4-1,0.3-1.5C566.1,82.5,566,82,565.7,81.6L565.7,81.6z"/>
		<path d="M570,76.6v10.4h-1.3V76.6H570z"/>
		<path d="M573.1,86.6c-0.6-0.3-1.1-0.8-1.4-1.4c-0.3-0.6-0.5-1.4-0.5-2.1c0-0.7,0.2-1.4,0.5-2.1c0.3-0.6,0.8-1.1,1.4-1.4
			c1.3-0.7,2.7-0.7,4,0c0.6,0.3,1,0.8,1.3,1.4c0.3,0.6,0.5,1.4,0.5,2.1c0,0.7-0.2,1.5-0.5,2.1c-0.3,0.6-0.8,1.1-1.4,1.4
			c-0.6,0.3-1.3,0.5-2,0.5C574.4,87.1,573.7,86.9,573.1,86.6z M576.4,85.6c0.4-0.2,0.8-0.6,1-1c0.3-0.5,0.4-1,0.4-1.6
			c0-0.5-0.1-1.1-0.4-1.6c-0.2-0.4-0.6-0.8-1-1c-0.8-0.4-1.8-0.4-2.5,0c-0.4,0.2-0.7,0.6-0.9,1c-0.2,0.5-0.4,1-0.3,1.6
			c0,0.5,0.1,1.1,0.3,1.6c0.2,0.4,0.5,0.8,0.9,1c0.4,0.2,0.8,0.3,1.3,0.3C575.5,85.9,576,85.8,576.4,85.6z"/>
		<path d="M582.5,79.5c0.5-0.3,1-0.4,1.5-0.4v1.3h-0.3c-1.4,0-2.1,0.8-2.1,2.3v4.2h-1.3v-7.7h1.3v1.2
			C581.8,80.1,582.1,79.7,582.5,79.5z"/>
		<path d="M592.1,83.6H586c0,0.7,0.3,1.3,0.8,1.8c0.5,0.4,1.1,0.7,1.7,0.6c0.5,0,1-0.1,1.4-0.4c0.4-0.2,0.6-0.6,0.8-1h1.3
			c-0.2,0.7-0.6,1.4-1.2,1.8c-0.7,0.5-1.5,0.7-2.3,0.7c-0.7,0-1.4-0.1-2-0.5c-0.6-0.3-1-0.8-1.3-1.4c-0.6-1.3-0.6-2.9,0-4.2
			c0.3-0.6,0.8-1.1,1.3-1.4c0.6-0.3,1.3-0.5,2-0.5c0.7,0,1.3,0.2,1.9,0.5c0.5,0.3,1,0.8,1.3,1.3c0.3,0.6,0.5,1.2,0.5,1.9
			C592.1,83.1,592.1,83.3,592.1,83.6z M590.5,81.3c-0.2-0.3-0.5-0.6-0.9-0.8c-0.4-0.2-0.8-0.3-1.2-0.3c-0.6,0-1.2,0.2-1.7,0.6
			c-0.5,0.4-0.7,1.1-0.8,1.7h4.8C590.8,82.1,590.7,81.7,590.5,81.3z"/>
		<path d="M599.2,79.6c0.5-0.3,1.1-0.5,1.8-0.4c0.7,0,1.3,0.2,1.8,0.5c0.6,0.3,1,0.8,1.3,1.4c0.3,0.6,0.5,1.3,0.5,2.1
			c0,0.7-0.2,1.4-0.5,2.1c-0.3,0.6-0.8,1.1-1.3,1.4c-0.6,0.3-1.2,0.5-1.8,0.5c-0.6,0-1.2-0.1-1.7-0.4c-0.5-0.3-0.9-0.6-1.1-1.1v5.1
			h-1.3V79.3h1.3v1.4C598.3,80.2,598.7,79.8,599.2,79.6z M602.9,81.6c-0.2-0.4-0.5-0.8-0.9-1c-0.4-0.2-0.9-0.3-1.3-0.3
			c-0.5,0-0.9,0.1-1.3,0.3c-0.4,0.2-0.8,0.6-1,1c-0.5,0.9-0.5,2.1,0,3c0.2,0.4,0.6,0.8,1,1c0.4,0.2,0.8,0.3,1.3,0.3
			c0.5,0,0.9-0.1,1.4-0.3c0.4-0.2,0.7-0.6,0.9-1c0.2-0.5,0.4-1,0.3-1.5C603.3,82.5,603.2,82,602.9,81.6L602.9,81.6z"/>
		<path d="M607.2,86.6c-0.6-0.3-1.1-0.8-1.4-1.4c-0.7-1.3-0.7-2.9,0-4.2c0.3-0.6,0.8-1.1,1.4-1.4c1.3-0.7,2.7-0.7,4,0
			c0.6,0.3,1,0.8,1.3,1.4c0.3,0.6,0.5,1.4,0.5,2.1c0,0.7-0.2,1.5-0.5,2.1c-0.3,0.6-0.8,1.1-1.4,1.4c-0.6,0.3-1.3,0.5-2,0.5
			C608.5,87.1,607.8,86.9,607.2,86.6z M610.5,85.6c0.4-0.2,0.8-0.6,1-1c0.3-0.5,0.4-1,0.4-1.6c0-0.5-0.1-1.1-0.4-1.6
			c-0.2-0.4-0.6-0.8-1-1c-0.4-0.2-0.8-0.3-1.3-0.3c-0.4,0-0.9,0.1-1.3,0.3c-0.4,0.2-0.7,0.6-0.9,1c-0.2,0.5-0.4,1-0.3,1.6
			c0,0.5,0.1,1.1,0.3,1.6c0.2,0.4,0.5,0.8,0.9,1c0.4,0.2,0.8,0.3,1.3,0.3C609.6,85.9,610.1,85.8,610.5,85.6z"/>
		<path d="M616,80.3v4.5c0,0.3,0.1,0.6,0.2,0.8c0.2,0.2,0.5,0.3,0.8,0.2h0.9v1.1h-1.2c-0.6,0-1.1-0.1-1.6-0.5
			c-0.4-0.4-0.6-1-0.5-1.6v-4.5h-1v-1h1v-2h1.3v1.9h2v1L616,80.3z"/>
		<path d="M626.1,83.6h-6.1c0,0.7,0.3,1.3,0.8,1.8c0.5,0.4,1.1,0.7,1.7,0.6c0.5,0,1-0.1,1.4-0.4c0.4-0.2,0.6-0.6,0.8-1h1.4
			c-0.2,0.7-0.6,1.4-1.2,1.8c-0.7,0.5-1.5,0.7-2.3,0.7c-0.7,0-1.4-0.2-2-0.5c-0.6-0.3-1-0.8-1.3-1.4c-0.3-0.6-0.5-1.4-0.5-2.1
			c0-0.7,0.1-1.4,0.5-2.1c0.3-0.6,0.8-1.1,1.3-1.4c0.6-0.3,1.3-0.5,2-0.5c0.7,0,1.3,0.2,1.9,0.5c0.5,0.3,1,0.8,1.3,1.3
			c0.3,0.6,0.5,1.2,0.5,1.9C626.2,83.1,626.1,83.3,626.1,83.6z M624.5,81.3c-0.2-0.3-0.5-0.6-0.9-0.8c-0.4-0.2-0.8-0.3-1.2-0.3
			c-0.6,0-1.2,0.2-1.7,0.6c-0.5,0.4-0.7,1.1-0.8,1.7h4.8C624.8,82.1,624.7,81.7,624.5,81.3z"/>
		<path d="M633.4,80c0.6,0.7,0.9,1.5,0.9,2.4V87H633v-4.4c0-0.6-0.2-1.3-0.6-1.8c-0.4-0.4-1-0.6-1.6-0.6c-0.6,0-1.2,0.2-1.6,0.6
			c-0.4,0.5-0.6,1.2-0.6,1.8v4.2h-1.3v-7.7h1.3v1.1c0.2-0.4,0.6-0.7,1-0.9C630.9,78.9,632.4,79.1,633.4,80L633.4,80z"/>
		<path d="M637.5,80.3v4.5c0,0.3,0.1,0.6,0.2,0.8c0.2,0.2,0.5,0.3,0.8,0.2h0.9v1.1h-1.2c-0.6,0-1.1-0.1-1.6-0.5
			c-0.4-0.4-0.6-1-0.5-1.6v-4.5h-1v-1h1v-2h1.3v1.9h2v1L637.5,80.3z"/>
		<path d="M640.7,77.8c-0.2-0.2-0.3-0.4-0.2-0.6c0-0.2,0.1-0.5,0.2-0.6c0.2-0.2,0.4-0.3,0.6-0.3c0.2,0,0.4,0.1,0.6,0.3
			c0.2,0.2,0.2,0.4,0.2,0.6c0,0.2-0.1,0.5-0.2,0.6c-0.2,0.2-0.4,0.3-0.6,0.2C641.1,78,640.9,77.9,640.7,77.8z M641.9,79.3v7.7h-1.3
			v-7.7H641.9z"/>
		<path d="M643.7,81c0.3-0.6,0.7-1,1.3-1.4c0.6-0.3,1.2-0.5,1.8-0.5c0.6,0,1.2,0.1,1.8,0.4c0.5,0.3,0.8,0.6,1.1,1.1v-1.4h1.3v7.7
			h-1.3v-1.4c-0.3,0.5-0.7,0.9-1.1,1.1c-0.5,0.3-1.1,0.5-1.7,0.4c-0.7,0-1.3-0.2-1.8-0.5c-0.6-0.3-1-0.8-1.3-1.4
			c-0.3-0.6-0.5-1.4-0.5-2.1C643.2,82.3,643.4,81.6,643.7,81z M649.4,81.6c-0.2-0.4-0.5-0.8-1-1c-0.4-0.2-0.9-0.3-1.3-0.3
			c-0.5,0-0.9,0.1-1.3,0.3c-0.4,0.2-0.7,0.6-0.9,1c-0.2,0.5-0.4,1-0.3,1.5c0,0.5,0.1,1.1,0.3,1.5c0.2,0.4,0.5,0.8,0.9,1
			c0.8,0.5,1.8,0.5,2.6,0c0.4-0.2,0.7-0.6,1-1c0.2-0.5,0.4-1,0.3-1.5C649.8,82.6,649.6,82,649.4,81.6L649.4,81.6z"/>
		<path d="M654.1,76.6v10.4h-1.3V76.6H654.1z"/>
		<path d="M661.6,79.1v1.1c0.5-0.8,1.4-1.3,2.4-1.3c0.5,0,1.1,0.1,1.5,0.4c0.4,0.3,0.8,0.7,1,1.1c0.3-0.4,0.7-0.8,1.1-1.1
			c0.5-0.3,1-0.4,1.5-0.4c0.8,0,1.7,0.3,2.3,0.9c0.6,0.7,0.9,1.6,0.8,2.4v4.6h-2.4v-4.2c0-0.4-0.1-0.8-0.4-1.2
			c-0.3-0.3-0.7-0.4-1.1-0.4c-0.4,0-0.8,0.1-1.1,0.4c-0.3,0.3-0.4,0.7-0.4,1.2v4.2h-2.4v-4.2c0-0.4-0.1-0.9-0.4-1.2
			c-0.6-0.6-1.6-0.6-2.2,0c-0.3,0.3-0.4,0.7-0.4,1.2v4.2h-2.4v-7.8H661.6z"/>
		<path d="M674.4,85.9c-1.4-1.7-1.4-4.1,0-5.8c0.6-0.7,1.5-1.2,2.5-1.2c0.9,0,1.8,0.4,2.3,1.1v-1h2.4v7.8h-2.4v-1.1
			c-0.5,0.8-1.4,1.2-2.3,1.2C676,87,675.1,86.6,674.4,85.9z M678.7,84.5c0.4-0.4,0.6-0.9,0.5-1.4c0-0.5-0.2-1-0.5-1.4
			c-0.6-0.7-1.7-0.7-2.3,0c0,0,0,0,0,0c-0.7,0.8-0.7,2,0,2.8c0.3,0.3,0.7,0.5,1.2,0.5C678,85,678.4,84.8,678.7,84.5L678.7,84.5z"/>
		<path d="M685.7,79.1v1.4c0.4-0.9,1.3-1.6,2.3-1.6v2.4h-0.6c-0.4,0-0.9,0.1-1.2,0.4c-0.3,0.4-0.5,0.9-0.4,1.4v3.7h-2.4v-7.8H685.7z
			"/>
		<path d="M691.3,86.9h-2.4V76.6h2.4v5.8l2.4-3.3h3.2l-3.3,4l3.3,3.8h-3.2l-2.5-3.1V86.9z"/>
		<path d="M701,87c-1,0-2.1-0.4-2.8-1.1c-1.5-1.7-1.5-4.2,0-5.8c0.7-0.7,1.8-1.1,2.8-1.1c1.1,0,2.1,0.4,2.8,1.1
			c0.8,0.8,1.2,1.9,1.1,3c0,0.3,0,0.5-0.1,0.8h-5.4c0.1,0.7,0.7,1.1,1.3,1.2c0.2,0,0.5,0,0.7-0.1c0.1,0,0.2-0.1,0.3-0.2
			c0.1-0.1,0.2-0.2,0.3-0.3h2.6c-0.2,0.8-0.7,1.4-1.3,1.9C702.6,86.8,701.8,87,701,87z M702,81.4c-0.3-0.2-0.6-0.3-1-0.3
			c-0.4,0-0.7,0.1-1,0.3c-0.3,0.2-0.4,0.5-0.5,0.9h2.9C702.4,82,702.3,81.6,702,81.4L702,81.4z"/>
		<path d="M709.4,84.9h0.9v2H709c-0.7,0-1.4-0.2-2-0.6c-0.5-0.5-0.8-1.3-0.7-2v-3.2h-0.7v-2h0.7v-1.9h2.4v1.9h1.6v2h-1.6v3.2
			C708.7,84.7,708.9,84.9,709.4,84.9z"/>
		<path d="M715.9,85.9c-0.8-0.8-1.2-1.8-1.2-2.9c0-1.1,0.4-2.1,1.2-2.9c0.8-0.7,1.8-1.1,2.9-1.1c1.1,0,2.1,0.4,2.9,1.1
			c0.8,0.8,1.2,1.8,1.2,2.9c0,1.1-0.4,2.1-1.2,2.9c-0.8,0.7-1.8,1.1-2.9,1.1C717.8,87.1,716.7,86.7,715.9,85.9z M720,84.5
			c0.6-0.9,0.6-2,0-2.9c-0.3-0.3-0.7-0.5-1.2-0.5c-0.4,0-0.9,0.2-1.2,0.5c-0.3,0.4-0.5,0.9-0.5,1.4c0,0.5,0.1,1.1,0.5,1.5
			c0.3,0.3,0.7,0.5,1.2,0.5C719.3,85,719.7,84.8,720,84.5z"/>
		<path d="M726.5,80.2c0.5-0.7,1.4-1.2,2.3-1.2c1,0,1.9,0.4,2.5,1.1c1.4,1.7,1.4,4.1,0,5.8c-0.6,0.7-1.6,1.1-2.5,1.1
			c-0.9,0-1.8-0.4-2.3-1.2v4.9h-2.4V79.1h2.4V80.2z M729.4,84.5c0.7-0.8,0.7-2,0-2.8c-0.3-0.3-0.7-0.5-1.2-0.5
			c-0.4,0-0.9,0.2-1.2,0.5c-0.4,0.4-0.6,0.9-0.5,1.4c0,0.5,0.2,1,0.5,1.4C727.6,85.1,728.7,85.1,729.4,84.5
			C729.3,84.5,729.3,84.5,729.4,84.5L729.4,84.5z"/>
		<path d="M735.8,80.2c0.5-0.7,1.4-1.2,2.3-1.2c1,0,1.9,0.4,2.5,1.1c1.4,1.7,1.4,4.1,0,5.8c-0.6,0.7-1.6,1.1-2.5,1.1
			c-0.9,0-1.8-0.4-2.3-1.2v4.9h-2.4V79.1h2.4V80.2z M738.7,84.5c0.7-0.8,0.7-2,0-2.8c-0.3-0.3-0.7-0.5-1.2-0.5
			c-0.4,0-0.9,0.2-1.2,0.5c-0.4,0.4-0.6,0.9-0.5,1.4c0,0.5,0.2,1,0.5,1.4C737,85.1,738.1,85.1,738.7,84.5
			C738.7,84.5,738.7,84.5,738.7,84.5L738.7,84.5z"/>
		<path d="M743.4,85.9c-0.8-0.8-1.2-1.8-1.2-2.9c-0.1-1.1,0.4-2.1,1.2-2.9c1.7-1.5,4.1-1.5,5.8,0c0.8,0.7,1.2,1.8,1.2,2.9
			c0,1.1-0.4,2.1-1.2,2.9c-0.8,0.7-1.8,1.1-2.9,1.1C745.3,87.1,744.2,86.7,743.4,85.9z M747.5,84.5c0.6-0.9,0.6-2,0-2.9
			c-0.3-0.3-0.7-0.5-1.2-0.5c-0.4,0-0.9,0.2-1.2,0.5c-0.3,0.4-0.5,0.9-0.5,1.4c0,0.5,0.1,1.1,0.5,1.5c0.3,0.3,0.7,0.5,1.2,0.5
			C746.8,85,747.2,84.8,747.5,84.5z"/>
		<path d="M754,79.1v1.4c0.4-0.9,1.2-1.5,2.2-1.6v2.4h-0.6c-0.4,0-0.9,0.1-1.2,0.4c-0.3,0.4-0.5,0.9-0.4,1.4v3.7h-2.4v-7.8H754z"/>
		<path d="M760.4,84.9h0.9v2h-1.2c-0.7,0-1.4-0.2-2-0.6c-0.5-0.5-0.8-1.3-0.7-2v-3.2h-0.7v-2h0.7v-1.9h2.4v1.9h1.6v2h-1.6v3.2
			C759.7,84.7,760,84.9,760.4,84.9z"/>
		<path d="M767.8,79.1h2.4v7.8h-2.4v-1.1c-0.5,0.8-1.4,1.3-2.4,1.2c-0.8,0-1.6-0.3-2.2-0.9c-0.6-0.7-0.9-1.6-0.8-2.4v-4.5h2.4v4.2
			c0,0.4,0.1,0.8,0.4,1.2c0.6,0.5,1.6,0.5,2.2,0c0.3-0.3,0.4-0.7,0.4-1.2V79.1z"/>
		<path d="M774.3,79.1v1.1c0.5-0.8,1.4-1.3,2.4-1.3c0.8,0,1.6,0.3,2.2,0.9c0.6,0.7,0.9,1.5,0.8,2.4v4.6h-2.4v-4.2
			c0-0.4-0.1-0.9-0.4-1.2c-0.6-0.6-1.6-0.6-2.2,0c-0.3,0.3-0.4,0.7-0.4,1.2v4.2h-2.4v-7.8H774.3z"/>
		<path d="M783.5,78.2c-0.3,0.3-0.6,0.4-1,0.4c-0.4,0-0.7-0.1-1-0.4c-0.3-0.3-0.4-0.6-0.4-1c0-0.8,0.6-1.4,1.3-1.4c0,0,0,0,0.1,0
			c0.4,0,0.7,0.1,1,0.4c0.3,0.3,0.4,0.6,0.4,1C783.9,77.6,783.8,78,783.5,78.2z M781.4,86.9v-7.8h2.4v7.8H781.4z"/>
		<path d="M788.8,84.9h0.8v2h-1.2c-0.7,0-1.4-0.2-2-0.6c-0.5-0.5-0.8-1.3-0.7-2v-3.2H785v-2h0.7v-1.9h2.3v1.9h1.6v2H788v3.2
			C788,84.7,788.3,84.9,788.8,84.9z"/>
		<path d="M793,78.2c-0.3,0.3-0.6,0.4-1,0.4c-0.4,0-0.7-0.1-1-0.4c-0.3-0.3-0.4-0.6-0.4-1c0-0.8,0.6-1.4,1.3-1.4c0,0,0,0,0.1,0
			c0.4,0,0.7,0.1,1,0.4c0.3,0.3,0.4,0.6,0.4,1C793.5,77.6,793.3,78,793,78.2z M790.9,86.9v-7.8h2.4v7.8H790.9z"/>
		<path d="M798.3,87c-1,0-2.1-0.4-2.8-1.1c-1.4-1.7-1.4-4.2,0-5.8c0.7-0.7,1.8-1.1,2.8-1.1c1.1,0,2.1,0.4,2.8,1.1
			c0.8,0.8,1.2,1.9,1.1,3c0,0.3,0,0.5-0.1,0.8h-5.4c0,0.3,0.2,0.6,0.5,0.8c0.2,0.2,0.5,0.3,0.8,0.3c0.2,0,0.5,0,0.7-0.1
			c0.1,0,0.2-0.1,0.3-0.2c0.1-0.1,0.2-0.2,0.3-0.3h2.6c-0.2,0.8-0.7,1.4-1.3,1.9C800,86.8,799.1,87,798.3,87z M799.3,81.4
			c-0.3-0.2-0.6-0.4-1-0.3c-0.4,0-0.7,0.1-1,0.3c-0.3,0.2-0.4,0.5-0.5,0.9h2.9C799.7,82,799.6,81.6,799.3,81.4L799.3,81.4z"/>
		<path d="M802.9,81.5c0-0.7,0.3-1.3,0.9-1.7c0.7-0.5,1.5-0.7,2.4-0.7c0.9,0,1.7,0.2,2.4,0.7c0.6,0.4,1,1.1,1,1.9h-2.5
			c0-0.2-0.1-0.4-0.3-0.6c-0.2-0.1-0.5-0.2-0.7-0.2c-0.6,0-0.9,0.2-0.9,0.6s0.4,0.6,1.2,0.7c0.7,0.1,1.4,0.3,2.1,0.6
			c0.3,0.1,0.6,0.4,0.8,0.7c0.2,0.3,0.3,0.7,0.3,1.1c0,0.7-0.3,1.4-0.9,1.8c-0.7,0.5-1.5,0.7-2.4,0.7c-0.8,0-1.7-0.2-2.4-0.7
			c-0.6-0.4-1-1.2-1-1.9h2.5c0.1,0.5,0.4,0.7,1,0.7c0.2,0,0.4-0.1,0.6-0.2c0.2-0.1,0.3-0.3,0.3-0.5c0-0.2-0.2-0.4-0.5-0.5
			c-0.4-0.1-0.7-0.2-1.1-0.3c-0.4-0.1-0.9-0.2-1.3-0.3c-0.4-0.1-0.8-0.3-1.1-0.7C803,82.4,802.9,81.9,802.9,81.5z"/>
		<path d="M812.2,85.2l-1.6,3.8h-0.8l1-3.8H812.2z"/>
		<path d="M816.6,81c0.3-0.6,0.8-1.1,1.3-1.4c0.6-0.3,1.2-0.5,1.8-0.5c0.6,0,1.2,0.1,1.8,0.4c0.5,0.3,0.8,0.6,1.1,1.1v-1.4h1.3v7.7
			h-1.3v-1.4c-0.3,0.5-0.7,0.9-1.1,1.1c-0.5,0.3-1.1,0.5-1.7,0.4c-0.7,0-1.3-0.2-1.8-0.5c-0.6-0.3-1-0.8-1.3-1.4
			c-0.3-0.6-0.5-1.4-0.5-2.1C816.1,82.4,816.2,81.6,816.6,81z M822.2,81.6c-0.2-0.4-0.6-0.8-1-1c-0.4-0.2-0.9-0.3-1.3-0.3
			c-0.5,0-0.9,0.1-1.3,0.3c-0.4,0.2-0.7,0.6-0.9,1c-0.2,0.5-0.4,1-0.3,1.5c0,0.5,0.1,1.1,0.3,1.5c0.2,0.4,0.5,0.8,0.9,1
			c0.4,0.2,0.8,0.3,1.3,0.3c0.5,0,0.9-0.1,1.3-0.3c0.4-0.2,0.8-0.6,1-1c0.2-0.5,0.4-1,0.3-1.5C822.6,82.6,822.5,82,822.2,81.6
			L822.2,81.6z"/>
		<path d="M831.6,80c0.6,0.7,0.9,1.5,0.9,2.4V87h-1.3v-4.4c0-0.6-0.2-1.3-0.6-1.8c-0.9-0.8-2.3-0.8-3.2,0c-0.4,0.5-0.6,1.2-0.6,1.8
			v4.2h-1.3v-7.6h1.3v1.1c0.2-0.4,0.6-0.7,1-0.9c0.4-0.2,0.9-0.3,1.4-0.3C830.2,79.1,831,79.4,831.6,80z"/>
		<path d="M834.2,81c0.3-0.6,0.8-1.1,1.3-1.4c1.1-0.6,2.4-0.7,3.5-0.1c0.5,0.2,0.9,0.6,1.2,1.1v-4h1.3v10.4h-1.3v-1.4
			c-0.3,0.5-0.7,0.9-1.1,1.1c-0.5,0.3-1.1,0.5-1.7,0.4c-0.7,0-1.3-0.2-1.8-0.5c-0.6-0.3-1-0.8-1.3-1.4c-0.3-0.6-0.5-1.4-0.5-2.1
			C833.7,82.4,833.9,81.6,834.2,81z M839.9,81.6c-0.4-0.8-1.3-1.3-2.3-1.3c-0.5,0-0.9,0.1-1.3,0.3c-0.4,0.2-0.7,0.6-0.9,1
			c-0.2,0.5-0.4,1-0.3,1.5c0,0.5,0.1,1.1,0.3,1.5c0.2,0.4,0.5,0.8,0.9,1c1.2,0.7,2.8,0.3,3.5-0.9c0,0,0-0.1,0.1-0.1
			c0.2-0.5,0.4-1,0.3-1.5C840.2,82.6,840.1,82,839.9,81.6L839.9,81.6z"/>
		<path d="M846.7,77.8c-0.2-0.2-0.3-0.4-0.3-0.6c0-0.5,0.4-0.9,0.9-0.9c0.2,0,0.5,0.1,0.6,0.3c0.2,0.2,0.2,0.4,0.2,0.6
			c0,0.2-0.1,0.5-0.2,0.6C847.5,78.1,847,78.1,846.7,77.8L846.7,77.8z M847.9,79.3v7.7h-1.3v-7.7H847.9z"/>
		<path d="M851.2,80.3v4.5c0,0.3,0.1,0.6,0.2,0.8c0.2,0.2,0.5,0.3,0.8,0.2h0.9v1.1h-1.2c-0.6,0-1.1-0.1-1.6-0.5
			c-0.4-0.4-0.6-1-0.5-1.6v-4.5h-1v-1h1v-2h1.3v1.9h2v1L851.2,80.3z"/>
		<path d="M861.3,83.6h-6.1c0,0.7,0.3,1.3,0.8,1.8c0.5,0.4,1.1,0.7,1.7,0.6c0.5,0,1-0.1,1.4-0.4c0.4-0.2,0.6-0.6,0.8-1h1.4
			c-0.2,0.7-0.6,1.4-1.2,1.8c-0.7,0.5-1.5,0.7-2.3,0.7c-0.7,0-1.4-0.1-2-0.5c-0.6-0.3-1-0.8-1.4-1.4c-0.6-1.3-0.6-2.9,0-4.2
			c0.3-0.6,0.8-1.1,1.3-1.4c0.6-0.3,1.3-0.5,2-0.5c0.7,0,1.3,0.2,1.9,0.5c0.5,0.3,1,0.8,1.3,1.3c0.3,0.6,0.5,1.2,0.5,1.9
			C861.4,83.1,861.3,83.3,861.3,83.6z M859.7,81.3c-0.2-0.3-0.5-0.6-0.9-0.8c-0.4-0.2-0.8-0.3-1.2-0.3c-0.6,0-1.2,0.2-1.6,0.6
			c-0.5,0.4-0.8,1.1-0.8,1.7h4.8C860.1,82.1,860,81.7,859.7,81.3L859.7,81.3z"/>
		<path d="M864.9,79.5c0.5-0.3,1-0.4,1.5-0.4v1.3h-0.3c-1.4,0-2.1,0.8-2.1,2.3v4.2h-1.3v-7.7h1.3v1.2
			C864.1,80.1,864.5,79.7,864.9,79.5z"/>
		<path d="M867.5,81c0.3-0.6,0.8-1.1,1.3-1.4c0.6-0.3,1.2-0.5,1.8-0.5c0.6,0,1.2,0.1,1.8,0.4c0.5,0.3,0.8,0.6,1.1,1.1v-1.4h1.3v7.7
			h-1.3v-1.4c-0.3,0.5-0.7,0.9-1.1,1.1c-0.5,0.3-1.1,0.5-1.7,0.4c-0.7,0-1.3-0.2-1.8-0.5c-0.6-0.3-1-0.8-1.3-1.4
			c-0.3-0.6-0.5-1.4-0.5-2.1C867,82.4,867.2,81.6,867.5,81z M873.2,81.6c-0.4-0.8-1.3-1.3-2.3-1.3c-0.5,0-0.9,0.1-1.3,0.3
			c-0.4,0.2-0.7,0.6-0.9,1c-0.2,0.5-0.4,1-0.3,1.5c0,0.5,0.1,1.1,0.3,1.5c0.2,0.4,0.5,0.8,0.9,1c1.2,0.7,2.8,0.3,3.5-0.9
			c0,0,0-0.1,0.1-0.1c0.2-0.5,0.4-1,0.3-1.5C873.5,82.6,873.4,82,873.2,81.6L873.2,81.6z"/>
		<path d="M878.1,80.3v4.5c0,0.3,0.1,0.6,0.2,0.8c0.2,0.2,0.5,0.3,0.8,0.2h0.9v1.1H879c-0.6,0-1.1-0.1-1.6-0.5
			c-0.4-0.4-0.6-1-0.5-1.6v-4.5h-1v-1h1v-2h1.3v1.9h2v1L878.1,80.3z"/>
		<path d="M888.2,83.6h-6.1c0,0.7,0.3,1.3,0.8,1.8c0.5,0.4,1.1,0.7,1.7,0.6c0.5,0,1-0.1,1.4-0.4c0.4-0.2,0.6-0.6,0.8-1h1.4
			c-0.2,0.7-0.6,1.4-1.2,1.8c-0.7,0.5-1.5,0.7-2.3,0.7c-0.7,0-1.4-0.1-2-0.5c-0.6-0.3-1-0.8-1.3-1.4c-0.3-0.6-0.5-1.4-0.5-2.1
			c0-0.7,0.1-1.4,0.5-2.1c0.3-0.6,0.8-1.1,1.3-1.4c0.6-0.3,1.3-0.5,2-0.5c0.7,0,1.3,0.2,1.9,0.5c0.6,0.3,1,0.8,1.3,1.3
			c0.3,0.6,0.5,1.2,0.5,1.9C888.3,83.1,888.2,83.3,888.2,83.6z M886.6,81.3c-0.2-0.3-0.5-0.6-0.9-0.8c-0.4-0.2-0.8-0.3-1.2-0.3
			c-0.6,0-1.2,0.2-1.7,0.6c-0.5,0.5-0.7,1.1-0.8,1.7h4.9C887,82.1,886.9,81.7,886.6,81.3L886.6,81.3z"/>
		<path d="M894.5,80.3v4.5c0,0.3,0.1,0.6,0.2,0.8c0.2,0.2,0.5,0.3,0.8,0.2h0.9v1.1h-1.1c-0.6,0-1.1-0.1-1.6-0.5
			c-0.4-0.4-0.6-1-0.5-1.6v-4.5h-1v-1h1v-2h1.3v1.9h2v1L894.5,80.3z"/>
		<path d="M903,79.5c0.5,0.3,0.8,0.6,1.1,1.1c0.3,0.6,0.4,1.2,0.4,1.8v4.5h-1.3v-4.3c0-0.6-0.2-1.3-0.6-1.8c-0.4-0.4-1-0.6-1.6-0.6
			c-0.6,0-1.2,0.2-1.6,0.6c-0.4,0.5-0.6,1.2-0.6,1.8v4.2h-1.3V76.6h1.3v3.8c0.2-0.4,0.6-0.7,1-0.9C900.8,79,902,79,903,79.5
			L903,79.5z"/>
		<path d="M913.1,83.6H907c0,0.7,0.3,1.3,0.8,1.8c0.5,0.4,1.1,0.7,1.7,0.6c0.5,0,1-0.1,1.4-0.4c0.4-0.2,0.6-0.6,0.8-1h1.4
			c-0.2,0.7-0.6,1.4-1.2,1.8c-0.7,0.5-1.5,0.7-2.3,0.7c-0.7,0-1.4-0.1-2-0.5c-0.6-0.3-1-0.8-1.4-1.4c-0.6-1.3-0.6-2.9,0-4.2
			c0.3-0.6,0.8-1.1,1.3-1.4c0.6-0.3,1.3-0.5,2-0.5c0.7,0,1.3,0.2,1.9,0.5c0.5,0.3,1,0.8,1.3,1.3c0.3,0.6,0.5,1.2,0.5,1.9
			C913.1,83.1,913.1,83.3,913.1,83.6z M911.5,81.3c-0.2-0.3-0.5-0.6-0.9-0.8c-0.4-0.2-0.8-0.3-1.2-0.3c-0.6,0-1.2,0.2-1.6,0.6
			c-0.5,0.4-0.8,1.1-0.8,1.7h4.8C911.9,82.1,911.8,81.7,911.5,81.3z"/>
		<path d="M917.8,81c0.3-0.6,0.8-1.1,1.3-1.4c1.4-0.7,3-0.6,4.3,0.2c0.6,0.5,1,1.1,1.2,1.9h-1.4c-0.1-0.4-0.4-0.8-0.8-1.1
			c-0.4-0.3-0.9-0.4-1.4-0.4c-0.7,0-1.3,0.3-1.8,0.8c-0.5,0.6-0.7,1.4-0.7,2.1c-0.1,0.8,0.2,1.5,0.7,2.1c0.4,0.5,1.1,0.8,1.8,0.8
			c0.5,0,1-0.1,1.4-0.4c0.4-0.3,0.7-0.7,0.8-1.1h1.4c-0.2,0.8-0.6,1.4-1.2,1.9c-0.7,0.5-1.5,0.7-2.3,0.7c-0.7,0-1.3-0.2-1.9-0.5
			c-0.6-0.3-1-0.8-1.3-1.4c-0.3-0.7-0.5-1.4-0.5-2.1C917.3,82.4,917.5,81.6,917.8,81z"/>
		<path d="M932.7,79.3v7.7h-1.3v-1.1c-0.2,0.4-0.6,0.7-1,0.9c-0.4,0.2-0.9,0.3-1.4,0.3c-0.6,0-1.1-0.1-1.6-0.4
			c-0.5-0.3-0.9-0.6-1.1-1.1c-0.3-0.6-0.4-1.2-0.4-1.8v-4.5h1.3v4.3c0,0.6,0.2,1.3,0.6,1.8c0.9,0.8,2.3,0.8,3.2,0
			c0.4-0.5,0.6-1.2,0.6-1.8v-4.2H932.7z"/>
		<path d="M936.7,79.5c0.5-0.3,1-0.4,1.5-0.4v1.3h-0.3c-1.4,0-2.1,0.8-2.1,2.3v4.2h-1.3v-7.7h1.3v1.2
			C936,80.1,936.3,79.7,936.7,79.5z"/>
		<path d="M941.5,79.5c0.5-0.3,1-0.4,1.5-0.4v1.3h-0.3c-1.4,0-2.1,0.8-2.1,2.3v4.2h-1.3v-7.7h1.3v1.2
			C940.8,80.1,941.1,79.7,941.5,79.5z"/>
		<path d="M951.1,83.6H945c0,0.7,0.3,1.3,0.8,1.8c0.5,0.4,1.1,0.7,1.7,0.6c0.5,0,1-0.1,1.4-0.4c0.4-0.2,0.6-0.6,0.8-1h1.3
			c-0.2,0.7-0.6,1.4-1.2,1.8c-0.7,0.5-1.5,0.7-2.3,0.7c-0.7,0-1.4-0.1-2-0.5c-0.6-0.3-1-0.8-1.3-1.4c-0.3-0.6-0.5-1.4-0.5-2.1
			c0-0.7,0.1-1.4,0.5-2.1c0.3-0.6,0.8-1.1,1.3-1.4c0.6-0.3,1.3-0.5,2-0.5c0.7,0,1.3,0.2,1.9,0.5c0.5,0.3,1,0.8,1.3,1.3
			c0.3,0.6,0.5,1.2,0.5,1.9C951.1,83.1,951.1,83.3,951.1,83.6z M949.5,81.3c-0.2-0.3-0.5-0.6-0.9-0.8c-0.4-0.2-0.8-0.3-1.2-0.3
			c-0.6,0-1.2,0.2-1.7,0.6c-0.5,0.4-0.7,1.1-0.8,1.7h4.8C949.8,82.1,949.7,81.7,949.5,81.3z"/>
		<path d="M958.4,80c0.6,0.7,0.9,1.5,0.9,2.4V87H958v-4.4c0-0.6-0.2-1.3-0.6-1.8c-0.4-0.4-1-0.6-1.6-0.6c-0.6,0-1.2,0.2-1.6,0.6
			c-0.4,0.5-0.6,1.2-0.6,1.8v4.2h-1.3v-7.7h1.3v1.1c0.2-0.4,0.6-0.7,1-0.9C955.9,78.9,957.3,79.1,958.4,80L958.4,80z"/>
		<path d="M962.5,80.3v4.5c0,0.3,0.1,0.6,0.2,0.8c0.2,0.2,0.5,0.3,0.8,0.2h0.9v1.1h-1.1c-0.6,0-1.1-0.1-1.6-0.5
			c-0.4-0.4-0.6-1-0.5-1.6v-4.5h-1v-1h1v-2h1.3v1.9h2v1L962.5,80.3z"/>
		<path d="M969,83v-5.9h2.4V83c0,0.5,0.1,1,0.4,1.3c0.3,0.3,0.8,0.5,1.3,0.5c0.5,0,0.9-0.1,1.3-0.5c0.3-0.4,0.5-0.9,0.5-1.3v-5.9
			h2.4V83c0,0.8-0.2,1.6-0.6,2.2c-0.4,0.6-0.9,1.1-1.5,1.4c-0.6,0.3-1.3,0.4-2,0.4c-1.1,0-2.1-0.3-2.9-1.1
			C969.3,85.2,968.9,84.1,969,83z"/>
		<path d="M978.9,86.9v-9.8h2.4v9.8H978.9z"/>
	</g>
</g>
</svg>
